<?xml version="1.0" encoding="UTF-8"?>
<svg width="114px" height="107px" viewBox="0 0 114 107" version="1.1" xmlns="http://www.w3.org/2000/svg" xmlns:xlink="http://www.w3.org/1999/xlink">
    <title>analyse-blob-icon</title>
    <g id="User-research-page" stroke="none" stroke-width="1" fill="none" fill-rule="evenodd">
        <g id="User-Research-1" transform="translate(-1142.000000, -568.000000)">
            <g id="Our-process" transform="translate(123.000000, 549.000000)">
                <g id="process-item-copy-4" transform="translate(991.000000, 19.000000)">
                    <g id="analyse-blob-icon" transform="translate(28.000000, 0.000000)">
                        <path d="M87.9737222,10.1454616 C100.203425,15.5763532 112.783317,24.0184321 113.9147,34.5307024 C115.046082,45.0160871 104.702016,57.5447775 96.0011482,66.3901405 C87.2733428,75.2086178 80.1617976,80.3437678 73.0771901,87.8986218 C65.9925826,95.4534759 58.9349128,105.45492 50.8536114,106.826085 C42.7723101,108.224137 33.6943149,100.965024 27.1215232,93.2488566 C20.5487314,85.5058033 16.4811431,77.3056948 11.4437986,67.976391 C6.40645407,58.6470872 0.453228756,48.1617025 0.0222260183,36.4395801 C-0.381839048,24.6905722 4.73631846,11.6779409 14.3261294,5.35982453 C23.8890026,-0.931406274 37.8696539,-0.55500785 50.8266738,0.869929042 C63.7836936,2.29486593 75.7170819,4.71457009 87.9737222,10.1454616 Z" id="Path" fill="#2C2733" fill-rule="nonzero" transform="translate(57.000000, 53.500000) scale(-1, 1) translate(-57.000000, -53.500000) "></path>
                        <g id="Group-6" transform="translate(5.000000, 4.000000)">
                            <circle id="Oval" fill="#1AC0C6" cx="14" cy="14" r="14"></circle>
                            <text id="6" font-family="Ilisarniq-Regular, Ilisarniq" font-size="16" font-weight="normal" fill="#FFFFFF">
                                <tspan x="9.484" y="20">6</tspan>
                            </text>
                        </g>
                        <g id="Group" transform="translate(30.000000, 19.000000)" fill="#FFFFFF">
                            <g id="analysis" transform="translate(2.000000, 2.000000)">
                                <path d="M54.56,33.44 L54.56,0 L12.32,0 L12.32,8.15232 C10.72632,9.26728 9.68,11.11264 9.68,13.2 C9.68,14.95648 10.42272,16.5396 11.60632,17.66248 C8.27464,18.02592 5.30816,20.10888 3.87288,23.18624 L0.28512,30.87568 C0.09856,31.27432 0,31.71696 0,32.17368 C0,33.84216 1.35784,35.2 3.02632,35.2 C4.20288,35.2 5.28088,34.51008 5.77368,33.44176 L9.68,24.97968 L9.68,51.04 C9.68,52.98128 11.25872,54.56 13.2,54.56 C14.24984,54.56 15.19496,54.098 15.84,53.36584 C16.48504,54.098 17.43016,54.56 18.48,54.56 C20.42128,54.56 22,52.98128 22,51.04 L22,33.44 L23.76,33.44 L23.76,43.12 C23.76,44.57552 24.94448,45.76 26.4,45.76 L35.2,45.76 C35.2,50.61232 39.14768,54.56 44,54.56 C48.85232,54.56 52.8,50.61232 52.8,45.76 C52.8,40.90768 48.85232,36.96 44,36.96 C43.09008,36.96 42.2092,37.10784 41.36,37.37624 L41.36,33.44 L54.56,33.44 Z M52.8,1.76 L52.8,7.04 L14.08,7.04 L14.08,1.76 L52.8,1.76 Z M11.44,13.2 C11.44,10.77384 13.41384,8.8 15.84,8.8 C18.26616,8.8 20.24,10.77384 20.24,13.2 C20.24,15.62616 18.26616,17.6 15.84,17.6 C13.41384,17.6 11.44,15.62616 11.44,13.2 Z M17.6,19.36 C17.6,20.33064 16.81064,21.12 15.84,21.12 C14.86936,21.12 14.08,20.33064 14.08,19.36 L17.6,19.36 Z M20.24,22 L20.24,51.04 C20.24,52.01064 19.45064,52.8 18.48,52.8 C17.50936,52.8 16.72,52.01064 16.72,51.04 L16.72,32.56 L14.96,32.56 L14.96,51.04 C14.96,52.01064 14.17064,52.8 13.2,52.8 C12.22936,52.8 11.44,52.01064 11.44,51.04 L11.44,22 L9.1168,22 L4.17648,32.70432 C3.97056,33.15136 3.51912,33.44 3.02632,33.44 C2.32848,33.44 1.76,32.87152 1.76,32.15608 C1.76,31.97216 1.80136,31.78736 1.8788,31.62104 L5.46744,23.93072 C6.71704,21.25288 9.3852,19.5052 12.32264,19.38376 C12.33496,21.3136 13.90752,22.88 15.84,22.88 C17.78128,22.88 19.36,21.30128 19.36,19.36 L32.12,19.36 C32.84776,19.36 33.44,19.95224 33.44,20.68 C33.44,21.40776 32.84776,22 32.12,22 L20.24,22 Z M22,23.76 L32.12,23.76 C33.8184,23.76 35.2,22.3784 35.2,20.68 C35.2,18.9816 33.8184,17.6 32.12,17.6 L20.1432,17.6 C21.2872,16.48064 22,14.92304 22,13.2 C22,11.47696 21.2872,9.91936 20.1432,8.8 L52.8,8.8 L52.8,31.68 L41.19808,31.68 C40.83376,30.65832 39.86576,29.92 38.72,29.92 L26.4,29.92 C25.25424,29.92 24.28624,30.65832 23.92192,31.68 L22,31.68 L22,23.76 Z M26.4,44 C25.91512,44 25.52,43.60488 25.52,43.12 L25.52,32.56 C25.52,32.07512 25.91512,31.68 26.4,31.68 L38.72,31.68 C39.20488,31.68 39.6,32.07512 39.6,32.56 L39.6,43.12 C39.6,43.60488 39.20488,44 38.72,44 L26.4,44 Z M39.68976,51.31456 L44,47.00432 L48.31024,51.31456 C47.11696,52.24208 45.62448,52.8 44,52.8 C42.37552,52.8 40.88304,52.24208 39.68976,51.31456 Z M51.04,45.76 C51.04,47.38448 50.48208,48.87696 49.55456,50.07024 L44.88,45.39568 L44.88,38.7816 C48.3472,39.21632 51.04,42.17664 51.04,45.76 Z M43.12,38.7772 L43.12,45.39568 L38.44544,50.07024 C37.51792,48.87696 36.96,47.38448 36.96,45.76 L38.72,45.76 C40.17552,45.76 41.36,44.57552 41.36,43.12 L41.36,39.24272 C41.92584,39.01216 42.5128,38.852 43.12,38.7772 Z" id="Shape"></path>
                                <polygon id="Path" points="15.84 3.52 17.6 3.52 17.6 5.28 15.84 5.28"></polygon>
                                <polygon id="Path" points="19.36 3.52 21.12 3.52 21.12 5.28 19.36 5.28"></polygon>
                                <polygon id="Path" points="22.88 3.52 24.64 3.52 24.64 5.28 22.88 5.28"></polygon>
                                <path d="M51.04,10.56 L45.76,10.56 L45.76,14.08 L42.24,14.08 L42.24,17.6 L38.72,17.6 L38.72,21.12 L35.2,21.12 L35.2,28.16 L51.04,28.16 L51.04,10.56 Z M42.24,19.36 L42.24,26.4 L40.48,26.4 L40.48,19.36 L42.24,19.36 Z M36.96,22.88 L38.72,22.88 L38.72,26.4 L36.96,26.4 L36.96,22.88 Z M44,26.4 L44,15.84 L45.76,15.84 L45.76,26.4 L44,26.4 Z M49.28,26.4 L47.52,26.4 L47.52,12.32 L49.28,12.32 L49.28,26.4 Z" id="Shape"></path>
                                <polygon id="Path" points="23.76 10.56 25.52 10.56 25.52 12.32 23.76 12.32"></polygon>
                                <polygon id="Path" points="27.28 10.56 36.08 10.56 36.08 12.32 27.28 12.32"></polygon>
                                <polygon id="Path" points="23.76 14.08 25.52 14.08 25.52 15.84 23.76 15.84"></polygon>
                                <polygon id="Path" points="27.28 14.08 36.08 14.08 36.08 15.84 27.28 15.84"></polygon>
                                <polygon id="Path" points="36.08 35.2 34.32 35.2 34.32 40.48 32.56 40.48 32.56 36.96 30.8 36.96 30.8 40.48 29.04 40.48 29.04 33.44 27.28 33.44 27.28 42.24 37.84 42.24 37.84 40.48 36.08 40.48"></polygon>
                            </g>
                        </g>
                    </g>
                </g>
            </g>
        </g>
    </g>
</svg>