<?xml version="1.0" encoding="UTF-8"?>
<svg width="144px" height="185px" viewBox="0 0 144 185" version="1.1" xmlns="http://www.w3.org/2000/svg" xmlns:xlink="http://www.w3.org/1999/xlink">
    <title>app-store-bg</title>
    <g id="RNCCC" stroke="none" stroke-width="1" fill="none" fill-rule="evenodd" opacity="0.0589657738">
        <g id="RNCCC---Overview" transform="translate(-728.000000, -518.000000)" fill="#FFFFFF" fill-rule="nonzero">
            <g id="Cards-/-Build-costs-card-(ios)" transform="translate(728.000000, 518.000000)">
                <g id="Icon/App-store" transform="translate(-63.000000, -22.000000)">
                    <path d="M184.821429,0 L22.1785714,0 C9.93415179,0 0,9.93415179 0,22.1785714 L0,184.821429 C0,197.065848 9.93415179,207 22.1785714,207 L184.821429,207 C197.065848,207 207,197.065848 207,184.821429 L207,22.1785714 C207,9.93415179 197.065848,0 184.821429,0 Z M58.6808036,162.873884 C56.1395089,167.309598 50.45625,168.78817 46.0667411,166.246875 C41.6310268,163.70558 40.1524554,158.022321 42.69375,153.632812 L49.3011161,142.220089 C56.7401786,139.956027 62.8392857,141.71183 67.5984375,147.4875 L58.6808036,162.873884 Z M122.860045,137.969196 L38.8125,137.969196 C33.7299107,137.969196 29.5714286,133.810714 29.5714286,128.728125 C29.5714286,123.645536 33.7299107,119.487054 38.8125,119.487054 L62.3772321,119.487054 L92.5955357,67.1825893 L83.1234375,50.8258929 C80.5821429,46.3901786 82.1069196,40.753125 86.4964286,38.2118304 C90.9321429,35.6705357 96.5691964,37.1953125 99.1104911,41.5848214 L103.222768,48.7004464 L107.335045,41.5848214 C109.876339,37.1491071 115.559598,35.6705357 119.949107,38.2118304 C124.384821,40.753125 125.863393,46.4363839 123.322098,50.8258929 L83.6779018,119.487054 L112.371429,119.487054 C121.704911,119.487054 126.926116,130.437723 122.860045,137.969196 L122.860045,137.969196 Z M168.1875,137.969196 L154.787946,137.969196 L163.844196,153.632812 C166.385491,158.068527 164.860714,163.70558 160.471205,166.246875 C156.035491,168.78817 150.398438,167.263393 147.857143,162.873884 C132.65558,136.583036 121.289062,116.807143 113.665179,103.684821 C105.948884,90.2852679 111.447321,76.8857143 116.945759,72.3575893 C122.998661,82.8462054 132.054911,98.5560268 144.160714,119.487054 L168.1875,119.487054 C173.270089,119.487054 177.428571,123.645536 177.428571,128.728125 C177.428571,133.85692 173.270089,137.969196 168.1875,137.969196 L168.1875,137.969196 Z" id="Shape"></path>
                </g>
            </g>
        </g>
    </g>
</svg>