<?xml version="1.0" encoding="UTF-8"?>
<svg width="783px" height="39px" viewBox="0 0 783 39" version="1.1" xmlns="http://www.w3.org/2000/svg" xmlns:xlink="http://www.w3.org/1999/xlink">
    <!-- Generator: Sketch 62 (91390) - https://sketch.com -->
    <title>arrow-gradient-left-turn</title>
    <desc>Created with Sketch.</desc>
    <defs>
        <linearGradient x1="28.1408056%" y1="50%" x2="100%" y2="50%" id="linearGradient-1">
            <stop stop-color="#1AC0C6" offset="0%"></stop>
            <stop stop-color="#4ABAD1" offset="50.0248374%"></stop>
            <stop stop-color="#786F84" offset="100%"></stop>
        </linearGradient>
    </defs>
    <g id="UI-Design-(Teal)" stroke="none" stroke-width="1" fill="none" fill-rule="evenodd">
        <g id="Homepage-Teal" transform="translate(-324.000000, -2934.000000)">
            <g id="Our-process" transform="translate(215.000000, 2524.000000)">
                <g id="Arrow/Gradient/Left-Turn-Down" transform="translate(501.000000, 428.500000) scale(1, -1) translate(-501.000000, -428.500000) translate(109.000000, 410.000000)">
                    <g id="arrow-gradient-left-turn" transform="translate(0.159226, 0.000000)">
                        <polygon id="Path-3" fill="#1AC0C6" transform="translate(5.092924, 29.746363) rotate(-270.000000) translate(-5.092924, -29.746363) " points="1.33339184 24.6534388 8.85245711 29.7463633 1.33339184 34.8392878"></polygon>
                        <path d="M777.840774,32 L777.443895,18.4439763 C777.143148,8.17148695 768.728923,-8.99326158e-15 758.452032,0 L24,0 C13.5065898,1.92760819e-15 5,8.50658975 5,19 L5,25.8278812 L5,25.8278812" id="Path-69-Copy-2" stroke="url(#linearGradient-1)" stroke-width="3" stroke-dasharray="4"></path>
                        <circle id="Oval-9" fill="#786F84" transform="translate(776.840774, 31.000000) rotate(-180.000000) translate(-776.840774, -31.000000) " cx="776.840774" cy="31" r="6"></circle>
                    </g>
                </g>
            </g>
        </g>
    </g>
</svg>