<?xml version="1.0" encoding="UTF-8"?>
<svg width="17px" height="17px" viewBox="0 0 17 17" version="1.1" xmlns="http://www.w3.org/2000/svg" xmlns:xlink="http://www.w3.org/1999/xlink">
    <!-- Generator: Sketch 62 (91390) - https://sketch.com -->
    <title>Group</title>
    <desc>Created with Sketch.</desc>
    <g id="UI-Design-(Teal)" stroke="none" stroke-width="1" fill="none" fill-rule="evenodd">
        <g id="iPhone-11-Pro---mobile" transform="translate(-310.000000, -24.000000)" fill="#FFFFFF" fill-rule="nonzero">
            <g id="Group" transform="translate(310.000000, 24.000000)">
                <path d="M10.18185,8.4 L15.56625,3.0156 L16.676625,1.905225 C16.840425,1.741425 16.840425,1.47525 16.676625,1.31145 L15.48855,0.123375 C15.32475,-0.040425 15.058575,-0.040425 14.894775,0.123375 L8.4,6.61815 L1.905225,0.12285 C1.741425,-0.04095 1.47525,-0.04095 1.31145,0.12285 L0.12285,1.310925 C-0.04095,1.474725 -0.04095,1.7409 0.12285,1.9047 L6.61815,8.4 L0.12285,14.894775 C-0.04095,15.058575 -0.04095,15.32475 0.12285,15.48855 L1.310925,16.676625 C1.474725,16.840425 1.7409,16.840425 1.9047,16.676625 L8.4,10.18185 L13.7844,15.56625 L14.894775,16.676625 C15.058575,16.840425 15.32475,16.840425 15.48855,16.676625 L16.676625,15.48855 C16.840425,15.32475 16.840425,15.058575 16.676625,14.894775 L10.18185,8.4 Z" id="Path"></path>
            </g>
        </g>
    </g>
</svg>