<?xml version="1.0" encoding="UTF-8"?>
<svg width="51px" height="51px" viewBox="0 0 51 51" version="1.1" xmlns="http://www.w3.org/2000/svg" xmlns:xlink="http://www.w3.org/1999/xlink">
    <!-- Generator: Sketch 62 (91390) - https://sketch.com -->
    <title>UI-design-icon</title>
    <desc>Created with Sketch.</desc>
    <g id="UI-Design" stroke="none" stroke-width="1" fill="none" fill-rule="evenodd">
        <g id="Homepage-v1" transform="translate(-492.000000, -2691.000000)" fill="#FFFFFF" fill-rule="nonzero">
            <g id="Our-process" transform="translate(215.000000, 2505.000000)">
                <g id="process-item-copy" transform="translate(190.000000, 145.000000)">
                    <g id="process-item">
                        <g id="Icon-/-Research-Green" transform="translate(87.000000, 41.000000)">
                            <g id="UI-design-icon">
                                <path d="M38.6123927,38.5600014 L36.9358709,38.5600014 L36.9358709,41.913045 L21.8471747,41.913045 L21.8471747,43.5895668 L36.9358709,43.5895668 L36.9358709,46.1043495 C36.9358709,47.4931284 35.8098671,48.6191322 34.4210882,48.6191322 L15.9793484,48.6191322 C15.0809193,48.6179042 14.2508446,48.139015 13.7997882,47.3617408 L12.347976,48.2000017 C13.0994638,49.4946401 14.4825124,50.2927888 15.9793484,50.295654 L34.4210882,50.295654 C36.7349011,50.2927888 38.6095275,48.4181624 38.6123927,46.1043495 L38.6123927,38.5600014 Z" id="Path"></path>
                                <polygon id="Path" points="24.3619574 45.2660886 26.0384792 45.2660886 26.0384792 46.9426104 24.3619574 46.9426104"></polygon>
                                <path d="M29.3915228,22.6330443 L29.3915228,20.9565225 L26.8341722,20.9565225 C26.4162697,15.6072883 22.1668435,11.3578621 16.8176093,10.9399596 L16.8176093,8.382609 L15.1410875,8.382609 L15.1410875,10.9399596 C14.5762437,10.9833461 14.0159024,11.0709379 13.4645657,11.2015069 L13.4645657,6.7060872 L26.8767401,6.7060872 L26.8767401,5.0295654 L13.4645657,5.0295654 L13.4645657,4.1913045 C13.4645657,2.8025256 14.5905695,1.6765218 15.9793484,1.6765218 L34.4210882,1.6765218 C35.0334116,1.6765218 35.6248603,1.90000341 36.0841029,2.30521747 L37.193325,1.04782612 C36.4279208,0.372060109 35.4419001,-0.00040930708 34.4210882,-3.36982226e-07 L15.9793484,-3.36982226e-07 C13.6655355,0.0028651548 11.7909091,1.8774916 11.7880439,4.1913045 L11.7880439,11.7356526 C8.01341396,13.3168059 5.44091899,16.8765495 5.12452464,20.9565225 L2.56717401,20.9565225 L2.56717401,22.6330443 L5.12657115,22.6330443 C5.52196184,27.9925112 9.78162054,32.2550351 15.1410875,32.6537002 L15.1410875,35.2069578 L16.8176093,35.2069578 L16.8176093,32.6537002 C22.1770763,32.2550351 26.436735,27.9925112 26.8321257,22.6330443 L29.3915228,22.6330443 Z M15.1410875,29.3391315 L15.1410875,30.9771784 C13.9716972,30.8719865 12.8338235,30.543313 11.7880439,30.0095765 L11.7880439,28.5008706 C11.7880439,26.186239 13.6647168,24.3095661 15.9793484,24.3095661 C18.29398,24.3095661 20.1706529,26.186239 20.1706529,28.5008706 L20.1706529,30.0095765 C19.1252827,30.5441315 17.9869996,30.8732144 16.8176093,30.9796343 L16.8176093,29.3391315 L15.1410875,29.3391315 Z M13.4645657,20.1182616 C13.4645657,18.7294827 14.5905695,17.6034789 15.9793484,17.6034789 C17.3681273,17.6034789 18.4941311,18.7294827 18.4941311,20.1182616 C18.4941311,21.5070405 17.3681273,22.6330443 15.9793484,22.6330443 C14.5905695,22.6330443 13.4645657,21.5070405 13.4645657,20.1182616 Z M22.1263221,28.6686864 C22.0358652,28.7521852 21.9392688,28.8193114 21.8471747,28.8966706 L21.8471747,28.5008706 C21.8451282,26.3110777 20.6237559,24.3046544 18.6795472,23.2969404 C20.0261675,22.1627505 20.5202012,20.3077708 19.9164732,18.6541702 C19.3127453,17.0001603 17.7397781,15.8999429 15.9793484,15.8999429 C14.2189187,15.8999429 12.6459515,17.0001603 12.0422236,18.6541702 C11.4384956,20.3077708 11.9325293,22.1627505 13.2791496,23.2969404 C11.3349409,24.3046544 10.1135686,26.3110777 10.1115221,28.5008706 L10.1115221,28.9007636 C10.0186094,28.8246325 9.9220129,28.7530038 9.83237473,28.6727796 C8.09527537,27.1149569 7.01265817,24.9570899 6.80309295,22.6330443 L8.4350003,22.6330443 L8.4350003,20.9565225 L6.80104644,20.9565225 C7.2107628,16.5310943 10.7156594,13.0261978 15.1410875,12.6164814 L15.1410875,14.2504353 L16.8176093,14.2504353 L16.8176093,12.6164814 C21.2430374,13.0261978 24.747934,16.5310943 25.1576504,20.9565225 L23.5236965,20.9565225 L23.5236965,22.6330443 L25.1556039,22.6330443 C24.9460386,24.9570899 23.8634214,27.1149569 22.1263221,28.6727796 L22.1263221,28.6686864 Z" id="Shape"></path>
                                <path d="M47.8332626,15.0886962 C48.2961889,15.0886962 48.6715235,14.7133616 48.6715235,14.2504353 L48.6715235,4.1913045 C48.6715235,3.72837816 48.2961889,3.3530436 47.8332626,3.3530436 L29.3915228,3.3530436 C28.9285965,3.3530436 28.5532619,3.72837816 28.5532619,4.1913045 L28.5532619,14.2504353 C28.5532619,14.7133616 28.9285965,15.0886962 29.3915228,15.0886962 L47.8332626,15.0886962 Z M30.2297837,5.0295654 L46.9950017,5.0295654 L46.9950017,13.4121744 L30.2297837,13.4121744 L30.2297837,5.0295654 Z" id="Shape"></path>
                                <polygon id="Path" points="31.9063055 6.7060872 35.2593491 6.7060872 35.2593491 8.382609 31.9063055 8.382609"></polygon>
                                <polygon id="Path" points="36.9358709 6.7060872 45.3184799 6.7060872 45.3184799 8.382609 36.9358709 8.382609"></polygon>
                                <polygon id="Path" points="31.9063055 10.0591308 45.3184799 10.0591308 45.3184799 11.7356526 31.9063055 11.7356526"></polygon>
                                <path d="M47.6850935,16.765218 C47.0359324,16.7664459 46.4096925,17.0046626 45.9246636,17.435663 L38.6123927,23.8822495 L38.6123927,16.765218 L36.9358709,16.765218 L36.9358709,25.147827 L37.1781807,25.147827 L32.4093439,29.3559131 C29.3067962,29.5335524 26.8804238,32.0990892 26.8767401,35.2069578 L26.8767401,36.6857842 C26.8800146,37.5174962 26.4097207,38.2792167 25.6639632,38.6480024 C25.3156428,38.8215486 25.1326827,39.2120275 25.2219115,39.5906367 C25.3111405,39.9692457 25.6492281,40.2369325 26.0384792,40.2365237 L31.9063055,40.2365237 C35.0141741,40.2328394 37.5797109,37.8064671 37.7573502,34.7039194 L49.682512,21.1894182 C50.3746502,20.4043673 50.5428755,19.2865496 50.1118751,18.3324548 C49.6812841,17.3783599 48.7316917,16.765218 47.6850935,16.765218 L47.6850935,16.765218 Z M31.9063055,38.5600014 L28.0727353,38.5600014 C28.3891298,37.9861529 28.5544898,37.341085 28.5532619,36.6857842 L28.5532619,35.2069578 C28.5561271,33.0233045 30.2326489,31.2063903 32.4093439,31.0291604 L36.0841029,34.7039194 C35.9072822,36.8806144 34.0899588,38.5575455 31.9063055,38.5600014 Z M48.4251207,20.0806053 L36.8982146,33.1448687 L33.9683946,30.2158673 L47.0326579,18.6881426 C47.4235462,18.3451433 48.0133577,18.3643808 48.3813248,18.7319385 C48.7488825,19.0999056 48.76812,19.6897171 48.4251207,20.0806053 Z" id="Shape"></path>
                                <path d="M0.890652206,46.1043495 L19.332392,46.1043495 C19.7953183,46.1043495 20.1706529,45.7290149 20.1706529,45.2660886 L20.1706529,38.5600014 C20.1706529,38.0970751 19.7953183,37.7217405 19.332392,37.7217405 L13.4645657,37.7217405 L13.4645657,33.530436 L11.7880439,33.530436 L11.7880439,37.7217405 L0.890652206,37.7217405 C0.427725872,37.7217405 0.0523913062,38.0970751 0.0523913062,38.5600014 L0.0523913062,45.2660886 C0.0523913062,45.7290149 0.427725872,46.1043495 0.890652206,46.1043495 Z M1.72891311,39.3982623 L18.4941311,39.3982623 L18.4941311,44.4278277 L1.72891311,44.4278277 L1.72891311,39.3982623 Z" id="Shape"></path>
                                <polygon id="Path" points="3.40543491 41.0747841 7.5967394 41.0747841 7.5967394 42.7513059 3.40543491 42.7513059"></polygon>
                                <polygon id="Path" points="9.2732612 41.0747841 16.8176093 41.0747841 16.8176093 42.7513059 9.2732612 42.7513059"></polygon>
                                <path d="M0.890652206,11.7356526 L9.2732612,11.7356526 C9.73618754,11.7356526 10.1115221,11.360318 10.1115221,10.8973917 L10.1115221,4.1913045 C10.1115221,3.72837816 9.73618754,3.3530436 9.2732612,3.3530436 L0.890652206,3.3530436 C0.427725872,3.3530436 0.0523913062,3.72837816 0.0523913062,4.1913045 L0.0523913062,10.8973917 C0.0523913062,11.360318 0.427725872,11.7356526 0.890652206,11.7356526 Z M1.72891311,5.0295654 L8.4350003,5.0295654 L8.4350003,10.0591308 L1.72891311,10.0591308 L1.72891311,5.0295654 Z" id="Shape"></path>
                                <polygon id="Path" points="3.40543491 6.7060872 6.7584785 6.7060872 6.7584785 8.382609 3.40543491 8.382609"></polygon>
                            </g>
                        </g>
                    </g>
                </g>
            </g>
        </g>
    </g>
</svg>