<?xml version="1.0" encoding="UTF-8"?>
<svg width="60px" height="60px" viewBox="0 0 60 60" version="1.1" xmlns="http://www.w3.org/2000/svg" xmlns:xlink="http://www.w3.org/1999/xlink">
    <!-- Generator: Sketch 62 (91390) - https://sketch.com -->
    <title>design-line-icon-green</title>
    <desc>Created with Sketch.</desc>
    <g id="UI-Design-(Teal)" stroke="none" stroke-width="1" fill="none" fill-rule="evenodd">
        <g id="Project-Builder-Teal---dark" transform="translate(-471.000000, -489.000000)" fill="#1AC0C6" fill-rule="nonzero">
            <g id="Card-/-Project-Planner-Service" transform="translate(409.000000, 427.000000)">
                <g id="design">
                    <g id="Icon-/-Design" transform="translate(62.000000, 62.000000)">
                        <g id="design-line-icon-green">
                            <path d="M45.9671342,45.9047636 L43.9712749,45.9047636 L43.9712749,49.8964821 L26.0085413,49.8964821 L26.0085413,51.8923414 L43.9712749,51.8923414 L43.9712749,54.8861303 C43.9712749,56.5394385 42.6307942,57.8799193 40.9774859,57.8799193 L19.0230338,57.8799193 C17.9534754,57.8784574 16.9652912,57.3083512 16.4283193,56.3830248 L14.6999714,57.3809544 C15.5945997,58.9221905 17.2410862,59.8723676 19.0230338,59.8757785 L40.9774859,59.8757785 C43.7320251,59.8723676 45.9637232,57.6406695 45.9671342,54.8861303 L45.9671342,45.9047636 Z" id="Path"></path>
                            <polygon id="Path" points="29.0023302 53.8882007 30.9981895 53.8882007 30.9981895 55.88406 29.0023302 55.88406"></polygon>
                            <path d="M34.9899081,26.9441003 L34.9899081,24.9482411 L31.945443,24.9482411 C31.4479401,18.5801051 26.3890994,13.5212644 20.0209635,13.0237615 L20.0209635,9.97929642 L18.0251042,9.97929642 L18.0251042,13.0237615 C17.3526711,13.0754121 16.6855981,13.179688 16.0292449,13.3351272 L16.0292449,7.98343714 L31.9961192,7.98343714 L31.9961192,5.98757785 L16.0292449,5.98757785 L16.0292449,4.98964821 C16.0292449,3.33634 17.3697256,1.99585928 19.0230338,1.99585928 L40.9774859,1.99585928 C41.7064424,1.99585928 42.410548,2.26190882 42.9572653,2.74430652 L44.2777679,1.24741205 C43.3665724,0.442928702 42.1927382,-0.000487270333 40.9774859,-4.01169318e-07 L19.0230338,-4.01169318e-07 C16.2684946,0.00341089857 14.0367965,2.23510905 14.0333856,4.98964821 L14.0333856,13.971015 C9.53977852,15.8533403 6.47728451,20.0911304 6.10062457,24.9482411 L3.05615953,24.9482411 L3.05615953,26.9441003 L6.10306089,26.9441003 C6.5737641,33.3244182 11.6447864,38.3988513 18.0251042,38.8734526 L18.0251042,41.913045 L20.0209635,41.913045 L20.0209635,38.8734526 C26.4012813,38.3988513 31.4723035,33.3244182 31.9430067,26.9441003 L34.9899081,26.9441003 Z M18.0251042,34.9275375 L18.0251042,36.8775933 C16.6329729,36.7523649 15.2783613,36.3610869 14.0333856,35.7256864 L14.0333856,33.9296078 C14.0333856,31.1740941 16.26752,28.9399596 19.0230338,28.9399596 C21.7785476,28.9399596 24.012682,31.1740941 24.012682,33.9296078 L24.012682,35.7256864 C22.7681937,36.3620613 21.4130948,36.7538267 20.0209635,36.880517 L20.0209635,34.9275375 L18.0251042,34.9275375 Z M16.0292449,23.9503114 C16.0292449,22.2970032 17.3697256,20.9565225 19.0230338,20.9565225 C20.676342,20.9565225 22.0168227,22.2970032 22.0168227,23.9503114 C22.0168227,25.6036196 20.676342,26.9441003 19.0230338,26.9441003 C17.3697256,26.9441003 16.0292449,25.6036196 16.0292449,23.9503114 Z M26.3408596,34.1293886 C26.2331729,34.2287919 26.1181771,34.3087041 26.0085413,34.4007983 L26.0085413,33.9296078 C26.006105,31.3227115 24.5520903,28.9341124 22.2375562,27.7344529 C23.8406756,26.3842268 24.4288109,24.1759176 23.7100872,22.2073455 C22.9913634,20.2382861 21.1187835,18.9285034 19.0230338,18.9285034 C16.9272841,18.9285034 15.0547042,20.2382861 14.3359804,22.2073455 C13.6172567,24.1759176 14.205392,26.3842268 15.8085115,27.7344529 C13.4939773,28.9341124 12.0399626,31.3227115 12.0375263,33.9296078 L12.0375263,34.4056709 C11.9269159,34.3150387 11.8119201,34.2297664 11.705208,34.1342614 C9.63723259,32.2797106 8.34840259,29.7108214 8.09892018,26.9441003 L10.041667,26.9441003 L10.041667,24.9482411 L8.09648386,24.9482411 C8.58424143,19.6798742 12.7567373,15.5073783 18.0251042,15.0196208 L18.0251042,16.9648039 L20.0209635,16.9648039 L20.0209635,15.0196208 C25.2893303,15.5073783 29.4618262,19.6798742 29.9495838,24.9482411 L28.0044006,24.9482411 L28.0044006,26.9441003 L29.9471474,26.9441003 C29.697665,29.7108214 28.408835,32.2797106 26.3408596,34.1342614 L26.3408596,34.1293886 Z" id="Shape"></path>
                            <path d="M56.9443602,17.9627336 C57.495463,17.9627336 57.9422899,17.5159067 57.9422899,16.9648039 L57.9422899,4.98964821 C57.9422899,4.43854543 57.495463,3.99171857 56.9443602,3.99171857 L34.9899081,3.99171857 C34.4388053,3.99171857 33.9919784,4.43854543 33.9919784,4.98964821 L33.9919784,16.9648039 C33.9919784,17.5159067 34.4388053,17.9627336 34.9899081,17.9627336 L56.9443602,17.9627336 Z M35.9878377,5.98757785 L55.9464306,5.98757785 L55.9464306,15.9668743 L35.9878377,15.9668743 L35.9878377,5.98757785 Z" id="Shape"></path>
                            <polygon id="Path" points="37.983697 7.98343714 41.9754156 7.98343714 41.9754156 9.97929642 37.983697 9.97929642"></polygon>
                            <polygon id="Path" points="43.9712749 7.98343714 53.9505713 7.98343714 53.9505713 9.97929642 43.9712749 9.97929642"></polygon>
                            <polygon id="Path" points="37.983697 11.9751557 53.9505713 11.9751557 53.9505713 13.971015 37.983697 13.971015"></polygon>
                            <path d="M56.7679684,19.9585928 C55.9951576,19.9600547 55.2496339,20.243646 54.6722186,20.7567417 L45.9671342,28.4312494 L45.9671342,19.9585928 L43.9712749,19.9585928 L43.9712749,29.9378893 L44.2597389,29.9378893 L38.5825522,34.9475155 C34.8890431,35.1589909 32.0005046,38.2132014 31.9961192,41.913045 L31.9961192,43.6735527 C32.0000173,44.663686 31.4401437,45.570496 30.5523371,46.0095267 C30.13767,46.2161293 29.9198603,46.6809852 30.0260852,47.1317103 C30.1323102,47.5824353 30.5347954,47.9011101 30.9981895,47.9006234 L37.983697,47.9006234 C41.6835406,47.8962374 44.7377511,45.0076989 44.9492265,41.3141898 L59.1458477,25.2254979 C59.9698217,24.2909134 60.1700898,22.9601781 59.6569942,21.8243509 C59.1443858,20.6885237 58.0139186,19.9585928 56.7679684,19.9585928 L56.7679684,19.9585928 Z M37.983697,45.9047636 L33.419923,45.9047636 C33.7965831,45.2216106 33.9934403,44.4536726 33.9919784,43.6735527 L33.9919784,41.913045 C33.9953894,39.3134577 35.9912487,37.1504647 38.5825522,36.9394767 L42.9572653,41.3141898 C42.7467646,43.9054933 40.5832843,45.9018399 37.983697,45.9047636 Z M57.6489532,23.9054825 L43.926446,39.458177 L40.438565,35.9712706 L55.9912595,22.2477888 C56.4566027,21.8394563 57.1587592,21.8623581 57.5968152,22.2999268 C58.0343839,22.7379828 58.0572857,23.4401393 57.6489532,23.9054825 Z" id="Shape"></path>
                            <path d="M1.06030025,54.8861303 L23.0147524,54.8861303 C23.5658552,54.8861303 24.012682,54.4393035 24.012682,53.8882007 L24.012682,45.9047636 C24.012682,45.3536608 23.5658552,44.9068339 23.0147524,44.9068339 L16.0292449,44.9068339 L16.0292449,39.9171857 L14.0333856,39.9171857 L14.0333856,44.9068339 L1.06030025,44.9068339 C0.509197467,44.9068339 0.0623706027,45.3536608 0.0623706027,45.9047636 L0.0623706027,53.8882007 C0.0623706027,54.4393035 0.509197467,54.8861303 1.06030025,54.8861303 Z M2.05822989,46.9026932 L22.0168227,46.9026932 L22.0168227,52.8902711 L2.05822989,52.8902711 L2.05822989,46.9026932 Z" id="Shape"></path>
                            <polygon id="Path" points="4.05408917 48.8985525 9.04373739 48.8985525 9.04373739 50.8944118 4.05408917 50.8944118"></polygon>
                            <polygon id="Path" points="11.0395967 48.8985525 20.0209635 48.8985525 20.0209635 50.8944118 11.0395967 50.8944118"></polygon>
                            <path d="M1.06030025,13.971015 L11.0395967,13.971015 C11.5906994,13.971015 12.0375263,13.5241881 12.0375263,12.9730854 L12.0375263,4.98964821 C12.0375263,4.43854543 11.5906994,3.99171857 11.0395967,3.99171857 L1.06030025,3.99171857 C0.509197467,3.99171857 0.0623706027,4.43854543 0.0623706027,4.98964821 L0.0623706027,12.9730854 C0.0623706027,13.5241881 0.509197467,13.971015 1.06030025,13.971015 Z M2.05822989,5.98757785 L10.041667,5.98757785 L10.041667,11.9751557 L2.05822989,11.9751557 L2.05822989,5.98757785 Z" id="Shape"></path>
                            <polygon id="Path" points="4.05408917 7.98343714 8.04580774 7.98343714 8.04580774 9.97929642 4.05408917 9.97929642"></polygon>
                        </g>
                    </g>
                </g>
            </g>
        </g>
    </g>
</svg>