<?xml version="1.0" encoding="UTF-8"?>
<svg width="111px" height="106px" viewBox="0 0 111 106" version="1.1" xmlns="http://www.w3.org/2000/svg" xmlns:xlink="http://www.w3.org/1999/xlink">
    <!-- Generator: Sketch 62 (91390) - https://sketch.com -->
    <title>development-blob-icon</title>
    <desc>Created with Sketch.</desc>
    <g id="UI-Design-(Teal)" stroke="none" stroke-width="1" fill="none" fill-rule="evenodd">
        <g id="Homepage-Teal" transform="translate(-665.000000, -2684.000000)">
            <g id="Our-process" transform="translate(215.000000, 2524.000000)">
                <g id="process-item-copy-2" transform="translate(389.000000, 139.000000)">
                    <g id="process-item">
                        <g id="development-blob-icon" transform="translate(50.000000, 0.000000)">
                            <path d="M105.973722,30.1454616 C118.203425,35.5763532 130.783317,44.0184321 131.9147,54.5307024 C133.046082,65.0160871 122.702016,77.5447775 114.001148,86.3901405 C105.273343,95.2086178 98.1617976,100.343768 91.0771901,107.898622 C83.9925826,115.453476 76.9349128,125.45492 68.8536114,126.826085 C60.7723101,128.224137 51.6943149,120.965024 45.1215232,113.248857 C38.5487314,105.505803 34.4811431,97.3056948 29.4437986,87.976391 C24.4064541,78.6470872 18.4532288,68.1617025 18.022226,56.4395801 C17.618161,44.6905722 22.7363185,31.6779409 32.3261294,25.3598245 C41.8890026,19.0685937 55.8696539,19.4449922 68.8266738,20.869929 C81.7836936,22.2948659 93.7170819,24.7145701 105.973722,30.1454616 Z" id="Path" fill="#2C2733" fill-rule="nonzero" transform="translate(75.000000, 73.500000) rotate(-25.000000) translate(-75.000000, -73.500000) "></path>
                            <g id="development-icon" transform="translate(46.000000, 44.000000)" fill="#FFFFFF" fill-rule="nonzero">
                                <path d="M36.55,0 L4.25,0 C1.904,0.0027625 0.0027625,1.904 0,4.25 L0,27.2 C0.0027625,29.546 1.904,31.4472375 4.25,31.45 L15.8729,31.45 L14.6591,35.7 L11.9,35.7 L11.9,37.4 L28.9,37.4 L28.9,35.7 L26.1409,35.7 L24.9271,31.45 L36.55,31.45 C38.896,31.4472375 40.7972375,29.546 40.8,27.2 L40.8,4.25 C40.7972375,1.904 38.896,0.0027625 36.55,0 Z M16.4271,35.7 L17.6409,31.45 L23.1591,31.45 L24.3729,35.7 L16.4271,35.7 Z M39.1,27.2 C39.1,28.6083437 37.9583438,29.75 36.55,29.75 L4.25,29.75 C2.84165625,29.75 1.7,28.6083437 1.7,27.2 L1.7,25.5 L39.1,25.5 L39.1,27.2 Z M39.1,23.8 L1.7,23.8 L1.7,4.25 C1.7,2.84165625 2.84165625,1.7 4.25,1.7 L36.55,1.7 C37.9583438,1.7 39.1,2.84165625 39.1,4.25 L39.1,23.8 Z" id="Shape"></path>
                                <path d="M27.2,39.1 L3.4,39.1 C2.9305875,39.1 2.55,39.4805875 2.55,39.95 L2.55,50.15 C2.55,50.6194125 2.9305875,51 3.4,51 L27.2,51 C27.6694125,51 28.05,50.6194125 28.05,50.15 L28.05,39.95 C28.05,39.4805875 27.6694125,39.1 27.2,39.1 Z M26.35,49.3 L4.25,49.3 L4.25,40.8 L26.35,40.8 L26.35,49.3 Z" id="Shape"></path>
                                <rect id="Rectangle" x="5.95" y="45.9" width="1.7" height="1.7"></rect>
                                <rect id="Rectangle" x="5.95" y="42.5" width="1.7" height="1.7"></rect>
                                <rect id="Rectangle" x="9.35" y="42.5" width="1.7" height="1.7"></rect>
                                <rect id="Rectangle" x="12.75" y="42.5" width="1.7" height="1.7"></rect>
                                <rect id="Rectangle" x="19.55" y="42.5" width="1.7" height="1.7"></rect>
                                <rect id="Rectangle" x="16.15" y="42.5" width="1.7" height="1.7"></rect>
                                <rect id="Rectangle" x="22.95" y="45.9" width="1.7" height="1.7"></rect>
                                <rect id="Rectangle" x="22.95" y="42.5" width="1.7" height="1.7"></rect>
                                <rect id="Rectangle" x="9.35" y="45.9" width="11.9" height="1.7"></rect>
                                <path d="M34,39.1 C31.6528312,39.1 29.75,41.0028313 29.75,43.35 L29.75,46.75 C29.75,49.0971688 31.6528312,51 34,51 C36.3471688,51 38.25,49.0971688 38.25,46.75 L38.25,43.35 C38.25,41.0028313 36.3471688,39.1 34,39.1 Z M36.55,46.75 C36.55,48.1583438 35.4083438,49.3 34,49.3 C32.5916562,49.3 31.45,48.1583438 31.45,46.75 L31.45,43.35 C31.45,41.9416563 32.5916562,40.8 34,40.8 C35.4083438,40.8 36.55,41.9416563 36.55,43.35 L36.55,46.75 Z" id="Shape"></path>
                                <rect id="Rectangle" x="33.15" y="42.5" width="1.7" height="1.7"></rect>
                                <rect id="Rectangle" transform="translate(20.394259, 13.614463) rotate(-74.031780) translate(-20.394259, -13.614463) " x="14.2090079" y="12.7648477" width="12.3705018" height="1.69923074"></rect>
                                <path d="M15.844,10.0028 L14.756,8.6972 L9.656,12.9472 C9.29549375,13.2478875 9.2469375,13.7838125 9.547625,14.144425 C9.58045625,14.1837375 9.6166875,14.220075 9.656,14.2528 L14.756,18.5028 L15.844,17.1972 L11.5277,13.6 L15.844,10.0028 Z" id="Path"></path>
                                <path d="M31.252375,13.055575 C31.2195438,13.0162625 31.1833125,12.979925 31.144,12.9472 L26.044,8.6972 L24.956,10.0028 L29.2723,13.6 L24.956,17.1972 L26.044,18.5028 L31.144,14.2528 C31.5045063,13.9521125 31.5530625,13.4161875 31.252375,13.055575 Z" id="Path"></path>
                            </g>
                            <g id="label" transform="translate(11.000000, 26.000000)">
                                <circle id="Oval" fill="#1AC0C6" cx="14" cy="14" r="14"></circle>
                                <path d="M14.428,20.176 C16.876,20.176 18.412,18.784 18.412,16.896 C18.412,15.52 17.628,14.512 16.364,14.032 C17.42,13.504 17.964,12.672 17.964,11.696 C17.964,9.904 16.476,8.624 14.444,8.624 C12.524,8.624 11.18,9.568 10.556,11.088 L11.82,11.792 C12.204,10.736 13.116,10.112 14.332,10.112 C15.564,10.112 16.332,10.912 16.332,11.824 C16.332,12.88 15.34,13.52 14.124,13.52 L12.956,13.52 L12.956,14.848 L14.124,14.848 C15.804,14.848 16.748,15.648 16.748,16.816 C16.748,17.888 15.916,18.688 14.316,18.688 C13.068,18.688 12.124,18.08 11.676,16.992 L10.396,17.712 C11.02,19.232 12.492,20.176 14.428,20.176 Z" id="3" fill="#FFFFFF" fill-rule="nonzero"></path>
                            </g>
                        </g>
                    </g>
                </g>
            </g>
        </g>
    </g>
</svg>