<?xml version="1.0" encoding="UTF-8"?>
<svg width="41px" height="51px" viewBox="0 0 41 51" version="1.1" xmlns="http://www.w3.org/2000/svg" xmlns:xlink="http://www.w3.org/1999/xlink">
    <!-- Generator: Sketch 62 (91390) - https://sketch.com -->
    <title>development-icon</title>
    <desc>Created with Sketch.</desc>
    <g id="UI-Design" stroke="none" stroke-width="1" fill="none" fill-rule="evenodd">
        <g id="Homepage-v1" transform="translate(-700.000000, -2688.000000)" fill="#FFFFFF" fill-rule="nonzero">
            <g id="Our-process" transform="translate(215.000000, 2505.000000)">
                <g id="process-item-copy-2" transform="translate(389.000000, 139.000000)">
                    <g id="process-item">
                        <g id="Icon-/-Research-Green" transform="translate(96.000000, 44.000000)">
                            <g id="development-icon">
                                <path d="M36.55,0 L4.25,0 C1.904,0.0027625 0.0027625,1.904 0,4.25 L0,27.2 C0.0027625,29.546 1.904,31.4472375 4.25,31.45 L15.8729,31.45 L14.6591,35.7 L11.9,35.7 L11.9,37.4 L28.9,37.4 L28.9,35.7 L26.1409,35.7 L24.9271,31.45 L36.55,31.45 C38.896,31.4472375 40.7972375,29.546 40.8,27.2 L40.8,4.25 C40.7972375,1.904 38.896,0.0027625 36.55,0 Z M16.4271,35.7 L17.6409,31.45 L23.1591,31.45 L24.3729,35.7 L16.4271,35.7 Z M39.1,27.2 C39.1,28.6083437 37.9583438,29.75 36.55,29.75 L4.25,29.75 C2.84165625,29.75 1.7,28.6083437 1.7,27.2 L1.7,25.5 L39.1,25.5 L39.1,27.2 Z M39.1,23.8 L1.7,23.8 L1.7,4.25 C1.7,2.84165625 2.84165625,1.7 4.25,1.7 L36.55,1.7 C37.9583438,1.7 39.1,2.84165625 39.1,4.25 L39.1,23.8 Z" id="Shape"></path>
                                <path d="M27.2,39.1 L3.4,39.1 C2.9305875,39.1 2.55,39.4805875 2.55,39.95 L2.55,50.15 C2.55,50.6194125 2.9305875,51 3.4,51 L27.2,51 C27.6694125,51 28.05,50.6194125 28.05,50.15 L28.05,39.95 C28.05,39.4805875 27.6694125,39.1 27.2,39.1 Z M26.35,49.3 L4.25,49.3 L4.25,40.8 L26.35,40.8 L26.35,49.3 Z" id="Shape"></path>
                                <rect id="Rectangle" x="5.95" y="45.9" width="1.7" height="1.7"></rect>
                                <rect id="Rectangle" x="5.95" y="42.5" width="1.7" height="1.7"></rect>
                                <rect id="Rectangle" x="9.35" y="42.5" width="1.7" height="1.7"></rect>
                                <rect id="Rectangle" x="12.75" y="42.5" width="1.7" height="1.7"></rect>
                                <rect id="Rectangle" x="19.55" y="42.5" width="1.7" height="1.7"></rect>
                                <rect id="Rectangle" x="16.15" y="42.5" width="1.7" height="1.7"></rect>
                                <rect id="Rectangle" x="22.95" y="45.9" width="1.7" height="1.7"></rect>
                                <rect id="Rectangle" x="22.95" y="42.5" width="1.7" height="1.7"></rect>
                                <rect id="Rectangle" x="9.35" y="45.9" width="11.9" height="1.7"></rect>
                                <path d="M34,39.1 C31.6528312,39.1 29.75,41.0028313 29.75,43.35 L29.75,46.75 C29.75,49.0971688 31.6528312,51 34,51 C36.3471688,51 38.25,49.0971688 38.25,46.75 L38.25,43.35 C38.25,41.0028313 36.3471688,39.1 34,39.1 Z M36.55,46.75 C36.55,48.1583438 35.4083438,49.3 34,49.3 C32.5916562,49.3 31.45,48.1583438 31.45,46.75 L31.45,43.35 C31.45,41.9416563 32.5916562,40.8 34,40.8 C35.4083438,40.8 36.55,41.9416563 36.55,43.35 L36.55,46.75 Z" id="Shape"></path>
                                <rect id="Rectangle" x="33.15" y="42.5" width="1.7" height="1.7"></rect>
                                <rect id="Rectangle" transform="translate(20.394259, 13.614463) rotate(-74.031780) translate(-20.394259, -13.614463) " x="14.2090079" y="12.7648477" width="12.3705018" height="1.69923074"></rect>
                                <path d="M15.844,10.0028 L14.756,8.6972 L9.656,12.9472 C9.29549375,13.2478875 9.2469375,13.7838125 9.547625,14.144425 C9.58045625,14.1837375 9.6166875,14.220075 9.656,14.2528 L14.756,18.5028 L15.844,17.1972 L11.5277,13.6 L15.844,10.0028 Z" id="Path"></path>
                                <path d="M31.252375,13.055575 C31.2195438,13.0162625 31.1833125,12.979925 31.144,12.9472 L26.044,8.6972 L24.956,10.0028 L29.2723,13.6 L24.956,17.1972 L26.044,18.5028 L31.144,14.2528 C31.5045063,13.9521125 31.5530625,13.4161875 31.252375,13.055575 Z" id="Path"></path>
                            </g>
                        </g>
                    </g>
                </g>
            </g>
        </g>
    </g>
</svg>