<?xml version="1.0" encoding="UTF-8"?>
<svg width="23px" height="23px" viewBox="0 0 23 23" version="1.1" xmlns="http://www.w3.org/2000/svg" xmlns:xlink="http://www.w3.org/1999/xlink">
    <title>download</title>
    <g id="Services-detail" stroke="none" stroke-width="1" fill="none" fill-rule="evenodd">
        <g id="Resources" transform="translate(-834.000000, -2530.000000)" fill="#FFFFFF" fill-rule="nonzero">
            <g id="Group-2" transform="translate(578.000000, 2455.000000)">
                <g id="Group-Copy" transform="translate(0.000000, 65.000000)">
                    <g id="download" transform="translate(256.000000, 10.000000)">
                        <path d="M19.4809201,18.6189325 C19.4809201,19.0930257 19.0930257,19.4809201 18.6189325,19.4809201 C18.1448393,19.4809201 17.7569449,19.0930257 17.7569449,18.6189325 C17.7569449,18.1448393 18.1448393,17.7569449 18.6189325,17.7569449 C19.0930257,17.7569449 19.4809201,18.1448393 19.4809201,18.6189325 Z M15.8605721,17.7569449 C15.3864789,17.7569449 14.9985845,18.1448393 14.9985845,18.6189325 C14.9985845,19.0930257 15.3864789,19.4809201 15.8605721,19.4809201 C16.3346653,19.4809201 16.7225597,19.0930257 16.7225597,18.6189325 C16.7225597,18.1448393 16.3346653,17.7569449 15.8605721,17.7569449 Z M22.066883,15.6881746 L22.066883,20.1705102 C22.066883,21.2178252 21.2178252,22.066883 20.1705102,22.066883 L1.89637275,22.066883 C0.849057802,22.066883 0,21.2178252 0,20.1705102 L0,15.6881746 C0,14.6408597 0.849057802,13.7918019 1.89637275,13.7918019 L6.18045121,13.7918019 L3.74964613,11.3609968 C2.66354173,10.2748924 3.43502065,8.41730907 4.96935861,8.41730907 L7.24069597,8.41730907 L7.24069597,1.72397523 C7.24069597,0.771478916 8.01217489,0 8.96467121,0 L13.1022118,0 C14.0547081,0 14.826187,0.771478916 14.826187,1.72397523 L14.826187,8.41730907 L17.0975244,8.41730907 C18.6318623,8.41730907 19.3990313,10.2748924 18.3172368,11.3609968 L15.8864318,13.7918019 L20.1705102,13.7918019 C21.2178252,13.7918019 22.066883,14.6408597 22.066883,15.6881746 Z M10.787775,16.4510336 C10.9213831,16.5846417 11.1411899,16.5846417 11.274798,16.4510336 L17.3388809,10.3869508 C17.5543778,10.1714539 17.40353,9.79648925 17.0932144,9.79648925 L13.4470068,9.79648925 L13.4470068,1.72397523 C13.4470068,1.53433796 13.291849,1.37918019 13.1022118,1.37918019 L8.96467121,1.37918019 C8.77503393,1.37918019 8.61987616,1.53433796 8.61987616,1.72397523 L8.61987616,9.79648925 L4.96935861,9.79648925 C4.663353,9.79648925 4.50819523,10.1671439 4.72369213,10.3869508 L10.787775,16.4510336 Z M20.6877028,15.6881746 C20.6877028,15.4037187 20.4549661,15.170982 20.1705102,15.170982 L14.5072516,15.170982 L12.253154,17.4250797 C11.5808036,18.09743 10.4860793,18.09743 9.81372901,17.4250797 L7.55963139,15.170982 L1.89637275,15.170982 C1.61191684,15.170982 1.37918019,15.4037187 1.37918019,15.6881746 L1.37918019,20.1705102 C1.37918019,20.4549661 1.61191684,20.6877028 1.89637275,20.6877028 L20.1705102,20.6877028 C20.4549661,20.6877028 20.6877028,20.4549661 20.6877028,20.1705102 L20.6877028,15.6881746 Z" id="Shape"></path>
                    </g>
                </g>
            </g>
        </g>
    </g>
</svg>