<?xml version="1.0" encoding="UTF-8"?>
<svg width="114px" height="107px" viewBox="0 0 114 107" version="1.1" xmlns="http://www.w3.org/2000/svg" xmlns:xlink="http://www.w3.org/1999/xlink">
    <title>process item</title>
    <g id="User-research-page" stroke="none" stroke-width="1" fill="none" fill-rule="evenodd">
        <g id="User-Research-1" transform="translate(-751.000000, -573.000000)">
            <g id="Our-process" transform="translate(123.000000, 549.000000)">
                <g id="process-item-copy-3" transform="translate(591.000000, 24.000000)">
                    <g id="process-item" transform="translate(37.000000, 0.000000)">
                        <path d="M87.9737222,10.1454616 C100.203425,15.5763532 112.783317,24.0184321 113.9147,34.5307024 C115.046082,45.0160871 104.702016,57.5447775 96.0011482,66.3901405 C87.2733428,75.2086178 80.1617976,80.3437678 73.0771901,87.8986218 C65.9925826,95.4534759 58.9349128,105.45492 50.8536114,106.826085 C42.7723101,108.224137 33.6943149,100.965024 27.1215232,93.2488566 C20.5487314,85.5058033 16.4811431,77.3056948 11.4437986,67.976391 C6.40645407,58.6470872 0.453228756,48.1617025 0.0222260183,36.4395801 C-0.381839048,24.6905722 4.73631846,11.6779409 14.3261294,5.35982453 C23.8890026,-0.931406274 37.8696539,-0.55500785 50.8266738,0.869929042 C63.7836936,2.29486593 75.7170819,4.71457009 87.9737222,10.1454616 Z" id="Path" fill="#2C2733" fill-rule="nonzero"></path>
                        <g id="Icon-/-Development-Green-Copy-2" transform="translate(27.000000, 23.000000)" fill="#FFFFFF" fill-rule="nonzero">
                            <g id="wireframe-icon">
                                <path d="M58.0660559,12.7847841 L58.0660559,8.97465337 C58.0660559,7.5290704 56.8834227,6.35294118 55.4298457,6.35294118 L49.9230955,6.35294118 C48.4695184,6.35294118 47.2868852,7.5290704 47.2868852,8.97465337 L47.2868852,12.7847841 C46.2951027,12.9267935 45.5294118,13.7752087 45.5294118,14.8006805 L45.5294118,15.9658859 C45.5294118,16.9909025 46.2951027,17.8393177 47.2868852,17.9813271 L47.2868852,41.3919425 C47.2868852,41.4033215 47.2882583,41.4142453 47.2887159,41.4256243 C47.2882583,41.4474719 47.2868852,41.4693195 47.2868852,41.4916222 C47.2868852,41.8826033 47.3990157,42.2635708 47.6113771,42.5926503 L50.9505767,47.7682561 C51.3295319,48.3554104 51.9748543,48.7058824 52.6764706,48.7058824 C53.3780869,48.7058824 54.0229516,48.3554104 54.4023645,47.7682561 L57.7415641,42.5926503 C57.9539255,42.2635708 58.0660559,41.8826033 58.0660559,41.4916222 C58.0660559,41.4779675 58.0651406,41.4647678 58.0651406,41.4511131 C58.0651406,41.444741 58.0660559,41.4379136 58.0660559,41.4310862 L58.0660559,17.9813271 C59.0578385,17.8393177 59.8235294,16.9909025 59.8235294,15.9658859 L59.8235294,14.8006805 C59.8235294,13.7752087 59.0578385,12.9267935 58.0660559,12.7847841 L58.0660559,12.7847841 Z M49.9230955,8.1007493 L55.4298457,8.1007493 C55.914524,8.1007493 56.3085824,8.49264063 56.3085824,8.97465337 L56.3085824,12.761571 L49.0443587,12.761571 L49.0443587,8.97465337 C49.0443587,8.49264063 49.4384172,8.1007493 49.9230955,8.1007493 Z M56.3085824,18.0049954 L56.3085824,38.4953147 C55.8042241,38.2099304 55.222061,38.0465285 54.601911,38.0465285 L53.5552073,38.0465285 L53.5552073,21.2093103 C53.5552073,20.7263873 53.1616065,20.3354062 52.6764706,20.3354062 C52.1913347,20.3354062 51.7977338,20.7263873 51.7977338,21.2093103 L51.7977338,38.0465285 L50.7510302,38.0465285 C50.1308802,38.0465285 49.5487171,38.2103856 49.0443587,38.4953147 L49.0443587,18.0049954 L56.3085824,18.0049954 Z M49.0905839,41.649107 C49.0603774,41.6017706 49.0443587,41.5476067 49.0443587,41.4916222 C49.0443587,40.5558166 49.8100496,39.7943367 50.7510302,39.7943367 L54.601911,39.7943367 C55.5428916,39.7943367 56.3085824,40.5558166 56.3085824,41.4916222 C56.3085824,41.5476067 56.2925638,41.6017706 56.2618995,41.649107 L55.3410567,43.0760285 L50.0114268,43.0760285 L49.0905839,41.649107 Z M52.9231577,46.8242576 C52.8476412,46.9407781 52.7364261,46.9580742 52.6764706,46.9580742 C52.6165151,46.9580742 52.5052999,46.9407781 52.4297835,46.8242576 L51.1391389,44.8238367 L54.2133446,44.8238367 L52.9231577,46.8242576 Z M58.0660559,15.9658859 C58.0660559,16.1265567 57.9347031,16.2571872 57.7731437,16.2571872 L47.5797975,16.2571872 C47.4182381,16.2571872 47.2868852,16.1265567 47.2868852,15.9658859 L47.2868852,14.8006805 C47.2868852,14.6400096 47.4182381,14.5093791 47.5797975,14.5093791 L57.7731437,14.5093791 C57.9347031,14.5093791 58.0660559,14.6400096 58.0660559,14.8006805 L58.0660559,15.9658859 Z" id="Shape"></path>
                                <path d="M41.3047059,6.20711889 L13.9998419,6.20711889 C13.6171876,2.72163177 10.6342224,0 7.02143382,0 C3.14957534,0 0,3.12490377 0,6.96643282 L0.00366176471,13.473735 C0.00366176471,13.9551182 0.397301471,14.3452203 0.882485294,14.3452203 L0.882942985,14.3452203 C1.36812681,14.3447662 1.76176651,13.95421 1.76130882,13.4728268 L1.75764706,6.96597871 C1.75764706,4.08630791 4.1190276,1.74387888 7.02097613,1.74387888 C9.92338235,1.74387888 12.2847629,4.08630791 12.2847629,6.96643282 L12.300783,36.4638716 C11.0164191,35.0233549 9.1411379,34.112814 7.05438971,34.112814 C4.95299446,34.112814 3.06398168,35.0274421 1.77366731,36.4770414 L1.76130882,17.5414233 C1.76085113,17.0600402 1.36766912,16.6703922 0.882485294,16.6703922 L0.882027603,16.6703922 C0.396385971,16.6703922 0.00320404998,17.0609484 0.00366176471,17.5427857 L0.0187665148,41.0719807 C0.0187665148,41.0919626 0.0205973972,41.1110364 0.0219705882,41.13011 C0.0201397059,41.1528167 0.0183088235,41.1759776 0.0183088235,41.1991385 C0.0183088235,45.0452089 3.17200362,48.174654 7.04889706,48.174654 L41.3047059,48.1764706 C42.7584265,48.1764706 43.9411765,47.0029854 43.9411765,45.5606523 L43.9411765,8.82293721 C43.9411765,7.38060405 42.7584265,6.20711889 41.3047059,6.20711889 Z M42.1835294,45.5606523 C42.1835294,46.0411273 41.789432,46.4325917 41.3047059,46.4325917 L7.04889706,46.4303211 C4.14145588,46.4303211 1.77595588,44.0838048 1.77595588,41.1986844 C1.77595588,41.17734 1.774125,41.1564498 1.77275181,41.1351055 C1.77458269,41.1142152 1.77641357,41.092871 1.77641357,41.0710725 L1.77641357,41.0665311 C1.77641357,41.0656227 1.77641357,41.0651686 1.77641357,41.0642604 C1.77641357,38.192764 4.14420226,35.8566929 7.05438971,35.8566929 C9.94855701,35.8566929 12.3030717,38.192764 12.3035294,41.0642604 L12.3035294,41.0719807 C12.3035294,41.5533639 12.6971691,41.943466 13.1823529,41.943466 L13.1828106,41.943466 C13.6679945,41.9430119 14.0616342,41.5524556 14.0611765,41.0710725 L14.0611765,41.0642604 L14.0428676,7.95054366 L41.3047059,7.95054366 C41.789432,7.95054366 42.1835294,8.34200808 42.1835294,8.8224831 L42.1835294,45.5606523 Z" id="Shape"></path>
                                <path d="M38.7857143,12.7058824 L17.3319328,12.7058824 C16.5323989,12.7058824 15.8823529,13.369961 15.8823529,14.1867544 L15.8823529,28.1661868 C15.8823529,28.9825175 16.5323989,29.6470588 17.3319328,29.6470588 L38.7857143,29.6470588 C39.5852481,29.6470588 40.2352941,28.9825175 40.2352941,28.1661868 L40.2352941,14.1867544 C40.2352941,13.369961 39.5852481,12.7058824 38.7857143,12.7058824 Z M17.6218487,15.2400247 L26.4737986,21.1764706 L17.6218487,27.1124538 L17.6218487,15.2400247 Z M19.6621324,14.4829288 L36.4555147,14.4829288 L28.0588235,20.1134821 L19.6621324,14.4829288 Z M28.0588235,22.2389963 L36.4555147,27.8700123 L19.6621324,27.8700123 L28.0588235,22.2389963 Z M29.6438485,21.1764706 L38.4957983,15.2400247 L38.4957983,27.111991 L29.6438485,21.1764706 Z" id="Shape"></path>
                                <path d="M24.4443277,31.2352941 L17.3792017,31.2352941 C16.5535961,31.2352941 15.8823529,31.8844569 15.8823529,32.6829044 L15.8823529,40.9053309 C15.8823529,41.7033261 16.5535961,42.3529412 17.3792017,42.3529412 L24.4443277,42.3529412 C25.2699333,42.3529412 25.9411765,41.7033261 25.9411765,40.9053309 L25.9411765,32.6829044 C25.9411765,31.8844569 25.2699333,31.2352941 24.4443277,31.2352941 Z M24.144958,40.6158088 L17.6785714,40.6158088 L17.6785714,32.9724265 L24.144958,32.9724265 L24.144958,40.6158088 Z" id="Shape"></path>
                                <path d="M39.3767886,32.2941176 L28.3879173,32.2941176 C27.9139507,32.2941176 27.5294118,32.6494026 27.5294118,33.0882353 C27.5294118,33.5266544 27.9139507,33.8823529 28.3879173,33.8823529 L39.3767886,33.8823529 C39.8507552,33.8823529 40.2352941,33.5266544 40.2352941,33.0882353 C40.2352941,32.6494026 39.8507552,32.2941176 39.3767886,32.2941176 Z" id="Path"></path>
                                <path d="M39.3767886,36 L28.3879173,36 C27.9139507,36 27.5294118,36.355285 27.5294118,36.7941176 C27.5294118,37.2325368 27.9139507,37.5882353 28.3879173,37.5882353 L39.3767886,37.5882353 C39.8507552,37.5882353 40.2352941,37.2325368 40.2352941,36.7941176 C40.2352941,36.355285 39.8507552,36 39.3767886,36 Z" id="Path"></path>
                                <path d="M36.1764706,39.1764706 L28.4117647,39.1764706 C27.9246324,39.1764706 27.5294118,39.5317555 27.5294118,39.9705882 C27.5294118,40.4090074 27.9246324,40.7647059 28.4117647,40.7647059 L36.1764706,40.7647059 C36.6636029,40.7647059 37.0588235,40.4090074 37.0588235,39.9705882 C37.0588235,39.5317555 36.6636029,39.1764706 36.1764706,39.1764706 Z" id="Path"></path>
                            </g>
                        </g>
                        <g id="Group-6" transform="translate(0.000000, 2.000000)">
                            <circle id="Oval" fill="#1AC0C6" cx="14" cy="14" r="14"></circle>
                            <text id="1" font-family="Ilisarniq-Regular, Ilisarniq" font-size="16" font-weight="normal" fill="#FFFFFF">
                                <tspan x="9.652" y="20">4</tspan>
                            </text>
                        </g>
                    </g>
                </g>
            </g>
        </g>
    </g>
</svg>