<?xml version="1.0" encoding="UTF-8"?>
<svg width="130px" height="130px" viewBox="0 0 130 130" version="1.1" xmlns="http://www.w3.org/2000/svg" xmlns:xlink="http://www.w3.org/1999/xlink">
    <!-- Generator: Sketch 62 (91390) - https://sketch.com -->
    <title>partner</title>
    <desc>Created with Sketch.</desc>
    <g id="Symbols" stroke="none" stroke-width="1" fill="none" fill-rule="evenodd">
        <g id="ContactPanel/midnight-red" transform="translate(-177.000000, -106.000000)" fill="#FFFFFF" fill-rule="nonzero">
            <g id="partner" transform="translate(177.000000, 106.000000)">
                <path d="M65,35 C70.514,35 75,30.514 75,25 C75,19.486 70.514,15 65,15 C59.486,15 55,19.486 55,25 C55,30.514 59.486,35 65,35 Z M65,20 C67.757,20 70,22.243 70,25 C70,27.757 67.757,30 65,30 C62.243,30 60,27.757 60,25 C60,22.243 62.243,20 65,20 Z" id="Shape"></path>
                <path d="M29,107 C34.514,107 39,102.514 39,97 C39,91.486 34.514,87 29,87 C23.486,87 19,91.486 19,97 C19,102.514 23.486,107 29,107 Z M29,92 C31.757,92 34,94.243 34,97 C34,99.757 31.757,102 29,102 C26.243,102 24,99.757 24,97 C24,94.243 26.243,92 29,92 L29,92 Z" id="Shape"></path>
                <path d="M29.1950799,130 C45.1829222,130 58.3901598,117.130165 58.3901598,100.932387 C58.3901598,94.5548614 56.3205773,88.453421 52.5072128,83.431546 L65.000127,77.2125418 L77.4927872,83.431546 C73.6794227,88.4536739 71.6098402,94.5548614 71.6098402,100.93264 C71.6098402,116.951165 84.6459246,130 100.80492,130 C116.792762,130 130,117.130418 130,100.93264 C130,84.9047608 116.903225,71.8652802 100.80492,71.8652802 C93.3843876,71.8652802 86.435923,74.5791103 81.036979,79.5428354 L67.5392381,72.8234893 L67.5392381,58.5899133 C82.5039702,57.3025253 94.1949529,44.8283628 94.1949529,29.6358193 C94.1949529,18.3367902 87.5347063,7.97321577 77.2271696,3.23374697 C75.9536781,2.64845569 74.4447874,3.20138529 73.8571783,4.46905288 C73.2693153,5.73672047 73.8246744,7.23901021 75.0979121,7.82430149 C83.6139267,11.7400645 89.1164768,20.301498 89.1164768,29.6358193 C89.1164768,36.7172117 86.0143884,43.3344163 80.6898478,47.8703605 C77.6433716,42.2113649 71.6078087,38.4844627 65.000127,38.4844627 C58.3924452,38.4844627 52.3568824,42.2113649 49.3101522,47.8703605 C43.9861194,43.3349219 40.8837772,36.7172117 40.8837772,29.6355665 C40.8837772,20.301498 46.3863273,11.7398116 54.9023419,7.82404867 C56.1755795,7.23875739 56.7309386,5.73646764 56.1430756,4.46880005 C55.5549587,3.20113247 54.0455601,2.64820287 52.7730843,3.23349414 C42.4652937,7.97296295 35.8050471,18.3365373 35.8050471,29.6355665 C35.8050471,44.8306382 47.4980613,57.3022725 62.4607619,58.5896605 L62.4607619,72.8232365 L48.963021,79.5425826 C43.5643309,74.5788575 36.6158663,71.8650274 29.1950799,71.8650274 C13.0967752,71.8650274 0,84.904508 0,100.932387 C0,116.950912 13.0358304,130 29.1950799,130 Z M17.7265455,122.055208 C19.804254,117.726834 24.2773455,114.837796 29.1950799,114.837796 C34.1128142,114.837796 38.5861597,117.726834 40.6636142,122.055208 C37.157259,123.948113 33.2321624,124.943235 29.1950799,124.943235 C25.1582513,124.943235 21.2334087,123.948113 17.7265455,122.055208 Z M89.3366397,122.055208 C91.4143482,117.726834 95.8874397,114.837796 100.805174,114.837796 C105.722908,114.837796 110.196254,117.726834 112.273708,122.055208 C108.767353,123.948113 104.842257,124.943235 100.805174,124.943235 C96.7683454,124.943235 92.8435028,123.948113 89.3366397,122.055208 Z M124.921524,100.932387 C124.921524,108.014033 121.819182,114.631743 116.495149,119.167181 C113.448419,113.508186 107.412856,109.781283 100.805174,109.781283 C94.1974923,109.781283 88.1619294,113.508186 85.1151993,119.167181 C79.7911665,114.631743 76.6888243,108.014033 76.6888243,100.932387 C76.6888243,94.7295639 79.057544,88.8425197 83.3582126,84.3558765 C83.3653228,84.3485445 83.3808129,84.3331222 83.3813208,84.3323637 C87.9755401,79.5534541 94.1619412,76.9215395 100.805428,76.9215395 C114.103067,76.9215395 124.921524,87.6926688 124.921524,100.932387 L124.921524,100.932387 Z M65.000127,43.5409748 C69.9178613,43.5409748 74.3912068,46.430013 76.4686613,50.7583874 C72.9623061,52.6512927 69.0372095,53.6464143 65.000127,53.6464143 C60.9632984,53.6464143 57.0384558,52.6512927 53.5315926,50.7581345 C55.6093011,46.430013 60.0823926,43.5409748 65.000127,43.5409748 L65.000127,43.5409748 Z M29.1950799,76.9215395 C35.8477084,76.9215395 42.0424894,79.5605332 46.6382323,84.3518312 C46.6430571,84.3568878 46.6476279,84.3621971 46.6524527,84.3670008 C50.946519,88.8526327 53.3114297,94.7348732 53.3114297,100.932387 C53.3114297,108.014033 50.2090874,114.631743 44.8850547,119.167181 C41.8383245,113.508186 35.8027617,109.781283 29.1950799,109.781283 C22.5873981,109.781283 16.5518353,113.508186 13.5051051,119.167181 C8.18107235,114.631743 5.07873008,108.014033 5.07873008,100.932387 C5.07873008,87.6926688 15.897187,76.9215395 29.1950799,76.9215395 Z" id="Shape"></path>
                <path d="M101,107 C106.514,107 111,102.514 111,97 C111,91.486 106.514,87 101,87 C95.486,87 91,91.486 91,97 C91,102.514 95.486,107 101,107 Z M101,92 C103.757,92 106,94.243 106,97 C106,99.757 103.757,102 101,102 C98.243,102 96,99.757 96,97 C96,94.243 98.243,92 101,92 Z" id="Shape"></path>
                <circle id="Oval" cx="65.5" cy="2.5" r="2.5"></circle>
            </g>
        </g>
    </g>
</svg>