<?xml version="1.0" encoding="UTF-8"?>
<svg width="26px" height="23px" viewBox="0 0 26 23" version="1.1" xmlns="http://www.w3.org/2000/svg" xmlns:xlink="http://www.w3.org/1999/xlink">
    <!-- Generator: Sketch 63.1 (92452) - https://sketch.com -->
    <title>quote-mark</title>
    <desc>Created with Sketch.</desc>
    <g id="UI-Design-(Teal)" stroke="none" stroke-width="1" fill="none" fill-rule="evenodd">
        <g id="Project-detail-Teal-v1" transform="translate(-585.000000, -6732.000000)" fill="#1AC0C6" fill-rule="nonzero">
            <g id="Group" transform="translate(585.000000, 6732.000000)">
                <path d="M23.2,11.2 L19.2,11.2 L19.2,8 C19.2,6.235 20.635,4.8 22.4,4.8 L22.8,4.8 C23.465,4.8 24,4.265 24,3.6 L24,1.2 C24,0.535 23.465,0 22.8,0 L22.4,0 C17.98,0 14.4,3.58 14.4,8 L14.4,20 C14.4,21.325 15.475,22.4 16.8,22.4 L23.2,22.4 C24.525,22.4 25.6,21.325 25.6,20 L25.6,13.6 C25.6,12.275 24.525,11.2 23.2,11.2 Z M8.8,11.2 L4.8,11.2 L4.8,8 C4.8,6.235 6.235,4.8 8,4.8 L8.4,4.8 C9.065,4.8 9.6,4.265 9.6,3.6 L9.6,1.2 C9.6,0.535 9.065,0 8.4,0 L8,0 C3.58,0 0,3.58 0,8 L0,20 C0,21.325 1.075,22.4 2.4,22.4 L8.8,22.4 C10.125,22.4 11.2,21.325 11.2,20 L11.2,13.6 C11.2,12.275 10.125,11.2 8.8,11.2 Z" id="quote-mark"></path>
            </g>
        </g>
    </g>
</svg>