<?xml version="1.0" encoding="UTF-8"?>
<svg width="146px" height="166px" viewBox="0 0 146 166" version="1.1" xmlns="http://www.w3.org/2000/svg" xmlns:xlink="http://www.w3.org/1999/xlink">
    <title>react-bg</title>
    <g id="RNCCC" stroke="none" stroke-width="1" fill="none" fill-rule="evenodd" opacity="0.0627325149">
        <g id="RNCCC---Savings-Copy" transform="translate(-464.000000, -105.000000)" fill="#786F84">
            <g id="Cards-/-Savings-card" transform="translate(464.000000, 105.000000)">
                <g id="Icon/Play-store" transform="translate(-53.000000, -24.000000)">
                    <path d="M163.612207,73.1506823 C161.610938,72.4576389 159.609668,71.803098 157.608398,71.1870594 C157.941943,69.7624703 158.238428,68.3378812 158.534912,66.9132921 C163.093359,43.9658567 160.091455,25.523203 149.973926,19.4398225 C140.227002,13.6259588 124.328027,19.670837 108.24375,34.2247473 C106.650146,35.6493364 105.093604,37.1509304 103.611182,38.6525243 C102.610547,37.6514617 101.572852,36.6503991 100.535156,35.6878389 C83.6726074,20.1328659 66.772998,13.5874564 56.6554687,19.7093394 C46.9456055,25.5617054 44.0548828,42.9262916 48.131543,64.64165 C48.539209,66.7977849 48.9839355,68.9154173 49.5027832,71.0715522 C47.1309082,71.7645955 44.7960937,72.5346437 42.6095215,73.3431943 C22.8191895,80.4661399 8.625,91.7088431 8.625,103.33657 C8.625,115.349322 23.7457031,127.400576 44.3143066,134.716033 C45.9820313,135.293569 47.6497559,135.871106 49.354541,136.371637 C48.7986328,138.681781 48.3168457,140.953423 47.8721191,143.30207 C43.9807617,164.670907 47.0197266,181.611967 56.7295898,187.42583 C66.7359375,193.432206 83.5614258,187.271821 99.9421875,172.371389 C101.239307,171.177814 102.536426,169.945737 103.833545,168.636655 C105.464209,170.292259 107.168994,171.870857 108.873779,173.410954 C124.735693,187.57984 140.412305,193.316699 150.085107,187.502835 C160.091455,181.49646 163.352783,163.28482 159.127881,141.107433 C158.794336,139.413327 158.42373,137.680719 158.016064,135.909608 C159.202002,135.563086 160.350879,135.178062 161.499756,134.793038 C182.883691,127.439078 198.375,115.541834 198.375,103.33657 C198.375,91.6703407 183.773145,80.3506326 163.612207,73.1506823 Z M113.469287,40.4621375 C127.255811,27.9873572 140.11582,23.0975513 145.971387,26.6012705 C152.234619,30.3360041 154.643555,45.4289482 150.715137,65.2576885 C150.455713,66.5667704 150.196289,67.8373499 149.862744,69.1079294 C141.635303,67.1828089 133.29668,65.7967222 124.920996,65.0266741 C120.103125,57.8652261 114.840527,51.0117974 109.133203,44.5818952 C110.578564,43.1573061 111.986865,41.8097218 113.469287,40.4621375 L113.469287,40.4621375 Z M70.5902344,123.31932 C72.4803223,126.66903 74.4074707,130.018739 76.4458008,133.291444 C70.6643555,132.636903 64.9199707,131.674343 59.249707,130.403764 C60.8803711,124.859417 62.9187012,119.122558 65.2905762,113.270192 C66.9953613,116.658404 68.737207,120.008113 70.5902344,123.31932 L70.5902344,123.31932 Z M59.3608887,77.0009231 C64.6976074,75.768846 70.3678711,74.7677834 76.260498,73.9977352 C74.2962891,77.1934351 72.3691406,80.4661399 70.5531738,83.777347 C68.737207,87.0500517 66.9583008,90.3997612 65.2905762,93.7879732 C62.9557617,88.0511143 60.9915527,82.4297627 59.3608887,77.0009231 Z M69.5154785,103.529082 C71.9614746,98.2157501 74.629834,93.017925 77.4464355,87.8971047 C80.2630371,82.7762844 83.302002,77.8094737 86.489209,72.9196678 C92.048291,72.4961413 97.7185547,72.2651269 103.5,72.2651269 C109.281445,72.2651269 114.98877,72.4961413 120.510791,72.9196678 C123.660937,77.7709713 126.662842,82.7377819 129.516504,87.8200999 C132.370166,92.9024178 135.038525,98.1002429 137.558643,103.375073 C135.075586,108.688405 132.407227,113.924733 129.553564,119.084055 C126.736963,124.204876 123.735059,129.171687 120.584912,134.099995 C115.062891,134.523521 109.318506,134.716033 103.5,134.716033 C97.6814941,134.716033 92.048291,134.523521 86.6003906,134.177 C83.376123,129.287194 80.3371582,124.281881 77.4834961,119.16106 C74.629834,114.04024 71.9985352,108.842415 69.5154785,103.529082 Z M136.446826,123.242316 C138.336914,119.854104 140.11582,116.427389 141.857666,112.962173 C144.229541,118.545022 146.304932,124.204876 148.120898,130.018739 C142.376514,131.366324 136.558008,132.405889 130.702441,133.098932 C132.703711,129.86473 134.593799,126.553523 136.446826,123.242316 Z M141.783545,93.7879732 C140.041699,90.3997612 138.262793,87.0115493 136.409766,83.7003422 C134.593799,80.4276374 132.703711,77.1934351 130.739502,73.9977352 C136.70625,74.7677834 142.413574,75.8073484 147.750293,77.0779279 C146.045508,82.7762844 144.044238,88.3206312 141.783545,93.7879732 L141.783545,93.7879732 Z M103.574121,50.4727637 C107.465479,54.8620383 111.134473,59.4823273 114.544043,64.2566259 C107.206055,63.9101042 99.8310059,63.9101042 92.4930176,64.2566259 C96.1249512,59.2898152 99.8680664,54.6695262 103.574121,50.4727637 Z M60.5838867,26.8707873 C66.8100586,23.0975513 80.6336426,28.4878885 95.1984375,41.8867266 C96.1249512,42.7337796 97.0514648,43.6578374 98.0150391,44.5818952 C92.2706543,51.0117974 86.9709961,57.8652261 82.1160645,65.0266741 C73.7403809,65.7967222 65.4388184,67.1443065 57.211377,69.0309246 C56.7295898,67.0673017 56.3219238,65.0651765 55.9142578,63.0630512 C52.4305664,44.4278856 54.7283203,30.3745065 60.5838867,26.8707873 L60.5838867,26.8707873 Z M51.5040527,128.363136 C49.9475098,127.901107 48.4280273,127.400576 46.9085449,126.861542 C39.0146484,124.281881 30.0459961,120.200625 23.5604004,114.848791 C19.8172852,112.153622 17.297168,107.995362 16.5930176,103.33657 C16.5930176,96.2906297 28.3041504,87.2810661 45.2037598,81.1591832 C47.3162109,80.389135 49.4657227,79.6960917 51.6152344,79.0415507 C54.1353516,87.3965734 57.1743164,95.5975864 60.6950684,103.529082 C57.1372559,111.576086 54.0612305,119.892606 51.5040527,128.363136 L51.5040527,128.363136 Z M94.7166504,166.095496 C88.6016602,171.90936 81.5230957,176.529649 73.814502,179.686846 C69.7007813,181.727474 64.9570313,181.919986 60.7321289,180.187378 C54.839502,176.645156 52.3935059,163.053806 55.7289551,144.765162 C56.1366211,142.609027 56.5813477,140.452892 57.1001953,138.33526 C65.4017578,140.183375 73.7774414,141.453955 82.2643066,142.108496 C87.1562988,149.308446 92.5300781,156.200377 98.2744629,162.668782 C97.0885254,163.862356 95.9025879,165.017429 94.7166504,166.095496 Z M103.796484,156.739411 C100.016309,152.504146 96.2361328,147.806852 92.5671387,142.763037 C96.1249512,142.917046 99.7939453,142.994051 103.5,142.994051 C107.317236,142.994051 111.060352,142.917046 114.766406,142.724534 C111.356836,147.61434 107.687842,152.273132 103.796484,156.739411 L103.796484,156.739411 Z M152.234619,168.290133 C151.901074,172.987427 149.677441,177.376702 146.119629,180.341387 C140.227002,183.883609 127.663477,179.26332 114.099316,167.173564 C112.542773,165.787477 110.98623,164.285883 109.392627,162.745787 C115.062891,156.23888 120.288428,149.346949 125.032178,142.108496 C133.519043,141.37695 141.968848,140.029366 150.307471,138.065743 C150.678076,139.644342 151.011621,141.22294 151.308105,142.763037 C153.124072,151.079557 153.420557,159.742599 152.234619,168.290133 L152.234619,168.290133 Z M158.979639,126.900044 C157.941943,127.246566 156.904248,127.593088 155.829492,127.901107 C153.235254,119.507582 150.048047,111.306569 146.379053,103.33657 C149.936865,95.4820791 152.93877,87.3965734 155.458887,79.1185556 C157.386035,79.6960917 159.239063,80.3121302 161.017969,80.9281688 C178.288184,87.0885541 190.406982,96.2521273 190.406982,103.259566 C190.406982,110.806038 177.472852,120.547147 158.979639,126.900044 Z M103.5,121.124683 C112.876318,121.124683 120.47373,113.231689 120.47373,103.49058 C120.47373,93.7494708 112.876318,85.856477 103.5,85.856477 C94.1236816,85.856477 86.5262695,93.7494708 86.5262695,103.49058 C86.5262695,113.231689 94.1236816,121.124683 103.5,121.124683 Z" id="Shape"></path>
                </g>
            </g>
        </g>
    </g>
</svg>