<?xml version="1.0" encoding="UTF-8"?>
<svg width="114px" height="107px" viewBox="0 0 114 107" version="1.1" xmlns="http://www.w3.org/2000/svg" xmlns:xlink="http://www.w3.org/1999/xlink">
    <title>Group 3@1x</title>
    <g id="UI-Design-(Teal)" stroke="none" stroke-width="1" fill="none" fill-rule="evenodd">
        <g id="Homepage-Teal" transform="translate(-861.000000, -2687.000000)">
            <g id="Our-process" transform="translate(215.000000, 2524.000000)">
                <g id="process-item-copy-3" transform="translate(585.000000, 163.000000)">
                    <g id="process-item">
                        <g id="Group-3" transform="translate(61.000000, 0.000000)">
                            <path d="M87.9737222,10.1454616 C100.203425,15.5763532 112.783317,24.0184321 113.9147,34.5307024 C115.046082,45.0160871 104.702016,57.5447775 96.0011482,66.3901405 C87.2733428,75.2086178 80.1617976,80.3437678 73.0771901,87.8986218 C65.9925826,95.4534759 58.9349128,105.45492 50.8536114,106.826085 C42.7723101,108.224137 33.6943149,100.965024 27.1215232,93.2488566 C20.5487314,85.5058033 16.4811431,77.3056948 11.4437986,67.976391 C6.40645407,58.6470872 0.453228756,48.1617025 0.0222260183,36.4395801 C-0.381839048,24.6905722 4.73631846,11.6779409 14.3261294,5.35982453 C23.8890026,-0.931406274 37.8696539,-0.55500785 50.8266738,0.869929042 C63.7836936,2.29486593 75.7170819,4.71457009 87.9737222,10.1454616 Z" id="Path" fill="#2C2733" fill-rule="nonzero"></path>
                            <g id="Icon-/-Research-Green" transform="translate(28.000000, 24.000000)" fill="#FFFFFF" fill-rule="nonzero">
                                <g id="UI-design-icon">
                                    <path d="M36.7737073,36.7238108 L35.1770199,36.7238108 L35.1770199,39.9171857 L20.806833,39.9171857 L20.806833,41.5138731 L35.1770199,41.5138731 L35.1770199,43.9089043 C35.1770199,45.2315508 34.1046353,46.3039354 32.7819888,46.3039354 L15.218427,46.3039354 C14.3627803,46.3027659 13.5722329,45.846681 13.1426555,45.1064198 L11.7599771,45.9047636 C12.4756798,47.1377524 13.792869,47.8978941 15.218427,47.9006228 L32.7819888,47.9006228 C34.9856201,47.8978941 36.7709786,46.1125356 36.7737073,43.9089043 L36.7737073,36.7238108 Z" id="Path"></path>
                                    <polygon id="Path" points="23.2018642 43.1105606 24.7985516 43.1105606 24.7985516 44.707248 23.2018642 44.707248"></polygon>
                                    <path d="M27.9919265,21.5552803 L27.9919265,19.9585928 L25.5563544,19.9585928 C25.1583521,14.8640841 21.1112795,10.8170116 16.0167708,10.4190092 L16.0167708,7.98343714 L14.4200833,7.98343714 L14.4200833,10.4190092 C13.8821369,10.4603296 13.3484784,10.5437504 12.8233959,10.6681018 L12.8233959,6.38674971 L25.5968953,6.38674971 L25.5968953,4.79006228 L12.8233959,4.79006228 L12.8233959,3.99171857 C12.8233959,2.669072 13.8957805,1.59668743 15.218427,1.59668743 L32.7819888,1.59668743 C33.3651539,1.59668743 33.9284384,1.80952706 34.3658123,2.19544521 L35.4222143,0.997929642 C34.6932579,0.354342961 33.7541906,-0.000389816267 32.7819888,-3.20935455e-07 L15.218427,-3.20935455e-07 C13.0147957,0.00272871886 11.2294372,1.78808724 11.2267085,3.99171857 L11.2267085,11.176812 C7.63182282,12.6826723 5.18182761,16.0729043 4.88049966,19.9585928 L2.44492762,19.9585928 L2.44492762,21.5552803 L4.88244871,21.5552803 C5.25901128,26.6595345 9.31582909,30.7190811 14.4200833,31.0987621 L14.4200833,33.530436 L16.0167708,33.530436 L16.0167708,31.0987621 C21.121025,30.7190811 25.1778428,26.6595345 25.5544054,21.5552803 L27.9919265,21.5552803 Z M14.4200833,27.94203 L14.4200833,29.5020746 C13.3063783,29.4018919 12.2226891,29.0888695 11.2267085,28.5805491 L11.2267085,27.1436863 C11.2267085,24.9392753 13.014016,23.1519677 15.218427,23.1519677 C17.4228381,23.1519677 19.2101456,24.9392753 19.2101456,27.1436863 L19.2101456,28.5805491 C18.2145549,29.0896491 17.1304758,29.4030614 16.0167708,29.5044136 L16.0167708,27.94203 L14.4200833,27.94203 Z M12.8233959,19.1602491 C12.8233959,17.8376026 13.8957805,16.765218 15.218427,16.765218 C16.5410736,16.765218 17.6134582,17.8376026 17.6134582,19.1602491 C17.6134582,20.4828957 16.5410736,21.5552803 15.218427,21.5552803 C13.8957805,21.5552803 12.8233959,20.4828957 12.8233959,19.1602491 Z M21.0726877,27.3035109 C20.9865383,27.3830335 20.8945417,27.4469633 20.806833,27.5206386 L20.806833,27.1436863 C20.804884,25.0581692 19.6416723,23.1472899 17.7900449,22.1875623 C19.0725405,21.1073814 19.5430488,19.3407341 18.9680697,17.7658764 C18.3930907,16.1906289 16.8950268,15.1428027 15.218427,15.1428027 C13.5418273,15.1428027 12.0437634,16.1906289 11.4687844,17.7658764 C10.8938053,19.3407341 11.3643136,21.1073814 12.6468092,22.1875623 C10.7951818,23.1472899 9.63197011,25.0581692 9.63002105,27.1436863 L9.63002105,27.5245367 C9.54153273,27.452031 9.44953609,27.3838131 9.36416641,27.3074091 C7.70978607,25.8237684 6.67872207,23.7686571 6.47913614,21.5552803 L8.03333362,21.5552803 L8.03333362,19.9585928 L6.47718709,19.9585928 C6.86739314,15.7438994 10.2053899,12.4059027 14.4200833,12.0156966 L14.4200833,13.5718431 L16.0167708,13.5718431 L16.0167708,12.0156966 C20.2314642,12.4059027 23.569461,15.7438994 23.959667,19.9585928 L22.4035205,19.9585928 L22.4035205,21.5552803 L23.957718,21.5552803 C23.758132,23.7686571 22.727068,25.8237684 21.0726877,27.3074091 L21.0726877,27.3035109 Z" id="Shape"></path>
                                    <path d="M45.5554882,14.3701869 C45.9963704,14.3701869 46.3538319,14.0127254 46.3538319,13.5718431 L46.3538319,3.99171857 C46.3538319,3.55083635 45.9963704,3.19337486 45.5554882,3.19337486 L27.9919265,3.19337486 C27.5510442,3.19337486 27.1935828,3.55083635 27.1935828,3.99171857 L27.1935828,13.5718431 C27.1935828,14.0127254 27.5510442,14.3701869 27.9919265,14.3701869 L45.5554882,14.3701869 Z M28.7902702,4.79006228 L44.7571445,4.79006228 L44.7571445,12.7734994 L28.7902702,12.7734994 L28.7902702,4.79006228 Z" id="Shape"></path>
                                    <polygon id="Path" points="30.3869576 6.38674971 33.5803325 6.38674971 33.5803325 7.98343714 30.3869576 7.98343714"></polygon>
                                    <polygon id="Path" points="35.1770199 6.38674971 43.160457 6.38674971 43.160457 7.98343714 35.1770199 7.98343714"></polygon>
                                    <polygon id="Path" points="30.3869576 9.58012457 43.160457 9.58012457 43.160457 11.176812 30.3869576 11.176812"></polygon>
                                    <path d="M45.4143747,15.9668743 C44.7961261,15.9680438 44.1997072,16.1949168 43.7377749,16.6053934 L36.7737073,22.7449995 L36.7737073,15.9668743 L35.1770199,15.9668743 L35.1770199,23.9503114 L35.4077911,23.9503114 L30.8660418,27.9580124 C27.9112345,28.1271927 25.6004037,30.5705611 25.5968953,33.530436 L25.5968953,34.9388421 C25.6000139,35.7309488 25.152115,36.4563968 24.4418697,36.8076214 C24.110136,36.9729035 23.9358882,37.3447881 24.0208681,37.7053683 C24.1058481,38.0659483 24.4278363,38.3208881 24.7985516,38.3204987 L30.3869576,38.3204987 C33.3468325,38.31699 35.7902009,36.0061591 35.9593812,33.0513518 L47.3166781,20.1803983 C47.9758574,19.4327307 48.1360719,18.3681425 47.7255954,17.4594807 C47.3155086,16.550819 46.4111349,15.9668743 45.4143747,15.9668743 L45.4143747,15.9668743 Z M30.3869576,36.7238108 L26.7359384,36.7238108 C27.0372665,36.1772885 27.1947522,35.5629381 27.1935828,34.9388421 L27.1935828,33.530436 C27.1963115,31.4507662 28.7929989,29.7203717 30.8660418,29.5515813 L34.3658123,33.0513518 C34.1974116,35.1243947 32.4666274,36.7214719 30.3869576,36.7238108 Z M46.1191626,19.124386 L35.1411568,31.5665416 L32.350852,28.7770165 L44.7930076,17.7982311 C45.1652821,17.4715651 45.7270073,17.4898865 46.0774522,17.8399414 C46.4275071,18.1903863 46.4458285,18.7521115 46.1191626,19.124386 Z" id="Shape"></path>
                                    <path d="M0.848240196,43.9089043 L18.4118019,43.9089043 C18.8526841,43.9089043 19.2101456,43.5514428 19.2101456,43.1105606 L19.2101456,36.7238108 C19.2101456,36.2829286 18.8526841,35.9254671 18.4118019,35.9254671 L12.8233959,35.9254671 L12.8233959,31.9337486 L11.2267085,31.9337486 L11.2267085,35.9254671 L0.848240196,35.9254671 C0.407357974,35.9254671 0.0498964821,36.2829286 0.0498964821,36.7238108 L0.0498964821,43.1105606 C0.0498964821,43.5514428 0.407357974,43.9089043 0.848240196,43.9089043 Z M1.64658391,37.5221546 L17.6134582,37.5221546 L17.6134582,42.3122168 L1.64658391,42.3122168 L1.64658391,37.5221546 Z" id="Shape"></path>
                                    <polygon id="Path" points="3.24327134 39.118842 7.23498991 39.118842 7.23498991 40.7155294 3.24327134 40.7155294"></polygon>
                                    <polygon id="Path" points="8.83167734 39.118842 16.0167708 39.118842 16.0167708 40.7155294 8.83167734 40.7155294"></polygon>
                                    <path d="M0.848240196,11.176812 L8.83167734,11.176812 C9.27255956,11.176812 9.63002105,10.8193505 9.63002105,10.3784683 L9.63002105,3.99171857 C9.63002105,3.55083635 9.27255956,3.19337486 8.83167734,3.19337486 L0.848240196,3.19337486 C0.407357974,3.19337486 0.0498964821,3.55083635 0.0498964821,3.99171857 L0.0498964821,10.3784683 C0.0498964821,10.8193505 0.407357974,11.176812 0.848240196,11.176812 Z M1.64658391,4.79006228 L8.03333362,4.79006228 L8.03333362,9.58012457 L1.64658391,9.58012457 L1.64658391,4.79006228 Z" id="Shape"></path>
                                    <polygon id="Path" points="3.24327134 6.38674971 6.43664619 6.38674971 6.43664619 7.98343714 3.24327134 7.98343714"></polygon>
                                </g>
                            </g>
                            <g id="Group-6" transform="translate(0.000000, 2.000000)">
                                <circle id="Oval" fill="#1AC0C6" cx="14" cy="14" r="14"></circle>
                                <path d="M17.108,20 L17.108,17.504 L18.628,17.504 L18.628,16.096 L17.108,16.096 L17.108,8.8 L15.028,8.8 L10.388,16.464 L10.388,17.504 L15.556,17.504 L15.556,20 L17.108,20 Z M15.556,16.096 L12.164,16.096 L15.556,10.464 L15.556,16.096 Z" id="4" fill="#FFFFFF" fill-rule="nonzero"></path>
                            </g>
                        </g>
                    </g>
                </g>
            </g>
        </g>
    </g>
</svg>