<svg height="107" viewBox="0 0 114 107" width="114" xmlns="http://www.w3.org/2000/svg"><path d="m151.973722 10.1454616c12.229703 5.4308916 24.809595 13.8729705 25.940978 24.3852408 1.131382 10.4853847-9.212684 23.0140751-17.913552 31.8594381-8.727805 8.8184773-15.83935 13.9536273-22.923958 21.5084813-7.084607 7.5548541-14.142277 17.5562982-22.223579 18.9274632-8.081301 1.398052-17.1592961-5.861061-23.7320878-13.5772284-6.5727918-7.7430533-10.6403801-15.9431618-15.6777246-25.2724656s-10.9905698-19.8146885-11.4215726-31.5368109c-.404065-11.7490079 4.7140925-24.7616392 14.3039034-31.07975557 9.5628732-6.2912308 23.5435246-5.91483238 36.5005446-4.48989549s24.890408 3.84464105 37.147048 9.27553256z" fill="#2c2733" transform="translate(-64)"/></svg>