<svg height="170" viewBox="0 0 188 170" width="188" xmlns="http://www.w3.org/2000/svg"><g fill="#fff" fill-rule="evenodd" opacity=".053827"><circle cx="3.64" cy="3.64" r="3.64"/><circle cx="21.84" cy="3.64" r="3.64"/><circle cx="38.22" cy="3.64" r="3.64"/><circle cx="56.42" cy="3.64" r="3.64"/><circle cx="74.62" cy="3.64" r="3.64"/><circle cx="92.82" cy="3.64" r="3.64"/><circle cx="111.02" cy="3.64" r="3.64"/><circle cx="129.22" cy="3.64" r="3.64"/><circle cx="147.42" cy="3.64" r="3.64"/><circle cx="165.62" cy="3.64" r="3.64"/><circle cx="183.82" cy="3.64" r="3.64"/><circle cx="3.64" cy="21.64" r="3.64"/><circle cx="21.84" cy="21.64" r="3.64"/><circle cx="38.22" cy="21.64" r="3.64"/><circle cx="56.42" cy="21.64" r="3.64"/><circle cx="74.62" cy="21.64" r="3.64"/><circle cx="92.82" cy="21.64" r="3.64"/><circle cx="111.02" cy="21.64" r="3.64"/><circle cx="129.22" cy="21.64" r="3.64"/><circle cx="147.42" cy="21.64" r="3.64"/><circle cx="165.62" cy="21.64" r="3.64"/><circle cx="183.82" cy="21.64" r="3.64"/><circle cx="3.64" cy="39.64" r="3.64"/><circle cx="21.84" cy="39.64" r="3.64"/><circle cx="38.22" cy="39.64" r="3.64"/><circle cx="56.42" cy="39.64" r="3.64"/><circle cx="74.62" cy="39.64" r="3.64"/><circle cx="92.82" cy="39.64" r="3.64"/><circle cx="111.02" cy="39.64" r="3.64"/><circle cx="129.22" cy="39.64" r="3.64"/><circle cx="147.42" cy="39.64" r="3.64"/><circle cx="165.62" cy="39.64" r="3.64"/><circle cx="183.82" cy="39.64" r="3.64"/><circle cx="3.64" cy="57.64" r="3.64"/><circle cx="21.84" cy="57.64" r="3.64"/><circle cx="38.22" cy="57.64" r="3.64"/><circle cx="56.42" cy="57.64" r="3.64"/><circle cx="74.62" cy="57.64" r="3.64"/><circle cx="92.82" cy="57.64" r="3.64"/><circle cx="111.02" cy="57.64" r="3.64"/><circle cx="129.22" cy="57.64" r="3.64"/><circle cx="147.42" cy="57.64" r="3.64"/><circle cx="165.62" cy="57.64" r="3.64"/><circle cx="183.82" cy="57.64" r="3.64"/><circle cx="3.64" cy="75.64" r="3.64"/><circle cx="21.84" cy="75.64" r="3.64"/><circle cx="38.22" cy="75.64" r="3.64"/><circle cx="56.42" cy="75.64" r="3.64"/><circle cx="74.62" cy="75.64" r="3.64"/><circle cx="92.82" cy="75.64" r="3.64"/><circle cx="111.02" cy="75.64" r="3.64"/><circle cx="129.22" cy="75.64" r="3.64"/><circle cx="147.42" cy="75.64" r="3.64"/><circle cx="165.62" cy="75.64" r="3.64"/><circle cx="183.82" cy="75.64" r="3.64"/><circle cx="3.64" cy="93.64" r="3.64"/><circle cx="21.84" cy="93.64" r="3.64"/><circle cx="38.22" cy="93.64" r="3.64"/><circle cx="56.42" cy="93.64" r="3.64"/><circle cx="74.62" cy="93.64" r="3.64"/><circle cx="92.82" cy="93.64" r="3.64"/><circle cx="111.02" cy="93.64" r="3.64"/><circle cx="129.22" cy="93.64" r="3.64"/><circle cx="147.42" cy="93.64" r="3.64"/><circle cx="165.62" cy="93.64" r="3.64"/><circle cx="183.82" cy="93.64" r="3.64"/><circle cx="3.64" cy="111.64" r="3.64"/><circle cx="21.84" cy="111.64" r="3.64"/><circle cx="38.22" cy="111.64" r="3.64"/><circle cx="56.42" cy="111.64" r="3.64"/><circle cx="74.62" cy="111.64" r="3.64"/><circle cx="92.82" cy="111.64" r="3.64"/><circle cx="111.02" cy="111.64" r="3.64"/><circle cx="129.22" cy="111.64" r="3.64"/><circle cx="147.42" cy="111.64" r="3.64"/><circle cx="165.62" cy="111.64" r="3.64"/><circle cx="183.82" cy="111.64" r="3.64"/><circle cx="3.64" cy="129.64" r="3.64"/><circle cx="21.84" cy="129.64" r="3.64"/><circle cx="38.22" cy="129.64" r="3.64"/><circle cx="56.42" cy="129.64" r="3.64"/><circle cx="74.62" cy="129.64" r="3.64"/><circle cx="92.82" cy="129.64" r="3.64"/><circle cx="111.02" cy="129.64" r="3.64"/><circle cx="129.22" cy="129.64" r="3.64"/><circle cx="147.42" cy="129.64" r="3.64"/><circle cx="165.62" cy="129.64" r="3.64"/><circle cx="183.82" cy="129.64" r="3.64"/><circle cx="3.64" cy="147.64" r="3.64"/><circle cx="21.84" cy="147.64" r="3.64"/><circle cx="38.22" cy="147.64" r="3.64"/><circle cx="56.42" cy="147.64" r="3.64"/><circle cx="74.62" cy="147.64" r="3.64"/><circle cx="92.82" cy="147.64" r="3.64"/><circle cx="111.02" cy="147.64" r="3.64"/><circle cx="129.22" cy="147.64" r="3.64"/><circle cx="147.42" cy="147.64" r="3.64"/><circle cx="165.62" cy="147.64" r="3.64"/><circle cx="183.82" cy="147.64" r="3.64"/><circle cx="3.64" cy="165.64" r="3.64"/><circle cx="21.84" cy="165.64" r="3.64"/><circle cx="38.22" cy="165.64" r="3.64"/><circle cx="56.42" cy="165.64" r="3.64"/><circle cx="74.62" cy="165.64" r="3.64"/><circle cx="92.82" cy="165.64" r="3.64"/><circle cx="111.02" cy="165.64" r="3.64"/><circle cx="129.22" cy="165.64" r="3.64"/><circle cx="147.42" cy="165.64" r="3.64"/><circle cx="165.62" cy="165.64" r="3.64"/><circle cx="183.82" cy="165.64" r="3.64"/></g></svg>