<svg height="651" viewBox="0 0 1220 651" width="1220" xmlns="http://www.w3.org/2000/svg" xmlns:xlink="http://www.w3.org/1999/xlink"><filter id="a" height="153.3%" width="161.5%" x="-30.8%" y="-26.7%"><feOffset dx="0" dy="2" in="SourceAlpha" result="shadowOffsetOuter1"/><feGaussianBlur in="shadowOffsetOuter1" result="shadowBlurOuter1" stdDeviation="2"/><feColorMatrix in="shadowBlurOuter1" result="shadowMatrixOuter1" type="matrix" values="0 0 0 0 0   0 0 0 0 0   0 0 0 0 0  0 0 0 0.5 0"/><feMerge><feMergeNode in="shadowMatrixOuter1"/><feMergeNode in="SourceGraphic"/></feMerge></filter><filter id="b" height="153.3%" width="161.5%" x="-30.8%" y="-26.7%"><feOffset dx="0" dy="2" in="SourceAlpha" result="shadowOffsetOuter1"/><feGaussianBlur in="shadowOffsetOuter1" result="shadowBlurOuter1" stdDeviation="2"/><feColorMatrix in="shadowBlurOuter1" result="shadowMatrixOuter1" type="matrix" values="0 0 0 0 0   0 0 0 0 0   0 0 0 0 0  0 0 0 0.5 0"/><feMerge><feMergeNode in="shadowMatrixOuter1"/><feMergeNode in="SourceGraphic"/></feMerge></filter><filter id="c" height="153.3%" width="161.5%" x="-30.8%" y="-26.7%"><feOffset dx="0" dy="2" in="SourceAlpha" result="shadowOffsetOuter1"/><feGaussianBlur in="shadowOffsetOuter1" result="shadowBlurOuter1" stdDeviation="2"/><feColorMatrix in="shadowBlurOuter1" result="shadowMatrixOuter1" type="matrix" values="0 0 0 0 0   0 0 0 0 0   0 0 0 0 0  0 0 0 0.5 0"/><feMerge><feMergeNode in="shadowMatrixOuter1"/><feMergeNode in="SourceGraphic"/></feMerge></filter><g fill="none" opacity=".131906" transform="translate(-2 -7)"><g filter="url(#a)" transform="matrix(.8480481 .52991926 -.52991926 .8480481 557.886246 .085492)"><path d="m19.5 0-19.5 11.25v22.5l19.5 11.25 19.5-11.25v-22.5z" fill="#c1c1c1"/><path d="m20 45v-45l19 11.25v22.5z" fill="#f2f2f2"/><path d="m0 11.2527473 19.5-11.2527473 19.5 11.2527473-19.5 10.7472527z" fill="#f7f7f7"/></g><g filter="url(#b)" transform="matrix(.8480481 .52991926 -.52991926 .8480481 23.886246 390.085492)"><path d="m19.5 0-19.5 11.25v22.5l19.5 11.25 19.5-11.25v-22.5z" fill="#c1c1c1"/><path d="m20 45v-45l19 11.25v22.5z" fill="#f2f2f2"/><path d="m0 11.2527473 19.5-11.2527473 19.5 11.2527473-19.5 10.7472527z" fill="#f7f7f7"/></g><g filter="url(#c)" transform="matrix(.8480481 .52991926 -.52991926 .8480481 1190.886246 602.09)"><path d="m19.5 0-19.5 11.25v22.5l19.5 11.25 19.5-11.25v-22.5z" fill="#c1c1c1"/><path d="m20 45v-45l19 11.25v22.5z" fill="#f2f2f2"/><path d="m0 11.2527473 19.5-11.2527473 19.5 11.2527473-19.5 10.7472527z" fill="#f7f7f7"/></g></g></svg>