<?xml version="1.0" encoding="UTF-8"?>
<svg width="114px" height="107px" viewBox="0 0 114 107" version="1.1" xmlns="http://www.w3.org/2000/svg" xmlns:xlink="http://www.w3.org/1999/xlink">
    <!-- Generator: Sketch 62 (91390) - https://sketch.com -->
    <title>Path</title>
    <desc>Created with Sketch.</desc>
    <g id="UI-Design" stroke="none" stroke-width="1" fill="none" fill-rule="evenodd">
        <g id="Homepage-v1" transform="translate(-279.000000, -2663.000000)" fill="#2C2733" fill-rule="nonzero">
            <g id="Our-process" transform="translate(215.000000, 2505.000000)">
                <g id="process-item" transform="translate(0.000000, 158.000000)">
                    <g id="Path">
                        <path d="M151.973722,10.1454616 C164.203425,15.5763532 176.783317,24.0184321 177.9147,34.5307024 C179.046082,45.0160871 168.702016,57.5447775 160.001148,66.3901405 C151.273343,75.2086178 144.161798,80.3437678 137.07719,87.8986218 C129.992583,95.4534759 122.934913,105.45492 114.853611,106.826085 C106.77231,108.224137 97.6943149,100.965024 91.1215232,93.2488566 C84.5487314,85.5058033 80.4811431,77.3056948 75.4437986,67.976391 C70.4064541,58.6470872 64.4532288,48.1617025 64.022226,36.4395801 C63.618161,24.6905722 68.7363185,11.6779409 78.3261294,5.35982453 C87.8890026,-0.931406274 101.869654,-0.55500785 114.826674,0.869929042 C127.783694,2.29486593 139.717082,4.71457009 151.973722,10.1454616 Z"></path>
                    </g>
                </g>
            </g>
        </g>
    </g>
</svg>