<svg width="1495" height="914" xmlns="http://www.w3.org/2000/svg">
 <defs>
  <linearGradient y2="0%" y1="100%" x2="50%" x1="50%" id="a">
   <stop stop-color="#e6e9f0" offset="0"/>
   <stop stop-color="#eef1f5" offset="1"/>
  </linearGradient>
  <linearGradient y2="50%" y1="50%" x2="0%" x1="100%" id="b">
   <stop stop-color="#2ca69d" offset="0"/>
   <stop stop-color="#2be3d6" offset="1"/>
  </linearGradient>
  <linearGradient y2="0%" y1="100%" x2="NaN" x1="NaN" id="svg_1">
   <stop stop-color="#e6e9f0" offset="0"/>
   <stop stop-color="#eef1f5" offset="1"/>
  </linearGradient>
 </defs>
 <g>
  <title>background</title>
  <rect fill="none" id="canvas_background" height="402" width="582" y="-1" x="-1"/>
 </g>
 <g>
  <title>Layer 1</title>
  <g id="svg_2" fill-rule="evenodd" fill="none">
   <path id="svg_4" fill="#545e75" d="m1410,50l85,49l-1411,815l-84,-49l1410,-815z"/>
   <g id="svg_5">
    <path id="svg_6" fill="url(#a)" d="m1013.59144,198.52063l46.20283,26.74015c3.34601,1.93653 4.48862,6.21886 2.5521,9.56487c-0.61715,1.06634 -1.5048,1.9509 -2.57329,2.56432l-291.56916,167.39051l-68.70943,-39.50142l290.11294,-166.79291c7.42771,-4.27037 16.5686,-4.25723 23.98401,0.03448z"/>
    <g id="svg_7" fill="url(#b)">
     <path id="svg_8" d="m767.849207,404.524308l295.570713,-172.961811l0.000001,73.005318c-0.000006,2.472591 -1.304439,4.761755 -3.431638,6.022192l-292.284562,173.189132l0.145487,-79.25483z"/>
     <path id="svg_9" d="m768.267668,404.50411l0.145487,79.25483c-57.304716,15.434141 -91.94764,23.151215 -103.928779,23.151214c-8.760907,0.000004 -16.650495,-4.126244 -23.668774,-12.378739l-0.000009,0.000005c-4.864494,-5.719951 -5.667262,-13.858645 -2.014029,-20.418761l60.902156,-109.361951l68.563948,39.753402z"/>
    </g>
   </g>
   <path id="svg_10" fill="url(#a)" d="m1090.189565,499.666827l0.36415,69.237466c0.007577,1.440283 -1.153867,2.614004 -2.594141,2.621575c-0.464592,0.002443 -0.921394,-0.119261 -1.323174,-0.352545l-68.582273,-39.819401c-1.965079,-1.140937 -3.179182,-3.237005 -3.191132,-5.509243l-0.36415,-69.237466c-0.007577,-1.440283 1.153867,-2.614004 2.59415,-2.62158c0.464583,-0.002438 0.921385,0.119266 1.323166,0.35255l68.582282,39.819396c1.965066,1.140933 3.179182,3.237005 3.191123,5.509248z"/>
   <path id="svg_11" fill="url(#a)" d="m755.804303,224.666831l0.36415,69.237466c0.007572,1.440274 -1.153867,2.614004 -2.594141,2.621575c-0.464592,0.002443 -0.921399,-0.11927 -1.323174,-0.352545l-68.582287,-39.819405c-1.965066,-1.140933 -3.179169,-3.237002 -3.191123,-5.509248l-0.364145,-69.237458c-0.007577,-1.440283 1.153867,-2.614004 2.59415,-2.62158c0.464578,-0.002447 0.921385,0.119266 1.323161,0.352541l68.582287,39.819405c1.965066,1.140933 3.179177,3.236997 3.191123,5.509248z"/>
   <g id="svg_12" fill="url(#b)">
    <path id="svg_13" d="m973.254137,543.619123l0.069735,46.467404c0.001435,0.960206 -0.775791,1.739771 -1.735983,1.741209c-0.305293,0.000458 -0.605317,-0.07948 -0.869909,-0.231766l-46.123955,-26.547873c-1.322855,-0.761412 -2.139126,-2.170614 -2.141419,-3.696947l-0.06974,-46.467413c-0.001435,-0.960206 0.775796,-1.739762 1.735997,-1.741206c0.305284,-0.000453 0.605308,0.079485 0.8699,0.231771l46.12395,26.547864c1.322855,0.761412 2.139131,2.170623 2.141424,3.696956z"/>
    <path id="svg_14" d="m722.019627,267.276338l-0.026593,24.32046c-0.002578,2.352736 -1.911931,4.257918 -4.264658,4.255336c-0.739162,-0.000807 -1.465388,-0.193927 -2.107311,-0.56037l-57.617885,-32.891804c-1.733816,-0.989777 -2.803145,-2.833829 -2.800959,-4.830263l0.034224,-31.296001c0.002578,-2.352736 1.911931,-4.257918 4.264653,-4.255345c0.739162,0.000807 1.465388,0.193927 2.107316,0.560378l51.559923,29.433546c5.47902,3.127761 8.858187,8.955149 8.851289,15.264062z"/>
    <path id="svg_15" d="m963.037898,60.254459l0.066328,69.449482c0.001811,1.894337 -1.532389,3.431464 -3.426718,3.43327c-0.601278,0.000576 -1.192147,-0.15692 -1.713369,-0.456702l-90.132033,-51.839361c-2.612557,-1.502602 -4.224186,-4.285645 -4.227066,-7.299494l-0.066328,-69.449482c-0.001811,-1.894337 1.532389,-3.431464 3.426727,-3.433275c0.601278,-0.000576 1.192147,0.15692 1.713369,0.456702l90.132024,51.839366c2.612557,1.502602 4.224186,4.285645 4.227066,7.299494z"/>
   </g>
   <path id="svg_16" fill="url(#svg_1)" d="m901.894208,42.27965l-41.1469,-23.914c-1.29536,-0.75285 -2.9516,-0.30587 -3.69933,0.99834c-0.23961,0.41793 -0.36476,0.89239 -0.36269,1.37494l0.49182,114.52205c0.01322,3.0794 1.65033,5.91988 4.29921,7.45937l41.1469,23.914c1.29536,0.75285 2.95161,0.30587 3.69934,-0.99834c0.2396,-0.41793 0.36475,-0.89239 0.36268,-1.37494l-0.49182,-114.52205c-0.01322,-3.0794 -1.65033,-5.91988 -4.29921,-7.45937z"/>
  </g>
 </g>
</svg>