<?xml version="1.0" encoding="UTF-8"?>
<svg width="188px" height="170px" viewBox="0 0 188 170" version="1.1" xmlns="http://www.w3.org/2000/svg" xmlns:xlink="http://www.w3.org/1999/xlink">
    <!-- Generator: Sketch 62 (91390) - https://sketch.com -->
    <title>dot texture</title>
    <desc>Created with Sketch.</desc>
    <g id="UI-Design-(Teal)" stroke="none" stroke-width="1" fill="none" fill-rule="evenodd" opacity="0.0538271949">
        <g id="dot-texture" fill="#FFFFFF">
            <g id="Group-4">
                <circle id="Oval" cx="3.64" cy="3.64" r="3.64"></circle>
                <circle id="Oval-Copy-7" cx="21.84" cy="3.64" r="3.64"></circle>
                <circle id="Oval-Copy-8" cx="38.22" cy="3.64" r="3.64"></circle>
                <circle id="Oval-Copy-9" cx="56.42" cy="3.64" r="3.64"></circle>
                <circle id="Oval-Copy-10" cx="74.62" cy="3.64" r="3.64"></circle>
                <circle id="Oval-Copy-11" cx="92.82" cy="3.64" r="3.64"></circle>
                <circle id="Oval-Copy-12" cx="111.02" cy="3.64" r="3.64"></circle>
                <circle id="Oval-Copy-13" cx="129.22" cy="3.64" r="3.64"></circle>
                <circle id="Oval-Copy-14" cx="147.42" cy="3.64" r="3.64"></circle>
                <circle id="Oval-Copy-15" cx="165.62" cy="3.64" r="3.64"></circle>
                <circle id="Oval-Copy-16" cx="183.82" cy="3.64" r="3.64"></circle>
            </g>
            <g id="Group-4-Copy" transform="translate(0.000000, 18.000000)">
                <circle id="Oval" cx="3.64" cy="3.64" r="3.64"></circle>
                <circle id="Oval-Copy-7" cx="21.84" cy="3.64" r="3.64"></circle>
                <circle id="Oval-Copy-8" cx="38.22" cy="3.64" r="3.64"></circle>
                <circle id="Oval-Copy-9" cx="56.42" cy="3.64" r="3.64"></circle>
                <circle id="Oval-Copy-10" cx="74.62" cy="3.64" r="3.64"></circle>
                <circle id="Oval-Copy-11" cx="92.82" cy="3.64" r="3.64"></circle>
                <circle id="Oval-Copy-12" cx="111.02" cy="3.64" r="3.64"></circle>
                <circle id="Oval-Copy-13" cx="129.22" cy="3.64" r="3.64"></circle>
                <circle id="Oval-Copy-14" cx="147.42" cy="3.64" r="3.64"></circle>
                <circle id="Oval-Copy-15" cx="165.62" cy="3.64" r="3.64"></circle>
                <circle id="Oval-Copy-16" cx="183.82" cy="3.64" r="3.64"></circle>
            </g>
            <g id="Group-4-Copy-2" transform="translate(0.000000, 36.000000)">
                <circle id="Oval" cx="3.64" cy="3.64" r="3.64"></circle>
                <circle id="Oval-Copy-7" cx="21.84" cy="3.64" r="3.64"></circle>
                <circle id="Oval-Copy-8" cx="38.22" cy="3.64" r="3.64"></circle>
                <circle id="Oval-Copy-9" cx="56.42" cy="3.64" r="3.64"></circle>
                <circle id="Oval-Copy-10" cx="74.62" cy="3.64" r="3.64"></circle>
                <circle id="Oval-Copy-11" cx="92.82" cy="3.64" r="3.64"></circle>
                <circle id="Oval-Copy-12" cx="111.02" cy="3.64" r="3.64"></circle>
                <circle id="Oval-Copy-13" cx="129.22" cy="3.64" r="3.64"></circle>
                <circle id="Oval-Copy-14" cx="147.42" cy="3.64" r="3.64"></circle>
                <circle id="Oval-Copy-15" cx="165.62" cy="3.64" r="3.64"></circle>
                <circle id="Oval-Copy-16" cx="183.82" cy="3.64" r="3.64"></circle>
            </g>
            <g id="Group-4-Copy-3" transform="translate(0.000000, 54.000000)">
                <circle id="Oval" cx="3.64" cy="3.64" r="3.64"></circle>
                <circle id="Oval-Copy-7" cx="21.84" cy="3.64" r="3.64"></circle>
                <circle id="Oval-Copy-8" cx="38.22" cy="3.64" r="3.64"></circle>
                <circle id="Oval-Copy-9" cx="56.42" cy="3.64" r="3.64"></circle>
                <circle id="Oval-Copy-10" cx="74.62" cy="3.64" r="3.64"></circle>
                <circle id="Oval-Copy-11" cx="92.82" cy="3.64" r="3.64"></circle>
                <circle id="Oval-Copy-12" cx="111.02" cy="3.64" r="3.64"></circle>
                <circle id="Oval-Copy-13" cx="129.22" cy="3.64" r="3.64"></circle>
                <circle id="Oval-Copy-14" cx="147.42" cy="3.64" r="3.64"></circle>
                <circle id="Oval-Copy-15" cx="165.62" cy="3.64" r="3.64"></circle>
                <circle id="Oval-Copy-16" cx="183.82" cy="3.64" r="3.64"></circle>
            </g>
            <g id="Group-4-Copy-4" transform="translate(0.000000, 72.000000)">
                <circle id="Oval" cx="3.64" cy="3.64" r="3.64"></circle>
                <circle id="Oval-Copy-7" cx="21.84" cy="3.64" r="3.64"></circle>
                <circle id="Oval-Copy-8" cx="38.22" cy="3.64" r="3.64"></circle>
                <circle id="Oval-Copy-9" cx="56.42" cy="3.64" r="3.64"></circle>
                <circle id="Oval-Copy-10" cx="74.62" cy="3.64" r="3.64"></circle>
                <circle id="Oval-Copy-11" cx="92.82" cy="3.64" r="3.64"></circle>
                <circle id="Oval-Copy-12" cx="111.02" cy="3.64" r="3.64"></circle>
                <circle id="Oval-Copy-13" cx="129.22" cy="3.64" r="3.64"></circle>
                <circle id="Oval-Copy-14" cx="147.42" cy="3.64" r="3.64"></circle>
                <circle id="Oval-Copy-15" cx="165.62" cy="3.64" r="3.64"></circle>
                <circle id="Oval-Copy-16" cx="183.82" cy="3.64" r="3.64"></circle>
            </g>
            <g id="Group-4-Copy-5" transform="translate(0.000000, 90.000000)">
                <circle id="Oval" cx="3.64" cy="3.64" r="3.64"></circle>
                <circle id="Oval-Copy-7" cx="21.84" cy="3.64" r="3.64"></circle>
                <circle id="Oval-Copy-8" cx="38.22" cy="3.64" r="3.64"></circle>
                <circle id="Oval-Copy-9" cx="56.42" cy="3.64" r="3.64"></circle>
                <circle id="Oval-Copy-10" cx="74.62" cy="3.64" r="3.64"></circle>
                <circle id="Oval-Copy-11" cx="92.82" cy="3.64" r="3.64"></circle>
                <circle id="Oval-Copy-12" cx="111.02" cy="3.64" r="3.64"></circle>
                <circle id="Oval-Copy-13" cx="129.22" cy="3.64" r="3.64"></circle>
                <circle id="Oval-Copy-14" cx="147.42" cy="3.64" r="3.64"></circle>
                <circle id="Oval-Copy-15" cx="165.62" cy="3.64" r="3.64"></circle>
                <circle id="Oval-Copy-16" cx="183.82" cy="3.64" r="3.64"></circle>
            </g>
            <g id="Group-4-Copy-6" transform="translate(0.000000, 108.000000)">
                <circle id="Oval" cx="3.64" cy="3.64" r="3.64"></circle>
                <circle id="Oval-Copy-7" cx="21.84" cy="3.64" r="3.64"></circle>
                <circle id="Oval-Copy-8" cx="38.22" cy="3.64" r="3.64"></circle>
                <circle id="Oval-Copy-9" cx="56.42" cy="3.64" r="3.64"></circle>
                <circle id="Oval-Copy-10" cx="74.62" cy="3.64" r="3.64"></circle>
                <circle id="Oval-Copy-11" cx="92.82" cy="3.64" r="3.64"></circle>
                <circle id="Oval-Copy-12" cx="111.02" cy="3.64" r="3.64"></circle>
                <circle id="Oval-Copy-13" cx="129.22" cy="3.64" r="3.64"></circle>
                <circle id="Oval-Copy-14" cx="147.42" cy="3.64" r="3.64"></circle>
                <circle id="Oval-Copy-15" cx="165.62" cy="3.64" r="3.64"></circle>
                <circle id="Oval-Copy-16" cx="183.82" cy="3.64" r="3.64"></circle>
            </g>
            <g id="Group-4-Copy-7" transform="translate(0.000000, 126.000000)">
                <circle id="Oval" cx="3.64" cy="3.64" r="3.64"></circle>
                <circle id="Oval-Copy-7" cx="21.84" cy="3.64" r="3.64"></circle>
                <circle id="Oval-Copy-8" cx="38.22" cy="3.64" r="3.64"></circle>
                <circle id="Oval-Copy-9" cx="56.42" cy="3.64" r="3.64"></circle>
                <circle id="Oval-Copy-10" cx="74.62" cy="3.64" r="3.64"></circle>
                <circle id="Oval-Copy-11" cx="92.82" cy="3.64" r="3.64"></circle>
                <circle id="Oval-Copy-12" cx="111.02" cy="3.64" r="3.64"></circle>
                <circle id="Oval-Copy-13" cx="129.22" cy="3.64" r="3.64"></circle>
                <circle id="Oval-Copy-14" cx="147.42" cy="3.64" r="3.64"></circle>
                <circle id="Oval-Copy-15" cx="165.62" cy="3.64" r="3.64"></circle>
                <circle id="Oval-Copy-16" cx="183.82" cy="3.64" r="3.64"></circle>
            </g>
            <g id="Group-4-Copy-8" transform="translate(0.000000, 144.000000)">
                <circle id="Oval" cx="3.64" cy="3.64" r="3.64"></circle>
                <circle id="Oval-Copy-7" cx="21.84" cy="3.64" r="3.64"></circle>
                <circle id="Oval-Copy-8" cx="38.22" cy="3.64" r="3.64"></circle>
                <circle id="Oval-Copy-9" cx="56.42" cy="3.64" r="3.64"></circle>
                <circle id="Oval-Copy-10" cx="74.62" cy="3.64" r="3.64"></circle>
                <circle id="Oval-Copy-11" cx="92.82" cy="3.64" r="3.64"></circle>
                <circle id="Oval-Copy-12" cx="111.02" cy="3.64" r="3.64"></circle>
                <circle id="Oval-Copy-13" cx="129.22" cy="3.64" r="3.64"></circle>
                <circle id="Oval-Copy-14" cx="147.42" cy="3.64" r="3.64"></circle>
                <circle id="Oval-Copy-15" cx="165.62" cy="3.64" r="3.64"></circle>
                <circle id="Oval-Copy-16" cx="183.82" cy="3.64" r="3.64"></circle>
            </g>
            <g id="Group-4-Copy-9" transform="translate(0.000000, 162.000000)">
                <circle id="Oval" cx="3.64" cy="3.64" r="3.64"></circle>
                <circle id="Oval-Copy-7" cx="21.84" cy="3.64" r="3.64"></circle>
                <circle id="Oval-Copy-8" cx="38.22" cy="3.64" r="3.64"></circle>
                <circle id="Oval-Copy-9" cx="56.42" cy="3.64" r="3.64"></circle>
                <circle id="Oval-Copy-10" cx="74.62" cy="3.64" r="3.64"></circle>
                <circle id="Oval-Copy-11" cx="92.82" cy="3.64" r="3.64"></circle>
                <circle id="Oval-Copy-12" cx="111.02" cy="3.64" r="3.64"></circle>
                <circle id="Oval-Copy-13" cx="129.22" cy="3.64" r="3.64"></circle>
                <circle id="Oval-Copy-14" cx="147.42" cy="3.64" r="3.64"></circle>
                <circle id="Oval-Copy-15" cx="165.62" cy="3.64" r="3.64"></circle>
                <circle id="Oval-Copy-16" cx="183.82" cy="3.64" r="3.64"></circle>
            </g>
        </g>
    </g>
</svg>