<svg height="359" viewBox="0 0 381 359" width="381" xmlns="http://www.w3.org/2000/svg"><path d="m1324.01744 216.039446c40.87295 18.221403 82.91628 46.545761 86.69748 81.815901 3.7812 35.179936-30.78976 77.215449-59.86898 106.892881-29.16924 29.587228-52.93677 46.816376-76.61428 72.163971-23.6775 25.347594-47.26498 58.90384-74.27354 63.504293-27.00856 4.690658-57.34817-19.664682-79.31513-45.553506-21.96697-25.979029-35.56127-53.491543-52.39661-84.792665s-36.73164-66.481058-38.1721-105.810421c-1.35043-39.419569 15.75499-83.078771 47.80515-104.276937 31.96013-21.107962 78.68494-19.845092 121.98866-15.064229 43.30373 4.780863 83.18637 12.89931 124.14935 31.120712z" fill="#201c26" transform="translate(-1030 -182)"/></svg>