<?xml version="1.0" encoding="UTF-8"?>
<svg width="491px" height="566px" viewBox="0 0 491 566" version="1.1" xmlns="http://www.w3.org/2000/svg" xmlns:xlink="http://www.w3.org/1999/xlink">
    <!-- Generator: Sketch 61 (89581) - https://sketch.com -->
    <title>Group 11</title>
    <desc>Created with Sketch.</desc>
    <defs>
        <filter x="-8.0%" y="-11.7%" width="117.0%" height="124.9%" filterUnits="objectBoundingBox" id="filter-1">
            <feOffset dx="2" dy="0" in="SourceAlpha" result="shadowOffsetOuter1"></feOffset>
            <feGaussianBlur stdDeviation="5" in="shadowOffsetOuter1" result="shadowBlurOuter1"></feGaussianBlur>
            <feColorMatrix values="0 0 0 0 0   0 0 0 0 0   0 0 0 0 0  0 0 0 0.328999126 0" type="matrix" in="shadowBlurOuter1" result="shadowMatrixOuter1"></feColorMatrix>
            <feMerge>
                <feMergeNode in="shadowMatrixOuter1"></feMergeNode>
                <feMergeNode in="SourceGraphic"></feMergeNode>
            </feMerge>
        </filter>
        <rect id="path-2" x="0" y="0" width="376" height="257"></rect>
        <filter x="-3.3%" y="-4.9%" width="107.7%" height="111.3%" filterUnits="objectBoundingBox" id="filter-3">
            <feMorphology radius="1" operator="dilate" in="SourceAlpha" result="shadowSpreadOuter1"></feMorphology>
            <feOffset dx="2" dy="2" in="shadowSpreadOuter1" result="shadowOffsetOuter1"></feOffset>
            <feGaussianBlur stdDeviation="3.5" in="shadowOffsetOuter1" result="shadowBlurOuter1"></feGaussianBlur>
            <feColorMatrix values="0 0 0 0 0   0 0 0 0 0   0 0 0 0 0  0 0 0 0.13 0" type="matrix" in="shadowBlurOuter1"></feColorMatrix>
        </filter>
        <linearGradient x1="100%" y1="50%" x2="0%" y2="50%" id="linearGradient-4">
            <stop stop-color="#2CA69D" offset="0%"></stop>
            <stop stop-color="#2BE3D6" offset="100%"></stop>
        </linearGradient>
        <linearGradient x1="100%" y1="50%" x2="0%" y2="50%" id="linearGradient-5">
            <stop stop-color="#2CA69D" offset="0%"></stop>
            <stop stop-color="#2BE3D6" offset="100%"></stop>
        </linearGradient>
        <linearGradient x1="100%" y1="50%" x2="0%" y2="50%" id="linearGradient-6">
            <stop stop-color="#2CA69D" offset="0%"></stop>
            <stop stop-color="#2BE3D6" offset="100%"></stop>
        </linearGradient>
        <linearGradient x1="100%" y1="50%" x2="0%" y2="50%" id="linearGradient-7">
            <stop stop-color="#2CA69D" offset="0%"></stop>
            <stop stop-color="#2BE3D6" offset="100%"></stop>
        </linearGradient>
        <filter x="-30.7%" y="-15.4%" width="161.5%" height="130.9%" filterUnits="objectBoundingBox" id="filter-8">
            <feOffset dx="0" dy="2" in="SourceAlpha" result="shadowOffsetOuter1"></feOffset>
            <feGaussianBlur stdDeviation="6.5" in="shadowOffsetOuter1" result="shadowBlurOuter1"></feGaussianBlur>
            <feColorMatrix values="0 0 0 0 0   0 0 0 0 0   0 0 0 0 0  0 0 0 0.30621722 0" type="matrix" in="shadowBlurOuter1" result="shadowMatrixOuter1"></feColorMatrix>
            <feMerge>
                <feMergeNode in="shadowMatrixOuter1"></feMergeNode>
                <feMergeNode in="SourceGraphic"></feMergeNode>
            </feMerge>
        </filter>
        <linearGradient x1="50%" y1="100%" x2="50%" y2="95.3611898%" id="linearGradient-9">
            <stop stop-color="#000000" offset="0%"></stop>
            <stop stop-color="#000000" stop-opacity="0" offset="100%"></stop>
        </linearGradient>
        <path d="M42.3913894,0 L316.608611,0 C322.256117,0 327,4.72817341 327,10.3512748 L327,192.648725 C327,198.271827 326.965353,203 321.227006,203 L38.3502935,203 C32.5392075,203 32,198.271827 32,192.648725 L32,10.3512748 C32,4.72817341 36.7438826,0 42.3913894,0 L42.3913894,0 Z" id="path-10"></path>
        <rect id="path-11" x="43" y="15" width="273" height="170"></rect>
        <linearGradient x1="50%" y1="99.740912%" x2="50%" y2="0%" id="linearGradient-13">
            <stop stop-color="#D0D0D0" offset="0%"></stop>
            <stop stop-color="#E7E7E7" offset="100%"></stop>
        </linearGradient>
        <rect id="path-14" x="26.5" y="2.5" width="30" height="30" rx="15"></rect>
        <filter x="-23.3%" y="-16.7%" width="146.7%" height="146.7%" filterUnits="objectBoundingBox" id="filter-15">
            <feOffset dx="0" dy="2" in="SourceAlpha" result="shadowOffsetOuter1"></feOffset>
            <feGaussianBlur stdDeviation="2" in="shadowOffsetOuter1" result="shadowBlurOuter1"></feGaussianBlur>
            <feColorMatrix values="0 0 0 0 0   0 0 0 0 0   0 0 0 0 0  0 0 0 0.234456949 0" type="matrix" in="shadowBlurOuter1"></feColorMatrix>
        </filter>
        <rect id="path-16" x="3" y="3" width="30" height="30" rx="15"></rect>
        <filter x="-23.3%" y="-16.7%" width="146.7%" height="146.7%" filterUnits="objectBoundingBox" id="filter-17">
            <feOffset dx="0" dy="2" in="SourceAlpha" result="shadowOffsetOuter1"></feOffset>
            <feGaussianBlur stdDeviation="2" in="shadowOffsetOuter1" result="shadowBlurOuter1"></feGaussianBlur>
            <feColorMatrix values="0 0 0 0 0   0 0 0 0 0   0 0 0 0 0  0 0 0 0.234456949 0" type="matrix" in="shadowBlurOuter1"></feColorMatrix>
        </filter>
    </defs>
    <g id="Page-1" stroke="none" stroke-width="1" fill="none" fill-rule="evenodd">
        <g id="Group-11" transform="translate(0.000000, 11.000000)">
            <g id="Bullet-train" filter="url(#filter-1)" transform="translate(97.000000, 282.000000)">
                <g id="Rectangle">
                    <use fill="black" fill-opacity="1" filter="url(#filter-3)" xlink:href="#path-2"></use>
                    <use fill="#FFFFFF" fill-rule="evenodd" xlink:href="#path-2"></use>
                </g>
                <rect id="Rectangle" fill="#D8D8D8" x="0" y="0" width="376" height="21"></rect>
                <rect id="Rectangle" fill="#1E2C3F" x="0" y="21" width="104" height="236"></rect>
                <g id="Group-3" transform="translate(7.000000, 6.000000)" fill="#A8A8A8">
                    <circle id="Oval" cx="31" cy="5" r="5"></circle>
                    <circle id="Oval" cx="18" cy="5" r="5"></circle>
                    <circle id="Oval" cx="5" cy="5" r="5"></circle>
                </g>
                <g id="Group-5" transform="translate(6.000000, 73.000000)" opacity="0.588239397">
                    <g id="Group-4">
                        <rect id="Rectangle" fill="#FFFFFF" x="14" y="3" width="67" height="2" rx="1"></rect>
                        <circle id="Oval" fill="#D8D8D8" cx="3" cy="3" r="3"></circle>
                    </g>
                    <g id="Group-4" transform="translate(0.000000, 93.000000)">
                        <rect id="Rectangle" fill="#FFFFFF" x="14" y="3" width="74" height="2" rx="1"></rect>
                        <circle id="Oval" fill="#D8D8D8" cx="3" cy="3" r="3"></circle>
                    </g>
                    <g id="Group-4" transform="translate(0.000000, 73.000000)">
                        <rect id="Rectangle" fill="#FFFFFF" x="14" y="3" width="67" height="2" rx="1"></rect>
                        <circle id="Oval" fill="#D8D8D8" cx="3" cy="3" r="3"></circle>
                    </g>
                    <g id="Group-4" transform="translate(0.000000, 21.000000)">
                        <rect id="Rectangle" fill="#FFFFFF" x="14" y="3" width="73" height="2" rx="1"></rect>
                        <rect id="Rectangle" fill-opacity="0.49" fill="#FFFFFF" x="14" y="19" width="63" height="2" rx="1"></rect>
                        <rect id="Rectangle" fill-opacity="0.49" fill="#FFFFFF" x="14" y="35" width="53" height="2" rx="1"></rect>
                        <circle id="Oval" fill="#D8D8D8" cx="3" cy="3" r="3"></circle>
                    </g>
                    <g id="Group-4" transform="translate(0.000000, 21.000000)">
                        <rect id="Rectangle" fill="#FFFFFF" x="14" y="3" width="73" height="2" rx="1"></rect>
                        <rect id="Rectangle" fill-opacity="0.49" fill="#FFFFFF" x="14" y="19" width="63" height="2" rx="1"></rect>
                        <rect id="Rectangle" fill-opacity="0.49" fill="#FFFFFF" x="14" y="35" width="53" height="2" rx="1"></rect>
                        <circle id="Oval" fill="#D8D8D8" cx="3" cy="3" r="3"></circle>
                    </g>
                </g>
                <g id="bullet-train-1" transform="translate(33.000000, 35.000000)" stroke-width="1.5">
                    <g id="Group">
                        <g id="Path">
                            <path d="M28.8924865,7.65497372 C28.6091931,7.72992252 27.3598994,5.20582975 27.4893107,4.86035613 C27.8638838,3.86040391 33.3434663,4.30665338 34.4552958,4.58986791 C35.3877768,4.82739724 34.224497,4.136293 30.9654566,2.51655515 C30.3485749,2.20996474 29.8658911,1.67837792 29.612151,1.02613831 C29.0619736,-0.388094701 26.9108019,-0.340496258 23.1586359,1.16893364 C18.821878,2.91353452 11.4486636,5.83605107 1.03899268,9.93648329 C0.66646756,10.083225 0.390488397,10.4112472 0.303913928,10.8101824 L0.055267041,11.9559475 C0.0113631058,12.1582568 0.135955908,12.358701 0.333552861,12.403652 C0.39249662,12.417061 0.453763088,12.415352 0.511906289,12.3986768 L7.8126111,10.3048754 C8.00752436,10.2489754 8.20979316,10.3654362 8.26439109,10.5649978 C8.27340498,10.5979446 8.27797545,10.6319988 8.27797545,10.6662138 L8.27797545,12.1888689 C8.27797545,12.4098891 8.12727799,12.6009216 7.91623875,12.6474266 L0.217079704,14.3440253 C0.0686665247,14.3767298 -0.0257513993,14.5264241 0.00619136747,14.6783767 C0.00795979193,14.6867892 0.0101041247,14.6951142 0.0126176042,14.7033254 L0.723067617,17.0242894 C0.890742544,17.5720653 1.3864564,17.9448839 1.9471324,17.9448839 C14.0791755,17.9448839 23.1782078,17.9448839 29.2442294,17.9448839 C30.19381,17.9448839 31.618181,17.9448839 33.5173423,17.9448839 C36.4630516,17.9448839 38.882702,15.5625084 38.997802,12.548851 C39.0462145,11.2812685 38.2949003,9.64997613 36.7438594,7.65497372 C36.1035985,6.43957758 33.4864742,6.43957758 28.8924865,7.65497372 Z" stroke="url(#linearGradient-5)"></path>
                            <path d="M33.5199063,15.6900271 C35.8584725,14.8852331 36.7936632,13.4446318 36.3254785,11.3682232" stroke="url(#linearGradient-6)" stroke-linecap="round"></path>
                            <path d="M11.0123801,11.7225918 L21.4605006,9.38298453 C22.0877878,9.24251843 22.6441763,8.87423726 23.0267685,8.34625028 C23.5831969,7.57836499 23.8535259,6.94260479 23.8377555,6.43896973 C23.8180757,5.81048527 23.3530209,5.39260721 22.4425911,5.18533546 L22.4425898,5.18534138 C22.307475,5.15458062 22.1666147,5.16361705 22.0363069,5.2114051 L12.1032951,8.85415825 C11.3865826,9.11699966 10.8760547,9.77138085 10.7840539,10.545127 L10.6807844,11.4136451 C10.6624385,11.5679383 10.769732,11.7082446 10.9204312,11.7270281 C10.9511065,11.7308515 10.9821919,11.7293517 11.0123801,11.7225918 L11.0123801,11.7225918 Z" stroke="url(#linearGradient-7)"></path>
                        </g>
                        <g transform="translate(29.602410, 4.329770)" id="Path">
                            <line x1="0.264100905" y1="2.5287451" x2="2.27346858" y2="0.461795416" stroke="#2CB6AC"></line>
                            <line x1="3.18618004" y1="2.45040388" x2="5.11938899" y2="0.461795416" stroke="#2BADA3"></line>
                        </g>
                    </g>
                </g>
            </g>
            <rect id="Rectangle" fill="#E3E3E3" x="341" y="468" width="112" height="27"></rect>
            <g id="Group-7" transform="translate(341.000000, 473.000000)" font-family="CourierNewPS-BoldMT, Courier New" font-size="13" font-weight="bold">
                <text id="{" fill="#292427">
                    <tspan x="0" y="12">{</tspan>
                </text>
                <text id="}" fill="#292427">
                    <tspan x="99" y="11">}</tspan>
                </text>
                <text id="theme:" fill="#760E40">
                    <tspan x="7" y="12">theme:</tspan>
                </text>
                <text id="”blue”" fill="#79B547">
                    <tspan x="53" y="12">”blue”</tspan>
                </text>
            </g>
            <g id="Blue-Screen-Mockup" filter="url(#filter-8)" transform="translate(377.000000, 0.000000)">
                <path d="M75.6,-1.42108547e-14 C86.3695526,-1.61891894e-14 95.1,8.73044738 95.1,19.5 L95.1,170.7 C95.1,181.469553 86.3695526,190.2 75.6,190.2 L20.6975444,190.2 C9.92799175,190.2 1.19754437,181.469553 1.19754437,170.7 L1.197,95.274 L0.9,95.2740508 C0.402943725,95.2740508 8.88683381e-13,94.871107 8.88400464e-13,94.3740508 L8.88400464e-13,65.517343 C8.88450615e-13,65.0202867 0.402943725,64.617343 0.9,64.617343 L1.197,64.617 L1.197,60.883 L0.9,60.8830283 C0.402943725,60.8830283 8.88572358e-13,60.4800846 8.88400464e-13,59.9830283 L8.88400464e-13,49.0574233 C8.88339592e-13,48.560367 0.402943725,48.1574233 0.9,48.1574233 L1.197,48.157 L1.19754437,19.5 C1.19754437,8.73044738 9.92799175,-1.223252e-14 20.6975444,-1.42108547e-14 L75.6,-1.42108547e-14 Z" id="Body" fill="#EEEEEE"></path>
                <path d="M22.8,3.5 C12.3065898,3.5 3.8,12.0065898 3.8,22.5 L3.8,167.7 C3.8,178.19341 12.3065898,186.7 22.8,186.7 L73.8,186.7 C84.2934102,186.7 92.8,178.19341 92.8,167.7 L92.8,22.5 C92.8,12.0065898 84.2934102,3.5 73.8,3.5 L22.8,3.5 Z" id="Rectangle-6-Copy" stroke="#E3E3E3" fill="#F0F0F0"></path>
                <path d="M7.2,22.2 L89.4,22.2 C89.5656854,22.2 89.7,22.3343146 89.7,22.5 L89.7,168 C89.7,168.165685 89.5656854,168.3 89.4,168.3 L7.2,168.3 C7.03431458,168.3 6.9,168.165685 6.9,168 L6.9,22.5 C6.9,22.3343146 7.03431458,22.2 7.2,22.2 Z" id="Screen-Area" fill="#1D92D4"></path>
            </g>
            <g id="Group-2" transform="translate(0.000000, 24.000000)">
                <g id="top">
                    <use fill="#EEEEEE" fill-rule="evenodd" xlink:href="#path-10"></use>
                    <use fill-opacity="0.1" fill="url(#linearGradient-9)" fill-rule="evenodd" style="mix-blend-mode: multiply;" xlink:href="#path-10"></use>
                    <path stroke-opacity="0.25" stroke="#FFFFFF" stroke-width="3.75" d="M42.3913894,1.875 C37.7787659,1.875 33.875,5.76436753 33.875,10.3512748 L33.875,192.648725 C33.875,199.130276 34.78635,201.125 38.3502935,201.125 L321.227006,201.125 C324.548163,201.125 325.125,199.627252 325.125,192.648725 L325.125,10.3512748 C325.125,5.76436753 321.221234,1.875 316.608611,1.875 L42.3913894,1.875 Z" stroke-linejoin="square"></path>
                </g>
                <mask id="mask-12" fill="white">
                    <use xlink:href="#path-11"></use>
                </mask>
                <use id="screen" fill="#24364C" xlink:href="#path-11"></use>
                <path d="M360,201 C360,201 348.112787,206.93608 318.528,206.6 C318.397018,206.93608 218.88,208 180.288,208 C141.12,208 41.6029823,206.93608 41.472,206.6 C11.8872134,206.93608 0,201 0,201 L360,201 Z" id="bottom" fill="url(#linearGradient-13)"></path>
            </g>
            <g id="Group-6" transform="translate(393.000000, 326.000000)">
                <rect id="Rectangle" fill="#28B1AC" x="0" y="0" width="60" height="35" rx="17.5"></rect>
                <g id="Rectangle-Copy-4">
                    <use fill="black" fill-opacity="1" filter="url(#filter-15)" xlink:href="#path-14"></use>
                    <use fill="#F7F9FC" fill-rule="evenodd" xlink:href="#path-14"></use>
                </g>
            </g>
            <g id="Group-6" transform="translate(393.000000, 397.000000)">
                <rect id="Rectangle" fill="#D1D1D1" x="0" y="0" width="60" height="35" rx="17.5"></rect>
                <g id="Rectangle-Copy-4">
                    <use fill="black" fill-opacity="1" filter="url(#filter-17)" xlink:href="#path-16"></use>
                    <use fill="#F7F9FC" fill-rule="evenodd" xlink:href="#path-16"></use>
                </g>
            </g>
            <line x1="371.5" y1="274.5" x2="371.5" y2="261.5" id="Line-2" stroke="#B8B8B8" fill="#FFFFFF" stroke-linecap="square"></line>
            <g id="Group-8" transform="translate(341.000000, 257.000000)" fill="#FFFFFF">
                <circle id="Oval" stroke="#979797" cx="4.5" cy="4.5" r="1"></circle>
                <circle id="Oval" stroke="#B8B8B8" stroke-width="2" cx="4.5" cy="4.5" r="3.5"></circle>
            </g>
            <g id="Group-9" transform="translate(179.500000, 191.500000)">
                <line x1="171" y1="70" x2="192" y2="70" id="Line-3" stroke="#B8B8B8" fill="#FFFFFF" stroke-linecap="square"></line>
                <line x1="245.5" y1="69.5" x2="246" y2="0" id="Line" stroke="#B8B8B8" fill="#FFFFFF" stroke-linecap="square"></line>
                <line x1="1" y1="71" x2="161.5" y2="70.5" id="Line-3" stroke="#B8B8B8" fill="#FFFFFF" stroke-linecap="square"></line>
                <line x1="0.5" y1="70.5" x2="1" y2="42" id="Line-2" stroke="#B8B8B8" fill="#FFFFFF" stroke-linecap="square"></line>
                <line x1="213" y1="82" x2="213" y2="70" id="Line" stroke="#B8B8B8" fill="#FFFFFF" stroke-linecap="square"></line>
                <line x1="213" y1="70" x2="243" y2="70" id="Line-3" stroke="#B8B8B8" fill="#FFFFFF" stroke-linecap="square"></line>
                <circle id="Oval" fill="#B8B8B8" cx="245.5" cy="69.5" r="3"></circle>
            </g>
            <g id="Group-21" transform="translate(92.000000, 153.000000)">
                <path d="M126,0 L126,0.25 C126,1.21649831 126.783502,2 127.75,2 C128.716498,2 129.5,1.21649831 129.5,0.25 L129.5,0.25 L129.5,0 L166,0 C171.522847,-1.01453063e-15 176,4.4771525 176,10 L176,35 C176,40.5228475 171.522847,45 166,45 L129.422,45 L129.422852,44.75 C129.422852,43.8318266 128.715741,43.0788077 127.816379,43.0058012 L127.672852,43 C126.706353,43 125.922852,43.7835017 125.922852,44.75 L125.922852,44.75 L125.922,45 L10,45 C4.4771525,45 6.76353751e-16,40.5228475 0,35 L0,10 C-6.76353751e-16,4.4771525 4.4771525,1.01453063e-15 10,0 L126,0 Z" id="Combined-Shape" fill="#D92D7B"></path>
                <line x1="127.75" y1="2" x2="127.75" y2="43" id="Line-3" stroke="#F7F9FC" stroke-width="0.5" stroke-linecap="square" stroke-dasharray="2.5,2"></line>
                <text id="Checkout" opacity="0.45" font-family="Helvetica" font-size="9.9993" font-weight="normal" letter-spacing="0.652846024" fill="#FFFFFF">
                    <tspan x="7" y="35">Checkout</tspan>
                </text>
                <circle id="Oval" fill="#B41D61" cx="152" cy="22.5" r="14.5"></circle>
                <text id="$5" font-family="Helvetica" font-size="11" font-weight="normal" letter-spacing="-0.0392857045" fill="#F7F9FC">
                    <tspan x="145.5" y="26.5">$5</tspan>
                </text>
                <text id="Limited-Offer!" font-family="Helvetica" font-size="13.5" font-weight="normal" letter-spacing="-0.0482142741" fill="#FFFFFF">
                    <tspan x="7" y="22">Limited Offer!</tspan>
                </text>
            </g>
            <g id="Group-10" transform="translate(403.000000, 60.000000)">
                <g id="Group-17" fill="#38B7FF">
                    <rect id="Rectangle" x="0" y="0" width="45" height="45" rx="22.5"></rect>
                </g>
                <path d="M40.2753906,37 C37.6209905,33.2812665 26.7904264,34.0224333 26.7904264,34.0224333 L17.5918201,34 C17.5918201,34 11.4890763,34.5229394 7.61523438,39.4811148 C11.2695313,43.1603716 16.3977865,45 23,45 C29.6022135,45 35.3606771,42.3333333 40.2753906,37 Z" id="Path" fill="#C0D0E0" fill-rule="nonzero"></path>
                <path d="M16.1746948,25.6866894 C17.7701956,27.5207831 16.8103008,34.985708 16.8103008,34.985708 C16.8103008,36.7354183 18.6848992,37 21.1830736,37 C23.6813525,37 26.3361269,36.7002931 26.3361269,34.9506868 C26.3361269,34.9506868 25.9090072,27.4081333 26.9222527,25.5900433 C28.1546547,23.3788218 14.3003057,23.5325203 16.1746948,25.6866894" id="Path" fill="#D0D0D0" fill-rule="nonzero"></path>
                <path d="M16.1746948,25.6866894 C17.7701956,27.5207831 21.1830736,37 21.1830736,37 C23.6813525,37 26.3361269,36.7002931 26.3361269,34.9506868 C26.3361269,34.9506868 25.9090072,27.4081333 26.9222527,25.5900433 C28.1546547,23.3788218 14.3003057,23.5325203 16.1746948,25.6866894" id="Path" fill="#FFFFFF" fill-rule="nonzero" opacity="0.2"></path>
                <path d="M17.0127801,20.0493311 C17.0127801,20.0493311 17.0866403,22.7773955 17.4827254,22.9438727 C17.878912,23.1104811 18,22.8530968 18,22.8530968 L17.6147707,19.2353622 C17.6147707,19.2353622 17.4862764,19 17.2060035,19 C16.9257307,19 17.0127801,20.0493311 17.0127801,20.0493311 M26.1201987,20.5894703 C26.1201987,20.5894703 25.9120556,22.644297 26.0435708,22.8250577 C26.175275,23.0058841 26.65672,23.2779428 26.7825636,22.2705193 C26.9084703,21.2631614 27.1434583,19.8430947 26.8806171,19.2089245 C26.5090726,18.3127889 26.1202617,20.5895358 26.1202617,20.5895358" id="Shape" fill="#959CA5" fill-rule="nonzero"></path>
                <path d="M13.0030697,15.9827369 C13.0030697,15.9827369 12.839051,23.4012406 14.9088732,26.1491099 C16.9785939,28.896781 17.5847322,30 20.3693956,29.9918637 C20.4448076,29.9956313 20.7639132,30.000192 20.8362804,30 C23.4330734,29.9926568 24.0551467,28.822123 26.0687397,26.1491099 C26.9337961,25.0003885 27.3526729,23.2113733 27.5472421,21.5182337 C27.5472421,21.5182337 27.8760914,19.4144257 27.9612472,17.8083374 C28.0856821,15.4648902 27.918923,13.2330829 27.3376514,12.2956445 C26.3582083,10.7157312 13.0030697,15.9827369 13.0030697,15.9827369" id="Path" fill="#D8DEE7" fill-rule="nonzero"></path>
                <path d="M26.5591236,12.6926433 C25.9019798,14.582052 13.8369886,16.8347843 13.8369886,16.8347843 C13.8369886,16.8347843 13.6868419,21.0018879 13.6040687,20.7517359 C13.1066047,18.601267 13.0269482,18.9758134 13.0001821,14.5393636 C12.9733244,10.1030186 15.9193341,6 20.534282,6 C22.2383276,6 24.4661449,6.69748904 24.9918416,7.92318181 C24.9918416,7.92318181 25.9909861,7.14797256 26.8447506,8.49596191 C27.3283732,9.25952885 28,11.0981729 28,13.7601687 C28,15.8380567 27.2239672,21 27.1266193,21 C27.0293632,21 27.1952762,14.0007762 26.5592152,12.6926433" id="Path" fill="#A2B0BE" fill-rule="nonzero"></path>
            </g>
            <g id="swatches-top" transform="translate(425.500000, 132.500000) scale(1, -1) translate(-425.500000, -132.500000) translate(394.000000, 128.000000)">
                <rect id="swatch" fill="#FFD737" opacity="0.360863095" x="54" y="0" width="9" height="9" rx="4"></rect>
                <rect id="swatch" fill="#9437C8" opacity="0.360863095" x="41" y="0" width="9" height="9" rx="4"></rect>
                <rect id="swatch" fill="#6EC12D" opacity="0.360863095" x="27" y="0" width="9" height="9" rx="4"></rect>
                <rect id="swatch" stroke="#FFFFFF" fill="#1D92D4" x="14.5" y="0.5" width="8" height="8" rx="4"></rect>
                <rect id="swatch" fill="#DB001E" opacity="0.360863095" x="0" y="0" width="9" height="9" rx="4"></rect>
            </g>
            <rect id="Rectangle" fill-opacity="0.126065341" fill="#000000" x="55" y="60" width="249" height="79"></rect>
            <g id="Group-4" opacity="0.588239397" transform="translate(210.000000, 338.000000)">
                <rect id="Rectangle" fill="#9A9A9A" x="5" y="13" width="106" height="4" rx="1"></rect>
                <rect id="Rectangle" fill="#9A9A9A" x="5" y="0" width="133" height="4" rx="1"></rect>
                <ellipse id="Oval" fill="#D8D8D8" cx="2.5" cy="20" rx="2.5" ry="3"></ellipse>
            </g>
            <g id="Group-4" opacity="0.588239397" transform="translate(206.000000, 403.000000)">
                <rect id="Rectangle" fill="#9A9A9A" x="5" y="13" width="106" height="4" rx="1"></rect>
                <rect id="Rectangle" fill="#9A9A9A" x="5" y="0" width="143" height="4" rx="1"></rect>
                <ellipse id="Oval" fill="#D8D8D8" cx="2.5" cy="20" rx="2.5" ry="3"></ellipse>
            </g>
            <g id="Group-4" opacity="0.588239397" transform="translate(203.000000, 472.000000)">
                <rect id="Rectangle" fill="#9A9A9A" x="5" y="13" width="106" height="4" rx="1"></rect>
                <rect id="Rectangle" fill="#9A9A9A" x="5" y="0" width="119" height="4" rx="1"></rect>
                <ellipse id="Oval" fill="#D8D8D8" cx="2.5" cy="20" rx="2.5" ry="3"></ellipse>
            </g>
        </g>
    </g>
</svg>