<svg height="40" viewBox="0 0 235 40" width="235" xmlns="http://www.w3.org/2000/svg"><g fill="#fff"><path d="m41.4436554 4.44221402c.9313182 0 1.6298068-.70140222 1.6298068-1.63660517 0-.93520294-.6984886-1.63660516-1.6298068-1.63660516-.9313178 0-1.6298064.70140222-1.6298064 1.63660516 0 .93520295.6984886 1.63660517 1.6298064 1.63660517zm21.6531461-4.44221402v12.1576384h-.116415c-2.0954657-3.03940961-4.7730053-4.32531366-7.7997888-4.32531366-6.984886 0-11.0594027 5.02671586-11.0594027 11.92383766 0 6.7802214 4.3073464 11.9238376 11.0594027 11.9238376 6.9848856 0 11.0594023-5.0267159 11.0594023-11.9238376v-19.63926203zm-7.9162038 28.4067897c-5.0058349 0-7.9162042-3.6239115-7.9162042-8.6506273 0-5.0267159 2.6775396-8.6506273 7.9162042-8.6506273 4.307346 0 7.9162038 3.6239114 7.9162038 8.6506273 0 5.0267158-2.7939543 8.6506273-7.9162038 8.6506273zm-15.3667487 3.1563099h3.1431985v-23.73077486h-3.1431985zm-4.3073464 0h3.1431986v-31.5630996h-3.1431986zm-12.1071353-23.73077486c-6.7520562 0-11.0594025 5.02671586-11.0594025 11.92383766v.2338007c-1.1641476-.7014022-2.56112474-1.1690037-4.07451665-1.7535055-3.60885765-1.1690037-4.77300527-2.1042067-4.77300527-4.091513 0-2.6887084 2.44471002-3.8577121 4.77300527-3.8577121 1.62980669 0 3.25961335.5845018 4.07451665 2.1042066l2.2118805-1.8704059c-1.6298067-1.98730628-3.7252724-2.68870846-6.28639715-2.68870846-3.95810193 0-7.68337434 2.22110696-7.68337434 6.54642066 0 3.7408118 2.44471002 5.1436162 5.58790863 6.1957195 3.95810196 1.2859041 5.82073816 1.870406 5.82073816 4.5591145 0 2.5718081-2.56112482 3.9746125-4.88942007 3.9746125-1.97905097 0-3.84168717-.8183026-4.77300527-2.5718081l-2.32829526 1.8704059c1.62980668 2.3380073 4.423761 3.1563099 6.98488578 3.1563099 3.25961332 0 6.40281192-1.4028044 7.45054482-4.2084132 1.979051 2.5718081 5.0058348 4.2084132 8.9639367 4.2084132 6.9848858 0 11.0594025-5.0267158 11.0594025-11.9238376 0-6.7802214-4.3073463-11.80693726-11.0594025-11.80693726zm0 20.57446496c-5.2386643 0-7.9162039-3.6239115-7.9162039-8.6506273 0-5.0267159 2.9103691-8.6506273 7.9162039-8.6506273s7.9162039 3.6239114 7.9162039 8.6506273c0 5.0267158-2.6775396 8.6506273-7.9162039 8.6506273z"/><path d="m144 18.9007171c0-6.1572908-3.958304-11.15282864-10.827127-11.26900395-2.910518 0-5.471774 1.0455777-7.450926 2.78820715v-1.85880476h-6.40314v-6.04111554h-3.14336v6.04111554h-5.006091v1.85880476c-1.862731-1.74262945-4.423987-2.78820715-7.567347-2.78820715-3.026938 0-5.5881941 1.0455777-7.4509259 2.78820715v-1.85880476h-6.4031396v-6.04111554h-3.376201v6.04111554h-4.4239874c-1.1642073-.58087649-2.4448353-.6970518-3.8418837-.6970518-3.9583047 0-7.683768 2.20733066-7.683768 6.50581676 0 3.7176095 2.4448353 5.1117131 5.5881947 6.1572908 3.9583048 1.2779283 5.8210362 1.8588048 5.8210362 4.5308367 0 2.5558565-2.561256 3.9499601-4.8896701 3.9499601-1.9791526 0-3.841884-.8132271-4.7732497-2.5558566l-2.3284145 1.8588048c1.5134695 2.2073307 4.3075667 3.1367331 6.8688227 3.1367331 4.0747251 0 7.9166091-2.0911554 7.9166091-6.5058167 0-4.4146614-3.2597802-5.5764144-6.7524019-6.6219921-3.6090425-1.1617529-4.7732497-2.0911553-4.7732497-4.0661354 0-2.6720319 2.4448352-3.7176096 4.7732497-3.7176096 1.6298899 0 3.2597802.5808765 4.0747252 2.0911554l1.0477865-.9294024h3.3762009v13.7086853c0 4.4146613 2.6776768 6.2734661 6.8688227 6.2734661 1.8627314 0 3.4926217-.3485259 5.1225116-1.0455777 1.3970488.6970518 3.1433592 1.0455777 5.0060912 1.0455777 3.026939 0 5.704616-1.2779283 7.800188-4.298486h.116421v3.9499601h3.14336v-11.8498805c0-3.2529083-.931366-6.0411155-2.561256-8.1322709h4.191146v13.7086853c0 4.4146613 2.677676 6.2734661 6.868822 6.2734661 1.862732 0 3.609043-.3485259 5.238933-1.161753 1.513469.6970518 3.25978 1.161753 5.238932 1.161753 3.725463 0 6.985244-1.3941036 9.66292-4.7631873l-2.444835-1.97498c-1.280628 1.97498-3.841884 3.8337848-7.218085 3.8337848-4.423987 0-7.916609-3.6014342-8.265871-8.0160956h18.743736zm-53.4371116 8.4807969c-.6985242-.6970518-1.0477864-1.7426295-1.0477864-3.1367331v-12.8954582h5.5881946c-1.7463106 2.0911554-2.6776764 4.8793626-2.6776764 8.1322709 0 3.485259 1.0477865 6.5058168 3.1433595 8.7131474-.6985246.2323506-1.3970488.2323506-2.2119937.2323506-1.0477865 0-2.095573-.3485259-2.7940976-1.0455776zm12.9227006.813227c-5.2389329 0-7.9166093-3.6014342-7.9166093-8.5969721 0-4.9955378 2.9105179-8.5969721 7.9166093-8.5969721 5.238932 0 7.916609 3.6014343 7.916609 8.5969721 0 4.9955379-3.725463 8.5969721-7.916609 8.5969721zm21.887096 0c-.698525.2323506-1.51347.3485259-2.328415.3485259-1.047786 0-1.979152-.3485259-2.677677-1.1617529-.698524-.6970518-1.047786-1.7426295-1.047786-3.1367331v-12.8954582h5.588194c-1.862731 2.0911554-2.910517 4.8793626-2.910517 8.1322709-.116421 3.485259 1.164207 6.5058168 3.376201 8.7131474zm-.116421-10.3396015c0-3.7176096 3.725463-7.2028686 7.916609-7.2028686 4.540408 0 7.334505 2.9043825 7.334505 7.2028686z"/><path d="m223.511351 7.92c-3.385946 0-6.071351 1.16934307-7.939459 3.040292v-3.040292h-3.152433v13.0966423c0 5.0281752-1.868108 7.8345986-6.655135 7.8345986s-6.655135-2.8064234-6.655135-7.8345986v-13.0966423h-3.152432v6.4313869c-1.751352-3.8588322-5.254054-6.4313869-10.041081-6.4313869-2.451892 0-4.670271.70160584-6.421622 1.98788321l.35027-1.63708027c-.70054-.23386864-1.401081-.23386864-2.335135-.23386864-2.918919 0-6.888648.81854014-8.99027 4.6773723-1.868108-2.92335769-5.020541-4.6773723-9.107027-4.6773723-6.771892 0-11.091892 5.0281752-11.091892 11.9272993 0 6.7821897 4.086486 11.9272992 11.091892 11.9272992 3.035675 0 5.721081-1.2862773 7.822703-4.3265693h.116756v.2338686c0 5.729781-3.969729 9.2378102-8.523243 9.2378102-3.385946 0-5.954594-1.8709489-7.238919-3.8588321l-2.451892 1.9878832c2.685406 3.391095 5.954595 4.7943066 9.690811 4.7943066 6.421622 0 11.558919-4.2096351 11.675676-12.0442336v-9.3547445c0-3.6249635 1.517838-7.249927 6.888649-7.249927h.70054c-1.984865 2.1048175-3.152432 5.1451095-3.152432 8.6531387 0 6.7821897 4.086486 11.9272992 11.091892 11.9272992 5.137297 0 8.64-2.689489 10.157837-6.6652554.817297 4.3265693 3.96973 6.6652554 9.690811 6.6652554 2.802162 0 5.020541-.5846715 6.655135-1.7540145v9.7055472h3.152433v-12.5119706h.116756c2.101622 3.040292 4.787028 4.3265693 7.822703 4.3265693 7.005406 0 11.091892-5.0281752 11.091892-11.9272993-.116757-6.7821897-4.436757-11.8103649-11.208649-11.8103649zm-64.216216 20.580438c-5.254054 0-7.939459-3.6249636-7.939459-8.6531387 0-5.0281752 2.918919-8.6531387 7.939459-8.6531387 5.254054 0 7.93946 3.6249635 7.93946 8.6531387 0 5.0281751-3.61946 8.6531387-7.93946 8.6531387zm26.620541 0c-5.254054 0-7.93946-3.6249636-7.93946-8.6531387 0-5.0281752 2.918919-8.6531387 7.93946-8.6531387 5.02054 0 7.939459 3.6249635 7.939459 8.6531387 0 5.0281751-2.685405 8.6531387-7.939459 8.6531387zm37.595675 0c-4.32 0-7.939459-3.6249636-7.939459-8.6531387 0-5.0281752 2.685405-8.6531387 7.939459-8.6531387 5.020541 0 7.93946 3.6249635 7.93946 8.6531387 0 5.0281751-2.685406 8.6531387-7.93946 8.6531387z"/></g></svg>