<svg height="39" viewBox="0 0 56 39" width="56" xmlns="http://www.w3.org/2000/svg"><path d="m42.5826471.17605488c-7.962227-.04708537-13.1764286 5.83858536-13.3643277 13.84309752-1.1508825-.5650243-2.4426891-.9887926-3.7579833-1.4125609-4.2981933-1.412561-5.6604621-2.5190671-5.6604621-4.99104881.0234873-3.20180488 2.9594118-4.52019512 5.7778991-4.52019512 1.9494538.02354267 3.8519328.77690853 4.9088655 2.51906707l2.6540756-2.28364024c-1.9729411-2.3542683-4.5095797-3.20180489-7.5159664-3.22534757-4.7209663-.02354268-9.1835714 2.54260976-9.2305461 7.74554269-.0234875 4.49665238 2.8654622 6.19172568 6.6704201 7.48657318 4.7914286 1.6244451 7.0462186 2.2130121 7.0227311 5.5560732-.0234874 3.0840914-3.1473109 4.6849939-5.8953361 4.6614512-2.3017647-.0235428-4.580042-1.0594207-5.7074369-3.0134635-.1878993-.3060548-.5167227-.8946219-.6576471-1.3654755.0234873-.1883415.0234873-.3766829.0234873-.5650245 0-5.344189-3.8754201-6.75675-8.05617641-8.0986829-4.29819327-1.4125609-5.66046218-2.51906704-5.66046218-4.99104875.0234874-3.20180488 2.95941177-4.52019512 5.77789916-4.52019512 1.94945383.02354269 3.85193283.77690853 4.90886563 2.51906707l2.6540755-2.28364024c-1.9729412-2.35426829-4.5095798-3.20180488-7.51596634-3.22550808-4.74445378-.02338217-9.20705882 2.54277028-9.25403361 7.7457032-.0234874 4.49665242 2.86546219 6.19172552 6.67042016 7.48657312 4.79142859 1.6244452 7.04621849 2.2130122 7.02273109 5.5560733-.0234873 3.0840914-3.1473109 4.6849938-5.89533613 4.6614512-2.3252521-.0235428-4.60352941-1.0594207-5.73092437-3.0605488l-2.7715126 2.2365548c1.80852941 2.7309512 5.1672269 3.7668293 8.29105042 3.7903719 3.10033618.0235428 6.08323538-.96525 7.86827728-3.0840914 1.8789917 2.2600976 4.9323529 3.1547195 7.8213026 3.1782623 3.5465966.0235426 6.9757562-1.2948476 8.5728991-4.0964269 2.25479 2.6132377 5.59 4.1905976 9.8647059 4.2141403 3.5700841.0235426 6.8818067-1.5302745 9.3949579-5.1558476h.1174371v.3295976c-.0939497 6.9215487-4.8618908 10.9944328-10.2170168 10.9473474-4.039832-.0235426-7.1401681-2.3071829-8.6433614-4.7320791l-2.9594117 2.4248962c3.1473109 4.0728842 7.1166806 5.7679574 11.5792856 5.7918286 7.609916.0467569 13.8810504-4.9678346 14.0454622-14.2907371l.0705482-9.4641586c.0234014-8.14576819-4.7680272-14.26686576-13.2234893-14.31395112zm9.3950865 14.29040852c-.0471033 6.0740123-4.3922714 10.3823232-9.5360109 10.3588766-6.2946218-.0471814-9.4419328-4.4025778-9.394958-10.47659.0469748-6.07401219 3.5465967-10.40586586 9.5358824-10.35878048 6.2241597.04708536 9.4184453 4.4024817 9.3950865 10.47649388z" fill="#fff" transform="translate(.02 .2)"/></svg>