<svg height="495" viewBox="0 0 648 495" width="648" xmlns="http://www.w3.org/2000/svg" xmlns:xlink="http://www.w3.org/1999/xlink"><radialGradient id="a" cx="50%" cy="53.844976%" gradientTransform="matrix(-.763758 0 0 -1 .881879 1.0769)" r="63.768761%"><stop offset="0" stop-color="#476581"/><stop offset="1" stop-color="#22354a"/></radialGradient><linearGradient id="b" x1="50%" x2="50%" y1="0%" y2="100%"><stop offset="0" stop-color="#fd87ab"/><stop offset=".506492821" stop-color="#fc789d" stop-opacity=".9"/><stop offset="1" stop-color="#f94f73" stop-opacity="0"/></linearGradient><linearGradient id="c" x1="100%" x2="0%" y1="50%" y2="50%"><stop offset="0" stop-color="#56f3ed"/><stop offset=".659707559" stop-color="#41ebe2" stop-opacity=".7"/><stop offset="1" stop-color="#2be3d6" stop-opacity="0"/></linearGradient><g fill="none" fill-rule="evenodd"><path d="m0 0h648.15v495.03h-648.15z" fill="url(#a)"/><g stroke-linecap="square" stroke-linejoin="round"><g stroke="#314c6a" stroke-width="7.047" transform="translate(66.506062)"><path d="m125.524687 493.29v-80.159625h133.893v-146.22525h280.11825v-228.146625h-443.0801245l-96.015375 96.015375v259.858125 36.99675l61.66125 61.66125z"/><path d="m299.057062 493.29 55.054688-55.054688v-271.3095h109.2285v103.062375l75.75525 75.75525v147.546563"/><path d="m75.75525 493.29v-128.60775l149.74875-149.74875h29.94975l61.66125-61.220813h262.50075"/><path d="m579.61575 431.62875h-80.159625l-200.399063-200.399062v-164.283188h-73.553062l-75.75525 75.75525h-73.9935l-75.75525-75.75525v-66.9465"/></g><path d="m626.4 78.3h-289.71l-88.74 88.74.016312 63.74925 84.564001 84.564h64.744312l49.329 49.329v128.60775" stroke="#22354a" stroke-width="7.927875"/><path d="m0 285.4035 79.7191875-79.719187h104.3836875l25.104938 25.104937h38.7585l103.062375-102.621937h109.668937l14.534438-14.094h97.336687l114.073313-114.073313" stroke="#22354a" stroke-width="7.927875"/></g><path d="m446.603625 427.224375c1.945975 0 3.5235 1.577525 3.5235 3.5235v37.877625h-7.047v-37.877625c0-1.945975 1.577525-3.5235 3.5235-3.5235z" fill="url(#b)"/><path d="m135.65475 201.720375h37.437188c2.189222 0 3.963937 1.774715 3.963937 3.963938 0 2.189222-1.774715 3.963937-3.963937 3.963937h-37.437188z" fill="url(#c)"/></g></svg>