<svg height="495" viewBox="0 0 648 495" width="648" xmlns="http://www.w3.org/2000/svg" xmlns:xlink="http://www.w3.org/1999/xlink"><defs><radialGradient id="a" cx="50%" cy="53.844976%" gradientTransform="matrix(-.763758 0 0 -1 .881879 1.0769)" r="63.768761%"><stop offset="0" stop-color="#476581"/><stop offset="1" stop-color="#22354a"/></radialGradient><path id="b" d="m0 0h98.2125v41h-98.2125z"/><filter id="c" height="302.4%" width="184.5%" x="-42.3%" y="-89%"><feOffset dx="0" dy="5" in="SourceAlpha" result="shadowOffsetOuter1"/><feGaussianBlur in="shadowOffsetOuter1" result="shadowBlurOuter1" stdDeviation="13"/><feColorMatrix in="shadowBlurOuter1" type="matrix" values="0 0 0 0 0.133333333   0 0 0 0 0.207843137   0 0 0 0 0.290196078  0 0 0 1 0"/></filter><linearGradient id="d" x1="50%" x2="95.625558%" y1="60.184005%" y2="60.184005%"><stop offset="0" stop-color="#df6d8f"/><stop offset="1" stop-color="#bb3b56"/></linearGradient><circle id="e" cx="121.45625" cy="22.50625" r="8"/><filter id="f" height="631.2%" width="631.2%" x="-265.6%" y="-234.4%"><feMorphology in="SourceAlpha" operator="dilate" radius="1" result="shadowSpreadOuter1"/><feOffset dx="0" dy="5" in="shadowSpreadOuter1" result="shadowOffsetOuter1"/><feGaussianBlur in="shadowOffsetOuter1" result="shadowBlurOuter1" stdDeviation="13"/><feComposite in="shadowBlurOuter1" in2="SourceAlpha" operator="out" result="shadowBlurOuter1"/><feColorMatrix in="shadowBlurOuter1" type="matrix" values="0 0 0 0 0.976470588   0 0 0 0 0.309803922   0 0 0 0 0.450980392  0 0 0 1 0"/></filter><path id="g" d="m0 0h98.2125v41h-98.2125z"/><filter id="h" height="302.4%" width="184.5%" x="-42.3%" y="-89%"><feOffset dx="0" dy="5" in="SourceAlpha" result="shadowOffsetOuter1"/><feGaussianBlur in="shadowOffsetOuter1" result="shadowBlurOuter1" stdDeviation="13"/><feColorMatrix in="shadowBlurOuter1" type="matrix" values="0 0 0 0 0.133333333   0 0 0 0 0.207843137   0 0 0 0 0.290196078  0 0 0 1 0"/></filter><linearGradient id="i" x1="50%" x2="95.625558%" y1="60.184005%" y2="60.184005%"><stop offset="0" stop-color="#2ca69d"/><stop offset="1" stop-color="#1f7e77"/></linearGradient><circle id="j" cx="138.45625" cy="22.50625" r="8"/><filter id="k" height="631.2%" width="631.2%" x="-265.6%" y="-234.4%"><feMorphology in="SourceAlpha" operator="dilate" radius="1" result="shadowSpreadOuter1"/><feOffset dx="0" dy="5" in="shadowSpreadOuter1" result="shadowOffsetOuter1"/><feGaussianBlur in="shadowOffsetOuter1" result="shadowBlurOuter1" stdDeviation="13"/><feComposite in="shadowBlurOuter1" in2="SourceAlpha" operator="out" result="shadowBlurOuter1"/><feColorMatrix in="shadowBlurOuter1" type="matrix" values="0 0 0 0 0.168627451   0 0 0 0 0.890196078   0 0 0 0 0.839215686  0 0 0 1 0"/></filter></defs><g fill="none" fill-rule="evenodd" transform="translate(-19)"><path d="m19 0h648.15v495.03h-648.15z" fill="url(#a)"/><g stroke="#314c6a" stroke-linecap="square" stroke-linejoin="round" stroke-width="7.047" transform="translate(85.506063)"><path d="m125.524687 493.29v-80.159625h133.893v-146.22525h280.11825v-228.146625h-443.0801245l-96.015375 96.015375v259.858125 36.99675l61.66125 61.66125z"/><path d="m299.057062 493.29 55.054688-55.054688v-271.3095h109.2285v103.062375l75.75525 75.75525v147.546563"/><path d="m75.75525 493.29v-128.60775l149.74875-149.74875h29.94975l61.66125-61.220813h262.50075"/><path d="m579.61575 431.62875h-80.159625l-200.399063-200.399062v-164.283188h-73.553062l-75.75525 75.75525h-73.9935l-75.75525-75.75525v-66.9465"/></g><path d="m0 390.4035 72.396857-72.396857c4.6884095-4.688409 11.0472573-7.322331 17.6776696-7.322331h83.6730094c6.630412 0 12.98926 2.633922 17.677669 7.322331l10.460277 10.460277c4.688409 4.688409 11.047257 7.32233 17.67767 7.32233h18.079167c6.611863 0 12.954481-2.619246 17.639775-7.284517l88.430812-88.052903c4.685294-4.665272 11.027912-7.284518 17.639775-7.284518h89.222065c6.492188 0 12.729353-2.52749 17.390098-7.047 4.660744-4.519509 10.897909-7.047 17.390097-7.047h76.85847c6.630412 0 12.98926-2.633921 17.677669-7.32233l106.750983-106.750982" stroke="#22354a" stroke-linecap="square" stroke-linejoin="round" stroke-width="7.927875" transform="matrix(-1 0 0 1 686.642062 0)"/><g transform="translate(468 226)"><use fill="#000" filter="url(#c)" xlink:href="#b"/><use fill="#22354a" fill-rule="evenodd" xlink:href="#b"/><text fill="#e9e9e9" font-family="Raleway-Regular, Raleway" font-size="16.2"><tspan x="4.05625" y="17">Feature</tspan></text><text fill="#a1aeb7" font-family="Raleway-Regular, Raleway" font-size="11.175"><tspan x="4.55625" y="32.2375">Disabled</tspan></text><rect fill="#22354a" height="17" rx="8.5" stroke="url(#d)" stroke-width="2" width="33" x="113" y="14"/><use fill="#000" filter="url(#f)" xlink:href="#e"/><use fill="#22354a" fill-rule="evenodd" stroke="#f94f73" stroke-width="2" xlink:href="#e"/></g><g transform="translate(128 137)"><use fill="#000" filter="url(#h)" xlink:href="#g"/><use fill="#22354a" fill-rule="evenodd" xlink:href="#g"/><text fill="#e9e9e9" font-family="Raleway-Regular, Raleway" font-size="16.2"><tspan x="4.05625" y="17">Feature</tspan></text><text fill="#a1aeb7" font-family="Raleway-Regular, Raleway" font-size="11.175"><tspan x="4.55625" y="32.2375">Enabled</tspan></text><rect fill="#22354a" height="17" rx="8.5" stroke="url(#i)" stroke-width="2" width="33" x="113" y="14"/><use fill="#000" filter="url(#k)" xlink:href="#j"/><use fill="#22354a" fill-rule="evenodd" stroke="#2be3d6" stroke-width="2" xlink:href="#j"/></g></g></svg>