<?xml version="1.0" encoding="UTF-8"?>
<svg width="40px" height="73px" viewBox="0 0 40 73" version="1.1" xmlns="http://www.w3.org/2000/svg" xmlns:xlink="http://www.w3.org/1999/xlink">
    <!-- Generator: Sketch 50.2 (55047) - http://www.bohemiancoding.com/sketch -->
    <title>Java-225x94-white</title>
    <desc>Created with Sketch.</desc>
    <defs></defs>
    <g id="Page-1" stroke="none" stroke-width="1" fill="none" fill-rule="evenodd">
        <g id="Artboard" transform="translate(-9.000000, -2.000000)" fill="#FFFFFF">
            <g id="Java-225x94-white" transform="translate(9.000000, 1.000000)">
                <g id="Group" transform="translate(20.192405, 37.452337) scale(-1, 1) rotate(-180.000000) translate(-20.192405, -37.452337) translate(0.192405, 0.952337)">
                    <path d="M24.75,72.6864261 C25.8971519,71.3919931 26.2759494,69.5403393 25.946519,67.8705584 C25.5917722,65.995073 24.5417722,64.3372079 23.3085443,62.9091924 C22.3196203,61.7596306 21.1835443,60.7433376 19.9993671,59.7994802 C18.6193038,58.6982088 17.2636076,57.5125859 16.3968354,55.9635309 C15.6639241,54.7051589 15.493038,53.1564175 15.9936709,51.7889218 C16.8117089,49.4415077 18.7170886,47.6989777 19.7550633,45.4845189 C18.606962,46.488896 17.4835443,47.5296478 16.4332278,48.6306057 C15.3341772,49.7923969 14.2962025,51.0266237 13.6123418,52.4787844 C13.1484177,53.4953909 12.9408228,54.6810137 13.2949367,55.7578265 C13.6490506,56.8590979 14.4427215,57.7424356 15.2367089,58.5652534 C17.4468354,60.755567 20.1699367,62.3648282 22.3313291,64.5912027 C23.5287975,65.8135137 24.5177215,67.2775902 24.8594937,68.9596005 C25.1405063,70.1938273 25.0060127,71.4644287 24.75,72.6864261" id="Shape"></path>
                    <path d="M24.75,72.6864261 C25.8971519,71.3919931 26.2759494,69.5403393 25.946519,67.8705584 C25.5917722,65.995073 24.5417722,64.3372079 23.3085443,62.9091924 C22.3196203,61.7596306 21.1835443,60.7433376 19.9993671,59.7994802 C18.6193038,58.6982088 17.2636076,57.5125859 16.3968354,55.9635309 C15.6639241,54.7051589 15.493038,53.1564175 15.9936709,51.7889218 C16.8117089,49.4415077 18.7170886,47.6989777 19.7550633,45.4845189 C18.606962,46.488896 17.4835443,47.5296478 16.4332278,48.6306057 C15.3341772,49.7923969 14.2962025,51.0266237 13.6123418,52.4787844 C13.1484177,53.4953909 12.9408228,54.6810137 13.2949367,55.7578265 C13.6490506,56.8590979 14.4427215,57.7424356 15.2367089,58.5652534 C17.4468354,60.755567 20.1699367,62.3648282 22.3313291,64.5912027 C23.5287975,65.8135137 24.5177215,67.2775902 24.8594937,68.9596005 C25.1405063,70.1938273 25.0060127,71.4644287 24.75,72.6864261 Z" id="Shape"></path>
                    <path d="M22.943038,58.904854 C25.3120253,60.6354682 28.0841772,61.7364261 30.8927215,62.5350988 C28.6708861,61.1315421 26.3506329,59.8490249 24.4332278,58.0459751 C23.7367089,57.3805713 23.0778481,56.6179596 22.7724684,55.6863316 C22.5401899,54.9964691 22.6376582,54.234171 22.9189873,53.580683 C23.431962,52.4192053 24.2984177,51.4753479 24.9579114,50.410451 C25.5199367,49.5029682 25.6174051,48.341177 25.1905063,47.360945 C24.5427215,45.9210137 23.2731013,44.8683462 21.9541139,44.0336125 C21.7829114,43.9367182 21.6363924,43.7551589 21.4287975,43.7310137 C22.3082278,44.517457 22.9917722,45.6306443 22.9677215,46.8288101 C22.943038,47.7240636 22.4424051,48.5105069 21.8563291,49.152079 C20.6474684,50.5797809 19.6338608,52.3950601 19.8414557,54.3188359 C20.0490506,56.2429253 21.4411392,57.7916667 22.943038,58.904854" id="Shape"></path>
                    <path d="M22.943038,58.904854 C25.3120253,60.6354682 28.0841772,61.7364261 30.8927215,62.5350988 C28.6708861,61.1315421 26.3506329,59.8490249 24.4332278,58.0459751 C23.7367089,57.3805713 23.0778481,56.6179596 22.7724684,55.6863316 C22.5401899,54.9964691 22.6376582,54.234171 22.9189873,53.580683 C23.431962,52.4192053 24.2984177,51.4753479 24.9579114,50.410451 C25.5199367,49.5029682 25.6174051,48.341177 25.1905063,47.360945 C24.5427215,45.9210137 23.2731013,44.8683462 21.9541139,44.0336125 C21.7829114,43.9367182 21.6363924,43.7551589 21.4287975,43.7310137 C22.3082278,44.517457 22.9917722,45.6306443 22.9677215,46.8288101 C22.943038,47.7240636 22.4424051,48.5105069 21.8563291,49.152079 C20.6474684,50.5797809 19.6338608,52.3950601 19.8414557,54.3188359 C20.0490506,56.2429253 21.4411392,57.7916667 22.943038,58.904854 Z" id="Shape"></path>
                    <path d="M31.3449367,44.916323 C31.8572785,45.5334364 32.6756329,45.6908505 33.4202532,45.7877448 C34.7151899,45.9570747 36.0949367,45.6303308 37.0718354,44.7469931 C37.8778481,44.033299 38.3297468,42.9197981 38.1585443,41.8429854 C37.9756329,40.5965292 37.1325949,39.5557775 36.1806962,38.7693342 C34.4588608,37.4021521 32.3338608,36.6034794 30.2088608,36.0710309 C30.3313291,36.2042998 30.4655063,36.3250258 30.6240506,36.4219201 C32.2360759,37.2811125 33.8357595,38.2851761 35.0205696,39.6890464 C35.7405063,40.5601546 36.3025316,41.6978007 36.0705696,42.8473625 C35.8265823,44.1781701 34.5199367,45.1464863 33.1886076,45.2189218 C32.5531646,45.2794416 31.9553797,45.0373625 31.3449367,44.916323" id="Shape"></path>
                    <path d="M31.3449367,44.916323 C31.8572785,45.5334364 32.6756329,45.6908505 33.4202532,45.7877448 C34.7151899,45.9570747 36.0949367,45.6303308 37.0718354,44.7469931 C37.8778481,44.033299 38.3297468,42.9197981 38.1585443,41.8429854 C37.9756329,40.5965292 37.1325949,39.5557775 36.1806962,38.7693342 C34.4588608,37.4021521 32.3338608,36.6034794 30.2088608,36.0710309 C30.3313291,36.2042998 30.4655063,36.3250258 30.6240506,36.4219201 C32.2360759,37.2811125 33.8357595,38.2851761 35.0205696,39.6890464 C35.7405063,40.5601546 36.3025316,41.6978007 36.0705696,42.8473625 C35.8265823,44.1781701 34.5199367,45.1464863 33.1886076,45.2189218 C32.5531646,45.2794416 31.9553797,45.0373625 31.3449367,44.916323 Z" id="Shape"></path>
                    <path d="M6.79746835,43.8156787 C9.0443038,44.7714519 11.4867089,45.3885653 13.9411392,45.3525043 C12.5123418,44.9410954 11.0471519,44.5902062 9.70379747,43.9608634 C9.38639241,43.7915335 9.01993671,43.6341194 8.83670886,43.3073754 C8.73924051,43.0533806 9.00759494,42.8840507 9.2028481,42.7993857 C10.0332278,42.4604124 10.9493671,42.4118084 11.8408228,42.3271435 C14.9667722,42.121439 18.1053797,42.2424785 21.2199367,42.4362672 C24.296519,42.6297423 27.35,43.0411512 30.3901899,43.5253093 C29.7189873,43.2104811 29.0348101,42.8959665 28.4123418,42.4967869 C28.0946203,42.2788531 27.7041139,42.2183333 27.35,42.1336684 C23.6129747,41.3108505 19.7781646,41.0565421 15.9683544,40.9963359 C14.4905063,40.9841065 13.0256329,41.0082517 11.5601266,41.105146 C9.92373418,41.2139562 8.275,41.3349957 6.67531646,41.758634 C6.21107595,41.8915893 5.72278481,42.0367741 5.35632911,42.363518 C5.17310127,42.5087027 5.17310127,42.7993857 5.33196203,42.9684021 C5.73481013,43.3801246 6.29683544,43.5735997 6.79746835,43.8156787" id="Shape"></path>
                    <path d="M6.79746835,43.8156787 C9.0443038,44.7714519 11.4867089,45.3885653 13.9411392,45.3525043 C12.5123418,44.9410954 11.0471519,44.5902062 9.70379747,43.9608634 C9.38639241,43.7915335 9.01993671,43.6341194 8.83670886,43.3073754 C8.73924051,43.0533806 9.00759494,42.8840507 9.2028481,42.7993857 C10.0332278,42.4604124 10.9493671,42.4118084 11.8408228,42.3271435 C14.9667722,42.121439 18.1053797,42.2424785 21.2199367,42.4362672 C24.296519,42.6297423 27.35,43.0411512 30.3901899,43.5253093 C29.7189873,43.2104811 29.0348101,42.8959665 28.4123418,42.4967869 C28.0946203,42.2788531 27.7041139,42.2183333 27.35,42.1336684 C23.6129747,41.3108505 19.7781646,41.0565421 15.9683544,40.9963359 C14.4905063,40.9841065 13.0256329,41.0082517 11.5601266,41.105146 C9.92373418,41.2139562 8.275,41.3349957 6.67531646,41.758634 C6.21107595,41.8915893 5.72278481,42.0367741 5.35632911,42.363518 C5.17310127,42.5087027 5.17310127,42.7993857 5.33196203,42.9684021 C5.73481013,43.3801246 6.29683544,43.5735997 6.79746835,43.8156787 Z" id="Shape"></path>
                    <path d="M9.68037975,38.6479811 C10.3155063,39.144055 11.0727848,39.4225086 11.8297468,39.6887328 C11.5857595,39.3983634 11.2436709,39.1199098 11.2193038,38.7207302 C11.2072785,38.4667354 11.4148734,38.2729467 11.6221519,38.1519072 C12.025,37.9462027 12.4768987,37.8734536 12.9291139,37.8132474 C15.2734177,37.5711684 17.6424051,37.4378995 20.0117089,37.5953136 C22.1727848,37.7041237 24.3224684,38.0553265 26.4598101,38.4303608 C27.0458861,37.885683 27.7417722,37.5106486 28.4746835,37.1839046 C25.8974684,36.4338359 23.2477848,35.9979682 20.5857595,35.7922637 C18.0702532,35.6229338 15.518038,35.6348497 13.0142405,36.0346564 C12.025,36.2159021 11.0117089,36.4216065 10.1082278,36.8813058 C9.74177215,37.0750945 9.32658228,37.3290893 9.2164557,37.7527277 C9.14335443,38.1155326 9.41202532,38.4422766 9.68037975,38.6479811" id="Shape"></path>
                    <path d="M9.68037975,38.6479811 C10.3155063,39.144055 11.0727848,39.4225086 11.8297468,39.6887328 C11.5857595,39.3983634 11.2436709,39.1199098 11.2193038,38.7207302 C11.2072785,38.4667354 11.4148734,38.2729467 11.6221519,38.1519072 C12.025,37.9462027 12.4768987,37.8734536 12.9291139,37.8132474 C15.2734177,37.5711684 17.6424051,37.4378995 20.0117089,37.5953136 C22.1727848,37.7041237 24.3224684,38.0553265 26.4598101,38.4303608 C27.0458861,37.885683 27.7417722,37.5106486 28.4746835,37.1839046 C25.8974684,36.4338359 23.2477848,35.9979682 20.5857595,35.7922637 C18.0702532,35.6229338 15.518038,35.6348497 13.0142405,36.0346564 C12.025,36.2159021 11.0117089,36.4216065 10.1082278,36.8813058 C9.74177215,37.0750945 9.32658228,37.3290893 9.2164557,37.7527277 C9.14335443,38.1155326 9.41202532,38.4422766 9.68037975,38.6479811 Z" id="Shape"></path>
                    <path d="M11.0981013,33.3736684 C11.6598101,33.8214519 12.3556962,34.0516151 13.0398734,34.2450902 C12.8199367,34.0396993 12.4291139,33.7853909 12.6003165,33.4345017 C12.9300633,33.0105498 13.5405063,32.9622595 14.0291139,32.8531357 C16.0927215,32.5994545 18.1810127,32.4301246 20.2449367,32.5875387 C21.8079114,32.6841194 23.3462025,32.9622595 24.8731013,33.2287973 C25.7518987,32.7201804 26.668038,32.2849399 27.6079114,31.8973625 C26.1674051,31.2564175 24.6164557,30.8450086 23.0658228,30.5543256 C20.4525316,30.0946263 17.753481,30.0341065 15.1278481,30.4455155 C13.9677215,30.6512199 12.7832278,30.9171306 11.7332278,31.4862672 C11.3300633,31.7158033 10.9028481,31.9823411 10.731962,32.4301246 C10.5974684,32.7810137 10.8170886,33.1557345 11.0981013,33.3736684" id="Shape"></path>
                    <path d="M11.0981013,33.3736684 C11.6598101,33.8214519 12.3556962,34.0516151 13.0398734,34.2450902 C12.8199367,34.0396993 12.4291139,33.7853909 12.6003165,33.4345017 C12.9300633,33.0105498 13.5405063,32.9622595 14.0291139,32.8531357 C16.0927215,32.5994545 18.1810127,32.4301246 20.2449367,32.5875387 C21.8079114,32.6841194 23.3462025,32.9622595 24.8731013,33.2287973 C25.7518987,32.7201804 26.668038,32.2849399 27.6079114,31.8973625 C26.1674051,31.2564175 24.6164557,30.8450086 23.0658228,30.5543256 C20.4525316,30.0946263 17.753481,30.0341065 15.1278481,30.4455155 C13.9677215,30.6512199 12.7832278,30.9171306 11.7332278,31.4862672 C11.3300633,31.7158033 10.9028481,31.9823411 10.731962,32.4301246 C10.5974684,32.7810137 10.8170886,33.1557345 11.0981013,33.3736684 Z" id="Shape"></path>
                    <path d="M4.31962025,29.9494416 C5.44335443,30.3244759 6.60348101,30.6270747 7.78797468,30.6631357 C8.26424051,30.6753651 8.75253165,30.6512199 9.16772152,30.4091409 C7.75126582,30.3244759 6.33449367,29.9735868 5.06455696,29.3323282 C4.78386076,29.1749141 4.46613924,28.9933548 4.35632911,28.6666108 C4.35632911,28.2915765 4.78386076,28.1705369 5.06455696,28.049811 C6.83544304,27.396323 8.72816456,27.1906186 10.5844937,26.9968299 C16.1161392,26.5371306 21.6844937,26.6578565 27.2164557,27.154244 C29.3047468,27.3840936 31.4050633,27.6139433 33.4322785,28.1827663 C34.0794304,28.4007002 34.8120253,28.6180069 35.239557,29.1871435 C35.4962025,29.5258033 35.3256329,29.9494416 35.0689873,30.239811 C35.4838608,30.0096478 36.0702532,29.7192784 35.9851266,29.1626847 C35.8262658,28.5819459 35.2272152,28.2793471 34.7389241,28.001207 C33.1759494,27.2144502 31.4541139,26.814957 29.7443038,26.4643814 C24.7743671,25.4963789 19.681962,25.278445 14.6262658,25.4236297 C10.8161392,25.5572122 7.00632911,25.9200172 3.24493671,26.5609622 C2.57341772,26.7183763 1.8164557,26.8519588 1.3278481,27.3718643 C1.01044304,27.7349828 1.29113924,28.2432861 1.59620253,28.5091967 C2.36582278,29.2109751 3.35506329,29.5982388 4.31962025,29.9494416" id="Shape"></path>
                    <path d="M4.31962025,29.9494416 C5.44335443,30.3244759 6.60348101,30.6270747 7.78797468,30.6631357 C8.26424051,30.6753651 8.75253165,30.6512199 9.16772152,30.4091409 C7.75126582,30.3244759 6.33449367,29.9735868 5.06455696,29.3323282 C4.78386076,29.1749141 4.46613924,28.9933548 4.35632911,28.6666108 C4.35632911,28.2915765 4.78386076,28.1705369 5.06455696,28.049811 C6.83544304,27.396323 8.72816456,27.1906186 10.5844937,26.9968299 C16.1161392,26.5371306 21.6844937,26.6578565 27.2164557,27.154244 C29.3047468,27.3840936 31.4050633,27.6139433 33.4322785,28.1827663 C34.0794304,28.4007002 34.8120253,28.6180069 35.239557,29.1871435 C35.4962025,29.5258033 35.3256329,29.9494416 35.0689873,30.239811 C35.4838608,30.0096478 36.0702532,29.7192784 35.9851266,29.1626847 C35.8262658,28.5819459 35.2272152,28.2793471 34.7389241,28.001207 C33.1759494,27.2144502 31.4541139,26.814957 29.7443038,26.4643814 C24.7743671,25.4963789 19.681962,25.278445 14.6262658,25.4236297 C10.8161392,25.5572122 7.00632911,25.9200172 3.24493671,26.5609622 C2.57341772,26.7183763 1.8164557,26.8519588 1.3278481,27.3718643 C1.01044304,27.7349828 1.29113924,28.2432861 1.59620253,28.5091967 C2.36582278,29.2109751 3.35506329,29.5982388 4.31962025,29.9494416 Z" id="Shape"></path>
                    <path d="M34.7531646,25.8102663 C35.9870253,26.2339046 37.3053797,26.6816881 38.2212025,27.6496907 C38.0623418,26.5970232 37.146519,25.8707861 36.2427215,25.399171 C34.5091772,24.5032904 32.5670886,24.092195 30.6382911,23.7535352 C26.5588608,23.1119631 22.4196203,22.9548625 18.2794304,23.0269845 C15.4585443,23.1119631 12.6132911,23.2207732 9.84113924,23.8018256 C9.18164557,23.9830713 8.47341772,24.1044244 7.89968354,24.4913746 C10.3661392,24.0799656 12.8699367,23.9103222 15.3734177,23.8137414 C19.4886076,23.6927019 23.6161392,23.8498024 27.7072785,24.3584192 C30.0762658,24.6848497 32.4572785,25.0843428 34.7531646,25.8102663" id="Shape"></path>
                    <path d="M34.7531646,25.8102663 C35.9870253,26.2339046 37.3053797,26.6816881 38.2212025,27.6496907 C38.0623418,26.5970232 37.146519,25.8707861 36.2427215,25.399171 C34.5091772,24.5032904 32.5670886,24.092195 30.6382911,23.7535352 C26.5588608,23.1119631 22.4196203,22.9548625 18.2794304,23.0269845 C15.4585443,23.1119631 12.6132911,23.2207732 9.84113924,23.8018256 C9.18164557,23.9830713 8.47341772,24.1044244 7.89968354,24.4913746 C10.3661392,24.0799656 12.8699367,23.9103222 15.3734177,23.8137414 C19.4886076,23.6927019 23.6161392,23.8498024 27.7072785,24.3584192 C30.0762658,24.6848497 32.4572785,25.0843428 34.7531646,25.8102663 Z" id="Shape"></path>
                    <path d="M2.57278481,7.86443299 C2.58481013,11.8333376 2.56044304,15.8022423 2.58481013,19.7833763 C3.41518987,19.7592311 4.24556962,19.7833763 5.07594937,19.7592311 C5.06392405,15.3180842 5.07594937,10.8653351 5.06392405,6.41227234 C5.03955696,5.16581615 5.01518987,3.85884021 4.40443038,2.74628007 C3.73259494,1.55971649 2.53607595,0.72498282 1.26613924,0.24082474 C0.86297468,0.67669244 0.49683544,1.13670533 0.09367089,1.57194588 C1.11962025,2.16491409 2.14556962,3.01187715 2.38955696,4.23418814 C2.62183544,5.43235395 2.54841772,6.6540378 2.57278481,7.86443299" id="Shape"></path>
                    <path d="M2.57278481,7.86443299 C2.58481013,11.8333376 2.56044304,15.8022423 2.58481013,19.7833763 C3.41518987,19.7592311 4.24556962,19.7833763 5.07594937,19.7592311 C5.06392405,15.3180842 5.07594937,10.8653351 5.06392405,6.41227234 C5.03955696,5.16581615 5.01518987,3.85884021 4.40443038,2.74628007 C3.73259494,1.55971649 2.53607595,0.72498282 1.26613924,0.24082474 C0.86297468,0.67669244 0.49683544,1.13670533 0.09367089,1.57194588 C1.11962025,2.16491409 2.14556962,3.01187715 2.38955696,4.23418814 C2.62183544,5.43235395 2.54841772,6.6540378 2.57278481,7.86443299 Z" id="Shape"></path>
                    <path d="M10.414557,9.38840206 C9.87721519,9.21938574 9.37658228,8.83212199 9.23006329,8.27552835 C9.05917722,7.65841495 9.10791139,6.93249141 9.51075949,6.41195876 C9.90189873,5.9036555 10.6101266,5.78292955 11.2205696,5.85536512 C12.0753165,5.95225945 12.8202532,6.43641753 13.4797468,6.95632302 C13.4797468,7.86411942 13.4674051,8.75937285 13.4797468,9.66716924 C12.4537975,9.66716924 11.4037975,9.72737543 10.414557,9.38840206 Z M7.38607595,15.003256 C9.03449367,15.7053479 10.8664557,16.0684665 12.6613924,15.8749914 C13.589557,15.7658677 14.5544304,15.4265808 15.1525316,14.6884278 C15.6531646,14.0597122 15.8367089,13.2488101 15.8243671,12.4623668 L15.8243671,4.34268471 L13.9803797,4.34268471 C13.9193038,4.74249141 13.8585443,5.1532732 13.8094937,5.5649957 C13.1132911,5.02031787 12.3686709,4.5000988 11.5012658,4.28247852 C10.5120253,4.0281701 9.42563291,4.05231529 8.46075949,4.42766323 C7.71550633,4.72994845 7.12974684,5.39535223 6.9221519,6.16987973 C6.61677215,7.29529639 6.77563291,8.61418814 7.58164557,9.52198454 C8.30189873,10.3567182 9.38892405,10.7681271 10.4632911,10.9619158 C11.4525316,11.1553909 12.4661392,11.1553909 13.4797468,11.1553909 C13.4553797,11.9180026 13.6018987,12.7527363 13.1620253,13.4300558 C12.8079114,13.9505885 12.1607595,14.156293 11.5626582,14.192354 C10.2560127,14.3014777 8.96139241,13.9747337 7.7278481,13.5510954 C7.60601266,14.0349399 7.49588608,14.5190979 7.38607595,15.003256 Z" id="Shape"></path>
                    <path d="M10.414557,9.38840206 C9.87721519,9.21938574 9.37658228,8.83212199 9.23006329,8.27552835 C9.05917722,7.65841495 9.10791139,6.93249141 9.51075949,6.41195876 C9.90189873,5.9036555 10.6101266,5.78292955 11.2205696,5.85536512 C12.0753165,5.95225945 12.8202532,6.43641753 13.4797468,6.95632302 C13.4797468,7.86411942 13.4674051,8.75937285 13.4797468,9.66716924 C12.4537975,9.66716924 11.4037975,9.72737543 10.414557,9.38840206 Z M7.38607595,15.003256 C9.03449367,15.7053479 10.8664557,16.0684665 12.6613924,15.8749914 C13.589557,15.7658677 14.5544304,15.4265808 15.1525316,14.6884278 C15.6531646,14.0597122 15.8367089,13.2488101 15.8243671,12.4623668 L15.8243671,4.34268471 L13.9803797,4.34268471 C13.9193038,4.74249141 13.8585443,5.1532732 13.8094937,5.5649957 C13.1132911,5.02031787 12.3686709,4.5000988 11.5012658,4.28247852 C10.5120253,4.0281701 9.42563291,4.05231529 8.46075949,4.42766323 C7.71550633,4.72994845 7.12974684,5.39535223 6.9221519,6.16987973 C6.61677215,7.29529639 6.77563291,8.61418814 7.58164557,9.52198454 C8.30189873,10.3567182 9.38892405,10.7681271 10.4632911,10.9619158 C11.4525316,11.1553909 12.4661392,11.1553909 13.4797468,11.1553909 C13.4553797,11.9180026 13.6018987,12.7527363 13.1620253,13.4300558 C12.8079114,13.9505885 12.1607595,14.156293 11.5626582,14.192354 C10.2560127,14.3014777 8.96139241,13.9747337 7.7278481,13.5510954 C7.60601266,14.0349399 7.49588608,14.5190979 7.38607595,15.003256 Z" id="Shape"></path>
                    <path d="M31.8449367,9.37899485 C31.331962,9.20966495 30.8553797,8.82271478 30.696519,8.28995275 C30.5259494,7.67315292 30.5746835,6.94660223 30.9655063,6.41446735 C31.3683544,5.89424828 32.0889241,5.78543814 32.7113924,5.85787371 C33.5544304,5.97891323 34.3234177,6.43892612 34.9588608,6.99520619 C34.9341772,7.87854381 34.946519,8.77411082 34.946519,9.66967784 C33.9085443,9.66967784 32.8462025,9.72988402 31.8449367,9.37899485 Z M28.8528481,15.0057646 C30.5136076,15.7078565 32.3455696,16.0825773 34.1528481,15.8775 C35.0563291,15.7683763 35.9848101,15.4413187 36.5825949,14.7395404 C37.1443038,14.0744502 37.3155063,13.1904854 37.3031646,12.3435223 C37.2908228,9.66967784 37.3155063,7.00743557 37.2791139,4.33327749 C36.6683544,4.35710911 36.0575949,4.32104811 35.4471519,4.35710911 C35.3857595,4.76883162 35.3370253,5.16801117 35.2642405,5.5675043 C34.4091772,4.84126718 33.3832278,4.24829897 32.2231013,4.15171821 C31.1607595,4.05482388 29.9639241,4.18777921 29.1332278,4.93847509 C28.2661392,5.73683419 28.1202532,7.03158076 28.3398734,8.13285223 C28.5474684,9.14914519 29.3170886,9.98419244 30.2446203,10.4319759 C31.6977848,11.1337543 33.3591772,11.1701289 34.946519,11.1578995 C34.921519,11.8957388 35.0563291,12.6824957 34.6775316,13.3478995 C34.3844937,13.8806615 33.7613924,14.1227405 33.1756329,14.1829467 C31.8202532,14.3281314 30.4648734,13.9891581 29.1946203,13.553604 C29.0844937,14.0374485 28.9626582,14.5216065 28.8528481,15.0057646 Z" id="Shape"></path>
                    <path d="M31.8449367,9.37899485 C31.331962,9.20966495 30.8553797,8.82271478 30.696519,8.28995275 C30.5259494,7.67315292 30.5746835,6.94660223 30.9655063,6.41446735 C31.3683544,5.89424828 32.0889241,5.78543814 32.7113924,5.85787371 C33.5544304,5.97891323 34.3234177,6.43892612 34.9588608,6.99520619 C34.9341772,7.87854381 34.946519,8.77411082 34.946519,9.66967784 C33.9085443,9.66967784 32.8462025,9.72988402 31.8449367,9.37899485 Z M28.8528481,15.0057646 C30.5136076,15.7078565 32.3455696,16.0825773 34.1528481,15.8775 C35.0563291,15.7683763 35.9848101,15.4413187 36.5825949,14.7395404 C37.1443038,14.0744502 37.3155063,13.1904854 37.3031646,12.3435223 C37.2908228,9.66967784 37.3155063,7.00743557 37.2791139,4.33327749 C36.6683544,4.35710911 36.0575949,4.32104811 35.4471519,4.35710911 C35.3857595,4.76883162 35.3370253,5.16801117 35.2642405,5.5675043 C34.4091772,4.84126718 33.3832278,4.24829897 32.2231013,4.15171821 C31.1607595,4.05482388 29.9639241,4.18777921 29.1332278,4.93847509 C28.2661392,5.73683419 28.1202532,7.03158076 28.3398734,8.13285223 C28.5474684,9.14914519 29.3170886,9.98419244 30.2446203,10.4319759 C31.6977848,11.1337543 33.3591772,11.1701289 34.946519,11.1578995 C34.921519,11.8957388 35.0563291,12.6824957 34.6775316,13.3478995 C34.3844937,13.8806615 33.7613924,14.1227405 33.1756329,14.1829467 C31.8202532,14.3281314 30.4648734,13.9891581 29.1946203,13.553604 C29.0844937,14.0374485 28.9626582,14.5216065 28.8528481,15.0057646 Z" id="Shape"></path>
                    <path d="M17.2151899,15.7320017 L19.7794304,15.7320017 C20.2803797,14.1349699 20.7686709,12.5495404 21.2699367,10.9525086 C21.5623418,9.97259021 21.9287975,9.00427405 22.1363924,7.99989691 C22.246519,7.5521134 22.3439873,7.09210052 22.4781646,6.65654639 C23.5291139,9.59692869 24.3348101,12.6345189 24.7503165,15.7320017 L27.2411392,15.7320017 C26.5205696,11.811701 25.3851266,7.95160653 23.6753165,4.34550687 L20.7446203,4.34550687 C19.5721519,8.14508162 18.3876582,11.932427 17.2151899,15.7320017" id="Shape"></path>
                    <path d="M17.2151899,15.7320017 L19.7794304,15.7320017 C20.2803797,14.1349699 20.7686709,12.5495404 21.2699367,10.9525086 C21.5623418,9.97259021 21.9287975,9.00427405 22.1363924,7.99989691 C22.246519,7.5521134 22.3439873,7.09210052 22.4781646,6.65654639 C23.5291139,9.59692869 24.3348101,12.6345189 24.7503165,15.7320017 L27.2411392,15.7320017 C26.5205696,11.811701 25.3851266,7.95160653 23.6753165,4.34550687 L20.7446203,4.34550687 C19.5721519,8.14508162 18.3876582,11.932427 17.2151899,15.7320017 Z" id="Shape"></path>
                    <polygon id="Shape" points="37.7911392 15.9515034 37.4914557 15.9515034 37.4914557 16.0590593 38.2218354 16.0590593 38.2218354 15.9515034 37.9202532 15.9515034 37.9202532 15.0807088 37.7911392 15.0807088"></polygon>
                    <polygon id="Shape" points="37.7911392 15.9515034 37.4914557 15.9515034 37.4914557 16.0590593 38.2218354 16.0590593 38.2218354 15.9515034 37.9202532 15.9515034 37.9202532 15.0807088 37.7911392 15.0807088"></polygon>
                    <path d="M39.164557,15.5093643 C39.1575949,15.6457689 39.1484177,15.8113359 39.1484177,15.9314347 L39.1458861,15.9314347 C39.1107595,15.8185481 39.0712025,15.695 39.0212025,15.5601632 L38.8468354,15.0854124 L38.7503165,15.0854124 L38.5889241,15.5513832 C38.5427215,15.69061 38.5044304,15.8154124 38.4765823,15.9314347 L38.4734177,15.9314347 C38.4702532,15.809768 38.4629747,15.6470232 38.4544304,15.4990163 L38.428481,15.079768 L38.3066456,15.079768 L38.3753165,16.0581186 L38.5376582,16.0581186 L38.7066456,15.584622 C38.7471519,15.4642096 38.7794304,15.3566538 38.8060127,15.2550558 L38.8091772,15.2550558 C38.8351266,15.3541452 38.8702532,15.4613875 38.9142405,15.584622 L39.0901899,16.0581186 L39.2528481,16.0581186 L39.3139241,15.079768 L39.1879747,15.079768 L39.164557,15.5093643 Z" id="Shape"></path>
                    <path d="M39.164557,15.5093643 C39.1575949,15.6457689 39.1484177,15.8113359 39.1484177,15.9314347 L39.1458861,15.9314347 C39.1107595,15.8185481 39.0712025,15.695 39.0212025,15.5601632 L38.8468354,15.0854124 L38.7503165,15.0854124 L38.5889241,15.5513832 C38.5427215,15.69061 38.5044304,15.8154124 38.4765823,15.9314347 L38.4734177,15.9314347 C38.4702532,15.809768 38.4629747,15.6470232 38.4544304,15.4990163 L38.428481,15.079768 L38.3066456,15.079768 L38.3753165,16.0581186 L38.5376582,16.0581186 L38.7066456,15.584622 C38.7471519,15.4642096 38.7794304,15.3566538 38.8060127,15.2550558 L38.8091772,15.2550558 C38.8351266,15.3541452 38.8702532,15.4613875 38.9142405,15.584622 L39.0901899,16.0581186 L39.2528481,16.0581186 L39.3139241,15.079768 L39.1879747,15.079768 L39.164557,15.5093643 Z" id="Shape"></path>
                </g>
            </g>
        </g>
    </g>
</svg>