<svg width="92" height="38" viewBox="0 0 92 38" fill="none" xmlns="http://www.w3.org/2000/svg">
<path d="M45.5649 11.6319C45.5649 9.35858 44.9167 8.19149 43.6202 8.12758C43.1044 8.10324 42.6007 8.1854 42.1108 8.37561C41.7197 8.5156 41.4565 8.65406 41.318 8.79405V14.2202C42.1473 14.7406 42.8838 14.9825 43.5259 14.9445C44.8847 14.8547 45.5649 13.7515 45.5649 11.6319V11.6319ZM47.1641 11.7262C47.1641 12.8811 46.8932 13.8398 46.3485 14.6021C45.7414 15.4649 44.8999 15.9092 43.8241 15.9335C43.0131 15.9594 42.1777 15.7053 41.318 15.1727V20.1043L39.9272 19.6082V8.66167C40.1555 8.38169 40.4492 8.14128 40.8052 7.93738C41.633 7.45502 42.6388 7.207 43.8226 7.19482L43.8424 7.21461C44.9243 7.20091 45.7581 7.64523 46.3439 8.54603C46.8902 9.37227 47.1641 10.4313 47.1641 11.7262V11.7262Z" fill="white"/>
<path d="M55.6642 14.9627C55.6642 16.5117 55.509 17.5845 55.1985 18.181C54.8866 18.7774 54.2932 19.2537 53.4167 19.6082C52.7061 19.8882 51.9377 20.0404 51.113 20.0662L50.8832 19.1898C51.7216 19.0757 52.312 18.9615 52.6544 18.8474C53.3285 18.6192 53.791 18.2692 54.0452 17.8005C54.2491 17.4186 54.3495 16.6898 54.3495 15.6109V15.2488C53.3985 15.6809 52.4018 15.8955 51.3595 15.8955C50.6748 15.8955 50.0707 15.6809 49.5503 15.2488C48.966 14.7786 48.6738 14.1821 48.6738 13.4594V7.67109L50.0646 7.19482V13.0211C50.0646 13.6435 50.2654 14.1228 50.6672 14.4591C51.0689 14.7953 51.5893 14.9566 52.2268 14.9445C52.8644 14.9308 53.5476 14.6843 54.2734 14.2019V7.40481H55.6642V14.9627Z" fill="white"/>
<path d="M61.093 15.8575C60.9271 15.8712 60.7749 15.8772 60.635 15.8772C59.8483 15.8772 59.2351 15.6901 58.7968 15.3142C58.3601 14.9384 58.141 14.4195 58.141 13.7576V8.27977H57.1885V7.40484H58.141V5.08132L59.5303 4.58679V7.40484H61.093V8.27977H59.5303V13.7196C59.5303 14.2415 59.6702 14.6113 59.9502 14.8273C60.1906 15.0054 60.5726 15.1073 61.093 15.1332V15.8575Z" fill="white"/>
<path d="M69.5138 15.7434H68.123V10.3751C68.123 9.8288 67.9952 9.35862 67.7411 8.96604C67.4474 8.52172 67.0396 8.29956 66.5162 8.29956C65.8786 8.29956 65.0813 8.63585 64.1242 9.3084V15.7434H62.7334V2.9115L64.1242 2.47327V8.31783C65.0128 7.67113 65.9836 7.34703 67.0381 7.34703C67.7745 7.34703 68.371 7.59505 68.8275 8.08958C69.2855 8.58411 69.5138 9.20037 69.5138 9.93683V15.7434Z" fill="white"/>
<path d="M76.9059 11.4128C76.9059 10.5394 76.74 9.81811 76.4098 9.2475C76.0172 8.55212 75.4071 8.1854 74.5824 8.14736C73.0577 8.23562 72.2969 9.32814 72.2969 11.4219C72.2969 12.382 72.4551 13.1839 72.7747 13.8276C73.1825 14.6477 73.7942 15.0525 74.6097 15.0388C76.1405 15.0266 76.9059 13.8185 76.9059 11.4128V11.4128ZM78.429 11.4219C78.429 12.6651 78.111 13.6998 77.4765 14.526C76.7781 15.4512 75.8134 15.9153 74.5824 15.9153C73.362 15.9153 72.411 15.4512 71.7247 14.526C71.1024 13.6998 70.792 12.6651 70.792 11.4219C70.792 10.2533 71.1283 9.27032 71.8008 8.46995C72.5114 7.62088 73.4457 7.19482 74.6006 7.19482C75.7555 7.19482 76.6959 7.62088 77.4202 8.46995C78.0927 9.27032 78.429 10.2533 78.429 11.4219Z" fill="white"/>
<path d="M86.4023 15.7433H85.0115V10.0707C85.0115 9.44835 84.8244 8.96295 84.45 8.61298C84.0757 8.26453 83.5766 8.09563 82.9543 8.10932C82.2939 8.12149 81.6655 8.33757 81.069 8.75601V15.7433H79.6782V8.58407C80.4786 8.00129 81.2151 7.62088 81.8876 7.44285C82.5221 7.27699 83.0821 7.19482 83.5645 7.19482C83.8946 7.19482 84.2051 7.22678 84.4972 7.29069C85.0435 7.41698 85.4878 7.65131 85.8302 7.9952C86.2121 8.37561 86.4023 8.83209 86.4023 9.36618V15.7433Z" fill="white"/>
<path d="M23.6889 3.53916C25.7081 3.87249 27.4078 5.37658 27.4078 7.37378V14.3901C27.4078 16.4479 25.7577 18.1339 23.6889 18.1339H16.2538C13.7305 18.1339 11.6038 20.2853 11.6038 22.7178V26.0841H9.04737C6.88489 26.0841 5.62596 24.5249 5.09705 22.3431C4.38357 19.4121 4.41387 17.6656 5.09705 14.8585C5.68932 12.4095 7.58184 11.1175 9.74433 11.1175H19.9727V10.1809H12.5349V7.37378C12.5349 5.24711 13.1051 4.09011 16.2538 3.53916C18.3915 3.16451 21.1325 3.11768 23.6889 3.53916V3.53916ZM15.7883 5.5033C15.0169 5.5033 14.3944 6.13138 14.3944 6.90823C14.3944 7.68231 15.0169 8.3104 15.7883 8.3104C16.5568 8.3104 17.1822 7.68231 17.1822 6.90823C17.1822 6.13138 16.5568 5.5033 15.7883 5.5033Z" fill="white"/>
<path d="M31.1265 11.1174C33.2918 11.1174 34.311 12.7262 34.8454 14.8584C35.5892 17.8198 35.6223 20.0346 34.8454 22.3431C34.0934 24.5854 33.289 26.084 31.1265 26.084H19.9725V27.0206H27.4076V29.8277C27.4076 31.9544 25.5619 33.0315 23.6887 33.5687C20.8706 34.3786 18.6089 34.2546 16.2536 33.5687C14.2867 32.9957 12.5347 31.8249 12.5347 29.8277V22.8114C12.5347 20.7921 14.2178 19.0677 16.2536 19.0677H23.6887C26.1652 19.0677 28.3387 16.9272 28.3387 14.3901V11.1174H31.1265ZM24.1542 28.8911C23.3857 28.8911 22.7603 29.5192 22.7603 30.2933C22.7603 31.0701 23.3857 31.6982 24.1542 31.6982C24.9256 31.6982 25.5481 31.0701 25.5481 30.2933C25.5481 29.5192 24.9256 28.8911 24.1542 28.8911Z" fill="white"/>
<path d="M45.6499 27.748C45.6331 28.6561 45.4046 29.4055 44.9646 29.9962C44.4731 30.6659 43.8032 31.0029 42.9548 31.0071C42.3159 31.0153 41.6612 30.8035 40.9905 30.3718L40.9187 34.2485L39.8485 33.8394L40.0228 25.2332C40.2064 25.017 40.4394 24.8317 40.7217 24.6772C41.3772 24.31 42.169 24.1301 43.097 24.1373L43.1117 24.1525C43.9599 24.1582 44.6069 24.5196 45.0527 25.2365C45.4697 25.8931 45.6688 26.7303 45.6499 27.748M44.3942 27.6499C44.4273 25.8638 43.9305 24.9363 42.9038 24.8673C42.4951 24.8398 42.0949 24.8973 41.703 25.0398C41.3917 25.1438 41.1802 25.2497 41.0684 25.3574L40.9894 29.6232C41.6403 30.0445 42.2204 30.2449 42.7298 30.2244C43.8086 30.1745 44.3634 29.3163 44.3942 27.6499M52.5638 27.6365C52.5457 28.6144 52.2812 29.423 51.7703 30.0624C51.2081 30.7806 50.4432 31.1308 49.4754 31.1129C48.5177 31.0951 47.7761 30.7171 47.2509 29.9787C46.774 29.321 46.5447 28.5033 46.5628 27.5254C46.5798 26.6074 46.8585 25.8389 47.3989 25.2201C47.97 24.5619 48.7094 24.2412 49.6173 24.258C50.5252 24.2748 51.2573 24.6227 51.8136 25.3018C52.3307 25.9403 52.5808 26.7185 52.5638 27.6365ZM51.3666 27.6143C51.3793 26.9258 51.2601 26.3546 51.0091 25.9008C50.7099 25.3463 50.2364 25.048 49.5885 25.0061C48.39 25.0538 47.7755 25.9008 47.745 27.5473L47.76 27.5475C47.7459 28.3059 47.8589 28.9418 48.0989 29.4554C48.4062 30.1099 48.8791 30.438 49.5178 30.4399C50.7152 30.4521 51.3315 29.5102 51.3666 27.6143M62.1078 24.7288L60.2105 30.9822L59.3068 31.2799L57.6825 26.0244L56.1849 30.9077L55.2812 31.2054L53.2911 24.6854L54.3004 24.3447L55.882 29.4797L57.3018 24.7596L58.3111 24.4189L59.9076 29.5542L61.4388 24.4769L62.1078 24.7288ZM67.8972 30.7203C67.4732 30.982 67.0956 31.1596 66.7646 31.2533C66.3633 31.3657 65.9581 31.4181 65.5491 31.4105C64.8208 31.397 64.2455 31.2017 63.8234 30.8245C63.0574 30.1516 62.6903 29.2264 62.7221 28.0492C62.75 27.0814 62.9643 26.2869 63.365 25.6654C63.8476 24.9357 64.5328 24.5791 65.4208 24.5955C67.0769 24.6262 67.8997 25.7344 67.8892 27.9202L63.8785 27.846C63.803 28.693 63.9498 29.3845 64.3192 29.9204C64.6887 30.4463 65.1829 30.705 65.8018 30.6965C66.321 30.6861 66.9379 30.5179 67.6525 30.1917L67.8972 30.7203ZM66.8084 27.2714C66.8181 26.7425 66.7167 26.2915 66.5041 25.9182C66.2524 25.4943 65.9021 25.2782 65.4532 25.2699C64.5553 25.2533 64.0443 25.8976 63.9204 27.2029L66.8084 27.2714ZM73.3058 24.7265C73.2023 24.9242 73.0522 25.2159 72.8554 25.6016C72.5772 25.5365 72.3732 25.5028 72.2435 25.5004L72.2285 25.5001C71.6299 25.4891 71.0925 25.6787 70.6162 26.0692L70.5181 31.3677L69.4256 31.3475L69.5265 25.8993C69.9441 25.4479 70.4691 25.1182 71.1017 24.9103C71.6541 24.7209 72.1449 24.6302 72.5739 24.6381C72.8133 24.6425 73.0573 24.672 73.3058 24.7265M79.1502 30.9286C78.7262 31.1903 78.3487 31.368 78.0176 31.4617C77.6163 31.574 77.2111 31.6264 76.8021 31.6188C76.0738 31.6054 75.4986 31.41 75.0764 31.0329C74.3104 30.3599 73.9433 29.4348 73.9751 28.2575C74.003 27.2898 74.2173 26.4952 74.618 25.8738C75.1006 25.1441 75.7859 24.7874 76.6738 24.8039C78.3299 24.8345 79.1527 25.9428 79.1422 28.1286L75.1316 28.0543C75.056 28.9014 75.2029 29.5929 75.5722 30.1287C75.9417 30.6546 76.4359 30.9133 77.0548 30.9048C77.574 30.8945 78.1909 30.7262 78.9055 30.4001L79.1502 30.9286ZM78.0614 27.4797C78.0712 26.9509 77.9697 26.4998 77.7571 26.1265C77.5054 25.7027 77.1552 25.4865 76.7062 25.4782C75.8083 25.4616 75.2974 26.106 75.1734 27.4113L78.0614 27.4797ZM85.9805 30.6209C84.9887 31.3612 83.934 31.7259 82.8165 31.7152C81.9884 31.6999 81.3419 31.3136 80.8768 30.5564C80.4698 29.9 80.2744 29.1328 80.2907 28.2547C80.3069 27.3766 80.5457 26.6074 81.0071 25.9472C81.5297 25.2082 82.215 24.8516 83.0628 24.8772C83.7113 24.8892 84.3618 25.061 85.0144 25.3925L85.0856 21.5458L86.1398 21.206L85.9805 30.6209ZM84.9202 30.4815L84.9989 26.2307C84.3677 25.8197 83.8078 25.6097 83.3189 25.6007C82.7003 25.5892 82.2254 25.9048 81.8942 26.5475C81.6252 27.0616 81.4843 27.6629 81.4716 28.3514C81.4594 29.01 81.5734 29.586 81.8138 30.0796C82.1113 30.7239 82.5593 31.0517 83.1579 31.0627C83.7166 31.0731 84.304 30.8793 84.9202 30.4815" fill="white"/>
</svg>
