<?xml version="1.0" encoding="UTF-8"?>
<svg width="484px" height="461px" viewBox="0 0 484 461" version="1.1" xmlns="http://www.w3.org/2000/svg" xmlns:xlink="http://www.w3.org/1999/xlink">
    <title>Group</title>
    <g id="Page-1" stroke="none" stroke-width="1" fill="none" fill-rule="evenodd">
        <g id="Badge" transform="translate(-18.000000, 1.000000)">
            <g id="Group" transform="translate(19.000000, 0.000000)">
                <polygon id="Stroke-1" stroke="#DCDCDC" points="6 459 476 459 476 6 6 6"></polygon>
                <polygon id="Stroke-2" stroke="#E0E0E0" points="5 459 477 459 477 5 5 5"></polygon>
                <polygon id="Stroke-3" stroke="#E8E8E8" points="4 459 478 459 478 4 4 4"></polygon>
                <polygon id="Stroke-4" stroke="#F4F4F4" points="3 459 479 459 479 3 3 3"></polygon>
                <path d="M2,459 L480,459 L480,2 L2,2 L2,459 Z M1,459 L481,459 L481,1 L1,1 L1,459 Z M0,459 L482,459 L482,0 L0,0 L0,459 Z" id="Stroke-5" stroke="#FFFFFF"></path>
                <line x1="6" y1="453" x2="476" y2="453" id="Stroke-6" stroke="#DCDCDC"></line>
                <line x1="6" y1="454" x2="476" y2="454" id="Stroke-7" stroke="#DDDDDD"></line>
                <line x1="6" y1="455" x2="476" y2="455" id="Stroke-8" stroke="#DFDFDF"></line>
                <line x1="6" y1="456" x2="476" y2="456" id="Stroke-9" stroke="#E2E2E2"></line>
                <line x1="6" y1="457" x2="476" y2="457" id="Stroke-10" stroke="#E6E6E6"></line>
                <line x1="6" y1="458" x2="476" y2="458" id="Stroke-11" stroke="#EBEBEB"></line>
                <line x1="6" y1="459" x2="476" y2="459" id="Stroke-12" stroke="#F1F1F1"></line>
                <polygon id="Fill-13" fill="#242F3D" points="6 13 476 13 476 0 6 0"></polygon>
                <polygon id="Fill-14" fill="#FFFFFF" points="6 452 476 452 476 13 6 13"></polygon>
                <path d="M147.6,104.23 C148.72,104.93 150.4,105.49 152.5,105.91 C154.6,106.47 156.84,106.61 159.08,106.61 C161.32,106.61 163.28,106.33 165.1,105.77 C166.92,105.21 168.46,104.37 169.86,103.39 C171.12,102.41 172.24,101.15 172.94,99.61 C173.64,98.07 174.06,96.53 174.06,94.57 C174.06,92.33 173.36,90.37 172.1,88.55 C170.84,86.87 168.6,85.47 165.52,84.49 L159.5,82.53 C157.26,81.83 155.58,80.99 154.74,80.15 C153.9,79.31 153.48,78.33 153.48,77.07 C153.48,75.39 154.18,73.99 155.44,73.29 C156.84,72.45 158.66,72.03 161.18,72.03 C164.26,72.03 166.92,72.59 169.44,73.71 C170.14,73.99 170.7,74.27 171.12,74.27 C171.82,74.27 172.1,73.85 172.1,72.87 L172.1,71.19 C172.1,70.63 171.96,70.07 171.68,69.79 C171.4,69.37 170.98,68.95 170.42,68.67 C170,68.39 169.3,68.11 168.6,67.97 C167.9,67.69 167.06,67.55 166.22,67.27 C165.38,67.13 164.4,66.85 163.42,66.85 C162.44,66.57 161.46,66.57 160.48,66.57 C158.52,66.57 156.84,66.85 155.16,67.27 C153.48,67.83 151.94,68.53 150.68,69.51 C149.42,70.49 148.44,71.61 147.6,73.01 C146.76,74.41 146.48,75.95 146.48,77.77 C146.48,80.01 147.18,82.11 148.58,83.93 C149.98,85.89 152.22,87.29 155.44,88.27 L161.6,90.23 C163.7,90.93 165.1,91.63 165.94,92.47 C166.78,93.31 167.06,94.29 167.06,95.41 C167.06,97.09 166.36,98.49 164.82,99.47 C163.28,100.45 161.32,100.87 158.52,100.87 C156.84,100.87 155.16,100.73 153.48,100.31 C151.8,100.03 150.26,99.47 148.72,98.77 C148.3,98.63 147.88,98.49 147.6,98.35 C147.32,98.21 147.04,98.21 146.76,98.21 C146.06,98.21 145.78,98.63 145.78,99.61 L145.78,101.71 C145.78,102.13 145.92,102.55 146.06,102.97 C146.48,103.53 146.9,103.81 147.6,104.23" id="Fill-15" fill="#252F3E"></path>
                <path d="M75.22,83.51 C73.68,83.23 72.14,83.23 70.74,83.23 C66.4,83.23 62.9,84.35 60.24,86.59 C57.58,88.83 56.32,91.77 56.32,95.41 C56.32,98.91 57.3,101.57 59.4,103.67 C61.5,105.77 64.3,106.75 67.94,106.75 C72.98,106.75 77.18,104.79 80.54,100.87 C80.96,101.85 81.38,102.69 81.8,103.39 C82.22,104.09 82.78,104.79 83.34,105.35 C83.76,105.77 84.18,105.91 84.6,105.91 C84.88,105.91 85.3,105.77 85.72,105.49 L88.38,103.67 C88.94,103.25 89.22,102.83 89.22,102.41 C89.22,102.13 89.08,101.85 88.94,101.43 C88.38,100.31 87.82,99.33 87.54,98.35 C87.26,97.37 87.12,96.11 87.12,94.57 L87.12,80.57 C87.12,75.95 86,72.45 83.62,70.07 C81.24,67.69 77.6,66.57 72.42,66.57 C70.04,66.57 67.8,66.85 65.7,67.41 C63.74,67.97 61.92,68.53 60.38,69.37 C59.82,69.65 59.4,69.93 59.26,70.21 C58.98,70.49 58.98,71.05 58.98,71.75 L58.98,73.85 C58.98,74.69 59.26,75.25 59.82,75.25 C59.96,75.25 60.24,75.25 60.52,75.11 C60.8,74.97 61.36,74.83 62.06,74.55 C63.6,73.99 65.14,73.43 66.68,73.15 C68.22,72.73 69.76,72.59 71.3,72.59 C74.66,72.59 76.9,73.29 78.3,74.55 C79.7,75.81 80.26,78.19 80.26,81.41 L80.26,84.49 C78.44,84.07 76.9,83.79 75.22,83.51 Z M80.12,91.07 C80.12,92.47 79.98,93.73 79.7,94.71 C79.42,95.69 79,96.67 78.3,97.37 C77.18,98.63 75.78,99.61 74.24,100.03 C72.7,100.59 71.16,100.87 69.76,100.87 C67.8,100.87 66.26,100.31 65.28,99.33 C64.3,98.35 63.74,96.81 63.74,94.85 C63.74,92.75 64.44,91.07 65.84,89.95 C67.24,88.83 69.34,88.27 72.14,88.27 C73.4,88.27 74.8,88.41 76.2,88.55 C77.6,88.69 78.86,88.97 80.12,89.25 L80.12,91.07 L80.12,91.07 Z" id="Fill-16" fill="#252F3E"></path>
                <g id="Group-20" transform="translate(51.000000, 67.000000)">
                    <path d="M50.68,36.53 C50.96,37.37 51.24,37.93 51.52,38.21 C51.8,38.49 52.36,38.63 53.2,38.63 L56.84,38.63 C57.68,38.63 58.24,38.49 58.52,38.21 C58.8,37.93 59.08,37.37 59.36,36.53 L65.94,8.95 L72.66,36.53 C72.8,37.37 73.08,37.93 73.5,38.21 C73.78,38.49 74.48,38.63 75.18,38.63 L78.82,38.63 C79.52,38.63 80.08,38.49 80.5,38.21 C80.78,37.93 81.2,37.37 81.34,36.53 L91.7,3.49 C91.84,3.07 91.98,2.65 91.98,2.51 C91.98,2.23 92.12,2.09 92.12,1.81 C92.12,1.11 91.84,0.83 91.14,0.83 L87.22,0.83 C86.38,0.83 85.82,0.97 85.54,1.25 C85.26,1.53 84.98,2.09 84.7,2.93 L77.28,31.63 L70.42,2.79 C70.28,1.95 70,1.39 69.58,1.11 C69.3,0.83 68.6,0.69 67.9,0.69 L64.4,0.69 C63.56,0.69 63,0.83 62.72,1.11 C62.44,1.39 62.16,1.95 61.88,2.79 L55.16,31.07 L48.02,2.79 C47.74,1.95 47.46,1.39 47.18,1.11 C46.9,0.83 46.34,0.69 45.5,0.69 L41.3,0.69 C40.6,0.69 40.32,0.97 40.32,1.67 C40.32,1.95 40.46,2.51 40.74,3.35 L50.68,36.53" id="Fill-17" fill="#252F3E"></path>
                    <path d="M114.1,57.25 C98.42,63.97 81.2,67.19 65.66,67.19 C42.56,67.19 20.16,60.89 2.1,50.25 C0.56,49.27 -0.7,50.95 0.7,52.21 C17.5,67.33 39.62,76.43 64.26,76.43 C81.76,76.43 102.2,70.97 116.34,60.47 C118.44,58.79 116.48,56.27 114.1,57.25" id="Fill-19" fill="#FF9900"></path>
                </g>
                <path d="M156.28,118.37 C155.02,119.21 155.3,120.47 156.56,120.33 C161.04,119.77 171.26,118.51 172.94,120.89 C174.76,123.13 170.98,132.65 169.3,136.99 C168.74,138.25 169.86,138.81 171.12,137.83 C178.68,131.53 180.64,118.23 179.1,116.41 C177.56,114.31 164.26,112.77 156.28,118.37" id="Fill-21" fill="#FF9900"></path>
                <path d="M212.84,96.81 C212.56,96.81 212.28,96.67 212.28,96.25 L212.28,73.15 C212.28,72.87 212.42,72.59 212.84,72.59 L213.54,72.59 C213.96,72.59 214.1,72.73 214.1,73.15 L214.24,74.55 C215.22,73.71 216.34,73.15 217.32,72.73 C218.3,72.31 219.28,72.17 220.4,72.17 C222.64,72.17 224.32,73.01 225.58,74.55 C226.84,76.09 227.54,78.33 227.54,80.99 C227.54,83.79 226.84,86.03 225.58,87.71 C224.18,89.39 222.5,90.23 220.12,90.23 C218.02,90.23 216.2,89.39 214.38,87.85 L214.38,96.25 C214.38,96.53 214.24,96.81 213.82,96.81 L212.84,96.81 Z M219.84,88.41 C221.66,88.41 223.06,87.85 224.04,86.59 C225.02,85.33 225.44,83.51 225.44,81.13 C225.44,76.37 223.62,73.99 219.98,73.99 C218.16,73.99 216.2,74.69 214.38,76.23 L214.38,86.17 C215.36,87.01 216.2,87.57 217.04,87.99 C217.88,88.13 218.86,88.41 219.84,88.41 L219.84,88.41 Z" id="Fill-22" fill="#252F3E"></path>
                <path d="M235.8,90.09 C234.26,90.09 233,89.67 232.02,88.69 C231.04,87.85 230.62,86.59 230.62,85.05 C230.62,83.37 231.18,82.11 232.3,81.13 C233.42,80.15 234.96,79.73 236.92,79.73 C238.46,79.73 240,80.01 241.82,80.57 L241.82,77.77 C241.82,76.37 241.54,75.39 240.84,74.83 C240.14,74.27 239.16,73.99 237.62,73.99 C236.08,73.99 234.4,74.27 232.72,74.83 C232.58,74.83 232.3,74.97 232.16,74.97 C231.88,74.97 231.88,74.83 231.88,74.55 L231.88,73.85 C231.88,73.71 231.88,73.57 232.02,73.43 C232.16,73.29 232.16,73.29 232.3,73.15 C234.12,72.45 235.94,72.03 238.04,72.03 C240,72.03 241.54,72.45 242.52,73.29 C243.5,74.13 243.92,75.39 243.92,77.07 L243.92,89.11 C243.92,89.39 243.78,89.67 243.36,89.67 L242.66,89.67 C242.38,89.67 242.1,89.53 242.1,89.11 L241.96,87.71 C240,89.39 237.9,90.09 235.8,90.09 Z M236.08,88.41 C236.92,88.41 237.9,88.27 238.88,87.85 C239.86,87.43 240.84,87.01 241.96,86.31 L241.96,82.11 C240.42,81.69 239.02,81.55 237.48,81.55 C234.26,81.55 232.72,82.81 232.72,85.19 C232.72,86.17 233,87.01 233.56,87.57 C234.12,88.13 234.96,88.41 236.08,88.41 L236.08,88.41 Z" id="Fill-23" fill="#252F3E"></path>
                <path d="M249.66,89.81 C249.38,89.81 249.1,89.67 249.1,89.25 L249.1,73.15 C249.1,72.87 249.24,72.59 249.66,72.59 L250.36,72.59 C250.78,72.59 250.92,72.73 250.92,73.15 L251.06,75.11 C251.9,74.13 252.74,73.43 253.58,73.15 C254.42,72.73 255.4,72.59 256.38,72.59 C256.8,72.59 257.08,72.59 257.22,72.59 C257.5,72.59 257.78,72.73 257.78,73.15 L257.78,73.99 C257.78,74.13 257.78,74.13 257.64,74.27 C257.64,74.41 257.5,74.41 257.36,74.41 C257.22,74.41 256.94,74.41 256.8,74.41 C256.66,74.41 256.38,74.41 256.1,74.41 C255.12,74.41 254.14,74.55 253.3,74.97 C252.46,75.39 251.76,75.95 250.92,76.79 L250.92,89.25 C250.92,89.53 250.78,89.81 250.36,89.81 L249.66,89.81" id="Fill-24" fill="#252F3E"></path>
                <path d="M266.74,89.95 C265.34,89.95 264.36,89.53 263.66,88.83 C262.96,88.13 262.54,87.15 262.54,85.75 L262.54,74.41 L259.88,74.41 C259.6,74.41 259.32,74.27 259.32,73.85 L259.32,73.57 C259.32,73.43 259.32,73.29 259.46,73.15 C259.46,73.01 259.6,73.01 259.88,73.01 L262.68,72.73 L262.96,68.25 C262.96,68.11 263.1,67.97 263.1,67.83 C263.24,67.69 263.24,67.69 263.52,67.69 L264.08,67.69 C264.36,67.69 264.64,67.83 264.64,68.25 L264.64,72.73 L269.54,72.73 C269.82,72.73 270.1,72.87 270.1,73.29 L270.1,73.99 C270.1,74.27 269.96,74.55 269.54,74.55 L264.64,74.55 L264.64,85.89 C264.64,86.87 264.78,87.43 265.2,87.85 C265.62,88.27 266.32,88.41 267.16,88.41 C267.86,88.41 268.42,88.41 268.84,88.27 C269.12,88.27 269.26,88.13 269.4,88.13 C269.54,88.13 269.68,88.13 269.68,88.13 C269.96,88.13 270.1,88.27 270.1,88.55 L270.1,89.11 C270.1,89.53 269.96,89.67 269.68,89.81 C268.84,89.81 267.86,89.95 266.74,89.95" id="Fill-25" fill="#252F3E"></path>
                <path d="M274.3,89.81 C274.02,89.81 273.74,89.67 273.74,89.25 L273.74,73.15 C273.74,72.87 273.88,72.59 274.3,72.59 L275,72.59 C275.42,72.59 275.56,72.73 275.56,73.15 L275.7,74.55 C276.82,73.71 277.94,73.15 279.2,72.73 C280.46,72.31 281.58,72.03 282.7,72.03 C284.38,72.03 285.64,72.45 286.48,73.29 C287.32,74.13 287.74,75.39 287.74,77.21 L287.74,89.11 C287.74,89.39 287.6,89.67 287.18,89.67 L286.2,89.67 C285.92,89.67 285.64,89.53 285.64,89.11 L285.64,78.19 C285.64,76.65 285.36,75.67 284.8,74.97 C284.24,74.27 283.26,73.99 282.14,73.99 C279.9,73.99 277.66,74.69 275.56,76.23 L275.56,89.39 C275.56,89.67 275.42,89.95 275,89.95 L274.3,89.95" id="Fill-26" fill="#252F3E"></path>
                <path d="M300.34,90.23 C297.68,90.23 295.58,89.53 294.32,87.99 C292.92,86.45 292.22,84.21 292.22,81.13 C292.22,78.33 292.92,76.09 294.32,74.55 C295.72,73.01 297.68,72.17 300.06,72.17 C302.16,72.17 303.7,72.73 304.82,73.99 C305.94,75.11 306.5,76.79 306.5,79.03 C306.5,79.87 306.5,80.57 306.36,81.13 C306.36,81.41 306.08,81.69 305.8,81.69 L294.32,81.69 C294.32,84.07 294.88,85.89 295.86,87.01 C296.84,88.13 298.52,88.69 300.62,88.69 C302.3,88.69 303.84,88.41 305.24,87.85 C305.52,87.71 305.8,87.71 305.8,87.71 C305.94,87.71 305.94,87.71 306.08,87.85 C306.08,87.99 306.22,87.99 306.22,88.13 L306.22,88.69 C306.22,89.11 306.08,89.25 305.8,89.39 C303.98,89.81 302.3,90.23 300.34,90.23 Z M304.54,80.01 C304.54,79.73 304.54,79.31 304.54,78.89 C304.54,77.21 304.12,76.09 303.42,75.25 C302.58,74.41 301.46,73.99 299.92,73.99 C296.28,73.99 294.46,75.95 294.18,80.01 L304.54,80.01 L304.54,80.01 Z" id="Fill-27" fill="#252F3E"></path>
                <path d="M311.12,89.81 C310.84,89.81 310.56,89.67 310.56,89.25 L310.56,73.15 C310.56,72.87 310.7,72.59 311.12,72.59 L311.82,72.59 C312.24,72.59 312.38,72.73 312.38,73.15 L312.52,75.11 C313.36,74.13 314.2,73.43 315.04,73.15 C315.88,72.73 316.86,72.59 317.84,72.59 C318.26,72.59 318.54,72.59 318.68,72.59 C318.96,72.59 319.24,72.73 319.24,73.15 L319.24,73.99 C319.24,74.13 319.24,74.13 319.1,74.27 C319.1,74.41 318.96,74.41 318.82,74.41 C318.68,74.41 318.4,74.41 318.26,74.41 C318.12,74.41 317.84,74.41 317.56,74.41 C316.58,74.41 315.6,74.55 314.76,74.97 C313.92,75.39 313.22,75.95 312.38,76.79 L312.38,89.25 C312.38,89.53 312.24,89.81 311.82,89.81 L311.12,89.81" id="Fill-28" fill="#252F3E"></path>
                <path d="M212.84,127.47 C212.56,127.47 212.28,127.33 212.28,126.91 L212.28,110.95 C212.28,110.67 212.42,110.39 212.84,110.39 L213.54,110.39 C213.96,110.39 214.1,110.53 214.1,110.95 L214.24,112.35 C215.36,111.51 216.48,110.95 217.74,110.53 C219,110.11 220.12,109.83 221.24,109.83 C222.92,109.83 224.18,110.25 225.02,111.09 C225.86,111.93 226.28,113.19 226.28,115.01 L226.28,126.91 C226.28,127.19 226.14,127.47 225.72,127.47 L224.74,127.47 C224.46,127.47 224.18,127.33 224.18,126.91 L224.18,115.85 C224.18,114.31 223.9,113.33 223.34,112.63 C222.78,111.93 221.8,111.65 220.68,111.65 C218.44,111.65 216.2,112.35 214.1,113.89 L214.1,127.05 C214.1,127.33 213.96,127.61 213.54,127.61 L212.84,127.61" id="Fill-29" fill="#252F3E"></path>
                <path d="M238.88,128.03 C236.22,128.03 234.12,127.33 232.86,125.79 C231.46,124.25 230.76,122.01 230.76,118.93 C230.76,116.13 231.46,113.89 232.86,112.35 C234.26,110.81 236.22,109.97 238.6,109.97 C240.7,109.97 242.24,110.53 243.36,111.79 C244.48,112.91 245.04,114.59 245.04,116.83 C245.04,117.67 245.04,118.37 244.9,118.93 C244.9,119.21 244.62,119.49 244.34,119.49 L232.86,119.49 C232.86,121.87 233.42,123.69 234.4,124.81 C235.38,125.93 237.06,126.49 239.16,126.49 C240.84,126.49 242.38,126.21 243.78,125.65 C244.06,125.51 244.34,125.51 244.34,125.51 C244.48,125.51 244.48,125.51 244.62,125.65 C244.62,125.79 244.76,125.79 244.76,125.93 L244.76,126.49 C244.76,126.91 244.62,127.05 244.34,127.19 C242.66,127.61 240.84,128.03 238.88,128.03 Z M243.08,117.67 C243.08,117.39 243.08,116.97 243.08,116.55 C243.08,114.87 242.66,113.75 241.96,112.91 C241.12,112.07 240,111.65 238.46,111.65 C234.82,111.65 233,113.61 232.72,117.67 L243.08,117.67 L243.08,117.67 Z" id="Fill-30" fill="#252F3E"></path>
                <path d="M254.56,127.75 C253.16,127.75 252.18,127.33 251.48,126.63 C250.78,125.93 250.36,124.95 250.36,123.55 L250.36,112.07 L247.7,112.07 C247.42,112.07 247.14,111.93 247.14,111.51 L247.14,111.23 C247.14,111.09 247.14,110.95 247.28,110.81 C247.28,110.67 247.42,110.67 247.7,110.67 L250.5,110.39 L250.78,105.91 C250.78,105.77 250.92,105.63 250.92,105.49 C251.06,105.35 251.06,105.35 251.34,105.35 L251.9,105.35 C252.18,105.35 252.46,105.49 252.46,105.91 L252.46,110.39 L257.36,110.39 C257.64,110.39 257.92,110.53 257.92,110.95 L257.92,111.65 C257.92,111.93 257.78,112.21 257.36,112.21 L252.46,112.21 L252.46,123.55 C252.46,124.53 252.6,125.09 253.02,125.51 C253.44,125.93 254.14,126.07 254.98,126.07 C255.68,126.07 256.24,126.07 256.66,125.93 C256.94,125.93 257.08,125.79 257.22,125.79 C257.36,125.79 257.5,125.79 257.5,125.79 C257.78,125.79 257.92,125.93 257.92,126.21 L257.92,126.77 C257.92,127.19 257.78,127.33 257.5,127.47 C256.66,127.61 255.68,127.75 254.56,127.75" id="Fill-31" fill="#252F3E"></path>
                <path d="M265.62,127.47 C265.34,127.47 265.06,127.33 264.92,127.05 L259.6,111.23 C259.46,110.95 259.46,110.81 259.46,110.67 C259.46,110.53 259.6,110.39 259.88,110.39 L261,110.39 C261.28,110.39 261.42,110.53 261.56,110.81 L266.18,125.23 L270.24,110.81 C270.38,110.53 270.52,110.39 270.94,110.39 L272.2,110.39 C272.48,110.39 272.76,110.53 272.9,110.81 L276.96,125.23 L281.72,110.67 C281.86,110.39 282,110.25 282.28,110.25 L283.26,110.25 C283.54,110.25 283.68,110.39 283.68,110.53 C283.68,110.67 283.68,110.81 283.54,111.09 L277.94,126.91 C277.8,127.19 277.66,127.33 277.24,127.33 L276.12,127.33 C275.84,127.33 275.56,127.19 275.42,126.91 L271.36,112.49 L267.3,126.91 C267.16,127.19 267.02,127.33 266.6,127.33 L265.62,127.33" id="Fill-32" fill="#252F3E"></path>
                <path d="M293.76,128.03 C291.24,128.03 289.28,127.19 287.88,125.65 C286.48,124.11 285.78,121.87 285.78,118.93 C285.78,116.13 286.48,113.89 287.88,112.21 C289.28,110.67 291.24,109.83 293.76,109.83 C296.28,109.83 298.24,110.67 299.64,112.21 C301.04,113.75 301.74,115.99 301.74,118.93 C301.74,121.73 301.04,123.97 299.64,125.65 C298.24,127.19 296.28,128.03 293.76,128.03 Z M293.76,126.21 C297.68,126.21 299.64,123.83 299.64,118.93 C299.64,114.03 297.68,111.65 293.76,111.65 C289.84,111.65 287.88,114.03 287.88,118.93 C287.88,123.83 289.84,126.21 293.76,126.21 L293.76,126.21 Z" id="Fill-33" fill="#252F3E"></path>
                <path d="M306.64,127.47 C306.36,127.47 306.08,127.33 306.08,126.91 L306.08,110.95 C306.08,110.67 306.22,110.39 306.64,110.39 L307.34,110.39 C307.76,110.39 307.9,110.53 307.9,110.95 L308.04,112.91 C308.88,111.93 309.72,111.23 310.56,110.95 C311.4,110.53 312.38,110.39 313.36,110.39 C313.78,110.39 314.06,110.39 314.2,110.39 C314.48,110.39 314.76,110.53 314.76,110.95 L314.76,111.79 C314.76,111.93 314.76,111.93 314.62,112.07 C314.48,112.21 314.48,112.21 314.34,112.21 C314.2,112.21 313.92,112.21 313.78,112.21 C313.64,112.21 313.36,112.21 313.08,112.21 C312.1,112.21 311.12,112.35 310.28,112.77 C309.44,113.19 308.74,113.75 307.9,114.59 L307.9,127.05 C307.9,127.33 307.76,127.61 307.34,127.61 L306.64,127.61" id="Fill-34" fill="#252F3E"></path>
                <path d="M318.26,127.47 C317.98,127.47 317.7,127.33 317.7,126.91 L317.7,102.83 C317.7,102.55 317.84,102.27 318.26,102.27 L319.24,102.27 C319.52,102.27 319.8,102.41 319.8,102.83 L319.8,117.95 L327.92,110.67 C328.2,110.39 328.48,110.39 328.76,110.39 L330.02,110.39 C330.3,110.39 330.44,110.53 330.44,110.67 C330.44,110.81 330.3,110.95 330.02,111.23 L321.76,118.51 L330.72,126.77 C330.86,126.91 331,127.05 331,127.19 C331,127.47 330.86,127.47 330.58,127.47 L329.18,127.47 C328.9,127.47 328.62,127.33 328.48,127.19 L319.8,119.07 L319.8,126.91 C319.8,127.19 319.66,127.47 319.24,127.47 L318.26,127.47" id="Fill-35" fill="#252F3E"></path>
                <path d="M57.875,235.297 C55.979,234.599 54.615,233.742 53.781,232.727 C52.948,231.711 52.531,230.427 52.531,228.875 C52.531,226.865 53.273,225.263 54.758,224.07 C56.242,222.878 58.234,222.281 60.734,222.281 C62.818,222.281 64.865,222.667 66.875,223.438 L66.875,227.078 C64.802,226.443 62.88,226.125 61.109,226.125 C58.599,226.125 57.344,226.932 57.344,228.547 C57.344,229.151 57.56,229.643 57.992,230.023 C58.424,230.404 59.24,230.807 60.437,231.234 L62.813,232.109 C64.792,232.828 66.203,233.674 67.047,234.648 C67.891,235.622 68.312,236.885 68.312,238.438 C68.312,240.635 67.523,242.37 65.945,243.641 C64.367,244.911 62.203,245.547 59.453,245.547 C58.255,245.547 57.06,245.435 55.867,245.211 C54.674,244.987 53.651,244.682 52.797,244.297 L52.797,240.641 C53.859,240.964 55,241.221 56.219,241.414 C57.437,241.607 58.536,241.703 59.516,241.703 C60.776,241.703 61.747,241.474 62.43,241.016 C63.112,240.557 63.453,239.901 63.453,239.047 C63.453,238.391 63.245,237.87 62.828,237.484 C62.411,237.099 61.573,236.672 60.313,236.203 L57.875,235.297 Z M81.689,244.578 C80.533,245.026 79.241,245.25 77.814,245.25 C76.001,245.25 74.663,244.826 73.798,243.977 C72.934,243.128 72.501,241.807 72.501,240.016 L72.501,232.109 L70.033,232.109 L70.033,229.219 L72.626,228.719 L73.329,224.234 L77.173,224.234 L77.173,228.641 L81.595,228.641 L81.595,232.109 L77.173,232.109 L77.173,239.781 C77.173,240.469 77.345,240.951 77.689,241.227 C78.033,241.503 78.611,241.641 79.423,241.641 C80.079,241.641 80.835,241.578 81.689,241.453 L81.689,244.578 Z M93.937,245 L93.562,243.562 C92.896,244.156 92.13,244.63 91.266,244.984 C90.401,245.339 89.568,245.516 88.766,245.516 C87.182,245.516 85.917,245.068 84.969,244.172 C84.021,243.276 83.547,242.078 83.547,240.578 C83.547,239.557 83.802,238.659 84.312,237.883 C84.823,237.107 85.557,236.495 86.516,236.047 C87.474,235.599 88.604,235.375 89.906,235.375 C90.937,235.375 92.068,235.51 93.297,235.781 L93.297,234.187 C93.297,233.208 93.096,232.536 92.695,232.172 C92.294,231.807 91.547,231.625 90.453,231.625 C88.703,231.625 86.776,231.953 84.672,232.609 L84.672,229.516 C85.453,229.109 86.443,228.784 87.641,228.539 C88.838,228.294 90.052,228.172 91.281,228.172 C93.479,228.172 95.086,228.615 96.102,229.5 C97.117,230.385 97.625,231.776 97.625,233.672 L97.625,245 L93.937,245 Z M90.078,242.375 C90.609,242.375 91.156,242.258 91.719,242.023 C92.281,241.789 92.807,241.469 93.297,241.063 L93.297,238.281 C92.359,238.135 91.521,238.063 90.781,238.063 C88.917,238.063 87.984,238.807 87.984,240.297 C87.984,240.953 88.167,241.464 88.531,241.828 C88.896,242.193 89.411,242.375 90.078,242.375 Z M112.534,245 L112.534,234.281 C112.534,233.406 112.342,232.766 111.956,232.359 C111.571,231.953 110.988,231.75 110.206,231.75 C109.029,231.75 107.863,232.115 106.706,232.844 L106.706,245 L102.034,245 L102.034,228.641 L105.878,228.641 L106.331,230.406 C108.248,228.917 110.295,228.172 112.472,228.172 C113.982,228.172 115.149,228.581 115.972,229.398 C116.795,230.216 117.206,231.385 117.206,232.906 L117.206,245 L112.534,245 Z M132.665,245 L132.275,243.562 C130.952,244.76 129.384,245.359 127.572,245.359 C126.228,245.359 125.046,245.023 124.025,244.352 C123.004,243.68 122.21,242.703 121.642,241.422 C121.074,240.141 120.79,238.635 120.79,236.906 C120.79,234.26 121.421,232.143 122.681,230.555 C123.941,228.966 125.603,228.172 127.665,228.172 C129.353,228.172 130.816,228.651 132.056,229.609 L132.056,221.312 L136.728,221.312 L136.728,245 L132.665,245 Z M129.119,241.828 C130.139,241.828 131.119,241.531 132.056,240.937 L132.056,232.484 C131.139,231.953 130.082,231.688 128.884,231.688 C127.759,231.688 126.918,232.109 126.361,232.953 C125.803,233.797 125.525,235.073 125.525,236.781 C125.525,238.49 125.819,239.758 126.408,240.586 C126.996,241.414 127.9,241.828 129.119,241.828 Z M150.578,245 L150.203,243.562 C149.536,244.156 148.77,244.63 147.906,244.984 C147.041,245.339 146.208,245.516 145.406,245.516 C143.822,245.516 142.557,245.068 141.609,244.172 C140.661,243.276 140.187,242.078 140.187,240.578 C140.187,239.557 140.442,238.659 140.953,237.883 C141.463,237.107 142.197,236.495 143.156,236.047 C144.114,235.599 145.244,235.375 146.546,235.375 C147.578,235.375 148.708,235.51 149.937,235.781 L149.937,234.187 C149.937,233.208 149.736,232.536 149.335,232.172 C148.934,231.807 148.187,231.625 147.093,231.625 C145.343,231.625 143.416,231.953 141.312,232.609 L141.312,229.516 C142.093,229.109 143.083,228.784 144.281,228.539 C145.479,228.294 146.692,228.172 147.921,228.172 C150.119,228.172 151.726,228.615 152.742,229.5 C153.757,230.385 154.265,231.776 154.265,233.672 L154.265,245 L150.578,245 Z M146.718,242.375 C147.249,242.375 147.796,242.258 148.359,242.023 C148.921,241.789 149.447,241.469 149.937,241.063 L149.937,238.281 C148.999,238.135 148.161,238.063 147.421,238.063 C145.557,238.063 144.624,238.807 144.624,240.297 C144.624,240.953 144.807,241.464 145.171,241.828 C145.536,242.193 146.052,242.375 146.718,242.375 Z M158.675,245 L158.675,228.641 L162.518,228.641 L163.096,231.078 C163.951,230.141 164.755,229.474 165.511,229.078 C166.266,228.682 167.07,228.484 167.925,228.484 C168.331,228.484 168.758,228.516 169.206,228.578 L169.206,232.906 C168.612,232.781 167.951,232.719 167.221,232.719 C165.836,232.719 164.544,232.964 163.346,233.453 L163.346,245 L158.675,245 Z M182.681,245 L182.291,243.562 C180.968,244.76 179.4,245.359 177.588,245.359 C176.244,245.359 175.062,245.023 174.041,244.352 C173.02,243.68 172.226,242.703 171.658,241.422 C171.09,240.141 170.806,238.635 170.806,236.906 C170.806,234.26 171.437,232.143 172.697,230.555 C173.958,228.966 175.619,228.172 177.681,228.172 C179.369,228.172 180.833,228.651 182.072,229.609 L182.072,221.312 L186.744,221.312 L186.744,245 L182.681,245 Z M179.135,241.828 C180.155,241.828 181.135,241.531 182.072,240.937 L182.072,232.484 C181.155,231.953 180.098,231.688 178.9,231.688 C177.775,231.688 176.934,232.109 176.377,232.953 C175.82,233.797 175.541,235.073 175.541,236.781 C175.541,238.49 175.835,239.758 176.424,240.586 C177.012,241.414 177.916,241.828 179.135,241.828 L179.135,241.828 Z" id="Fill-36" fill="#535B64"></path>
                <path d="M68.891,315 C68.203,315 67.859,314.661 67.859,313.984 L67.859,271.484 L53.25,271.484 C52.562,271.484 52.219,271.141 52.219,270.453 L52.219,268.891 C52.219,268.214 52.562,267.875 53.25,267.875 L86.5,267.875 C87.177,267.875 87.516,268.214 87.516,268.891 L87.516,270.453 C87.516,271.141 87.177,271.484 86.5,271.484 L71.875,271.484 L71.875,313.984 C71.875,314.661 71.536,315 70.859,315 L68.891,315 Z M108.521,316.016 C103.136,316.016 99.081,314.487 96.357,311.43 C93.633,308.372 92.271,303.828 92.271,297.797 C92.271,292.089 93.644,287.659 96.388,284.508 C99.133,281.357 102.974,279.781 107.912,279.781 C112.037,279.781 115.198,280.958 117.396,283.312 C119.594,285.667 120.693,289.042 120.693,293.437 C120.693,295.25 120.605,296.615 120.428,297.531 C120.292,298.208 119.907,298.547 119.271,298.547 L96.224,298.547 C96.266,303.307 97.308,306.82 99.349,309.086 C101.391,311.352 104.542,312.484 108.803,312.484 C112.063,312.484 115.167,311.917 118.115,310.781 C118.709,310.552 119.115,310.437 119.334,310.437 C119.521,310.437 119.683,310.518 119.818,310.68 C119.954,310.841 120.021,311.036 120.021,311.266 L120.021,312.281 C120.021,313.01 119.771,313.484 119.271,313.703 C116.011,315.245 112.428,316.016 108.521,316.016 Z M116.896,295.422 C116.938,294.786 116.959,294.036 116.959,293.172 C116.959,289.911 116.165,287.443 114.576,285.766 C112.987,284.089 110.657,283.25 107.584,283.25 C100.417,283.25 96.631,287.307 96.224,295.422 L116.896,295.422 Z M143.542,315.75 C138.292,315.75 134.305,314.242 131.581,311.227 C128.857,308.211 127.495,303.781 127.495,297.937 C127.495,292.135 128.878,287.703 131.644,284.641 C134.409,281.578 138.422,280.047 143.683,280.047 C146.172,280.047 148.553,280.479 150.823,281.344 C151.365,281.521 151.636,281.995 151.636,282.766 L151.636,283.719 C151.636,284.312 151.365,284.609 150.823,284.609 C150.688,284.609 150.519,284.586 150.316,284.539 C150.113,284.492 149.782,284.422 149.323,284.328 C147.511,283.88 145.698,283.656 143.886,283.656 C139.584,283.656 136.469,284.755 134.542,286.953 C132.615,289.151 131.652,292.677 131.652,297.531 L131.652,298.344 C131.652,303.052 132.626,306.529 134.573,308.773 C136.521,311.018 139.579,312.141 143.745,312.141 C145.516,312.141 147.49,311.849 149.667,311.266 C150.167,311.13 150.519,311.039 150.722,310.992 C150.925,310.945 151.094,310.922 151.23,310.922 C151.771,310.922 152.042,311.214 152.042,311.797 L152.042,312.75 C152.042,313.479 151.797,313.958 151.308,314.187 C148.808,315.229 146.219,315.75 143.542,315.75 Z M160.96,315 C160.273,315 159.929,314.661 159.929,313.984 L159.929,265.703 C159.929,265.026 160.273,264.687 160.96,264.687 L162.788,264.687 C163.476,264.687 163.82,265.026 163.82,265.703 L163.82,284.672 C166.038,283.13 168.359,281.93 170.781,281.07 C173.202,280.211 175.57,279.781 177.882,279.781 C181.195,279.781 183.723,280.654 185.468,282.398 C187.213,284.143 188.085,286.714 188.085,290.109 L188.085,313.984 C188.085,314.661 187.747,315 187.07,315 L185.226,315 C184.549,315 184.21,314.661 184.21,313.984 L184.21,291.75 C184.21,288.802 183.645,286.659 182.515,285.32 C181.385,283.982 179.57,283.312 177.07,283.312 C172.538,283.312 168.122,284.76 163.82,287.656 L163.82,313.984 C163.82,314.661 163.476,315 162.788,315 L160.96,315 Z M199.584,315 C198.897,315 198.553,314.661 198.553,313.984 L198.553,281.813 C198.553,281.135 198.897,280.797 199.584,280.797 L200.944,280.797 C201.662,280.797 202.048,281.135 202.1,281.813 L202.366,284.734 C204.584,283.151 206.918,281.93 209.366,281.07 C211.813,280.211 214.194,279.781 216.506,279.781 C219.819,279.781 222.347,280.654 224.092,282.398 C225.837,284.143 226.709,286.714 226.709,290.109 L226.709,313.984 C226.709,314.661 226.371,315 225.694,315 L223.85,315 C223.173,315 222.834,314.661 222.834,313.984 L222.834,291.75 C222.834,288.802 222.269,286.659 221.139,285.32 C220.009,283.982 218.194,283.312 215.694,283.312 C211.162,283.312 206.746,284.76 202.444,287.656 L202.444,313.984 C202.444,314.661 202.1,315 201.412,315 L199.584,315 Z M251.193,316.016 C246.203,316.016 242.326,314.419 239.56,311.227 C236.794,308.034 235.411,303.578 235.411,297.859 C235.411,292.151 236.794,287.711 239.56,284.539 C242.326,281.367 246.203,279.781 251.193,279.781 C256.182,279.781 260.06,281.367 262.826,284.539 C265.591,287.711 266.974,292.151 266.974,297.859 C266.974,303.578 265.591,308.034 262.826,311.227 C260.06,314.419 256.182,316.016 251.193,316.016 Z M251.193,312.484 C259.036,312.484 262.958,307.609 262.958,297.859 C262.958,288.161 259.036,283.312 251.193,283.312 C243.349,283.312 239.427,288.161 239.427,297.859 C239.427,307.609 243.349,312.484 251.193,312.484 Z M281.582,315.203 C279.77,315.203 278.353,314.672 277.332,313.609 C276.311,312.547 275.801,311.062 275.801,309.156 L275.801,265.703 C275.801,265.026 276.145,264.687 276.832,264.687 L278.66,264.687 C279.348,264.687 279.692,265.026 279.692,265.703 L279.692,309.078 C279.692,310.078 279.884,310.781 280.27,311.187 C280.655,311.594 281.343,311.797 282.332,311.797 C282.603,311.797 282.91,311.776 283.254,311.734 C283.598,311.693 283.879,311.672 284.098,311.672 C284.733,311.672 285.051,311.99 285.051,312.625 L285.051,313.906 C285.051,314.458 284.759,314.802 284.176,314.937 C283.447,315.115 282.582,315.203 281.582,315.203 Z M306.817,316.016 C301.827,316.016 297.95,314.419 295.184,311.227 C292.418,308.034 291.035,303.578 291.035,297.859 C291.035,292.151 292.418,287.711 295.184,284.539 C297.95,281.367 301.827,279.781 306.817,279.781 C311.806,279.781 315.684,281.367 318.45,284.539 C321.215,287.711 322.598,292.151 322.598,297.859 C322.598,303.578 321.215,308.034 318.45,311.227 C315.684,314.419 311.806,316.016 306.817,316.016 Z M306.817,312.484 C314.66,312.484 318.582,307.609 318.582,297.859 C318.582,288.161 314.66,283.312 306.817,283.312 C298.973,283.312 295.051,288.161 295.051,297.859 C295.051,307.609 298.973,312.484 306.817,312.484 Z M343.472,329.828 C341.566,329.828 339.706,329.635 337.894,329.25 C336.081,328.865 334.493,328.328 333.128,327.641 C332.628,327.422 332.378,326.948 332.378,326.219 L332.378,325.266 C332.378,324.682 332.628,324.391 333.128,324.391 C333.264,324.391 333.412,324.411 333.574,324.453 C333.735,324.495 334.019,324.583 334.425,324.719 C337.644,325.76 340.592,326.281 343.269,326.281 C347.477,326.281 350.568,325.24 352.542,323.156 C354.516,321.073 355.503,317.786 355.503,313.297 L355.503,309.969 C353.826,311.375 351.967,312.487 349.925,313.305 C347.884,314.122 345.936,314.531 344.081,314.531 C339.727,314.531 336.235,312.977 333.605,309.867 C330.975,306.758 329.66,302.646 329.66,297.531 C329.66,292.042 330.964,287.711 333.574,284.539 C336.183,281.367 339.732,279.781 344.222,279.781 C348.482,279.781 352.264,281.297 355.566,284.328 L355.847,281.813 C355.941,281.135 356.326,280.797 357.003,280.797 L358.363,280.797 C359.04,280.797 359.378,281.135 359.378,281.813 L359.378,313.437 C359.378,318.781 358.019,322.849 355.3,325.641 C352.581,328.432 348.639,329.828 343.472,329.828 Z M344.972,310.984 C348.368,310.984 351.878,309.536 355.503,306.641 L355.503,287.734 C353.649,286.193 351.86,285.07 350.136,284.367 C348.412,283.664 346.576,283.312 344.628,283.312 C341.003,283.312 338.272,284.492 336.433,286.852 C334.594,289.211 333.675,292.698 333.675,297.312 C333.675,301.76 334.639,305.151 336.566,307.484 C338.493,309.818 341.295,310.984 344.972,310.984 Z M371.216,329.828 C370.122,329.828 369.08,329.667 368.091,329.344 C367.403,329.167 367.059,328.714 367.059,327.984 L367.059,327.031 C367.059,326.448 367.335,326.156 367.887,326.156 C368.158,326.156 368.406,326.177 368.63,326.219 C368.854,326.26 369.148,326.294 369.512,326.32 C369.877,326.346 370.351,326.359 370.934,326.359 C372.434,326.359 373.627,325.974 374.512,325.203 C375.398,324.432 376.247,323.047 377.059,321.047 L379.372,315.344 L365.981,282.422 C365.794,281.974 365.7,281.682 365.7,281.547 C365.7,281.047 365.976,280.797 366.528,280.797 L368.7,280.797 C369.283,280.797 369.669,281.094 369.856,281.688 L381.216,310.922 L392.7,281.688 C392.877,281.094 393.262,280.797 393.856,280.797 L395.903,280.797 C396.445,280.797 396.716,281.047 396.716,281.547 C396.716,281.682 396.622,281.974 396.434,282.422 L380.387,322.203 C379.262,324.974 377.997,326.937 376.591,328.094 C375.184,329.25 373.393,329.828 371.216,329.828 L371.216,329.828 Z" id="Fill-37" fill="#535B64"></path>
                <path d="M58,385 C57.323,385 56.984,384.661 56.984,383.984 L56.984,338.891 C56.984,338.214 57.323,337.875 58,337.875 L73.234,337.875 C77.547,337.875 80.982,339.143 83.539,341.68 C86.096,344.216 87.375,347.62 87.375,351.891 C87.375,356.099 86.096,359.474 83.539,362.016 C80.982,364.557 77.547,365.828 73.234,365.828 L60.859,365.828 L60.859,383.984 C60.859,384.661 60.521,385 59.844,385 L58,385 Z M73.094,362.219 C79.802,362.219 83.156,358.776 83.156,351.891 C83.156,344.953 79.802,341.484 73.094,341.484 L60.859,341.484 L60.859,362.219 L73.094,362.219 Z M103.972,385.75 C100.847,385.75 98.365,384.854 96.527,383.063 C94.688,381.271 93.769,378.88 93.769,375.891 C93.769,372.578 94.902,369.971 97.167,368.07 C99.433,366.169 102.519,365.219 106.425,365.219 C109.457,365.219 112.696,365.74 116.144,366.781 L116.144,361.062 C116.144,358.302 115.488,356.32 114.175,355.117 C112.863,353.914 110.686,353.312 107.644,353.312 C104.561,353.312 101.253,353.88 97.722,355.016 C97.306,355.151 96.962,355.219 96.691,355.219 C96.243,355.219 96.019,354.922 96.019,354.328 L96.019,353.25 C96.019,352.885 96.087,352.602 96.222,352.398 C96.358,352.195 96.582,352.026 96.894,351.891 C100.477,350.484 104.264,349.781 108.253,349.781 C112.243,349.781 115.201,350.62 117.128,352.297 C119.055,353.974 120.019,356.51 120.019,359.906 L120.019,383.984 C120.019,384.661 119.68,385 119.003,385 L117.566,385 C116.889,385 116.529,384.661 116.488,383.984 L116.207,381.063 C112.311,384.187 108.233,385.75 103.972,385.75 Z M104.519,382.219 C106.238,382.219 108.095,381.867 110.089,381.164 C112.084,380.461 114.102,379.474 116.144,378.203 L116.144,369.703 C113.102,368.88 110.154,368.469 107.3,368.469 C100.957,368.469 97.785,370.917 97.785,375.813 C97.785,377.906 98.352,379.497 99.488,380.586 C100.623,381.674 102.3,382.219 104.519,382.219 Z M131.516,385 C130.829,385 130.485,384.661 130.485,383.984 L130.485,351.812 C130.485,351.135 130.829,350.797 131.516,350.797 L132.797,350.797 C133.527,350.797 133.912,351.135 133.954,351.812 L134.297,355.766 C136.027,353.859 137.717,352.51 139.368,351.719 C141.019,350.927 142.886,350.531 144.969,350.531 C145.699,350.531 146.292,350.552 146.751,350.594 C147.428,350.635 147.766,351 147.766,351.687 L147.766,353.375 C147.766,353.562 147.699,353.734 147.563,353.891 C147.428,354.047 147.245,354.125 147.016,354.125 C146.652,354.125 146.31,354.115 145.993,354.094 C145.675,354.073 145.199,354.062 144.563,354.062 C142.48,354.062 140.633,354.448 139.024,355.219 C137.415,355.99 135.865,357.234 134.376,358.953 L134.376,383.984 C134.376,384.661 134.032,385 133.344,385 L131.516,385 Z M164.424,385.406 C161.747,385.406 159.705,384.693 158.299,383.266 C156.893,381.839 156.189,379.766 156.189,377.047 L156.189,354.203 L150.83,354.203 C150.143,354.203 149.799,353.859 149.799,353.172 L149.799,352.5 C149.799,352.135 149.867,351.862 150.002,351.68 C150.137,351.497 150.413,351.385 150.83,351.344 L156.33,350.859 L156.814,341.891 C156.856,341.526 156.955,341.266 157.111,341.109 C157.268,340.953 157.507,340.875 157.83,340.875 L159.049,340.875 C159.726,340.875 160.064,341.214 160.064,341.891 L160.064,350.797 L169.939,350.797 C170.617,350.797 170.955,351.135 170.955,351.812 L170.955,353.172 C170.955,353.859 170.617,354.203 169.939,354.203 L160.064,354.203 L160.064,376.844 C160.064,378.698 160.463,380.01 161.26,380.781 C162.057,381.552 163.382,381.937 165.236,381.937 C166.549,381.937 167.705,381.823 168.705,381.594 C169.205,381.51 169.604,381.435 169.9,381.367 C170.197,381.299 170.413,381.266 170.549,381.266 C171.049,381.266 171.299,381.536 171.299,382.078 L171.299,383.094 C171.299,383.865 171.049,384.344 170.549,384.531 C168.778,385.115 166.736,385.406 164.424,385.406 Z M179.524,385 C178.837,385 178.493,384.661 178.493,383.984 L178.493,351.812 C178.493,351.135 178.837,350.797 179.524,350.797 L180.884,350.797 C181.602,350.797 181.988,351.135 182.04,351.812 L182.306,354.734 C184.524,353.151 186.858,351.93 189.306,351.07 C191.753,350.211 194.134,349.781 196.446,349.781 C199.759,349.781 202.287,350.654 204.032,352.398 C205.777,354.143 206.649,356.714 206.649,360.109 L206.649,383.984 C206.649,384.661 206.311,385 205.634,385 L203.79,385 C203.113,385 202.774,384.661 202.774,383.984 L202.774,361.75 C202.774,358.802 202.209,356.659 201.079,355.32 C199.949,353.982 198.134,353.312 195.634,353.312 C191.102,353.312 186.686,354.76 182.384,357.656 L182.384,383.984 C182.384,384.661 182.04,385 181.352,385 L179.524,385 Z M231.601,386.016 C226.216,386.016 222.161,384.487 219.437,381.43 C216.713,378.372 215.351,373.828 215.351,367.797 C215.351,362.089 216.724,357.659 219.469,354.508 C222.213,351.357 226.055,349.781 230.992,349.781 C235.117,349.781 238.279,350.958 240.476,353.312 C242.674,355.667 243.773,359.042 243.773,363.437 C243.773,365.25 243.685,366.615 243.508,367.531 C243.372,368.208 242.987,368.547 242.351,368.547 L219.305,368.547 C219.346,373.307 220.388,376.82 222.43,379.086 C224.471,381.352 227.622,382.484 231.883,382.484 C235.143,382.484 238.247,381.917 241.195,380.781 C241.789,380.552 242.195,380.438 242.414,380.438 C242.601,380.438 242.763,380.518 242.898,380.68 C243.034,380.841 243.101,381.036 243.101,381.266 L243.101,382.281 C243.101,383.01 242.851,383.484 242.351,383.703 C239.091,385.245 235.508,386.016 231.601,386.016 Z M239.976,365.422 C240.018,364.786 240.039,364.036 240.039,363.172 C240.039,359.911 239.245,357.443 237.656,355.766 C236.068,354.089 233.737,353.25 230.664,353.25 C223.497,353.25 219.711,357.307 219.305,365.422 L239.976,365.422 Z M253.372,385 C252.685,385 252.341,384.661 252.341,383.984 L252.341,351.812 C252.341,351.135 252.685,350.797 253.372,350.797 L254.654,350.797 C255.383,350.797 255.768,351.135 255.81,351.812 L256.154,355.766 C257.883,353.859 259.573,352.51 261.224,351.719 C262.875,350.927 264.742,350.531 266.825,350.531 C267.555,350.531 268.148,350.552 268.607,350.594 C269.284,350.635 269.622,351 269.622,351.687 L269.622,353.375 C269.622,353.562 269.555,353.734 269.419,353.891 C269.284,354.047 269.102,354.125 268.872,354.125 C268.508,354.125 268.167,354.115 267.849,354.094 C267.531,354.073 267.055,354.062 266.419,354.062 C264.336,354.062 262.49,354.448 260.88,355.219 C259.271,355.99 257.721,357.234 256.232,358.953 L256.232,383.984 C256.232,384.661 255.888,385 255.2,385 L253.372,385 L253.372,385 Z" id="Fill-38" fill="#535B64"></path>
            </g>
        </g>
    </g>
</svg>