<?xml version="1.0" encoding="UTF-8"?>
<svg width="29px" height="28px" viewBox="0 0 29 28" version="1.1" xmlns="http://www.w3.org/2000/svg" xmlns:xlink="http://www.w3.org/1999/xlink">
    <!-- Generator: Sketch 62 (91390) - https://sketch.com -->
    <title>github-image</title>
    <desc>Created with Sketch.</desc>
    <g id="Symbols" stroke="none" stroke-width="1" fill="none" fill-rule="evenodd">
        <g id="legalFooter/midnight" transform="translate(-1373.000000, -33.000000)" fill="#FFFFFF" fill-rule="nonzero">
            <g id="github-image" transform="translate(1373.000000, 33.000000)">
                <path d="M14.5,0 C6.48875,0 0,6.42772999 0,14.3552636 C0,20.6989949 4.15425,26.0785666 9.914375,27.9752339 C10.639375,28.1103623 10.9052083,27.6660212 10.9052083,27.2849834 C10.9052083,26.9441189 10.893125,26.0408281 10.8870833,24.8441503 C6.85366667,25.7097026 6.003,22.9182661 6.003,22.9182661 C5.34325,21.2614213 4.389875,20.8182974 4.389875,20.8182974 C3.07641667,19.9283977 4.491375,19.9466583 4.491375,19.9466583 C5.94741667,20.0464829 6.71229167,21.4257666 6.71229167,21.4257666 C8.00520833,23.6206903 10.1065,22.9864389 10.9354167,22.6200096 C11.0659167,21.691154 11.4392917,21.0593373 11.85375,20.7002123 C8.63354167,20.3410872 5.249,19.1066709 5.249,13.6065792 C5.249,12.03982 5.810875,10.7591435 6.74129167,9.75481068 C6.57816667,9.3920335 6.08879167,7.93240314 6.86816667,5.95538922 C6.86816667,5.95538922 8.08254167,5.57069932 10.8556667,7.42719331 C12.0156667,7.10824155 13.2481667,6.94998305 14.4806667,6.94267881 C15.7131667,6.94998305 16.9456667,7.10824155 18.1056667,7.42719331 C20.8606667,5.57069932 22.0750417,5.95538922 22.0750417,5.95538922 C22.8544167,7.93240314 22.3650417,9.3920335 22.2200417,9.75481068 C23.1444167,10.7591435 23.7062917,12.03982 23.7062917,13.6065792 C23.7062917,19.1212793 20.3169167,20.3350003 17.0906667,20.6880385 C17.5981667,21.1189886 18.0694167,21.9991494 18.0694167,23.3443466 C18.0694167,25.2653614 18.0512917,26.8089905 18.0512917,27.2752444 C18.0512917,27.6514127 18.3050417,28.1006234 19.0481667,27.9569733 C24.849375,26.0724798 29,20.6892559 29,14.3552636 C29,6.42772999 22.507625,0 14.5,0 L14.5,0 Z" id="Path"></path>
            </g>
        </g>
    </g>
</svg>