<?xml version="1.0" encoding="UTF-8"?>
<svg width="29px" height="24px" viewBox="0 0 29 24" version="1.1" xmlns="http://www.w3.org/2000/svg" xmlns:xlink="http://www.w3.org/1999/xlink">
    <!-- Generator: Sketch 64 (93537) - https://sketch.com -->
    <title>Path</title>
    <desc>Created with Sketch.</desc>
    <g id="Symbols" stroke="none" stroke-width="1" fill="none" fill-rule="evenodd">
        <g id="legalFooter/midnight" transform="translate(-1320.000000, -36.000000)" fill="#FFFFFF" fill-rule="nonzero">
            <g id="twitter-brands" transform="translate(1320.000000, 36.000000)">
                <path d="M26.0191055,5.82200571 C26.0375138,6.07750566 26.0375138,6.33306179 26.0375138,6.58856174 C26.0375138,14.3816473 20.0572033,23.3611111 9.12693604,23.3611111 C5.75952445,23.3611111 2.63136379,22.393773 0,20.7147653 C0.478445228,20.7694832 0.938425541,20.7877412 1.43527904,20.7877412 C4.21379576,20.7877412 6.77158309,19.8569753 8.81410865,18.2691454 C6.20115313,18.2143713 4.01141801,16.5170494 3.25696194,14.1809215 C3.62501416,14.2356393 3.99300974,14.2721554 4.37947023,14.2721554 C4.91308364,14.2721554 5.4467537,14.1991233 5.94355056,14.0714295 C3.22020203,13.5238574 1.17761983,11.1512695 1.17761983,8.28588365 L1.17761983,8.21290774 C1.96883582,8.65093174 2.88896636,8.92468971 3.86415181,8.96114957 C2.26325493,7.90257755 1.21443638,6.09576368 1.21443638,4.05165172 C1.21443638,2.95661982 1.50879886,1.95282186 2.02406064,1.07677387 C4.94984355,4.65394173 9.34772206,6.99001351 14.2791573,7.24556964 C14.1871726,6.80754565 14.1319478,6.35131981 14.1319478,5.8950378 C14.1319478,2.6463458 16.7817199,0 20.0754983,0 C21.7867882,0 23.3324603,0.711781967 24.418152,1.86158793 C25.7613897,1.60608798 27.0494592,1.11328992 28.1903757,0.438023993 C27.7486904,1.80687004 26.8102649,2.956676 25.5774202,3.68665981 C26.773505,3.55896601 27.9327732,3.23037779 29,2.77415196 C28.190489,3.94215976 27.1783737,4.98241759 26.0191055,5.82200571 Z" id="Path"></path>
            </g>
        </g>
    </g>
</svg>