<svg width="352" height="46" viewBox="0 0 352 46" fill="none" xmlns="http://www.w3.org/2000/svg">
    <path d="M61.5156 45V2.03125H69.2793C71.4766 2.03125 73.1774 2.35677 74.3818 3.00781C75.5863 3.65885 76.4326 4.69238 76.9209 6.1084C77.4092 7.52441 77.6615 9.38802 77.6777 11.6992V12.627C77.6777 15.0195 77.4499 16.9727 76.9941 18.4863C76.5547 19.9837 75.7002 21.0661 74.4307 21.7334C75.4561 22.1403 76.2536 22.8483 76.8232 23.8574C77.3929 24.8665 77.7917 26.0791 78.0195 27.4951C78.2637 28.9111 78.3857 30.4329 78.3857 32.0605V32.9639C78.3532 35.7633 78.0684 38.0501 77.5312 39.8242C77.0104 41.5983 76.1396 42.9085 74.9189 43.7549C73.6982 44.585 72.0299 45 69.9141 45H61.5156ZM66.5693 40.9229H69.6699C70.6302 40.9229 71.3708 40.6868 71.8916 40.2148C72.4124 39.7428 72.7786 38.9209 72.9902 37.749C73.2018 36.5609 73.3076 34.917 73.3076 32.8174V31.3281C73.3076 28.6751 73.096 26.7708 72.6729 25.6152C72.2497 24.4434 71.3382 23.8574 69.9385 23.8574H66.5693V40.9229ZM66.5693 19.9756H69.4258C70.1094 19.9756 70.6628 19.9023 71.0859 19.7559C71.5091 19.5931 71.8346 19.2757 72.0625 18.8037C72.3066 18.3317 72.4694 17.6318 72.5508 16.7041C72.6322 15.7764 72.6729 14.5312 72.6729 12.9688V11.7725C72.6729 10.1449 72.5508 8.93229 72.3066 8.13477C72.0625 7.33724 71.6719 6.80827 71.1348 6.54785C70.6139 6.28743 69.9222 6.15723 69.0596 6.15723H66.5693V19.9756ZM94.6064 45.5127C92.4906 45.5127 90.806 45.0977 89.5527 44.2676C88.3158 43.4212 87.4287 42.1436 86.8916 40.4346C86.3545 38.7256 86.0859 36.569 86.0859 33.9648V2.03125H91.1396V33.8428C91.1396 35.389 91.1966 36.7155 91.3105 37.8223C91.4245 38.929 91.7256 39.7754 92.2139 40.3613C92.7021 40.9473 93.4997 41.2402 94.6064 41.2402C95.7295 41.2402 96.527 40.9473 96.999 40.3613C97.471 39.7754 97.7559 38.9372 97.8535 37.8467C97.9674 36.7399 98.0244 35.4134 98.0244 33.8672V2.03125H103.054V33.9648C103.054 36.569 102.793 38.7256 102.272 40.4346C101.752 42.1436 100.873 43.4212 99.6357 44.2676C98.415 45.0977 96.7386 45.5127 94.6064 45.5127ZM112.219 45V2.03125H117.272V45H112.219ZM126.828 45V2.03125H131.882V40.8252H139.816V45H126.828ZM146.906 45V6.23047H142.17V2.03125H156.354V6.23047H151.936V45H146.906ZM177.541 45V2.03125H185.305C187.502 2.03125 189.203 2.35677 190.407 3.00781C191.612 3.65885 192.458 4.69238 192.946 6.1084C193.435 7.52441 193.687 9.38802 193.703 11.6992V12.627C193.703 15.0195 193.475 16.9727 193.02 18.4863C192.58 19.9837 191.726 21.0661 190.456 21.7334C191.481 22.1403 192.279 22.8483 192.849 23.8574C193.418 24.8665 193.817 26.0791 194.045 27.4951C194.289 28.9111 194.411 30.4329 194.411 32.0605V32.9639C194.379 35.7633 194.094 38.0501 193.557 39.8242C193.036 41.5983 192.165 42.9085 190.944 43.7549C189.724 44.585 188.055 45 185.939 45H177.541ZM182.595 40.9229H185.695C186.656 40.9229 187.396 40.6868 187.917 40.2148C188.438 39.7428 188.804 38.9209 189.016 37.749C189.227 36.5609 189.333 34.917 189.333 32.8174V31.3281C189.333 28.6751 189.121 26.7708 188.698 25.6152C188.275 24.4434 187.364 23.8574 185.964 23.8574H182.595V40.9229ZM182.595 19.9756H185.451C186.135 19.9756 186.688 19.9023 187.111 19.7559C187.535 19.5931 187.86 19.2757 188.088 18.8037C188.332 18.3317 188.495 17.6318 188.576 16.7041C188.658 15.7764 188.698 14.5312 188.698 12.9688V11.7725C188.698 10.1449 188.576 8.93229 188.332 8.13477C188.088 7.33724 187.697 6.80827 187.16 6.54785C186.639 6.28743 185.948 6.15723 185.085 6.15723H182.595V19.9756ZM206.774 45V26.958L199.304 2.03125H204.309L209.289 19.4873H209.387L213.708 2.03125H218.762L211.828 26.958V45H206.774ZM239.729 45V2.03125H247.492C249.689 2.03125 251.39 2.35677 252.595 3.00781C253.799 3.65885 254.646 4.69238 255.134 6.1084C255.622 7.52441 255.874 9.38802 255.891 11.6992V12.627C255.891 15.0195 255.663 16.9727 255.207 18.4863C254.768 19.9837 253.913 21.0661 252.644 21.7334C253.669 22.1403 254.466 22.8483 255.036 23.8574C255.606 24.8665 256.005 26.0791 256.232 27.4951C256.477 28.9111 256.599 30.4329 256.599 32.0605V32.9639C256.566 35.7633 256.281 38.0501 255.744 39.8242C255.223 41.5983 254.353 42.9085 253.132 43.7549C251.911 44.585 250.243 45 248.127 45H239.729ZM244.782 40.9229H247.883C248.843 40.9229 249.584 40.6868 250.104 40.2148C250.625 39.7428 250.992 38.9209 251.203 37.749C251.415 36.5609 251.521 34.917 251.521 32.8174V31.3281C251.521 28.6751 251.309 26.7708 250.886 25.6152C250.463 24.4434 249.551 23.8574 248.151 23.8574H244.782V40.9229ZM244.782 19.9756H247.639C248.322 19.9756 248.876 19.9023 249.299 19.7559C249.722 19.5931 250.048 19.2757 250.275 18.8037C250.52 18.3317 250.682 17.6318 250.764 16.7041C250.845 15.7764 250.886 14.5312 250.886 12.9688V11.7725C250.886 10.1449 250.764 8.93229 250.52 8.13477C250.275 7.33724 249.885 6.80827 249.348 6.54785C248.827 6.28743 248.135 6.15723 247.272 6.15723H244.782V19.9756ZM264.641 45V2.03125H277.482V6.23047H269.694V20.9277H277.067V25.127H269.694V40.8008H277.58V45H264.641ZM293.557 45.5127C291.473 45.5127 289.813 45.0081 288.576 43.999C287.339 42.9736 286.452 41.4762 285.915 39.5068C285.378 37.5374 285.109 35.1449 285.109 32.3291V14.4336C285.109 12.5456 285.231 10.8203 285.476 9.25781C285.72 7.67904 286.151 6.31999 286.77 5.18066C287.404 4.02507 288.283 3.13802 289.406 2.51953C290.529 1.88477 291.97 1.56738 293.728 1.56738C295.404 1.56738 296.771 1.86849 297.829 2.4707C298.887 3.05664 299.709 3.90299 300.295 5.00977C300.881 6.10026 301.28 7.40234 301.491 8.91602C301.719 10.4134 301.833 12.0736 301.833 13.8965V18.6572H296.877V13.8721C296.877 11.2028 296.682 9.20898 296.291 7.89062C295.917 6.55599 295.062 5.88867 293.728 5.88867C292.312 5.88867 291.359 6.57227 290.871 7.93945C290.399 9.29036 290.163 11.2598 290.163 13.8477V32.4512C290.163 34.5345 290.253 36.2272 290.432 37.5293C290.611 38.8151 290.944 39.751 291.433 40.3369C291.937 40.9229 292.653 41.2158 293.581 41.2158C294.932 41.2158 295.819 40.5322 296.242 39.165C296.665 37.7979 296.877 35.5518 296.877 32.4268V27.666H301.882V32.3779C301.882 35.2425 301.63 37.6514 301.125 39.6045C300.637 41.5576 299.79 43.0306 298.586 44.0234C297.382 45.0163 295.705 45.5127 293.557 45.5127ZM310.51 45V2.03125H315.563V22.5146L323.205 2.03125H328.283L320.275 23.2471L328.845 45H323.571L315.612 24.4434V45H310.51ZM339.548 45V26.958L332.077 2.03125H337.082L342.062 19.4873H342.16L346.481 2.03125H351.535L344.602 26.958V45H339.548Z" fill="#101"/>
    <path d="M35.2339 22.25L35.1714 22.2188C37.5245 19.9271 38.701 17.1354 38.701 13.8438C38.701 10.7188 37.5349 8.01042 35.2026 5.71875C32.8912 3.40625 30.1529 2.25 26.9876 2.25H2.24897V45H0V0H26.9876C29.4449 0 31.7459 0.635417 33.8907 1.90625C36.0564 3.15625 37.7744 4.85417 39.0446 7C40.3149 9.125 40.95 11.4062 40.95 13.8438C40.95 17.1771 40.0546 20.0417 38.2637 22.4375C40.0546 24.9167 40.95 27.6458 40.95 30.625C40.95 33.4792 40.3045 36 39.0134 38.1875C37.7223 40.3542 36.0252 41.9896 33.922 43.0938C31.8396 44.1979 29.5281 44.75 26.9876 44.75H12.7754V42.5H26.9876C30.1945 42.5 32.9432 41.3646 35.2339 39.0937C37.5453 36.8021 38.701 33.9792 38.701 30.625C38.701 29.0833 38.3678 27.5625 37.7015 26.0625C37.0351 24.5625 36.2022 23.3021 35.2026 22.2812C35.2026 22.2604 35.213 22.25 35.2339 22.25ZM26.9876 33.5H12.7754V35.75H26.9876C28.362 35.75 29.5281 35.2917 30.486 34.375C31.4648 33.4375 31.9541 32.1875 31.9541 30.625C31.9541 29.2708 31.4543 28.0833 30.4548 27.0625C29.4553 26.0208 28.2995 25.5 26.9876 25.5H12.7442V27.75H26.9876C27.6957 27.75 28.3204 28.0417 28.8618 28.625C29.424 29.2083 29.7051 29.875 29.7051 30.625C29.7051 31.5417 29.4449 32.25 28.9243 32.75C28.4037 33.25 27.7581 33.5 26.9876 33.5ZM26.9876 38H12.7754V40.25H26.9876C29.5698 40.25 31.7875 39.3333 33.6408 37.5C35.515 35.6458 36.4521 33.3542 36.4521 30.625C36.4521 28.8958 35.9835 27.2708 35.0465 25.75C34.1302 24.2083 32.912 23.0208 31.3919 22.1875C32.912 21.3958 34.1302 20.2708 35.0465 18.8125C35.9835 17.3333 36.4521 15.6771 36.4521 13.8438C36.4521 11.3438 35.5046 9.16667 33.6096 7.3125C31.7355 5.4375 29.5281 4.5 26.9876 4.5H4.49794V45H6.74691V6.75H26.9876C28.9034 6.75 30.5797 7.46875 32.0166 8.90625C33.4743 10.3229 34.2031 11.9688 34.2031 13.8438C34.2031 15.9271 33.4951 17.6458 32.0791 19C30.663 20.3333 28.9659 21 26.9876 21H12.7754V23.25H26.9876C28.9034 23.25 30.5797 23.9896 32.0166 25.4688C33.4743 26.9479 34.2031 28.6667 34.2031 30.625C34.2031 32.7917 33.4951 34.5625 32.0791 35.9375C30.663 37.3125 28.9659 38 26.9876 38ZM26.9876 16.5H12.7754V18.75H26.9876C28.3828 18.75 29.5594 18.3125 30.5173 17.4375C31.4752 16.5417 31.9541 15.3438 31.9541 13.8438C31.9541 12.5729 31.4543 11.4479 30.4548 10.4688C29.4553 9.48958 28.2995 9 26.9876 9H8.99588V45H11.2449V11.25H26.9876C27.6957 11.25 28.3204 11.5208 28.8618 12.0625C29.424 12.5833 29.7051 13.1771 29.7051 13.8438C29.7051 14.6979 29.4449 15.3542 28.9243 15.8125C28.4037 16.2708 27.7581 16.5 26.9876 16.5Z" fill="url(#paint0_linear_5071_29090)"/>
    <defs>
        <linearGradient id="paint0_linear_5071_29090" x1="39.9555" y1="0.834056" x2="39.9555" y2="47.2588" gradientUnits="userSpaceOnUse">
            <stop stop-color="#89E6E3"/>
            <stop offset="0.505208" stop-color="#FFF7AE"/>
            <stop offset="1" stop-color="#FF6392"/>
        </linearGradient>
    </defs>
</svg>
