<svg height="471" viewBox="0 0 567 471" width="567" xmlns="http://www.w3.org/2000/svg" xmlns:xlink="http://www.w3.org/1999/xlink"><defs><path id="a" d="m25 50c-13.8071187 0-25-11.1928813-25-25s11.1928813-25 25-25 25 11.1928813 25 25-11.1928813 25-25 25zm0-1c13.254834 0 24-10.745166 24-24s-10.745166-24-24-24-24 10.745166-24 24 10.745166 24 24 24z"/><path id="b" d="m25 50c-13.8071187 0-25-11.1928813-25-25s11.1928813-25 25-25 25 11.1928813 25 25-11.1928813 25-25 25zm0-1c13.254834 0 24-10.745166 24-24s-10.745166-24-24-24-24 10.745166-24 24 10.745166 24 24 24z"/><path id="c" d="m25 50c-13.8071187 0-25-11.1928813-25-25s11.1928813-25 25-25 25 11.1928813 25 25-11.1928813 25-25 25zm0-1c13.254834 0 24-10.745166 24-24s-10.745166-24-24-24-24 10.745166-24 24 10.745166 24 24 24z"/><rect id="d" height="120" rx="2.88" width="380"/><filter id="e" height="150.8%" width="116.1%" x="-8%" y="-22.1%"><feOffset dx="0" dy="4" in="SourceAlpha" result="shadowOffsetOuter1"/><feGaussianBlur in="shadowOffsetOuter1" result="shadowBlurOuter1" stdDeviation="9.5"/><feColorMatrix in="shadowBlurOuter1" type="matrix" values="0 0 0 0 0   0 0 0 0 0   0 0 0 0 0  0 0 0 0.28 0"/></filter><rect id="f" height="140" rx="2.88" width="362"/><filter id="g" height="143.6%" width="116.9%" x="-8.4%" y="-18.9%"><feOffset dx="0" dy="4" in="SourceAlpha" result="shadowOffsetOuter1"/><feGaussianBlur in="shadowOffsetOuter1" result="shadowBlurOuter1" stdDeviation="9.5"/><feColorMatrix in="shadowBlurOuter1" type="matrix" values="0 0 0 0 0   0 0 0 0 0   0 0 0 0 0  0 0 0 0.28 0"/></filter><rect id="h" height="58.5" rx="6.6339" width="490.516165" y=".289091"/><mask id="i" fill="#fff" height="58.5" width="490.516165" x="0" y="0"><use xlink:href="#h"/></mask><mask id="j" fill="#fff" height="58.5" width="490.516165" x="0" y="0"><use xlink:href="#h"/></mask><linearGradient id="k" x1="0%" x2="100%" y1="50%" y2="50%"><stop offset="0" stop-color="#2ca69d"/><stop offset="1" stop-color="#2be3d6"/></linearGradient><path id="l" d="m17.0822235 2.97422775c3.7769282 3.76563775 3.7769282 9.86664835.0021997 13.63228605-3.7769282 3.7634558-9.89840155 3.7634558-13.67313001 0-3.77472846-3.7656377-3.77472846-9.8666483 0-13.63228605 3.77472846-3.76345579 9.89620181-3.76345579 13.67093031 0z"/><filter id="m" height="587.6%" width="586.2%" x="-243.1%" y="-207.5%"><feOffset dx="0" dy="7" in="SourceAlpha" result="shadowOffsetOuter1"/><feGaussianBlur in="shadowOffsetOuter1" result="shadowBlurOuter1" stdDeviation="14.5"/><feColorMatrix in="shadowBlurOuter1" type="matrix" values="0 0 0 0 0.976470588   0 0 0 0 0.309803922   0 0 0 0 0.450980392  0 0 0 1 0"/></filter><mask id="n" fill="#fff"><use fill="#fff" fill-rule="evenodd" xlink:href="#a"/></mask><mask id="o" fill="#fff"><use fill="#fff" fill-rule="evenodd" xlink:href="#b"/></mask><mask id="p" fill="#fff"><use fill="#fff" fill-rule="evenodd" xlink:href="#c"/></mask><mask id="q" fill="#fff"><use fill="#fff" fill-rule="evenodd" xlink:href="#h"/></mask></defs><g fill="none" fill-rule="evenodd"><g transform="translate(0 21)"><path d="m23.3945312 28.9335938h1v352.2583912h-1z" fill="#c2d1d9" fill-rule="nonzero"/><circle cx="25" cy="377" fill="#22354a" r="24" stroke="#2be3d6" stroke-width="2"/><g transform="translate(0 352)"><use fill="#424b5a" xlink:href="#a"/><g fill="#22354a" mask="url(#n)"><path d="m0 0h50v50h-50z"/></g><text fill="#a1aeb7" font-family="Ubuntu-Medium, Ubuntu" font-size="21" font-weight="400"><tspan x="19.036" y="29">3</tspan></text></g><circle cx="25" cy="201" fill="#22354a" r="24" stroke="#2be3d6" stroke-width="2"/><g transform="translate(0 176)"><use fill="#424b5a" xlink:href="#b"/><g fill="#22354a" mask="url(#o)"><path d="m0 0h50v50h-50z"/></g><text fill="#a1aeb7" font-family="Ubuntu-Medium, Ubuntu" font-size="21" font-weight="400"><tspan x="19.036" y="29">2</tspan></text></g><circle cx="25" cy="25" fill="#22354a" r="24" stroke="#2be3d6" stroke-width="2"/><g><use fill="#424b5a" xlink:href="#c"/><g fill="#22354a" mask="url(#p)"><path d="m0 0h50v50h-50z"/></g><text fill="#a1aeb7" font-family="Ubuntu-Medium, Ubuntu" font-size="21" font-weight="400"><tspan x="19.036" y="29">1</tspan></text></g></g><g transform="translate(81 328)"><use fill="#000" filter="url(#e)" xlink:href="#d"/><use fill="#252f35" fill-rule="evenodd" xlink:href="#d"/><text fill="#f7f7f7" font-family="Courier" font-size="13.64"><tspan x="15" y="27">{</tspan> <tspan x="15" y="45.808">"trait_key":"cookie",</tspan> <tspan x="15" y="64.616">"trait_value":"accepted</tspan> <tspan x="15" y="80.616">”</tspan> <tspan x="15" y="99.424">}</tspan></text></g><g transform="translate(85 15)"><use fill="#000" filter="url(#g)" xlink:href="#f"/><use fill="#252f35" fill-rule="evenodd" xlink:href="#f"/><g font-family="Courier" font-size="13.64"><text><tspan fill="#f7f7f7" x="23.93127" y="27"/><tspan fill="#f7f7f7" x="23.93127" y="45.808"/> <tspan fill="#2be3d6" x="15" y="58.557192">If bulletTrain.identify("user_123456");</tspan> <tspan fill="#2be3d6" x="23.93127" y="78.224001"/><tspan fill="#2be3d6" x="15" y="85.773193">f !has accepted cookies </tspan><tspan fill="#2be3d6" x="23.93127" y="105.440002"/><tspan fill="#2be3d6" x="15" y="112.989194">else show cookie</tspan></text><text fill="#f7f7f7"><tspan x="15" y="28">// User Traits</tspan></text></g></g><g transform="translate(76 198)"><g mask="url(#i)" stroke="#2be3d6" stroke-dasharray="6.5" stroke-width="2.6"><use mask="url(#j)" xlink:href="#h"/></g><g mask="url(#q)"><g transform="translate(0 -.326463)"><path d="m0 0h490.516165v59.668036h-490.516165z" fill="#132333"/><g fill="none"><g transform="translate(18.781024 13.812045)"><rect fill="url(#k)" height="30.815406" rx="2.676234" width="120.945999"/><text fill="#fff" font-family="Raleway-Bold, Raleway" font-size="12.043055" font-weight="bold" letter-spacing="-.185277893"><tspan x="17.210185" y="19.415594">Accept Cookies</tspan></text></g><g stroke="#c2d1d9" stroke-linecap="round" stroke-width="6.6339" transform="translate(167.924453 20.441827)"><path d="m0 .55248182h300.496389"/><path d="m0 16.0219727h145.604724"/><path d="m159.848008 16.0219727h140.648381"/></g></g></g></g></g><g transform="translate(148.3955 230.555073)"><g opacity=".75"><use fill="#000" filter="url(#m)" xlink:href="#l"/><use fill="#f94f73" fill-rule="evenodd" xlink:href="#l"/></g><g fill-rule="nonzero"><path d="m17.068913 28.2037198-8.01438179-19.17929303 19.23449609 7.99043683-8.3021849 2.9114645z" fill="#fff"/><path d="m17.1585625 31.3567769-10.20949249-24.43147892 24.50147109 10.17786202-10.5748355 3.7082692zm-5.9985589-20.2343179 5.8192599 13.9269952 2.1187268-6.0105322 6.029512-2.1145367z" fill="#373a3c" stroke="#fff"/></g></g></g></svg>