<svg height="402" viewBox="0 0 50 402" width="50" xmlns="http://www.w3.org/2000/svg" xmlns:xlink="http://www.w3.org/1999/xlink"><defs><path id="a" d="m25 50c-13.8071187 0-25-11.1928813-25-25s11.1928813-25 25-25 25 11.1928813 25 25-11.1928813 25-25 25zm0-1c13.254834 0 24-10.745166 24-24s-10.745166-24-24-24-24 10.745166-24 24 10.745166 24 24 24z"/><path id="b" d="m25 50c-13.8071187 0-25-11.1928813-25-25s11.1928813-25 25-25 25 11.1928813 25 25-11.1928813 25-25 25zm0-1c13.254834 0 24-10.745166 24-24s-10.745166-24-24-24-24 10.745166-24 24 10.745166 24 24 24z"/><path id="c" d="m25 50c-13.8071187 0-25-11.1928813-25-25s11.1928813-25 25-25 25 11.1928813 25 25-11.1928813 25-25 25zm0-1c13.254834 0 24-10.745166 24-24s-10.745166-24-24-24-24 10.745166-24 24 10.745166 24 24 24z"/><mask id="d" fill="#fff"><use fill="#fff" fill-rule="evenodd" xlink:href="#a"/></mask><mask id="e" fill="#fff"><use fill="#fff" fill-rule="evenodd" xlink:href="#b"/></mask><mask id="f" fill="#fff"><use fill="#fff" fill-rule="evenodd" xlink:href="#c"/></mask></defs><g fill="none" fill-rule="evenodd"><path d="m23.3945312 28.9335938h1v352.2583912h-1z" fill="#c2d1d9" fill-rule="nonzero"/><g transform="translate(0 352)"><circle cx="25" cy="25" fill="#22354a" r="24" stroke="#2be3d6" stroke-width="2"/><use fill="#424b5a" xlink:href="#a"/><g fill="#22354a" mask="url(#d)"><path d="m0 0h50v50h-50z"/></g><path d="m23.992 33.315c-.3780019 0-.766498-.0244998-1.1655-.0735s-.7769982-.1119996-1.134-.189-.6824985-.1609995-.9765-.252-.5179992-.1784996-.672-.2625l.504-2.163c.2940015.1400007.7209972.2974991 1.281.4725s1.2529959.2625 2.079.2625c1.1060055 0 1.9039976-.2134979 2.394-.6405s.735-.9974964.735-1.7115c0-.4620023-.0944991-.8469985-.2835-1.155s-.4479984-.5564991-.777-.7455-.7069979-.3219996-1.134-.399-.8784976-.1155-1.3545-.1155h-.861v-2.058h1.05c.3220016 0 .6474984-.0314997.9765-.0945s.6264987-.1749992.8925-.336.4829992-.3744987.651-.6405.252-.6089979.252-1.029c0-.3360017-.0629994-.6229988-.189-.861s-.290499-.4339992-.4935-.588-.4374987-.2659997-.7035-.336-.5459985-.105-.84-.105c-.6300032 0-1.1899976.0944991-1.68.2835s-.9239981.4024988-1.302.6405l-.924-1.89c.196001-.1260006.4339986-.2589993.714-.399s.5914983-.2729994.9345-.399.710498-.2274996 1.1025-.3045.8049978-.1155 1.239-.1155c.8120041 0 1.5119971.097999 2.1.294s1.0744981.4724982 1.4595.8295.6719991.7769976.861 1.26.2835 1.0114971.2835 1.5855c0 .6720034-.1854981 1.2739973-.5565 1.806s-.8504971.9379986-1.4385 1.218c.7560038.2660013 1.3824975.7069969 1.8795 1.323s.7455 1.4069952.7455 2.373c0 .6440032-.1119989 1.2424972-.336 1.7955s-.5669977 1.028998-1.029 1.428-1.0464965.7139988-1.7535.945-1.5504951.3465-2.5305.3465z" fill="#a1aeb7" fill-rule="nonzero"/></g><g transform="translate(0 176)"><circle cx="25" cy="25" fill="#22354a" r="24" stroke="#2be3d6" stroke-width="2"/><use fill="#424b5a" xlink:href="#b"/><g fill="#22354a" mask="url(#e)"><path d="m0 0h50v50h-50z"/></g><path d="m29.137 22.227c0 .5040025-.104999.9974976-.315 1.4805s-.4794984.9519977-.8085 1.407-.7034979.8959979-1.1235 1.323-.8399979.843498-1.26 1.2495c-.2240011.2100011-.4759986.4619985-.756.756s-.5459987.5879985-.798.882-.4689991.5774986-.651.8505-.2799999.5004991-.294.6825h6.468v2.142h-9.261c-.0140001-.1120006-.021-.2484992-.021-.4095v-.3675c0-.6720034.1084989-1.2914972.3255-1.8585s.5004982-1.0954976.8505-1.5855c.3500017-.4900024.7419978-.9519978 1.176-1.386s.8679978-.8609979 1.302-1.281c.3360017-.3220016.6579985-.6369985.966-.945s.5774988-.6124985.8085-.9135.4164993-.6089984.5565-.924.21-.6404983.21-.9765c0-.7280036-.2099979-1.2459985-.63-1.554s-.930997-.462-1.533-.462c-.392002 0-.7559983.0559994-1.092.168s-.6334987.2449992-.8925.399-.486499.3114992-.6825.4725-.3429995.2904995-.441.3885l-1.26-1.785c.5880029-.5600028 1.277496-1.0114983 2.0685-1.3545s1.6414954-.5145 2.5515-.5145c1.5540078 0 2.6984963.3674963 3.4335 1.1025s1.1025 1.7394936 1.1025 3.0135z" fill="#a1aeb7" fill-rule="nonzero"/></g><circle cx="25" cy="25" fill="#22354a" r="24" stroke="#2be3d6" stroke-width="2"/><use fill="#424b5a" xlink:href="#c"/><g fill="#22354a" mask="url(#f)"><path d="m0 0h50v50h-50z"/></g><path d="m20.926 21.471c.8120041-.3220016 1.6274959-.7349975 2.4465-1.239s1.5434968-1.0989966 2.1735-1.785h1.785v14.553h-2.541v-11.151c-.3780019.2940015-.8539971.5809986-1.428.861s-1.1269973.5109991-1.659.693z" fill="#a1aeb7" fill-rule="nonzero"/></g></svg>