<svg height="471" viewBox="0 0 505 471" width="505" xmlns="http://www.w3.org/2000/svg" xmlns:xlink="http://www.w3.org/1999/xlink"><defs><rect id="a" height="120" rx="2.88" width="380"/><filter id="b" height="150.8%" width="116.1%" x="-8%" y="-22.1%"><feOffset dx="0" dy="4" in="SourceAlpha" result="shadowOffsetOuter1"/><feGaussianBlur in="shadowOffsetOuter1" result="shadowBlurOuter1" stdDeviation="9.5"/><feColorMatrix in="shadowBlurOuter1" type="matrix" values="0 0 0 0 0   0 0 0 0 0   0 0 0 0 0  0 0 0 0.28 0"/></filter><rect id="c" height="140" rx="2.88" width="362"/><filter id="d" height="143.6%" width="116.9%" x="-8.4%" y="-18.9%"><feOffset dx="0" dy="4" in="SourceAlpha" result="shadowOffsetOuter1"/><feGaussianBlur in="shadowOffsetOuter1" result="shadowBlurOuter1" stdDeviation="9.5"/><feColorMatrix in="shadowBlurOuter1" type="matrix" values="0 0 0 0 0   0 0 0 0 0   0 0 0 0 0  0 0 0 0.28 0"/></filter><rect id="e" height="58.5" rx="6.6339" width="490.516165" y=".289091"/><mask id="f" fill="#fff" height="58.5" width="490.516165" x="0" y="0"><use xlink:href="#e"/></mask><mask id="g" fill="#fff" height="58.5" width="490.516165" x="0" y="0"><use xlink:href="#e"/></mask><linearGradient id="h" x1="0%" x2="100%" y1="50%" y2="50%"><stop offset="0" stop-color="#2ca69d"/><stop offset="1" stop-color="#2be3d6"/></linearGradient><path id="i" d="m17.0822235 2.97422775c3.7769282 3.76563775 3.7769282 9.86664835.0021997 13.63228605-3.7769282 3.7634558-9.89840155 3.7634558-13.67313001 0-3.77472846-3.7656377-3.77472846-9.8666483 0-13.63228605 3.77472846-3.76345579 9.89620181-3.76345579 13.67093031 0z"/><filter id="j" height="587.6%" width="586.2%" x="-243.1%" y="-207.5%"><feOffset dx="0" dy="7" in="SourceAlpha" result="shadowOffsetOuter1"/><feGaussianBlur in="shadowOffsetOuter1" result="shadowBlurOuter1" stdDeviation="14.5"/><feColorMatrix in="shadowBlurOuter1" type="matrix" values="0 0 0 0 0.976470588   0 0 0 0 0.309803922   0 0 0 0 0.450980392  0 0 0 1 0"/></filter><mask id="k" fill="#fff"><use fill="#fff" fill-rule="evenodd" xlink:href="#e"/></mask></defs><g fill="none" fill-rule="evenodd"><g transform="translate(19 328)"><use fill="#000" filter="url(#b)" xlink:href="#a"/><use fill="#252f35" fill-rule="evenodd" xlink:href="#a"/><text fill="#f7f7f7" font-family="Courier" font-size="13.64"><tspan x="15" y="27">{</tspan> <tspan x="15" y="45.808">"trait_key":"cookie",</tspan> <tspan x="15" y="64.616">"trait_value":"accepted</tspan> <tspan x="15" y="80.616">”</tspan> <tspan x="15" y="99.424">}</tspan></text></g><g transform="translate(23 15)"><use fill="#000" filter="url(#d)" xlink:href="#c"/><use fill="#252f35" fill-rule="evenodd" xlink:href="#c"/><g font-family="Courier" font-size="13.64"><text><tspan fill="#f7f7f7" x="23.93127" y="27"/><tspan fill="#f7f7f7" x="23.93127" y="45.808"/> <tspan fill="#2be3d6" x="15" y="58.557192">If bulletTrain.identify("user_123456");</tspan> <tspan fill="#2be3d6" x="23.93127" y="78.224001"/><tspan fill="#2be3d6" x="15" y="85.773193">f !has accepted cookies </tspan><tspan fill="#2be3d6" x="23.93127" y="105.440002"/><tspan fill="#2be3d6" x="15" y="112.989194">else show cookie</tspan></text><text fill="#f7f7f7"><tspan x="15" y="28">// User Traits</tspan></text></g></g><g transform="translate(14 198)"><g mask="url(#f)" stroke="#2be3d6" stroke-dasharray="6.5" stroke-width="2.6"><use mask="url(#g)" xlink:href="#e"/></g><g mask="url(#k)"><g transform="translate(0 -.326463)"><path d="m0 0h490.516165v59.668036h-490.516165z" fill="#132333"/><g fill="none"><g transform="translate(18.781024 13.812045)"><rect fill="url(#h)" height="30.815406" rx="2.676234" width="120.945999"/><text fill="#fff" font-family="Raleway-Bold, Raleway" font-size="12.043055" font-weight="bold" letter-spacing="-.185277893"><tspan x="17.210185" y="19.415594">Accept Cookies</tspan></text></g><g stroke="#c2d1d9" stroke-linecap="round" stroke-width="6.6339" transform="translate(167.924453 20.441827)"><path d="m0 .55248182h300.496389"/><path d="m0 16.0219727h145.604724"/><path d="m159.848008 16.0219727h140.648381"/></g></g></g></g></g><g transform="translate(86.3955 230.555073)"><g opacity=".75"><use fill="#000" filter="url(#j)" xlink:href="#i"/><use fill="#f94f73" fill-rule="evenodd" xlink:href="#i"/></g><g fill-rule="nonzero"><path d="m17.068913 28.2037198-8.01438179-19.17929303 19.23449609 7.99043683-8.3021849 2.9114645z" fill="#fff"/><path d="m17.1585625 31.3567769-10.20949249-24.43147892 24.50147109 10.17786202-10.5748355 3.7082692zm-5.9985589-20.2343179 5.8192599 13.9269952 2.1187268-6.0105322 6.029512-2.1145367z" fill="#373a3c" stroke="#fff"/></g></g></g></svg>