<svg height="44" viewBox="0 0 172 44" width="172" xmlns="http://www.w3.org/2000/svg"><g fill="none"><g fill="#000" transform="translate(44.25 11.435028)"><path d="m2.35175 2.91220339 10.8315 14.17819211v-14.17819211h2.16525v17.60024861h-2.2895l-10.8305-14.30273449v14.30273449h-2.1665v-17.60024861z"/><path d="m32.9245 19.8231186c-1.427.5424181-2.96675.8126328-4.617.8126328-6.41075 0-9.6175-3.0561356-9.6175-9.1694011 0-5.78488137 3.0945-8.67769493 9.2825-8.67769493 1.7755 0 3.42625.24684745 4.95175.73979661v1.96906214c-1.52575-.57448587-3.0945-.86210169-4.70425-.86210169-4.8265 0-7.23925 2.27780791-7.23925 6.83093787 0 4.8817627 2.375 7.323887 7.1295 7.323887.75825 0 1.59975-.0989379 2.52475-.296565v-5.9810169h2.2895z"/><path d="m36.57625 13.7185537v-10.80560455h2.28825v10.80535595c0 3.3805424 1.69225 5.072678 5.076 5.072678 3.38275 0 5.075-1.6923842 5.075-5.072678v-10.80535595h2.2895v10.80535595c0 4.6130395-2.45475 6.9181921-7.3645 6.9181921-4.9095.0002486-7.36425-2.3051526-7.36425-6.9179435z"/><path d="m66.9395 18.6669379v1.8455141h-11.54875v-17.60024861h2.2885v15.75473451z"/><path d="m76.66725.59064407 8.80025 19.92230513h-2.53675l-2.29075-5.5395255h-5.853l.63075-1.8440226h4.456l-3.305-7.97667794-6.3255 15.36022604h-2.376z"/><path d="m87.8815 20.512452v-17.60024861h7.55075c3.36725 0 5.05025 1.40775141 5.05025 4.22126554 0 2.2899887-1.64525 3.98461017-4.9385 5.08287007l6.07725 8.296113h-3.02025l-5.631-7.9135367v-1.4880452c3.3825-.5347119 5.07375-1.8268701 5.07375-3.87746897 0-1.6240226-.9405-2.43764972-2.82075-2.43764972h-5.0515v15.71744629h-2.28975z"/><path d="m110.1995 2.91220339v12.52980791c0 3.3802938-2.00125 5.0701921-6.00425 5.0701921v-1.8457627c2.476 0 3.71425-1.0761356 3.71425-3.224678v-12.52955931z"/><path d="m114.28425 19.8969492v-2.0926102c1.85725.6562712 3.86175.9856497 6.01575.9856497 3.045 0 4.568-1.1079548 4.568-3.3251073 0-1.8842938-1.12325-2.8301695-3.3675-2.8301695h-2.27825c-3.70425 0-5.55825-1.5989153-5.55825-4.79923167 0-3.36363842 2.37375-5.04732204 7.11975-5.04732204 2.06225 0 3.9805.2480904 5.75525.73979661v2.09236158c-1.77525-.65701694-3.693-.98540113-5.75525-.98540113-3.21875 0-4.82775 1.06718644-4.82775 3.20056498 0 1.88628248 1.0885 2.83016947 3.26625 2.83016947h2.27825c3.77 0 5.657 1.6011526 5.657 4.7992317 0 3.4474124-2.2855 5.17087-6.858 5.17087-2.1535 0-4.158-.247096-6.01525-.7388022z"/><path d="m2.93075 2.33722034 10.8305 14.17844066v-14.17844066h2.1665v17.60024856h-2.28975l-10.83125-14.30273444v14.30273444h-2.1655v-17.60024856z"/><path d="m33.50375 19.2481356c-1.427.5424181-2.966.8123842-4.61675.8123842-6.41125 0-9.6175-3.055887-9.6175-9.1691526 0-5.78488132 3.0945-8.67794347 9.28375-8.67794347 1.774 0 3.425.24709604 4.9505.73979661v1.96881356c-1.52575-.57448588-3.0945-.8621017-4.70325-.8621017-4.82675 0-7.24 2.27780791-7.24 6.8309379 0 4.8820113 2.376 7.3241355 7.12925 7.3241355.7585 0 1.601-.0984406 2.52575-.2965649v-5.9812656h2.2885z"/><path d="m37.15525 13.1430734v-10.80684741h2.28825v10.80659891c0 3.3802937 1.69225 5.071435 5.07625 5.071435 3.3825 0 5.07475-1.6913898 5.07475-5.071435v-10.80659891h2.2895v10.80659891c0 4.6127909-2.45475 6.9169491-7.36425 6.9169491-4.90975 0-7.3645-2.303661-7.3645-6.9167006z"/><path d="m67.51775 18.0909605v1.8455141h-11.54775v-17.60024861h2.2885v15.75473451z"/><path d="m77.24675.0139209 8.80025 19.9232994h-2.53825l-2.2895-5.5390282h-5.85425l.63225-1.8455141h4.45475l-3.304-7.976678-6.3255 15.3612203h-2.37625z"/><path d="m88.46075 19.9374689v-17.60024856h7.5505c3.3675 0 5.049 1.40675706 5.049 4.22151412 0 2.28874577-1.64425 3.98436154-4.93725 5.08237284l6.0775 8.2963616h-3.0215l-5.63025-7.9137853v-1.4895367c3.38275-.53471187 5.07475-1.82562713 5.07475-3.87746893 0-1.6240226-.9415-2.43640678-2.823-2.43640678h-5.05v15.71719771z"/><path d="m110.77875 2.33622599v12.53005651c0 3.3812881-2.00125 5.0701921-6.004 5.0701921v-1.8455141c2.47575 0 3.714-1.0763842 3.714-3.2249266v-12.52980791z"/><path d="m114.8625 19.3209718v-2.092113c1.8575.6560226 3.86175.9856497 6.016.9856497 3.04475 0 4.56775-1.108452 4.56775-3.3243616 0-1.8852881-1.123-2.8301695-3.3675-2.8301695h-2.27825c-3.70425 0-5.558-1.5999096-5.558-4.80047458 0-3.36363841 2.37275-5.04707344 7.1195-5.04707344 2.06225 0 3.98075.24809039 5.7555.73979661v2.09261017c-1.7755-.65726554-3.69325-.98564972-5.7555-.98564972-3.21875 0-4.82775 1.06718644-4.82775 3.20056497 0 1.88628249 1.08775 2.83016949 3.26625 2.83016949h2.27825c3.76975 0 5.657 1.6004068 5.657 4.800226 0 3.4466667-2.28525 5.1698757-6.85775 5.1698757-2.1535-.0002486-4.15825-.2473446-6.0155-.7390508z"/><path d="m93.71275 29.3318418-.84075-2.5418079h-.59775l1.16025 3.2117514c-.027.0698531-.07125.1762486-.13125.3199322-.0605.1436836-.096.2227345-.10525.2383955-.03125.0467345-.06975.0860113-.116.1180791-.046.0320678-.1175.0479774-.2145.0479774-.03125 0-.06775-.0032316-.10875-.0087006-.04075-.0057175-.10725-.0213785-.19875-.0467344v.4780339c.0585.015661.10825.0258531.14775.0320678.04.0054689.0975.0084519.17175.0084519.3045 0 .519-.0872542.64375-.2620113.125-.174757.33925-.6597514.644-1.4554802.129-.3378305.28875-.7753446.4805-1.3112994.2555-.7131978.421-1.1698531.49475-1.3702147h-.583zm-3.12175.2140339c-.38025 0-.64-.1715254-.779-.5155706-.0745-.1822147-.11125-.420113-.11125-.7134463 0-.405695.09025-.6970396.272-.8742825.18125-.1762486.39225-.2647458.63325-.2647458.276 0 .48525.1081356.62775.3234124.14225.2155255.21325.4874803.21325.8156159 0 .3691525-.07075.6662146-.21325.891435-.1425.2249717-.35675.3375819-.64275.3375819zm-1.37425.3641808h.48625v-.3987345c.1115.1498983.2165.2585311.31475.3263955.1645.1145989.3665.171774.60575.171774.4275 0 .76175-.1630734 1.00325-.4897175.24125-.3263955.3615-.7358192.3615-1.2290169 0-.5205424-.12175-.9143051-.36625-1.1812882-.24425-.266983-.56225-.4004745-.954-.4004745-.1885 0-.36275.0392768-.524.118079-.16075.0785537-.2985.1926554-.4145.3423051v-1.5526779h-.51275z"/></g><path d="m3.40525 34.3823955 17.4275 9.5243842 17.51725-9.6534012 3.2655-26.92998867-20.80475-7.10587571-20.67225 7.23389831z" fill="#000"/><path d="m25.935 23.3351638-5.1725 2.4050848h-5.45175l-2.56275 6.3737853-4.76675.0877514 12.78125-28.27310733zm-.5-1.21087-4.63825-9.1303729-3.8045 8.9732655h3.77z" fill="#fff"/><path d="m25.1135 21.9741469h-4.3415l-.00975 3.7603842 6.00325.0057175 2.80575 6.4625311 4.561.0840226-13.37-28.35812433.03425 9.06524293z" fill="#fff"/><g fill="#000" transform="translate(141.5 33.80791)"><path d="m12.7103675 5.28113356c0 1.38375028-1.08866 2.40340926-2.4246925 2.40340926s-2.4246925-1.01965898-2.4246925-2.40340926c0-1.3934974 1.08866-2.40340429 2.4246925-2.40340429s2.4246925 1.00990689 2.4246925 2.40340429zm-1.061415 0c0-.86470441-.630965-1.4563478-1.3632775-1.4563478s-1.363275.59164339-1.363275 1.4563478c0 .85604113.6309625 1.45635028 1.363275 1.45635028s1.3632775-.60139299 1.3632775-1.45635028z"/><path d="m17.941165 5.28113356c0 1.38375028-1.0886625 2.40340926-2.424695 2.40340926s-2.42469-1.01965898-2.42469-2.40340926c0-1.39241605 1.0886575-2.40340429 2.42469-2.40340429s2.424695 1.00990689 2.424695 2.40340429zm-1.0614175 0c0-.86470441-.6309625-1.4563478-1.3632775-1.4563478-.73231 0-1.363275.59164339-1.363275 1.4563478 0 .85604113.630965 1.45635028 1.363275 1.45635028.732315 0 1.3632775-.60139299 1.3632775-1.45635028z"/><path d="m22.95401 3.02292927v4.31486372c0 1.7749252-1.0526975 2.49984882-2.29719 2.49984882-1.17148 0-1.87655-.77910328-2.1424475-1.4162556l.924105-.38250915c.164555.39117989.5677625.85278712 1.2172525.85278712.796605 0 1.2902625-.4886983 1.2902625-1.4086687v-.34566599h-.0370525c-.237565.29148633-.69526.54613198-1.272825.54613198-1.2085325 0-2.31572-1.04675254-2.31572-2.39365718 0-1.35665921 1.1071875-2.41207502 2.31572-2.41207502.576475 0 1.03417.25464067 1.272825.53746124h.0370525v-.3911774h1.0080175zm-.932825 2.26687502c0-.84628406-.56776-1.46501853-1.2902625-1.46501853-.7323125 0-1.34584.61873447-1.34584 1.46501853 0 .83761831.6135275 1.44767955 1.34584 1.44767955.7225025 0 1.2902625-.61006124 1.2902625-1.44767955z"/><path d="m24.6158775.49382418v7.04335096h-1.03526v-7.04335096z"/><path d="m28.65013 6.0721591.8238525.54612949c-.2659.3911774-.9066725 1.06517288-2.0138575 1.06517288-1.373085 0-2.39854-1.05542079-2.39854-2.40340927 0-1.42925921 1.0341725-2.40340678 2.279755-2.40340678 1.2543025 0 1.86783.99256791 2.068345 1.5289478l.110065.2730635-3.2311075 1.33065198c.2473725.48220023.632055.72817514 1.1714825.72817514.540515 0 .9153875-.26439774 1.190005-.66532474zm-2.535845-.86470938 2.1598825-.89179548c-.118785-.30015706-.4762225-.50928882-.896865-.50928882-.539425 0-1.2902625.47353198-1.2630175 1.4010843z"/><path d="m3.942245 4.65590102v-1.01965899h3.455595c.0337825.17771029.0512175.38792588.0512175.61548046 0 .76501582-.2103225 1.71099344-.888145 2.38498644-.6593.68266373-1.501675 1.04675254-2.6175775 1.04675254-2.068345 0-3.807585-1.67523661-3.807585-3.73189356 0-2.05665944 1.73924-3.73189356 3.807585-3.73189356 1.144235 0 1.9593675.4464409 2.5718075 1.02832972l-.7235925.71950689c-.43917-.40960023-1.0341725-.72817514-1.849305-.72817514-1.5103925 0-2.69168 1.21037288-2.69168 2.71223209s1.1812875 2.71223209 2.69168 2.71223209c.979685 0 1.537635-.3911774 1.8950725-.74659548.289875-.2882348.48058-.70000271.5557725-1.26238486l-2.450845.00099435z"/></g></g></svg>