<svg height="35" viewBox="0 0 113 35" width="113" xmlns="http://www.w3.org/2000/svg" xmlns:xlink="http://www.w3.org/1999/xlink"><mask id="a" fill="#fff"/><path d="m106.715514 11.4316629c.377809 0 .607611.2636571.701089.6185201.20059.7513253-.77704 2.5822778-4.19485 4.685676.075951-2.4379498 1.546291-5.3041961 3.493761-5.3041961m-10.4618086 0c.5706087 0 .6076106.5632498.6348752.7649963.1441128 1.0634172-.8354646 2.9474918-4.0410003 4.0280956.3427547-2.252804 1.818937-4.7930919 3.4061251-4.7930919m-13.8250897-8.86610685c1.0827934 0 .194747 3.70018414-3.2483799 8.88251215.7887253-6.86778083 1.9279953-8.88251215 3.2483799-8.88251215m-11.8854094 8.86610685c.3213325 0 .4011788.2556497.4440231.4005635.1382704.4736064-.3583345 2.338932-4.0741072 4.946599.2122742-2.4879471 1.7235109-5.3471625 3.6300841-5.3471625m-15.3947505 21.0046872c-.3855991 0-.6485075-.24608-.6485075-.730428 0-2.2283913 3.4703916-5.2731432 3.5073935-5.2829083-.4732352 2.9959265-1.6845616 6.0133363-2.858886 6.0133363m57.2789882-14.7034764c-.586189-.3896267-1.376861-.2300653-1.77025.3556442-.064267.0958931-1.610558 2.3563139-4.305857 2.3563139-1.059423 0-1.861781-.3281067-2.383703-.976508-.035054-.0429664-.068161-.0898388-.103216-.13593.013632-.005859.02337-.0124993.035055-.0191395 6.33512-3.6544836 6.298118-6.7593884 5.98847-7.9245578-.371967-1.39445343-1.6164-2.29537972-3.172429-2.29537972-3.620346 0-6.052737 4.05368002-6.052737 7.83940632 0 .4812231.044792.9419396.120744 1.3831259-1.2833831.9517047-3.2775924 2.1289828-5.028368 2.1289828-1.0204742 0-1.7877774-.3027175-2.2785399-.9042465-.1752723-.2132693-.3096477-.4521232-.4089687-.6995703 4.8511478-1.4110541 6.6895595-4.5163495 6.3526472-6.9914067-.2200641-1.6229563-1.4274955-2.75629152-2.9348373-2.75629152-3.3749655 0-5.8151455 3.55507502-6.2104819 7.08222202-.6446125-.0673791-1.230801-.2577982-1.748828-.5786787.0856886-.5595391.128533-1.1091178.128533-1.6313543 0-1.1495452-.2181167-2.1510518-.6329278-2.8976898-.5647663-1.0212321-1.4820247-1.58370072-2.5823452-1.58370072-.5900834 0-1.1197953.32576308-1.4177582.87221692-.6270853 1.1495453-.2259065 3.3806708.9289432 5.1899448.2239591.3501758.4693403.6733999.7322487.9690865-.6309802 2.0407065-1.9377326 3.9607165-3.6476113 3.9607165-.7673032 0-1.3418068-.2382679-1.8091996-.7480051-.6718772-.7337481-1.1022681-2.039144-1.2424859-3.6896379 4.7596167-5.9637297 7.0712636-11.79738851 5.7567213-14.56012496-.4479181-.93955695-1.2853302-1.47858937-2.2980146-1.47858937-3.2912243 0-5.2503791 4.27202723-5.9904177 13.05942753-.0467393.5376653-.0798463 1.1864572-.0740039 1.8924725-1.7585654 2.3869762-4.6388736 5.4932481-7.2406935 5.4932481-.7419861 0-1.2853302-.251939-1.6553495-.7694883-.033107-.0429663-.062319-.0898387-.0915311-.1367111.0292121-.0175772.0603716-.0351543.0895836-.0546845 6.3857542-4.139808 6.2942231-7.237682 5.9592583-8.3780481-.3661244-1.24094633-1.4761823-2.01258296-2.8958879-2.01258296-3.7157728 0-6.2124294 4.27964396-6.2124294 8.27707716 0 .3616986.0233697.712265.066214 1.0501367-1.1723769.8462419-2.1441645 1.6004966-3.0770026 2.3309246.1402178-1.0936889.3466496-2.4752525.5783986-4.5485743v-.0007812c.0545291-.4185313.1012684-.7616762.1246381-.9300262.2083792-1.5149545-2.2688026-1.8284136-2.5375535-.1376876-.2765407 1.7405278-1.0243692 5.3416941-3.0614228 5.3416941-1.2308011 0-1.8773611-1.3725797-1.7585655-3.368562.1889046-3.1390827 1.8773611-5.6987055 3.9708914-5.6987055.7186164 0 1.0925307.7708554 1.0925307.7708554.6601923 1.2050109 2.7128257.1878802 2.2785399-1.0866581-.1927995-.5693041-.8841514-1.98309242-3.2698022-1.98309242-4.901782 0-6.4169136 4.97608952-6.6350303 8.26047652-.0370019.5403995-.0253171 1.062636.0233697 1.5594833-.683562.8353049-1.4976045 1.5462028-2.2882773 1.5462028-.7770405 0-1.267803-.8671391-.97763-2.870543.2765408-1.9104402.4712878-3.4894537.6017683-4.4138162.5939783-4.17886832-4.6193989-4.06403098-4.6193989-4.06403098s-.0564766-2.43736399-2.0643182-2.43736399c-1.0282642 0-1.9396801.80093187-1.9396801 2.31139446 0 1.39640641 1.1412174 2.08289161 1.1412174 2.08289161l.0058424.0011718c-.2531711 2.1627699-1.2658555 9.3902963-3.5132359 9.3902963-1.0087895 0-1.0769509-1.093689-.9893148-1.8618102.1226906-1.0673232.3154902-2.8750349.3797567-3.3421963.2083793-1.5149545-2.2707501-1.8284136-2.5375534-.1376876-.2765408 1.7405278-1.0243693 5.3416941-3.0614229 5.3416941-1.2308011 0-1.8793086-1.5526478-1.7799876-3.4210982.1694299-3.2015791 1.8987833-5.6461693 3.9923135-5.6461693.7186165 0 1.0925307.7708554 1.0925307.7708554.5452916 1.1936834 2.7011409.3353329 2.2785399-1.0866581-.1850096-.6278946-.8841514-1.98309242-3.2698021-1.98309242-4.9037295 0-6.4188612 4.97608952-6.6350304 8.26047652-.0350544.5081748-.0253171.9993583.0155798 1.4690587-.7010892.9550248-1.5462912 1.6366274-2.3428064 1.6366274-.7264063 0-1.2833828-.3749791-1.1490073-2.0280119.062319-.7720272.9581552-6.0494671.8997311-7.0121087-.099321-1.60069188-.8237798-2.30631656-2.6037674-2.30631656-1.8715187 0-3.2853819.96478986-3.8789708 1.58116176 0 0 .8857094-6.65958931 1.0531918-7.93822889.1772198-1.33994476-2.3916879-1.35347916-2.5593651-.01113219-.0726406.58199877-.7583448 5.85846214-1.3938043 10.72947938-1.4317799 3.1806819-4.3335102 8.0827521-8.62923959 8.0827521-8.13847718 0-4.38278126-17.7900229 3.23007379-17.7900229 1.784272 0 .9873673 2.85765303-.2091583 4.60032922-.8543551 1.24465711 1.298573 2.67621788 2.4876982.66363484 3.2863556-5.5614084.5168585-7.64097985-2.0863246-7.64097985-11.31421656 0-15.51354615 22.62569049-3.72784713 22.62569049 3.88013923 0 6.47670103-2.1873779 8.14977253-4.5388092-.1752723 1.335863-.2954312 2.2459684-.3199693 2.4158808-.1996157 1.3964065 2.4020095 1.2811785 2.5389166.115228.0872467-.7440991.4736247-3.8663858.8044999-6.2484795.1890993-1.361838 1.8491227-3.8677529 3.7498535-3.8677529.4498656 0 .7419861.4464595.6855094.8290553-.0681614.4443112-.8763615 6.3674181-.8218323 7.2501814.1538501 2.4705652 1.914363 3.0447519 3.5930822 3.0447519 1.3281745 0 2.3914931-.6308241 3.2853819-1.6210033.5939783.9960382 1.5131842 1.6151443 2.7517751 1.6151443 2.8335689 0 3.8111988-2.0467608 3.8111988-2.0467608s.3388598 2.0272306 2.7809872 2.0272306c4.9485213 0 6.103371-8.6571341 6.3487522-11.5434964.2901731.0113275 2.0390011.1189387 2.3272267 1.1007198.2765407.9411584-.6017682 3.9599353-.6738246 7.067965-.037002 1.6366274.5628188 3.3943418 3.1471115 3.3943418 1.5774507 0 2.8140942-.726522 3.7118778-1.5487417.5939784.9550248 1.4976045 1.5487417 2.7069834 1.5487417 1.3943885 0 2.3389114-.4491937 2.9387322-.9042464-.0389494.2675632-.0778988.5312203-.1149007.7968305-.0019475.0175772-.003895.0332013-.0058424.0507784.0058424-.0507784-6.525972 4.6774734-6.525972 9.145974 0 1.7420903.8062525 2.8846047 2.8647283 2.8846047 4.0955295 0 5.361385-5.480163 5.9651007-10.0170192.029212-.2148317.0564766-.4179454.0837412-.613247.6407176-.486301 1.2366435-.9530718 1.8150421-1.4061715.8510444-.6659785 1.6728767-1.3085208 2.6193471-2.0077005.0467393.0722616.0915311.1464762.1402179.2167848.8627292 1.2011048 2.1519543 1.835835 3.7313525 1.835835 2.9640494 0 5.7060871-2.2811227 7.6827692-4.5116622.2979629 1.1016963.7731456 2.1465599 1.524869 2.9648736.944523 1.0311924 2.2201158 1.5760839 3.6904557 1.5760839 2.8316214 0 4.7966186-2.2654986 5.813198-4.8983595.7750931.3607221 1.6261375.5683277 2.5336585.6165672.1986419.9265108.5745036 1.7467775 1.1197952 2.412756.6874569.8378438 1.984472 1.839741 4.2532745 1.839741 2.2551703 0 4.492813-1.2089169 5.99626-2.2440154.074004.1074159.14606.2128788.225907.3124826.708879.8808102 2.042896 1.9315328 4.374017 1.9315328 4.097477 0 6.346805-3.3650465 6.440284-3.5095697.385599-.5882485.222011-1.376681-.364177-1.7666983" mask="url(#a)"/></svg>