<svg height="45" viewBox="0 0 130 45" width="130" xmlns="http://www.w3.org/2000/svg"><g fill="none"><path d="m44.3625 23.2125c0-3.7125-2.30625-6.975-5.775-8.23125.15-.7875.225-1.575.225-2.38125 0-6.91875-5.625-12.54375-12.525-12.54375-4.05 0-7.8 1.93125-10.1625 5.19375-1.1625-.9-2.5875-1.3875-4.06875-1.3875-3.675 0-6.65625 2.98125-6.65625 6.65625 0 .80625.15 1.59375.4125 2.325-3.45 1.2375-5.8125 4.55625-5.8125 8.25 0 3.73125 2.325 6.99375 5.79375 8.25-.15.76875-.225 1.575-.225 2.38125 0 6.9 5.60625 12.50625 12.50625 12.50625 4.05 0 7.8-1.95 10.14375-5.2125 1.1625.91875 2.5875 1.425 4.06875 1.425 3.675 0 6.65625-2.98125 6.65625-6.65625 0-.80625-.15-1.59375-.4125-2.325 3.45-1.2375 5.83125-4.55625 5.83125-8.25" fill="#fff"/><g fill="#000" transform="translate(1.5 1.5)"><path d="m15.9375 17.5875 9.7125 4.425 9.7875-8.5875c.15-.7125.20625-1.40625.20625-2.15625 0-6.0375-4.9125-10.95-10.95-10.95-3.61875 0-6.975 1.78125-9.01875 4.7625l-1.63125 8.45625z"/><path d="m5.8875 27.8625c-.15.7125-.20625 1.44375-.20625 2.19375 0 6.05625 4.93125 10.96875 10.9875 10.96875 3.6375 0 7.03125-1.8 9.075-4.8l1.6125-8.41875-2.15625-4.125-9.75-4.44375z"/><path d="m5.83125 11.0625 6.65625 1.575 1.4625-7.55625c-.9-.69375-2.025-1.06875-3.1875-1.06875-2.8875 0-5.25 2.34375-5.25 5.25 0 .61875.1125 1.2375.31875 1.8"/><path d="m5.25 12.65625c-2.9625.975-5.04375 3.825-5.04375 6.95625 0 3.05625 1.89375 5.775 4.725 6.8625l9.3375-8.4375-1.70625-3.65625z"/><path d="m27.43125 36.225c.91875.69375 2.025 1.0875 3.16875 1.0875 2.8875 0 5.25-2.34375 5.25-5.25 0-.6375-.1125-1.25625-.31875-1.81875l-6.6375-1.55625z"/><path d="m28.78125 26.94375 7.3125 1.70625c2.98125-.975 5.04375-3.825 5.04375-6.975 0-3.0375-1.89375-5.775-4.725-6.84375l-9.5625 8.38125z"/><path d="m60.525 29.5875.88125-.09375.05625 1.8c-2.325.31875-4.3125.4875-5.9625.4875-2.19375 0-3.75-.6375-4.66875-1.9125s-1.36875-3.2625-1.36875-5.94375c0-5.3625 2.1375-8.04375 6.39375-8.04375 2.0625 0 3.6.58125 4.6125 1.725s1.51875 2.9625 1.51875 5.41875l-.13125 1.74375h-10.0875c0 1.6875.3 2.94375.91875 3.75s1.66875 1.21875 3.1875 1.21875c1.5375.0375 3.075-.01875 4.65-.15zm-.825-6.61875c0-1.875-.3-3.20625-.9-3.975s-1.575-1.1625-2.925-1.1625-2.38125.4125-3.05625 1.21875-1.03125 2.11875-1.05 3.91875z"/><path d="m65.175 31.5v-21.9375h2.2875v21.9375z"/><path d="m81.91875 20.83125v7.51875c0 .76875 1.89375.91875 1.89375.91875l-.1125 2.025c-1.6125 0-2.94375.13125-3.75-.6375-1.8375.80625-3.65625 1.14375-5.49375 1.14375-1.40625 0-2.475-.39375-3.20625-1.2-.73125-.7875-1.10625-1.93125-1.10625-3.43125 0-1.48125.375-2.5875 1.125-3.28125s1.93125-1.14375 3.54375-1.29375l4.8-.45v-1.3125c0-1.03125-.225-1.78125-.675-2.23125s-1.06875-.675-1.8375-.675h-6.01875v-2.025h5.86875c1.725 0 2.98125.39375 3.76875 1.2.80625.7875 1.2 2.04375 1.2 3.73125zm-9.4125 6.225c0 1.875.76875 2.8125 2.325 2.8125 1.3875 0 2.75625-.225 4.0875-.69375l.69375-.24375v-5.04375l-4.51875.43125c-.91875.075-1.575.3375-1.9875.7875s-.6 1.10625-.6 1.95z"/><path d="m90.8625 17.94375c-2.2125 0-3.3375.76875-3.3375 2.325 0 .7125.2625 1.21875.76875 1.51875s1.66875.6 3.4875.91875 3.09375.75 3.84375 1.33125c.75.5625 1.125 1.63125 1.125 3.20625s-.50625 2.71875-1.51875 3.45-2.475 1.10625-4.425 1.10625c-1.25625 0-5.475-.46875-5.475-.46875l.13125-1.9875c2.41875.225 4.18125.4125 5.3625.4125s2.08125-.1875 2.7-.5625.9375-1.0125.9375-1.89375-.2625-1.48125-.7875-1.8-1.6875-.61875-3.4875-.9-3.075-.69375-3.825-1.25625c-.75-.54375-1.125-1.575-1.125-3.05625s.525-2.5875 1.575-3.3 2.3625-1.06875 3.91875-1.06875c1.2375 0 5.55.31875 5.55.31875v2.00625c-2.26875-.13125-4.125-.3-5.41875-.3z"/><path d="m107.8125 18.20625h-4.85625v7.3125c0 1.74375.13125 2.90625.375 3.45.2625.54375.8625.825 1.81875.825l2.71875-.1875.15 1.89375c-1.36875.225-2.4.3375-3.1125.3375-1.59375 0-2.68125-.39375-3.3-1.1625s-.91875-2.25-.91875-4.425v-8.04375h-2.175v-1.9875h2.175v-4.6875h2.26875v4.66875h4.85625z"/><path d="m111 12.75v-2.64375h2.2875v2.6625zm0 18.75v-15.28125h2.2875v15.28125z"/><path d="m123.225 15.9c.675 0 1.81875.13125 3.43125.375l.73125.09375-.09375 1.85625c-1.63125-.1875-2.83125-.28125-3.6-.28125-1.725 0-2.90625.4125-3.525 1.2375s-.9375 2.3625-.9375 4.59375.28125 3.7875.8625 4.66875 1.78125 1.3125 3.61875 1.3125l3.6-.28125.09375 1.89375c-1.89375.28125-3.31875.43125-4.25625.43125-2.38125 0-4.03125-.61875-4.93125-1.8375s-1.36875-3.28125-1.36875-6.1875.4875-4.95 1.4625-6.1125c.99375-1.1625 2.625-1.7625 4.9125-1.7625z"/></g></g></svg>