<svg height="94" viewBox="0 0 225 94" width="225" xmlns="http://www.w3.org/2000/svg">
    <path d="m1.00227791 34.9215182v-17.2091632h21.39863329v-1.0063838h-21.39863329v-15.69958739h22.75170839v-1.00638381h-23.7539863v35.9279021h23.9544419v-1.0063839zm42.24601369-24.8576801-8.8701593 11.7243714-8.6697041-11.7243714h-1.3029612l9.3712983 12.4791592-10.2733485 13.3849048h1.2027335l9.671982-12.6301169 9.7220954 12.6301169h1.2528475l-10.3234625-13.3849048 9.4214123-12.4791592zm5.1116174 34.7202413v-16.1021408h.1002278c.6013697 2.3482406 1.7873865 4.2351914 3.5580864 5.6609089 1.7706998 1.4257175 4.0258027 2.1385655 6.7653758 2.1385655 1.7707001 0 3.3409196-.360617 4.7107063-1.0818625 1.3697867-.7212452 2.5140422-1.7024596 3.4328019-2.9436726.9187592-1.2412129 1.6203465-2.683682 2.1047836-4.3274504.4844365-1.6437685.7266514-3.3713767.7266514-5.1828766 0-1.9456851-.250567-3.7403849-.7517083-5.3841534-.5011418-1.6437685-1.227786-3.0694646-2.1799548-4.2771312s-2.1047769-2.1469488-3.4578588-2.8178747c-1.3530819-.67092588-2.8815404-1.00638378-4.5854213-1.00638378-1.3029676 0-2.5140413.1928883-3.6332574.57867068-1.1192157.3857824-2.1131314.9309015-2.9817765 1.6353737-.8686455.7044722-1.6203462 1.5347305-2.2551255 2.4907999s-1.1192085 2.0043754-1.4533028 3.1449494h-.1002278v-7.2459634h-1.0022781v34.7202413zm10.42369-9.2587309c-3.1404862 0-5.6628607-1.0818517-7.5671982-3.2455879-1.9043375-2.1637359-2.8564918-5.2751081-2.8564918-9.3342097 0-1.6773148.2338625-3.2707399.7015945-4.7803231.467732-1.5095833 1.1442627-2.8346421 2.0296126-3.9752161s1.9794925-2.0463104 3.2824601-2.7172363c1.3029678-.6709259 2.7729607-1.0063838 4.4100228-1.0063838 1.6704714 0 3.1321124.3354579 4.3849662 1.0063838 1.2528532.6709259 2.2885302 1.5850487 3.1070613 2.7423959.818531 1.1573472 1.4365962 2.482406 1.8542141 3.9752161s.6264239 3.0778487.6264239 4.7551635c0 1.5095832-.1921018 3.0107574-.5763101 4.5035675-.3842084 1.4928102-.9772166 2.8346418-1.7790435 4.0255351-.8018263 1.1908936-1.8291506 2.1637217-3.0820044 2.9185131-1.2528538.7547916-2.7646074 1.1321819-4.5353075 1.1321819zm16.4874719.4025536v-14.6428845c0-1.4089444.2004532-2.7843219.6013664-4.1261736.4009131-1.3418518 1.0189783-2.524341 1.8542141-3.5475029.8352359-1.023162 1.8959692-1.8282611 3.1822325-2.4153212 1.2862628-.5870602 2.8147218-.8302672 4.5854216-.7296283v-1.00638378c-1.5368339-.03354632-2.8815433.13418269-4.0341689.50319193-1.1526251.36900925-2.1465411.87219615-2.9817769 1.50957565-.8352358.6373797-1.5034142 1.3837735-2.0045554 2.239204-.5011419.8554305-.86864 1.7695534-1.1025059 2.7423959h-.1002275v-6.3905372h-1.0022783v25.864064zm11.4760818-12.7307553h21.5489753c.066818-1.7779536-.108579-3.488789-.526196-5.1325574-.417618-1.6437684-1.085797-3.1030104-2.004556-4.3777696-.91876-1.2747592-2.104776-2.2979058-3.558087-3.0694706-1.45331-.77156478-3.1822222-1.15734138-5.1867879-1.15734138-1.4366052 0-2.8397805.30191213-4.2095671.90574548-1.3697867.6038333-2.5725081 1.4844103-3.6082008 2.6417575-1.0356921 1.1573471-1.8709153 2.5746568-2.5056943 4.2519716-.6347796 1.6773147-.9521639 3.5894248-.9521639 5.7363876 0 1.9121389.217158 3.6984522.6514801 5.3589939.4343227 1.6605415 1.1025017 3.1030107 2.0045561 4.3274504s2.0630146 2.1721083 3.4829157 2.8430342c1.419901.6709258 3.1321085.989611 5.1366742.9560645 2.9400296 0 5.4122909-.8302581 7.4168569-2.4907998 2.004565-1.6605417 3.190582-4.0003605 3.558086-7.0195271h-1.002278c-.434322 2.8514351-1.545169 4.9899794-3.332574 6.4156969-1.787404 1.4257174-4.0341546 2.1385655-6.7403184 2.1385655-1.837519 0-3.3910343-.3186849-4.6605923-.9560646-1.2695585-.6373797-2.3052356-1.5095703-3.1070619-2.6165978-.8018262-1.1070278-1.3948345-2.4069273-1.7790428-3.8997374-.384209-1.4928101-.5930143-3.1113945-.6264239-4.8558019zm20.5466973-1.0063838h-20.5466973c.1002281-1.8114999.4343173-3.4384708 1.0022777-4.8809615.5679604-1.4424906 1.3113094-2.6752985 2.2300686-3.6984604.9187592-1.023162 1.9878452-1.8031017 3.2072894-2.3398424s2.5307446-.8051071 3.9339402-.8051071c1.6704717 0 3.1404644.3102986 4.4100224.9309051 1.269559.6206064 2.330292 1.4676376 3.182233 2.5411191.851941 1.0734814 1.495063 2.3230621 1.929385 3.7487797.434322 1.4257175.651481 2.9268916.651481 4.5035675zm21.799544-4.478408h1.002278c0-2.8849813-.835223-4.9815933-2.505695-6.2898988-1.670471-1.3083054-3.942279-1.96244838-6.81549-1.96244838-1.603652 0-2.956714.20127473-4.059225.60383028-1.102511.4025555-2.004552.9225153-2.70615 1.5598949-.701599.6373796-1.202733 1.3418413-1.503417 2.113406-.300685.7715648-.451025 1.5095722-.451025 2.2140444 0 1.4089444.250567 2.5327284.751708 3.3713857.501141.8386574 1.286251 1.4928004 2.355353 1.9624485.735008.335463 1.570231.6373751 2.505695.9057454.935464.2683704 2.021254.5535096 3.257403.8554263 1.102512.2683703 2.188302.5367367 3.257403.805107 1.069102.2683703 2.012904.6289877 2.831435 1.0818626.818531.452875 1.48671 1.0315399 2.004556 1.7360121.517847.7044722.776766 1.6269815.776766 2.7675554 0 1.1070278-.258919 2.0463098-.776766 2.8178747-.517846.7715648-1.177672 1.4005483-1.979499 1.8869696-.801826.4864213-1.695515.8386523-2.681093 1.056703-.985578.2180509-1.946085.3270748-2.881549.3270748-3.040258 0-5.370531-.6793022-6.990888-2.0379271-1.620358-1.3586249-2.430524-3.4971692-2.430524-6.4156969h-1.002278c0 3.2539905.876984 5.6357418 2.630979 7.1453251 1.753996 1.5095833 4.351539 2.2643634 7.792711 2.2643634 1.102511 0 2.213358-.1257967 3.332574-.3773938 1.119216-.2515972 2.121484-.6625332 3.006833-1.23282.885351-.5702872 1.603643-1.3082947 2.154898-2.2140444.551256-.9057501.826879-2.0127612.826879-3.3210667 0-1.2412129-.242214-2.2475867-.726651-3.0191514-.484437-.7715648-1.119206-1.4089349-1.904328-1.9121293-.785121-.5031944-1.670458-.8973575-2.656036-1.182501s-1.979494-.5618963-2.981777-.8302666c-1.403196-.3690092-2.630975-.6876943-3.683371-.9560646-1.052397-.2683704-2.029609-.5870554-2.931664-.9560646-.868644-.3690093-1.56188-.8973555-2.079726-1.5850546-.517846-.687699-.776765-1.6689134-.776765-2.9436726 0-.2348241.066818-.6541465.200455-1.2579798.133638-.6038333.451023-1.216044.952164-1.8366504.501141-.6206065 1.269547-1.174112 2.305239-1.6605333 1.035693-.4864213 2.455572-.7296283 4.259681-.7296283 1.236149 0 2.363701.1341832 3.382689.4025535 1.018987.2683704 1.895971.6960792 2.630979 1.2831394s1.302959 1.333454 1.703872 2.239204.601367 2.0127611.601367 3.3210665zm23.202734 0h1.002277c0-2.8849813-.835223-4.9815933-2.505694-6.2898988-1.670472-1.3083054-3.942279-1.96244838-6.81549-1.96244838-1.603653 0-2.956715.20127473-4.059226.60383028-1.102511.4025555-2.004552.9225153-2.70615 1.5598949s-1.202732 1.3418413-1.503417 2.113406c-.300684.7715648-.451025 1.5095722-.451025 2.2140444 0 1.4089444.250567 2.5327284.751709 3.3713857.501141.8386574 1.286251 1.4928004 2.355353 1.9624485.735007.335463 1.57023.6373751 2.505695.9057454.935464.2683704 2.021254.5535096 3.257403.8554263 1.102511.2683703 2.188301.5367367 3.257403.805107s2.012904.6289877 2.831435 1.0818626c.818531.452875 1.486709 1.0315399 2.004556 1.7360121.517846.7044722.776765 1.6269815.776765 2.7675554 0 1.1070278-.258919 2.0463098-.776765 2.8178747-.517847.7715648-1.177673 1.4005483-1.979499 1.8869696s-1.695515.8386523-2.681094 1.056703c-.985577.2180509-1.946084.3270748-2.881548.3270748-3.040259 0-5.370531-.6793022-6.990889-2.0379271-1.620357-1.3586249-2.430524-3.4971692-2.430524-6.4156969h-1.002278c0 3.2539905.876984 5.6357418 2.63098 7.1453251 1.753995 1.5095833 4.351539 2.2643634 7.792711 2.2643634 1.102511 0 2.213357-.1257967 3.332573-.3773938 1.119216-.2515972 2.121485-.6625332 3.006834-1.23282.88535-.5702872 1.603642-1.3082947 2.154897-2.2140444.551256-.9057501.82688-2.0127612.82688-3.3210667 0-1.2412129-.242215-2.2475867-.726651-3.0191514-.484437-.7715648-1.119207-1.4089349-1.904328-1.9121293-.785122-.5031944-1.670459-.8973575-2.656037-1.182501s-1.979494-.5618963-2.981777-.8302666c-1.403196-.3690092-2.630974-.6876943-3.683371-.9560646-1.052397-.2683704-2.029608-.5870554-2.931663-.9560646-.868645-.3690093-1.561881-.8973555-2.079727-1.5850546-.517846-.687699-.776765-1.6689134-.776765-2.9436726 0-.2348241.066818-.6541465.200456-1.2579798s.451022-1.216044.952164-1.8366504c.501141-.6206065 1.269546-1.174112 2.305239-1.6605333 1.035692-.4864213 2.455572-.7296283 4.259681-.7296283 1.236149 0 2.3637.1341832 3.382688.4025535 1.018988.2683704 1.895972.6960792 2.63098 1.2831394.735007.5870602 1.302959 1.333454 1.703872 2.239204s.601367 2.0127611.601367 3.3210665z"
          fill="#000" transform="translate(36 24)"/>
</svg>