<svg height="44" viewBox="0 0 127 44" width="127" xmlns="http://www.w3.org/2000/svg"><g><g transform="translate(.4 7)"><path d="m.92 23.18 3.48-22.3c.12-.76 1.14-.94 1.5-.26l3.74 7zm24.74 5.42-3.32-20.54c-.1-.64-.9-.9-1.36-.44l-20.92 20.98 11.58 6.5c.72.4 1.62.4 2.34 0zm-9.4-17.92-2.68-5.1c-.3-.58-1.12-.58-1.42 0l-11.78 21z"/><g transform="translate(36 9.2)"><path d="m2.46 18.6h-2.36v-18.32h10.7v2.26h-8.34v6.02h7.54v2.2h-7.52v7.84z"/><path d="m14.86 2.92c-.32.32-.72.48-1.18.48s-.86-.16-1.18-.48-.48-.72-.48-1.18.16-.86.48-1.18.72-.48 1.18-.48.86.16 1.18.48.48.72.48 1.18-.16.84-.48 1.18zm0 15.68h-2.36v-12.54h2.36z"/><path d="m19.78 18.6h-2.36v-12.54h2.26v2.04h.1c.24-.68.72-1.24 1.48-1.68.74-.44 1.46-.66 2.16-.66s1.28.1 1.76.3l-.9 2.2c-.3-.12-.72-.18-1.26-.18-.86 0-1.6.34-2.26 1.02s-.98 1.56-.98 2.64z"/><path d="m30.86 19.02c-1.9 0-3.44-.64-4.62-1.9s-1.78-2.86-1.78-4.78c0-1.82.58-3.4 1.72-4.72 1.16-1.32 2.62-1.98 4.42-1.98 1.86 0 3.34.6 4.46 1.82s1.68 2.84 1.68 4.86l-.02.44h-9.9c.06 1.26.5 2.26 1.26 3 .78.74 1.68 1.1 2.72 1.1 1.68 0 2.84-.72 3.44-2.16l2.1.88c-.4.98-1.08 1.78-2.02 2.44s-2.1 1-3.46 1zm3.38-8.2c-.06-.72-.38-1.4-.98-2.04s-1.5-.98-2.7-.98c-.88 0-1.62.28-2.26.82s-1.08 1.28-1.32 2.2z"/><path d="m45.02 19.02c-.96 0-1.82-.2-2.58-.62-.76-.4-1.32-.92-1.7-1.54h-.1v1.74h-2.26v-18.32h2.36v5.78l-.1 1.74h.1c.38-.62.94-1.12 1.7-1.54.76-.4 1.62-.62 2.58-.62 1.62 0 3.02.64 4.2 1.92s1.76 2.86 1.76 4.76-.58 3.48-1.76 4.76c-1.18 1.3-2.58 1.94-4.2 1.94zm-.4-2.16c1.1 0 2.04-.42 2.82-1.24s1.18-1.92 1.18-3.28-.4-2.46-1.18-3.28-1.72-1.24-2.82-1.24-2.06.4-2.82 1.22-1.16 1.92-1.16 3.3.38 2.48 1.16 3.3 1.72 1.22 2.82 1.22z"/><path d="m56.84 19.02c-1.34 0-2.44-.38-3.34-1.16-.9-.76-1.34-1.78-1.34-3.04 0-1.36.52-2.44 1.58-3.22s2.36-1.16 3.92-1.16c1.38 0 2.52.26 3.4.76v-.36c0-.92-.32-1.66-.94-2.22-.64-.56-1.4-.84-2.32-.84-.68 0-1.3.16-1.86.48s-.94.76-1.14 1.34l-2.16-.92c.3-.76.86-1.44 1.72-2.08s1.98-.96 3.38-.96c1.6 0 2.94.46 4 1.4s1.58 2.26 1.58 3.96v7.6h-2.26v-1.74h-.1c-.94 1.44-2.32 2.16-4.12 2.16zm.38-2.16c.98 0 1.86-.36 2.64-1.08.8-.72 1.2-1.58 1.2-2.58-.66-.54-1.66-.82-3-.82-1.14 0-2 .24-2.58.74s-.88 1.08-.88 1.74c0 .62.26 1.1.8 1.46s1.14.54 1.82.54z"/><path d="m69.86 19.02c-1.4 0-2.56-.34-3.46-1.02-.92-.68-1.58-1.54-2-2.56l2.1-.88c.66 1.58 1.8 2.36 3.4 2.36.74 0 1.34-.16 1.8-.48s.7-.76.7-1.28c0-.82-.58-1.38-1.72-1.66l-2.54-.62c-.8-.2-1.56-.6-2.28-1.16-.72-.58-1.08-1.34-1.08-2.32 0-1.1.5-2 1.48-2.7s2.14-1.04 3.5-1.04c1.1 0 2.1.26 2.96.76.88.5 1.5 1.22 1.86 2.16l-2.04.84c-.46-1.1-1.42-1.66-2.86-1.66-.7 0-1.28.14-1.76.44s-.72.68-.72 1.18c0 .72.56 1.2 1.66 1.46l2.48.58c1.18.28 2.04.74 2.62 1.4.56.66.84 1.42.84 2.26 0 1.12-.46 2.06-1.38 2.82s-2.1 1.12-3.56 1.12z"/><path d="m82.16 19.02c-1.9 0-3.44-.64-4.62-1.9s-1.78-2.86-1.78-4.78c0-1.82.58-3.4 1.72-4.72 1.16-1.32 2.62-1.98 4.42-1.98 1.86 0 3.34.6 4.46 1.82s1.68 2.84 1.68 4.86l-.02.44h-9.9c.06 1.26.5 2.26 1.26 3 .78.74 1.68 1.1 2.72 1.1 1.68 0 2.84-.72 3.44-2.16l2.1.88c-.4.98-1.08 1.78-2.02 2.44s-2.1 1-3.46 1zm3.38-8.2c-.06-.72-.38-1.4-.98-2.04s-1.5-.98-2.7-.98c-.88 0-1.62.28-2.26.82s-1.08 1.28-1.32 2.2z"/></g></g><g transform="translate(36.2 .6)"><path d="m.14 8.84v-8.6h3.1c.68 0 1.26.22 1.74.66.5.44.74 1 .74 1.68 0 .4-.1.76-.32 1.08s-.5.54-.84.7v.04c.42.14.78.4 1.04.74.28.36.4.76.4 1.22 0 .7-.26 1.28-.78 1.76-.52.46-1.12.7-1.82.7h-3.26zm1.1-4.9h2c.42 0 .76-.14 1-.42.26-.28.38-.58.38-.9s-.12-.62-.36-.9-.56-.4-.96-.4h-2.06zm0 3.86h2.22c.42 0 .76-.14 1.04-.44.26-.3.4-.62.4-.98s-.14-.68-.4-.96c-.28-.3-.62-.44-1.06-.44h-2.18v2.82z"/><path d="m12.5 8.84h-1.06v-.82h-.04c-.16.28-.42.52-.76.72s-.7.3-1.1.3c-.74 0-1.3-.22-1.68-.68-.38-.44-.58-1.04-.58-1.8v-3.6h1.1v3.42c0 1.1.48 1.64 1.46 1.64.46 0 .82-.18 1.12-.56.28-.36.44-.8.44-1.28v-3.22h1.1z"/><path d="m15.18 1.5c-.16.16-.34.22-.56.22s-.4-.08-.56-.22c-.16-.16-.22-.34-.22-.56s.08-.4.22-.56c.16-.16.34-.22.56-.22s.4.08.56.22c.16.16.22.34.22.56s-.08.4-.22.56zm0 7.34h-1.1v-5.88h1.1z"/><path d="m17.84 8.84h-1.1v-8.6h1.1z"/><path d="m21.78 8.94c-.62 0-1.08-.16-1.4-.5-.32-.32-.48-.8-.48-1.4v-3.06h-1.04v-1h1.04v-1.8h1.1v1.8h1.44v1h-1.44v3c0 .64.26.96.8.96.2 0 .36-.04.5-.1l.38.94c-.26.12-.56.16-.9.16z"/><path d="m33.26 8.84h-1.12l-1.46-4.52-1.46 4.52h-1.12l-1.9-5.88h1.16l1.3 4.44h.02l1.46-4.44h1.14l1.46 4.44h.02l1.3-4.44h1.12z"/><path d="m37.22 1.5c-.16.16-.34.22-.56.22s-.4-.08-.56-.22c-.16-.16-.22-.34-.22-.56s.08-.4.22-.56c.16-.16.34-.22.56-.22s.4.08.56.22c.16.16.22.34.22.56s-.08.4-.22.56zm0 7.34h-1.1v-5.88h1.1z"/><path d="m41.2 8.94c-.62 0-1.08-.16-1.42-.5-.32-.32-.48-.8-.48-1.4v-3.06h-1.04v-1h1.04v-1.8h1.1v1.8h1.44v1h-1.44v3c0 .64.26.96.8.96.2 0 .36-.04.5-.1l.38.94c-.24.12-.52.16-.88.16z"/><path d="m44.14.26v2.72l-.04.82h.04c.16-.28.42-.52.76-.72s.72-.3 1.1-.3c.72 0 1.28.22 1.66.68.38.44.58 1.04.58 1.8v3.6h-1.1v-3.44c0-1.08-.48-1.64-1.46-1.64-.46 0-.82.18-1.12.54-.28.36-.44.78-.44 1.26v3.26h-1.1v-8.6h1.12z"/></g></g></svg>