<svg height="94" viewBox="0 0 225 94" width="225" xmlns="http://www.w3.org/2000/svg">
    <g fill="none" fill-rule="evenodd" transform="translate(2 32)">
        <path d="m.15597.710526h220.931786v29.131579h-220.931786z"/>
        <g fill-rule="nonzero">
            <path d="m2.65149337 10.6578947 3.58731455-6.39473681c.3119404-.55263157.93582119-.94736842 1.55970198-.94736842h11.6977649c.6238807 0 1.2477615.31578948 1.5597019.94736842l2.2615679 3.94736843 3.5873146 6.39473688c.1559702.2368421.2339553.5526315.2339553.868421 0-.3157895-.0779851-.7105263-.2339553-.9473684l-3.5873146-6.39473685-2.2615679-3.94736842c-.3119404-.63157895-.8578361-1.02631579-1.5597019-1.02631579h-11.6977649c-.62388079 0-1.24776158.31578947-1.55970198.94736842l-3.58731455 6.39473684-2.26156787 3.9473684c-.1559702.3157895-.2339553.631579-.2339553.9473684 0-.3157894.0779851-.5526315.2339553-.868421zm5.14701653 16.6578948c-.62388079 0-1.24776158-.3157895-1.55970198-.9473684l-3.58731455-6.3947369-2.26156787-3.9473684c-.1559702-.2368421-.2339553-.5526316-.2339553-.8684211 0 .3157895.0779851.7105264.2339553.9473685l2.26156787 3.9473684 3.58731455 6.4736842c.3119404.5526316.93582119.9473684 1.55970198.9473684h7.2526142l.0779851-.1578947zm19.3403046-12.0789474c0 .3157895-.0779851.5526316-.2339553.8684211l-3.5873146 6.3947368-2.2615679 3.9473684c-.3119404.5526316-.9358212.9473684-1.5597019.9473684h-4.3671656l-.0779851.1578948h4.4451507c.6238807 0 1.2477615-.3157895 1.5597019-.9473684l2.2615679-3.9473685 3.5873146-6.3947368c.1559702-.3157895.2339553-.7105263.2339553-1.0263158z"
                  fill="#fff" fill-opacity=".2"/>
            <g fill="#000">
                <path d="m.3899255 7.73684211c0-4.10526316 3.11940396-7.2631579 7.1746291-7.2631579 2.10559768 0 3.8212699.86842105 5.0690314 2.28947368l-1.2477615 1.18421053c-.9358212-1.18421053-2.26156792-1.7368421-3.8212699-1.7368421-2.88544866 0-5.30298673 2.13157894-5.30298673 5.52631579 0 3.39473679 2.41753807 5.52631579 5.30298673 5.52631579 1.71567218 0 3.1973891-.7894737 4.2111954-2.0526316l1.2477615 1.2631579c-1.1697765 1.4210526-3.11940393 2.4473684-5.4589569 2.4473684-4.05522514.0789474-7.1746291-3-7.1746291-7.18421049zm13.9593327 6.94736839v-13.89473682h1.7936573v13.89473682zm12.7895563-4.73684208c0 2.92105268-2.0276126 5.05263158-4.8350762 5.05263158-2.8074635 0-4.8350761-2.2105263-4.8350761-5.05263158 0-2.92105263 2.0276126-5.05263158 4.8350761-5.05263158 2.8074636 0 4.8350762 2.13157895 4.8350762 5.05263158zm-1.7936573 0c0-2.21052631-1.4817169-3.47368421-3.0414189-3.47368421s-3.0414188 1.2631579-3.0414188 3.47368421c0 2.21052628 1.4817168 3.47368418 3.0414188 3.47368418 1.559702-.0789473 3.0414189-1.3421052 3.0414189-3.47368418zm9.7481374 4.73684208v-1.3421052h-.0779851c-.5458957.868421-1.7156722 1.6578947-2.9634338 1.6578947-2.4175381 0-3.5873146-1.6578947-3.5873146-4.0263158v-5.84210525h1.7936573v5.52631575c0 1.9736842 1.0138063 2.6842106 2.339553 2.6842106 1.559702 0 2.4955232-1.5 2.4955232-2.9210527v-5.21052628h1.7936572v9.55263158h-1.7936572zm3.1194039-4.73684208c0-2.92105263 2.1055977-5.05263158 4.4451507-5.05263158 1.4817168 0 2.6514933.78947369 3.197389 1.65789474h.0779851l-.0779851-1.34210526v-4.42105264h1.7936573v13.89473682h-1.6376871v-1.3421052h-.0779851c-.5458957.868421-1.7156722 1.6578947-3.197389 1.6578947-2.4175381 0-4.5231358-2.1315789-4.5231358-5.05263158zm7.7985099 0c0-2.21052631-1.4037318-3.47368421-2.9634337-3.47368421-1.559702 0-2.9634338 1.2631579-2.9634338 3.47368421 0 2.13157898 1.4037318 3.47368418 2.9634338 3.47368418 1.4817168-.0789473 2.9634337-1.3421052 2.9634337-3.47368418zm6.4727632 4.73684208v-13.89473682h4.679106c2.2615678 0 4.2891804 1.73684211 4.2891804 4.10526316s-2.0276126 4.10526316-4.2891804 4.10526316h-2.8854487v5.6052632h-1.7936573zm4.7570911-7.34210524c1.559702 0 2.417538-1.34210526 2.417538-2.44736842s-.857836-2.44736842-2.417538-2.44736842h-2.9634338v4.89473684zm5.4589569 7.34210524v-13.89473682h1.7936573v13.89473682zm3.2753742-2.8421052c0-2.13157898 1.9496274-3.31578951 4.1332102-3.31578951 1.2477616 0 2.1835828.39473684 2.5735083.55263158v-.23684211c0-1.42105263-1.1697765-2.28947368-2.4175381-2.28947368-1.0138063 0-1.9496275.47368421-2.2615679 1.34210526l-1.637687-.71052631c.3119404-.86842106 1.4817168-2.28947369 3.8212698-2.28947369s4.2111954 1.42105263 4.2111954 4.10526316v5.7631579h-1.7156722v-1.3421053h-.0779851c-.5458957.7894737-1.4817169 1.6578948-3.119404 1.6578948-1.8716424-.0789474-3.5093294-1.2631579-3.5093294-3.2368421zm6.7067185-1.2631579s-.779851-.63157898-2.2615679-.63157898c-1.8716424 0-2.5735083 1.02631578-2.5735083 1.89473688 0 1.0263158 1.0138063 1.5 1.9496275 1.5 1.4037318 0 2.8854487-1.1842106 2.8854487-2.7631579zm4.2111953 1.2631579v-4.97368425h-1.6376871v-1.65789473h1.6376871v-2.92105264h1.7936573v2.92105264h2.339553v1.65789473h-2.339553v4.89473685c0 1.1052632.4679106 1.5789474 1.2477616 1.5789474.3119404 0 .5458957 0 .779851-.1578948l.6238808 1.5c-.3899255.1578948-.8578361.2368421-1.4037318.2368421-1.9496275-.0789473-3.0414189-1.1842105-3.0414189-3.0789473zm11.4638096-10.89473688-.6238808 1.5c-.2339553-.07894737-.4679106-.15789474-.779851-.15789474-.8578361 0-1.559702.55263158-1.559702 1.65789474v1.18421053h2.4175381v1.65789473h-2.4175381v7.89473682h-1.7936573v-7.89473682h-1.7156721v-1.65789473h1.7936572v-1.18421053c0-1.97368421 1.3257467-3.2368421 3.3533593-3.2368421.5458957 0 .9358212.07894736 1.3257467.2368421zm9.6701523 9c0 2.92105268-2.0276126 5.05263158-4.8350762 5.05263158-2.8074635 0-4.8350761-2.2105263-4.8350761-5.05263158 0-2.92105263 2.0276126-5.05263158 4.8350761-5.05263158 2.8074636 0 4.8350762 2.13157895 4.8350762 5.05263158zm-1.7936573 0c0-2.21052631-1.4817169-3.47368421-3.0414189-3.47368421s-3.0414188 1.2631579-3.0414188 3.47368421c0 2.21052628 1.4817168 3.47368418 3.0414188 3.47368418 1.559702-.0789473 3.0414189-1.3421052 3.0414189-3.47368418zm3.197389 4.73684208v-9.47368418h1.7156718v1.57894736h.077986c.389925-1.10526315 1.715672-1.81578947 2.729478-1.81578947.545896 0 .935821.07894737 1.325747.23684211l-.701866 1.65789473c-.233956-.07894737-.545896-.15789473-.935821-.15789473-1.247762 0-2.417538 1.02631579-2.417538 2.76315789v5.21052629zm6.7847038-9.47368418h1.715672v1.34210526h.077985c.545896-.94736842 1.793657-1.65789474 2.885449-1.65789474 1.481717 0 2.495523.71052632 2.963434 1.81578948.701865-1.10526316 1.793657-1.81578948 3.275374-1.81578948 2.339553 0 3.353359 1.65789474 3.353359 4.02631579v5.84210527h-1.793657v-5.52631579c0-1.97368422-.779851-2.60526316-2.105598-2.60526316-1.403732 0-2.417538 1.5-2.417538 2.92105263v5.28947372h-1.793657v-5.52631583c0-1.97368421-.779851-2.60526315-2.105598-2.60526315-1.403732 0-2.417538 1.5-2.417538 2.92105263v5.28947365h-1.793657v-9.71052628z"
                      transform="translate(82.885465 6.506352)"/>
                <g transform="matrix(1 0 0 -1 16.64461 25.530774)">
                    <path d="m.10492115 12.6548526c0 4.4003685 3.64226286 7.9661842 7.98899631 7.9661842 2.39819774 0 4.10691364-.9559421 5.39594494-2.2001842l-1.528851-1.5325421c-.9143129.8800737-2.15837804 1.5628895-3.86709394 1.5628895-3.16262331 0-5.63576475-2.5795263-5.63576475-5.7811737 0-3.20164735 2.47314144-5.78117367 5.63576475-5.78117367 2.05345684 0 3.22257824.83455263 3.97201504 1.59323684.6145382.62212106 1.0192341 1.51736842 1.1691214 2.73126313h-5.14113644v2.1698369h7.23955954c.0749436-.3945158.1199098-.8497263.1199098-1.3656316 0-1.6387579-.4346733-3.6568579-1.8586032-5.08318422-1.3939525-1.45667368-3.1626233-2.23053157-5.50086614-2.23053157-4.34673345 0-7.98899631 3.56581578-7.98899631 7.95101049zm21.17908405 2.2912263c-2.8028937 0-5.0811816-2.1546631-5.0811816-5.12870522 0-2.95886842 2.2782879-5.12870526 5.0811816-5.12870526 2.8028936 0 5.0811815 2.16983684 5.0811815 5.12870526 0 2.97404212-2.2782879 5.12870522-5.0811815 5.12870522zm0-8.22413679c-1.5288511 0-2.8628486 1.27458947-2.8628486 3.11060526 0 1.85118943 1.3190088 3.11060523 2.8628486 3.11060523 1.528851 0 2.8628485-1.2594158 2.8628485-3.11060523 0-1.83601579-1.3339975-3.11060526-2.8628485-3.11060526zm11.0916646 8.22413679c-2.8028936 0-5.0811815-2.1546631-5.0811815-5.12870522 0-2.95886842 2.2782879-5.12870526 5.0811815-5.12870526 2.8028937 0 5.0811815 2.16983684 5.0811815 5.12870526 0 2.97404212-2.2782878 5.12870522-5.0811815 5.12870522zm0-8.22413679c-1.528851 0-2.8628486 1.27458947-2.8628486 3.11060526 0 1.85118943 1.3190088 3.11060523 2.8628486 3.11060523s2.8628486-1.2594158 2.8628486-3.11060523c0-1.83601579-1.3339975-3.11060526-2.8628486-3.11060526zm13.6097723 7.92066319v-.8345527h-.0749436c-.4946283.6069474-1.4539074 1.1532-2.6679951 1.1532-2.5330963 0-4.8563504-2.2457052-4.8563504-5.14387892 0-2.86782631 2.3232541-5.11353157 4.8563504-5.11353157 1.2140877 0 2.1733668.54625263 2.6679951 1.16837368h.0749436v-.74351053c0-1.95740526-1.0342227-3.00438947-2.6979724-3.00438947-1.363975 0-2.2033442.98628947-2.5480852 1.8208421l-1.9335469-.81937894c.5545832-1.36563158 2.0384681-3.03473684 4.4966208-3.03473684 2.6080401 0 4.8113843 1.54771578 4.8113843 5.34113684v9.21042635zm-2.5480851-7.92066319c-1.5288511 0-2.8178824 1.30493684-2.8178824 3.09543157 0 1.80566842 1.2890313 3.12577892 2.8178824 3.12577892 1.5138624 0 2.6979725-1.3201105 2.6979725-3.12577892.0149887-1.80566842-1.1841101-3.09543157-2.6979725-3.09543157z"/>
                    <path d="m51.8610267 5.00731579h-2.218333v15.06746841h2.218333z"/>
                    <path d="m57.9614422 6.72194211c-1.1391439 0-1.9335469.53107894-2.4581527 1.54771578l6.7749087 2.83747891-.224831.5766c-.4196846 1.1532-1.7087159 3.2623421-4.3317447 3.2623421-2.6080401 0-4.7814068-2.0787947-4.7814068-5.12870522 0-2.86782631 2.1433892-5.12870526 5.0212265-5.12870526 2.3232541 0 3.6572516 1.4415 4.2268236 2.27605263l-1.7237047 1.16837369c-.5845607-.84972632-1.3639749-1.41115263-2.5031189-1.41115263zm-.1648761 6.25155789c.8843355 0 1.6337723-.4400368 1.873592-1.0925053l-4.5265982-1.89671049c-.059955 1.97257899 1.5138623 2.98921579 2.6530062 2.98921579z"/>
                </g>
            </g>
        </g>
    </g>
</svg>