<?xml version="1.0" encoding="UTF-8"?>
<svg width="139px" height="94px" viewBox="0 0 139 94" version="1.1" xmlns="http://www.w3.org/2000/svg" xmlns:xlink="http://www.w3.org/1999/xlink">
    <!-- Generator: Sketch 58 (84663) - https://sketch.com -->
    <title>GraphQL-white</title>
    <desc>Created with Sketch.</desc>
    <g id="GraphQL-white" stroke="none" stroke-width="1" fill="none" fill-rule="evenodd">
        <g id="GraphQL_Logo" transform="translate(41.000000, 15.000000)" fill="#000" fill-rule="nonzero">
            <polygon id="Rectangle" transform="translate(17.052273, 25.440016) rotate(-149.999272) translate(-17.052273, -25.440016) " points="15.7670628 -0.746683396 18.4909862 -0.754638934 18.3374827 51.626716 15.6135592 51.6346716"></polygon>
            <rect id="Rectangle" x="2" y="43" width="53" height="3"></rect>
            <polygon id="Rectangle" transform="translate(17.058535, 51.687820) rotate(-149.999272) translate(-17.058535, -51.687820) " points="1.88402396 50.3747821 32.2410021 50.286121 32.2330466 53.0008587 1.87606842 53.0895198"></polygon>
            <polygon id="Rectangle" transform="translate(39.934923, 12.327984) rotate(-149.999272) translate(-39.934923, -12.327984) " points="24.7604114 11.0149454 55.1173896 10.9262843 55.109434 13.641022 24.7524558 13.7296831"></polygon>
            <polygon id="Rectangle" transform="translate(17.065833, 12.317665) rotate(-120.000728) translate(-17.065833, -12.317665) " points="15.7527951 -2.85684602 18.4675328 -2.86480156 18.3788717 27.4921766 15.664134 27.5001322"></polygon>
            <polygon id="Rectangle" transform="translate(39.953645, 25.440506) rotate(-120.000728) translate(-39.953645, -25.440506) " points="13.766945 24.1552962 66.1482999 24.0017926 66.1403444 26.7257161 13.7589894 26.8792196"></polygon>
            <rect id="Rectangle" x="4" y="17" width="3" height="30"></rect>
            <rect id="Rectangle" x="50" y="17" width="3" height="30"></rect>
            <polygon id="Rectangle" transform="translate(39.934808, 51.672751) rotate(-120.000728) translate(-39.934808, -51.672751) " points="38.7877097 38.4750424 41.1590168 38.4680932 41.0819056 64.8704597 38.7105985 64.8774088"></polygon>
            <path d="M56.1884517,47.9991349 C54.5400627,50.8693672 50.865529,51.8490273 47.9980189,50.1990734 C45.1305089,48.5491195 44.151778,44.8710974 45.800167,42.0008651 C47.448556,39.1306328 51.1230897,38.1509727 53.9905997,39.8009266 C56.8752805,41.4680675 57.8540114,45.1289026 56.1884517,47.9991349" id="Path"></path>
            <path d="M11.1990734,21.9991349 C9.54911953,24.8693672 5.87109735,25.8490273 3.0008651,24.1990734 C0.130632838,22.5491195 -0.849027274,18.8710974 0.800926599,16.0008651 C2.45088047,13.1306328 6.12890265,12.1509727 8.9991349,13.8009266 C11.8693672,15.4680675 12.8490273,19.1289026 11.1990734,21.9991349" id="Path"></path>
            <path d="M0.800926599,47.9991349 C-0.849027274,45.1289026 0.130632838,41.4680675 3.0008651,39.8009266 C5.87109735,38.1509727 9.53193251,39.1306328 11.1990734,42.0008651 C12.8490273,44.8710974 11.8693672,48.5319325 8.9991349,50.1990734 C6.11171563,51.8490273 2.45088047,50.8693672 0.800926599,47.9991349" id="Path"></path>
            <path d="M45.8009266,21.9991349 C44.1509727,19.1289026 45.1306328,15.4680675 48.0008651,13.8009266 C50.8710974,12.1509727 54.5319325,13.1306328 56.1990734,16.0008651 C57.8490273,18.8710974 56.8693672,22.5319325 53.9991349,24.1990734 C51.1289026,25.8490273 47.4508805,24.8693672 45.8009266,21.9991349" id="Path"></path>
            <path d="M29,64 C25.6819484,64 23,61.3180516 23,58 C23,54.6819484 25.6819484,52 29,52 C32.3180516,52 35,54.6819484 35,58 C35,61.3008596 32.3180516,64 29,64" id="Path"></path>
            <path d="M29,12 C25.6819484,12 23,9.31805158 23,6 C23,2.68194842 25.6819484,0 29,0 C32.3180516,0 35,2.68194842 35,6 C35,9.31805158 32.3180516,12 29,12" id="Path"></path>
        </g>
    </g>
</svg>