<svg height="73" viewBox="0 0 40 73" width="40" xmlns="http://www.w3.org/2000/svg"><g fill-rule="evenodd" transform="matrix(1 0 0 -1 .192405 72.952337)"><path d="m24.75 72.6864261c1.1471519-1.294433 1.5259494-3.1460868 1.196519-4.8158677-.3547468-1.8754854-1.4047468-3.5333505-2.6379747-4.961366-.988924-1.1495618-2.125-2.1658548-3.3091772-3.1097122-1.3800633-1.1012714-2.7357595-2.2868943-3.6025317-3.8359493-.7329113-1.258372-.9037974-2.8071134-.4031645-4.1746091.818038-2.3474141 2.7234177-4.0899441 3.7613924-6.3044029-1.1481013 1.0043771-2.271519 2.0451289-3.3218355 3.1460868-1.0990506 1.1617912-2.1370253 2.396018-2.820886 3.8481787-.4639241 1.0166065-.671519 2.2022293-.3174051 3.2790421.3541139 1.1012714 1.1477848 1.9846091 1.9417722 2.8074269 2.2101265 2.1903136 4.9332278 3.7995748 7.0946202 6.0259493 1.1974684 1.222311 2.1863924 2.6863875 2.5281646 4.3683978.2810126 1.2342268.146519 2.5048282-.1094937 3.7268256"/><path d="m24.75 72.6864261c1.1471519-1.294433 1.5259494-3.1460868 1.196519-4.8158677-.3547468-1.8754854-1.4047468-3.5333505-2.6379747-4.961366-.988924-1.1495618-2.125-2.1658548-3.3091772-3.1097122-1.3800633-1.1012714-2.7357595-2.2868943-3.6025317-3.8359493-.7329113-1.258372-.9037974-2.8071134-.4031645-4.1746091.818038-2.3474141 2.7234177-4.0899441 3.7613924-6.3044029-1.1481013 1.0043771-2.271519 2.0451289-3.3218355 3.1460868-1.0990506 1.1617912-2.1370253 2.396018-2.820886 3.8481787-.4639241 1.0166065-.671519 2.2022293-.3174051 3.2790421.3541139 1.1012714 1.1477848 1.9846091 1.9417722 2.8074269 2.2101265 2.1903136 4.9332278 3.7995748 7.0946202 6.0259493 1.1974684 1.222311 2.1863924 2.6863875 2.5281646 4.3683978.2810126 1.2342268.146519 2.5048282-.1094937 3.7268256z"/><path d="m22.943038 58.904854c2.3689873 1.7306142 5.1411392 2.8315721 7.9496835 3.6302448-2.2218354-1.4035567-4.5420886-2.6860739-6.4594937-4.4891237-.6965189-.6654038-1.3553797-1.4280155-1.6607594-2.3596435-.2322785-.6898625-.1348102-1.4521606.1465189-2.1056486.5129747-1.1614777 1.3794304-2.1053351 2.0389241-3.170232.5620253-.9074828.6594937-2.069274.2325949-3.049506-.6477848-1.4399313-1.917405-2.4925988-3.2363924-3.3273325-.1712025-.0968943-.3177215-.2784536-.5253164-.3025988.8794303.7864433 1.5629747 1.8996306 1.538924 3.0977964-.0246835.8952535-.5253164 1.6816968-1.1113924 2.3232689-1.2088607 1.4277019-2.2224683 3.2429811-2.0148734 5.1667569.2075949 1.9240894 1.5996835 3.4728308 3.1015823 4.5860181"/><path d="m22.943038 58.904854c2.3689873 1.7306142 5.1411392 2.8315721 7.9496835 3.6302448-2.2218354-1.4035567-4.5420886-2.6860739-6.4594937-4.4891237-.6965189-.6654038-1.3553797-1.4280155-1.6607594-2.3596435-.2322785-.6898625-.1348102-1.4521606.1465189-2.1056486.5129747-1.1614777 1.3794304-2.1053351 2.0389241-3.170232.5620253-.9074828.6594937-2.069274.2325949-3.049506-.6477848-1.4399313-1.917405-2.4925988-3.2363924-3.3273325-.1712025-.0968943-.3177215-.2784536-.5253164-.3025988.8794303.7864433 1.5629747 1.8996306 1.538924 3.0977964-.0246835.8952535-.5253164 1.6816968-1.1113924 2.3232689-1.2088607 1.4277019-2.2224683 3.2429811-2.0148734 5.1667569.2075949 1.9240894 1.5996835 3.4728308 3.1015823 4.5860181z"/><path d="m31.3449367 44.916323c.5123418.6171134 1.3306962.7745275 2.0753165.8714218 1.2949367.1693299 2.6746835-.157414 3.6515822-1.0407517.8060127-.7136941 1.2579114-1.827195 1.0867089-2.9040077-.1829114-1.2464562-1.0259494-2.2872079-1.9778481-3.0736512-1.7218354-1.3671821-3.8468354-2.1658548-5.9718354-2.6983033.1224683.1332689.2566455.2539949.4151898.3508892 1.6120253.8591924 3.2117089 1.863256 4.396519 3.2671263.7199367.8711082 1.281962 2.0087543 1.05 3.1583161-.2439873 1.3308076-1.5506329 2.2991238-2.881962 2.3715593-.635443.0605198-1.2332279-.1815593-1.8436709-.3025988"/><path d="m31.3449367 44.916323c.5123418.6171134 1.3306962.7745275 2.0753165.8714218 1.2949367.1693299 2.6746835-.157414 3.6515822-1.0407517.8060127-.7136941 1.2579114-1.827195 1.0867089-2.9040077-.1829114-1.2464562-1.0259494-2.2872079-1.9778481-3.0736512-1.7218354-1.3671821-3.8468354-2.1658548-5.9718354-2.6983033.1224683.1332689.2566455.2539949.4151898.3508892 1.6120253.8591924 3.2117089 1.863256 4.396519 3.2671263.7199367.8711082 1.281962 2.0087543 1.05 3.1583161-.2439873 1.3308076-1.5506329 2.2991238-2.881962 2.3715593-.635443.0605198-1.2332279-.1815593-1.8436709-.3025988z"/><path d="m6.79746835 43.8156787c2.24683545.9557732 4.68924055 1.5728866 7.14367085 1.5368256-1.4287974-.4114089-2.8939873-.7622981-4.23734173-1.3916409-.31740506-.1693299-.68386076-.326744-.86708861-.653488-.09746835-.2539948.17088608-.4233247.36613924-.5079897.8303797-.3389733 1.746519-.3875773 2.6379747-.4722422 3.1259494-.2057045 6.2645569-.084665 9.3791139.1091237 3.0765823.1934751 6.1300633.604884 9.1702532 1.0890421-.6712026-.3148282-1.3553798-.6293428-1.9778481-1.0285224-.3177215-.2179338-.7082279-.2784536-1.0623418-.3631185-3.7370253-.8228179-7.5718354-1.0771263-11.3816456-1.1373325-1.4778481-.0122294-2.9427215.0119158-4.4082278.1088101-1.63639242.1088102-3.2851266.2298497-4.88481014.653488-.46424051.1329553-.95253165.2781401-1.31898735.604884-.18322784.1451847-.18322784.4358677-.02436708.6048841.4028481.4117225.96487341.6051976 1.46550632.8472766"/><path d="m6.79746835 43.8156787c2.24683545.9557732 4.68924055 1.5728866 7.14367085 1.5368256-1.4287974-.4114089-2.8939873-.7622981-4.23734173-1.3916409-.31740506-.1693299-.68386076-.326744-.86708861-.653488-.09746835-.2539948.17088608-.4233247.36613924-.5079897.8303797-.3389733 1.746519-.3875773 2.6379747-.4722422 3.1259494-.2057045 6.2645569-.084665 9.3791139.1091237 3.0765823.1934751 6.1300633.604884 9.1702532 1.0890421-.6712026-.3148282-1.3553798-.6293428-1.9778481-1.0285224-.3177215-.2179338-.7082279-.2784536-1.0623418-.3631185-3.7370253-.8228179-7.5718354-1.0771263-11.3816456-1.1373325-1.4778481-.0122294-2.9427215.0119158-4.4082278.1088101-1.63639242.1088102-3.2851266.2298497-4.88481014.653488-.46424051.1329553-.95253165.2781401-1.31898735.604884-.18322784.1451847-.18322784.4358677-.02436708.6048841.4028481.4117225.96487341.6051976 1.46550632.8472766z"/><path d="m9.68037975 38.6479811c.63512655.4960739 1.39240505.7745275 2.14936705 1.0407517-.2439873-.2903694-.5860759-.568823-.610443-.9680026-.0120253-.2539948.1955696-.4477835.4028481-.568823.4028481-.2057045.8547468-.2784536 1.306962-.3386598 2.3443038-.242079 4.7132912-.3753479 7.082595-.2179338 2.1610759.1088101 4.3107595.4600129 6.4481012.8350472.586076-.5446778 1.2819621-.9197122 2.0148734-1.2464562-2.5772151-.7500687-5.2268987-1.1859364-7.888924-1.3916409-2.5155063-.1693299-5.0677215-.157414-7.571519.2423927-.9892405.1812457-2.0025316.3869501-2.9060127.8466494-.36645565.1937887-.78164552.4477835-.8917721.8714219-.07310127.3628049.19556962.6895489.46392405.8952534"/><path d="m9.68037975 38.6479811c.63512655.4960739 1.39240505.7745275 2.14936705 1.0407517-.2439873-.2903694-.5860759-.568823-.610443-.9680026-.0120253-.2539948.1955696-.4477835.4028481-.568823.4028481-.2057045.8547468-.2784536 1.306962-.3386598 2.3443038-.242079 4.7132912-.3753479 7.082595-.2179338 2.1610759.1088101 4.3107595.4600129 6.4481012.8350472.586076-.5446778 1.2819621-.9197122 2.0148734-1.2464562-2.5772151-.7500687-5.2268987-1.1859364-7.888924-1.3916409-2.5155063-.1693299-5.0677215-.157414-7.571519.2423927-.9892405.1812457-2.0025316.3869501-2.9060127.8466494-.36645565.1937887-.78164552.4477835-.8917721.8714219-.07310127.3628049.19556962.6895489.46392405.8952534z"/><path d="m11.0981013 33.3736684c.5617088.4477835 1.2575949.6779467 1.9417721.8714218-.2199367-.2053909-.6107595-.4596993-.4395569-.8105885.3297468-.4239519.9401898-.4722422 1.4287974-.581366 2.0636076-.2536812 4.1518988-.4230111 6.2158228-.265597 1.5629747.0965807 3.1012658.3747208 4.6281646.6412586.8787974-.5086169 1.7949367-.9438574 2.7348101-1.3314348-1.4405063-.640945-2.9914557-1.0523539-4.5420886-1.3430369-2.6132912-.4596993-5.3123418-.5202191-7.9379747-.1088101-1.1601266.2057044-2.3446203.4716151-3.3946203 1.0407517-.4031645.2295361-.8303797.4960739-1.0012658.9438574-.1344936.3508891.0851266.7256099.3661393.9435438"/><path d="m11.0981013 33.3736684c.5617088.4477835 1.2575949.6779467 1.9417721.8714218-.2199367-.2053909-.6107595-.4596993-.4395569-.8105885.3297468-.4239519.9401898-.4722422 1.4287974-.581366 2.0636076-.2536812 4.1518988-.4230111 6.2158228-.265597 1.5629747.0965807 3.1012658.3747208 4.6281646.6412586.8787974-.5086169 1.7949367-.9438574 2.7348101-1.3314348-1.4405063-.640945-2.9914557-1.0523539-4.5420886-1.3430369-2.6132912-.4596993-5.3123418-.5202191-7.9379747-.1088101-1.1601266.2057044-2.3446203.4716151-3.3946203 1.0407517-.4031645.2295361-.8303797.4960739-1.0012658.9438574-.1344936.3508891.0851266.7256099.3661393.9435438z"/><path d="m4.31962025 29.9494416c1.12373418.3750343 2.28386076.6776331 3.46835443.7136941.47626583.0122294.96455697-.0119158 1.37974684-.2539948-1.4164557-.084665-2.83322785-.4355541-4.10316456-1.0768127-.2806962-.1574141-.59841772-.3389734-.70822785-.6657174 0-.3750343.42753165-.4960739.70822785-.6167998 1.77088608-.653488 3.6636076-.8591924 5.51993674-1.0529811 5.5316455-.4596993 11.1-.3389734 16.631962.1574141 2.0882911.2298496 4.1886076.4596993 6.2158228 1.0285223.6471519.2179339 1.3797468.4352406 1.8072785 1.0043772.2566455.3386598.0860759.7622981-.1705697 1.0526675.4148735-.2301632 1.0012659-.5205326.9161393-1.0771263-.1588608-.5807388-.7579114-.8833376-1.2462025-1.1614777-1.5629747-.7867568-3.2848102-1.18625-4.9946203-1.5368256-4.9699367-.9680025-10.0623418-1.1859364-15.118038-1.0407517-3.8101266.1335825-7.61993669.4963875-11.38132909 1.1373325-.67151899.1574141-1.42848101.2909966-1.91708861.8109021-.31740506.3631185-.03670886.8714218.26835443 1.1373324.76962025.7017784 1.75886076 1.0890421 2.72341772 1.4402449"/><path d="m4.31962025 29.9494416c1.12373418.3750343 2.28386076.6776331 3.46835443.7136941.47626583.0122294.96455697-.0119158 1.37974684-.2539948-1.4164557-.084665-2.83322785-.4355541-4.10316456-1.0768127-.2806962-.1574141-.59841772-.3389734-.70822785-.6657174 0-.3750343.42753165-.4960739.70822785-.6167998 1.77088608-.653488 3.6636076-.8591924 5.51993674-1.0529811 5.5316455-.4596993 11.1-.3389734 16.631962.1574141 2.0882911.2298496 4.1886076.4596993 6.2158228 1.0285223.6471519.2179339 1.3797468.4352406 1.8072785 1.0043772.2566455.3386598.0860759.7622981-.1705697 1.0526675.4148735-.2301632 1.0012659-.5205326.9161393-1.0771263-.1588608-.5807388-.7579114-.8833376-1.2462025-1.1614777-1.5629747-.7867568-3.2848102-1.18625-4.9946203-1.5368256-4.9699367-.9680025-10.0623418-1.1859364-15.118038-1.0407517-3.8101266.1335825-7.61993669.4963875-11.38132909 1.1373325-.67151899.1574141-1.42848101.2909966-1.91708861.8109021-.31740506.3631185-.03670886.8714218.26835443 1.1373324.76962025.7017784 1.75886076 1.0890421 2.72341772 1.4402449z"/><path d="m34.7531646 25.8102663c1.2338607.4236383 2.5522151.8714218 3.4680379 1.8394244-.1588607-1.0526675-1.0746835-1.7789046-1.978481-2.2505197-1.7335443-.8958806-3.6756329-1.306976-5.6044304-1.6456358-4.0794303-.6415721-8.2186708-.7986727-12.3588607-.7265507-2.8208861.0849786-5.6661393.1937887-8.43829116.7748411-.65949367.1812457-1.36772152.3025988-1.9414557.689549 2.46645566-.411409 4.97025316-.5810524 7.47373416-.6776332 4.1151899-.1210395 8.2427215.036061 12.3338608.5446778 2.3689873.3264305 4.75.7259236 7.0458861 1.4518471"/><path d="m34.7531646 25.8102663c1.2338607.4236383 2.5522151.8714218 3.4680379 1.8394244-.1588607-1.0526675-1.0746835-1.7789046-1.978481-2.2505197-1.7335443-.8958806-3.6756329-1.306976-5.6044304-1.6456358-4.0794303-.6415721-8.2186708-.7986727-12.3588607-.7265507-2.8208861.0849786-5.6661393.1937887-8.43829116.7748411-.65949367.1812457-1.36772152.3025988-1.9414557.689549 2.46645566-.411409 4.97025316-.5810524 7.47373416-.6776332 4.1151899-.1210395 8.2427215.036061 12.3338608.5446778 2.3689873.3264305 4.75.7259236 7.0458861 1.4518471z"/><path d="m2.57278481 7.86443299c.01202532 3.96890461-.01234177 7.93780931.01202532 11.91894331.83037974-.0241452 1.66075949 0 2.49113924-.0241452-.01202532-4.4411469 0-8.893896-.01202532-13.34695876-.02436709-1.24645619-.04873418-2.55343213-.65949367-3.66599227-.67183544-1.18656358-1.86835443-2.02129725-3.13829114-2.50545533-.40316456.4358677-.7693038.89588059-1.17246835 1.33112114 1.02594936.59296821 2.05189873 1.43993127 2.29588607 2.66224226.23227848 1.19816581.15886076 2.41984966.18322785 3.63024485"/><path d="m2.57278481 7.86443299c.01202532 3.96890461-.01234177 7.93780931.01202532 11.91894331.83037974-.0241452 1.66075949 0 2.49113924-.0241452-.01202532-4.4411469 0-8.893896-.01202532-13.34695876-.02436709-1.24645619-.04873418-2.55343213-.65949367-3.66599227-.67183544-1.18656358-1.86835443-2.02129725-3.13829114-2.50545533-.40316456.4358677-.7693038.89588059-1.17246835 1.33112114 1.02594936.59296821 2.05189873 1.43993127 2.29588607 2.66224226.23227848 1.19816581.15886076 2.41984966.18322785 3.63024485z"/><path d="m10.414557 9.38840206c-.53734181-.16901632-1.03797472-.55628007-1.18449371-1.11287371-.17088607-.6171134-.1221519-1.34303694.2806962-1.86356959.39113924-.50830326 1.09936711-.62902921 1.70981011-.55659364.8547469.09689433 1.5996836.58105241 2.2591772 1.1009579 0 .9077964-.0123417 1.80304983 0 2.71084622-1.0259493 0-2.0759493.06020619-3.0651898-.27876718zm-3.02848105 5.61485394c1.64841772.7020919 3.48037975 1.0652105 5.27531645.8717354.9281646-.1091237 1.893038-.4484106 2.4911392-1.1865636.500633-.6287156.6841773-1.4396177.6718355-2.226061v-8.11968209h-1.8439874c-.0610759.3998067-.1218354.81058849-.170886 1.22231099-.6962026-.54467783-1.4408228-1.0648969-2.3082279-1.28251718-.9892405-.25430842-2.07563289-.23016323-3.04050631.14518471-.74525316.30228522-1.33101265.967689-1.53860759 1.7422165-.30537975 1.12541666-.14651899 2.44430841.65949367 3.35210481.72025316.83473366 1.80727848 1.24614256 2.88164553 1.43993126.9892405.1934751 2.0028481.1934751 3.0164557.1934751-.0243671.7626117.1221519 1.5973454-.3177215 2.2746649-.3541139.5205327-1.0012658.7262372-1.5993671.7622982-1.3066455.1091237-2.60126579-.2176203-3.8348101-.6412586-.12183544.4838445-.23196202.9680025-.34177215 1.4521606z"/><path d="m10.414557 9.38840206c-.53734181-.16901632-1.03797472-.55628007-1.18449371-1.11287371-.17088607-.6171134-.1221519-1.34303694.2806962-1.86356959.39113924-.50830326 1.09936711-.62902921 1.70981011-.55659364.8547469.09689433 1.5996836.58105241 2.2591772 1.1009579 0 .9077964-.0123417 1.80304983 0 2.71084622-1.0259493 0-2.0759493.06020619-3.0651898-.27876718zm-3.02848105 5.61485394c1.64841772.7020919 3.48037975 1.0652105 5.27531645.8717354.9281646-.1091237 1.893038-.4484106 2.4911392-1.1865636.500633-.6287156.6841773-1.4396177.6718355-2.226061v-8.11968209h-1.8439874c-.0610759.3998067-.1218354.81058849-.170886 1.22231099-.6962026-.54467783-1.4408228-1.0648969-2.3082279-1.28251718-.9892405-.25430842-2.07563289-.23016323-3.04050631.14518471-.74525316.30228522-1.33101265.967689-1.53860759 1.7422165-.30537975 1.12541666-.14651899 2.44430841.65949367 3.35210481.72025316.83473366 1.80727848 1.24614256 2.88164553 1.43993126.9892405.1934751 2.0028481.1934751 3.0164557.1934751-.0243671.7626117.1221519 1.5973454-.3177215 2.2746649-.3541139.5205327-1.0012658.7262372-1.5993671.7622982-1.3066455.1091237-2.60126579-.2176203-3.8348101-.6412586-.12183544.4838445-.23196202.9680025-.34177215 1.4521606z"/><path d="m31.8449367 9.37899485c-.5129747-.1693299-.989557-.55628007-1.1484177-1.0890421-.1705696-.61679983-.1218355-1.34335052.2689873-1.8754854.4028481-.52021907 1.1234178-.62902921 1.7458861-.55659364.843038.12103952 1.6120253.58105241 2.2474684 1.13733248-.0246836.88333762-.0123418 1.77890463-.0123418 2.67447165-1.0379747 0-2.1003165.06020618-3.1015823-.29068299zm-2.9920886 5.62676975c1.6607595.7020919 3.4927215 1.0768127 5.3.8717354.903481-.1091237 1.831962-.4361813 2.4297468-1.1379596.5617089-.6650902.7329114-1.549055.7205697-2.3960181-.0123418-2.67384446.0123417-5.33608673-.0240507-8.01024481-.6107595.02383162-1.221519-.01222938-1.831962.02383162-.0613924.41172251-.1101266.81090206-.1829114 1.21039519-.8550633-.72623712-1.8810127-1.31920533-3.0411392-1.41578609-1.0623418-.09689433-2.2591772.036061-3.0898735.78675688-.8670886.7983591-1.0129746 2.09310567-.7933544 3.19437714.207595 1.01629296.9772152 1.85134021 1.9047469 2.29912367 1.4531645.7017784 3.1145569.738153 4.7018987.7259236-.025.7378393.1098101 1.5245962-.2689874 2.19-.2930379.532762-.9161392.774841-1.5018987.8350472-1.3553797.1451847-2.7107595-.1937886-3.9810126-.6293427-.1101266.4838445-.2319621.9680025-.3417722 1.4521606z"/><path d="m31.8449367 9.37899485c-.5129747-.1693299-.989557-.55628007-1.1484177-1.0890421-.1705696-.61679983-.1218355-1.34335052.2689873-1.8754854.4028481-.52021907 1.1234178-.62902921 1.7458861-.55659364.843038.12103952 1.6120253.58105241 2.2474684 1.13733248-.0246836.88333762-.0123418 1.77890463-.0123418 2.67447165-1.0379747 0-2.1003165.06020618-3.1015823-.29068299zm-2.9920886 5.62676975c1.6607595.7020919 3.4927215 1.0768127 5.3.8717354.903481-.1091237 1.831962-.4361813 2.4297468-1.1379596.5617089-.6650902.7329114-1.549055.7205697-2.3960181-.0123418-2.67384446.0123417-5.33608673-.0240507-8.01024481-.6107595.02383162-1.221519-.01222938-1.831962.02383162-.0613924.41172251-.1101266.81090206-.1829114 1.21039519-.8550633-.72623712-1.8810127-1.31920533-3.0411392-1.41578609-1.0623418-.09689433-2.2591772.036061-3.0898735.78675688-.8670886.7983591-1.0129746 2.09310567-.7933544 3.19437714.207595 1.01629296.9772152 1.85134021 1.9047469 2.29912367 1.4531645.7017784 3.1145569.738153 4.7018987.7259236-.025.7378393.1098101 1.5245962-.2689874 2.19-.2930379.532762-.9161392.774841-1.5018987.8350472-1.3553797.1451847-2.7107595-.1937886-3.9810126-.6293427-.1101266.4838445-.2319621.9680025-.3417722 1.4521606z"/><path d="m17.2151899 15.7320017h2.5642405c.5009493-1.5970318.9892405-3.1824613 1.4905063-4.7794931.2924051-.97991839.6588608-1.94823455.8664557-2.95261169.1101266-.44778351.2075949-.90779639.3417722-1.34335052 1.0509493 2.9403823 1.8566455 5.97797251 2.2721519 9.07545531h2.4908227c-.7205696-3.9203007-1.8560126-7.78039517-3.5658227-11.38649483h-2.9306962c-1.1724684 3.79957475-2.3569621 7.58692013-3.5294304 11.38649483"/><path d="m17.2151899 15.7320017h2.5642405c.5009493-1.5970318.9892405-3.1824613 1.4905063-4.7794931.2924051-.97991839.6588608-1.94823455.8664557-2.95261169.1101266-.44778351.2075949-.90779639.3417722-1.34335052 1.0509493 2.9403823 1.8566455 5.97797251 2.2721519 9.07545531h2.4908227c-.7205696-3.9203007-1.8560126-7.78039517-3.5658227-11.38649483h-2.9306962c-1.1724684 3.79957475-2.3569621 7.58692013-3.5294304 11.38649483z"/><path d="m37.7911392 15.9515034h-.2996835v.1075559h.7303797v-.1075559h-.3015822v-.8707946h-.129114z"/><path d="m37.7911392 15.9515034h-.2996835v.1075559h.7303797v-.1075559h-.3015822v-.8707946h-.129114z"/><path d="m39.164557 15.5093643c-.0069621.1364046-.0161393.3019716-.0161393.4220704h-.0025316c-.0351266-.1128866-.0746836-.2364347-.1246836-.3712715l-.1743671-.4747508h-.0965189l-.1613924.4659708c-.0462026.1392268-.0844937.2640292-.1123418.3800515h-.0031646c-.0031645-.1216667-.010443-.2844115-.0189873-.4324184l-.0259494-.4192483h-.1218354l.0686709.9783506h.1623417l.1689874-.4734966c.0405063-.1204124.0727848-.2279682.0993671-.3295662h.0031645c.0259494.0990894.061076.2063317.1050633.3295662l.1759494.4734966h.1626582l.061076-.9783506h-.1259494z"/><path d="m39.164557 15.5093643c-.0069621.1364046-.0161393.3019716-.0161393.4220704h-.0025316c-.0351266-.1128866-.0746836-.2364347-.1246836-.3712715l-.1743671-.4747508h-.0965189l-.1613924.4659708c-.0462026.1392268-.0844937.2640292-.1123418.3800515h-.0031646c-.0031645-.1216667-.010443-.2844115-.0189873-.4324184l-.0259494-.4192483h-.1218354l.0686709.9783506h.1623417l.1689874-.4734966c.0405063-.1204124.0727848-.2279682.0993671-.3295662h.0031645c.0259494.0990894.061076.2063317.1050633.3295662l.1759494.4734966h.1626582l.061076-.9783506h-.1259494z"/></g></svg>