<?xml version="1.0" encoding="UTF-8"?>
<svg width="103px" height="21px" viewBox="0 0 103 21" version="1.1" xmlns="http://www.w3.org/2000/svg" xmlns:xlink="http://www.w3.org/1999/xlink">
    <title>jenkins-seeklogo.com</title>
    <g id="Racing-post,-Zopa,-ladbrokes" stroke="none" stroke-width="1" fill="none" fill-rule="evenodd">
        <g id="Artboard-Copy-2" transform="translate(-46.000000, -19.000000)" fill="#000000" fill-rule="nonzero">
            <g id="jenkins-seeklogo.com" transform="translate(46.000000, 19.000000)">
                <g id="Group" transform="translate(0.396899, 0.852713)">
                    <path d="M14.2486822,2.85767442 C13.9311628,2.89736434 13.6533333,2.93705426 13.4151938,2.97674419 C13.1770543,3.01643411 12.9389147,3.05612403 12.6213954,3.13550388 C12.264186,3.21488372 12.0657364,3.37364341 11.9863566,3.61178294 C11.9069768,3.84992248 11.8275969,4.088062 11.8275969,4.4055814 L11.8275969,14.0899225 C11.8275969,14.9631008 11.6291473,15.7965892 11.271938,16.5506977 C10.9147287,17.3048062 10.4384496,17.900155 9.80341084,18.416124 C9.16837208,18.8924031 8.45395348,19.2893023 7.66015504,19.5274419 C6.8663566,19.7655814 6.0328682,19.9243411 5.15968992,19.9243411 C3.61178294,19.9243411 2.38139535,19.5671318 1.42883721,18.8130232 C0.476279068,18.0589147 0,17.0666667 0,15.7568992 C0,15.0027907 0.198449612,14.3677519 0.63503876,13.851783 C1.07162791,13.335814 1.66697674,13.0976744 2.42108527,13.0976744 C3.13550388,13.0976744 3.69116279,13.296124 4.12775192,13.7327132 C4.56434108,14.1693023 4.76279068,14.6852713 4.76279068,15.2806202 C4.76279068,15.7965892 4.56434108,16.3125581 4.2071318,16.7491473 C3.84992248,17.1857364 3.41333333,17.6223256 2.93705426,17.9795349 L2.93705426,18.1382946 C3.01643411,18.2970543 3.1751938,18.455814 3.41333333,18.5748837 C3.65147287,18.6939535 3.92930232,18.7336434 4.16744188,18.7336434 C5.15968992,18.7336434 5.95348836,18.3764341 6.50914728,17.6620155 C7.0648062,16.9475969 7.34263564,15.875969 7.34263564,14.4471318 L7.34263564,4.52465116 C7.34263564,4.24682172 7.30294572,3.96899225 7.22356588,3.77054264 C7.14418604,3.57209302 6.90604652,3.41333333 6.5488372,3.25457364 C6.31069768,3.13550388 5.99317828,3.05612403 5.635969,2.97674419 C5.27875968,2.89736434 5.00093024,2.85767442 4.76279068,2.8179845 L4.76279068,1.86542636 L14.1296124,1.86542636 L14.1296124,2.85767442 L14.2486822,2.85767442 Z" id="Path"></path>
                    <path d="M28.9339535,16.5110078 C28.656124,16.9872868 28.2989147,17.423876 27.9020155,17.8604651 C27.5051163,18.2970543 27.0288372,18.6145736 26.5128682,18.932093 C25.9572093,19.2496124 25.4015504,19.4877519 24.8458915,19.6465116 C24.2902326,19.8052713 23.6155039,19.8846512 22.9010853,19.8846512 C21.6706977,19.8846512 20.6387597,19.7258915 19.7258915,19.3686822 C18.8527132,19.0114729 18.0986046,18.5748837 17.5429457,17.9795349 C16.9475969,17.384186 16.5506977,16.7094574 16.2331783,15.9156589 C15.9553488,15.1218605 15.7965892,14.2486822 15.7965892,13.335814 C15.7965892,12.5023256 15.9553488,11.6688372 16.2728682,10.9147287 C16.5903876,10.1606202 17.0269768,9.44620156 17.5826356,8.85085272 C18.1382946,8.25550388 18.8527132,7.7792248 19.7258915,7.42201552 C20.5990698,7.0648062 21.5516279,6.8663566 22.5835659,6.8663566 C23.7345736,6.8663566 24.6871318,7.02511628 25.4412403,7.30294572 C26.1953488,7.5807752 26.7906977,7.9776744 27.2669768,8.45395348 C27.7432558,8.93023256 28.0607752,9.48589148 28.2989147,10.1209302 C28.4973644,10.755969 28.6164341,11.4306977 28.6164341,12.1451163 L28.6164341,12.9389147 L20.2418605,12.9389147 C20.2418605,14.6455814 20.5593798,15.9156589 21.2341085,16.7888372 C21.8691473,17.6620155 22.9407752,18.0986046 24.3299225,18.0986046 C25.1237209,18.0986046 25.7984496,17.900155 26.4334884,17.4635659 C27.0685271,17.0269768 27.5844961,16.5110078 28.0210853,15.8362791 L28.9339535,16.5110078 L28.9339535,16.5110078 Z M24.2108527,11.787907 C24.2108527,11.3116279 24.1711628,10.7956589 24.1314729,10.2796899 C24.091783,9.76372092 24.0124031,9.3271318 23.8536434,9.0096124 C23.6948837,8.61271316 23.536124,8.33488372 23.2582946,8.13643412 C23.020155,7.93798448 22.7026356,7.85860464 22.3454264,7.85860464 C21.7103876,7.85860464 21.1944186,8.17612404 20.8372093,8.8111628 C20.4403101,9.44620156 20.2418605,10.4781395 20.2021706,11.8672868 L24.2108527,11.787907 L24.2108527,11.787907 Z" id="Shape"></path>
                    <path d="M46.4372092,19.448062 L38.9755039,19.448062 L38.9755039,18.5351938 C39.1342636,18.5351938 39.3327132,18.4955039 39.5311628,18.455814 C39.7693023,18.416124 39.928062,18.3764341 40.0471316,18.3367442 C40.2058916,18.2573644 40.3249612,18.0986046 40.4043412,17.939845 C40.4837208,17.7810853 40.5234108,17.5032558 40.5234108,17.1857364 L40.5234108,11.3910078 C40.5234108,10.5575194 40.3646512,9.92248064 40.0471316,9.48589148 C39.7296124,9.04930232 39.2930232,8.85085272 38.6579845,8.85085272 C38.3404651,8.85085272 38.0229457,8.89054264 37.7451163,9.0096124 C37.4672868,9.08899224 37.1894574,9.24775192 36.9116279,9.44620156 C36.6734884,9.60496124 36.4750388,9.76372092 36.3162791,9.96217056 C36.1575194,10.1209302 36.0384496,10.2796899 35.9590698,10.4384496 L35.9590698,17.0666667 C35.9590698,17.3444961 35.9987597,17.5826356 36.0781395,17.7810853 C36.1575194,17.9795349 36.3162791,18.1382946 36.4750388,18.2176744 C36.5941085,18.2970543 36.7528682,18.3764341 36.9513178,18.416124 C37.1497674,18.455814 37.348217,18.4955039 37.5466667,18.5351938 L37.5466667,19.448062 L30.0055814,19.448062 L30.0055814,18.5351938 C30.204031,18.5351938 30.4024806,18.4955039 30.6406202,18.455814 C30.8390698,18.416124 31.0375194,18.3764341 31.1962791,18.3367442 C31.4741085,18.2573644 31.6328682,18.0986046 31.751938,17.900155 C31.8313178,17.7017054 31.9106977,17.4635659 31.9106977,17.1460465 L31.9106977,9.92248064 C31.9106977,9.68434108 31.8313178,9.40651164 31.7122481,9.16837208 C31.5931783,8.93023256 31.3947287,8.73178296 31.1962791,8.57302324 C31.0375194,8.4936434 30.8787597,8.37457364 30.6406202,8.33488372 C30.4024806,8.25550388 30.1643411,8.21581396 29.8865116,8.21581396 L29.8865116,7.30294572 L35.8003101,6.98542636 L35.9987597,7.18387596 L35.9987597,8.96992248 L36.0384496,8.96992248 C36.2765892,8.77147288 36.5544186,8.53333332 36.871938,8.21581396 C37.1894574,7.93798448 37.5069768,7.69984496 37.7848062,7.50139536 C38.1023256,7.30294572 38.4992248,7.14418604 38.9755039,6.98542636 C39.451783,6.82666668 40.007442,6.78697676 40.5631008,6.78697676 C41.912558,6.78697676 42.9048064,7.18387596 43.5795348,7.93798448 C44.2542636,8.69209304 44.5717828,9.724031 44.5717828,10.9941085 L44.5717828,17.0666667 C44.5717828,17.384186 44.6114728,17.6223256 44.6908528,17.7810853 C44.7702324,17.9795349 44.968682,18.0986046 45.2068216,18.2176744 C45.3258916,18.2573644 45.4846512,18.3367442 45.6831008,18.3764341 C45.8815504,18.416124 46.08,18.455814 46.3578296,18.4955039 L46.3578296,19.448062 L46.4372092,19.448062 Z" id="Path"></path>
                    <path d="M63.503876,19.448062 L57.6694572,19.448062 C56.9550388,18.1779845 56.28031,17.1063566 55.6849612,16.2331783 C55.0896124,15.36 54.5339536,14.5265116 54.0179844,13.812093 L53.303566,14.4471318 L53.303566,17.1460465 C53.303566,17.423876 53.343256,17.7017054 53.4226356,17.8604651 C53.5020156,18.0589147 53.6607752,18.1779845 53.9386048,18.2970543 C54.0973644,18.3764341 54.256124,18.416124 54.4545736,18.455814 C54.6530232,18.4955039 54.8514728,18.5351938 55.0499224,18.5351938 L55.0499224,19.448062 L47.3500776,19.448062 L47.3500776,18.5351938 C47.5485272,18.5351938 47.7469768,18.4955039 47.9851164,18.455814 C48.183566,18.416124 48.3820156,18.3764341 48.5407752,18.3367442 C48.8186048,18.2573644 48.9773644,18.0986046 49.096434,17.900155 C49.175814,17.7017054 49.2551936,17.4635659 49.2551936,17.1460465 L49.2551936,3.33395349 C49.2551936,3.05612403 49.175814,2.77829457 49.056744,2.50046512 C48.9376744,2.22263566 48.7789148,1.98449612 48.5407752,1.82573644 C48.3820156,1.74635659 48.143876,1.62728682 47.8263564,1.5875969 C47.5088372,1.50821706 47.2310076,1.46852713 46.9531784,1.46852713 L46.9531784,0.555658916 L53.1051164,0.238139535 L53.303566,0.436589148 L53.303566,13.2167442 C53.8989148,12.6610853 54.6133332,12.0260465 55.367442,11.3116279 C56.1215504,10.5972093 56.7565892,10.0018605 57.1931784,9.5255814 C57.4710076,9.24775192 57.6297676,9.04930232 57.6297676,8.89054264 C57.6694572,8.73178296 57.6694572,8.65240312 57.6694572,8.61271316 C57.6694572,8.45395348 57.5503876,8.33488372 57.272558,8.25550388 C56.9947288,8.17612404 56.6375192,8.05705428 56.0818604,7.9776744 L56.0818604,7.10449612 L62.3528684,7.10449612 L62.3528684,7.9776744 C61.51938,8.21581396 60.8843412,8.41426356 60.447752,8.61271316 C60.0111628,8.8111628 59.5348836,9.08899224 59.0189148,9.40651164 C58.6617056,9.64465116 58.344186,9.88279068 58.0266668,10.1209302 C57.7091472,10.3590698 57.351938,10.6765892 56.9153488,11.0337984 C57.7091472,12.2244961 58.463256,13.296124 59.1379844,14.2883721 C59.8127132,15.2806202 60.5271316,16.3522481 61.2812404,17.4635659 C61.51938,17.8604651 61.8368992,18.0986046 62.2337984,18.2573644 C62.6306976,18.3764341 62.9879068,18.455814 63.3848064,18.4955039 L63.3848064,19.448062 L63.503876,19.448062 Z" id="Path"></path>
                    <path d="M71.4418604,19.448062 L63.6229456,19.448062 L63.6229456,18.5351938 C63.8213952,18.5351938 64.0595348,18.4955039 64.2579844,18.455814 C64.456434,18.416124 64.6548836,18.3764341 64.7739536,18.3367442 C65.0517828,18.2573644 65.2105428,18.0986046 65.3296124,17.900155 C65.448682,17.7017054 65.488372,17.4635659 65.488372,17.1460465 L65.488372,9.92248064 C65.488372,9.64465116 65.4089924,9.36682172 65.2899224,9.16837208 C65.1708528,8.93023256 65.0120932,8.77147288 64.8136436,8.65240312 C64.6548836,8.57302324 64.456434,8.45395348 64.1389148,8.37457364 C63.8213952,8.2951938 63.543566,8.21581396 63.3054264,8.21581396 L63.3054264,7.30294572 L69.3779844,6.98542636 L69.576434,7.18387596 L69.576434,17.0269768 C69.576434,17.3048062 69.655814,17.5429457 69.7748836,17.7810853 C69.8939536,17.9795349 70.0924032,18.1382946 70.2908528,18.2176744 C70.4496124,18.2970543 70.648062,18.3764341 70.8465116,18.416124 C71.0449612,18.455814 71.2434108,18.4955039 71.4815504,18.5351938 L71.4815504,19.448062 L71.4418604,19.448062 Z M69.655814,2.57984496 C69.655814,3.21488372 69.4176744,3.73085271 68.9413952,4.16744188 C68.4651164,4.604031 67.8697676,4.84217056 67.2347288,4.84217056 C66.56,4.84217056 66.0043412,4.604031 65.488372,4.16744188 C65.0120932,3.73085271 64.7739536,3.1751938 64.7739536,2.57984496 C64.7739536,1.9448062 65.0120932,1.42883721 65.488372,0.95255814 C65.9646512,0.515968992 66.56,0.277829457 67.2347288,0.277829457 C67.9094572,0.277829457 68.4651164,0.515968992 68.9413952,0.95255814 C69.4176744,1.38914729 69.655814,1.9448062 69.655814,2.57984496 L69.655814,2.57984496 Z" id="Shape"></path>
                    <path d="M88.9451164,19.448062 L81.4834108,19.448062 L81.4834108,18.5351938 C81.6421704,18.5351938 81.84062,18.4955039 82.0390696,18.455814 C82.2772092,18.416124 82.4359688,18.3764341 82.5550388,18.3367442 C82.7137984,18.2573644 82.8328684,18.0986046 82.912248,17.939845 C82.991628,17.7810853 83.031318,17.5032558 83.031318,17.1857364 L83.031318,11.3910078 C83.031318,10.5575194 82.872558,9.92248064 82.5550388,9.48589148 C82.2375192,9.04930232 81.8009304,8.85085272 81.1658916,8.85085272 C80.848372,8.85085272 80.5308528,8.89054264 80.2530232,9.0096124 C79.9751936,9.12868216 79.6973644,9.24775192 79.4195348,9.44620156 C79.1813952,9.60496124 78.9829456,9.76372092 78.824186,9.96217056 C78.6654264,10.1209302 78.5463564,10.2796899 78.4669768,10.4384496 L78.4669768,17.0666667 C78.4669768,17.3444961 78.5066668,17.5826356 78.5860464,17.7810853 C78.6654264,17.9795349 78.824186,18.1382946 78.9829456,18.2176744 C79.1020156,18.2970543 79.2607752,18.3764341 79.4592248,18.416124 C79.6576744,18.455814 79.856124,18.4955039 80.0545736,18.5351938 L80.0545736,19.448062 L72.5134884,19.448062 L72.5134884,18.5351938 C72.711938,18.5351938 72.9103876,18.4955039 73.1485272,18.455814 C73.3469768,18.416124 73.5454264,18.3764341 73.704186,18.3367442 C73.9820156,18.2573644 74.1407752,18.0986046 74.2598448,17.900155 C74.3392248,17.7017054 74.4186048,17.4635659 74.4186048,17.1460465 L74.4186048,9.92248064 C74.4186048,9.68434108 74.3392248,9.40651164 74.2201552,9.16837208 C74.1010852,8.93023256 73.9026356,8.73178296 73.704186,8.57302324 C73.5454264,8.4936434 73.3866668,8.37457364 73.1485272,8.33488372 C72.9103876,8.25550388 72.672248,8.21581396 72.3944188,8.21581396 L72.3944188,7.30294572 L78.3082172,6.98542636 L78.5066668,7.18387596 L78.5066668,8.96992248 L78.5463564,8.96992248 C78.784496,8.77147288 79.0623256,8.53333332 79.3798448,8.21581396 C79.6973644,7.93798448 80.0148836,7.69984496 80.2927132,7.50139536 C80.6102324,7.30294572 81.0071316,7.14418604 81.4834108,6.98542636 C81.95969,6.82666668 82.5153488,6.78697676 83.0710076,6.78697676 C84.4204652,6.78697676 85.4127132,7.18387596 86.087442,7.93798448 C86.7621704,8.69209304 87.07969,9.724031 87.07969,10.9941085 L87.07969,17.0666667 C87.07969,17.384186 87.11938,17.6223256 87.1987596,17.7810853 C87.2781396,17.9795349 87.4765892,18.0986046 87.7147288,18.2176744 C87.8337984,18.2573644 87.992558,18.3367442 88.1910076,18.3764341 C88.3894572,18.416124 88.5879068,18.455814 88.8657364,18.4955039 L88.8657364,19.448062 L88.9451164,19.448062 Z" id="Path"></path>
                    <path d="M95.8114728,19.8846512 C95.0176744,19.8846512 94.223876,19.7655814 93.4697676,19.5274419 C92.7156588,19.2893023 92.12031,19.0511628 91.6837208,18.7733333 L91.3265116,19.6068217 L90.3739536,19.6068217 L90.2151936,15.0027907 L91.128062,15.0027907 C91.2471316,15.36 91.4455812,15.7965892 91.7631008,16.2728682 C92.0409304,16.7491473 92.3981396,17.1460465 92.7553488,17.5429457 C93.152248,17.900155 93.5888372,18.2176744 94.1048064,18.4955039 C94.6207752,18.7336434 95.136744,18.8924031 95.6924032,18.8924031 C96.4465116,18.8924031 97.0021704,18.7336434 97.35938,18.455814 C97.7165892,18.1779845 97.9150388,17.7017054 97.9150388,17.1063566 C97.9150388,16.7888372 97.8356588,16.5110078 97.6768992,16.2728682 C97.5181396,16.0744186 97.28,15.875969 97.0021704,15.7172093 C96.6846512,15.5584496 96.327442,15.3996899 95.9305428,15.2806202 C95.5336436,15.1615504 95.0573644,15.0424806 94.5017056,14.844031 C93.9460464,14.6852713 93.4697676,14.5265116 93.0728684,14.328062 C92.6759688,14.1693023 92.23938,13.8914729 91.8424808,13.5342636 C91.4852712,13.2167442 91.167752,12.819845 90.9693024,12.3832558 C90.7311628,11.9466667 90.6517828,11.3910078 90.6517828,10.755969 C90.6517828,9.60496124 91.128062,8.65240312 92.12031,7.93798448 C93.112558,7.22356588 94.3826356,6.8663566 95.9702324,6.8663566 C96.7243412,6.8663566 97.3990696,6.94573644 98.0341084,7.10449612 C98.6691472,7.2632558 99.1851164,7.42201552 99.6217056,7.62046512 L99.8995348,6.90604652 L100.852093,6.90604652 L101.050543,11.1131783 L100.177364,11.1131783 C99.8995348,10.24 99.383566,9.5255814 98.7088372,8.89054264 C97.9944188,8.25550388 97.24031,7.93798448 96.4465116,7.93798448 C95.8114728,7.93798448 95.295504,8.05705428 94.9382944,8.33488372 C94.5810852,8.61271316 94.3826356,8.96992248 94.3826356,9.44620156 C94.3826356,10.0812403 94.6604652,10.5178294 95.176434,10.7956589 C95.6924032,11.0734884 96.4465116,11.3513178 97.3990696,11.5894574 C98.8675968,11.9863566 99.9392248,12.5023256 100.653644,13.1373644 C101.328372,13.812093 101.685581,14.6455814 101.685581,15.6378294 C101.685581,16.9872868 101.169612,18.0589147 100.097984,18.7733333 C98.9072868,19.4877519 97.5181396,19.8846512 95.8114728,19.8846512 L95.8114728,19.8846512 Z" id="Path"></path>
                </g>
            </g>
        </g>
    </g>
</svg>