<?xml version="1.0" encoding="UTF-8"?>
<svg width="194px" height="58px" viewBox="0 0 194 58" version="1.1" xmlns="http://www.w3.org/2000/svg" xmlns:xlink="http://www.w3.org/1999/xlink">
    <title>Artboard</title>
    <g id="Artboard" stroke="none" stroke-width="1" fill="none" fill-rule="evenodd">
        <g id="Apache_kafka_wordtype" fill="#000000" fill-rule="nonzero">
            <path d="M7.0599674,56.638984 C5.0222344,55.912538 3.3679758,54.395676 2.4370192,52.4 C1.7675188,50.964802 1.6079376,48.563036 2.0752676,46.955476 C2.7022326,44.798794 4.7501034,42.58934 6.7953972,41.862916 L7.8,41.506112 L7.8,39.88958 L7.8,38.273048 L6.7141794,37.930774 C4.5454348,37.247138 2.27644,35.326042 1.11298846,33.188398 C-0.35931892,30.483284 -0.35931892,26.516716 1.11298846,23.811602 C2.27644,21.673958 4.5454348,19.752862 6.7141794,19.0692258 L7.8,18.7269518 L7.8,17.1104198 L7.8,15.4938878 L6.7953972,15.1370838 C4.7501034,14.4106598 2.7022326,12.2012078 2.0752676,10.0445238 C1.6039208,8.4231458 1.76734,6.0416098 2.452548,4.5463498 C3.1323422,3.0629058 4.846587,1.34340372 6.3463504,0.64060572 C7.37046,0.16070372 7.735803,0.09999972 9.6,0.09999972 C11.464197,0.09999972 11.82954,0.16070372 12.8536496,0.64060572 C14.353413,1.34340372 16.0676578,3.0629058 16.747452,4.5463498 C17.43266,6.0416098 17.5960792,8.4231458 17.1247324,10.0445238 C16.4968422,12.2043898 14.4497586,14.4107098 12.3973146,15.1396738 L11.3854236,15.4990658 L11.4427118,17.0772658 L11.5,18.6554678 L12.5498652,18.9235998 C13.953315,19.2820378 14.9566442,19.814462 16.3176094,20.922984 L17.4501644,21.845462 L18.2750822,21.387726 C18.7287868,21.135972 19.400542,20.742604 19.767872,20.513576 L20.435742,20.097162 L20.467872,17.9985818 C20.495778,16.1757118 20.571024,15.7484338 21.040606,14.7463498 C21.736908,13.2604478 23.460448,11.5369078 24.94635,10.8406058 C25.97046,10.3607038 26.335802,10.2999998 28.2,10.2999998 C30.064198,10.2999998 30.42954,10.3607038 31.45365,10.8406058 C32.939552,11.5369078 34.663092,13.2604478 35.359394,14.7463498 C35.839296,15.7704598 35.9,16.1358038 35.9,17.9999998 C35.9,19.864198 35.839296,20.22954 35.359394,21.25365 C34.663092,22.739552 32.939552,24.463092 31.45365,25.159394 C30.42954,25.639296 30.064198,25.7 28.2,25.7 C25.83146,25.7 24.846308,25.377786 23.27289,24.088488 L22.413916,23.384624 L20.90185,24.242312 L19.3897848,25.0999997 L19.544892,25.9 C19.74603,26.937406 19.74466,30.08972 19.542652,31.040816 L19.3853128,31.781634 L20.921276,32.680752 L22.45724,33.57987 L23.294548,32.893758 C24.845548,31.622836 25.83921,31.3 28.2,31.3 C30.064198,31.3 30.42954,31.360704 31.45365,31.840606 C32.939552,32.536908 34.663092,34.260448 35.359394,35.74635 C35.839296,36.77046 35.9,37.135802 35.9,39 C35.9,40.864198 35.839296,41.22954 35.359394,42.25365 C34.663092,43.739552 32.939552,45.463092 31.45365,46.159394 C30.42954,46.639296 30.064198,46.7 28.2,46.7 C26.335802,46.7 25.97046,46.639296 24.94635,46.159394 C23.460448,45.463092 21.736908,43.739552 21.040606,42.25365 C20.558758,41.22539 20.5,40.867548 20.5,38.961344 L20.5,36.82269 L19.0739788,36.011344 C18.2896684,35.565106 17.590897,35.2 17.521154,35.2 C17.4514112,35.2 16.8972576,35.604886 16.2897018,36.099748 C14.955957,37.186098 13.9462536,37.719766 12.5498652,38.0764 L11.5,38.344532 L11.4427118,39.922734 L11.3854236,41.500936 L12.3973146,41.860328 C14.4497586,42.58929 16.4968422,44.79561 17.1247324,46.955476 C17.5960792,48.576854 17.43266,50.95839 16.747452,52.45365 C16.0626718,53.947976 14.3513014,55.66042 12.8536496,56.349894 C11.310319,57.0604 8.6187928,57.1947 7.0599674,56.638984 L7.0599674,56.638984 Z M11.0564238,52.524632 C13.4004638,51.521684 13.9482052,48.314498 12.0746322,46.562724 C9.7602362,44.398782 6,46.031274 6,49.2 C6,51.238422 7.5198566,52.773556 9.5564238,52.792172 C10.0274568,52.796472 10.7024568,52.676084 11.0564238,52.524632 Z M29.656424,42.324632 C32.000464,41.321684 32.548206,38.114498 30.674632,36.362724 C28.360236,34.198782 24.6,35.831274 24.6,39 C24.6,41.038422 26.119856,42.573556 28.156424,42.592172 C28.627456,42.596472 29.302456,42.476084 29.656424,42.324632 L29.656424,42.324632 Z M11.9126744,33.864742 C13.234305,33.414416 14.8144166,31.834304 15.2647414,30.512674 C16.0199914,28.296138 15.527716,26.10163 13.9130434,24.486956 C11.6244792,22.198392 8.1755208,22.198392 5.8869566,24.486956 C4.272284,26.10163 3.7800086,28.296138 4.5352586,30.512674 C4.9660774,31.777058 6.572116,33.417396 7.8054348,33.852688 C8.9941766,34.27225 10.7019966,34.27726 11.9126744,33.864748 L11.9126744,33.864742 Z M29.656424,21.324632 C32.000464,20.321684 32.548206,17.1144998 30.674632,15.3627238 C28.360236,13.1987818 24.6,14.8312738 24.6,17.9999998 C24.6,20.038422 26.119856,21.573556 28.156424,21.592172 C28.627456,21.596472 29.302456,21.476084 29.656424,21.324632 L29.656424,21.324632 Z M11.0564238,11.1246318 C13.4004638,10.1216858 13.9482052,6.9144998 12.0746322,5.1627238 C9.7602362,2.9987818 6,4.6312738 6,7.7999998 C6,9.8384218 7.5198566,11.3735558 9.5564238,11.3921718 C10.0274568,11.3964718 10.7024568,11.2760838 11.0564238,11.1246318 Z M146.565198,56.669434 C146.02574,56.322804 145.6,55.62639 145.6,55.09059 C145.6,54.569914 146.290146,54.79969 146.702646,55.457704 C147.014482,55.95514 147.26606,56.113536 147.818122,56.160014 C148.809864,56.243512 149.394654,55.723632 149.541636,54.627804 L149.658074,53.759698 L149.038968,54.079848 C146.759038,55.258846 144.6412,53.003216 145.684244,50.50686 C145.84228,50.128628 146.237484,49.687464 146.574312,49.513284 C147.34945,49.112444 148.584668,49.111514 149.155498,49.511284 C149.557808,49.793072 149.6,49.793072 149.6,49.511284 C149.6,49.333278 149.771302,49.199944 150,49.199944 C150.383316,49.199944 150.4,49.333278 150.4,52.396788 L150.4,55.593634 L149.833598,56.227548 C149.355114,56.763064 149.098994,56.873224 148.183598,56.937238 C147.398848,56.992116 146.952506,56.918238 146.565198,56.669378 L146.565198,56.669434 Z M148.997664,53.242108 C149.29709,52.999648 149.47334,52.585258 149.544118,51.957314 C149.634846,51.15238 149.5808,50.962618 149.133388,50.515206 C148.014734,49.396552 146.4,50.12243 146.4,51.743954 C146.4,53.295354 147.878718,54.148176 148.997664,53.242108 Z M155.4,53.1 C155.4,49.333334 155.41368,49.2 155.8,49.2 C156.028698,49.2 156.2,49.333334 156.2,49.51134 C156.2,49.793128 156.242192,49.793128 156.644502,49.51134 C157.203402,49.119872 158.44584,49.110008 159.182962,49.49119 C159.492668,49.651344 159.893198,50.092446 160.073032,50.471416 C161.191974,52.829414 159.006824,55.241194 156.790068,54.094864 L156.2,53.789728 L156.2,55.394864 C156.2,56.866666 156.166774,57 155.8,57 C155.413676,57 155.4,56.866666 155.4,53.1 L155.4,53.1 Z M158.90909,53.1091 C159.541906,52.476286 159.577318,51.279376 158.985484,50.526982 C158.419802,49.807834 157.379274,49.802554 156.666612,50.515222 C156.2192,50.962634 156.165154,51.152396 156.255882,51.95733 C156.433376,53.532042 157.864774,54.153424 158.90909,53.109106 L158.90909,53.1091 Z M54.517494,53.788542 C53.2657,52.689452 53.349436,50.390888 54.670618,49.585278 C55.43126,49.121468 56.747134,49.085234 57.355498,49.51135 L57.8,49.822682 L57.8,47.61134 C57.8,45.533334 57.824118,45.4 58.2,45.4 C58.587878,45.4 58.6,45.533334 58.6,49.8 C58.6,54.066666 58.58788,54.2 58.2,54.2 C57.98,54.2 57.8,54.107688 57.8,53.994864 C57.8,53.877278 57.548162,53.919958 57.209932,54.094864 C56.24816,54.592216 55.31146,54.485642 54.517494,53.788532 L54.517494,53.788542 Z M57.197664,53.242118 C57.49709,52.999658 57.67334,52.585268 57.744118,51.957324 C57.834846,51.15239 57.7808,50.962628 57.333388,50.515216 C56.214734,49.396552 54.6,50.12243 54.6,51.743954 C54.6,53.295354 56.078718,54.148176 57.197664,53.242108 L57.197664,53.242118 Z M63.0544,54.157874 C62.504466,53.892456 62.256018,53.212602 62.625506,52.984246 C62.79613,52.878794 63.045268,52.960702 63.309798,53.209216 C63.784966,53.655612 64.212796,53.707214 64.56,53.36001 C65.046746,52.873264 64.806286,52.428766 63.75,51.862704 C62.915326,51.415404 62.686766,51.18457 62.635468,50.737082 C62.530882,49.824754 63.07477,49.20001 63.973614,49.20001 C64.649914,49.20001 65.4,49.644024 65.4,50.04436 C65.4,50.299028 64.759214,50.377928 64.418586,50.165202 C64.217506,50.039626 63.906064,49.99326 63.726494,50.062168 C63.126038,50.292586 63.380078,50.805684 64.287112,51.194486 C65.471736,51.702274 65.916374,52.37843 65.621644,53.22389 C65.500714,53.57079 65.243872,53.974468 65.050886,54.120954 C64.632196,54.438754 63.673118,54.456492 63.0544,54.157874 L63.0544,54.157874 Z M78.15,54.085616 C77.831416,53.91277 77.6,53.874064 77.6,53.993612 C77.6,54.107126 77.373244,54.2 77.0961,54.2 L76.5922,54.2 L76.6461,49.85 C76.69988,45.509698 76.701004,45.499858 77.15,45.43609 C77.593532,45.373098 77.6,45.40416 77.6,47.59743 L77.6,49.822682 L78.044502,49.51134 C79.264644,48.65672 81.187716,49.468892 81.603932,51.0146 C82.219042,53.298944 80.12763,55.158486 78.15,54.085606 L78.15,54.085616 Z M80.30909,53.1091 C81.381748,52.036434 80.655302,50 79.2,50 C78.810326,50 78.400356,50.181462 78.09091,50.49091 C77.018252,51.563566 77.744698,53.6 79.2,53.6 C79.589674,53.6 79.999644,53.418538 80.30909,53.10909 L80.30909,53.1091 Z M83.7,54.169054 C82.908474,53.736122 82.8,53.385718 82.8,51.261774 C82.8,49.333334 82.825868,49.2 83.2,49.2 C83.571464,49.2 83.6,49.333334 83.6,51.069002 C83.6,53.081012 83.83611,53.6 84.751462,53.6 C85.594828,53.6 85.8,53.10802 85.8,51.085714 C85.8,49.20762 85.80202,49.2 86.3,49.2 C86.793416,49.2 86.8,49.22199 86.8,50.870156 C86.8,51.78874 86.700242,52.826476 86.578316,53.176232 C86.219096,54.206694 84.716444,54.725006 83.7,54.169054 L83.7,54.169054 Z M92.445014,53.99916 C91.660504,53.520844 91.4,52.914544 91.4,51.56698 C91.4,50.688454 91.486744,50.473256 92.08,49.88 C92.634842,49.325158 92.912754,49.2 93.589932,49.2 C95.108924,49.2 96,50.016886 96,51.40941 L96,52 L94.1,52 C93.055,52 92.2,52.04947 92.2,52.109932 C92.2,52.424402 92.827906,53.367912 93.10896,53.475764 C93.766884,53.728232 94.431632,53.586478 94.885294,53.096968 C95.17825,52.780862 95.47198,52.640176 95.675744,52.718366 C96.057366,52.86481 96.064398,52.905968 95.794072,53.411078 C95.277738,54.375854 93.55811,54.677814 92.445014,53.99916 L92.445014,53.99916 Z M95.081382,50.95 C94.521026,49.965014 93.478188,49.686248 92.765748,50.330998 C92.04385,50.984306 92.303488,51.2 93.811804,51.2 C94.883766,51.2 95.189372,51.139822 95.081382,50.95 Z M98.41928,54.147052 C96.787158,53.308272 96.644588,50.45062 98.189336,49.538114 C98.905818,49.114878 100.170628,49.101682 100.755498,49.51134 L101.2,49.822682 L101.2,47.59743 C101.2,45.40416 101.20646,45.373098 101.65,45.43609 C102.098996,45.499858 102.10012,45.509698 102.1539,49.85 L102.2078,54.2 L101.7039,54.2 C101.426756,54.2 101.2,54.107688 101.2,53.994864 C101.2,53.877278 100.948162,53.919958 100.609932,54.094864 C99.899384,54.462302 99.0711,54.482034 98.41928,54.147052 L98.41928,54.147052 Z M100.70909,53.10909 C101.341906,52.476276 101.377318,51.279366 100.785484,50.526972 C100.228748,49.819198 99.179118,49.8027 98.49091,50.49091 C97.418252,51.563566 98.144698,53.6 99.6,53.6 C99.989674,53.6 100.399644,53.418538 100.70909,53.10909 L100.70909,53.10909 Z M107.129204,53.90955 C106.51729,53.342446 106.467452,53.09366 106.93019,52.91609 C107.131406,52.838876 107.40787,52.947698 107.63798,53.194692 C108.09066,53.680588 108.654052,53.716842 109.013914,53.283236 C109.351448,52.876532 109.074818,52.400682 108.281552,52.023442 C107.330432,51.571134 107,51.178334 107,50.5 C107,49.684112 107.534294,49.2 108.43475,49.2 C109.311498,49.2 109.978062,49.803244 109.520718,50.182806 C109.295404,50.3698 109.14519,50.36916 108.842166,50.179926 C108.628116,50.04625 108.306064,49.993258 108.126494,50.062166 C107.620744,50.256242 107.740614,50.783106 108.35,51.044544 C109.627466,51.592604 110,51.988746 110,52.79911 C110,54.257528 108.239468,54.938516 107.129204,53.909558 L107.129204,53.90955 Z M118.845014,53.99916 C118.060504,53.520844 117.8,52.914544 117.8,51.56698 C117.8,50.688454 117.886744,50.473256 118.48,49.88 C119.034842,49.325158 119.312754,49.2 119.989932,49.2 C121.508924,49.2 122.4,50.016886 122.4,51.40941 L122.4,52 L120.5,52 C119.455,52 118.6,52.04947 118.6,52.109932 C118.6,52.424402 119.227906,53.367912 119.50896,53.475764 C120.166884,53.728232 120.831632,53.586478 121.285294,53.096968 C121.57825,52.780862 121.87198,52.640176 122.075744,52.718366 C122.457366,52.86481 122.464398,52.905968 122.194072,53.411078 C121.677738,54.375854 119.95811,54.677814 118.845014,53.99916 L118.845014,53.99916 Z M121.481382,50.95 C120.921026,49.965014 119.878188,49.686248 119.165748,50.330998 C118.44385,50.984306 118.703488,51.2 120.211804,51.2 C121.283766,51.2 121.589372,51.139822 121.481382,50.95 Z M124.117494,53.788532 C122.8657,52.689442 122.949436,50.390878 124.270618,49.585268 C125.03126,49.121458 126.347134,49.085224 126.955498,49.51134 C127.357808,49.793128 127.4,49.793128 127.4,49.51134 C127.4,49.333334 127.571302,49.2 127.8,49.2 C128.178666,49.2 128.2,49.333334 128.2,51.7 C128.2,54.066666 128.178666,54.2 127.8,54.2 C127.58,54.2 127.4,54.107688 127.4,53.994864 C127.4,53.877278 127.148162,53.919958 126.809932,54.094864 C125.84816,54.592216 124.91146,54.485642 124.117494,53.788532 L124.117494,53.788532 Z M126.797664,53.242108 C127.09709,52.999648 127.27334,52.585258 127.344118,51.957314 C127.434846,51.15238 127.3808,50.962618 126.933388,50.515206 C125.814734,49.396552 124.2,50.12243 124.2,51.743954 C124.2,53.295354 125.678718,54.148176 126.797664,53.242108 Z M164.552514,54.086922 C163.79991,53.678564 163.4,52.812136 163.4,51.589932 C163.4,50.685304 163.48273,50.47727 164.08,49.88 C164.646214,49.313786 164.9065,49.2 165.635498,49.2 C166.117024,49.2 166.70189,49.333706 166.935204,49.497126 C167.310452,49.75996 167.37257,49.75996 167.473428,49.497126 C167.536138,49.333706 167.77027,49.2 167.993724,49.2 C168.380424,49.2 168.4,49.320458 168.4,51.7 L168.4,54.2 L167.9,54.2 C167.625,54.2 167.4,54.104896 167.4,53.98866 C167.4,53.8702 167.204646,53.91415 166.955498,54.08866 C166.399632,54.478004 165.271772,54.477188 164.552514,54.08686 L164.552514,54.086922 Z M166.913458,53.139156 C168.069244,52.14499 167.383334,50 165.909638,50 C164.607612,50 163.859548,51.295234 164.403344,52.608072 C164.851206,53.689308 165.993014,53.930888 166.913458,53.139156 L166.913458,53.139156 Z M177.7,54.209194 C175.916458,53.471472 175.717114,50.52592 177.38409,49.541212 C178.099714,49.118484 179.427808,49.100684 180.206546,49.503386 C181.867718,50.36241 181.786246,53.286418 180.078562,54.096768 C179.38799,54.424466 178.340184,54.473992 177.7,54.209194 Z M180.015384,53.015384 C180.668794,52.361976 180.758412,51.68647 180.307398,50.814304 C179.97439,50.17034 179.642018,50 178.718506,50 C177.214764,50 176.500132,52.118648 177.665698,53.121226 C178.437106,53.784764 179.28416,53.746608 180.015384,53.015384 Z M42.633334,54.005792 C42.930868,53.139032 46.126366,46.006352 46.21839,46.0035732 C46.305986,46.000934 49.23481,52.626048 49.771796,54.041524 C49.811284,54.145612 49.597872,54.20135 49.297546,54.165388 C48.84808,54.111564 48.6762,53.914322 48.32575,53.05019 L47.9,52.000382 L46.186802,52.00019 L44.473606,52 L44.01768,53.1 C43.637866,54.016372 43.4787,54.2 43.064212,54.2 C42.790562,54.2 42.596666,54.112606 42.633334,54.005792 Z M47.4015344,51.05 C47.40407,50.800896 46.307608,48.201302 46.2,48.201302 C46.092392,48.201302 44.99593,50.800896 44.9984656,51.05 C44.99927,51.1325 45.54,51.2 46.2,51.2 C46.86,51.2 47.400688,51.1325 47.4015344,51.05 Z M60.2,51.7 C60.2,49.333334 60.221334,49.2 60.6,49.2 C60.978666,49.2 61,49.333334 61,51.7 C61,54.066666 60.978666,54.2 60.6,54.2 C60.221334,54.2 60.2,54.066666 60.2,51.7 Z M67.4,52.1 C67.4,50.366666 67.34762,50 67.1,50 C66.933334,50 66.8,49.822222 66.8,49.6 C66.8,49.377778 66.933334,49.2 67.1,49.2 C67.322222,49.2 67.4,48.966666 67.4,48.3 C67.4,47.533334 67.45926,47.4 67.8,47.4 C68.14074,47.4 68.2,47.533334 68.2,48.3 C68.2,49.126666 68.24074,49.2 68.7,49.2 C69.364628,49.2 69.40903,49.942492 68.75,50.03609 C68.321142,50.096998 68.297322,50.19631 68.243004,52.15 C68.19059,54.035164 68.154406,54.2 67.793004,54.2 C67.427284,54.2 67.4,54.054204 67.4,52.1 Z M70.4,51.7 C70.4,49.333334 70.421334,49.2 70.8,49.2 C71.02,49.2 71.2,49.293166 71.2,49.407036 C71.2,49.549752 71.320186,49.549752 71.586852,49.407036 C72.038554,49.165294 72.93448,49.132182 73.070462,49.352206 C73.244222,49.633356 72.704716,50.1 72.205906,50.1 C71.494354,50.1 71.206406,50.8321 71.202948,52.65 C71.200248,54.065684 71.165338,54.2 70.8,54.2 C70.421334,54.2 70.4,54.066666 70.4,51.7 L70.4,51.7 Z M74.2,51.7 C74.2,49.333334 74.221334,49.2 74.6,49.2 C74.978666,49.2 75,49.333334 75,51.7 C75,54.066666 74.978666,54.2 74.6,54.2 C74.221334,54.2 74.2,54.066666 74.2,51.7 Z M88.6,52.1 C88.6,50.833334 88.520634,50 88.4,50 C88.29,50 88.2,49.82 88.2,49.6 C88.2,49.38 88.29,49.2 88.4,49.2 C88.51,49.2 88.6,48.795 88.6,48.3 C88.6,47.473334 88.64074,47.4 89.1,47.4 C89.55926,47.4 89.6,47.473334 89.6,48.3 C89.6,49.066666 89.65926,49.2 90,49.2 C90.266666,49.2 90.4,49.333334 90.4,49.6 C90.4,49.866666 90.266666,50 90,50 C89.625396,50 89.6,50.133334 89.6,52.1 L89.6,54.2 L89.1,54.2 L88.6,54.2 L88.6,52.1 Z M111.6,52.193724 C111.6,50.594864 111.539078,50.164068 111.3,50.072326 C111.135,50.009008 111,49.786834 111,49.578602 C111,49.370372 111.135,49.2 111.3,49.2 C111.522222,49.2 111.6,48.966666 111.6,48.3 C111.6,47.533334 111.65926,47.4 112,47.4 C112.34074,47.4 112.4,47.533334 112.4,48.3 C112.4,49.066666 112.45926,49.2 112.8,49.2 C113.066666,49.2 113.2,49.333334 113.2,49.6 C113.2,49.866666 113.066666,50 112.8,50 C112.425396,50 112.4,50.133334 112.4,52.1 C112.4,54.066666 112.374604,54.2 112,54.2 C111.626584,54.2 111.6,54.066666 111.6,52.193724 Z M114.4,51.7 L114.4,49.2 L114.9,49.2 C115.175,49.2 115.4,49.308 115.4,49.44 C115.4,49.626666 115.453334,49.626666 115.64,49.44 C115.772,49.308 116.186628,49.2 116.561398,49.2 C117.100574,49.2 117.217458,49.26603 117.121398,49.516358 C117.054628,49.690354 117,49.870354 117,49.916358 C117,49.96236 116.733166,50 116.407036,50 C115.586174,50 115.4,50.459754 115.4,52.486852 C115.4,54.180876 115.39442,54.2 114.9,54.2 L114.4,54.2 L114.4,51.7 Z M129.6,51.7 L129.6,49.2 L130.1,49.2 C130.375,49.2 130.6,49.308 130.6,49.44 C130.6,49.626666 130.653334,49.626666 130.84,49.44 C131.16606,49.11394 132.237264,49.136906 132.706494,49.480018 C133.034746,49.72004 133.14654,49.72004 133.489222,49.480018 C134.17336,49.000828 135.310496,49.123124 135.785484,49.726972 C136.141214,50.17921 136.2,50.533752 136.2,52.226972 C136.2,54.066666 136.172968,54.2 135.8,54.2 C135.433606,54.2 135.4,54.066666 135.4,52.61302 C135.4,50.54152 135.195246,50 134.411986,50 C133.585626,50 133.4,50.456158 133.4,52.486852 C133.4,54.180876 133.39442,54.2 132.9,54.2 C132.404044,54.2 132.4,54.185576 132.4,52.416358 C132.4,50.237846 132.31984,50 131.585638,50 C130.788532,50 130.6,50.475684 130.6,52.486852 C130.6,54.180876 130.59442,54.2 130.1,54.2 L129.6,54.2 L129.6,51.7 Z M137.8,51.7 L137.8,49.2 L138.3,49.2 L138.8,49.2 L138.8,51.7 L138.8,54.2 L138.3,54.2 L137.8,54.2 L137.8,51.7 Z M140.4,51.7 C140.4,49.369566 140.426,49.2 140.783334,49.2 C140.994166,49.2 141.207916,49.3125 141.258334,49.45 C141.331666,49.65 141.403,49.65 141.615,49.45 C142.017638,49.070154 143.288908,49.145976 143.827844,49.581982 C144.26087,49.932306 144.305652,50.139496 144.368204,52.081982 L144.43641,54.2 L143.918204,54.2 L143.4,54.2 L143.4,52.324488 C143.4,50.25267 143.236962,49.923374 142.266728,50.035548 C141.48564,50.125856 141.206444,50.812036 141.202948,52.65 C141.200248,54.065684 141.165338,54.2 140.8,54.2 C140.421334,54.2 140.4,54.066666 140.4,51.7 Z M161.4,49.8 C161.4,45.533334 161.41212,45.4 161.8,45.4 C162.187878,45.4 162.2,45.533334 162.2,49.8 C162.2,54.066666 162.18788,54.2 161.8,54.2 C161.412122,54.2 161.4,54.066666 161.4,49.8 Z M170.2,52.1 C170.2,50.833334 170.120634,50 170,50 C169.89,50 169.8,49.82 169.8,49.6 C169.8,49.38 169.89,49.2 170,49.2 C170.11,49.2 170.2,48.795 170.2,48.3 C170.2,47.473334 170.24074,47.4 170.7,47.4 C171.15926,47.4 171.2,47.473334 171.2,48.3 C171.2,49.066666 171.25926,49.2 171.6,49.2 C171.866666,49.2 172,49.333334 172,49.6 C172,49.866666 171.866666,50 171.6,50 C171.225396,50 171.2,50.133334 171.2,52.1 L171.2,54.2 L170.7,54.2 L170.2,54.2 L170.2,52.1 Z M173.6,52.1 C173.6,50.833334 173.520634,50 173.4,50 C173.29,50 173.2,49.82 173.2,49.6 C173.2,49.38 173.28047,49.2 173.378822,49.2 C173.477176,49.2 173.590706,48.471992 173.631114,47.582202 C173.713868,45.759928 173.962448,45.4 175.138226,45.4 C175.659088,45.4 175.8,45.482344 175.8,45.786716 C175.8,46.059912 175.63855,46.192008 175.25,46.236716 C174.712712,46.298538 174.698642,46.333512 174.641238,47.75 L174.582476,49.2 L175.191238,49.2 C175.666666,49.2 175.8,49.28761 175.8,49.6 C175.8,49.911112 175.666666,50 175.2,50 L174.6,50 L174.6,52.1 L174.6,54.2 L174.1,54.2 L173.6,54.2 L173.6,52.1 Z M182.6,51.7 C182.6,49.333334 182.621334,49.2 183,49.2 C183.22,49.2 183.4,49.293166 183.4,49.407036 C183.4,49.549752 183.520186,49.549752 183.786852,49.407036 C183.99962,49.293166 184.41122,49.2 184.701516,49.2 C185.437188,49.2 185.303356,49.876118 184.550474,49.963074 C183.671422,50.064602 183.4,50.673618 183.4,52.544502 C183.4,54.066666 183.367784,54.2 183,54.2 C182.621334,54.2 182.6,54.066666 182.6,51.7 Z M186.4,51.7 C186.4,49.333334 186.421334,49.2 186.8,49.2 C187.02,49.2 187.2,49.293166 187.2,49.407036 C187.2,49.549752 187.320186,49.549752 187.586852,49.407036 C188.162764,49.098818 189.02028,49.156358 189.434252,49.530998 C189.77484,49.839224 189.826112,49.838364 190.179558,49.518498 C190.445548,49.27778 190.819568,49.193702 191.429558,49.2375 C192.643522,49.324664 192.999264,50.05251 192.999704,52.449998 C193.00009,54.183414 192.99527,54.2 192.5,54.2 C192.002212,54.2 192,54.191698 192,52.324486 C192,50.29855 191.825228,49.911506 190.966014,50.034646 C190.293076,50.131088 190.006258,50.909986 190.002948,52.649998 C190.000248,54.065682 189.965338,54.2 189.6,54.2 C189.231132,54.2 189.2,54.066664 189.2,52.48685 C189.2,50.55029 189.0018,50 188.304304,50 C187.498266,50 187.2,50.687256 187.2,52.544502 C187.2,54.066666 187.167784,54.2 186.8,54.2 C186.421334,54.2 186.4,54.066666 186.4,51.7 Z M60.077708,47.714028 C59.878574,47.195094 60.157684,46.76619 60.649106,46.835972 C60.979652,46.88291 61.1,47.033454 61.1,47.4 C61.1,47.766546 60.979652,47.91709 60.649106,47.964028 C60.37865,48.002432 60.149988,47.902388 60.077708,47.714028 L60.077708,47.714028 Z M74.077708,47.714028 C73.878574,47.195094 74.157684,46.76619 74.649106,46.835972 C74.979652,46.88291 75.1,47.033454 75.1,47.4 C75.1,47.766546 74.979652,47.91709 74.649106,47.964028 C74.37865,48.002432 74.149988,47.902388 74.077708,47.714028 L74.077708,47.714028 Z M137.798788,47.698548 C137.577486,47.431896 137.586112,47.328182 137.851672,47.062622 C138.280572,46.633722 138.846058,46.872008 138.764028,47.44707 C138.685886,47.994864 138.158698,48.132214 137.798788,47.698548 L137.798788,47.698548 Z M62.346894,42.58239 C58.95049,41.782206 56.6,38.394694 56.6,34.3 C56.6,29.711868 59.41334,26.245172 63.44207,25.868964 C65.047652,25.719032 66.561076,26.128948 67.96341,27.093586 L68.976426,27.790416 L69.038212,27.045208 L69.1,26.3 L70.95,26.242494 L72.8,26.18499 L72.8,34.3 L72.8,42.41501 L70.95,42.357506 L69.1,42.3 L69.037328,41.65 C69.002858,41.2925 68.93458,41 68.885596,41 C68.836614,41 68.422588,41.270888 67.96554,41.601972 C66.49085,42.670232 64.324346,43.048272 62.346894,42.58239 Z M66.220156,39.17238 C68.144682,38.528024 69.269886,36.729206 69.2622193,34.309216 C69.25696,32.672212 68.87359,31.606354 67.939864,30.632936 C67.001404,29.654582 66.258528,29.334438 64.884382,29.316164 C63.157842,29.293206 61.937826,30.060082 61.103064,31.69302 C59.931382,33.98503 60.475528,37.121968 62.28408,38.501416 C63.426634,39.372886 64.880886,39.620784 66.220156,39.17238 L66.220156,39.17238 Z M106.944652,42.51606 C104.054964,41.738878 101.801476,38.737744 101.475714,35.232686 C101.122558,31.432868 102.891656,27.963086 105.94345,26.469982 C106.896868,26.003518 107.345036,25.911584 108.691336,25.906204 C110.553644,25.899006 111.753732,26.282744 113.11271,27.320074 L114,27.997358 L114,27.091174 L114,26.18499 L115.85,26.242494 L117.7,26.3 L117.7,34.3 L117.7,42.3 L115.85,42.357506 L114,42.41501 L114,41.605462 L114,40.795914 L112.924084,41.510282 C111.050206,42.754468 109.069716,43.087598 106.944652,42.51606 Z M111.1,39.177992 C112.998034,38.65656 114.380622,36.182924 114.127518,33.761358 C113.931254,31.883606 113.084246,30.455624 111.768354,29.784016 C110.070452,28.917438 108.327006,29.12641 106.956622,30.360762 C105.807702,31.395632 105.355556,32.517018 105.355556,34.33163 C105.355556,37.925004 107.886992,40.060676 111.1,39.177992 Z M42.6,28.507506 L42.6,14.5999998 L44.5,14.5999998 L46.4,14.5999998 L46.4,22.947114 L46.4,31.294228 L48.95278,28.747114 L51.505562,26.2 L53.95278,26.2 C55.298752,26.2 56.4,26.249396 56.4,26.30977 C56.4,26.370144 54.86883,27.922644 52.997398,29.75977 L49.594796,33.0999998 L53.312162,37.7 L57.029528,42.3 L54.776992,42.356904 C53.538098,42.3882 52.416728,42.372464 52.28506,42.321942 C52.15339,42.271416 50.873718,40.74155 49.441342,38.922242 C47.45239,36.396006 46.786668,35.67508 46.623914,35.871186 C46.49925,36.021398 46.387814,37.408706 46.355404,39.213982 L46.3,42.3 L44.45,42.357506 L42.6,42.41501 L42.6,28.507506 Z M76.933334,42.266666 C76.86,42.193334 76.8,39.358334 76.8,35.966666 L76.8,29.8 L76.2,29.8 L75.6,29.8 L75.6,28 L75.6,26.1999998 L76.2,26.1999998 L76.8,26.1999998 L76.80396,23.05 C76.81104,17.4122638 77.29731,15.8447258 79.375924,14.7588438 C80.259834,14.2970858 80.697112,14.1999998 81.892994,14.1999998 C82.689018,14.1999998 83.62374,14.2988038 83.970156,14.4195658 L84.6,14.6391298 L84.6,16.6014158 L84.6,18.5636998 L83.809662,18.1818498 C83.009154,17.7950878 81.882266,17.6844238 81.47994,17.9530618 C80.87974,18.3538278 80.730062,19.1900958 80.639274,22.649982 L80.546122,26.1999998 L82.573062,26.1999998 L84.6,26.1999998 L84.6,28 L84.6,29.8 L82.6,29.8 L80.6,29.8 L80.6,36.1 L80.6,42.4 L78.833334,42.4 C77.861666,42.4 77.006666,42.34 76.933334,42.266666 Z M87.4,28.5 L87.4,14.5999998 L89.3,14.5999998 L91.2,14.5999998 L91.2,22.947114 L91.2,31.294228 L93.75278,28.747114 L96.305562,26.2 L98.75278,26.2 C100.098752,26.2 101.2,26.272396 101.2,26.360878 C101.2,26.449362 99.670484,27.985986 97.801074,29.7756 L94.402148,33.029444 L98.101074,37.606656 C100.135484,40.124124 101.8,42.232498 101.8,42.291934 C101.8,42.35137 100.7229,42.4 99.406444,42.4 L97.012888,42.4 L94.362576,39.011918 C92.330538,36.41422 91.652512,35.673426 91.456132,35.836408 C91.267636,35.992846 91.2,36.887524 91.2,39.224488 L91.2,42.4 L89.3,42.4 L87.4,42.4 L87.4,28.5 Z M120.462942,42.107268 C119.797908,41.818026 119.2,40.916738 119.2,40.203508 C119.2,38.17225 121.582284,37.110944 123.062506,38.482768 C124.188398,39.52621 123.879144,41.536646 122.504388,42.111056 C121.657414,42.464944 121.283726,42.464252 120.462942,42.107276 L120.462942,42.107268 Z M122.530914,41.613798 C123.286516,41.153062 123.552562,40.251158 123.190622,39.377358 C122.944438,38.78302 122.107256,38.2 121.5,38.2 C120.892744,38.2 120.055562,38.78302 119.809378,39.377358 C119.07128,41.159288 120.862426,42.631174 122.530914,41.613798 L122.530914,41.613798 Z M120.8,40.1 C120.8,38.71707 120.956294,38.548462 121.813148,39.007036 C122.27093,39.252034 122.326928,39.963846 121.90127,40.127188 C121.64896,40.224008 121.666614,40.331804 122.01489,40.82091 C122.50241,41.50557 122.143006,41.614434 121.588712,40.95 L121.213308,40.5 L121.206648,40.95 C121.202988,41.1975 121.11,41.4 121,41.4 C120.88718,41.4 120.8,40.833334 120.8,40.1 Z M121.7,39.6 C121.7,39.453334 121.5875,39.295834 121.45,39.25 C121.301282,39.200428 121.2,39.342222 121.2,39.6 C121.2,39.857778 121.301282,39.999572 121.45,39.95 C121.5875,39.904166 121.7,39.746666 121.7,39.6 Z M49.2,19.524998 C49.2,19.1552118 51.453076,14.7792078 51.572188,14.9176518 C51.905774,15.3053858 53.659116,19.40755 53.541518,19.525148 C53.311664,19.755004 52.795592,19.414448 52.601948,18.9051258 C52.432616,18.4597458 52.293906,18.3999998 51.429214,18.3999998 C50.528124,18.3999998 50.428356,18.4486978 50.2,18.9999998 C50.04858,19.3655578 49.804658,19.6 49.575736,19.6 C49.369082,19.6 49.2,19.56625 49.2,19.524998 Z M51.992912,17.5499998 C51.980852,17.1244318 51.463934,16.3347498 51.334508,16.5441658 C51.267134,16.6531778 51.121536,16.9803358 51.010956,17.2711858 C50.821498,17.7694978 50.844224,17.7999998 51.40495,17.7999998 C51.751436,17.7999998 51.99704,17.6955698 51.992912,17.5499998 L51.992912,17.5499998 Z M54.4,17.2999998 L54.4,14.9999998 L55.25,15.0030598 C56.222948,15.0065598 56.443302,15.1162658 56.786808,15.7681438 C57.136012,16.4308358 56.729006,17.3659998 56.024682,17.5192458 C55.028864,17.7359178 55,17.7689998 55,18.6937218 C55,19.3659678 54.92253,19.599998 54.7,19.599998 C54.450724,19.599998 54.4,19.2111098 54.4,17.2999978 L54.4,17.2999998 Z M55.96,16.7599998 C56.298822,16.4211778 56.257934,15.8650278 55.883642,15.7213978 C55.199796,15.4589818 55,15.5898058 55,16.2999998 C55,16.8407418 55.081904,16.9999998 55.36,16.9999998 C55.558,16.9999998 55.828,16.8919998 55.96,16.7599998 Z M56.7965595,19.45 C56.790692,19.1928518 58.854616,14.7999998 58.98131,14.7999998 C59.08706,14.7999998 60.921816,18.7882478 61.050234,19.2972618 C61.077606,19.405754 60.940268,19.525284 60.745042,19.56288 C60.498432,19.610374 60.324574,19.443324 60.175476,19.0156198 C59.975382,18.4416278 59.894922,18.3999998 58.985572,18.3999998 C58.104188,18.3999998 57.980394,18.4577778 57.7,18.9999998 C57.424054,19.53362 56.805524,19.841712 56.7965595,19.45 L56.7965595,19.45 Z M59.6,17.6900678 C59.6,17.6296058 59.454712,17.2991778 59.277136,16.9557858 C58.939252,16.3023898 58.811038,16.3683378 58.510716,17.3499998 C58.388714,17.7487858 58.442866,17.7999998 58.986522,17.7999998 C59.323936,17.7999998 59.6,17.7505298 59.6,17.6900678 L59.6,17.6900678 Z M62.61928,19.3470518 C60.932064,18.4799578 60.932354,15.9623738 62.61968,15.0897778 C63.668832,14.5472858 65,14.8405038 65,15.6140738 C65,15.9475658 64.935678,15.9796498 64.613148,15.8070378 C64.011128,15.4848458 63.09074,15.5624058 62.576702,15.9786478 C62.2241,16.2641698 62.10909,16.5590598 62.10909,17.1776378 C62.10909,18.5358518 63.000362,19.1198718 64.45,18.7115538 C64.88258,18.5897098 65,18.6238098 65,18.8712818 C65,19.540298 63.55659,19.828754 62.61928,19.3470518 L62.61928,19.3470518 Z M65.933334,19.466666 C65.86,19.3933338 65.8,18.3583338 65.8,17.1666658 C65.8,15.1333338 65.824616,14.9999998 66.2,14.9999998 C66.533334,14.9999998 66.6,15.1333338 66.6,15.7999998 L66.6,16.5999998 L67.6,16.5999998 L68.6,16.5999998 L68.6,15.7999998 C68.6,15.2222218 68.683334,14.9999998 68.9,14.9999998 C69.149276,14.9999998 69.2,15.3888898 69.2,17.2999998 C69.2,19.2111118 69.149276,19.6 68.9,19.6 C68.669696,19.6 68.6,19.3444438 68.6,18.4999998 L68.6,17.3999998 L67.6,17.3999998 L66.6,17.3999998 L66.6,18.4999998 C66.6,19.2833338 66.523232,19.6 66.333334,19.6 C66.186666,19.6 66.006666,19.54 65.933334,19.466666 Z M70.333334,19.466666 C70.26,19.3933338 70.2,18.3583338 70.2,17.1666658 L70.2,14.9999998 L71.5,14.9999998 C72.522222,14.9999998 72.8,15.0641018 72.8,15.2999998 C72.8,15.5222218 72.566666,15.5999998 71.9,15.5999998 C71.073334,15.5999998 71,15.6407418 71,16.0999998 C71,16.5592598 71.073334,16.5999998 71.9,16.5999998 C72.666666,16.5999998 72.8,16.6592598 72.8,16.9999998 C72.8,17.3407418 72.666666,17.3999998 71.9,17.3999998 C71.004762,17.3999998 71,17.4036998 71,18.0999998 C71,18.7962958 71.00476,18.7999998 71.9,18.7999998 C72.666666,18.7999998 72.8,18.8592598 72.8,19.1999998 C72.8,19.554286 72.666666,19.6 71.633334,19.6 C70.991666,19.6 70.406666,19.54 70.333334,19.466666 Z" id="path879"></path>
        </g>
    </g>
</svg>