<svg height="58" viewBox="0 0 194 58" width="194" xmlns="http://www.w3.org/2000/svg"><path d="m7.0599674 56.638984c-2.037733-.726446-3.6919916-2.243308-4.6229482-4.238984-.6695004-1.435198-.8290816-3.836964-.3617516-5.444524.626965-2.156682 2.6748358-4.366136 4.7201296-5.09256l1.0046028-.356804v-1.616532-1.616532l-1.0858206-.342274c-2.1687446-.683636-4.4377394-2.604732-5.60119094-4.742376-1.47230738-2.705114-1.47230738-6.671682 0-9.376796 1.16345154-2.137644 3.43244634-4.05874 5.60119094-4.7423762l1.0858206-.342274v-1.616532-1.616532l-1.0046028-.356804c-2.0452938-.726424-4.0931646-2.935876-4.7201296-5.09256-.4713468-1.621378-.3079276-4.002914.3772804-5.498174.6797942-1.483444 2.394039-3.20294608 3.8938024-3.90574408 1.0241096-.479902 1.3894526-.540606 3.2536496-.540606s2.22954.060704 3.2536496.540606c1.4997634.702798 3.2140082 2.42230008 3.8938024 3.90574408.685208 1.49526.8486272 3.876796.3772804 5.498174-.6278902 2.159866-2.6749738 4.366186-4.7274178 5.09515l-1.011891.359392.0572882 1.5782.0572882 1.578202 1.0498652.268132c1.4034498.358438 2.406779.8908622 3.7677442 1.9993842l1.132555.922478.8249178-.457736c.4537046-.251754 1.1254598-.645122 1.4927898-.87415l.66787-.416414.03213-2.0985802c.027906-1.82287.103152-2.250148.572734-3.252232.696302-1.485902 2.419842-3.209442 3.905744-3.905744 1.02411-.479902 1.389452-.540606 3.25365-.540606s2.22954.060704 3.25365.540606c1.485902.696302 3.209442 2.419842 3.905744 3.905744.479902 1.02411.540606 1.389454.540606 3.25365 0 1.8641982-.060704 2.2295402-.540606 3.2536502-.696302 1.485902-2.419842 3.209442-3.905744 3.905744-1.02411.479902-1.389452.540606-3.25365.540606-2.36854 0-3.353692-.322214-4.92711-1.611512l-.858974-.703864-1.512066.857688-1.5120652.8576877.1551072.8000003c.201138 1.037406.199768 4.18972-.00224 5.140816l-.1573392.740818 1.5359632.899118 1.535964.899118.837308-.686112c1.551-1.270922 2.544662-1.593758 4.905452-1.593758 1.864198 0 2.22954.060704 3.25365.540606 1.485902.696302 3.209442 2.419842 3.905744 3.905744.479902 1.02411.540606 1.389452.540606 3.25365s-.060704 2.22954-.540606 3.25365c-.696302 1.485902-2.419842 3.209442-3.905744 3.905744-1.02411.479902-1.389452.540606-3.25365.540606s-2.22954-.060704-3.25365-.540606c-1.485902-.696302-3.209442-2.419842-3.905744-3.905744-.481848-1.02826-.540606-1.386102-.540606-3.292306v-2.138654l-1.4260212-.811346c-.7843104-.446238-1.4830818-.811344-1.5528248-.811344-.0697428 0-.6238964.404886-1.2314522.899748-1.3337448 1.08635-2.3434482 1.620018-3.7398366 1.976652l-1.0498652.268132-.0572882 1.578202-.0572882 1.578202 1.011891.359392c2.052444.728962 4.0995276 2.935282 4.7274178 5.095148.4713468 1.621378.3079276 4.002914-.3772804 5.498174-.6847802 1.494326-2.3961506 3.20677-3.8938024 3.896244-1.5433306.710506-4.2348568.844806-5.7936822.28909zm3.9964564-4.114352c2.34404-1.002948 2.8917814-4.210134 1.0182084-5.961908-2.314396-2.163942-6.0746322-.53145-6.0746322 2.637276 0 2.038422 1.5198566 3.573556 3.5564238 3.592172.471033.0043 1.146033-.116088 1.5-.26754zm18.6000002-10.2c2.34404-1.002948 2.891782-4.210134 1.018208-5.961908-2.314396-2.163942-6.074632-.53145-6.074632 2.637276 0 2.038422 1.519856 3.573556 3.556424 3.592172.471032.0043 1.146032-.116088 1.5-.26754zm-17.7437496-8.45989c1.3216306-.450326 2.9017422-2.030438 3.352067-3.352068.75525-2.216536.2629746-4.411044-1.351698-6.025718-2.2885642-2.288564-5.7375226-2.288564-8.0260868 0-1.6146726 1.614674-2.106948 3.809182-1.351698 6.025718.4308188 1.264384 2.0368574 2.904722 3.2701762 3.340014 1.1887418.419562 2.8965618.424572 4.1072396.01206zm17.7437496-12.54011c2.34404-1.002948 2.891782-4.2101322 1.018208-5.9619082-2.314396-2.163942-6.074632-.53145-6.074632 2.637276 0 2.0384222 1.519856 3.5735562 3.556424 3.5921722.471032.0043 1.146032-.116088 1.5-.26754zm-18.6000002-10.2000002c2.34404-1.002946 2.8917814-4.210132 1.0182084-5.961908-2.314396-2.163942-6.0746322-.53145-6.0746322 2.637276 0 2.038422 1.5198566 3.573556 3.5564238 3.592172.471033.0043 1.146033-.116088 1.5-.26754zm135.5087742 45.5448022c-.539458-.34663-.965198-1.043044-.965198-1.578844 0-.520676.690146-.2909 1.102646.367114.311836.497436.563414.655832 1.115476.70231.991742.083498 1.576532-.436382 1.723514-1.53221l.116438-.868106-.619106.32015c-2.27993 1.178998-4.397768-1.076632-3.354724-3.572988.158036-.378232.55324-.819396.890068-.993576.775138-.40084 2.010356-.40177 2.581186-.002.40231.281788.444502.281788.444502 0 0-.178006.171302-.31134.4-.31134.383316 0 .4.133334.4 3.196844v3.196846l-.566402.633914c-.478484.535516-.734604.645676-1.65.70969-.78475.054878-1.231092-.019-1.6184-.26786zm2.432466-3.427326c.299426-.24246.475676-.65685.546454-1.284794.090728-.804934.036682-.994696-.41073-1.442108-1.118654-1.118654-2.733388-.392776-2.733388 1.228748 0 1.5514 1.478718 2.404222 2.597664 1.498154zm6.402336-.142108c0-3.766666.01368-3.9.4-3.9.228698 0 .4.133334.4.31134 0 .281788.042192.281788.444502 0 .5589-.391468 1.801338-.401332 2.53846-.02015.309706.160154.710236.601256.89007.980226 1.118942 2.357998-1.066208 4.769778-3.282964 3.623448l-.590068-.305136v1.605136c0 1.471802-.033226 1.605136-.4 1.605136-.386324 0-.4-.133334-.4-3.9zm3.50909.0091c.632816-.632814.668228-1.829724.076394-2.582118-.565682-.719148-1.60621-.724428-2.318872-.01176-.447412.447412-.501458.637174-.41073 1.442108.177494 1.574712 1.608892 2.196094 2.653208 1.151776zm-104.391596.679442c-1.251794-1.09909-1.168058-3.397654.153124-4.203264.760642-.46381 2.076516-.500044 2.68488-.073928l.444502.311332v-2.211342c0-2.078006.024118-2.21134.4-2.21134.387878 0 .4.133334.4 4.4s-.01212 4.4-.4 4.4c-.22 0-.4-.092312-.4-.205136 0-.117586-.251838-.074906-.590068.1-.961772.497352-1.898472.390778-2.692438-.306332zm2.68017-.546424c.299426-.24246.475676-.65685.546454-1.284794.090728-.804934.036682-.994696-.41073-1.442108-1.118654-1.118664-2.733388-.392786-2.733388 1.228738 0 1.5514 1.478718 2.404222 2.597664 1.498154zm5.856736.915756c-.549934-.265418-.798382-.945272-.428894-1.173628.170624-.105452.419762-.023544.684292.22497.475168.446396.902998.497998 1.250202.150794.486746-.486746.246286-.931244-.81-1.497306-.834674-.4473-1.063234-.678134-1.114532-1.125622-.104586-.912328.439302-1.537072 1.338146-1.537072.6763 0 1.426386.444014 1.426386.84435 0 .254668-.640786.333568-.981414.120842-.20108-.125576-.512522-.171942-.692092-.103034-.600456.230418-.346416.743516.560618 1.132318 1.184624.507788 1.629262 1.183944 1.334532 2.029404-.12093.3469-.377772.750578-.570758.897064-.41869.3178-1.377768.335538-1.996486.03692zm15.0956-.072258c-.318584-.172846-.55-.211552-.55-.092004 0 .113514-.226756.206388-.5039.206388h-.5039l.0539-4.35c.05378-4.340302.054904-4.350142.5039-4.41391.443532-.062992.45-.03193.45 2.16134v2.225252l.444502-.311342c1.220142-.85462 3.143214-.042448 3.55943 1.50326.61511 2.284344-1.476302 4.143886-3.453932 3.071006zm2.15909-.976516c1.072658-1.072666.346212-3.1091-1.10909-3.1091-.389674 0-.799644.181462-1.10909.49091-1.072658 1.072656-.346212 3.10909 1.10909 3.10909.389674 0 .799644-.181462 1.10909-.49091zm3.39091 1.059954c-.791526-.432932-.9-.783336-.9-2.90728 0-1.92844.025868-2.061774.4-2.061774.371464 0 .4.133334.4 1.869002 0 2.01201.23611 2.530998 1.151462 2.530998.843366 0 1.048538-.49198 1.048538-2.514286 0-1.878094.00202-1.885714.5-1.885714.493416 0 .5.02199.5 1.670156 0 .918584-.099758 1.95632-.221684 2.306076-.35922 1.030462-1.861872 1.548774-2.878316.992822zm8.745014-.169894c-.78451-.478316-1.045014-1.084616-1.045014-2.43218 0-.878526.086744-1.093724.68-1.68698.554842-.554842.832754-.68 1.509932-.68 1.518992 0 2.410068.816886 2.410068 2.20941v.59059h-1.9c-1.045 0-1.9.04947-1.9.109932 0 .31447.627906 1.25798.90896 1.365832.657924.252468 1.322672.110714 1.776334-.378796.292956-.316106.586686-.456792.79045-.378602.381622.146444.388654.187602.118328.692712-.516334.964776-2.235962 1.266736-3.349058.588082zm2.636368-3.04916c-.560356-.984986-1.603194-1.263752-2.315634-.619002-.721898.653308-.46226.869002 1.046056.869002 1.071962 0 1.377568-.060178 1.269578-.25zm3.337898 3.197052c-1.632122-.83878-1.774692-3.696432-.229944-4.608938.716482-.423236 1.981292-.436432 2.566162-.026774l.444502.311342v-2.225252c0-2.19327.00646-2.224332.45-2.16134.448996.063768.45012.073608.5039 4.41391l.0539 4.35h-.5039c-.277144 0-.5039-.092312-.5039-.205136 0-.117586-.251838-.074906-.590068.1-.710548.367438-1.538832.38717-2.190652.052188zm2.28981-1.037962c.632816-.632814.668228-1.829724.076394-2.582118-.556736-.707774-1.606366-.724272-2.294574-.036062-1.072658 1.072656-.346212 3.10909 1.10909 3.10909.389674 0 .799644-.181462 1.10909-.49091zm6.420114.80046c-.611914-.567104-.661752-.81589-.199014-.99346.201216-.077214.47768.031608.70779.278602.45268.485896 1.016072.52215 1.375934.088544.337534-.406704.060904-.882554-.732362-1.259794-.95112-.452308-1.281552-.845108-1.281552-1.523442 0-.815888.534294-1.3 1.43475-1.3.876748 0 1.543312.603244 1.085968.982806-.225314.186994-.375528.186354-.678552-.00288-.21405-.133676-.536102-.186668-.715672-.11776-.50575.194076-.38588.72094.223506.982378 1.277466.54806 1.65.944202 1.65 1.754566 0 1.458418-1.760532 2.139406-2.870796 1.110448zm11.71581.08961c-.78451-.478316-1.045014-1.084616-1.045014-2.43218 0-.878526.086744-1.093724.68-1.68698.554842-.554842.832754-.68 1.509932-.68 1.518992 0 2.410068.816886 2.410068 2.20941v.59059h-1.9c-1.045 0-1.9.04947-1.9.109932 0 .31447.627906 1.25798.90896 1.365832.657924.252468 1.322672.110714 1.776334-.378796.292956-.316106.586686-.456792.79045-.378602.381622.146444.388654.187602.118328.692712-.516334.964776-2.235962 1.266736-3.349058.588082zm2.636368-3.04916c-.560356-.984986-1.603194-1.263752-2.315634-.619002-.721898.653308-.46226.869002 1.046056.869002 1.071962 0 1.377568-.060178 1.269578-.25zm2.636112 2.838532c-1.251794-1.09909-1.168058-3.397654.153124-4.203264.760642-.46381 2.076516-.500044 2.68488-.073928.40231.281788.444502.281788.444502 0 0-.178006.171302-.31134.4-.31134.378666 0 .4.133334.4 2.5s-.021334 2.5-.4 2.5c-.22 0-.4-.092312-.4-.205136 0-.117586-.251838-.074906-.590068.1-.961772.497352-1.898472.390778-2.692438-.306332zm2.68017-.546424c.299426-.24246.475676-.65685.546454-1.284794.090728-.804934.036682-.994696-.41073-1.442108-1.118654-1.118654-2.733388-.392776-2.733388 1.228748 0 1.5514 1.478718 2.404222 2.597664 1.498154zm37.75485.844814c-.752604-.408358-1.152514-1.274786-1.152514-2.49699 0-.904628.08273-1.112662.68-1.709932.566214-.566214.8265-.68 1.555498-.68.481526 0 1.066392.133706 1.299706.297126.375248.262834.437366.262834.538224 0 .06271-.16342.296842-.297126.520296-.297126.3867 0 .406276.120458.406276 2.5v2.5h-.5c-.275 0-.5-.095104-.5-.21134 0-.11846-.195354-.07451-.444502.1-.555866.389344-1.683726.388528-2.402984-.0018zm2.360944-.947766c1.155786-.994166.469876-3.139156-1.00382-3.139156-1.302026 0-2.05009 1.295234-1.506294 2.608072.447862 1.081236 1.58967 1.322816 2.510114.531084zm10.786542 1.070038c-1.783542-.737722-1.982886-3.683274-.31591-4.667982.715624-.422728 2.043718-.440528 2.822456-.037826 1.661172.859024 1.5797 3.783032-.127984 4.593382-.690572.327698-1.738378.377224-2.378562.112426zm2.315384-1.19381c.65341-.653408.743028-1.328914.292014-2.20108-.333008-.643964-.66538-.814304-1.588892-.814304-1.503742 0-2.218374 2.118648-1.052808 3.121226.771408.663538 1.618462.625382 2.349686-.105842zm-137.38205.990408c.297534-.86676 3.493032-7.99944 3.585056-8.0022188.087596-.0026392 3.01642 6.6224748 3.553406 8.0379508.039488.104088-.173924.159826-.47425.123864-.449466-.053824-.621346-.251066-.971796-1.115198l-.42575-1.049808-1.713198-.000192-1.713196-.00019-.455926 1.1c-.379814.916372-.53898 1.1-.953468 1.1-.27365 0-.467546-.087394-.430878-.194208zm4.7682004-2.955792c.0025356-.249104-1.0939264-2.848698-1.2015344-2.848698s-1.20407 2.599594-1.2015344 2.848698c.0008044.0825.5415344.15 1.2015344.15s1.200688-.0675 1.2015344-.15zm12.7984656.65c0-2.366666.021334-2.5.4-2.5s.4.133334.4 2.5-.021334 2.5-.4 2.5-.4-.133334-.4-2.5zm7.2.4c0-1.733334-.05238-2.1-.3-2.1-.166666 0-.3-.177778-.3-.4s.133334-.4.3-.4c.222222 0 .3-.233334.3-.9 0-.766666.05926-.9.4-.9s.4.133334.4.9c0 .826666.04074.9.5.9.664628 0 .70903.742492.05.83609-.428858.060908-.452678.16022-.506996 2.11391-.052414 1.885164-.088598 2.05-.45 2.05-.36572 0-.393004-.145796-.393004-2.1zm3-.4c0-2.366666.021334-2.5.4-2.5.22 0 .4.093166.4.207036 0 .142716.120186.142716.386852 0 .451702-.241742 1.347628-.274854 1.48361-.05483.17376.28115-.365746.747794-.864556.747794-.711552 0-.9995.7321-1.002958 2.55-.0027 1.415684-.03761 1.55-.402948 1.55-.378666 0-.4-.133334-.4-2.5zm3.8 0c0-2.366666.021334-2.5.4-2.5s.4.133334.4 2.5-.021334 2.5-.4 2.5-.4-.133334-.4-2.5zm14.4.4c0-1.266666-.079366-2.1-.2-2.1-.11 0-.2-.18-.2-.4s.09-.4.2-.4.2-.405.2-.9c0-.826666.04074-.9.5-.9s.5.073334.5.9c0 .766666.05926.9.4.9.266666 0 .4.133334.4.4s-.133334.4-.4.4c-.374604 0-.4.133334-.4 2.1v2.1h-.5-.5zm23 .093724c0-1.59886-.060922-2.029656-.3-2.121398-.165-.063318-.3-.285492-.3-.493724 0-.20823.135-.378602.3-.378602.222222 0 .3-.233334.3-.9 0-.766666.05926-.9.4-.9s.4.133334.4.9.05926.9.4.9c.266666 0 .4.133334.4.4s-.133334.4-.4.4c-.374604 0-.4.133334-.4 2.1s-.025396 2.1-.4 2.1c-.373416 0-.4-.133334-.4-2.006276zm2.8-.493724v-2.5h.5c.275 0 .5.108.5.24 0 .186666.053334.186666.24 0 .132-.132.546628-.24.921398-.24.539176 0 .65606.06603.56.316358-.06677.173996-.121398.353996-.121398.4 0 .046002-.266834.083642-.592964.083642-.820862 0-1.007036.459754-1.007036 2.486852 0 1.694024-.00558 1.713148-.5 1.713148h-.5zm15.2 0v-2.5h.5c.275 0 .5.108.5.24 0 .186666.053334.186666.24 0 .32606-.32606 1.397264-.303094 1.866494.040018.328252.240022.440046.240022.782728 0 .684138-.47919 1.821274-.356894 2.296262.246954.35573.452238.414516.80678.414516 2.5 0 1.839694-.027032 1.973028-.4 1.973028-.366394 0-.4-.133334-.4-1.58698 0-2.0715-.204754-2.61302-.988014-2.61302-.82636 0-1.011986.456158-1.011986 2.486852 0 1.694024-.00558 1.713148-.5 1.713148-.495956 0-.5-.014424-.5-1.783642 0-2.178512-.08016-2.416358-.814362-2.416358-.797106 0-.985638.475684-.985638 2.486852 0 1.694024-.00558 1.713148-.5 1.713148h-.5zm8.2 0v-2.5h.5.5v2.5 2.5h-.5-.5zm2.6 0c0-2.330434.026-2.5.383334-2.5.210832 0 .424582.1125.475.25.073332.2.144666.2.356666 0 .402638-.379846 1.673908-.304024 2.212844.131982.433026.350324.477808.557514.54036 2.5l.068206 2.118018h-.518206-.518204v-1.875512c0-2.071818-.163038-2.401114-1.133272-2.28894-.781088.090308-1.060284.776488-1.06378 2.614452-.0027 1.415684-.03761 1.55-.402948 1.55-.378666 0-.4-.133334-.4-2.5zm21-1.9c0-4.266666.01212-4.4.4-4.4.387878 0 .4.133334.4 4.4s-.01212 4.4-.4 4.4c-.387878 0-.4-.133334-.4-4.4zm8.8 2.3c0-1.266666-.079366-2.1-.2-2.1-.11 0-.2-.18-.2-.4s.09-.4.2-.4.2-.405.2-.9c0-.826666.04074-.9.5-.9s.5.073334.5.9c0 .766666.05926.9.4.9.266666 0 .4.133334.4.4s-.133334.4-.4.4c-.374604 0-.4.133334-.4 2.1v2.1h-.5-.5zm3.4 0c0-1.266666-.079366-2.1-.2-2.1-.11 0-.2-.18-.2-.4s.08047-.4.178822-.4c.098354 0 .211884-.728008.252292-1.617798.082754-1.822274.331334-2.182202 1.507112-2.182202.520862 0 .661774.082344.661774.386716 0 .273196-.16145.405292-.55.45-.537288.061822-.551358.096796-.608762 1.513284l-.058762 1.45h.608762c.475428 0 .608762.08761.608762.4 0 .311112-.133334.4-.6.4h-.6v2.1 2.1h-.5-.5zm9-.4c0-2.366666.021334-2.5.4-2.5.22 0 .4.093166.4.207036 0 .142716.120186.142716.386852 0 .212768-.11387.624368-.207036.914664-.207036.735672 0 .60184.676118-.151042.763074-.879052.101528-1.150474.710544-1.150474 2.581428 0 1.522164-.032216 1.655498-.4 1.655498-.378666 0-.4-.133334-.4-2.5zm3.8 0c0-2.366666.021334-2.5.4-2.5.22 0 .4.093166.4.207036 0 .142716.120186.142716.386852 0 .575912-.308218 1.433428-.250678 1.8474.123962.340588.308226.39186.307366.745306-.0125.26599-.240718.64001-.324796 1.25-.280998 1.213964.087164 1.569706.81501 1.570146 3.212498.000386 1.733416-.004434 1.750002-.499704 1.750002-.497788 0-.5-.008302-.5-1.875514 0-2.025936-.174772-2.41298-1.033986-2.28984-.672938.096442-.959756.87534-.963066 2.615352-.0027 1.415684-.03761 1.550002-.402948 1.550002-.368868 0-.4-.133336-.4-1.71315 0-1.93656-.1982-2.48685-.895696-2.48685-.806038 0-1.104304.687256-1.104304 2.544502 0 1.522164-.032216 1.655498-.4 1.655498-.378666 0-.4-.133334-.4-2.5zm-126.322292-3.985972c-.199134-.518934.079976-.947838.571398-.878056.330546.046938.450894.197482.450894.564028s-.120348.51709-.450894.564028c-.270456.038404-.499118-.06164-.571398-.25zm14 0c-.199134-.518934.079976-.947838.571398-.878056.330546.046938.450894.197482.450894.564028s-.120348.51709-.450894.564028c-.270456.038404-.499118-.06164-.571398-.25zm63.72108-.01548c-.221302-.266652-.212676-.370366.052884-.635926.4289-.4289.994386-.190614.912356.384448-.078142.547794-.60533.685144-.96524.251478zm-75.451894-5.116158c-3.396404-.800184-5.746894-4.187696-5.746894-8.28239 0-4.588132 2.81334-8.054828 6.84207-8.431036 1.605582-.149932 3.119006.259984 4.52134 1.224622l1.013016.69683.061786-.745208.061788-.745208 1.85-.057506 1.85-.057504v8.11501 8.11501l-1.85-.057504-1.85-.057506-.062672-.65c-.03447-.3575-.102748-.65-.151732-.65-.048982 0-.463008.270888-.920056.601972-1.47469 1.06826-3.641194 1.4463-5.618646.980418zm3.873262-3.41001c1.924526-.644356 3.04973-2.443174 3.0420633-4.863164-.0052593-1.637004-.3886293-2.702862-1.3223553-3.67628-.93846-.978354-1.681336-1.298498-3.055482-1.316772-1.72654-.022958-2.946556.743918-3.781318 2.376856-1.171682 2.29201-.627536 5.428948 1.181016 6.808396 1.142554.87147 2.596806 1.119368 3.936076.670964zm40.724496 3.34368c-2.889688-.777182-5.143176-3.778316-5.468938-7.283374-.353156-3.799818 1.415942-7.2696 4.467736-8.762704.953418-.466464 1.401586-.558398 2.747886-.563778 1.862308-.007198 3.062396.37654 4.421374 1.41387l.88729.677284v-.906184-.906184l1.85.057504 1.85.057506v8 8l-1.85.057506-1.85.057504v-.809548-.809548l-1.075916.714368c-1.873878 1.244186-3.854368 1.577316-5.979432 1.005778zm4.155348-3.338068c1.898034-.521432 3.280622-2.995068 3.027518-5.416634-.196264-1.877752-1.043272-3.305734-2.359164-3.977342-1.697902-.866578-3.441348-.657606-4.811732.576746-1.14892 1.03487-1.601066 2.156256-1.601066 3.970868 0 3.593374 2.531436 5.729046 5.744444 4.846362zm-68.5-10.670486v-13.9075062h1.9 1.9v8.3471142 8.347114l2.55278-2.547114 2.552782-2.547114h2.447218c1.345972 0 2.44722.049396 2.44722.10977s-1.53117 1.612874-3.402602 3.45l-3.402602 3.3402298 3.717366 4.6000002 3.717366 4.6-2.252536.056904c-1.238894.031296-2.360264.01556-2.491932-.034962-.13167-.050526-1.411342-1.580392-2.843718-3.3997-1.988952-2.526236-2.654674-3.247162-2.817428-3.051056-.124664.150212-.2361 1.53752-.26851 3.342796l-.055404 3.086018-1.85.057506-1.85.057504zm34.333334 13.75916c-.073334-.073332-.133334-2.908332-.133334-6.3v-6.166666h-.6-.6v-1.8-1.8000002h.6.6l.00396-3.1499998c.00708-5.6377362.49335-7.2052742 2.571964-8.2911562.88391-.461758 1.321188-.558844 2.51707-.558844.796024 0 1.730746.098804 2.077162.219566l.629844.219564v1.962286 1.962284l-.790338-.38185c-.800508-.386762-1.927396-.497426-2.329722-.228788-.6002.400766-.749878 1.237034-.840666 4.6969202l-.093152 3.5500178h2.02694 2.026938v1.8000002 1.8h-2-2v6.3 6.3h-1.766666c-.971668 0-1.826668-.06-1.9-.133334zm10.466666-13.766666v-13.9000002h1.9 1.9v8.3471142 8.347114l2.55278-2.547114 2.552782-2.547114h2.447218c1.345972 0 2.44722.072396 2.44722.160878 0 .088484-1.529516 1.625108-3.398926 3.414722l-3.398926 3.253844 3.698926 4.577212c2.03441 2.517468 3.698926 4.625842 3.698926 4.685278s-1.0771.108066-2.393556.108066h-2.393556l-2.650312-3.388082c-2.032038-2.597698-2.710064-3.338492-2.906444-3.17551-.188496.156438-.256132 1.051116-.256132 3.38808v3.175512h-1.9-1.9zm33.062942 13.607268c-.665034-.289242-1.262942-1.19053-1.262942-1.90376 0-2.031258 2.382284-3.092564 3.862506-1.72074 1.125892 1.043442.816638 3.053878-.558118 3.628288-.846974.353888-1.220662.353196-2.041446-.00378zm2.067972-.49347c.755602-.460736 1.021648-1.36264.659708-2.23644-.246184-.594338-1.083366-1.177358-1.690622-1.177358s-1.444438.58302-1.690622 1.177358c-.738098 1.78193 1.053048 3.253816 2.721536 2.23644zm-1.730914-1.513798c0-1.38293.156294-1.551538 1.013148-1.092964.457782.244998.51378.95681.088122 1.120152-.25231.09682-.234656.204616.11362.693722.48752.68466.128116.793524-.426178.12909l-.375404-.45-.00666.45c-.00366.2475-.096648.45-.206648.45-.11282 0-.2-.566666-.2-1.3zm.9-.5c0-.146666-.1125-.304166-.25-.35-.148718-.049572-.25.092222-.25.35s.101282.399572.25.35c.1375-.045834.25-.203334.25-.35zm-72.5-20.075002c0-.3697862 2.253076-4.7457902 2.372188-4.6073462.333586.387734 2.086928 4.4898982 1.96933 4.6074962-.229854.229856-.745926-.1107-.93957-.6200222-.169332-.44538-.308042-.505126-1.172734-.505126-.90109 0-1.000858.048698-1.229214.6-.15142.365558-.395342.6000002-.624264.6000002-.206654 0-.375736-.03375-.375736-.075002zm2.792912-1.9749982c-.01206-.425568-.528978-1.21525-.658404-1.005834-.067374.109012-.212972.43617-.323552.72702-.189458.498312-.166732.528814.393994.528814.346486 0 .59209-.10443.587962-.25zm2.407088-.25v-2.3l.85.00306c.972948.0035 1.193302.113206 1.536808.765084.349204.662692-.057802 1.597856-.762126 1.751102-.995818.216672-1.024682.249754-1.024682 1.174476 0 .672246-.07747.9062762-.3.9062762-.249276 0-.3-.3888882-.3-2.3000002zm1.56-.54c.338822-.338822.297934-.894972-.076358-1.038602-.683846-.262416-.883642-.131592-.883642.578602 0 .540742.081904.7.36.7.198 0 .468-.108.6-.24zm.8365595 2.6900002c-.0058675-.2571482 2.0580565-4.6500002 2.1847505-4.6500002.10575 0 1.940506 3.988248 2.068924 4.497262.027372.1084922-.109966.2280222-.305192.2656182-.24661.047494-.420468-.119556-.569566-.5472602-.200094-.573992-.280554-.61562-1.189904-.61562-.881384 0-1.005178.057778-1.285572.6-.275946.5336202-.894476.8417122-.9034405.4500002zm2.8034405-1.7599322c0-.060462-.145288-.39089-.322864-.734282-.337884-.653396-.466098-.587448-.76642.394214-.122002.398786-.06785.45.475806.45.337414 0 .613478-.04947.613478-.109932zm3.01928 1.656984c-1.687216-.867094-1.686926-3.384678.0004-4.257274 1.049152-.542492 2.38032-.249274 2.38032.524296 0 .333492-.064322.365576-.386852.192964-.60202-.322192-1.522408-.244632-2.036446.17161-.352602.285522-.467612.580412-.467612 1.19899 0 1.358214.891272 1.942234 2.34091 1.533916.43258-.121844.55-.087744.55.159728 0 .6690162-1.44341.9574722-2.38072.47577zm3.314054.1196142c-.073334-.0733322-.133334-1.1083322-.133334-2.3000002 0-2.033332.024616-2.166666.4-2.166666.333334 0 .4.133334.4.8v.8h1 1v-.8c0-.577778.083334-.8.3-.8.249276 0 .3.38889.3 2.3 0 1.911112-.050724 2.3000002-.3 2.3000002-.230304 0-.3-.2555562-.3-1.1000002v-1.1h-1-1v1.1c0 .783334-.076768 1.1000002-.266666 1.1000002-.146668 0-.326668-.06-.4-.133334zm4.4 0c-.073334-.0733322-.133334-1.1083322-.133334-2.3000002v-2.166666h1.3c1.022222 0 1.3.064102 1.3.3 0 .222222-.233334.3-.9.3-.826666 0-.9.040742-.9.5 0 .45926.073334.5.9.5.766666 0 .9.05926.9.4 0 .340742-.133334.4-.9.4-.895238 0-.9.0037-.9.7 0 .696296.00476.7.9.7.766666 0 .9.05926.9.4 0 .3542862-.133334.4000002-1.166666.4000002-.641668 0-1.226668-.06-1.3-.133334z"/></svg>