<?xml version="1.0" encoding="UTF-8"?>
<svg width="92px" height="28px" viewBox="0 0 92 28" version="1.1" xmlns="http://www.w3.org/2000/svg" xmlns:xlink="http://www.w3.org/1999/xlink">
    <title>Group</title>
    <g id="Racing-post,-Zopa" stroke="none" stroke-width="1" fill="none" fill-rule="evenodd">
        <g id="Artboard" transform="translate(-34.000000, 0.000000)" fill="#000400" fill-rule="nonzero">
            <g id="Group" transform="translate(34.629630, 0.000000)">
                <polygon id="Path" points="0.0107407407 1.12314815 5.77592593 1.12314815 5.77592593 12.5787037 16.4077778 1.12314815 23.3709259 1.12314815 12.7016667 12.2416667 23.8575926 27.3287037 16.9318519 27.3287037 8.80833333 16.1727778 5.77592593 19.3172222 5.77592593 27.3285185 0.0107407407 27.3285185"></polygon>
                <path d="M20.7937037,17.4077778 L20.7937037,17.3333333 C20.7937037,11.567963 25.4359259,6.88833333 31.6877778,6.88833333 C37.9022222,6.88833333 42.507037,11.4931481 42.507037,17.2583333 L42.507037,17.3333333 C42.507037,23.0985185 37.8648148,27.7777778 31.612963,27.7777778 C25.3985185,27.7777778 20.7937037,23.1731481 20.7937037,17.4077778 L20.7937037,17.4077778 Z M36.8914815,17.4077778 L36.8914815,17.3333333 C36.8914815,14.3755556 34.7575926,11.7925926 31.612963,11.7925926 C28.3559259,11.7925926 26.4092593,14.3005556 26.4092593,17.2583333 L26.4092593,17.3333333 C26.4092593,20.2907407 28.5431481,22.8737037 31.6877778,22.8737037 C34.9448148,22.8737037 36.8914815,20.3655556 36.8914815,17.4077778 L36.8914815,17.4077778 Z" id="Shape"></path>
                <path d="M44.0777778,21.6383333 L44.0777778,12.1294444 L41.6818519,12.1294444 L41.6818519,7.26296296 L44.0777778,7.26296296 L44.0777778,2.13388889 L49.7681481,2.13388889 L49.7681481,7.26277778 L54.4851852,7.26277778 L54.4851852,12.1294444 L49.7681481,12.1294444 L49.7681481,20.7025926 C49.7681481,22.0125926 50.3296296,22.6492593 51.6025926,22.6492593 C52.5836693,22.6540022 53.5498283,22.4091008 54.4101852,21.9375926 L54.4101852,26.505 C53.2122222,27.2162963 51.8272222,27.6655556 49.917963,27.6655556 C46.4364815,27.6655556 44.0777778,26.2803704 44.0777778,21.6383333 Z M56.1185185,0 L61.8088889,0 L61.8088889,27.3285185 L56.1185185,27.3285185 L56.1185185,0 Z M63.8657407,0 L69.8553704,0 L69.8553704,5.05388889 L63.8657407,5.05388889 L63.8657407,0 Z M64.0157407,7.26277778 L69.7059259,7.26277778 L69.7059259,27.3285185 L64.0155556,27.3285185 L64.0157407,7.26277778 Z M71.8705556,7.26277778 L77.5609259,7.26277778 L77.5609259,10.1077778 C78.8712963,8.42314815 80.5559259,6.88833333 83.4383333,6.88833333 C87.7437037,6.88833333 90.2518519,9.73351852 90.2518519,14.3383333 L90.2518519,27.3285185 L84.5614815,27.3285185 L84.5614815,16.1351852 C84.5614815,13.4398148 83.2885185,12.0546296 81.1172222,12.0546296 C78.9457407,12.0546296 77.5609259,13.4398148 77.5609259,16.1351852 L77.5609259,27.3285185 L71.8703704,27.3285185 L71.8705556,7.26277778 Z" id="Shape"></path>
            </g>
        </g>
    </g>
</svg>