<svg height="94" viewBox="0 0 225 94" width="225" xmlns="http://www.w3.org/2000/svg"><g fill="#000" fill-rule="evenodd" transform="translate(43)"><g fill-rule="nonzero"><path d="m.26434614 66.1056355h4.59808695v-18.2359754l7.11844501 15.8974581c.8398926 1.9242513 1.9896113 2.6049852 4.2442558 2.6049852 2.2549667 0 3.3602506-.6807339 4.2005012-2.6049852l7.1181228-15.8974581v18.2359754h4.598445v-18.2061281c0-1.7760936-.707734-2.6348325-2.1665268-3.0785862-3.4928031-1.0953596-5.8362456-.1481577-6.8974885 2.2202069l-6.9856062 15.6896059-6.76457797-15.6896059c-1.01684399-2.3683646-3.40436317-3.3155665-6.8971376-2.2202069-1.45914731.4437537-2.16651969 1.3024926-2.16651969 3.0785862z"/><path d="m35.9653197 51.2625419h4.5967263v10.0466699c-.0429667.5458818.1743734 1.8267981 2.6932993 1.8667143 1.2850639.0201379 9.9181585 0 9.9987212 0v-11.9622906h4.607468c.0211253 0-.0046547 16.3131625-.0042966 16.3825665.0254219 4.0232709-4.9705371 4.8971133-7.273197 4.9647192h-14.5188235v-3.1066355c.025422 0 14.5080818.0028769 14.5446036-.0007192 2.959335-.313936 2.6098721-1.791197 2.609514-2.288532v-1.2111527h-9.7731457c-4.5469566-.0420739-7.4425576-2.0350099-7.4783632-4.3278572-.0032225-.2125271.0981074-10.2631527-.0025064-10.3634827z"/><path d="m61.4052174 66.1056355h13.2194373c1.5475192 0 3.0509975-.3254434 4.2447571-.8882266 1.9893606-.9173547 2.9621995-2.1605123 2.9621995-3.7891675v-3.3745419c0-1.3323399-1.1053197-2.5758571-3.2719182-3.4043892-1.1497187-.4444729-2.564399-.6810936-3.9350384-.6810936h-5.5709974c-1.8565218 0-2.7409207-.5624236-2.9618414-1.8055812-.044399-.1481577-.044399-.2668276-.044399-.4146256v-2.101537c0-.1186699 0-.2373399.044399-.3851379.2209207-.947202.7075191-1.2140296 2.3431202-1.3618276.1328388 0 .3093606-.0298473.4421994-.0298473h13.1313555v-3.0782266h-12.9104347c-1.8568798 0-2.8297187.1183103-3.7137596.3844187-2.7412788.8587389-3.9350384 2.2205665-3.9350384 4.5889311v2.6938078c0 2.0724089 2.3434783 3.8485025 6.2781586 4.2627685.4425575.0294877.884399.0589754 1.3262404.0589754h4.7750384c.1772378 0 .3541176 0 .4865984.0298473 1.4590793.1186699 2.0778005.3847783 2.5203581.9177143.2649616.2661083.3534015.5329359.3534015.8288916v2.6938079c0 .3258029-.2209207.7404285-.6627621 1.0953596-.3981586.3552906-1.0612788.5922709-1.9456778.6516059-.1768798 0-.3093606.0294877-.4862404.0294877h-12.689156z"/><path d="m110.516215 60.7475074c0 3.1674089 2.34312 4.9438621 7.074117 5.2991527.441842.0294877.884399.0589754 1.326241.0589754h11.981995v-3.0785862h-12.070435c-2.69688 0-3.71376-.6810936-3.71376-2.3090296v-15.9265862h-4.598158z"/><path d="m84.7662404 60.9089704v-10.9758916c0-2.7883842 1.9496164-4.4796108 5.803734-5.0136256.3988747-.0589754.8421484-.0888227 1.240665-.0888227h8.7279796c.442916 0 .842148.0298473 1.285064.0888227 3.854476.5340148 5.803734 2.2252414 5.803734 5.0136256v10.9758916c0 2.2622808-.827826 3.4730739-2.735908 4.2620493l4.529412 4.1059803h-5.338977l-3.664348-3.3220394-3.6890538.2348227h-4.9179028c-.8417903 0-1.7276215-.1190296-2.7026087-.3858572-2.9238875-.8008424-4.3417903-2.3435517-4.3417903-4.8949557zm4.9630179-.2668275c0 .1485172.0440409.2966748.0884399.4746798.2656778 1.2755221 1.4619437 1.9875418 3.2783632 1.9875418h4.1774424l-3.837289-3.4791872h5.338977l3.3467522 3.0343547c.616573-.3301182 1.022608-.8350049 1.164399-1.4833744.044041-.1481576.044041-.2966748.044041-.4448325v-10.5310591c0-.1186699 0-.2671872-.044041-.4157044-.266036-1.1863399-1.462302-1.8685123-3.234323-1.8685123h-6.9559586c-2.0376982 0-3.3668031.8900246-3.3668031 2.2842167z"/><path d="m134.943887 39.6841018c-2.826496-.0769557-4.985575.186995-6.831355.9687783-.524552.2222365-1.360972.2279901-1.446547.8882266.288235.3035074.332992.7566108.562148 1.1298818.440767.7163349 1.184808 1.6761231 1.848644 2.1795714.725422.5498374 1.473044 1.1381527 2.250742 1.6142709 1.383172.8472316 2.927468 1.3309015 4.259438 2.1795715.784859.5002118 1.564705 1.1302413 2.330588 1.6948226.378465.2790542.633043.7130985 1.125013.887867v-.0805517c-.258517-.3304778-.325116-.7850197-.562507-1.1302414-.348031-.3495369-.696419-.6994335-1.044808-1.04933-1.021535-1.3618276-2.318414-2.5578769-3.696931-3.551468-1.099233-.7925714-3.559795-1.8631182-4.018465-3.1479902-.026855-.0269704-.053351-.0539408-.080563-.0809113.779488-.0881034 1.692174-.3714729 2.411509-.5649409 1.20844-.3254433 2.288337-.2412955 3.536164-.5649409.562506-.161463 1.125012-.3232857 1.687877-.4843891v-.3229261c-.630895-.6501675-1.080614-1.5103449-1.76844-2.0986601-1.799591-1.5391133-3.763888-3.0767882-5.786547-4.358999-1.121791-.7111567-2.508185-1.1732863-3.696931-1.7759138-.399949-.202638-1.102456-.3080025-1.366701-.6458163-.62445-.7996557-.964604-1.813133-1.446189-2.7444764-1.009003-1.9511137-1.999745-4.0820665-2.893453-6.134697-.60977-1.399802-1.007928-2.7802931-1.768082-4.0361089-3.649309-6.0258443-7.577545-9.66300637-13.662711-13.23799257-1.294731-.76027882-2.853708-1.06054976-4.501125-1.45280789-.8836831-.05372512-1.7680821-.10780985-2.652123-.16153497-.5395908-.22651576-1.101023-.88955714-1.6073146-1.21086503-2.0158568-1.27899955-7.1865473-4.06102955-8.679642-.40351379-.9427621 2.30863399 1.4089515 4.56145714 2.2500256 5.73121921.5904348.82069261 1.3462916 1.7407803 1.7680819 2.66367294.2774936.6065113.3254731 1.2147487.5628644 1.8566813.5843478 1.5810073 1.0924297 3.3010743 1.8482865 4.762333.382046.7392418.8031202 1.5181482 1.2861381 2.1793916.2961125.4056354.8034782.5843596.8836828 1.210865-.496266.6974557-.5245524 1.7801212-.8034782 2.6637089-1.2560614 3.9777808-.782353 8.9220024 1.0448082 11.8659522.5607161.9036896 1.8812276 2.8419655 3.6969309 2.0986601 1.5883374-.6498079 1.2335034-2.6632414 1.6878774-4.4396227.102762-.4028305.039744-.6988581.240972-.9685625v.0807675c.482301.9685625.964603 1.9370891 1.446905 2.9054719 1.070588 1.731862 2.970793 3.5417586 4.580972 4.7629803.834987.633266 1.492378 1.728266 2.571918 2.0986601v-.0809114h-.080563c-.209104-.3276009-.536368-.4631724-.803478-.7264039-.629105-.6192414-1.328389-1.3891576-1.848644-2.0986601-1.46445-1.9968916-2.758824-4.1825764-3.937903-6.4576232-.563223-1.0861896-1.052686-2.2847561-1.527468-3.3902926-.182967-.4263128-.180819-1.0707266-.562149-1.2915965-.519897.8101561-1.28578 1.4651064-1.687877 2.4216941-.6430688 1.5290443-.7261378 3.3937808-.9642453 5.3274537-.1410741.0507044-.0784143.0158226-.1611253.0805517-1.1192839-.2711429-1.5127877-1.4284626-1.928491-2.4212266-1.0523274-2.5109123-1.2478261-6.5540335-.3218926-9.4442222.2395396-.7476566 1.3223018-3.1030034.8840409-3.7937704-.2091049-.6893646-.8994373-1.0879517-1.28578-1.6147025-.4780052-.6511024-.9552942-1.508331-1.2861382-2.2601951-.8611253-1.9578024-1.2632225-4.155498-2.1698209-6.13437336-.4332481-.94608719-1.1661893-1.90339408-1.7680819-2.74444039-.6663427-.93166699-1.4125319-1.61790296-1.9288491-2.7448-.1836828-.40034926-.4332481-1.04127488-.1607672-1.45284384.0866496-.27779557.2087468-.39366059.4823018-.48428128.4661892-.36100478 1.7645012.12010837 2.2500255.3227463 1.2890026.5376468 2.3646036 1.0496537 3.4563172 1.7759138.5241943.34906945 1.0541176 1.02401379 1.6875191 1.21086502h.7232737c1.1314578.26125369 2.398977.08112709 3.4559593.40347783 1.868337.57033498 3.542608 1.45741084 5.063273 2.42173005 4.632532 2.93762067 8.420052 7.11944187 11.010947 12.10789507.416777.8031438.597238 1.5697877.964245 2.4217301.740819 1.7179812 1.673913 3.4858039 2.410793 5.1658108.735448 1.6761951 1.452276 3.3678172 2.491714 4.7626926.546752.7332365 2.657493 1.1265734 3.616726 1.5335754.67243.2855271 1.774169.5829212 2.411151.9684187 1.216675.7371921 2.395396 1.6146305 3.536522 2.4219458.570383.4034778 2.323427 1.288468 2.410792 2.0177488z"/></g><path d="m99.0186701 8.9300936c-.5893606-.01089606-1.0061381.06462118-1.4469054.16121133v.08076748h.0805627c.2810741.58011626.7773401.95342319 1.1250128 1.45316749.267826.5650488.5356521 1.1300975.8038363 1.6947867.0264961-.0267187.0537084-.0537251.0802046-.0804438.4976979-.352234.7257799-.9158444.7232739-1.7758779-.199438-.210729-.228798-.47514726-.4017394-.72661968-.2298721-.33500887-.674578-.52534827-.9642455-.80699162z"/><path d="m133.056931 62.9393054c0 2.0332118 1.599437 3.4033104 3.388644 3.4033104 1.789208 0 3.388645-1.3700986 3.388645-3.4033104 0-2.0328522-1.599437-3.4029507-3.388645-3.4029507-1.789207 0-3.388644 1.3700985-3.388644 3.4029507zm6.01821 0c0 1.5427094-1.174425 2.6956059-2.629566 2.6956059-1.472685 0-2.629565-1.1528965-2.629565-2.6956059 0-1.5427093 1.15688-2.6956059 2.629565-2.6956059 1.455141 0 2.629566 1.1528966 2.629566 2.6956059zm-1.716522 1.9422315h.758721l-1.111048-1.7059704c.596163-.0636502 1.047672-.3542118 1.047672-1.0619163 0-.7896945-.496624-1.1162167-1.454424-1.1162167h-1.509208v3.8841034h.650589v-1.679h.605473zm-1.617698-2.2234433v-1.1162168h.74977c.388849 0 .858618.0726404.858618.5264631 0 .5440837-.424654.5897537-.912685.5897537z"/></g></svg>
