<svg height="28" viewBox="0 0 103 28" width="103" xmlns="http://www.w3.org/2000/svg"><g fill-rule="evenodd"><path d="m51.9011025.17240162c-.0709495.0008618-.1427133.01770657-.2060319.05465199-.1264241.07383396-.2060337.20943148-.2060337.35524481v10.45236328c0 .1027026-.0480759.1944758-.137354.2459822-.0895035.0516357-.1987234.0516357-.2884451 0l-1.7169352-.9837548c-.2558093-.1467319-.5682629-.146644-.8241295 0l-6.8540054 3.9350156c-.2562495.1470388-.4120657.4299216-.4120657.7241302v7.870031c0 .2939879.1560362.5631871.4120657.7104879l6.8540054 3.9350155c.2562495.1470819.5678801.1470819.8241295 0l6.8540055-3.9350155c.2560294-.1473008.4120656-.4165.4120656-.7104879v-19.62042382c0-.29846245-.1637277-.57855647-.4258008-.72415262l-4.0794384-2.26809885c-.064062-.03554585-.1350825-.04175427-.206032-.04096658zm-44.09090175 9.82385331c-.13070557.00523977-.25350315.02798097-.37085817.09566337l-6.85400719 3.9350155c-.2553918.1468631-.41206389.4143575-.41206389.7104897l.01370578 10.5616672c0 .1469078.07618921.2833206.20603367.3552879.12726619.0757713.28522742.0757713.41206389 0l4.06570314-2.3227956c.2575421-.1521976.42579912-.416936.42579912-.7104879v-4.9324109c0-.2942085.15558741-.5642367.41206562-.7104896l1.73067041-.9973936c.12917042-.0742855.26784482-.1093074.4120639-.1093074.14125957 0 .28646805.0349788.4120656.1093074l1.73067037.9973936c.2564696.1462529.4120639.4162811.4120639.7104896v4.9324109c0 .2935519.1699378.5599967.4258009.7104879l4.0657031 2.3227956c.1276855.0757713.2854249.0757713.4120639 0 .126204-.0719673.2060319-.2083801.2060319-.3552879l.0137058-10.5616672c0-.2961322-.1549359-.5636266-.4120639-.7104897l-6.85399157-3.9350155c-.11592728-.0676824-.2392689-.0903305-.3708582-.09566337h-.08241308zm61.58990775.09566337c-.1431916-.0001723-.2835016.0358527-.4120656.1093057l-6.8540055 3.9350156c-.2560294.1470819-.4120639.4162809-.4120639.7104896v7.8700292c0 .2959132.1675726.5642386.4257991.7104896l6.7990646 3.8530359c.2510842.1426229.5576604.1532903.8103925.0135475l4.1206458-2.2817843c.1307611-.0721431.219218-.2068943.2197672-.3552448.0008664-.1483936-.0769187-.2813971-.2060319-.3552448l-6.8952129-3.9350155c-.1291133-.0732341-.2197672-.2216277-.2197672-.3689285v-2.4593842c0-.1470389.0917524-.2817918.2197672-.3552017l2.142736-1.2297353c.1274655-.0733669.2840492-.0733669.4120639 0l2.142736 1.2297353c.1280147.0734099.2060319.2081628.2060319.3552017v1.9402248c0 .147256.0780172.2817901.206032.3552.128564.0736288.2840509.0739339.4120656 0l4.1069092-2.3773615c.2549302-.1473007.4120635-.4171996.4120635-.7104879v-1.8992134c0-.2933348-.1565835-.5631888-.4120635-.7104897l-6.8128001-3.9350154c-.1282919-.073977-.2688723-.1091299-.4120639-.1093057zm-20.493342 5.8751973c.0357338 0 .0777972.0087386.1098836.027107l2.348768 1.3526833c.0637327.0367266.1098836.1043659.1098836.1776v2.7053234c0 .073453-.0457108.1411354-.1098836.1776448l-2.348768 1.3526384c-.0639528.0362905-.1420791.0362905-.2060319 0l-2.348768-1.3526384c-.0639528-.0367265-.1098835-.1041918-.1098835-.1776448v-2.7053234c0-.0732341.0461508-.1406976.1098835-.1776l2.348768-1.3524643c.0320864-.0183633.0604094-.0271071.0961483-.0271071z"/><path d="m89.9346562 9.90063293c-.2376262 0-.4686547.0488814-.6730387.16395947l-6.4694138 3.7164023c-.4186567.2397738-.673038.6930002-.673038 1.1750402v7.4191641c0 .481778.2543813.9344786.673038 1.174997l1.689465.9701125c.8208323.4024198 1.123563.3962114 1.497168.3962114 1.2153158 0 1.9092315-.7335308 1.9092315-2.0084761v-7.3234991c0-.103535-.0901042-.1776447-.1922962-.1776447h-.810393c-.1038413 0-.1922985.0741097-.1922985.1776447v7.3234991c0 .5651124-.5917238 1.1334169-1.5521085.6558359l-1.758141-1.0247213c-.062085-.0336654-.1098855-.0930848-.1098855-.1639594v-7.4191641c0-.0704367.0472515-.1419663.1098855-.1776l6.4556767-3.7027618c.0604358-.034541.1324088-.034541.192297 0l6.4556768 3.7027618c.0615352.0367265.1098832.1050208.1098832.1776v7.4191641c0 .0708746-.0357337.1434537-.0961485.1776018l-6.4694115 3.7027617c-.0554925.0327916-.1318612.0327916-.192297 0l-1.661994-.9837547c-.0494482-.0288566-.1170262-.026671-.1648267 0-.4587638.2587058-.5450235.2887861-.9752183.4372246-.1060372.0367264-.2670187.0938725.0549428.273265l2.170206 1.2706604c.2065815.1189235.436788.1776.6730387.1776.2395463 0 .4664573-.0586765.673038-.1776l6.4694123-3.7027617c.418659-.242223.6730387-.6932191.6730387-1.1749971v-7.4191641c0-.48204-.2543797-.9342598-.6730387-1.1750402l-6.4694123-3.7164023c-.2027362-.11507807-.4354117-.16395947-.673038-.16395947zm-61.5349668.15027407c-.1428225 0-.2841584.0358526-.412064.1093057l-6.8540054 3.9213749c-.2562495.146906-.4120656.4301835-.4120656.7241302v7.8700292c0 .2942965.1559824.5632767.4120656.7104897l6.8540054 3.9350154c.2562495.147213.5678801.147213.8241296 0l6.8540054-3.9350154c.2558094-.147213.4120657-.4161932.4120657-.7104897v-7.8700292c0-.2943827-.1558162-.5772242-.4120657-.7241302l-6.8540054-3.9213749c-.1279056-.0734531-.2692431-.1093057-.4120656-.1093057zm71.1360686.0410992v.1912854h.535684v1.4072922h.219768v-1.4072922h.54942v-.1912854zm1.497168 0v1.5985776h.206032v-.9427416c0-.038476.00175-.0979817 0-.1776-.002634-.0811059 0-.1518046 0-.1913302v-.0410976l.453271 1.3526384h.219768l.467007-1.3526384c0 .0860457-.011558.1691182-.013707.2459374-.000866.0747647 0 .1309059 0 .1639594v.9427416h.206032v-1.5985775h-.30218l-.467006 1.3526832-.453272-1.3526832h-.315915zm-9.3675998 5.1100539c-1.8422032 0-2.9393932.7798767-2.9393932 2.0768135 0 1.4069439 1.088949 1.7934928 2.8569802 1.9675078 2.1152655.2059773 2.28009.5149193 2.28009.929101 0 .7184026-.5757915 1.0247213-1.9367017 1.0247213-1.709793 0-2.085597-.4245871-2.211414-1.2706587-.0148148-.0907253-.0851595-.1639594-.17856-.1639594h-.8378648c-.1032907 0-.192297.0883622-.192297.1912854 0 1.0830032.5922735 2.3637639 3.4201358 2.3637639 2.0471363 0 3.227838-.7993327 3.227838-2.1998045 0-1.3883618-.9537923-1.7610081-2.9393933-2.0221615-2.0064802-.2640834-2.197677-.393326-2.197677-.8607619 0-.3858508.162078-.9018181 1.648257-.9018181 1.3273965 0 1.8180293.2847633 2.0191155 1.1750832.0175823.0836844.0917543.1502723.1785616.1502723h.8378647c.0516458 0 .101643-.0314798.1373558-.0683374.0351622-.0393498.059886-.0836843.0549412-.1365886-.1296622-1.5333012-1.1576272-2.2544583-3.2278387-2.2544583zm-22.278953 1.8718875c-.0273838 0-.057689 0-.0824131.0135475l-1.3186065.7651417c-.0494482.0279826-.0824131.0800544-.0824131.1366316v1.5029573c0 .0565773.0329649.1084318.0824131.1366334l1.3186065.7514562c.0494465.0284187.1021921.0284187.1510893 0l1.3186065-.7514562c.048899-.0279827.0824131-.0800561.0824131-.1366334v-1.5029573c0-.0565772-.0334916-.1084749-.0824131-.1366316l-1.3186065-.7651417c-.0244382-.0144265-.0412716-.0135475-.0686762-.0135475z"/></g></svg>