<?xml version="1.0" encoding="UTF-8"?>
<svg width="134px" height="39px" viewBox="0 0 134 39" version="1.1" xmlns="http://www.w3.org/2000/svg" xmlns:xlink="http://www.w3.org/1999/xlink">
    <!-- Generator: Sketch 62 (91390) - https://sketch.com -->
    <title>Postgres_SQL-white</title>
    <desc>Created with Sketch.</desc>
    <defs>
        <polygon id="path-1" points="0.118379903 0.0546976744 10.4273082 0.0546976744 10.4273082 13.5763565 0.118379903 13.5763565"></polygon>
        <polygon id="path-3" points="7.33724162 10.2558139 0.0467216499 10.2558139 0.0467216499 0.00990805732 7.33724162 0.00990805732"></polygon>
        <polygon id="path-5" points="6.47474564e-21 0.0669581497 6.47474564e-21 10.794586 8.05578743 10.794586 8.05578743 0.0669581497 0 0.0669581497"></polygon>
        <polygon id="path-7" points="9.04396297 0.0330222676 9.04396297 12.8269954 0.0114779894 12.8269954 0.0114779894 0.0330222676"></polygon>
    </defs>
    <g id="UI-Design-(Teal)" stroke="none" stroke-width="1" fill="none" fill-rule="evenodd">
        <g id="Postgres_SQL-white" transform="translate(1.000000, 1.000000)">
            <g id="Page-1" transform="translate(50.250000, 11.250000)">
                <path d="M71.4212017,6.85596279 C71.4135183,3.0898814 69.2133514,0.887323252 65.6088327,1.03823023 C63.334017,1.13346279 61.4806979,2.62373024 60.9562458,4.88403837 C60.7706392,5.6833814 60.6859577,6.53595698 60.7262083,7.35556745 C60.8291638,9.45788723 61.6451641,11.2152942 63.5924808,12.1348988 C65.58602,13.0762361 67.5952057,12.9735558 69.4141266,11.6390791 C70.9965604,10.4780965 71.4259399,8.74620698 71.4212017,6.85596279 M70.5530872,12.0190325 C71.2059351,12.5810267 71.7953615,13.0884454 72.4345936,13.6387186 C72.1984647,13.9021954 71.9766684,14.1495558 71.7100829,14.4469745 C71.1709398,13.9927884 70.6409935,13.5753524 70.1462814,13.1182361 C69.8676326,12.860864 69.6457168,12.864893 69.3014966,13.0068872 C67.1771728,13.8832709 65.0321861,13.8737477 62.9335415,12.9468175 C61.4535855,12.2931314 60.4682222,11.0979628 59.9539223,9.5506779 C59.3480135,7.72721858 59.3561353,5.86871861 59.9807959,4.05148605 C60.791302,1.6933814 62.9516961,0.17552093 65.5651184,0.148416279 C66.4880156,0.138893023 67.4418473,0.209951163 68.3311825,0.443881395 C70.6800497,1.06191628 72.3754718,3.2280907 72.5177224,5.7095093 C72.5707529,6.6353407 72.5665726,7.57814303 72.457884,8.49713723 C72.2949706,9.87214883 71.6437948,11.0282477 70.5530872,12.0190325" id="Fill-1" fill="#FFFFFF" fill-rule="nonzero"></path>
                <g id="Group-5" transform="translate(48.730694, 0.067395)">
                    <g id="Fill-3-Clipped">
                        <mask id="mask-2" fill="#000">
                            <use xlink:href="#path-1"></use>
                        </mask>
                        <g id="path-1"></g>
                        <path d="M0.139778263,9.12312038 L1.2856662,9.12312038 C1.31385356,9.38769593 1.32388635,9.64628895 1.37106435,9.89767853 C1.60575997,11.1505971 2.32752366,11.9830274 3.51652871,12.346132 C4.82043309,12.7443995 6.14750844,12.7600274 7.45619033,12.372382 C8.96540857,11.9255215 9.6669873,10.1905796 8.96301982,8.74182383 C8.67314385,8.14539945 8.17389315,7.83491685 7.57359787,7.69182383 C6.14523911,7.3511843 4.71114734,7.03557384 3.2796832,6.70812035 C3.14435998,6.67723082 3.01142551,6.63535291 2.87789386,6.59640524 C0.789043095,5.98716105 -0.0472616069,4.34183546 0.650972798,2.22474244 C1.09599869,0.87512616 2.18909505,0.433271512 3.40473476,0.217777325 C4.70648926,-0.0129784884 6.01827655,-0.0135889535 7.31119263,0.311056395 C8.7698886,0.677457558 9.7510716,1.54614942 10.0169405,3.11663198 C10.0559968,3.34738779 10.0224346,3.59108546 10.0224346,3.86677151 L8.86448347,3.86677151 C8.83892377,3.64675988 8.82996592,3.4470157 8.79090975,3.25349825 C8.58344595,2.22840524 7.98828652,1.53577151 7.01462814,1.23017267 C5.74870504,0.832515698 4.4637913,0.84423663 3.19643494,1.22211454 C2.16162431,1.53052151 1.65150472,2.31448082 1.65747662,3.47875988 C1.66297076,4.55879477 2.11791001,5.2477657 3.17278621,5.53370756 C4.68534874,5.94369593 6.21893235,6.27212616 7.7431998,6.6373064 C7.8780453,6.66953895 8.01097972,6.71105058 8.14295872,6.75463779 C9.7708983,7.29184709 10.4088165,8.10840525 10.4268517,9.67644593 C10.4478727,11.4861087 9.743547,12.6412308 8.18547862,13.140225 C6.29513377,13.7456843 4.3788709,13.7261495 2.50739725,13.0478006 C0.843387375,12.4444169 -0.0325707359,10.9615971 0.139778263,9.12312038" id="Fill-3" fill="#FFFFFF" fill-rule="nonzero" mask="url(#mask-2)"></path>
                    </g>
                </g>
                <g id="Group-8" transform="translate(27.470734, 5.439488)">
                    <g id="Fill-6-Clipped">
                        <mask id="mask-4" fill="#000">
                            <use xlink:href="#path-3"></use>
                        </mask>
                        <g id="path-3"></g>
                        <path d="M0.980979061,3.60066976 C0.982174305,5.48944884 1.93684204,6.45923372 3.78681685,6.45098425 C5.45620144,6.44348372 6.44705888,5.35612325 6.43957684,3.54011163 C6.43212913,1.77379186 5.44676584,0.75333837 3.74680513,0.751136809 C1.98521443,0.74882093 0.979904985,1.78453605 0.980979061,3.60066976 M6.40895816,5.96585581 C4.68809581,7.45673372 2.13522852,7.53414067 0.898328842,6.18354767 C-0.231673841,4.94979767 -0.238720682,2.27498372 0.88674336,1.04648372 C1.65520729,0.207826744 2.64188441,0.0116232558 3.71336249,0.00990805735 C4.79296235,0.00820465117 5.6825364,0.377902325 6.38662327,1.4301 C6.4244851,0.94978605 6.44908933,0.637716279 6.47691838,0.284501163 L7.30127928,0.284501163 C7.31214814,0.451036046 7.33340809,0.62562907 7.33364697,0.800344185 C7.3359163,2.85394884 7.34057437,4.90767558 7.33340809,6.96115814 C7.32612238,9.07007092 6.30839139,10.1908849 4.25202776,10.2521755 C3.46779802,10.2754954 2.65908348,10.1890535 1.89599425,10.0043267 C0.958645027,9.7776 0.47981818,9.03124537 0.43670107,8.0245884 C0.956734012,7.86049537 1.32496129,7.90933252 1.48739694,8.56668142 C1.62737825,9.13343722 2.11325194,9.4204779 2.65227552,9.47444302 C3.3199338,9.5414721 4.00717991,9.59641395 4.66695529,9.50826277 C5.70057153,9.36993142 6.31113846,8.64079185 6.40155301,7.5625884 C6.44443124,7.05065233 6.40895816,6.53187907 6.40895816,5.96585581" id="Fill-6" fill="#FFFFFF" fill-rule="nonzero" mask="url(#mask-4)"></path>
                    </g>
                </g>
                <g id="Group-11" transform="translate(0.000000, 1.898791)">
                    <g id="Fill-9-Clipped">
                        <mask id="mask-6" fill="#000">
                            <use xlink:href="#path-5"></use>
                        </mask>
                        <g id="path-5"></g>
                        <path d="M1.02833708,5.38366744 C2.44284103,5.38366744 3.81375011,5.4333593 5.17916505,5.36718488 C6.18841595,5.31834767 6.77808123,4.71508605 6.95938808,3.77484767 C7.21534366,2.4479407 6.7009243,1.15741744 5.6743549,1.0619407 C4.14530993,0.919580235 2.59416894,1.0250686 1.02833708,1.0250686 L1.02833708,5.38366744 Z M1.0098242,6.23831861 L1.0098242,10.794586 L-2.38875951e-05,10.794586 L-2.38875951e-05,0.128661628 C0.222369623,0.115719767 0.433058212,0.0943534882 0.643985677,0.092766279 C2.11641704,0.081167442 3.58884841,0.0623651163 5.06127977,0.0679813954 C6.94410002,0.075184884 8.01617528,1.14105697 8.05475378,3.01616163 C8.0941683,4.9364407 7.00429676,6.17177791 5.15097769,6.23013837 C3.80085081,6.27250465 2.44833517,6.23831861 1.0098242,6.23831861 L1.0098242,6.23831861 Z" id="Fill-9" fill="#FFFFFF" fill-rule="nonzero" mask="url(#mask-6)"></path>
                    </g>
                </g>
                <g id="Group-14" transform="translate(73.573793, 0.433675)">
                    <g id="Fill-12-Clipped">
                        <mask id="mask-8" fill="#000">
                            <use xlink:href="#path-7"></use>
                        </mask>
                        <g id="path-7"></g>
                        <path d="M0.0114779894,12.7985477 L0.0114779894,0.106611628 C0.196129099,0.0867104648 0.366805967,0.075966279 0.53473576,0.0484953488 C1.01511529,-0.0298883721 1.14195843,0.191832558 1.13980855,0.661402325 C1.1248788,4.11858837 1.13144788,7.57589648 1.13240339,11.0330825 C1.13264227,11.89335 1.13455327,11.8942046 1.99032637,11.8944488 C4.09912327,11.8949372 6.20792017,11.8945709 8.31671707,11.8945709 L8.94985777,11.8945709 C9.14358615,12.7232163 9.08040345,12.8197919 8.35756485,12.8211349 C5.79120106,12.8255303 3.22483729,12.8266291 0.658473503,12.8269954 C0.463192413,12.8269954 0.268030761,12.8103907 0.0114779894,12.7985477" id="Fill-12" fill="#FFFFFF" fill-rule="nonzero" mask="url(#mask-8)"></path>
                    </g>
                </g>
                <path d="M46.475299,8.73827093 C46.5255824,7.37717791 45.435472,6.24549767 43.9962444,6.1400093 C42.3454921,6.01889303 41.2672061,6.96621279 41.0689391,8.73827093 L46.475299,8.73827093 Z M47.4061986,9.37755 L41.0722833,9.37755 C40.9877212,10.6421895 41.6289837,11.6753407 42.6944899,12.0749512 C44.2169657,12.6459803 45.5145399,12.1331895 46.2898118,10.7449919 C46.4173716,10.5165558 46.8758939,10.4816372 47.2577372,10.326457 C47.0351048,12.1488175 45.3405188,13.1702477 43.2284971,12.9277709 C41.1804941,12.6926198 39.9082408,10.9933291 40.1227514,8.77990463 C40.3452644,6.4865093 41.8772953,5.26997442 44.2752515,5.48290465 C46.29232,5.66189303 47.5682759,7.21540465 47.4061986,9.37755 L47.4061986,9.37755 Z" id="Fill-15" fill="#FFFFFF" fill-rule="nonzero"></path>
                <path d="M16.5237184,10.614975 C17.0740886,10.4927599 17.4577234,10.4240215 17.5900607,11.1650041 C17.6495407,11.4981959 18.0788009,11.8825448 18.4250516,12.019289 C19.3747029,12.3943587 20.3763098,12.389475 21.3493709,12.0568936 C21.9846615,11.839568 22.2432448,11.3951494 22.1799426,10.748789 C22.1183126,10.118789 21.7167622,9.83626567 21.1562397,9.73712618 C20.196675,9.56717265 19.2322134,9.42444593 18.2757541,9.23800987 C17.1994985,9.02813198 16.7367958,8.51192265 16.7099222,7.5600855 C16.6813766,6.54659128 17.2049927,5.77557384 18.2487611,5.63785291 C19.219553,5.50977733 20.2345369,5.49158546 21.2012678,5.63260291 C22.2938864,5.7919343 22.8160693,6.57809128 22.844615,7.73699828 L21.9887225,7.73699828 C21.8959191,7.0939343 21.6505935,6.51069593 20.9461484,6.30509128 C20.0010356,6.02928314 19.0568784,6.01133546 18.156555,6.46381221 C17.7180982,6.68419012 17.5666508,7.10675407 17.6110817,7.59353895 C17.656946,8.09705055 18.0004495,8.3575971 18.4268431,8.4466029 C19.2630283,8.62119593 20.1118741,8.73107963 20.9531952,8.88125408 C21.284755,8.9403471 21.618823,9.00932962 21.9364086,9.11957963 C22.6350013,9.36193433 23.0795495,9.8277192 23.1249358,10.6252308 C23.1734277,11.4784168 22.9037368,12.1924169 22.1144906,12.5252425 C20.6384761,13.1474285 19.1185085,13.1263064 17.6401052,12.5341553 C16.8552782,12.2197657 16.5694631,11.4994168 16.5237184,10.614975" id="Fill-17" fill="#FFFFFF" fill-rule="nonzero"></path>
                <path d="M11.9760458,12.2189965 C13.8440557,12.2283976 14.8395712,11.1804733 14.8402884,9.20403143 C14.841124,7.22881046 13.883948,6.19700233 12.0449615,6.19025894 C10.2967479,6.18381628 9.26432602,7.28863605 9.25591026,9.17497327 C9.24736582,11.0922 10.2464645,12.2103279 11.9760458,12.2189965 M15.7204265,9.19695 C15.7199486,11.619886 14.4073252,12.9511884 12.0065025,12.9641302 C9.7296564,12.9763395 8.34572857,11.5424791 8.35487975,9.1805895 C8.36412202,6.84482791 9.72093742,5.45577558 11.9967085,5.4525941 C14.4006367,5.44906046 15.7209041,6.7767 15.7204265,9.19695" id="Fill-19" fill="#FFFFFF" fill-rule="nonzero"></path>
                <path d="M27.3908901,12.0722163 L27.3908901,12.7521524 C26.9164825,12.7521524 26.4395666,12.8127105 25.9839107,12.7377454 C25.3137442,12.6274954 25.0299596,12.2482745 25.0150299,11.4849488 C24.9872008,10.0639082 24.9983086,8.64189068 24.9935311,7.22036163 C24.992695,6.98008256 24.9934116,6.7396814 24.9934116,6.43908837 C24.5936527,6.42040814 24.2462077,6.40404767 23.8558843,6.38573372 C23.8423879,6.16718721 23.830444,5.9748907 23.8155143,5.73461163 C24.1993879,5.70994884 24.5474302,5.68760582 24.962716,5.66086745 L24.962716,3.42204767 L25.8387936,3.42204767 L25.8387936,5.68675116 L27.3913678,5.68675116 L27.3913678,6.38219303 L25.8923018,6.38219303 C25.8797608,6.61807675 25.861009,6.81012907 25.8605313,7.00242558 C25.8577843,8.20076858 25.8588592,9.3989895 25.8592175,10.5973325 C25.8595758,11.9751524 25.9714892,12.0885767 27.3908901,12.0722163" id="Fill-21" fill="#FFFFFF" fill-rule="nonzero"></path>
                <path d="M37.0703228,12.6760029 C36.8469738,12.687968 36.6899128,12.7039622 36.5329714,12.7020087 C36.4367044,12.7007878 36.3407956,12.6719738 36.2057113,12.6488983 L36.2057113,5.73623546 L37.040105,5.73623546 L37.040105,6.74045058 C37.6789787,5.41452035 38.8071899,5.42489825 40.0077804,5.48557849 L40.0077804,6.30360175 C39.8740099,6.3095843 39.7422697,6.32423546 39.6110074,6.32032849 C38.0012224,6.27429942 37.1645593,7.03909012 37.0908661,8.70602618 C37.0424938,9.80242148 37.0742643,10.9023575 37.0704422,12.0005843 C37.0697256,12.2017936 37.0703228,12.4032471 37.0703228,12.6760029" id="Fill-23" fill="#FFFFFF" fill-rule="nonzero"></path>
            </g>
            <path d="M17.613072,24.5564634 C17.489786,29.0853658 17.6440493,33.6458232 18.0753277,34.7541768 C18.5068731,35.8625305 19.4304053,38.0183232 22.6061989,37.3192683 C25.2593845,36.7348171 26.2247538,35.6037805 26.6436591,33.1072866 C26.9521856,31.2705183 27.5469848,26.1694207 27.6232709,25.1242683" id="Shape" stroke="#000" stroke-width="1.121859" stroke-linecap="round" stroke-linejoin="round"></path>
            <path d="M13.8066061,1.85268293 C13.8066061,1.85268293 -0.571210227,-4.18536585 0.0972045458,9.54557925 C0.239361743,12.4667378 4.17222917,31.6489939 8.86279358,25.8549695 C10.5768693,23.736128 12.1270682,22.0743293 12.1270682,22.0743293" id="Shape" stroke="#000" stroke-width="1.121859" stroke-linecap="round" stroke-linejoin="round"></path>
            <path d="M21.5727329,0.750640245 C21.0750493,0.910975612 29.5705663,-2.44042683 34.3986591,3.89853658 C36.1041004,6.13792683 34.127786,15.2874695 29.4001913,22.4957012" id="Shape" stroke="#000" stroke-width="1.121859" stroke-linecap="round" stroke-linejoin="round"></path>
            <path d="M29.4001023,22.4957012 C29.4001023,22.4957012 29.7081837,24.053872 34.1859129,23.1042073 C36.1478069,22.6878658 34.9671098,24.2725609 32.9773542,25.2220427 C31.3443712,26.0007622 27.683267,26.2003354 27.6234489,25.1242683 C27.4695417,22.3478963 29.5503599,23.191372 29.4001913,22.4957012 C29.2644432,21.8691768 28.3338788,21.2542683 27.7183391,19.7208841 C27.1809545,18.3825 20.3482405,8.1188415 29.6132045,9.64317075 C29.9526194,9.57100613 27.1967993,0.588109756 18.5261004,0.442042683 C9.85735988,0.29597561 10.1417633,11.3958842 10.1417633,11.3958842" id="Shape" stroke="#000" stroke-width="1.121859" stroke-linecap="round" stroke-linejoin="bevel"></path>
            <path d="M15.1863409,23.4451829 C13.9777822,24.8323171 14.3332197,25.0758841 11.9174375,25.5869817 C9.47317042,26.1046646 10.9092519,27.0259756 11.8464924,27.2667073 C12.9830379,27.5589329 15.6124564,27.972622 17.3891098,25.4164939 C17.9301439,24.6382317 17.3859053,23.3964329 16.6427178,23.079878 C16.2836307,22.9270426 15.8034829,22.7355183 15.1863409,23.4451829 L15.1863409,23.4451829 Z" id="Shape" stroke="#000" stroke-width="1.121859" stroke-linecap="round" stroke-linejoin="round"></path>
            <path d="M15.1072064,23.4209451 C14.9854337,22.6053658 15.3680208,21.6348475 15.7780246,20.4994207 C16.3941875,18.7958232 17.8158484,17.0919512 16.6785909,11.6879268 C15.8308996,7.66088415 10.1452348,10.8498476 10.1416742,11.3958842 C10.1382026,11.9417378 10.398839,14.1635671 10.046695,16.7508841 C9.58719885,20.1270732 12.1374829,22.9824695 15.0741818,22.6903354" id="Shape" stroke="#000" stroke-width="1.121859" stroke-linecap="round" stroke-linejoin="round"></path>
            <path d="M13.7543542,11.3140244 C13.7287178,11.5005183 14.0866478,11.9981707 14.5533542,12.0646646 C15.0192595,12.1314329 15.4180474,11.7425305 15.4433276,11.5562195 C15.468608,11.3697256 15.1111231,11.1642988 14.6442386,11.0975305 C14.1780663,11.0306708 13.7791004,11.1279878 13.7544432,11.3140244 L13.7543542,11.3140244 Z" id="Shape" stroke="#000" stroke-width="0.5" fill="#FFFFFF" fill-rule="nonzero"></path>
            <path d="M27.9455056,10.933811 C27.970786,11.1203049 27.6133011,11.6179574 27.1465057,11.6844512 C26.6802443,11.7512195 26.2814564,11.3623171 26.2559091,11.1760061 C26.2312519,10.9895122 26.5888258,10.7840854 27.0551761,10.7173171 C27.5215265,10.6505488 27.9202254,10.7477744 27.9455056,10.9339025 L27.9455056,10.933811 Z" id="Shape" stroke="#000" stroke-width="0.5" fill="#FFFFFF" fill-rule="nonzero"></path>
            <path d="M29.6132045,9.64317075 C29.6900246,11.1060366 29.3065474,12.1024391 29.2582121,13.6596951 C29.186644,15.9232317 30.3085019,18.5140244 28.6181042,21.1080183" id="Shape" stroke="#000" stroke-width="1.121859" stroke-linecap="round" stroke-linejoin="round"></path>
        </g>
    </g>
</svg>