<svg height="38" viewBox="0 0 92 38" width="92" xmlns="http://www.w3.org/2000/svg"><g transform="translate(-27.69 -36.53)"><path d="m73.2551951 48.1619793c0-2.2733066-.6482118-3.4403924-1.9446356-3.5043006-.5158316-.024346-1.0194881.0578218-1.5094522.2480248-.3910571.1399893-.6542971.2784571-.7927656.4184467v5.4261119c.8292845.5203954 1.565752.7623338 2.2078771.7242932 1.3588102-.089776 2.0389763-1.1929535 2.0389763-3.312576zm1.5992268.0943407c0 1.1549127-.2708488 2.113536-.8155905 2.8758697-.6071282.8627609-1.4485863 1.307075-2.5243742 1.331422-.8110259.0258676-1.6463972-.2282446-2.5061155-.7608129v4.9315843l-1.3907645-.4960492v-10.9465651c.228243-.2799789.5219168-.5203955.877977-.7242931.827764-.4823548 1.8335566-.7303796 3.0173809-.7425527l.0197808.0197811c1.0818746-.0136946 1.9157254.4306198 2.5015508 1.3314213.5462623.8262419.8201552 1.8852924.8201552 3.1801946z"/><path d="m83.3542141 51.4928148c0 1.5490135-.1552052 2.6217588-.4656155 3.2182356-.311934.5964768-.9053667 1.0727453-1.7818232 1.4272835-.7105983.2799781-1.4790185.4321407-2.3037384.4580082l-.2297651-.8764549c.8384139-.1141216 1.4288055-.2282447 1.7711701-.3423662.6740794-.2282431 1.1366539-.5782166 1.3907645-1.0468778.2038976-.3819278.3043252-1.1107848.3043252-2.1896166v-.3621465c-.951015.4321415-1.9476798.6466906-2.9899913.6466906-.6847309 0-1.2888165-.2145491-1.8092112-.6466906-.5843049-.4701819-.8764565-1.0666587-.8764565-1.7894301v-5.7882586l1.3907645-.4762684v5.8262992c0 .6223444.200855 1.1016559.6025635 1.4379349s.9221048.4975711 1.5596653.4853982c.6375604-.0136947 1.3207691-.2601979 2.0465836-.7425526v-6.7970954h1.3907645z"/><path d="m88.7833698 52.3875297c-.1658566.013694-.3180192.0197807-.4580083.0197807-.7866804 0-1.3998938-.1871594-1.8381229-.5630006-.4367054-.3758411-.6558191-.894715-.6558191-1.5566215v-5.4778472h-.952537v-.8749338h.952537v-2.3235203l1.3892424-.4945278v2.8180481h1.5627079v.8749338h-1.5627079v5.4398066c0 .5219171.1399891.8916718.4199688 1.1077425.2404166.17803.6223443.2799788 1.1427391.3058465z"/><path d="m97.2040388 52.2734081h-1.3907645v-5.3682905c0-.546263-.1278171-1.0164449-.3819277-1.4090239-.2936738-.4443143-.701469-.6664715-1.2249079-.6664715-.6375605 0-1.4348923.3362789-2.3919924 1.0088369v6.434949h-1.3907661v-12.8318572l1.3907661-.4382278v5.8445587c.8886284-.6466904 1.8594241-.9707963 2.9139092-.9707963.7364659 0 1.3329427.2480248 1.7894304.7425526.4580083.4945278.6862529 1.1107857.6862529 1.8472518z"/><path d="m104.596089 47.9428655c0-.8734124-.165857-1.5946623-.49605-2.1652713-.392579-.6953824-1.00275-1.0620937-1.827471-1.1001345-1.524667.0882544-2.2854781 1.1807805-2.2854781 3.2745354 0 .9601449.1582481 1.7620408.4777891 2.4056879.407795.8201555 1.019488 1.2249075 1.835079 1.2112129 1.530753-.012173 2.296131-1.2203426 2.296131-3.6260304zm1.523146.0091296c0 1.2431671-.318019 2.2778715-.952537 3.1041135-.698425.9251474-1.663135 1.3892429-2.89413 1.3892429-1.220342 0-2.171357-.4640955-2.8576095-1.3892429-.6223443-.826242-.9327562-1.8609464-.9327562-3.1041135 0-1.1686074.3362794-2.1515766 1.0088367-2.9519509.7106-.8490664 1.644877-1.2751212 2.799789-1.2751212 1.154913 0 2.095276.4260548 2.81957 1.2751212.672558.8003743 1.008837 1.7833435 1.008837 2.9519509z"/><path d="m114.092546 52.2734081h-1.390765v-5.6726153c0-.6223443-.187159-1.1077424-.56148-1.457716-.374319-.348452-.873412-.5173523-1.495756-.5036576-.660384.012173-1.288815.2282437-1.885292.6466902v6.9872987h-1.390765v-7.1592422c.800375-.582782 1.536841-.9631881 2.209398-1.1412181.634518-.165857 1.194476-.2480248 1.676831-.2480248.330193 0 .640603.0319542.932755.0958624.546264.1262948.990578.3606249 1.332942.7045119.381928.3804062.572132.8368934.572132 1.3709836z"/><path d="m51.3790852 40.0692135c2.0192362.3333255 3.7189202 1.8374222 3.7189202 3.8346204v7.0163635c0 2.0578035-1.6500986 3.7437138-3.7189202 3.7437138h-7.4350865c-2.5233563 0-4.6500279 2.1514635-4.6500279 4.5839135v3.3663116h-2.5564136c-2.1624836 0-3.421407-1.5591907-3.9503201-3.7409583-.7134819-2.9310596-.6831796-4.6775752 0-7.484672.5922724-2.4489781 2.4847899-3.7409587 4.6472733-3.7409587h10.2284084v-.9366171h-7.4378405v-2.8070963c0-2.1266716.5702345-3.2836692 3.7189204-3.8346204 2.1376913-.3746468 4.8786737-.4214776 7.4350865 0zm-7.9006401 1.964141c-.7713316 0-1.3939065.6280843-1.3939065 1.4049256 0 .7740865.6225749 1.4021708 1.3939065 1.4021708.7685768 0 1.3939059-.6280843 1.3939059-1.4021708 0-.7768413-.6253291-1.4049256-1.3939059-1.4049256z"/><path d="m58.8169271 47.6475473c2.165237 0 3.1844973 1.6087775 3.7189201 3.7409587.7437844 2.9613622.7768408 5.1761862 0 7.484672-.7520488 2.2423713-1.5564369 3.7409583-3.7189201 3.7409583h-11.1540083v.9366168h7.4350866v2.8070968c0 2.1266715-1.8456865 3.2037817-3.7189202 3.7409583-2.8181151.8098988-5.0797692.6859344-7.4350865 0-1.9668956-.5729884-3.7189204-1.7437603-3.7189204-3.7409583v-7.0163635c0-2.0192362 1.6831558-3.7437137 3.7189204-3.7437137h7.4350865c2.4765263 0 4.6500279-2.1404451 4.6500279-4.6775753v-3.2726501zm-6.9722873 17.7736858c-.7685778 0-1.393907.6280845-1.393907 1.4021714 0 .7768408.6253292 1.4049253 1.393907 1.4049253.7713317 0 1.3939055-.6280845 1.3939055-1.4049253 0-.7740869-.6225738-1.4021714-1.3939055-1.4021714z"/><path d="m73.3437466 64.599195c0 .9081934-.2145428 1.6616936-.6436081 2.2604992-.4789692.6786496-1.1425346 1.0279539-1.9906961 1.0479145-.6386219.0199606-1.2971964-.1796423-1.9757265-.5988087v3.8772815l-1.0776691-.389224.0149663-8.6078647c.1796116-.2195572.4091145-.4091798.6885119-.5688678.6485943-.3792389 1.4368889-.5738517 2.3648853-.5838382l.0149679.0149704c.8481615-.0099725 1.5017467.3393318 1.9607603 1.0479145.4290653.6487133.6436081 1.4820529.6436081 2.5000233m-1.2572805-.0748507c0-1.7864396-.5138943-2.7046101-1.5416673-2.7545179-.4091191-.0199543-.8082549.0449176-1.1974105.1946128-.3093332.109788-.5188805.2195682-.6286403.3293452v4.266507c.6585729.4091861 1.2423095.5988072 1.751213.5688663 1.0776643-.069859 1.6165051-.9381296 1.6165051-2.6048134m8.1678838-.1646734c0 .9780555-.2494679 1.791436-.7483818 2.4401431-.5488194.7285495-1.3071782 1.0928242-2.2750812 1.0928242-.9579306 0-1.7063109-.3642747-2.2451438-1.0928242-.4889432-.6487071-.7334139-1.4620876-.7334139-2.4401431 0-.9181674.2644264-1.6916267.7932839-2.320381.5587901-.6686615 1.2922025-1.0030031 2.2002417-1.0030031.908033 0 1.6464347.3343416 2.2152096 1.0030031.5288513.6287543.7932855 1.4022136.7932855 2.320381m-1.1974106 0c0-.6886252-.1297248-1.2574914-.3891588-1.7066019-.3093363-.5489025-.7882992-.838325-1.4368936-.8682721-1.1974121.0698668-1.7961151.9281571-1.7961151 2.574874h.0149679c-.0000015.7584935.1247277 1.3922317.3741909 1.9012162.3193071.6487086.7982701.9680736 1.4368921.9580917 1.1974059-.0099787 1.7961166-.9630803 1.7961166-2.8593079m10.6859527-3.08386-1.7811487 6.2874836-.8980575.3143733-1.7212772-5.2245988-1.4069579 4.9102255-.8980575.3143733-2.110436-6.4820964 1.0028311-.3592846 1.6763752 5.1048382 1.3321184-4.7455536 1.0028312-.3592846 1.691343 5.1048382 1.436892-5.1048382zm5.8993546 5.8832877c-.4190992.2694634-.7932901.4540959-1.1225727.5538973-.3991405.1197621-.8032671.1796423-1.2123784.1796423-.7284278 0-1.3071751-.1846324-1.7362451-.5538973-.7783176-.6586874-1.1624871-1.5768595-1.1525085-2.7545163.0099786-.968069.2095473-1.766479.5987061-2.3952318.4689844-.7385235 1.147516-1.1077947 2.0355981-1.1077947 1.6564133 0 2.4995885 1.0928305 2.5295306 3.2784728h-4.0113263c-.0598716.8483147.0997828 1.536943.4789645 2.065888.3791771.5189679.8780973.7684707 1.4967636.7485101.5188727-.0199606 1.1325451-.1996013 1.8410188-.5389269zm-1.1525084-3.4281758c0-.5289419-.1097661-.9780476-.3292873-1.3473172-.2594433-.4191602-.613677-.6287481-1.0627027-.6287481-.8980591 0-1.3969793.6537035-1.496762 1.9610949zm6.4491778-2.6646951c-.099788.1996091-.244476.4940233-.434061.883241-.279399-.059874-.483957-.0898149-.6136724-.0898211h-.0149678c-.5987077.0000062-1.1325529.1996091-1.6015373.5988087v5.299451h-1.0926369v-5.4491524c.4091144-.4590814.9279917-.7984054 1.5566336-1.0179736.54881-.1995966 1.0377531-.2994043 1.4668278-.2994043.239478 0 .483949.024957.733414.0748507m5.958288 6.0928709c-.419099.2694634-.79329.4540959-1.122573.5538973-.39914.1197621-.803267.1796423-1.212378.1796423-.728428 0-1.307175-.1846324-1.736245-.5538973-.778318-.6586874-1.162487-1.5768595-1.152509-2.7545163.009979-.968069.209547-1.766479.598706-2.3952318.468985-.7385235 1.147516-1.1077947 2.035598-1.1077947 1.656414 0 2.499589 1.0928305 2.529529 3.2784728h-4.011324c-.059872.8483147.099782 1.536943.478964 2.065888.379177.5189679.878097.7684707 1.496764.7485101.518872-.0199606 1.132545-.1996013 1.841018-.5389269zm-1.152509-3.4281758c0-.5289419-.109766-.9780476-.329287-1.3473172-.259443-.4191602-.613677-.6287481-1.062703-.6287481-.898059 0-1.39698.6537035-1.496762 1.9610949zm7.975879 2.9940405c-.977889.7584904-2.025623 1.1427242-3.143203 1.1527045-.82821 0-1.481797-.3742551-1.960759-1.1227652-.419094-.6487071-.628641-1.4121861-.628641-2.2904401 0-.8782478.224515-1.6517071.673543-2.320381.508899-.7485039 1.187431-1.1177672 2.035599-1.1077947.648594.0000078 1.302179.1596895 1.96076.4790466v-3.8473406l1.047733-.3592846zm-1.062701-.1197621v-4.2515365c-.638624-.3991996-1.202405-.5988072-1.691343-.5988072-.618665 0-1.087651.3243598-1.406958.9730622-.25944.518971-.389157 1.1227683-.389157 1.8113935 0 .6586921.124727 1.2325485.374191 1.7215739.309328.6387283.763345.9580917 1.362054.9580917.558787 0 1.142525-.2045915 1.751213-.6137776" transform="matrix(.99982864 .01851196 -.01851196 .99982864 1.204886 -1.667809)"/></g></svg>