<svg height="94" viewBox="0 0 225 94" width="225" xmlns="http://www.w3.org/2000/svg"><g transform="translate(30 34)"><path d="m22.0052385 10.3255924h-7.2255216c-.5778296-.0691208-1.0178284-.57955172-1.0178284-1.1803715v-7.60329412c0-.64867264-.5248178-1.16973756-1.1662618-1.16973756h-2.5286674c-.6467452 0-1.16626179.5263819-1.16626179 1.16973756v7.68304895c-.03180713.57955176-.50891421 1.04744677-1.0814427 1.10061667h-1.89252472c-.55662492-.0691208-.98602129-.53701581-1.02312961-1.10061667v-7.68304895c0-.64867264-.52481778-1.16973756-1.16626174-1.16973756h-2.52866749c-.64674514 0-1.16626173.5263819-1.16626173 1.16973756v9.95340322 12.2343914c0 .6486727.52481778 1.1697376 1.16626173 1.1697376h2.52866749 6.32962056 2.5286674 9.4149129c.6467452 0 1.1662618-.5263819 1.1662618-1.1697376v-12.2343914c-.0053012-.6486726-.5248178-1.1697376-1.1715629-1.1697376zm-3.3291472 8.3902085c0 .6486727-.5248177 1.1697376-1.1662617 1.1697376h-2.5286675c-.6467452 0-1.1662617-.5263819-1.1662617-1.1697376v-2.392645c0-.6486726.5248177-1.1697376 1.1662617-1.1697376h2.5286675c.6467452 0 1.1662617.526382 1.1662617 1.1697376z"/><g transform="translate(28.255341)"><path d="m11.7580387 24.920727-1.2086712-5.6572763c-.1749392-.8454011-.3604809-1.5950966-.57252847-2.2437692-.20674641-.6539897-.49831184-1.2016395-.86409393-1.6482666-.37108327-.4466271-.85349154-.7815973-1.45252598-1.0155448-.59903443-.2286306-1.38361051-.3456044-2.35372822-.3456044h-2.53926987v10.9104613h-2.76722103v-24.50600187h6.05395864c1.00192485 0 1.97204257.10633978 2.91565434.31370235.93831061.20736257 1.77059742.55296684 2.49155922 1.03149584.7209617.47852901 1.2987914 1.11656767 1.7387902 1.90879901.4399987.79223136.6573475 1.76524033.6573475 2.9243439 0 .88793715-.1060238 1.6748515-.3127702 2.3501091-.2067464.67525758-.5195166 1.26012637-.9330094 1.74928937s-.9330094.9038881-1.5479474 1.2388584-1.34120101.6061367-2.16818657.8134993v.0691208c.80578085.2073626 1.45252597.4732121 1.93493427.7869144.4824083.3190193.869395.6965255 1.1609605 1.1378356.2862643.4413101.5089143.9464241.6679499 1.5153419.1590357.5689178.307469 1.2229074.4559024 1.9513349l1.4101163 6.715357zm-.6732511-18.03522638c0-1.01554488-.1802403-1.80777622-.5354201-2.36606006-.3551797-.55828383-.83228674-.97300897-1.41541764-1.23885841-.58843206-.26584945-1.25638196-.42535911-2.00384971-.478529s-1.51614025-.07975483-2.30071633-.07975483h-2.05686161v8.98571118h1.52144145c.83228679 0 1.64866999-.0584869 2.46505321-.1807776s1.53734502-.3562382 2.17878897-.7018425c.64144396-.3456043 1.16096056-.8347673 1.55854976-1.46748894.3869869-.63272168.588432-1.45685496.588432-2.47239984z"/><path d="m27.2693198 24.920727v-2.2384524h-.0689154c-.2332524.4413102-.5407214.8241333-.9330094 1.1537866s-.8216844.6061368-1.2881891.8241333-.9595154.3828232-1.4684296.4944799c-.5142154.1116568-1.007226.1648267-1.4790319.1648267-.7262629 0-1.3730081-.1116568-1.9349342-.3402873-.5672273-.2233135-1.0390332-.5423328-1.4154177-.951741-.3816856-.4094081-.673251-.909205-.8746963-1.4940739-.2014452-.5848687-.3021678-1.2335414-.3021678-1.9513348 0-.6486727.1272285-1.2229075.3816857-1.7333385.2544571-.5104309.588432-.957058 1.0125272-1.3451982.418794-.3881401.9065034-.7177935 1.4631284-.9995939.5566249-.2818004 1.1291534-.5051139 1.7228866-.6752575.5937333-.1754606 1.1927677-.3030685 1.7918021-.3828233s1.1609606-.1222907 1.675176-.1222907c.2862642 0 .5672273-.005317.8322868-.010634s.5407213-.0372189.8322867-.0957058v-.3615552c0-.6220878-.0106023-1.2441754-.0265059-1.8662632-.0159036-.6220876-.1219274-1.1803715-.3127702-1.6748514-.1908429-.49448-.503613-.8985712-.9330094-1.2016395-.4293964-.30306841-1.0708403-.45726103-1.9084283-.45726103-.4983118 0-.9436117.04785291-1.341201.13824172-.3975892.0903888-.7421666.23926441-1.0284308.44662701-.2862642.2073625-.5195166.483846-.699757.8294503-.1802405.3456042-.3021679.7709634-.3710833 1.2760773h-2.682402c.0106023-.8560352.1908428-1.5791456.5460226-2.1746485.3498785-.5955027.811082-1.07934869 1.3730081-1.4568549.5672272-.37750621 1.2086713-.64867264 1.929633-.82413328.7209618-.17546063 1.452526-.26053246 2.205295-.26053246 1.9137294 0 3.3344482.4359931 4.2621565 1.30266229.9277082.86666914 1.3942129 2.24376935 1.3942129 4.12598335v11.8622023zm-1.4896343-7.667098c-.5407213 0-1.1344545.0584869-1.7705973.1807776s-1.2351773.3190193-1.7918022.6008197c-.5566249.2818005-1.0178284.6433557-1.3942128 1.1006167-.3763845.4572611-.5619261 1.0208619-.5619261 1.6908025 0 .7177935.2173487 1.3079793.6467451 1.7705573.4346975.4625781 1.007226.6912086 1.7228866.6912086.4240952 0 .837588-.0638039 1.229876-.2020456.3922881-.1329248.7580701-.3137024 1.0973463-.5476499.3392762-.2286305.6467452-.5104309.9277082-.8347673.2756619-.3243363.5036131-.6752575.6732511-1.0580807.137831-.3137024.2491559-.6008198.3392762-.8560352.0901202-.2552155.1537344-.521065.2014452-.7815974.0477107-.2605325.0742166-.5263819.084819-.8081823.0106024-.2764835.0159036-.5955028.0159036-.951741h-1.4207189z"/><path d="m47.8432371 16.6474922c0 1.1112507-.111325 2.1852825-.3392762 3.2274123-.2279511 1.0421298-.6043356 1.9672859-1.1344545 2.7754682-.530119.8081823-1.2245749 1.4568549-2.0833676 1.940701-.8587928.4838459-1.929633.7284274-3.2072198.7284274-1.1874665 0-2.1840901-.1860946-2.989871-.5529668-.8057808-.3721892-1.4578272-.8826202-1.9455366-1.5419268-.4877095-.6593066-.8428892-1.435587-1.0549367-2.3341581-.2120477-.8932542-.3180715-1.8715801-.3180715-2.924344v-17.55138027h2.401439v10.40534727h.0848191c.1484333-.510431.3763844-.95705801.6732511-1.35051518.3021677-.39345717.6520462-.72311049 1.0549367-.99959391.4028904-.27116643.8481904-.478529 1.3305986-.6220877.4824083-.1435587.9860213-.21799655 1.5055379-.21799655.8057808 0 1.5161403.12760774 2.125777.38814019.6096368.26053246 1.1397558.61677071 1.5797546 1.06871477.4452999.45194406.8163831.97300898 1.1132498 1.56851178.3021679.5955027.5354202 1.2282244.7103595 1.898165.1749392.6699406.2968665 1.3558321.3710832 2.0576747.0848191.6965255.1219274 1.3771001.1219274 2.0364067zm-2.767221-.0638039c0-.3934571-.0212048-.8347672-.0583131-1.3239302-.0424095-.4891629-.111325-.9942769-.2067464-1.5047078-.0954214-.5157479-.2332524-1.0155449-.4081916-1.5047079-.1749393-.489163-.3975893-.9251561-.6732511-1.3079792-.2756619-.3828233-.6096369-.6912086-1.0019249-.9251561-.392288-.23926451-.8481904-.35623832-1.3677069-.35623832-.5513238 0-1.0443344.12760781-1.4684296.38282322-.4240951.2552155-.7951784.5901858-1.1079487 1.0049109-.3127701.4147251-.5725284.8879372-.7792748 1.4196361-.2067464.5316988-.3710833 1.0740317-.4930107 1.6269985-.1219273.5529669-.2067464 1.0952998-.2597583 1.6269987-.0530118.5316989-.0795178 1.0049108-.0795178 1.419636 0 .6486726.0477107 1.3292472.1378309 2.0417237.0901203.7177935.2756619 1.3824172.5460226 1.9938709.2703606.6114537.6573475 1.1165677 1.1609606 1.5153418.5036129.3987742 1.1662617.5955028 1.9985484.5955028.5513237 0 1.0390332-.1063398 1.4631284-.3137024.418794-.2073626.7792749-.489163 1.0814427-.8400842.3021678-.3509213.5460225-.7603295.7421666-1.2229074.1961439-.4625781.3498785-.9411071.4665047-1.435587.1166261-.4944801.196144-.994277.2438546-1.488757.0424096-.4944799.0636144-.9623749.0636144-1.4036851z"/><path d="m64.8759596 16.6474922c0 1.1112507-.111325 2.1852825-.3392762 3.2274123-.2279511 1.0421298-.6043355 1.9672859-1.1344545 2.7754682s-1.2245748 1.4568549-2.0833676 1.940701c-.8587927.4838459-1.929633.7284274-3.2072198.7284274-1.1874665 0-2.1840901-.1860946-2.989871-.5529668-.8057808-.3721892-1.4578271-.8826202-1.9455366-1.5419268s-.8428891-1.435587-1.0549367-2.3341581c-.2120477-.8932542-.3180714-1.8715801-.3180714-2.924344v-17.55138027h2.4014389v10.40534727h.0848191c.1484333-.510431.3763844-.95705801.673251-1.35051518.3021678-.39345717.6520464-.72311049 1.0549368-.99959391.4028905-.27116643.8481903-.478529 1.3305986-.6220877s.9860213-.21799655 1.5055379-.21799655c.8057808 0 1.5161403.12760774 2.125777.38814019.6096369.26053246 1.1397558.61677071 1.5797546 1.06871477.4452999.45194406.8163832.97300898 1.1132498 1.56851178.3021679.5955027.5354202 1.2282244.7103595 1.898165.1749392.6699406.2968666 1.3558321.3710833 2.0576747.084819.6965255.1219273 1.3771001.1219273 2.0364067zm-2.7672211-.0638039c0-.3934571-.0212047-.8347672-.058313-1.3239302-.0424095-.4891629-.111325-.9942769-.2067464-1.5047078-.0954214-.5157479-.2332524-1.0155449-.4081916-1.5047079-.1749393-.489163-.3975893-.9251561-.6732511-1.3079792-.2756619-.3828233-.6096368-.6912086-1.0019248-.9251561-.3922881-.23926451-.8481905-.35623832-1.367707-.35623832-.5513237 0-1.0443344.12760781-1.4684296.38282322-.4240951.2552155-.7951785.5901858-1.1079486 1.0049109-.3127702.4147251-.5725285.8879372-.7792749 1.4196361-.2067464.5316988-.3710833 1.0740317-.4930106 1.6269985-.1219274.5529669-.2067464 1.0952998-.2597584 1.6269987-.0530118.5316989-.0795178 1.0049108-.0795178 1.419636 0 .6486726.0477108 1.3292472.1378309 2.0417237.0901203.7177935.275662 1.3824172.5460226 1.9938709.2703607.6114537.6573475 1.1165677 1.1609606 1.5153418.5036129.3987742 1.1662617.5955028 1.9985484.5955028.5513238 0 1.0390332-.1063398 1.4631285-.3137024.4187939-.2073626.7792748-.489163 1.0814426-.8400842.3021678-.3509213.5460225-.7603295.7421666-1.2229074.196144-.4625781.3498785-.9411071.4665046-1.435587.1166262-.4944801.1961441-.994277.2438548-1.488757.0424095-.4944799.0636142-.9623749.0636142-1.4036851z"/><path d="m69.1275137 3.60491847v-3.19019334h3.1807139v3.19019334zm.3816857 21.31580853v-16.90802474h2.4014389v16.90802474z"/><path d="m81.4050691 10.038475v10.4053473c0 .9038881.2173488 1.6004137.6573475 2.1002106.4399988.499797 1.1397558.7443785 2.0992712.7443785.3339749 0 .6202391-.0265849.8481903-.0797548.2332523-.0531699.4983118-.1382417.8004796-.2498986v2.1693315c-.3551797.0584869-.7103594.1063398-1.0655391.1382417-.3498785.0372189-.7050582.0531699-1.0655391.0531699-.7951785 0-1.4843331-.0744378-2.067464-.2233135-.5831308-.1488757-1.0708403-.3934572-1.4631283-.7390614-.3922881-.3402874-.6838536-.7869144-.8746964-1.3451983-.1908428-.5582838-.2862642-1.2441754-.2862642-2.0629916v-10.9104613h-2.7513175v-2.03108972h2.7513175v-3.93457178l2.4014389-1.52597582v5.4605476h4.5484208v2.03108972z"/><path d="m109.538482 24.9874833v-21.56038997h-.068914l-7.193715 21.55507297h-2.7301124l-7.1778112-21.55507297h-.0848191v21.55507297h-2.4703543v-24.50068482h4.1508315l6.9339555 20.84791352h.068916l6.94986-20.84791352h4.097819v24.50600182z"/><path d="m125.638196 24.9957553c-1.139756 0-2.152283-.1701436-3.026979-.5104309s-1.643369-.8081823-2.300716-1.4036851c-.657348-.5955027-1.208672-1.2920283-1.659273-2.0895766-.450601-.7975484-.811082-1.6482666-1.086744-2.5574716-.275662-.9092052-.477107-1.8503122-.599035-2.8286382-.121927-.9783259-.18024-1.9460179-.18024-2.9030759 0-1.0155449.053012-2.0310898.164337-3.04131764.111325-1.01022791.291565-1.98323688.551324-2.92434391.259758-.94110704.609637-1.80777623 1.044335-2.62127552.439998-.80818232.991322-1.51002485 1.659271-2.10552761.66795-.59550276 1.463129-1.06339778 2.374933-1.40368507.917106-.34028729 1.987947-.51043093 3.207221-.51043093 1.187466 0 2.226499.17546063 3.1224.5263819.8906.35092127 1.659273.83476725 2.300717 1.44090399.641444.60613673 1.171562 1.31861325 1.590356 2.14274653.418795.81881629.75277 1.69611945.996624 2.62659251.243855.93047306.413493 1.89816504.508914 2.90307592.095422 1.00491093.148433 1.99387083.148433 2.96687983 0 .473212-.015903 1.0155449-.053011 1.6216816-.037109.6061368-.095422 1.2388584-.180241 1.8981651-.084818.6593065-.206746 1.3239302-.36048 1.9938708-.153735.6699406-.355181 1.3026623-.599035 1.892848-.243855.5901858-.53542 1.1272017-.874697 1.6110476-.339276.4838461-.736865.8666693-1.182165 1.1431527l.068916.0691208 5.030828-.3137023v2.376694zm5.810104-12.3300972c0-.6380387-.021205-1.3345642-.058313-2.0895767-.04241-.75501242-.127229-1.5153418-.259759-2.27035423-.132529-.75501242-.328673-1.49407388-.577829-2.2012334-.249157-.70715952-.593733-1.3398812-1.012528-1.89284804-.424095-.54764986-.93831-.98895994-1.547947-1.31861325-.609637-.32965332-1.346502-.49447997-2.199993-.49447997-.901203 0-1.669876.15950967-2.311319.478529-.641444.31901933-1.182166.74437845-1.627465 1.28139432-.4453.53701588-.80048 1.15378659-1.076142 1.85562913-.270361.70184254-.477107 1.43027002-.62554 2.19591642-.143132.7656464-.238554 1.53129279-.286265 2.29693912-.04771.7709635-.068915 1.488757-.068915 2.1586976 0 .6380387.026506 1.3239302.084819 2.0629917.058313.7390614.159035 1.4781229.31277 2.2225013.148434.7390615.360481 1.456855.630842 2.1480635.270361.6912086.620239 1.3079793 1.049635 1.8396782.429397.5316989.948913.9570579 1.55855 1.2760774.609637.3190193 1.3359.4785289 2.162885.4785289.933009 0 1.728188-.1488757 2.380235-.451944.652046-.3030684 1.192768-.7071596 1.627464-1.2122735.434698-.510431.773975-1.0952997 1.023131-1.7599234.249156-.6646235.434698-1.3717831.556625-2.1161615.121927-.7443785.196143-1.5047079.222649-2.2703542.026506-.7762805.04241-1.5153419.04241-2.2171844z"/></g></g></svg>