<svg height="37" viewBox="0 0 113 37" width="113" xmlns="http://www.w3.org/2000/svg"><path d="m29.0955882 0h-.1323529c-.7205883.0147-1.4852941.18669-2.2647059.47481-1.5661765.57477-3.2647059 1.641255-4.992647 3.145065-.3382353.294735-.6838235.610785-1.0294118.941535-.2279412-.2205-.4558824-.4263-.6838236-.6321-1.8308823-1.62288-3.6323529-2.764335-5.2794117-3.37953-.8235294-.30723-1.625-.491715-2.375-.509355-.75-.018375-1.4485294.128625-2.0588235.484365-1.19117647.685755-1.8382353 2.036685-2.11764712 3.67647-.28676468 1.64934-.21323528 3.64854.2279412 5.89764.08823532.44835.1911765.90405.30882352 1.37445-.52941172.147-1.0441176.3087-1.52941175.47775-2.14191176.74235-3.87426471 1.68315-5.11838235 2.74155-1.24411765 1.06575-2.0507353 2.30055-2.0507353 3.6456 0 1.38915.84779412 2.6754 2.15882353 3.7926 1.31102941 1.12455 3.14044117 2.12415 5.40000002 2.88855.36029408.12495.72794115.24255 1.11029408.3528-.12499995.4998-.23529413.99225-.32352938 1.47-.41911762 2.22705-.47058825 4.19685-.17647057 5.8065.30147052 1.60965.9705882 2.9253 2.13970582 3.59415 1.1985295.69825 2.7352942.6027 4.3676471.0294 1.625-.5733 3.3970588-1.6611 5.1911765-3.234.2867647-.2499.5735294-.5145.8602941-.7938.375.36015.75.7056 1.125 1.02165 1.7132353 1.47735 3.3897058 2.50635 4.9338235 3.05025s3.0220588.62475 4.1838235-.05145c1.2058824-.69825 1.8897059-2.0727 2.2058824-3.77055.3161764-1.69785.2573529-3.7779-.2058824-6.1152-.0735294-.36015-.1544117-.735-.242647-1.1025.257353-.08085.5147059-.1617.7647058-.24255 2.3235295-.7644 4.2132354-1.7493 5.5735295-2.8665s2.2426471-2.4108 2.2426471-3.82935c0-1.3671-.8455883-2.6019-2.1250001-3.675-1.2794117-1.06575-3.0514705-2.00655-5.2205882-2.7489-.4264706-.147-.867647-.28665-1.3235294-.41895.0735294-.30135.1470588-.6027.2058823-.90405.4926471-2.3961.5808824-4.5276.2941177-6.264405-.2941177-1.73607-.9705882-3.14727-2.1985294-3.85581-.5514707-.32046-1.1838235-.46599-1.8455883-.471135zm-.1249999 1.775025c.4632352-.01176.8308823.0735 1.0882352.224175.5588236.319725 1.0955883 1.179675 1.3382353 2.614395.2426471 1.442805.1764706 3.383205-.2867646 5.617605-.0588236.27195-.1176471.5439-.1838236.8232-1.7058824-.3969-3.5661764-.6909-5.5220588-.87465-1.125-1.6023-2.3014706-3.0723-3.4926471-4.35855.3235294-.303555.6323529-.597555.9485295-.869505 1.6102941-1.397235 3.1617646-2.34906 4.4485293-2.82093.6397059-.235935 1.1985294-.34398 1.6617648-.35574zm-16.8235295.040425h.1764706c.4926471.013965 1.0882353.1323 1.7720588.38661 1.3676471.51009 3.0220589 1.53615 4.7205883 3.05025.2058823.18375.4117647.37485.617647.57624-1.1911764 1.2789-2.375 2.74155-3.5147058 4.34385-1.9485294.18375-3.8088236.47775-5.507353.85995-.1102941-.43365-.2058824-.85995-.2867647-1.27155-.4117647-2.0874-.45588232-3.9102-.2279412-5.25819.2352941-1.347255.7426471-2.148405 1.2647059-2.451225.2426471-.140385.5735294-.22638.9852941-.23667zm8.5294118 5.2773c.8161764.87465 1.625 1.85955 2.4264706 2.9253-.8014706-.03675-1.625-.0588-2.4485294-.0588-.8161765 0-1.625.02205-2.4264706.0588.8088235-1.06575 1.632353-2.0433 2.4485294-2.9253zm33.382353 1.7493v16.8462h2.1029411v-6.69585h3.3602941l4.2941177 6.69585h2.4779412l-4.5514707-6.87225c2.3014707-.2058 4.375-1.8669 4.375-4.90245 0-3.1017-2.1985294-5.0715-5.2867647-5.0715zm53.4411764 1.3083v3.3369h-1.985294v1.66845h1.985294v7.9821c0 1.81545.955882 2.8518 2.720588 2.8518 1.102942 0 1.838236-.33075 2.279412-.78645l-.588235-1.4112c-.220588.2793-.735294.50715-1.25.50715-.808824 0-1.25-.6615-1.25-1.56555v-7.57785h2.5v-1.66845h-2.5v-3.3369zm-51.3382353.5586h4.4191177c1.992647 0 3.3602941 1.31565 3.3602941 3.2046 0 1.8963-1.3676471 3.234-3.3602941 3.234h-4.4191177zm-35.5073529 1.0143c1.2867647 0 2.5441176.05145 3.7647058.13965.6911766 1.0143 1.3602941 2.08005 2 3.18255s1.2352942 2.21235 1.7720589 3.3075c-.5367648 1.10985-1.125 2.2344-1.7720589 3.34425-.6397058 1.10985-1.3014705 2.1756-1.9852941 3.19725-1.2279411.0882-2.492647.1323-3.7794117.1323-1.2720588 0-2.5220589-.0441-3.7426471-.1176-.6911765-1.02165-1.3676471-2.0874-2.0147059-3.19725s-1.2352941-2.22705-1.7647059-3.32955c.5294118-1.10985 1.1176471-2.2197 1.757353-3.32955s1.3161764-2.1756 2.0073529-3.1899c1.2205882-.0882 2.4779412-.13965 3.757353-.13965zm-6.0294118.3675c-.4338236.6762-.8529412 1.3671-1.2647059 2.08005s-.7941176 1.4259-1.1617647 2.1315c-.5220588-1.2201-.9558823-2.41815-1.3161765-3.56475 1.1764706-.2646 2.4264706-.47775 3.7426471-.6468zm12.0588235.00735c1.3235295.1617 2.5882354.38955 3.7647059.65415-.3529412 1.1466-.8014705 2.3373-1.3235294 3.5574-.375-.71295-.7720588-1.43325-1.1838235-2.1462-.4117647-.7056-.8308824-1.3965-1.257353-2.06535zm-17.51470585 1.0731c.51470587 1.66845 1.19117645 3.4251 2.01470585 5.21115-.8382353 1.81545-1.52205883 3.59415-2.04411763 5.28465-.34558822-.09555-.68382352-.2058-1.0147059-.31605-2.08823526-.71295-3.73676468-1.6317-4.81838232-2.5578-1.08235295-.9261-1.54191177-1.8228-1.54191177-2.4549 0-.61005.41985294-1.43325 1.43308824-2.30055 1.0125-.8673 2.56691176-1.7346 4.55220585-2.4255.4485294-.15435.92647065-.30135 1.41911768-.441zm64.43382355.0147c-3.4926471 0-6.0220589 2.8518-6.0220589 6.38715 0 3.81465 2.6029412 6.41655 6.1691177 6.41655 1.985294 0 3.6764705-.65415 4.8529415-1.8669l-.8823533-1.24215c-.9558825.9849-2.3529412 1.5435-3.75 1.5435-2.625 0-4.2426471-1.91835-4.3897059-4.2189h9.8308824v-.47775c0-3.66765-2.1323527-6.5415-5.8088235-6.5415zm13.088235 0c-1.9852942 0-3.5294115.65415-4.852941 2.02125l.8823533 1.3083c1.102941-1.1613 2.2794112-1.6905 3.75-1.6905 1.7647057 0 3.0882353.93345 3.0882353 2.57985v2.19765c-1.0294118-1.13925-2.4264706-1.66845-4.0441178-1.66845-2.0588235 0-4.2647062 1.28625-4.2647062 4.0131 0 2.65335 2.2058827 4.0425 4.2647062 4.0425 1.6176472 0 3.014706-.58065 4.0441178-1.6905v1.38915h1.8382349v-8.38635c0-2.9547-2.1323527-4.116-4.7058825-4.116zm13.5294118 0c-3.6029413 0-6.102941 2.7783-6.102941 6.38715 0 3.63825 2.4999997 6.41655 6.102941 6.41655 2.205882 0 3.529412-.9114 4.485294-2.12415l-1.25-1.1613c-.808823 1.0878-1.838235 1.59495-3.088235 1.59495-2.6470585 0-4.2647058-2.02125-4.2647058-4.72605s1.6176473-4.69665 4.2647058-4.69665c1.25 0 2.279412.47775 3.088235 1.5876l1.25-1.1613c-.955882-1.21275-2.279412-2.1168-4.485294-2.1168zm-68.0514703.00735c.4191176.12495.8308823.25725 1.2205881.38955 2.014706.6909 3.6176472 1.5582 4.6691177 2.4402 1.0441177.87465 1.4852941 1.71255 1.4852941 2.31525 0 .63945-.4705882 1.53615-1.5955882 2.46225-1.1323529.9261-2.8455882 1.84485-5.007353 2.56515-.2279411.0735-.4558823.147-.6911764.21315-.5294118-1.6758-1.242647-3.4398-2.0955882-5.22585.8235294-1.764 1.5-3.4986 2.0147059-5.1597zm-11.5147059 1.46265c-2.0333442.0028339-3.6809885 1.6498192-3.6838236 3.68235-.0012195 2.0354005 1.6476102 3.6868604 3.6838236 3.6897.9791403.0005854 1.9183458-.3879617 2.6107026-1.0800416.6923569-.6920799 1.0810595-1.6309098 1.0804738-2.6096584-.0028407-2.0353989-1.6549615-3.6835691-3.6911764-3.68235zm52.875.09555c2.7941177 0 3.9705879 2.2491 4.0441179 4.06455h-7.9926474c.0955883-1.8669 1.3897059-4.06455 3.9485295-4.06455zm12.6470589 4.5423c1.3235295 0 2.647059.50715 3.382353 1.5141v2.30055c-.735294 1.0143-2.0588235 1.5141-3.382353 1.5141-1.7647057 0-3.014706-1.10985-3.014706-2.646 0-1.5729 1.2500003-2.68275 3.014706-2.68275zm-57.0294119 1.1025c.5441177 1.2495 1.0147059 2.4696 1.382353 3.6309-1.1985295.27195-2.4926471.49245-3.8455883.65415.4264706-.68355.8529412-1.38915 1.2647059-2.1021.4191176-.72765.8161765-1.4553 1.1985294-2.18295zm-16.9485294.0588c.3676471.71295.7573529 1.4259 1.1691176 2.13885.4191177.7203.8529412 1.4259 1.2941177 2.1168-1.3382353-.147-2.6176471-.3528-3.8014706-.61005.3602941-1.16865.8088235-2.38875 1.3382353-3.6456zm18.8161765 5.26995c.0882352.3381.1617647.6762.2279411.9996.4264706 2.1609.4558824 4.04985.1985294 5.44635-.2573529 1.40385-.8088234 2.2491-1.3529411 2.56515-.5294118.3087-1.4558824.36015-2.7132353-.08085-1.257353-.44835-2.7867647-1.35975-4.375-2.72685-.3455882-.294-.6911765-.61005-1.0367647-.94815 1.1838235-1.2936 2.3455882-2.7783 3.4632353-4.3953 1.9852941-.1764 3.867647-.46305 5.5882353-.85995zm-20.6323529.08085c1.7205882.3822 3.5955882.6468 5.5661764.80115 1.1470588 1.617 2.3455883 3.09435 3.5441177 4.3806-.2647059.25725-.5220589.4998-.7867647.72765-1.6544118 1.44795-3.2794118 2.41815-4.6176471 2.88855-1.3455882.47775-2.3529412.4263-2.8970589.11025-.5294117-.30135-1.0367646-1.08045-1.2867646-2.38875-.24264713-1.3083-.21323535-3.087.1764706-5.15235.0808823-.441.1838235-.8967.3014706-1.3671zm12.7647058.9261c-.8014706 1.0878-1.6102941 2.0874-2.4191176 2.9841-.8308824-.8967-1.6691177-1.8963-2.4852942-2.9694.7941177.0294 1.5955883.0441 2.4117648.0441.8382352 0 1.6691176-.02205 2.492647-.0588z"/></svg>