<svg height="23" viewBox="0 0 153 23" width="153" xmlns="http://www.w3.org/2000/svg"><g><path d="m50.46 17.6496c.432-.4104.9288-1.2096.864-2.4408-.1296-2.6568-2.7216-2.9592-4.4496-3.1752-2.16-.2376-2.5056-.4752-2.5272-1.1232 0-.8208 1.1232-1.2312 2.1384-1.188 1.9224.0648 3.6504.7128 3.6504.7128l.6912-2.1384c-.0864-.0216-2.0304-.6264-4.2768-.6912-2.3328-.0648-4.4712 1.0152-4.4064 3.348.0432 2.808 2.7216 3.1104 4.4712 3.3048 1.9872.2376 2.5272.4536 2.5704 1.0584.0216.4536 0 1.6632-2.808 1.4472-1.8576-.1512-3.5208-.9936-3.5424-1.0152l-.9288 1.944c.108.0432 2.1384 1.0368 4.5144 1.1016 1.2096.0432 2.9376-.0216 4.0392-1.1448zm8.073 1.1232c2.1168 0 4.212-.864 4.212-.864l-.5616-1.9224s-1.8576.7344-3.564.7344c-2.1816 0-3.2832-1.3824-3.2832-2.7h7.992l.0005078-1.2789406c.0047797-.3950969-.0392078-5.1362594-4.9037078-5.1362594-4.5087508 0-5.3738551 3.8949325-5.3994064 5.4786784l-.0005936.0725216c0 1.4472.5616 5.616 5.508 5.616zm2.6136-6.6744h-5.7888s.2592-2.3544 3.0672-2.3544c2.8728 0 2.7216 2.3544 2.7216 2.3544zm7.1226 6.5016v-6.7608c0-.756.972-1.7712 1.944-1.7712h3.7584v-2.268h-3.4344c-1.944 0-2.4408 1.7712-2.4408 2.0952l-.1296-2.0952h-2.1168v10.8zm14.2074 0 3.4344-10.8h-2.3112l-2.8512 8.7048-2.5488-8.7048h-2.4408l3.2832 10.8zm10.2114.1728c2.1168 0 4.212-.864 4.212-.864l-.5616-1.9224s-1.8576.7344-3.564.7344c-2.1816 0-3.2832-1.3824-3.2832-2.7h7.992l.0005078-1.2789406c.0047797-.3950969-.0392078-5.1362594-4.9037078-5.1362594-4.508751 0-5.373855 3.8949325-5.3994067 5.4786784l-.0005933.0725216c0 1.4472.5616 5.616 5.508 5.616zm2.6136-6.6744h-5.7888s.2592-2.3544 3.0672-2.3544c2.8728 0 2.7216 2.3544 2.7216 2.3544zm7.1226 6.5016v-6.7608c0-.756.972-1.7712 1.944-1.7712h3.7584v-2.268h-3.4344c-1.944 0-2.4408 1.7712-2.4408 2.0952l-.1296-2.0952h-2.1168v10.8zm15.9354 0v-2.268h-4.4496v-12.852h-5.7672v1.9872h3.456v13.1328zm6.9714.1728c2.1168 0 4.212-.864 4.212-.864l-.5616-1.9224s-1.8576.7344-3.564.7344c-2.1816 0-3.2832-1.3824-3.2832-2.7h7.992l.000508-1.2789406c.00478-.3950969-.039208-5.1362594-4.903708-5.1362594-4.508751 0-5.373855 3.8949325-5.399407 5.4786784l-.000593.0725216c0 1.4472.5616 5.616 5.508 5.616zm2.6136-6.6744h-5.7888s.2592-2.3544 3.0672-2.3544c2.8728 0 2.7216 2.3544 2.7216 2.3544zm12.3714 5.5512c.432-.4104.9288-1.2096.864-2.4408-.1296-2.6568-2.7216-2.9592-4.4496-3.1752-2.16-.2376-2.5056-.4752-2.5272-1.1232 0-.8208 1.1232-1.2312 2.1384-1.188 1.9224.0648 3.6504.7128 3.6504.7128l.6912-2.1384c-.0864-.0216-2.0304-.6264-4.2768-.6912-2.3328-.0648-4.4712 1.0152-4.4064 3.348.0432 2.808 2.7216 3.1104 4.4712 3.3048 1.9872.2376 2.5272.4536 2.5704 1.0584.0216.4536 0 1.6632-2.808 1.4472-1.8576-.1512-3.5208-.9936-3.5424-1.0152l-.9288 1.944c.108.0432 2.1384 1.0368 4.5144 1.1016 1.2096.0432 2.9376-.0216 4.0392-1.1448zm11.0916 0c.432-.4104.9288-1.2096.864-2.4408-.1296-2.6568-2.7216-2.9592-4.4496-3.1752-2.16-.2376-2.5056-.4752-2.5272-1.1232 0-.8208 1.1232-1.2312 2.1384-1.188 1.9224.0648 3.6504.7128 3.6504.7128l.6912-2.1384c-.0864-.0216-2.0304-.6264-4.2768-.6912-2.3328-.0648-4.4712 1.0152-4.4064 3.348.0432 2.808 2.7216 3.1104 4.4712 3.3048 1.9872.2376 2.5272.4536 2.5704 1.0584.0216.4536 0 1.6632-2.808 1.4472-1.8576-.1512-3.5208-.9936-3.5424-1.0152l-.9288 1.944c.108.0432 2.1384 1.0368 4.5144 1.1016 1.2096.0432 2.9376-.0216 4.0392-1.1448z"/><path d="m9.16478873 5.4 1.63521127-4.8h-10.8v4.8zm19.03521127 0v-4.8h-12.2456044l-1.5543956 4.8zm-21.83883495 8.4 1.43883495-4.8h-7.8v4.8zm21.83883495 0v-4.8h-15.3424657l-1.4575343 4.8zm-24.825 9 1.425-4.8h-4.8v4.8zm24.825 0v-4.8h-18.22978725l-1.57021275 4.8z"/></g></svg>