<svg height="23" viewBox="0 0 94 23" width="94" xmlns="http://www.w3.org/2000/svg"><g><path d="m30.6675 7.3275h-3.33375v-1.99125h8.92875v1.99125h-3.3375v9.94875h-2.25"/><path d="m38.32125 15.66375c.905625-.0045 1.80525-.143625 2.67-.4125l.34125 1.65c-1.029375.37125-2.11575.55875-3.21.5550552-2.74125 0-3.69375-1.2713052-3.69375-3.3750552v-2.30625c0-1.845.825-3.405 3.6225-3.405s3.42375 1.63125 3.42375 3.51375v1.875h-4.875v.45c.01875 1.0425.39375 1.455 1.72125 1.455zm-1.7025-3.66375h2.77875v-.4425c0-.825-.25125-1.39875-1.3275-1.39875s-1.45125.57375-1.45125 1.39875zm10.7025-1.62375c-.8055.36375-1.581375.78825-2.32125 1.27125v5.625h-2.18625v-8.72625h1.845l.1425.9675c.711375-.4815 1.483125-.867375 2.295-1.1475zm5.34 0c-.8025.36375-1.5765.788625-2.31375 1.27125v5.625h-2.18625v-8.72625h1.845l.1425.9675c.711375-.4815 1.483125-.867375 2.295-1.1475zm7.31625 6.9h-1.7925l-.16125-.5925c-.77325.50325-1.67625.77175-2.59875.7725-1.59375 0-2.27625-1.095-2.27625-2.59875 0-1.77375.7725-2.45625 2.54625-2.45625h2.09625v-.915c0-.9675-.27-1.30875-1.66875-1.30875-.81375.009-1.62375.09975-2.41875.27l-.27-1.66875c.97725-.27 1.986-.40875 3-.4125 2.74125 0 3.55125.9675 3.55125 3.15375zm-2.18625-3.3h-1.6125c-.71625 0-.915.19875-.915.85875s.19875.8775.8775.8775c.579-.009 1.14675-.1635 1.65-.45zm8.90625-7.42125c-.4125-.088875-.834-.1365-1.25625-.1425-.85875 0-.98625.375-.98625 1.03875v1.095h2.22375l-.12375 1.74h-2.09625v6.99h-2.18625v-6.99h-1.39875v-1.74h1.39875v-1.21875c0-1.81125.84375-2.70754365 2.77875-2.70754365.63375-.00220635 1.2645.08254365 1.875.25129365zm4.2675 10.90125c-3 0-3.79875-1.65-3.79875-3.4425v-2.205c0-1.7925.80625-3.4425 3.79875-3.4425s3.7987629 1.65 3.7987629 3.4425v2.205c.0037371 1.7925-.8062629 3.4425-3.7987629 3.4425zm0-7.22625c-1.16625 0-1.6125.52125-1.6125 1.5v2.3475c0 .98625.45 1.5 1.6125 1.5s1.6125-.52125 1.6125-1.5v-2.34c0-.98625-.44625-1.5075-1.6125-1.5075zm9.4275.14625c-.8025.36375-1.5765.788625-2.31375 1.27125v5.625h-2.18625v-8.72625h1.845l.1425.9675c.711375-.4815 1.48275-.867375 2.295-1.1475zm6.0075 6.9v-6.09375c0-.465-.19875-.6975-.6975-.6975-.801375.09525-1.575.35025-2.27625.75v6.04125h-2.18625v-8.73h1.66875l.21375.75c1.08975-.55125 2.283-.868125 3.5025-.93.691125-.06525 1.35.3075 1.65.93375 1.09125-.55875 2.289-.8775 3.51375-.93375 1.45125 0 1.9725 1.02 1.9725 2.58v6.33h-2.18625v-6.09375c0-.465-.19875-.6975-.6975-.6975-.8025.0885-1.578.343875-2.27625.75v6.04125z"/><path d="m13.65 14.67375 6.15-3.5475v-7.10625l-6.15 3.555"/><path d="m6.825 4.02 6.15 3.555v7.09875l-6.15-3.55125"/><path d="m0 7.15875 6.15 3.55125v-7.1025l-6.15-3.55125m6.825 18.94875 6.15 3.55125v-7.1025l-6.15-3.55125"/></g></svg>