<svg height="28" viewBox="0 0 113 28" width="113" xmlns="http://www.w3.org/2000/svg"><g><path d="m36.801 8.793h-4.0005v-2.3895h10.7145v2.3895h-4.005v11.9385h-2.7"/><path d="m45.9855 18.7965c1.08675-.0054 2.1663-.17235 3.204-.495l.4095 1.98c-1.23525.4455-2.5389.6705-3.852.6660662-3.2895 0-4.4325-1.5255662-4.4325-4.0500662v-2.7675c0-2.214.99-4.086 4.347-4.086s4.1085 1.9575 4.1085 4.2165v2.25h-5.85v.54c.0225 1.251.4725 1.746 2.0655 1.746zm-2.043-4.3965h3.3345v-.531c0-.99-.3015-1.6785-1.593-1.6785s-1.7415.6885-1.7415 1.6785zm12.843-1.9485c-.9666.4365-1.89765.9459-2.7855 1.5255v6.75h-2.6235v-10.4715h2.214l.171 1.161c.85365-.5778 1.77975-1.04085 2.754-1.377zm6.408 0c-.963.4365-1.8918.94635-2.7765 1.5255v6.75h-2.6235v-10.4715h2.214l.171 1.161c.85365-.5778 1.77975-1.04085 2.754-1.377zm8.7795 8.28h-2.151l-.1935-.711c-.9279.6039-2.0115.9261-3.1185.927-1.9125 0-2.7315-1.314-2.7315-3.1185 0-2.1285.927-2.9475 3.0555-2.9475h2.5155v-1.098c0-1.161-.324-1.5705-2.0025-1.5705-.9765.0108-1.9485.1197-2.9025.324l-.324-2.0025c1.1727-.324 2.3832-.4905 3.6-.495 3.2895 0 4.2615 1.161 4.2615 3.7845zm-2.6235-3.96h-1.935c-.8595 0-1.098.2385-1.098 1.0305s.2385 1.053 1.053 1.053c.6948-.0108 1.3761-.1962 1.98-.54zm10.6875-8.9055c-.495-.10665-1.0008-.1638-1.5075-.171-1.0305 0-1.1835.45-1.1835 1.2465v1.314h2.6685l-.1485 2.088h-2.5155v8.388h-2.6235v-8.388h-1.6785v-2.088h1.6785v-1.4625c0-2.1735 1.0125-3.24905238 3.3345-3.24905238.7605-.00264762 1.5174.09905238 2.25.30155238zm5.121 13.0815c-3.6 0-4.5585-1.98-4.5585-4.131v-2.646c0-2.151.9675-4.131 4.5585-4.131s4.5585155 1.98 4.5585155 4.131v2.646c.0044845 2.151-.9675155 4.131-4.5585155 4.131zm0-8.6715c-1.3995 0-1.935.6255-1.935 1.8v2.817c0 1.1835.54 1.8 1.935 1.8s1.935-.6255 1.935-1.8v-2.808c0-1.1835-.5355-1.809-1.935-1.809zm11.313.1755c-.963.4365-1.8918.94635-2.7765 1.5255v6.75h-2.6235v-10.4715h2.214l.171 1.161c.85365-.5778 1.7793-1.04085 2.754-1.377zm7.209 8.28v-7.3125c0-.558-.2385-.837-.837-.837-.96165.1143-1.89.4203-2.7315.9v7.2495h-2.6235v-10.476h2.0025l.2565.9c1.3077-.6615 2.7396-1.04175 4.203-1.116.82935-.0783 1.62.369 1.98 1.1205 1.3095-.6705 2.7468-1.053 4.2165-1.1205 1.7415 0 2.367 1.224 2.367 3.096v7.596h-2.6235v-7.3125c0-.558-.2385-.837-.837-.837-.963.1062-1.8936.41265-2.7315.9v7.2495z"/><path d="m16.38 17.6085 7.38-4.257v-8.5275l-7.38 4.266"/><path d="m8.19 4.824 7.38 4.266v8.5185l-7.38-4.2615"/><path d="m0 8.5905 7.38 4.2615v-8.523l-7.38-4.2615m8.19 22.7385 7.38 4.2615v-8.523l-7.38-4.2615"/></g></svg>