<svg height="94" viewBox="0 0 139 94" width="139" xmlns="http://www.w3.org/2000/svg"><g fill="none" transform="translate(8 29)"><path d="m15.4952412 0 15.4952412 8.74600457v17.49600453l-15.4952412 8.7460046-15.4952412-8.7460046v-17.49600453z" fill="#fff"/><g fill="#000"><path d="m28.2237611 25.6386986-12.2160158 6.8961188v-5.3698631l7.6114867-4.1792237zm.8368231-.755137v-14.4195205l-4.4683952 2.5770548v9.2694064zm-26.34191009.755137 12.21601579 6.8961188v-5.3698631l-7.61549069-4.1792237zm-.83682311-.755137v-14.4195205l4.46839514 2.5770548v9.2694064zm.52451592-15.35445201 12.52832298-7.07191781v5.19006849l-8.02789633 4.40696343-.06406302.0359589zm26.12970138 0-12.528323-7.07191781v5.19006849l8.0278963 4.40296803.064063.0359589z"/><path d="m14.9346899 25.9423516-7.51138829-4.1232877v-8.1626712l7.51138829 4.3270548zm1.0730554 0 7.5113883-4.1192922v-8.1666667l-7.5113883 4.3270548zm-8.07594353-13.2288813 7.53941583-4.13527395 7.5394158 4.13527395-7.5394158 4.3430365z"/><path d="m46.6178536 23.0256849h3.3032491l3.3673121-11.1952054h-3.2191664l-1.9939612 7.9429223-2.1260913-7.9429223h-2.786741l-2.146111 7.9429223-1.9739415-7.9429223h-3.2191664l3.3472924 11.1952054h3.3032491l2.0820479-7.1718036zm6.8427306-5.5656392c0 3.3601598 2.2942566 5.8453196 5.901805 5.8453196 2.790745 0 4.2922219-1.6700913 4.7206433-2.4611872l-1.9539219-1.4783105c-.3203151.4714612-1.2011815 1.3704338-2.726682 1.3704338-1.6536265 0-2.854808-1.0707763-2.918871-2.569064h7.8997703c.0200197-.2157534.0200197-.4275114.0200197-.6432648 0-3.6598173-1.9739416-5.9731735-5.4493601-5.9731735-3.1991467 0-5.4934033 2.5251141-5.4934033 5.9092466zm3.11106-1.2226028c.1281261-1.2825342 1.0290122-2.2694064 2.4263867-2.2694064 1.3533311 0 2.3382999.8989726 2.4023629 2.2694064zm8.9488021 6.788242h2.790745v-1.1546803c.3002954.3635844 1.4173942 1.4343607 3.3272728 1.4343607 3.2191664 0 5.4934033-2.4172374 5.4934033-5.8652968 0-3.4680365-2.1020676-5.885274-5.321234-5.885274-1.9298983 0-3.046997 1.0707763-3.3272727 1.4543379v-5.46175797h-2.9589104v15.47831047zm2.8748277-5.5656392c0-2.0976028 1.2452249-3.2962329 2.8748277-3.2962329 1.7176896 0 2.8748277 1.3504566 2.8748277 3.2962329 0 1.989726-1.2011815 3.2323059-2.8748277 3.2323059-1.8017722 0-2.8748277-1.4583333-2.8748277-3.2323059zm9.8897276 9.5690639h2.9589104v-5.1621005c.2802757.3635845 1.3933706 1.4343608 3.3272728 1.4343608 3.2191664 0 5.321234-2.4172375 5.321234-5.885274 0-3.4240868-2.274237-5.8652968-5.4934034-5.8652968-1.9098785 0-3.0269773 1.0707762-3.3272727 1.4543379v-1.178653h-2.790745v15.2026256zm2.8748277-9.6329909c0-1.777968 1.0730555-3.2323059 2.8748277-3.2323059 1.6736462 0 2.8748277 1.2425799 2.8748277 3.2323059 0 1.9497717-1.1571381 3.2962329-2.8748277 3.2962329-1.6296028 0-2.8748277-1.1986301-2.8748277-3.2962329zm9.2691172 2.1615297c0 2.3533105 1.9298983 3.7477169 4.2041352 3.7477169 1.2892682 0 2.1461109-.3835616 2.726682-1.0068493l.192189.7271689h2.6185753v-7.0878995c0-2.505137-1.0730551-4.3869863-4.6765995-4.3869863-1.7176896 0-3.4113555.6432648-4.4203479 1.326484l1.1170988 2.0136986c.8368231-.4275114 1.8658352-.7910959 2.982934-.7910959 1.3092878 0 2.0380046.6632421 2.0380046 1.6501142v.7271689c-.4084017-.2796803-1.2892681-.6192922-2.4263866-.6192922-2.6185757-.0039954-4.3562849 1.4942922-4.3562849 3.6997717zm2.9589104-.0878995c0-.9189498.7927798-1.5622147 1.9298983-1.5622147 1.1371184 0 1.9539219.5793379 1.9539219 1.5622147 0 .9429223-.8168035 1.5422374-1.9298983 1.5422374s-1.9539219-.6192922-1.9539219-1.5422374zm13.9697411 1.2226027c-1.865836 0-3.195143-1.3504566-3.195143-3.2522831 0-1.7979452 1.181162-3.2762557 3.09104-3.2762557 1.265245 0 2.126091.6192922 2.618576 1.0707762l.836823-2.4851598c-.728717-.5553653-1.889859-1.1986301-3.539481-1.1986301-3.411356 0-5.965869 2.505137-5.965869 5.9092466s2.49045 5.8453196 5.985888 5.8453196c1.629603 0 2.854808-.6832192 3.495438-1.1986301l-.792779-2.4172375c-.496489.4035388-1.397375 1.0028539-2.534493 1.0028539zm4.440367 2.3333333h2.958911v-5.7813927l3.755694 5.7813927h3.475418l-4.248178-6.125 3.947883-5.0742009h-3.327273l-3.603544 4.7106165v-8.98972607h-2.958911z"/></g></g></svg>