<?xml version="1.0" encoding="UTF-8"?>
<svg width="15px" height="12px" viewBox="0 0 15 12" version="1.1" xmlns="http://www.w3.org/2000/svg" xmlns:xlink="http://www.w3.org/1999/xlink">
    <!-- Generator: Sketch 62 (91390) - https://sketch.com -->
    <title>Group Copy 8</title>
    <desc>Created with Sketch.</desc>
    <g id="UI-Design-(Teal)" stroke="none" stroke-width="1" fill="none" fill-rule="evenodd">
        <g id="Homepage-Teal" transform="translate(-441.000000, -1346.000000)" fill="#1AC0C6" fill-rule="nonzero">
            <g id="text-button" transform="translate(250.000000, 1339.000000)">
                <g id="Group-Copy-8" transform="translate(191.000000, 7.000000)">
                    <path d="M9.2315161,0.294270833 L14.8662463,5.69010417 C15.0445846,5.86145833 15.0445846,6.13854167 14.8662463,6.30989583 L9.2315161,11.7057292 C9.05317784,11.8770833 8.76480107,11.8770833 8.58646281,11.7057292 L8.3170582,11.446875 C8.13871994,11.2755208 8.13871994,10.9984375 8.3170582,10.8270833 L12.7185983,6.61979167 L0.883767647,6.61979167 C0.633335193,6.61979167 0.428435913,6.42291667 0.428435913,6.18229167 L0.428435913,5.81770833 C0.428435913,5.57708333 0.633335193,5.38020833 0.883767647,5.38020833 L12.7185983,5.38020833 L8.32085263,1.17291667 C8.14251437,1.0015625 8.14251437,0.724479167 8.32085263,0.553125 L8.59025724,0.294270833 C8.76480107,0.122916667 9.05317784,0.122916667 9.2315161,0.294270833 Z" id="Shape"></path>
                </g>
            </g>
        </g>
    </g>
</svg>