<?xml version="1.0" encoding="UTF-8"?>
<svg width="14px" height="19px" viewBox="0 0 14 19" version="1.1" xmlns="http://www.w3.org/2000/svg" xmlns:xlink="http://www.w3.org/1999/xlink">
    <!-- Generator: Sketch 62 (91390) - https://sketch.com -->
    <title>Group</title>
    <desc>Created with Sketch.</desc>
    <g id="Symbols" stroke="none" stroke-width="1" fill="none" fill-rule="evenodd">
        <g id="Icon-/-Branch" transform="translate(-3.000000, 0.000000)" fill="#FFFFFF" fill-rule="nonzero">
            <g id="Group" transform="translate(3.000000, 0.000000)">
                <path d="M13.824,5.184 C13.824,3.5928 12.5352,2.304 10.944,2.304 C9.3528,2.304 8.064,3.5928 8.064,5.184 C8.064,6.5952 9.0792,7.7688 10.422,8.0172 C10.3932,8.6364 10.242,9.1116 9.9648,9.4572 C9.3348,10.242 8.0532,10.3644 6.6996,10.4904 C5.6844,10.584 4.6332,10.6848 3.8052,11.0988 C3.6828,11.16 3.564,11.2284 3.456,11.304 L3.456,5.7024 C4.77,5.436 5.76,4.2732 5.76,2.88 C5.76,1.2888 4.4712,0 2.88,0 C1.2888,0 0,1.2888 0,2.88 C0,4.2732 0.99,5.436 2.304,5.7024 L2.304,12.7296 C0.99,12.996 0,14.1588 0,15.552 C0,17.1432 1.2888,18.432 2.88,18.432 C4.4712,18.432 5.76,17.1432 5.76,15.552 C5.76,14.2236 4.8636,13.1076 3.6396,12.7728 C3.8196,12.4272 4.0824,12.2472 4.3236,12.1248 C4.9536,11.808 5.8536,11.7216 6.804,11.6316 C8.3376,11.4876 9.9252,11.34 10.8612,10.1736 C11.3076,9.6156 11.5452,8.8956 11.574,7.9884 C12.8628,7.704 13.824,6.5556 13.824,5.184 Z M1.152,2.88 C1.152,1.926 1.926,1.152 2.88,1.152 C3.834,1.152 4.608,1.926 4.608,2.88 C4.608,3.834 3.834,4.608 2.88,4.608 C1.926,4.608 1.152,3.834 1.152,2.88 Z M4.608,15.552 C4.608,16.506 3.834,17.28 2.88,17.28 C1.926,17.28 1.152,16.506 1.152,15.552 C1.152,14.6016 1.9224,13.8276 2.8728,13.824 L2.8944,13.824 C3.8412,13.8312 4.608,14.6052 4.608,15.552 Z M11.3688,6.858 L10.944,6.912 C9.99,6.912 9.216,6.138 9.216,5.184 C9.216,4.23 9.99,3.456 10.944,3.456 C11.898,3.456 12.672,4.23 12.672,5.184 C12.672,5.9904 12.1176,6.6672 11.3688,6.858 Z" id="Shape"></path>
            </g>
        </g>
    </g>
</svg>