<?xml version="1.0" encoding="UTF-8"?>
<svg width="23px" height="17px" viewBox="0 0 23 17" version="1.1" xmlns="http://www.w3.org/2000/svg" xmlns:xlink="http://www.w3.org/1999/xlink">
    <!-- Generator: Sketch 62 (91390) - https://sketch.com -->
    <title>Group</title>
    <desc>Created with Sketch.</desc>
    <g id="Symbols" stroke="none" stroke-width="1" fill="none" fill-rule="evenodd">
        <g id="Navigation-/-Navbar" transform="translate(-1233.000000, -12.000000)" fill="#FFFFFF" fill-rule="nonzero">
            <g id="Group-8" transform="translate(1233.000000, 6.000000)">
                <g id="Group" transform="translate(0.000000, 6.000000)">
                    <path d="M20.0448,-9.43245482e-14 L2.0736,-9.43245482e-14 C0.9288,-9.43245482e-14 4.18864943e-13,0.9288 4.18864943e-13,2.0736 L4.18864943e-13,14.5152 C4.18864943e-13,15.66 0.9288,16.5888 2.0736,16.5888 L20.0448,16.5888 C21.1896,16.5888 22.1184,15.66 22.1184,14.5152 L22.1184,2.0736 C22.1184,0.9288 21.1896,-9.43245482e-14 20.0448,-9.43245482e-14 Z M2.0736,1.3824 L20.0448,1.3824 C20.42496,1.3824 20.736,1.69344 20.736,2.0736 L20.736,3.86208 C19.78992,4.66128 18.43776,5.76288 14.23008,9.10224 C13.5,9.68112 12.06144,11.07648 11.0592,11.0592 C10.05696,11.07648 8.61408,9.68112 7.88832,9.10224 C3.68064,5.76288 2.32848,4.66128 1.3824,3.86208 L1.3824,2.0736 C1.3824,1.69344 1.69344,1.3824 2.0736,1.3824 Z M20.0448,15.2064 L2.0736,15.2064 C1.69344,15.2064 1.3824,14.89536 1.3824,14.5152 L1.3824,5.6592 C2.36736,6.46704 3.92256,7.71552 7.02864,10.18224 C7.91424,10.89072 9.47808,12.45024 11.0592,12.4416 C12.63168,12.45456 14.18256,10.908 15.08976,10.18224 C18.19584,7.71552 19.75104,6.46704 20.736,5.6592 L20.736,14.5152 C20.736,14.89536 20.42496,15.2064 20.0448,15.2064 Z" id="Shape"></path>
                </g>
            </g>
        </g>
    </g>
</svg>