<svg width="46" height="46" viewBox="0 0 46 46" fill="none" xmlns="http://www.w3.org/2000/svg">
<path opacity="0.1" d="M23 46C10.2975 46 0 35.7025 0 23C0 10.2975 10.2975 0 23 0C35.7025 0 46 10.2975 46 23C46 35.7025 35.7025 46 23 46Z" fill="#1EB8C8"/>
<path opacity="0.2" d="M23.0631 40.321C13.5318 40.321 5.80521 32.5944 5.80521 23.0631C5.80521 13.5319 13.5318 5.80524 23.0631 5.80524C32.5944 5.80524 40.321 13.5319 40.321 23.0631C40.321 32.5944 32.5944 40.321 23.0631 40.321Z" fill="#1EB8C8"/>
<path d="M23 34.5158C16.64 34.5158 11.4842 29.36 11.4842 23C11.4842 16.64 16.64 11.4843 23 11.4843C29.36 11.4843 34.5157 16.64 34.5157 23C34.5157 29.36 29.36 34.5158 23 34.5158Z" fill="#1EB8C8"/>
</svg>
