<svg width="340" height="302" viewBox="0 0 340 302" fill="none" xmlns="http://www.w3.org/2000/svg">
<g opacity="0.1" clip-path="url(#clip0_257_8129)">
<path d="M169.672 181.205C186.376 181.205 199.917 167.664 199.917 150.959C199.917 134.255 186.376 120.713 169.672 120.713C152.967 120.713 139.426 134.255 139.426 150.959C139.426 167.664 152.967 181.205 169.672 181.205Z" fill="white"/>
<path d="M169.673 212.926C259.306 212.926 331.967 185.182 331.967 150.959C331.967 116.735 259.306 88.9917 169.673 88.9917C80.0397 88.9917 7.37793 116.735 7.37793 150.959C7.37793 185.182 80.0397 212.926 169.673 212.926Z" stroke="white" stroke-width="14.7541"/>
<path d="M116.008 181.943C160.825 259.568 221.182 308.623 250.821 291.511C280.459 274.399 268.155 197.601 223.338 119.976C178.522 42.3518 118.164 -6.70339 88.5259 10.4083C58.8875 27.5201 71.1917 104.319 116.008 181.943Z" stroke="white" stroke-width="14.7541"/>
<path d="M116.007 119.977C71.1909 197.601 58.8867 274.4 88.5251 291.512C118.163 308.623 178.521 259.568 223.338 181.944C268.154 104.319 280.458 27.5205 250.82 10.4088C221.181 -6.70294 160.824 42.3522 116.007 119.977Z" stroke="white" stroke-width="14.7541"/>
</g>
<defs>
<clipPath id="clip0_257_8129">
<rect width="339.344" height="301.919" fill="white"/>
</clipPath>
</defs>
</svg>
