<?xml version="1.0" encoding="UTF-8"?>
<svg width="117px" height="107px" viewBox="0 0 117 107" version="1.1" xmlns="http://www.w3.org/2000/svg" xmlns:xlink="http://www.w3.org/1999/xlink">
    <!-- Generator: Sketch 62 (91390) - https://sketch.com -->
    <title>research-blob-icon</title>
    <desc>Created with Sketch.</desc>
    <g id="UI-Design-(Teal)" stroke="none" stroke-width="1" fill="none" fill-rule="evenodd">
        <g id="Homepage-Teal" transform="translate(-276.000000, -2682.000000)">
            <g id="Our-process" transform="translate(215.000000, 2524.000000)">
                <g id="process-item" transform="translate(0.000000, 158.000000)">
                    <g id="research-blob-icon">
                        <g transform="translate(61.000000, 0.000000)">
                            <path d="M90.9737222,10.1454616 C103.203425,15.5763532 115.783317,24.0184321 116.9147,34.5307024 C118.046082,45.0160871 107.702016,57.5447775 99.0011482,66.3901405 C90.2733428,75.2086178 83.1617976,80.3437678 76.0771901,87.8986218 C68.9925826,95.4534759 61.9349128,105.45492 53.8536114,106.826085 C45.7723101,108.224137 36.6943149,100.965024 30.1215232,93.2488566 C23.5487314,85.5058033 19.4811431,77.3056948 14.4437986,67.976391 C9.40645407,58.6470872 3.45322876,48.1617025 3.02222602,36.4395801 C2.61816095,24.6905722 7.73631846,11.6779409 17.3261294,5.35982453 C26.8890026,-0.931406274 40.8696539,-0.55500785 53.8266738,0.869929042 C66.7836936,2.29486593 78.7170819,4.71457009 90.9737222,10.1454616 Z" id="Path" fill="#2C2733" fill-rule="nonzero"></path>
                            <g id="Icon-/-Research-Green" transform="translate(29.000000, 25.000000)" fill="#FFFFFF" fill-rule="nonzero">
                                <g id="research-icon">
                                    <path d="M20.3203125,19.603125 C15.4433288,19.603125 11.475,23.5714538 11.475,28.4484375 C11.475,33.3254212 15.4433288,37.29375 20.3203125,37.29375 C25.1972962,37.29375 29.165625,33.3254212 29.165625,28.4484375 C29.165625,23.5714538 25.1972962,19.603125 20.3203125,19.603125 Z M20.3203125,35.6855114 C16.3302724,35.6855114 13.0832386,32.4392817 13.0832386,28.4484375 C13.0832386,24.4575933 16.3302724,21.2113636 20.3203125,21.2113636 C24.3103526,21.2113636 27.5573864,24.4575933 27.5573864,28.4484375 C27.5573864,32.4392817 24.3103526,35.6855114 20.3203125,35.6855114 Z" id="Shape"></path>
                                    <path d="M37.389375,30.886875 L37.389375,34.8436462 L43.3253447,30.886875 L44.7046875,30.886875 C46.9456116,30.886875 48.76875,29.0637366 48.76875,26.8228125 L48.76875,17.0690625 C48.76875,14.8281384 46.9456116,13.005 44.7046875,13.005 L40.3561406,13.005 C39.6847575,11.1135853 37.8827522,9.75375 35.76375,9.75375 C33.6447478,9.75375 31.8427425,11.1135853 31.1713594,13.005 L26.8228125,13.005 C26.5448306,13.005 26.2725384,13.0334484 26.01,13.0870941 L26.01,7.3153125 C26.01,5.07438844 24.1868616,3.25125 21.9459375,3.25125 L17.5973906,3.25125 C16.9260075,1.35983531 15.1240022,0 13.005,0 C10.8859978,0 9.0839925,1.35983531 8.41260937,3.25125 L4.0640625,3.25125 C1.82313844,3.25125 0,5.07438844 0,7.3153125 L0,17.0690625 C0,19.3099866 1.82313844,21.133125 4.0640625,21.133125 L10.5893212,21.133125 C9.05148,23.1732844 8.128125,25.7019441 8.128125,28.4484375 C8.128125,30.8933775 8.85803062,33.1676269 10.1024466,35.0785491 L8.9409375,36.2400581 L8.128125,35.4272456 L1.08022781,42.4759556 C0.3836475,43.1717231 0,44.0983294 0,45.0826453 C0,47.1154894 1.65407344,48.76875 3.6869175,48.76875 C4.67204625,48.76875 5.59783969,48.3851025 6.29360719,47.689335 L13.3415044,40.640625 L12.5286919,39.8278125 L13.6902009,38.6663034 C15.6011231,39.9107194 17.8753725,40.640625 20.3203125,40.640625 C26.2083262,40.640625 31.13397,36.4456997 32.2670306,30.886875 L37.389375,30.886875 Z M40.640625,14.630625 L44.7046875,14.630625 C46.0490794,14.630625 47.143125,15.7246706 47.143125,17.0690625 L47.143125,26.8228125 C47.143125,28.1672044 46.0490794,29.26125 44.7046875,29.26125 L42.8327803,29.26125 L39.015,31.8069787 L39.015,29.26125 L32.4710466,29.26125 C32.4889284,28.9913963 32.5125,28.7231681 32.5125,28.4484375 C32.5125,28.1737069 32.4889284,27.9054788 32.4710466,27.635625 L43.891875,27.635625 L43.891875,26.01 C43.891875,22.5904978 41.7655575,19.6627472 38.767905,18.4646616 C39.9058425,17.5705678 40.640625,16.1863481 40.640625,14.630625 Z M38.1404138,26.01 L37.6437853,19.7871075 C40.3146872,20.5958559 42.26625,23.0781853 42.26625,26.01 L38.1404138,26.01 Z M35.9905247,19.5188794 L36.5090991,26.01 L35.0184009,26.01 L35.5361625,19.5213178 C35.6125669,19.5188794 35.6873456,19.5075 35.76375,19.5075 C35.8401544,19.5075 35.9149331,19.5164409 35.9905247,19.5188794 Z M33.3870862,26.01 L32.2662178,26.01 C31.9719797,24.5648194 31.4103263,23.2188019 30.652785,22.0077112 C31.4859178,20.9445525 32.6141016,20.1805087 33.8829019,19.7968612 L33.3870862,26.01 Z M35.76375,11.379375 C37.5568144,11.379375 39.015,12.8375606 39.015,14.630625 C39.015,16.4236894 37.5568144,17.881875 35.76375,17.881875 C33.9706856,17.881875 32.5125,16.4236894 32.5125,14.630625 C32.5125,12.8375606 33.9706856,11.379375 35.76375,11.379375 Z M30.886875,14.630625 C30.886875,16.1855353 31.6208447,17.5689422 32.7571566,18.4630359 C31.5802041,18.9320287 30.5194838,19.6700625 29.6684691,20.6356837 C28.2834366,18.9816103 26.465175,17.7087459 24.3941288,16.971525 C24.4469616,15.6726506 25.5117459,14.630625 26.8228125,14.630625 L30.886875,14.630625 Z M17.881875,4.876875 L21.9459375,4.876875 C23.2903294,4.876875 24.384375,5.97092062 24.384375,7.3153125 L24.384375,13.8389456 C23.5439269,14.4753778 22.9660172,15.4231172 22.8148341,16.5155372 C22.2678112,16.4009306 21.7045322,16.3359056 21.133125,16.2985162 L21.133125,16.25625 C21.133125,12.8367478 19.0068075,9.90899719 16.009155,8.71091156 C17.1470925,7.81681781 17.881875,6.43259813 17.881875,4.876875 L17.881875,4.876875 Z M6.5025,16.25625 C6.5025,13.3244353 8.45406281,10.8421059 11.1257775,10.0333575 L10.6283362,16.25625 L6.5025,16.25625 Z M12.7782253,9.76512937 C12.8538169,9.76269094 12.9285956,9.75375 13.005,9.75375 C13.0814044,9.75375 13.1561831,9.76269094 13.2317747,9.76512937 L13.7503491,16.25625 L12.2596509,16.25625 L12.7782253,9.76512937 Z M14.8842225,10.0333575 C17.5559372,10.8421059 19.5075,13.3244353 19.5075,16.25625 L15.3816637,16.25625 L14.8842225,10.0333575 Z M13.005,1.625625 C14.7980644,1.625625 16.25625,3.08381062 16.25625,4.876875 C16.25625,6.66993937 14.7980644,8.128125 13.005,8.128125 C11.2119356,8.128125 9.75375,6.66993937 9.75375,4.876875 C9.75375,3.08381062 11.2119356,1.625625 13.005,1.625625 Z M1.625625,17.0690625 L1.625625,7.3153125 C1.625625,5.97092062 2.71967062,4.876875 4.0640625,4.876875 L8.128125,4.876875 C8.128125,6.43259812 8.8629075,7.81681781 10.000845,8.71091156 C7.0031925,9.90899719 4.876875,12.8367478 4.876875,16.25625 L4.876875,17.881875 L14.2640466,17.881875 C13.4674903,18.3403012 12.7302694,18.8873241 12.0596991,19.5075 L4.0640625,19.5075 C2.71967062,19.5075 1.625625,18.4134544 1.625625,17.0690625 Z M5.14429031,46.5400181 C4.75495312,46.9285425 4.23719156,47.143125 3.6869175,47.143125 C2.55060562,47.143125 1.625625,46.2181444 1.625625,45.0826453 C1.625625,44.5323712 1.8402075,44.0154225 2.22954469,43.6252725 L8.128125,37.7258794 L11.0428706,40.640625 L5.14429031,46.5400181 Z M11.379375,38.6784956 L10.0902544,37.389375 L11.0892009,36.3904284 C11.4866662,36.8512931 11.9174569,37.2820837 12.3783216,37.6795491 L11.379375,38.6784956 Z M20.3203125,39.015 C14.4940725,39.015 9.75375,34.2746775 9.75375,28.4484375 C9.75375,22.6221975 14.4940725,17.881875 20.3203125,17.881875 C26.1465525,17.881875 30.886875,22.6221975 30.886875,28.4484375 C30.886875,34.2746775 26.1465525,39.015 20.3203125,39.015 Z" id="Shape"></path>
                                    <path d="M48.2308594,35.859375 L33.5285156,35.859375 C32.1775336,35.859375 31.078125,36.9677219 31.078125,38.3296875 L31.078125,48.2109375 C31.078125,49.5729031 32.1775336,50.68125 33.5285156,50.68125 L48.2308594,50.68125 C49.5818414,50.68125 50.68125,49.5729031 50.68125,48.2109375 L50.68125,38.3296875 C50.68125,36.9677219 49.5818414,35.859375 48.2308594,35.859375 Z M49.0476563,48.2109375 C49.0476563,48.665475 48.6809145,49.034375 48.2308594,49.034375 L33.5285156,49.034375 C33.0784605,49.034375 32.7117188,48.665475 32.7117188,48.2109375 L32.7117188,38.3296875 C32.7117188,37.87515 33.0784605,37.50625 33.5285156,37.50625 L48.2308594,37.50625 C48.6809145,37.50625 49.0476563,37.87515 49.0476563,38.3296875 L49.0476563,48.2109375 Z" id="Shape"></path>
                                    <polygon id="Path" points="45.6609375 40.831875 43.9875 40.831875 43.9875 45.70875 42.3140625 45.70875 42.3140625 42.4575 40.640625 42.4575 40.640625 45.70875 38.9671875 45.70875 38.9671875 44.083125 37.29375 44.083125 37.29375 45.70875 35.6203125 45.70875 35.6203125 39.20625 33.946875 39.20625 33.946875 47.334375 47.334375 47.334375 47.334375 45.70875 45.6609375 45.70875"></polygon>
                                    <polygon id="Path" points="43.9875 16.25625 45.9 16.25625 45.9 18.16875 43.9875 18.16875"></polygon>
                                    <polygon id="Path" points="43.9875 19.603125 45.9 19.603125 45.9 21.515625 43.9875 21.515625"></polygon>
                                    <polygon id="Path" points="3.346875 6.215625 5.259375 6.215625 5.259375 8.128125 3.346875 8.128125"></polygon>
                                    <polygon id="Path" points="3.346875 9.5625 5.259375 9.5625 5.259375 11.475 3.346875 11.475"></polygon>
                                </g>
                            </g>
                            <g id="label" transform="translate(0.000000, 7.000000)">
                                <circle id="Oval" fill="#1AC0C6" cx="14" cy="14" r="14"></circle>
                                <polygon id="1" fill="#FFFFFF" fill-rule="nonzero" points="15.916 20 15.916 8.8 14.604 8.8 11.164 10.752 11.868 12.032 14.316 10.624 14.316 20"></polygon>
                            </g>
                        </g>
                    </g>
                </g>
            </g>
        </g>
    </g>
</svg>