<?xml version="1.0" encoding="UTF-8"?>
<svg width="20px" height="19px" viewBox="0 0 20 19" version="1.1" xmlns="http://www.w3.org/2000/svg" xmlns:xlink="http://www.w3.org/1999/xlink">
    <!-- Generator: Sketch 62 (91390) - https://sketch.com -->
    <title>Icon / Star thin</title>
    <desc>Created with Sketch.</desc>
    <g id="Symbols" stroke="none" stroke-width="1" fill="none" fill-rule="evenodd">
        <g id="Misc-/-Git-meta" transform="translate(-3.000000, -3.000000)" fill="#FFFFFF" fill-rule="nonzero">
            <g id="Icon-/-Star-thin" transform="translate(3.000000, 3.000000)">
                <path d="M18.975685,6.36394125 L13.5140125,5.57360931 L11.0728953,0.660935597 C10.6355129,-0.21473736 9.36822542,-0.225868796 8.92710471,0.660935597 L6.48598755,5.57360931 L1.024315,6.36394125 C0.0448774857,6.50493944 -0.347645182,7.70342404 0.362633931,8.38986259 L4.31402879,12.2116556 L3.37945101,17.610402 C3.211227,18.5862579 4.24673919,19.3172222 5.11402737,18.8608333 L10,16.3117345 L14.8859726,18.8608333 C15.7532608,19.3135117 16.788773,18.5862579 16.620549,17.610402 L15.6859712,12.2116556 L19.6373661,8.38986259 C20.3476452,7.70342404 19.9551225,6.50493944 18.975685,6.36394125 L18.975685,6.36394125 Z M14.4037305,11.796082 L15.442981,17.8070574 L10,14.9722517 L4.56075732,17.8107678 L5.60000781,11.7997924 L1.19627731,7.5364525 L7.2785095,6.66077954 L10,1.18782356 L12.7214905,6.66077954 L18.8037227,7.5364525 L14.4037305,11.796082 Z" id="Shape"></path>
            </g>
        </g>
    </g>
</svg>