<svg width="123" height="39" viewBox="0 0 123 39" fill="none" xmlns="http://www.w3.org/2000/svg">
<path d="M10.6121 33.885C11.6621 33.885 12.8404 33.3541 14.1471 32.2924C15.4538 31.2308 16.7721 29.8541 18.1021 28.1625C19.4321 26.4708 20.7388 24.5925 22.0221 22.5275C23.3054 20.4625 24.4371 18.4208 25.4171 16.4025C26.3971 14.3841 27.1904 12.5175 27.7971 10.8025C28.4038 9.08745 28.7071 7.73995 28.7071 6.75995C28.7071 6.12995 28.6254 5.48245 28.4621 4.81745C28.2988 4.15245 28.0538 3.53995 27.7271 2.97995C27.4004 2.41995 26.9746 1.95328 26.4496 1.57995C25.9246 1.20662 25.3004 0.996618 24.5771 0.949951L24.7596 1.15495C25.1096 1.57495 25.3696 2.05495 25.5396 2.59495C25.7379 3.22495 25.8371 3.86662 25.8371 4.51995C25.8371 4.84662 25.7321 5.40078 25.5221 6.18245C25.3121 6.96412 25.0438 7.84495 24.7171 8.82495C24.3904 9.80495 24.0171 10.82 23.5971 11.87C23.1771 12.92 22.7513 13.8883 22.3196 14.775C21.8879 15.6616 21.4679 16.4025 21.0596 16.9975C20.6513 17.5925 20.3071 17.925 20.0271 17.995C19.8404 18.4383 19.5429 18.9925 19.1346 19.6575C18.7263 20.3225 18.2596 21.0341 17.7346 21.7924C17.2096 22.5508 16.6438 23.3266 16.0371 24.12C15.4304 24.9133 14.8296 25.6541 14.2346 26.3425C13.6396 27.0308 13.0738 27.6375 12.5371 28.1625C12.0004 28.6875 11.5338 29.0666 11.1371 29.2999C11.1371 27.7599 11.3238 26.2258 11.6971 24.6975C12.0704 23.1691 12.4846 21.6524 12.9396 20.1474C13.3946 18.6424 13.8146 17.1491 14.1996 15.6675C14.5846 14.1858 14.7771 12.71 14.7771 11.24V11.065L15.3021 10.505C15.2788 10.2016 15.3896 9.69995 15.6346 8.99995C15.8796 8.29995 16.1771 7.57662 16.5271 6.82995C16.8771 6.08328 17.2388 5.38328 17.6121 4.72995C17.9854 4.07662 18.2771 3.63328 18.4871 3.39995L18.5571 2.90995L18.3471 2.48995C18.2771 2.58328 18.2013 2.55412 18.1196 2.40245C18.0379 2.25078 17.9971 2.15162 17.9971 2.10495C17.3904 1.94162 16.8071 1.71412 16.2471 1.42245C15.6871 1.13078 15.0804 0.984951 14.4271 0.984951C13.5638 0.984951 12.7879 1.18328 12.0996 1.57995C11.4113 1.97662 10.7521 2.43745 10.1221 2.96245C9.49209 3.48745 8.86209 4.00662 8.23209 4.51995C7.60209 5.03328 6.91376 5.39495 6.16709 5.60495L5.99209 6.12995C5.59542 6.43328 5.11709 6.85328 4.55709 7.38995C3.99709 7.92662 3.45459 8.50995 2.92959 9.13995C2.40459 9.76995 1.94376 10.4 1.54709 11.03C1.15042 11.66 0.905423 12.22 0.81209 12.71L0.49709 13.06L0.39209 14.495C0.39209 14.705 0.51459 14.9325 0.75959 15.1775C1.00459 15.4225 1.29042 15.65 1.61709 15.86C1.94376 16.07 2.27626 16.245 2.61459 16.385C2.95292 16.525 3.21542 16.6066 3.40209 16.63C3.58876 16.1633 3.80459 15.6908 4.04959 15.2125C4.29459 14.7341 4.59209 14.32 4.94209 13.97C4.96542 13.76 5.13459 13.3983 5.44959 12.885C5.76459 12.3716 6.14376 11.7883 6.58709 11.135C7.03042 10.4816 7.52626 9.81078 8.07459 9.12245C8.62292 8.43412 9.14209 7.79828 9.63209 7.21495C10.1221 6.63162 10.5596 6.15328 10.9446 5.77995C11.3296 5.40662 11.6038 5.21995 11.7671 5.21995L11.9071 5.28995C11.0671 7.17995 10.2913 9.13995 9.57959 11.17C8.86792 13.2 8.25542 15.2591 7.74209 17.3475C7.22876 19.4358 6.82626 21.5416 6.53459 23.665C6.24292 25.7883 6.09709 27.9 6.09709 30C6.09709 30.5366 6.23709 31.0441 6.51709 31.5224C6.79709 32.0008 7.15876 32.4149 7.60209 32.7649C8.04542 33.1149 8.53542 33.3891 9.07209 33.5875C9.60876 33.7858 10.1221 33.885 10.6121 33.885ZM8.79209 31.155C8.72209 31.155 8.66376 31.0908 8.61709 30.9625C8.57042 30.8341 8.53542 30.7466 8.51209 30.7C8.55876 30.5833 8.62876 30.525 8.72209 30.525C8.74542 30.525 8.75709 30.5483 8.75709 30.5949C8.75709 30.6883 8.74542 30.7466 8.72209 30.77V30.805C8.72987 30.805 8.73635 30.8037 8.74153 30.8011L8.74709 30.7959L8.78509 30.8372C8.84109 30.9016 8.87609 30.9575 8.89009 31.0051L8.89709 31.0499C8.89709 31.1199 8.86209 31.155 8.79209 31.155ZM29.6521 29.965C30.0488 29.965 30.3871 29.9008 30.6671 29.7724C30.9471 29.6441 31.2271 29.4516 31.5071 29.195C31.6471 29.195 31.8279 29.1075 32.0496 28.9325C32.2713 28.7575 32.4988 28.5591 32.7321 28.3375C32.9654 28.1158 33.1871 27.8941 33.3971 27.6725C33.6071 27.4508 33.7704 27.2933 33.8871 27.2C33.9571 27.48 34.1613 27.7775 34.4996 28.0925C34.8379 28.4075 35.2229 28.6933 35.6546 28.95C36.0863 29.2066 36.5238 29.4166 36.9671 29.58C37.4104 29.7433 37.7721 29.825 38.0521 29.825C38.7054 29.825 39.3004 29.7025 39.8371 29.4575C40.3738 29.2125 40.8754 28.8975 41.3421 28.5125C41.8088 28.1275 42.2521 27.7133 42.6721 27.27C43.0921 26.8266 43.5238 26.4066 43.9671 26.01C44.0838 25.6366 44.3346 25.17 44.7196 24.61C45.1046 24.05 45.5013 23.4841 45.9096 22.9125C46.3179 22.3408 46.6854 21.8041 47.0121 21.3025C47.3388 20.8008 47.5138 20.4216 47.5371 20.165L47.2571 19.885L44.2121 19.92C44.1421 20.1066 43.9729 20.41 43.7046 20.83C43.4363 21.25 43.1213 21.7224 42.7596 22.2474C42.3979 22.7724 42.0129 23.315 41.6046 23.875C41.1963 24.435 40.7996 24.9483 40.4146 25.415C40.0296 25.8816 39.6796 26.2666 39.3646 26.57C39.0496 26.8733 38.8221 27.025 38.6821 27.025H38.6471C38.6471 26.2083 38.7696 25.2283 39.0146 24.0849C39.2596 22.9416 39.5571 21.7691 39.9071 20.5674C40.2571 19.3658 40.6363 18.205 41.0446 17.085C41.4529 15.965 41.8204 15.02 42.1471 14.25L41.9371 14.005L41.7971 14.04C41.3771 13.6433 40.8988 13.2991 40.3621 13.0075C39.8254 12.7158 39.2538 12.57 38.6471 12.57C38.1571 12.57 37.7021 12.9258 37.2821 13.6375C36.8621 14.3491 36.4596 15.2358 36.0746 16.2975C35.6896 17.3591 35.3046 18.5083 34.9196 19.745C34.5346 20.9816 34.1204 22.1308 33.6771 23.1924C33.2338 24.2541 32.7379 25.1408 32.1896 25.8525C31.6413 26.5641 31.0288 26.92 30.3521 26.92C30.0954 26.92 29.9321 26.8033 29.8621 26.57C29.7921 26.3366 29.7571 26.1266 29.7571 25.94C29.7571 25.0766 29.8563 24.1725 30.0546 23.2275C30.2529 22.2825 30.5038 21.3316 30.8071 20.375C31.1104 19.4183 31.4488 18.485 31.8221 17.575C32.1954 16.665 32.5454 15.825 32.8721 15.055L33.2221 14.67L33.2226 14.557C33.2048 14.2954 33.0529 14.0472 32.7671 13.8125C32.4404 13.5441 32.0554 13.3108 31.6121 13.1125C31.1688 12.9141 30.7196 12.7566 30.2646 12.64C29.8096 12.5233 29.4654 12.465 29.2321 12.465C28.9988 12.465 28.7421 12.6516 28.4621 13.025C28.1821 13.3983 27.9254 13.8241 27.6921 14.3025C27.4588 14.7808 27.2604 15.2591 27.0971 15.7375C26.9338 16.2158 26.8521 16.56 26.8521 16.77L26.5371 17.26L26.6071 17.575C26.3738 18.0416 26.1521 18.695 25.9421 19.535C25.7321 20.375 25.5396 21.2616 25.3646 22.195C25.1896 23.1283 25.0496 24.0324 24.9446 24.9074C24.8396 25.7824 24.7871 26.4766 24.7871 26.99C24.7871 27.41 24.9738 27.8008 25.3471 28.1625C25.7204 28.5241 26.1696 28.8391 26.6946 29.1075C27.2196 29.3758 27.7563 29.5858 28.3046 29.7374C28.8529 29.8891 29.3021 29.965 29.6521 29.965ZM38.3321 19.78C38.2154 19.78 38.1571 19.745 38.1571 19.675C38.1571 19.6516 38.1629 19.64 38.1746 19.64C38.1863 19.64 38.1921 19.6283 38.1921 19.6049C38.1921 19.5583 38.2329 19.4941 38.3146 19.4125C38.3963 19.3308 38.4604 19.29 38.5071 19.29C38.5538 19.29 38.5771 19.3366 38.5771 19.43V19.535C38.5771 19.6983 38.4954 19.78 38.3321 19.78ZM28.6021 26.115C28.5554 26.115 28.4971 26.0916 28.4271 26.045C28.3571 25.9983 28.3221 25.94 28.3221 25.87C28.3221 25.7533 28.3804 25.695 28.4971 25.695C28.5438 25.695 28.5846 25.7533 28.6196 25.87C28.6546 25.9866 28.6721 26.0683 28.6721 26.115L28.6691 26.087L28.6643 26.0994C28.6591 26.1046 28.6513 26.1085 28.641 26.1111L28.6021 26.115ZM28.1121 26.7099C27.9488 26.7099 27.8671 26.6516 27.8671 26.535C27.8671 26.4883 27.9079 26.4533 27.9896 26.43C28.0713 26.4066 28.1354 26.395 28.1821 26.395C28.2521 26.395 28.2871 26.4183 28.2871 26.465C28.2871 26.6283 28.2288 26.7099 28.1121 26.7099ZM48.0971 29.965C48.4938 29.965 48.8321 29.9008 49.1121 29.7724C49.3921 29.6441 49.6721 29.4516 49.9521 29.195C50.0921 29.195 50.2729 29.1075 50.4946 28.9325C50.7163 28.7575 50.9438 28.5591 51.1771 28.3375C51.4104 28.1158 51.6321 27.8941 51.8421 27.6725C52.0521 27.4508 52.2154 27.2933 52.3321 27.2C52.4021 27.48 52.6063 27.7775 52.9446 28.0925C53.2829 28.4075 53.6679 28.6933 54.0996 28.95C54.5313 29.2066 54.9688 29.4166 55.4121 29.58C55.8554 29.7433 56.2171 29.825 56.4971 29.825C57.1504 29.825 57.7454 29.7025 58.2821 29.4575C58.8188 29.2125 59.3204 28.8975 59.7871 28.5125C60.2538 28.1275 60.6971 27.7133 61.1171 27.27C61.5371 26.8266 61.9688 26.4066 62.4121 26.01C62.5288 25.6366 62.7796 25.17 63.1646 24.61C63.5496 24.05 63.9463 23.4841 64.3546 22.9125C64.7629 22.3408 65.1304 21.8041 65.4571 21.3025C65.7838 20.8008 65.9588 20.4216 65.9821 20.165L65.7021 19.885L62.6571 19.92C62.5871 20.1066 62.4179 20.41 62.1496 20.83C61.8813 21.25 61.5663 21.7224 61.2046 22.2474C60.8429 22.7724 60.4579 23.315 60.0496 23.875C59.6413 24.435 59.2446 24.9483 58.8596 25.415C58.4746 25.8816 58.1246 26.2666 57.8096 26.57C57.4946 26.8733 57.2671 27.025 57.1271 27.025H57.0921C57.0921 26.2083 57.2146 25.2283 57.4596 24.0849C57.7046 22.9416 58.0021 21.7691 58.3521 20.5674C58.7021 19.3658 59.0813 18.205 59.4896 17.085C59.8979 15.965 60.2654 15.02 60.5921 14.25L60.3821 14.005L60.2421 14.04C59.8221 13.6433 59.3438 13.2991 58.8071 13.0075C58.2704 12.7158 57.6988 12.57 57.0921 12.57C56.6021 12.57 56.1471 12.9258 55.7271 13.6375C55.3071 14.3491 54.9046 15.2358 54.5196 16.2975C54.1346 17.3591 53.7496 18.5083 53.3646 19.745C52.9796 20.9816 52.5654 22.1308 52.1221 23.1924C51.6788 24.2541 51.1829 25.1408 50.6346 25.8525C50.0863 26.5641 49.4738 26.92 48.7971 26.92C48.5404 26.92 48.3771 26.8033 48.3071 26.57C48.2371 26.3366 48.2021 26.1266 48.2021 25.94C48.2021 25.0766 48.3013 24.1725 48.4996 23.2275C48.6979 22.2825 48.9488 21.3316 49.2521 20.375C49.5554 19.4183 49.8938 18.485 50.2671 17.575C50.6404 16.665 50.9904 15.825 51.3171 15.055L51.6671 14.67L51.6676 14.557C51.6498 14.2954 51.4979 14.0472 51.2121 13.8125C50.8854 13.5441 50.5004 13.3108 50.0571 13.1125C49.6138 12.9141 49.1646 12.7566 48.7096 12.64C48.2546 12.5233 47.9104 12.465 47.6771 12.465C47.4438 12.465 47.1871 12.6516 46.9071 13.025C46.6271 13.3983 46.3704 13.8241 46.1371 14.3025C45.9038 14.7808 45.7054 15.2591 45.5421 15.7375C45.3788 16.2158 45.2971 16.56 45.2971 16.77L44.9821 17.26L45.0521 17.575C44.8188 18.0416 44.5971 18.695 44.3871 19.535C44.1771 20.375 43.9846 21.2616 43.8096 22.195C43.6346 23.1283 43.4946 24.0324 43.3896 24.9074C43.2846 25.7824 43.2321 26.4766 43.2321 26.99C43.2321 27.41 43.4188 27.8008 43.7921 28.1625C44.1654 28.5241 44.6146 28.8391 45.1396 29.1075C45.6646 29.3758 46.2013 29.5858 46.7496 29.7374C47.2979 29.8891 47.7471 29.965 48.0971 29.965ZM56.7771 19.78C56.6604 19.78 56.6021 19.745 56.6021 19.675C56.6021 19.6516 56.6079 19.64 56.6196 19.64C56.6313 19.64 56.6371 19.6283 56.6371 19.6049C56.6371 19.5583 56.6779 19.4941 56.7596 19.4125C56.8413 19.3308 56.9054 19.29 56.9521 19.29C56.9988 19.29 57.0221 19.3366 57.0221 19.43V19.535C57.0221 19.6983 56.9404 19.78 56.7771 19.78ZM47.0471 26.115C47.0004 26.115 46.9421 26.0916 46.8721 26.045C46.8021 25.9983 46.7671 25.94 46.7671 25.87C46.7671 25.7533 46.8254 25.695 46.9421 25.695C46.9888 25.695 47.0296 25.7533 47.0646 25.87C47.0996 25.9866 47.1171 26.0683 47.1171 26.115L47.1141 26.087L47.1093 26.0994C47.1041 26.1046 47.0963 26.1085 47.086 26.1111L47.0471 26.115ZM46.5571 26.7099C46.3938 26.7099 46.3121 26.6516 46.3121 26.535C46.3121 26.4883 46.3529 26.4533 46.4346 26.43C46.5163 26.4066 46.5804 26.395 46.6271 26.395C46.6971 26.395 46.7321 26.4183 46.7321 26.465C46.7321 26.6283 46.6738 26.7099 46.5571 26.7099ZM76.7621 30.035C77.1821 30.035 77.7013 29.8483 78.3196 29.475C78.9379 29.1016 79.5796 28.6174 80.2446 28.0224C80.9096 27.4274 81.5688 26.7625 82.2221 26.0275C82.8754 25.2925 83.4646 24.5575 83.9896 23.8225C84.5146 23.0875 84.9463 22.3991 85.2846 21.7575C85.6229 21.1158 85.7921 20.585 85.7921 20.165L85.6171 20.0599C85.2204 20.0599 84.8413 20.0366 84.4796 19.99C84.1179 19.9433 83.7388 19.92 83.3421 19.92C82.8521 19.92 82.4963 20.0833 82.2746 20.41C82.0529 20.7366 81.8488 21.0866 81.6621 21.4599L81.3821 21.565C81.3588 22.0316 81.1429 22.4808 80.7346 22.9125C80.3263 23.3441 79.9704 23.7116 79.6671 24.0149L79.5621 24.4699L79.1771 24.61L78.9671 25.135L78.6171 25.3449V25.66C78.2438 25.8 77.9404 26.0216 77.7071 26.325C77.4738 26.6283 77.2054 26.8966 76.9021 27.1299C76.9488 26.7333 77.0304 26.2316 77.1471 25.625C77.2638 25.0183 77.3979 24.4058 77.5496 23.7875C77.7013 23.1691 77.8763 22.58 78.0746 22.02C78.2729 21.46 78.4771 21.0283 78.6871 20.725L78.6171 20.5849C78.6871 20.3749 78.8271 19.9958 79.0371 19.4475C79.2471 18.8991 79.4571 18.3275 79.6671 17.7325C79.8771 17.1375 80.0638 16.5891 80.2271 16.0875C80.3904 15.5858 80.4721 15.2533 80.4721 15.09C80.4721 14.81 80.3088 14.5241 79.9821 14.2325C79.6554 13.9408 79.2704 13.6725 78.8271 13.4275C78.3838 13.1825 77.9404 12.9783 77.4971 12.815C77.0538 12.6516 76.7154 12.57 76.4821 12.57C75.7354 12.57 75.0238 12.7975 74.3471 13.2525C73.6704 13.7075 73.0521 14.2091 72.4921 14.7575C71.9321 15.3058 71.4363 15.8191 71.0046 16.2975C70.5729 16.7758 70.2288 17.0383 69.9721 17.085C69.6454 17.5516 69.3363 18.0358 69.0446 18.5375C68.7529 19.0391 68.3854 19.4766 67.9421 19.85C67.9888 19.4766 68.1229 19.0508 68.3446 18.5725C68.5663 18.0941 68.7996 17.6216 69.0446 17.155C69.2896 16.6883 69.5113 16.245 69.7096 15.825C69.9079 15.405 70.0071 15.055 70.0071 14.775C70.0071 14.5416 69.8554 14.2908 69.5521 14.0225C69.2488 13.7541 68.8988 13.5091 68.5021 13.2875C68.1054 13.0658 67.7029 12.885 67.2946 12.745C66.8863 12.605 66.5771 12.535 66.3671 12.535C66.0871 12.535 65.8013 12.7158 65.5096 13.0775C65.2179 13.4391 64.9263 13.9058 64.6346 14.4775C64.3429 15.0491 64.0688 15.685 63.8121 16.385C63.5554 17.085 63.3279 17.7616 63.1296 18.415C62.9313 19.0683 62.7738 19.6575 62.6571 20.1825C62.5404 20.7075 62.4821 21.0983 62.4821 21.3549L62.5171 21.67L62.2371 22.125C62.2371 22.895 62.1379 23.6475 61.9396 24.3825L61.8487 24.7514C61.711 25.3688 61.6421 25.9983 61.6421 26.6399C61.6421 27.0133 61.7879 27.3983 62.0796 27.795C62.3713 28.1916 62.7213 28.5591 63.1296 28.8974C63.5379 29.2358 63.9754 29.5099 64.4421 29.7199C64.9088 29.9299 65.3171 30.035 65.6671 30.035C65.9238 30.035 66.1279 29.9708 66.2796 29.8425C66.4313 29.7141 66.5071 29.5216 66.5071 29.2649C66.5071 28.9383 66.6296 28.4483 66.8746 27.795C67.1196 27.1416 67.4463 26.4183 67.8546 25.625C68.2629 24.8316 68.7179 24.0149 69.2196 23.1749C69.7213 22.3349 70.2229 21.5591 70.7246 20.8475C71.2263 20.1358 71.7046 19.535 72.1596 19.045C72.6146 18.555 73.0054 18.2633 73.3321 18.17C73.3554 17.89 73.4838 17.68 73.7171 17.54C73.9504 17.4 74.1838 17.3066 74.4171 17.26C74.1138 17.9366 73.8163 18.6716 73.5246 19.465C73.2329 20.2583 72.9704 21.0633 72.7371 21.8799C72.5038 22.6966 72.3171 23.5133 72.1771 24.33C72.0371 25.1466 71.9671 25.9283 71.9671 26.6749C71.9671 27.2116 72.1304 27.6841 72.4571 28.0925C72.7838 28.5008 73.1921 28.8508 73.6821 29.1425C74.1721 29.4341 74.6971 29.6558 75.2571 29.8075C75.8171 29.9591 76.3188 30.035 76.7621 30.035ZM75.0471 14.915C74.9304 14.915 74.8721 14.8683 74.8721 14.775V14.705C74.8721 14.5883 74.9304 14.53 75.0471 14.53C75.0938 14.53 75.1638 14.5475 75.2571 14.5825C75.3504 14.6175 75.3971 14.67 75.3971 14.74C75.3971 14.7866 75.3504 14.8275 75.2571 14.8625C75.1638 14.8975 75.0938 14.915 75.0471 14.915ZM75.2921 19.815C75.1754 19.815 75.1171 19.78 75.1171 19.71C75.1171 19.6633 75.1638 19.5875 75.2571 19.4825C75.3504 19.3775 75.4204 19.325 75.4671 19.325C75.5138 19.325 75.5371 19.36 75.5371 19.43C75.5371 19.5233 75.5254 19.6108 75.5021 19.6925C75.4788 19.7741 75.4088 19.815 75.2921 19.815ZM65.5971 26.325C65.5038 26.325 65.4279 26.2666 65.3696 26.15C65.3113 26.0333 65.2821 25.94 65.2821 25.87C65.2821 25.8 65.3054 25.7649 65.3521 25.7649C65.4221 25.7649 65.4921 25.8175 65.5621 25.9225C65.6321 26.0275 65.6671 26.1149 65.6671 26.1849V26.2549C65.6671 26.3016 65.6438 26.325 65.5971 26.325ZM74.6621 26.6749C74.5688 26.6749 74.5221 26.6516 74.5221 26.6049L74.5251 26.6159L74.5308 26.5743C74.5425 26.5335 74.5658 26.4985 74.6008 26.4693L74.6621 26.43C74.7554 26.3833 74.8371 26.36 74.9071 26.36C74.9771 26.36 75.0121 26.395 75.0121 26.465C75.0121 26.535 74.9654 26.5874 74.8721 26.6224C74.7788 26.6574 74.7088 26.6749 74.6621 26.6749ZM90.3771 10.925C90.5171 10.925 90.6221 10.9075 90.6921 10.8725C90.7621 10.8375 90.8438 10.7616 90.9371 10.645C91.1704 10.295 91.3746 9.90412 91.5496 9.47245C91.7246 9.04078 91.9054 8.60328 92.0921 8.15995C92.2788 7.71662 92.4888 7.29662 92.7221 6.89995C92.9554 6.50328 93.2354 6.16495 93.5621 5.88495L93.5179 5.74592C93.4287 5.51583 93.2626 5.29384 93.0196 5.07995C92.7279 4.82328 92.3954 4.60162 92.0221 4.41495C91.6488 4.22828 91.2696 4.07662 90.8846 3.95995C90.4996 3.84328 90.1671 3.78495 89.8871 3.78495C89.6538 3.78495 89.3679 3.94828 89.0296 4.27495C88.6913 4.60162 88.3704 4.98078 88.0671 5.41245C87.7638 5.84412 87.5013 6.27578 87.2796 6.70745C87.0579 7.13912 86.9471 7.45995 86.9471 7.66995C86.9471 7.80995 86.9763 7.94412 87.0346 8.07245L87.0832 8.20273C87.1091 8.29088 87.1221 8.38162 87.1221 8.47495C87.1221 8.52162 87.1104 8.56828 87.0871 8.61495C87.0638 8.66162 87.0521 8.70828 87.0521 8.75495C87.0054 8.94162 87.1221 9.16328 87.4021 9.41995C87.6821 9.67662 88.0146 9.91578 88.3996 10.1375C88.7846 10.3591 89.1638 10.5458 89.5371 10.6975C89.9104 10.8491 90.1904 10.925 90.3771 10.925ZM84.9171 29.7199C85.4071 29.8833 85.7221 29.9416 85.8621 29.895L88.2771 29.09C88.4404 29.0433 88.7146 28.8099 89.0996 28.3899C89.4846 27.9699 89.9338 27.4566 90.4471 26.85C90.9604 26.2433 91.4854 25.5841 92.0221 24.8724C92.5588 24.1608 93.0604 23.4783 93.5271 22.825C93.9938 22.1716 94.3729 21.6 94.6646 21.11C94.9563 20.62 95.1138 20.2933 95.1371 20.1299L94.8571 19.85C94.3438 19.85 93.8304 19.8616 93.3171 19.885L91.7771 19.955C91.0304 21.215 90.2196 22.4224 89.3446 23.5774C88.4696 24.7324 87.4721 25.8 86.3521 26.78L86.3171 26.2199C86.3171 26.0566 86.3754 25.6775 86.4921 25.0825C86.6088 24.4875 86.7546 23.7991 86.9296 23.0175C87.1046 22.2358 87.3029 21.4133 87.5246 20.5499C87.7463 19.6866 87.9679 18.8816 88.1896 18.135C88.4113 17.3883 88.6096 16.77 88.7846 16.28C88.9596 15.79 89.1054 15.5216 89.2221 15.475L89.7821 14.355C89.7121 14.215 89.5254 14.0283 89.2221 13.795C88.9188 13.5616 88.5863 13.3341 88.2246 13.1125C87.8629 12.8908 87.5071 12.6983 87.1571 12.535C86.8071 12.3716 86.5504 12.29 86.3871 12.29C86.3638 12.29 86.2996 12.3133 86.1946 12.36C86.0896 12.4066 85.9671 12.4533 85.8271 12.5C85.6871 12.5466 85.5529 12.5933 85.4246 12.64C85.2963 12.6866 85.2204 12.7216 85.1971 12.745C85.1738 12.9783 85.0979 13.2 84.9696 13.41C84.8413 13.62 84.6838 13.8066 84.4971 13.97C84.5671 14.2033 84.5088 14.4075 84.3221 14.5825C84.1354 14.7575 83.9954 14.9383 83.9021 15.125C83.5988 15.8483 83.2954 16.6941 82.9921 17.6625C82.6888 18.6308 82.4204 19.6341 82.1871 20.6725C81.9538 21.7108 81.7671 22.7375 81.6271 23.7525C81.4871 24.7675 81.4171 25.66 81.4171 26.43C81.4171 26.92 81.6213 27.3866 82.0296 27.83C82.4379 28.2733 82.8988 28.6583 83.4121 28.985C83.9254 29.3116 84.4271 29.5566 84.9171 29.7199ZM85.9321 17.925C85.8854 17.925 85.8154 17.8958 85.7221 17.8375C85.6288 17.7791 85.5821 17.7266 85.5821 17.68C85.5821 17.6566 85.6054 17.645 85.6521 17.645H85.7921C85.8388 17.645 85.8738 17.6391 85.8971 17.6275C85.9204 17.6158 85.9554 17.61 86.0021 17.61C86.0721 17.61 86.1071 17.6566 86.1071 17.75L86.1051 17.735L86.1022 17.7791C86.0893 17.8569 86.0504 17.9036 85.9856 17.9191L85.9321 17.925ZM83.9021 21.705C83.7854 21.705 83.7271 21.6233 83.7271 21.4599C83.7271 21.4133 83.7388 21.3608 83.7621 21.3025C83.7854 21.2441 83.8204 21.215 83.8671 21.215C83.9138 21.215 83.9488 21.25 83.9721 21.32C83.9954 21.39 84.0071 21.4483 84.0071 21.495L84.0061 21.479L84.0027 21.5343L83.9896 21.6175C83.9779 21.6758 83.9488 21.705 83.9021 21.705ZM95.1721 30C95.6154 30 96.1521 29.8191 96.7821 29.4575C97.4121 29.0958 98.0713 28.6291 98.7596 28.0575C99.4479 27.4858 100.125 26.8441 100.79 26.1325C101.455 25.4208 102.055 24.7091 102.592 23.9974C103.129 23.2858 103.566 22.6091 103.905 21.9675C104.243 21.3258 104.412 20.795 104.412 20.375L104.132 20.025C103.012 20.025 102.079 20.2758 101.332 20.7775C100.585 21.2791 99.9088 21.8975 99.3021 22.6325C98.6954 23.3675 98.1063 24.1491 97.5346 24.9775C96.9629 25.8058 96.2921 26.5466 95.5221 27.2L95.4521 26.29C95.4521 25.8 95.5221 25.2925 95.6621 24.7675C95.8021 24.2425 95.9596 23.7233 96.1346 23.2099C96.3096 22.6966 96.4671 22.1891 96.6071 21.6875C96.7471 21.1858 96.8171 20.69 96.8171 20.2C96.8171 19.85 96.8696 19.5175 96.9746 19.2025C97.0796 18.8875 97.2021 18.5783 97.3421 18.275C97.4821 17.9716 97.6046 17.6683 97.7096 17.365C97.8146 17.0616 97.8671 16.735 97.8671 16.385L98.2871 15.86C98.3571 15.09 98.5788 14.3258 98.9521 13.5675C99.3254 12.8091 99.6638 12.08 99.9671 11.38C100.224 11.3333 100.492 11.3041 100.772 11.2925C101.052 11.2808 101.32 11.275 101.577 11.275C102.347 11.275 103.135 11.3391 103.94 11.4675C104.745 11.5958 105.45 11.9283 106.057 12.465L106.112 12.3561L106.145 12.29C106.18 12.22 106.197 12.1616 106.197 12.115C106.197 11.905 106.127 11.59 105.987 11.17C105.847 10.75 105.666 10.3241 105.445 9.89245C105.223 9.46078 104.978 9.08745 104.71 8.77245C104.441 8.45745 104.19 8.29995 103.957 8.29995C103.77 8.29995 103.607 8.35245 103.467 8.45745C103.327 8.56245 103.164 8.61495 102.977 8.61495C102.767 8.61495 102.563 8.59745 102.365 8.56245C102.166 8.52745 101.962 8.49828 101.752 8.47495L102.207 7.94995C102.184 7.78662 102.02 7.58245 101.717 7.33745C101.414 7.09245 101.07 6.85328 100.685 6.61995C100.3 6.38662 99.9263 6.18245 99.5646 6.00745C99.2029 5.83245 98.9404 5.74495 98.7771 5.74495C98.3338 5.74495 97.9779 5.84412 97.7096 6.04245C97.4413 6.24078 97.2138 6.49162 97.0271 6.79495C96.8404 7.09828 96.6538 7.43078 96.4671 7.79245C96.2804 8.15412 96.0588 8.48662 95.8021 8.78995C95.5454 9.09328 95.2188 9.34412 94.8221 9.54245C94.4254 9.74078 93.9121 9.83995 93.2821 9.83995C92.7921 9.83995 92.3838 9.72328 92.0571 9.48995C92.0338 9.55995 91.9988 9.64745 91.9521 9.75245C91.9054 9.85745 91.8821 9.94495 91.8821 10.015C91.8821 10.2016 91.9171 10.4058 91.9871 10.6275C92.0571 10.8491 92.1504 11.0591 92.2671 11.2575C92.3838 11.4558 92.5354 11.6191 92.7221 11.7475C92.9088 11.8758 93.1071 11.94 93.3171 11.94C93.5271 11.94 93.7254 11.9225 93.9121 11.8875C94.0988 11.8525 94.2971 11.8583 94.5071 11.905C94.0871 13.0016 93.6554 14.1275 93.2121 15.2825C92.7688 16.4375 92.3663 17.61 92.0046 18.8C91.6429 19.99 91.3454 21.1916 91.1121 22.405C90.8788 23.6183 90.7621 24.82 90.7621 26.01C90.7621 26.64 90.8788 27.2058 91.1121 27.7075C91.3454 28.2091 91.6604 28.6291 92.0571 28.9675C92.4538 29.3058 92.9204 29.5624 93.4571 29.7374C93.9938 29.9124 94.5654 30 95.1721 30ZM97.4121 12.99C97.3888 12.99 97.3771 12.955 97.3771 12.885V12.64C97.3771 12.57 97.4121 12.535 97.4821 12.535C97.6221 12.535 97.6921 12.605 97.6921 12.745C97.6921 12.7916 97.6746 12.8208 97.6396 12.8325C97.6046 12.8441 97.5754 12.8616 97.5521 12.885C97.5288 12.9083 97.5054 12.9258 97.4821 12.9375L97.4471 12.9593L97.4121 12.99ZM106.687 38.54C107.317 38.54 107.976 38.2774 108.665 37.7524C109.353 37.2274 109.989 36.5974 110.572 35.8624C111.155 35.1274 111.634 34.3516 112.007 33.535C112.38 32.7183 112.567 32.0183 112.567 31.4349L112.532 30.9799L112.882 30.525L112.917 29.895C113.477 29.9416 114.078 29.7958 114.72 29.4575C115.361 29.1191 116.003 28.67 116.645 28.11C117.286 27.55 117.916 26.9024 118.535 26.1674C119.153 25.4324 119.719 24.6975 120.232 23.9625C120.745 23.2275 121.183 22.5158 121.545 21.8274C121.906 21.1391 122.157 20.5499 122.297 20.0599L120.897 19.99L118.937 20.025C118.517 20.585 118.12 21.1566 117.747 21.74C117.374 22.3233 116.989 22.9008 116.592 23.4725C116.195 24.0441 115.775 24.5925 115.332 25.1175C114.889 25.6425 114.387 26.1266 113.827 26.57L113.792 26.36C113.792 26.2666 113.839 26.0391 113.932 25.6775C114.025 25.3158 114.13 24.9308 114.247 24.5224C114.364 24.1141 114.48 23.7291 114.597 23.3675C114.714 23.0058 114.795 22.7783 114.842 22.6849L114.737 22.2299C114.924 22.0433 115.005 21.8216 114.982 21.565C114.959 21.3083 115.04 21.0866 115.227 20.9L115.192 20.305C115.425 20.0016 115.635 19.64 115.822 19.22C116.009 18.8 116.178 18.3508 116.33 17.8725C116.481 17.3941 116.633 16.9275 116.785 16.4725C116.936 16.0175 117.105 15.6033 117.292 15.23C117.339 15.1833 117.409 15.055 117.502 14.845C117.595 14.635 117.642 14.5066 117.642 14.46C117.642 14.25 117.49 14.0341 117.187 13.8125C116.884 13.5908 116.528 13.3866 116.12 13.2C115.711 13.0133 115.309 12.8616 114.912 12.745C114.515 12.6283 114.224 12.57 114.037 12.57C113.524 12.57 113.075 12.9025 112.69 13.5675C112.305 14.2325 111.937 15.0725 111.587 16.0875C111.237 17.1025 110.881 18.2108 110.52 19.4125C110.158 20.6141 109.732 21.7516 109.242 22.825C108.752 23.8983 108.169 24.82 107.492 25.59C106.815 26.36 105.987 26.8266 105.007 26.99L104.972 25.7299C104.972 25.1466 105.071 24.54 105.27 23.91C105.468 23.28 105.684 22.65 105.917 22.02C106.15 21.39 106.366 20.7775 106.565 20.1825C106.763 19.5875 106.862 19.01 106.862 18.45L106.792 18.065C106.885 18.0183 107.008 17.8433 107.16 17.54C107.311 17.2366 107.469 16.8983 107.632 16.525C107.795 16.1516 107.935 15.7958 108.052 15.4575C108.169 15.1191 108.227 14.8916 108.227 14.775C108.227 14.4716 108.099 14.18 107.842 13.9C107.585 13.62 107.276 13.3866 106.915 13.2C106.553 13.0133 106.18 12.8616 105.795 12.745C105.41 12.6283 105.089 12.57 104.832 12.57C104.435 12.57 104.103 12.7333 103.835 13.06C103.566 13.3866 103.333 13.7716 103.135 14.215C102.936 14.6583 102.755 15.1075 102.592 15.5625C102.429 16.0175 102.254 16.3733 102.067 16.63L102.137 17.155C101.88 17.435 101.624 18.0241 101.367 18.9225C101.11 19.8208 100.889 20.8008 100.702 21.8624C100.515 22.9241 100.364 23.9449 100.247 24.9249C100.13 25.9049 100.072 26.6166 100.072 27.0599C100.072 27.4566 100.27 27.83 100.667 28.18C101.064 28.53 101.53 28.8275 102.067 29.0725C102.604 29.3175 103.158 29.51 103.73 29.65C104.301 29.79 104.75 29.86 105.077 29.86C105.31 29.86 105.538 29.8541 105.76 29.8425C105.981 29.8308 106.197 29.7666 106.407 29.65L106.582 29.3349C106.979 29.2649 107.335 29.0899 107.65 28.8099C107.965 28.5299 108.285 28.285 108.612 28.075C108.612 28.3783 108.449 28.67 108.122 28.95C107.795 29.23 107.393 29.5158 106.915 29.8075C106.436 30.0991 105.923 30.4025 105.375 30.7175C104.826 31.0325 104.313 31.3825 103.835 31.7675C103.356 32.1525 102.96 32.5783 102.645 33.045C102.33 33.5116 102.172 34.0366 102.172 34.62C102.172 35.4833 102.26 36.1716 102.435 36.685C102.61 37.1983 102.878 37.595 103.24 37.875C103.601 38.155 104.068 38.3358 104.64 38.4174C105.211 38.4991 105.894 38.54 106.687 38.54ZM104.692 14.845C104.645 14.845 104.622 14.8333 104.622 14.81C104.599 14.7866 104.587 14.7166 104.587 14.6C104.587 14.53 104.622 14.495 104.692 14.495L104.712 14.4999C104.745 14.5129 104.809 14.5521 104.902 14.6175C105.019 14.6991 105.077 14.7516 105.077 14.775C105.077 14.7983 105.054 14.81 105.007 14.81C104.96 14.81 104.908 14.8158 104.85 14.8275L104.766 14.8406L104.692 14.845ZM115.402 15.37C115.379 15.37 115.361 15.3641 115.35 15.3525C115.338 15.3408 115.309 15.335 115.262 15.335H115.192C115.145 15.335 115.11 15.3408 115.087 15.3525C115.064 15.3641 115.04 15.37 115.017 15.37C114.994 15.37 114.982 15.3291 114.982 15.2475V15.09C114.982 15.02 115.017 14.985 115.087 14.985C115.134 14.985 115.215 15.0258 115.332 15.1075C115.449 15.1891 115.507 15.2533 115.507 15.3C115.507 15.3466 115.472 15.37 115.402 15.37ZM112.112 19.57L112.073 19.5043L112.025 19.4475C111.99 19.4125 111.972 19.3716 111.972 19.325C111.972 19.255 112.065 19.2024 112.252 19.1674C112.439 19.1324 112.555 19.115 112.602 19.115C112.765 19.115 112.847 19.1733 112.847 19.29V19.36C112.847 19.29 112.824 19.255 112.777 19.255C112.707 19.255 112.59 19.2958 112.427 19.3775C112.264 19.4591 112.159 19.5233 112.112 19.57ZM104.937 19.745H104.902C104.809 19.745 104.762 19.6983 104.762 19.6049C104.762 19.5583 104.78 19.4883 104.815 19.395C104.85 19.3016 104.89 19.255 104.937 19.255C105.03 19.255 105.077 19.3366 105.077 19.5C105.077 19.5466 105.065 19.5991 105.042 19.6575C105.019 19.7158 104.984 19.745 104.937 19.745ZM112.952 23.5599C112.905 23.5599 112.835 23.5075 112.742 23.4025C112.649 23.2975 112.579 23.2333 112.532 23.2099C112.509 23.2333 112.485 23.2683 112.462 23.315C112.439 23.3616 112.404 23.385 112.357 23.385C112.31 23.385 112.287 23.35 112.287 23.28C112.287 23.21 112.322 23.1749 112.392 23.1749H112.497C112.544 23.1749 112.585 23.1574 112.62 23.1224L112.657 23.0933C112.682 23.0777 112.711 23.07 112.742 23.07C112.789 23.07 112.835 23.1341 112.882 23.2625C112.929 23.3908 112.952 23.4783 112.952 23.525V23.5599ZM104.622 35.985C104.529 35.8916 104.482 35.7633 104.482 35.6C104.482 35.4366 104.517 35.25 104.587 35.04C104.657 34.83 104.745 34.62 104.85 34.41C104.955 34.2 105.077 34.0075 105.217 33.8325C105.357 33.6575 105.485 33.5116 105.602 33.395C105.672 33.325 105.789 33.22 105.952 33.08C106.115 32.94 106.29 32.8 106.477 32.66C106.664 32.52 106.839 32.4033 107.002 32.3099C107.165 32.2166 107.305 32.17 107.422 32.17C107.515 32.17 107.562 32.2283 107.562 32.3449C107.562 32.6716 107.475 33.0391 107.3 33.4475C107.125 33.8558 106.897 34.2466 106.617 34.62C106.337 34.9933 106.022 35.3083 105.672 35.565C105.322 35.8216 104.972 35.9616 104.622 35.985Z" fill="#201C26"/>
<path d="M10.6121 33.885C11.6621 33.885 12.8404 33.3541 14.1471 32.2924C15.4538 31.2308 16.7721 29.8541 18.1021 28.1625C19.4321 26.4708 20.7388 24.5925 22.0221 22.5275C23.3054 20.4625 24.4371 18.4208 25.4171 16.4025C26.3971 14.3841 27.1904 12.5175 27.7971 10.8025C28.4038 9.08745 28.7071 7.73995 28.7071 6.75995C28.7071 6.12995 28.6254 5.48245 28.4621 4.81745C28.2988 4.15245 28.0538 3.53995 27.7271 2.97995C27.4004 2.41995 26.9746 1.95328 26.4496 1.57995C25.9246 1.20662 25.3004 0.996618 24.5771 0.949951L24.7596 1.15495C25.1096 1.57495 25.3696 2.05495 25.5396 2.59495C25.7379 3.22495 25.8371 3.86662 25.8371 4.51995C25.8371 4.84662 25.7321 5.40078 25.5221 6.18245C25.3121 6.96412 25.0438 7.84495 24.7171 8.82495C24.3904 9.80495 24.0171 10.82 23.5971 11.87C23.1771 12.92 22.7513 13.8883 22.3196 14.775C21.8879 15.6616 21.4679 16.4025 21.0596 16.9975C20.6513 17.5925 20.3071 17.925 20.0271 17.995C19.8404 18.4383 19.5429 18.9925 19.1346 19.6575C18.7263 20.3225 18.2596 21.0341 17.7346 21.7924C17.2096 22.5508 16.6438 23.3266 16.0371 24.12C15.4304 24.9133 14.8296 25.6541 14.2346 26.3425C13.6396 27.0308 13.0738 27.6375 12.5371 28.1625C12.0004 28.6875 11.5338 29.0666 11.1371 29.2999C11.1371 27.7599 11.3238 26.2258 11.6971 24.6975C12.0704 23.1691 12.4846 21.6524 12.9396 20.1474C13.3946 18.6424 13.8146 17.1491 14.1996 15.6675C14.5846 14.1858 14.7771 12.71 14.7771 11.24V11.065L15.3021 10.505C15.2788 10.2016 15.3896 9.69995 15.6346 8.99995C15.8796 8.29995 16.1771 7.57662 16.5271 6.82995C16.8771 6.08328 17.2388 5.38328 17.6121 4.72995C17.9854 4.07662 18.2771 3.63328 18.4871 3.39995L18.5571 2.90995L18.3471 2.48995C18.2771 2.58328 18.2013 2.55412 18.1196 2.40245C18.0379 2.25078 17.9971 2.15162 17.9971 2.10495C17.3904 1.94162 16.8071 1.71412 16.2471 1.42245C15.6871 1.13078 15.0804 0.984951 14.4271 0.984951C13.5638 0.984951 12.7879 1.18328 12.0996 1.57995C11.4113 1.97662 10.7521 2.43745 10.1221 2.96245C9.49209 3.48745 8.86209 4.00662 8.23209 4.51995C7.60209 5.03328 6.91376 5.39495 6.16709 5.60495L5.99209 6.12995C5.59542 6.43328 5.11709 6.85328 4.55709 7.38995C3.99709 7.92662 3.45459 8.50995 2.92959 9.13995C2.40459 9.76995 1.94376 10.4 1.54709 11.03C1.15042 11.66 0.905423 12.22 0.81209 12.71L0.49709 13.06L0.39209 14.495C0.39209 14.705 0.51459 14.9325 0.75959 15.1775C1.00459 15.4225 1.29042 15.65 1.61709 15.86C1.94376 16.07 2.27626 16.245 2.61459 16.385C2.95292 16.525 3.21542 16.6066 3.40209 16.63C3.58876 16.1633 3.80459 15.6908 4.04959 15.2125C4.29459 14.7341 4.59209 14.32 4.94209 13.97C4.96542 13.76 5.13459 13.3983 5.44959 12.885C5.76459 12.3716 6.14376 11.7883 6.58709 11.135C7.03042 10.4816 7.52626 9.81078 8.07459 9.12245C8.62292 8.43412 9.14209 7.79828 9.63209 7.21495C10.1221 6.63162 10.5596 6.15328 10.9446 5.77995C11.3296 5.40662 11.6038 5.21995 11.7671 5.21995L11.9071 5.28995C11.0671 7.17995 10.2913 9.13995 9.57959 11.17C8.86792 13.2 8.25542 15.2591 7.74209 17.3475C7.22876 19.4358 6.82626 21.5416 6.53459 23.665C6.24292 25.7883 6.09709 27.9 6.09709 30C6.09709 30.5366 6.23709 31.0441 6.51709 31.5224C6.79709 32.0008 7.15876 32.4149 7.60209 32.7649C8.04542 33.1149 8.53542 33.3891 9.07209 33.5875C9.60876 33.7858 10.1221 33.885 10.6121 33.885ZM8.79209 31.155C8.72209 31.155 8.66376 31.0908 8.61709 30.9625C8.57042 30.8341 8.53542 30.7466 8.51209 30.7C8.55876 30.5833 8.62876 30.525 8.72209 30.525C8.74542 30.525 8.75709 30.5483 8.75709 30.5949C8.75709 30.6883 8.74542 30.7466 8.72209 30.77V30.805C8.72987 30.805 8.73635 30.8037 8.74153 30.8011L8.74709 30.7959L8.78509 30.8372C8.84109 30.9016 8.87609 30.9575 8.89009 31.0051L8.89709 31.0499C8.89709 31.1199 8.86209 31.155 8.79209 31.155ZM29.6521 29.965C30.0488 29.965 30.3871 29.9008 30.6671 29.7724C30.9471 29.6441 31.2271 29.4516 31.5071 29.195C31.6471 29.195 31.8279 29.1075 32.0496 28.9325C32.2713 28.7575 32.4988 28.5591 32.7321 28.3375C32.9654 28.1158 33.1871 27.8941 33.3971 27.6725C33.6071 27.4508 33.7704 27.2933 33.8871 27.2C33.9571 27.48 34.1613 27.7775 34.4996 28.0925C34.8379 28.4075 35.2229 28.6933 35.6546 28.95C36.0863 29.2066 36.5238 29.4166 36.9671 29.58C37.4104 29.7433 37.7721 29.825 38.0521 29.825C38.7054 29.825 39.3004 29.7025 39.8371 29.4575C40.3738 29.2125 40.8754 28.8975 41.3421 28.5125C41.8088 28.1275 42.2521 27.7133 42.6721 27.27C43.0921 26.8266 43.5238 26.4066 43.9671 26.01C44.0838 25.6366 44.3346 25.17 44.7196 24.61C45.1046 24.05 45.5013 23.4841 45.9096 22.9125C46.3179 22.3408 46.6854 21.8041 47.0121 21.3025C47.3388 20.8008 47.5138 20.4216 47.5371 20.165L47.2571 19.885L44.2121 19.92C44.1421 20.1066 43.9729 20.41 43.7046 20.83C43.4363 21.25 43.1213 21.7224 42.7596 22.2474C42.3979 22.7724 42.0129 23.315 41.6046 23.875C41.1963 24.435 40.7996 24.9483 40.4146 25.415C40.0296 25.8816 39.6796 26.2666 39.3646 26.57C39.0496 26.8733 38.8221 27.025 38.6821 27.025H38.6471C38.6471 26.2083 38.7696 25.2283 39.0146 24.0849C39.2596 22.9416 39.5571 21.7691 39.9071 20.5674C40.2571 19.3658 40.6363 18.205 41.0446 17.085C41.4529 15.965 41.8204 15.02 42.1471 14.25L41.9371 14.005L41.7971 14.04C41.3771 13.6433 40.8988 13.2991 40.3621 13.0075C39.8254 12.7158 39.2538 12.57 38.6471 12.57C38.1571 12.57 37.7021 12.9258 37.2821 13.6375C36.8621 14.3491 36.4596 15.2358 36.0746 16.2975C35.6896 17.3591 35.3046 18.5083 34.9196 19.745C34.5346 20.9816 34.1204 22.1308 33.6771 23.1924C33.2338 24.2541 32.7379 25.1408 32.1896 25.8525C31.6413 26.5641 31.0288 26.92 30.3521 26.92C30.0954 26.92 29.9321 26.8033 29.8621 26.57C29.7921 26.3366 29.7571 26.1266 29.7571 25.94C29.7571 25.0766 29.8563 24.1725 30.0546 23.2275C30.2529 22.2825 30.5038 21.3316 30.8071 20.375C31.1104 19.4183 31.4488 18.485 31.8221 17.575C32.1954 16.665 32.5454 15.825 32.8721 15.055L33.2221 14.67L33.2226 14.557C33.2048 14.2954 33.0529 14.0472 32.7671 13.8125C32.4404 13.5441 32.0554 13.3108 31.6121 13.1125C31.1688 12.9141 30.7196 12.7566 30.2646 12.64C29.8096 12.5233 29.4654 12.465 29.2321 12.465C28.9988 12.465 28.7421 12.6516 28.4621 13.025C28.1821 13.3983 27.9254 13.8241 27.6921 14.3025C27.4588 14.7808 27.2604 15.2591 27.0971 15.7375C26.9338 16.2158 26.8521 16.56 26.8521 16.77L26.5371 17.26L26.6071 17.575C26.3738 18.0416 26.1521 18.695 25.9421 19.535C25.7321 20.375 25.5396 21.2616 25.3646 22.195C25.1896 23.1283 25.0496 24.0324 24.9446 24.9074C24.8396 25.7824 24.7871 26.4766 24.7871 26.99C24.7871 27.41 24.9738 27.8008 25.3471 28.1625C25.7204 28.5241 26.1696 28.8391 26.6946 29.1075C27.2196 29.3758 27.7563 29.5858 28.3046 29.7374C28.8529 29.8891 29.3021 29.965 29.6521 29.965ZM38.3321 19.78C38.2154 19.78 38.1571 19.745 38.1571 19.675C38.1571 19.6516 38.1629 19.64 38.1746 19.64C38.1863 19.64 38.1921 19.6283 38.1921 19.6049C38.1921 19.5583 38.2329 19.4941 38.3146 19.4125C38.3963 19.3308 38.4604 19.29 38.5071 19.29C38.5538 19.29 38.5771 19.3366 38.5771 19.43V19.535C38.5771 19.6983 38.4954 19.78 38.3321 19.78ZM28.6021 26.115C28.5554 26.115 28.4971 26.0916 28.4271 26.045C28.3571 25.9983 28.3221 25.94 28.3221 25.87C28.3221 25.7533 28.3804 25.695 28.4971 25.695C28.5438 25.695 28.5846 25.7533 28.6196 25.87C28.6546 25.9866 28.6721 26.0683 28.6721 26.115L28.6691 26.087L28.6643 26.0994C28.6591 26.1046 28.6513 26.1085 28.641 26.1111L28.6021 26.115ZM28.1121 26.7099C27.9488 26.7099 27.8671 26.6516 27.8671 26.535C27.8671 26.4883 27.9079 26.4533 27.9896 26.43C28.0713 26.4066 28.1354 26.395 28.1821 26.395C28.2521 26.395 28.2871 26.4183 28.2871 26.465C28.2871 26.6283 28.2288 26.7099 28.1121 26.7099ZM48.0971 29.965C48.4938 29.965 48.8321 29.9008 49.1121 29.7724C49.3921 29.6441 49.6721 29.4516 49.9521 29.195C50.0921 29.195 50.2729 29.1075 50.4946 28.9325C50.7163 28.7575 50.9438 28.5591 51.1771 28.3375C51.4104 28.1158 51.6321 27.8941 51.8421 27.6725C52.0521 27.4508 52.2154 27.2933 52.3321 27.2C52.4021 27.48 52.6063 27.7775 52.9446 28.0925C53.2829 28.4075 53.6679 28.6933 54.0996 28.95C54.5313 29.2066 54.9688 29.4166 55.4121 29.58C55.8554 29.7433 56.2171 29.825 56.4971 29.825C57.1504 29.825 57.7454 29.7025 58.2821 29.4575C58.8188 29.2125 59.3204 28.8975 59.7871 28.5125C60.2538 28.1275 60.6971 27.7133 61.1171 27.27C61.5371 26.8266 61.9688 26.4066 62.4121 26.01C62.5288 25.6366 62.7796 25.17 63.1646 24.61C63.5496 24.05 63.9463 23.4841 64.3546 22.9125C64.7629 22.3408 65.1304 21.8041 65.4571 21.3025C65.7838 20.8008 65.9588 20.4216 65.9821 20.165L65.7021 19.885L62.6571 19.92C62.5871 20.1066 62.4179 20.41 62.1496 20.83C61.8813 21.25 61.5663 21.7224 61.2046 22.2474C60.8429 22.7724 60.4579 23.315 60.0496 23.875C59.6413 24.435 59.2446 24.9483 58.8596 25.415C58.4746 25.8816 58.1246 26.2666 57.8096 26.57C57.4946 26.8733 57.2671 27.025 57.1271 27.025H57.0921C57.0921 26.2083 57.2146 25.2283 57.4596 24.0849C57.7046 22.9416 58.0021 21.7691 58.3521 20.5674C58.7021 19.3658 59.0813 18.205 59.4896 17.085C59.8979 15.965 60.2654 15.02 60.5921 14.25L60.3821 14.005L60.2421 14.04C59.8221 13.6433 59.3438 13.2991 58.8071 13.0075C58.2704 12.7158 57.6988 12.57 57.0921 12.57C56.6021 12.57 56.1471 12.9258 55.7271 13.6375C55.3071 14.3491 54.9046 15.2358 54.5196 16.2975C54.1346 17.3591 53.7496 18.5083 53.3646 19.745C52.9796 20.9816 52.5654 22.1308 52.1221 23.1924C51.6788 24.2541 51.1829 25.1408 50.6346 25.8525C50.0863 26.5641 49.4738 26.92 48.7971 26.92C48.5404 26.92 48.3771 26.8033 48.3071 26.57C48.2371 26.3366 48.2021 26.1266 48.2021 25.94C48.2021 25.0766 48.3013 24.1725 48.4996 23.2275C48.6979 22.2825 48.9488 21.3316 49.2521 20.375C49.5554 19.4183 49.8938 18.485 50.2671 17.575C50.6404 16.665 50.9904 15.825 51.3171 15.055L51.6671 14.67L51.6676 14.557C51.6498 14.2954 51.4979 14.0472 51.2121 13.8125C50.8854 13.5441 50.5004 13.3108 50.0571 13.1125C49.6138 12.9141 49.1646 12.7566 48.7096 12.64C48.2546 12.5233 47.9104 12.465 47.6771 12.465C47.4438 12.465 47.1871 12.6516 46.9071 13.025C46.6271 13.3983 46.3704 13.8241 46.1371 14.3025C45.9038 14.7808 45.7054 15.2591 45.5421 15.7375C45.3788 16.2158 45.2971 16.56 45.2971 16.77L44.9821 17.26L45.0521 17.575C44.8188 18.0416 44.5971 18.695 44.3871 19.535C44.1771 20.375 43.9846 21.2616 43.8096 22.195C43.6346 23.1283 43.4946 24.0324 43.3896 24.9074C43.2846 25.7824 43.2321 26.4766 43.2321 26.99C43.2321 27.41 43.4188 27.8008 43.7921 28.1625C44.1654 28.5241 44.6146 28.8391 45.1396 29.1075C45.6646 29.3758 46.2013 29.5858 46.7496 29.7374C47.2979 29.8891 47.7471 29.965 48.0971 29.965ZM56.7771 19.78C56.6604 19.78 56.6021 19.745 56.6021 19.675C56.6021 19.6516 56.6079 19.64 56.6196 19.64C56.6313 19.64 56.6371 19.6283 56.6371 19.6049C56.6371 19.5583 56.6779 19.4941 56.7596 19.4125C56.8413 19.3308 56.9054 19.29 56.9521 19.29C56.9988 19.29 57.0221 19.3366 57.0221 19.43V19.535C57.0221 19.6983 56.9404 19.78 56.7771 19.78ZM47.0471 26.115C47.0004 26.115 46.9421 26.0916 46.8721 26.045C46.8021 25.9983 46.7671 25.94 46.7671 25.87C46.7671 25.7533 46.8254 25.695 46.9421 25.695C46.9888 25.695 47.0296 25.7533 47.0646 25.87C47.0996 25.9866 47.1171 26.0683 47.1171 26.115L47.1141 26.087L47.1093 26.0994C47.1041 26.1046 47.0963 26.1085 47.086 26.1111L47.0471 26.115ZM46.5571 26.7099C46.3938 26.7099 46.3121 26.6516 46.3121 26.535C46.3121 26.4883 46.3529 26.4533 46.4346 26.43C46.5163 26.4066 46.5804 26.395 46.6271 26.395C46.6971 26.395 46.7321 26.4183 46.7321 26.465C46.7321 26.6283 46.6738 26.7099 46.5571 26.7099ZM76.7621 30.035C77.1821 30.035 77.7013 29.8483 78.3196 29.475C78.9379 29.1016 79.5796 28.6174 80.2446 28.0224C80.9096 27.4274 81.5688 26.7625 82.2221 26.0275C82.8754 25.2925 83.4646 24.5575 83.9896 23.8225C84.5146 23.0875 84.9463 22.3991 85.2846 21.7575C85.6229 21.1158 85.7921 20.585 85.7921 20.165L85.6171 20.0599C85.2204 20.0599 84.8413 20.0366 84.4796 19.99C84.1179 19.9433 83.7388 19.92 83.3421 19.92C82.8521 19.92 82.4963 20.0833 82.2746 20.41C82.0529 20.7366 81.8488 21.0866 81.6621 21.4599L81.3821 21.565C81.3588 22.0316 81.1429 22.4808 80.7346 22.9125C80.3263 23.3441 79.9704 23.7116 79.6671 24.0149L79.5621 24.4699L79.1771 24.61L78.9671 25.135L78.6171 25.3449V25.66C78.2438 25.8 77.9404 26.0216 77.7071 26.325C77.4738 26.6283 77.2054 26.8966 76.9021 27.1299C76.9488 26.7333 77.0304 26.2316 77.1471 25.625C77.2638 25.0183 77.3979 24.4058 77.5496 23.7875C77.7013 23.1691 77.8763 22.58 78.0746 22.02C78.2729 21.46 78.4771 21.0283 78.6871 20.725L78.6171 20.5849C78.6871 20.3749 78.8271 19.9958 79.0371 19.4475C79.2471 18.8991 79.4571 18.3275 79.6671 17.7325C79.8771 17.1375 80.0638 16.5891 80.2271 16.0875C80.3904 15.5858 80.4721 15.2533 80.4721 15.09C80.4721 14.81 80.3088 14.5241 79.9821 14.2325C79.6554 13.9408 79.2704 13.6725 78.8271 13.4275C78.3838 13.1825 77.9404 12.9783 77.4971 12.815C77.0538 12.6516 76.7154 12.57 76.4821 12.57C75.7354 12.57 75.0238 12.7975 74.3471 13.2525C73.6704 13.7075 73.0521 14.2091 72.4921 14.7575C71.9321 15.3058 71.4363 15.8191 71.0046 16.2975C70.5729 16.7758 70.2288 17.0383 69.9721 17.085C69.6454 17.5516 69.3363 18.0358 69.0446 18.5375C68.7529 19.0391 68.3854 19.4766 67.9421 19.85C67.9888 19.4766 68.1229 19.0508 68.3446 18.5725C68.5663 18.0941 68.7996 17.6216 69.0446 17.155C69.2896 16.6883 69.5113 16.245 69.7096 15.825C69.9079 15.405 70.0071 15.055 70.0071 14.775C70.0071 14.5416 69.8554 14.2908 69.5521 14.0225C69.2488 13.7541 68.8988 13.5091 68.5021 13.2875C68.1054 13.0658 67.7029 12.885 67.2946 12.745C66.8863 12.605 66.5771 12.535 66.3671 12.535C66.0871 12.535 65.8013 12.7158 65.5096 13.0775C65.2179 13.4391 64.9263 13.9058 64.6346 14.4775C64.3429 15.0491 64.0688 15.685 63.8121 16.385C63.5554 17.085 63.3279 17.7616 63.1296 18.415C62.9313 19.0683 62.7738 19.6575 62.6571 20.1825C62.5404 20.7075 62.4821 21.0983 62.4821 21.3549L62.5171 21.67L62.2371 22.125C62.2371 22.895 62.1379 23.6475 61.9396 24.3825L61.8487 24.7514C61.711 25.3688 61.6421 25.9983 61.6421 26.6399C61.6421 27.0133 61.7879 27.3983 62.0796 27.795C62.3713 28.1916 62.7213 28.5591 63.1296 28.8974C63.5379 29.2358 63.9754 29.5099 64.4421 29.7199C64.9088 29.9299 65.3171 30.035 65.6671 30.035C65.9238 30.035 66.1279 29.9708 66.2796 29.8425C66.4313 29.7141 66.5071 29.5216 66.5071 29.2649C66.5071 28.9383 66.6296 28.4483 66.8746 27.795C67.1196 27.1416 67.4463 26.4183 67.8546 25.625C68.2629 24.8316 68.7179 24.0149 69.2196 23.1749C69.7213 22.3349 70.2229 21.5591 70.7246 20.8475C71.2263 20.1358 71.7046 19.535 72.1596 19.045C72.6146 18.555 73.0054 18.2633 73.3321 18.17C73.3554 17.89 73.4838 17.68 73.7171 17.54C73.9504 17.4 74.1838 17.3066 74.4171 17.26C74.1138 17.9366 73.8163 18.6716 73.5246 19.465C73.2329 20.2583 72.9704 21.0633 72.7371 21.8799C72.5038 22.6966 72.3171 23.5133 72.1771 24.33C72.0371 25.1466 71.9671 25.9283 71.9671 26.6749C71.9671 27.2116 72.1304 27.6841 72.4571 28.0925C72.7838 28.5008 73.1921 28.8508 73.6821 29.1425C74.1721 29.4341 74.6971 29.6558 75.2571 29.8075C75.8171 29.9591 76.3188 30.035 76.7621 30.035ZM75.0471 14.915C74.9304 14.915 74.8721 14.8683 74.8721 14.775V14.705C74.8721 14.5883 74.9304 14.53 75.0471 14.53C75.0938 14.53 75.1638 14.5475 75.2571 14.5825C75.3504 14.6175 75.3971 14.67 75.3971 14.74C75.3971 14.7866 75.3504 14.8275 75.2571 14.8625C75.1638 14.8975 75.0938 14.915 75.0471 14.915ZM75.2921 19.815C75.1754 19.815 75.1171 19.78 75.1171 19.71C75.1171 19.6633 75.1638 19.5875 75.2571 19.4825C75.3504 19.3775 75.4204 19.325 75.4671 19.325C75.5138 19.325 75.5371 19.36 75.5371 19.43C75.5371 19.5233 75.5254 19.6108 75.5021 19.6925C75.4788 19.7741 75.4088 19.815 75.2921 19.815ZM65.5971 26.325C65.5038 26.325 65.4279 26.2666 65.3696 26.15C65.3113 26.0333 65.2821 25.94 65.2821 25.87C65.2821 25.8 65.3054 25.7649 65.3521 25.7649C65.4221 25.7649 65.4921 25.8175 65.5621 25.9225C65.6321 26.0275 65.6671 26.1149 65.6671 26.1849V26.2549C65.6671 26.3016 65.6438 26.325 65.5971 26.325ZM74.6621 26.6749C74.5688 26.6749 74.5221 26.6516 74.5221 26.6049L74.5251 26.6159L74.5308 26.5743C74.5425 26.5335 74.5658 26.4985 74.6008 26.4693L74.6621 26.43C74.7554 26.3833 74.8371 26.36 74.9071 26.36C74.9771 26.36 75.0121 26.395 75.0121 26.465C75.0121 26.535 74.9654 26.5874 74.8721 26.6224C74.7788 26.6574 74.7088 26.6749 74.6621 26.6749ZM90.3771 10.925C90.5171 10.925 90.6221 10.9075 90.6921 10.8725C90.7621 10.8375 90.8438 10.7616 90.9371 10.645C91.1704 10.295 91.3746 9.90412 91.5496 9.47245C91.7246 9.04078 91.9054 8.60328 92.0921 8.15995C92.2788 7.71662 92.4888 7.29662 92.7221 6.89995C92.9554 6.50328 93.2354 6.16495 93.5621 5.88495L93.5179 5.74592C93.4287 5.51583 93.2626 5.29384 93.0196 5.07995C92.7279 4.82328 92.3954 4.60162 92.0221 4.41495C91.6488 4.22828 91.2696 4.07662 90.8846 3.95995C90.4996 3.84328 90.1671 3.78495 89.8871 3.78495C89.6538 3.78495 89.3679 3.94828 89.0296 4.27495C88.6913 4.60162 88.3704 4.98078 88.0671 5.41245C87.7638 5.84412 87.5013 6.27578 87.2796 6.70745C87.0579 7.13912 86.9471 7.45995 86.9471 7.66995C86.9471 7.80995 86.9763 7.94412 87.0346 8.07245L87.0832 8.20273C87.1091 8.29088 87.1221 8.38162 87.1221 8.47495C87.1221 8.52162 87.1104 8.56828 87.0871 8.61495C87.0638 8.66162 87.0521 8.70828 87.0521 8.75495C87.0054 8.94162 87.1221 9.16328 87.4021 9.41995C87.6821 9.67662 88.0146 9.91578 88.3996 10.1375C88.7846 10.3591 89.1638 10.5458 89.5371 10.6975C89.9104 10.8491 90.1904 10.925 90.3771 10.925ZM84.9171 29.7199C85.4071 29.8833 85.7221 29.9416 85.8621 29.895L88.2771 29.09C88.4404 29.0433 88.7146 28.8099 89.0996 28.3899C89.4846 27.9699 89.9338 27.4566 90.4471 26.85C90.9604 26.2433 91.4854 25.5841 92.0221 24.8724C92.5588 24.1608 93.0604 23.4783 93.5271 22.825C93.9938 22.1716 94.3729 21.6 94.6646 21.11C94.9563 20.62 95.1138 20.2933 95.1371 20.1299L94.8571 19.85C94.3438 19.85 93.8304 19.8616 93.3171 19.885L91.7771 19.955C91.0304 21.215 90.2196 22.4224 89.3446 23.5774C88.4696 24.7324 87.4721 25.8 86.3521 26.78L86.3171 26.2199C86.3171 26.0566 86.3754 25.6775 86.4921 25.0825C86.6088 24.4875 86.7546 23.7991 86.9296 23.0175C87.1046 22.2358 87.3029 21.4133 87.5246 20.5499C87.7463 19.6866 87.9679 18.8816 88.1896 18.135C88.4113 17.3883 88.6096 16.77 88.7846 16.28C88.9596 15.79 89.1054 15.5216 89.2221 15.475L89.7821 14.355C89.7121 14.215 89.5254 14.0283 89.2221 13.795C88.9188 13.5616 88.5863 13.3341 88.2246 13.1125C87.8629 12.8908 87.5071 12.6983 87.1571 12.535C86.8071 12.3716 86.5504 12.29 86.3871 12.29C86.3638 12.29 86.2996 12.3133 86.1946 12.36C86.0896 12.4066 85.9671 12.4533 85.8271 12.5C85.6871 12.5466 85.5529 12.5933 85.4246 12.64C85.2963 12.6866 85.2204 12.7216 85.1971 12.745C85.1738 12.9783 85.0979 13.2 84.9696 13.41C84.8413 13.62 84.6838 13.8066 84.4971 13.97C84.5671 14.2033 84.5088 14.4075 84.3221 14.5825C84.1354 14.7575 83.9954 14.9383 83.9021 15.125C83.5988 15.8483 83.2954 16.6941 82.9921 17.6625C82.6888 18.6308 82.4204 19.6341 82.1871 20.6725C81.9538 21.7108 81.7671 22.7375 81.6271 23.7525C81.4871 24.7675 81.4171 25.66 81.4171 26.43C81.4171 26.92 81.6213 27.3866 82.0296 27.83C82.4379 28.2733 82.8988 28.6583 83.4121 28.985C83.9254 29.3116 84.4271 29.5566 84.9171 29.7199ZM85.9321 17.925C85.8854 17.925 85.8154 17.8958 85.7221 17.8375C85.6288 17.7791 85.5821 17.7266 85.5821 17.68C85.5821 17.6566 85.6054 17.645 85.6521 17.645H85.7921C85.8388 17.645 85.8738 17.6391 85.8971 17.6275C85.9204 17.6158 85.9554 17.61 86.0021 17.61C86.0721 17.61 86.1071 17.6566 86.1071 17.75L86.1051 17.735L86.1022 17.7791C86.0893 17.8569 86.0504 17.9036 85.9856 17.9191L85.9321 17.925ZM83.9021 21.705C83.7854 21.705 83.7271 21.6233 83.7271 21.4599C83.7271 21.4133 83.7388 21.3608 83.7621 21.3025C83.7854 21.2441 83.8204 21.215 83.8671 21.215C83.9138 21.215 83.9488 21.25 83.9721 21.32C83.9954 21.39 84.0071 21.4483 84.0071 21.495L84.0061 21.479L84.0027 21.5343L83.9896 21.6175C83.9779 21.6758 83.9488 21.705 83.9021 21.705ZM95.1721 30C95.6154 30 96.1521 29.8191 96.7821 29.4575C97.4121 29.0958 98.0713 28.6291 98.7596 28.0575C99.4479 27.4858 100.125 26.8441 100.79 26.1325C101.455 25.4208 102.055 24.7091 102.592 23.9974C103.129 23.2858 103.566 22.6091 103.905 21.9675C104.243 21.3258 104.412 20.795 104.412 20.375L104.132 20.025C103.012 20.025 102.079 20.2758 101.332 20.7775C100.585 21.2791 99.9088 21.8975 99.3021 22.6325C98.6954 23.3675 98.1063 24.1491 97.5346 24.9775C96.9629 25.8058 96.2921 26.5466 95.5221 27.2L95.4521 26.29C95.4521 25.8 95.5221 25.2925 95.6621 24.7675C95.8021 24.2425 95.9596 23.7233 96.1346 23.2099C96.3096 22.6966 96.4671 22.1891 96.6071 21.6875C96.7471 21.1858 96.8171 20.69 96.8171 20.2C96.8171 19.85 96.8696 19.5175 96.9746 19.2025C97.0796 18.8875 97.2021 18.5783 97.3421 18.275C97.4821 17.9716 97.6046 17.6683 97.7096 17.365C97.8146 17.0616 97.8671 16.735 97.8671 16.385L98.2871 15.86C98.3571 15.09 98.5788 14.3258 98.9521 13.5675C99.3254 12.8091 99.6638 12.08 99.9671 11.38C100.224 11.3333 100.492 11.3041 100.772 11.2925C101.052 11.2808 101.32 11.275 101.577 11.275C102.347 11.275 103.135 11.3391 103.94 11.4675C104.745 11.5958 105.45 11.9283 106.057 12.465L106.112 12.3561L106.145 12.29C106.18 12.22 106.197 12.1616 106.197 12.115C106.197 11.905 106.127 11.59 105.987 11.17C105.847 10.75 105.666 10.3241 105.445 9.89245C105.223 9.46078 104.978 9.08745 104.71 8.77245C104.441 8.45745 104.19 8.29995 103.957 8.29995C103.77 8.29995 103.607 8.35245 103.467 8.45745C103.327 8.56245 103.164 8.61495 102.977 8.61495C102.767 8.61495 102.563 8.59745 102.365 8.56245C102.166 8.52745 101.962 8.49828 101.752 8.47495L102.207 7.94995C102.184 7.78662 102.02 7.58245 101.717 7.33745C101.414 7.09245 101.07 6.85328 100.685 6.61995C100.3 6.38662 99.9263 6.18245 99.5646 6.00745C99.2029 5.83245 98.9404 5.74495 98.7771 5.74495C98.3338 5.74495 97.9779 5.84412 97.7096 6.04245C97.4413 6.24078 97.2138 6.49162 97.0271 6.79495C96.8404 7.09828 96.6538 7.43078 96.4671 7.79245C96.2804 8.15412 96.0588 8.48662 95.8021 8.78995C95.5454 9.09328 95.2188 9.34412 94.8221 9.54245C94.4254 9.74078 93.9121 9.83995 93.2821 9.83995C92.7921 9.83995 92.3838 9.72328 92.0571 9.48995C92.0338 9.55995 91.9988 9.64745 91.9521 9.75245C91.9054 9.85745 91.8821 9.94495 91.8821 10.015C91.8821 10.2016 91.9171 10.4058 91.9871 10.6275C92.0571 10.8491 92.1504 11.0591 92.2671 11.2575C92.3838 11.4558 92.5354 11.6191 92.7221 11.7475C92.9088 11.8758 93.1071 11.94 93.3171 11.94C93.5271 11.94 93.7254 11.9225 93.9121 11.8875C94.0988 11.8525 94.2971 11.8583 94.5071 11.905C94.0871 13.0016 93.6554 14.1275 93.2121 15.2825C92.7688 16.4375 92.3663 17.61 92.0046 18.8C91.6429 19.99 91.3454 21.1916 91.1121 22.405C90.8788 23.6183 90.7621 24.82 90.7621 26.01C90.7621 26.64 90.8788 27.2058 91.1121 27.7075C91.3454 28.2091 91.6604 28.6291 92.0571 28.9675C92.4538 29.3058 92.9204 29.5624 93.4571 29.7374C93.9938 29.9124 94.5654 30 95.1721 30ZM97.4121 12.99C97.3888 12.99 97.3771 12.955 97.3771 12.885V12.64C97.3771 12.57 97.4121 12.535 97.4821 12.535C97.6221 12.535 97.6921 12.605 97.6921 12.745C97.6921 12.7916 97.6746 12.8208 97.6396 12.8325C97.6046 12.8441 97.5754 12.8616 97.5521 12.885C97.5288 12.9083 97.5054 12.9258 97.4821 12.9375L97.4471 12.9593L97.4121 12.99ZM106.687 38.54C107.317 38.54 107.976 38.2774 108.665 37.7524C109.353 37.2274 109.989 36.5974 110.572 35.8624C111.155 35.1274 111.634 34.3516 112.007 33.535C112.38 32.7183 112.567 32.0183 112.567 31.4349L112.532 30.9799L112.882 30.525L112.917 29.895C113.477 29.9416 114.078 29.7958 114.72 29.4575C115.361 29.1191 116.003 28.67 116.645 28.11C117.286 27.55 117.916 26.9024 118.535 26.1674C119.153 25.4324 119.719 24.6975 120.232 23.9625C120.745 23.2275 121.183 22.5158 121.545 21.8274C121.906 21.1391 122.157 20.5499 122.297 20.0599L120.897 19.99L118.937 20.025C118.517 20.585 118.12 21.1566 117.747 21.74C117.374 22.3233 116.989 22.9008 116.592 23.4725C116.195 24.0441 115.775 24.5925 115.332 25.1175C114.889 25.6425 114.387 26.1266 113.827 26.57L113.792 26.36C113.792 26.2666 113.839 26.0391 113.932 25.6775C114.025 25.3158 114.13 24.9308 114.247 24.5224C114.364 24.1141 114.48 23.7291 114.597 23.3675C114.714 23.0058 114.795 22.7783 114.842 22.6849L114.737 22.2299C114.924 22.0433 115.005 21.8216 114.982 21.565C114.959 21.3083 115.04 21.0866 115.227 20.9L115.192 20.305C115.425 20.0016 115.635 19.64 115.822 19.22C116.009 18.8 116.178 18.3508 116.33 17.8725C116.481 17.3941 116.633 16.9275 116.785 16.4725C116.936 16.0175 117.105 15.6033 117.292 15.23C117.339 15.1833 117.409 15.055 117.502 14.845C117.595 14.635 117.642 14.5066 117.642 14.46C117.642 14.25 117.49 14.0341 117.187 13.8125C116.884 13.5908 116.528 13.3866 116.12 13.2C115.711 13.0133 115.309 12.8616 114.912 12.745C114.515 12.6283 114.224 12.57 114.037 12.57C113.524 12.57 113.075 12.9025 112.69 13.5675C112.305 14.2325 111.937 15.0725 111.587 16.0875C111.237 17.1025 110.881 18.2108 110.52 19.4125C110.158 20.6141 109.732 21.7516 109.242 22.825C108.752 23.8983 108.169 24.82 107.492 25.59C106.815 26.36 105.987 26.8266 105.007 26.99L104.972 25.7299C104.972 25.1466 105.071 24.54 105.27 23.91C105.468 23.28 105.684 22.65 105.917 22.02C106.15 21.39 106.366 20.7775 106.565 20.1825C106.763 19.5875 106.862 19.01 106.862 18.45L106.792 18.065C106.885 18.0183 107.008 17.8433 107.16 17.54C107.311 17.2366 107.469 16.8983 107.632 16.525C107.795 16.1516 107.935 15.7958 108.052 15.4575C108.169 15.1191 108.227 14.8916 108.227 14.775C108.227 14.4716 108.099 14.18 107.842 13.9C107.585 13.62 107.276 13.3866 106.915 13.2C106.553 13.0133 106.18 12.8616 105.795 12.745C105.41 12.6283 105.089 12.57 104.832 12.57C104.435 12.57 104.103 12.7333 103.835 13.06C103.566 13.3866 103.333 13.7716 103.135 14.215C102.936 14.6583 102.755 15.1075 102.592 15.5625C102.429 16.0175 102.254 16.3733 102.067 16.63L102.137 17.155C101.88 17.435 101.624 18.0241 101.367 18.9225C101.11 19.8208 100.889 20.8008 100.702 21.8624C100.515 22.9241 100.364 23.9449 100.247 24.9249C100.13 25.9049 100.072 26.6166 100.072 27.0599C100.072 27.4566 100.27 27.83 100.667 28.18C101.064 28.53 101.53 28.8275 102.067 29.0725C102.604 29.3175 103.158 29.51 103.73 29.65C104.301 29.79 104.75 29.86 105.077 29.86C105.31 29.86 105.538 29.8541 105.76 29.8425C105.981 29.8308 106.197 29.7666 106.407 29.65L106.582 29.3349C106.979 29.2649 107.335 29.0899 107.65 28.8099C107.965 28.5299 108.285 28.285 108.612 28.075C108.612 28.3783 108.449 28.67 108.122 28.95C107.795 29.23 107.393 29.5158 106.915 29.8075C106.436 30.0991 105.923 30.4025 105.375 30.7175C104.826 31.0325 104.313 31.3825 103.835 31.7675C103.356 32.1525 102.96 32.5783 102.645 33.045C102.33 33.5116 102.172 34.0366 102.172 34.62C102.172 35.4833 102.26 36.1716 102.435 36.685C102.61 37.1983 102.878 37.595 103.24 37.875C103.601 38.155 104.068 38.3358 104.64 38.4174C105.211 38.4991 105.894 38.54 106.687 38.54ZM104.692 14.845C104.645 14.845 104.622 14.8333 104.622 14.81C104.599 14.7866 104.587 14.7166 104.587 14.6C104.587 14.53 104.622 14.495 104.692 14.495L104.712 14.4999C104.745 14.5129 104.809 14.5521 104.902 14.6175C105.019 14.6991 105.077 14.7516 105.077 14.775C105.077 14.7983 105.054 14.81 105.007 14.81C104.96 14.81 104.908 14.8158 104.85 14.8275L104.766 14.8406L104.692 14.845ZM115.402 15.37C115.379 15.37 115.361 15.3641 115.35 15.3525C115.338 15.3408 115.309 15.335 115.262 15.335H115.192C115.145 15.335 115.11 15.3408 115.087 15.3525C115.064 15.3641 115.04 15.37 115.017 15.37C114.994 15.37 114.982 15.3291 114.982 15.2475V15.09C114.982 15.02 115.017 14.985 115.087 14.985C115.134 14.985 115.215 15.0258 115.332 15.1075C115.449 15.1891 115.507 15.2533 115.507 15.3C115.507 15.3466 115.472 15.37 115.402 15.37ZM112.112 19.57L112.073 19.5043L112.025 19.4475C111.99 19.4125 111.972 19.3716 111.972 19.325C111.972 19.255 112.065 19.2024 112.252 19.1674C112.439 19.1324 112.555 19.115 112.602 19.115C112.765 19.115 112.847 19.1733 112.847 19.29V19.36C112.847 19.29 112.824 19.255 112.777 19.255C112.707 19.255 112.59 19.2958 112.427 19.3775C112.264 19.4591 112.159 19.5233 112.112 19.57ZM104.937 19.745H104.902C104.809 19.745 104.762 19.6983 104.762 19.6049C104.762 19.5583 104.78 19.4883 104.815 19.395C104.85 19.3016 104.89 19.255 104.937 19.255C105.03 19.255 105.077 19.3366 105.077 19.5C105.077 19.5466 105.065 19.5991 105.042 19.6575C105.019 19.7158 104.984 19.745 104.937 19.745ZM112.952 23.5599C112.905 23.5599 112.835 23.5075 112.742 23.4025C112.649 23.2975 112.579 23.2333 112.532 23.2099C112.509 23.2333 112.485 23.2683 112.462 23.315C112.439 23.3616 112.404 23.385 112.357 23.385C112.31 23.385 112.287 23.35 112.287 23.28C112.287 23.21 112.322 23.1749 112.392 23.1749H112.497C112.544 23.1749 112.585 23.1574 112.62 23.1224L112.657 23.0933C112.682 23.0777 112.711 23.07 112.742 23.07C112.789 23.07 112.835 23.1341 112.882 23.2625C112.929 23.3908 112.952 23.4783 112.952 23.525V23.5599ZM104.622 35.985C104.529 35.8916 104.482 35.7633 104.482 35.6C104.482 35.4366 104.517 35.25 104.587 35.04C104.657 34.83 104.745 34.62 104.85 34.41C104.955 34.2 105.077 34.0075 105.217 33.8325C105.357 33.6575 105.485 33.5116 105.602 33.395C105.672 33.325 105.789 33.22 105.952 33.08C106.115 32.94 106.29 32.8 106.477 32.66C106.664 32.52 106.839 32.4033 107.002 32.3099C107.165 32.2166 107.305 32.17 107.422 32.17C107.515 32.17 107.562 32.2283 107.562 32.3449C107.562 32.6716 107.475 33.0391 107.3 33.4475C107.125 33.8558 106.897 34.2466 106.617 34.62C106.337 34.9933 106.022 35.3083 105.672 35.565C105.322 35.8216 104.972 35.9616 104.622 35.985Z" fill="#201C26"/>
</svg>
