<?xml version="1.0" encoding="UTF-8"?>
<svg width="242px" height="38px" viewBox="0 0 242 38" version="1.1" xmlns="http://www.w3.org/2000/svg" xmlns:xlink="http://www.w3.org/1999/xlink">
    <title>british-airways-white</title>
    <g id="Client-logos-white" stroke="none" stroke-width="1" fill="none" fill-rule="evenodd">
        <g id="Artboard-Copy-4" transform="translate(-15.000000, -18.000000)" fill="#FFFFFF" fill-rule="nonzero">
            <g id="british-airways-white" transform="translate(15.000000, 18.000000)">
                <g id="Group" transform="translate(0.000000, 20.000000)">
                    <path d="M0.388,17.242 C0.918,16.971 1.155,16.328 1.155,15.778 L1.155,2.285 C1.155,1.714 0.918,1.09 0.388,0.803 L6.819,0.803 C9.687,0.803 12.485,1.977 12.485,5.233 C12.485,6.96 10.98,8.322 9.357,8.628 C11.695,8.607 13.954,10.035 13.954,12.615 C13.954,16.302 10.087,17.243 7.367,17.243 L0.388,17.243 L0.388,17.242 Z M5.594,2.219 C5.296,2.219 5.089,2.219 4.54,2.285 L4.54,8.039 L5.191,8.039 C7.162,8.039 9.067,7.43 9.067,5.146 C9.067,2.88 7.544,2.219 5.594,2.219 Z M6.004,9.52 C5.534,9.52 5.112,9.52 4.54,9.563 L4.54,15.639 C5.253,15.779 6.024,15.825 6.735,15.825 C8.385,15.825 10.063,15.089 10.063,12.568 C10.063,10.08 8.079,9.52 6.004,9.52 L6.004,9.52 Z M20.314,2.219 C20.02,2.219 19.761,2.267 19.471,2.308 L19.471,7.993 C19.74,8.012 19.984,8.04 20.25,8.04 C22.1,8.04 23.469,7.019 23.469,5.007 C23.469,2.951 22.123,2.219 20.314,2.219 Z M28.603,17.339 C27.973,17.339 27.278,17.362 26.676,17.184 C25.557,16.854 24.012,14.332 23.398,13.343 C22.443,11.735 21.613,9.52 19.472,9.496 L19.472,15.778 C19.472,16.328 19.721,16.994 20.251,17.242 L15.314,17.242 C15.833,16.971 16.08,16.353 16.08,15.778 L16.08,2.285 C16.08,1.714 15.832,1.09 15.314,0.803 L21.258,0.803 C23.844,0.803 27.08,1.796 27.08,4.903 C27.08,7.51 24.923,8.846 22.518,8.846 C25.94,8.866 27.95,16.893 31.728,16.916 C30.715,17.216 29.659,17.339 28.603,17.339 L28.603,17.339 Z M31.976,17.242 C32.384,17.055 32.811,16.516 32.811,15.778 L32.811,2.285 C32.811,1.536 32.384,1.006 31.976,0.803 L37.035,0.803 C36.601,1.006 36.205,1.536 36.205,2.285 L36.205,15.778 C36.205,16.516 36.601,17.055 37.035,17.242 L31.976,17.242 Z M42.954,17.242 C43.496,16.994 43.761,16.353 43.761,15.778 L43.761,2.688 L40.128,2.688 C39.29,2.688 38.291,2.791 37.571,3.218 L38.7,0.802 L50.75,0.802 C51.726,0.802 52.724,0.781 53.672,0.579 C53.213,1.816 51.847,2.733 51.06,2.733 C50.103,2.711 48.52,2.647 47.156,2.647 L47.156,15.777 C47.156,16.352 47.441,16.993 47.973,17.241 L42.954,17.241 L42.954,17.242 Z M54.274,17.242 C54.678,17.055 55.102,16.516 55.102,15.778 L55.102,2.285 C55.102,1.536 54.678,1.006 54.274,0.803 L59.333,0.803 C58.903,1.006 58.491,1.536 58.491,2.285 L58.491,15.778 C58.491,16.516 58.903,17.055 59.333,17.242 L54.274,17.242 Z M69.183,13.523 C69.183,10.392 61.808,9.685 61.808,4.687 C61.808,1.593 64.751,0.58 67.339,0.58 C68.494,0.58 70.165,0.74 71.221,1.226 L71.405,4.299 C70.756,2.942 69.131,1.959 67.622,1.959 C66.429,1.959 65.179,2.549 65.179,3.913 C65.179,7.16 72.679,7.953 72.679,12.687 C72.679,16.123 69.677,17.546 66.647,17.546 C65.062,17.546 62.906,17.241 61.569,16.327 C61.488,15.777 61.451,15.202 61.451,14.639 C61.451,13.968 61.51,13.295 61.609,12.633 C62.443,14.534 64.169,16.021 66.325,16.021 C67.963,16.022 69.183,15.308 69.183,13.523 L69.183,13.523 Z M84.983,17.242 C85.34,17.081 85.722,16.516 85.722,15.778 L85.722,9.661 C84.842,9.562 83.613,9.519 82.234,9.519 C80.834,9.519 79.595,9.562 78.693,9.661 L78.693,15.778 C78.693,16.516 79.065,17.055 79.427,17.242 L74.556,17.242 C74.917,17.081 75.302,16.516 75.302,15.778 L75.302,2.285 C75.302,1.536 74.917,0.984 74.556,0.803 L79.427,0.803 C79.065,0.985 78.693,1.536 78.693,2.285 L78.693,7.812 C79.595,7.907 80.812,7.953 82.234,7.953 C83.613,7.953 84.842,7.893 85.722,7.812 L85.722,2.285 C85.722,1.536 85.341,0.984 84.983,0.803 L89.847,0.803 C89.483,0.985 89.122,1.536 89.122,2.285 L89.122,15.778 C89.122,16.516 89.483,17.055 89.847,17.242 L84.983,17.242 Z" id="Shape"></path>
                    <path d="M107.902,17.242 C108.059,17.081 108.201,16.961 108.201,16.67 C108.201,16.572 108.164,16.408 108.044,16.102 C108.044,16.102 106.694,12.428 106.536,12 C105.522,11.875 104.465,11.875 103.43,11.875 C102.448,11.875 101.451,11.898 100.478,12 C100.34,12.368 98.893,16.022 98.893,16.022 C98.698,16.516 98.631,16.685 98.631,16.793 C98.631,17.037 98.841,17.156 99.019,17.242 L95.71,17.242 C96.198,16.994 96.621,16.484 96.83,15.976 L102.268,1.94 C102.293,1.882 102.302,1.817 102.302,1.738 C102.302,1.351 102.045,0.984 101.699,0.802 L105.965,0.802 L111.496,15.962 C111.722,16.571 112.204,17.015 112.609,17.241 L107.902,17.241 L107.902,17.242 Z M103.607,3.932 L101.114,10.332 C101.857,10.414 102.628,10.433 103.38,10.433 C104.242,10.433 105.094,10.433 105.932,10.332 L103.607,3.932 Z M113.451,17.242 C113.859,17.055 114.281,16.516 114.281,15.778 L114.281,2.285 C114.281,1.536 113.859,1.006 113.451,0.803 L118.507,0.803 C118.077,1.006 117.676,1.536 117.676,2.285 L117.676,15.778 C117.676,16.516 118.076,17.055 118.507,17.242 L113.451,17.242 Z M126.193,2.219 C125.92,2.219 125.658,2.267 125.374,2.308 L125.374,7.993 C125.638,8.012 125.879,8.04 126.136,8.04 C127.99,8.04 129.356,7.019 129.356,5.007 C129.355,2.951 128.004,2.219 126.193,2.219 Z M134.895,17.339 C134.265,17.339 133.585,17.362 132.969,17.184 C131.848,16.854 130.307,14.332 129.692,13.343 C128.741,11.735 127.503,9.496 125.374,9.496 L125.374,15.778 C125.374,16.328 125.612,16.994 126.136,17.242 L121.203,17.242 C121.733,16.971 121.98,16.353 121.98,15.778 L121.98,2.285 C121.98,1.714 121.733,1.09 121.203,0.803 L127.16,0.803 C129.739,0.803 132.97,1.796 132.97,4.903 C132.97,7.51 130.613,8.846 128.829,8.846 C132.376,9.05 134.515,16.916 138.034,16.916 C137.014,17.216 135.958,17.339 134.895,17.339 L134.895,17.339 Z M155.405,2.408 L150.409,17.242 C149.997,17.242 149.593,17.1 149.364,16.939 C148.87,16.463 148.093,14.476 147.813,13.743 L145.555,8.039 L142.303,17.242 L140.755,17.242 L135.164,2.371 C134.924,1.738 134.514,1.131 133.904,0.803 L138.763,0.803 C138.558,0.962 138.417,1.143 138.417,1.489 C138.417,1.655 138.499,1.884 138.558,2.061 L142.199,11.899 L146.076,0.803 L150.346,11.5 L153.58,1.817 C153.66,1.554 153.707,1.457 153.707,1.291 C153.707,1.09 153.62,0.962 153.417,0.803 L156.635,0.803 C156.04,1.115 155.61,1.796 155.405,2.408 L155.405,2.408 Z M161.377,3.932 L158.885,10.332 C159.637,10.414 160.406,10.433 161.156,10.433 C162.009,10.433 162.871,10.433 163.704,10.332 L161.377,3.932 Z M165.667,17.242 C165.837,17.081 165.966,16.961 165.966,16.67 C165.966,16.572 165.916,16.408 165.817,16.102 C165.817,16.102 164.476,12.428 164.313,12 C163.29,11.875 162.235,11.875 161.2,11.875 C160.227,11.875 159.229,11.898 158.251,12 C158.11,12.368 156.673,16.022 156.673,16.022 C156.466,16.516 156.409,16.685 156.409,16.793 C156.409,17.037 156.61,17.156 156.786,17.242 L153.476,17.242 C153.965,16.994 154.387,16.484 154.592,15.976 L160.049,1.94 C160.065,1.882 160.08,1.817 160.08,1.738 C160.08,1.351 159.822,0.984 159.467,0.802 L163.737,0.802 L169.266,15.962 C169.495,16.571 169.983,17.015 170.385,17.241 L165.667,17.241 L165.667,17.242 Z M180.522,2.529 L176.628,9.357 L176.628,15.778 C176.628,16.3 176.842,16.994 177.362,17.242 L172.517,17.242 C173.012,16.971 173.24,16.283 173.24,15.778 L173.24,9.336 L169.855,3.913 C169.552,3.406 168.14,1.043 166.419,1.043 C166.887,0.865 168.31,0.594 169.265,0.594 C170.858,0.594 171.647,0.74 172.622,2.267 L175.754,7.231 C176.017,6.744 178.497,2.432 178.497,2.432 C178.796,1.907 179.001,1.536 179.001,1.352 C179.001,1.116 178.899,0.962 178.659,0.803 L182.149,0.803 C181.465,1.131 180.895,1.883 180.522,2.529 Z M189.637,13.523 C189.637,10.392 182.261,9.685 182.261,4.687 C182.261,1.593 185.196,0.58 187.785,0.58 C188.944,0.58 190.605,0.74 191.666,1.226 L191.85,4.299 C191.194,2.942 189.576,1.959 188.066,1.959 C186.871,1.959 185.629,2.549 185.629,3.913 C185.629,7.16 193.129,7.953 193.129,12.687 C193.129,16.123 190.148,17.546 187.096,17.546 C185.512,17.546 183.351,17.241 182.012,16.327 C181.925,15.777 181.883,15.202 181.883,14.639 C181.883,13.968 181.947,13.295 182.049,12.633 C182.882,14.534 184.614,16.021 186.77,16.021 C188.415,16.022 189.637,15.308 189.637,13.523 L189.637,13.523 Z" id="Shape"></path>
                </g>
                <path d="M235.014,9.296 C232.25,12.043 226.262,14.401 223.316,15.505 C219.291,17.017 217.505,17.552 215.253,18.285 C212.704,19.112 207.605,20.655 207.605,20.655 C218.168,23.809 225.612,24.76 225.612,24.76 C225.612,24.76 229.08,23.688 234.574,20.75 C237.549,19.238 239.013,18.22 240.06,17.247 C240.446,16.898 241.443,15.86 241.691,14.532 C241.707,14.435 241.755,14.181 241.755,13.931 C241.755,13.931 241.755,13.755 241.739,13.602 C241.733,13.426 241.702,13.308 241.702,13.308 C241.702,13.308 241.643,12.993 241.565,12.772 C241.484,12.551 241.144,11.869 240.593,11.426 C240.225,11.127 239.589,10.382 237.285,9.572 C236.502,9.3 235.234,9.049 235.234,9.049 L235.014,9.296 Z" id="Path"></path>
                <path d="M241.754,13.861 C241.754,13.861 241.738,13.567 241.666,13.318 C241.61,13.096 241.511,12.884 241.362,12.661 C241.182,12.396 240.939,12.085 240.58,11.741 C240.309,11.485 240.012,11.259 239.654,11.019 C238.213,10.075 236.353,9.543 234.707,9.318 C232.156,8.979 229.23,9.039 228.953,9.029 C228.012,9.016 221.932,9.066 220.369,9.094 C213.428,9.237 204.931,9.256 202.705,9.256 C179.726,9.361 169.724,8.866 158.592,6.634 C149.122,4.753 143.868,2.966 143.868,2.966 C152.221,2.677 200.959,0.655 209.85,0.419 C215.671,0.255 219.804,0.22 223.111,0.411 C224.807,0.506 226.385,0.65 228.367,0.987 C230.144,1.291 231.758,1.807 232.698,2.156 C234.678,2.889 236.347,3.949 237.172,5.035 C237.172,5.035 237.416,5.285 237.747,5.729 C238.118,6.245 238.549,6.88 238.695,7.117 C239.9,8.943 240.472,10.09 240.671,10.49 C240.886,10.91 241.076,11.346 241.261,11.773 C241.442,12.197 241.516,12.454 241.574,12.633 C241.701,13.082 241.732,13.491 241.738,13.583 L241.754,13.861 Z" id="Path"></path>
            </g>
        </g>
    </g>
</svg>