<?xml version="1.0" encoding="UTF-8"?>
<svg width="172px" height="51px" viewBox="0 0 172 51" version="1.1" xmlns="http://www.w3.org/2000/svg" xmlns:xlink="http://www.w3.org/1999/xlink">
    <title>dugout</title>
    <g id="Client-logos-white" stroke="none" stroke-width="1" fill="none" fill-rule="evenodd">
        <g id="Artboard-Copy-11" transform="translate(-83.000000, -48.000000)" fill="#FFFFFF" fill-rule="nonzero">
            <g id="dugout" transform="translate(83.000000, 48.000000)">
                <path d="M160.08,45.33 L160.08,50.28 L157.35,50.28 L157.35,38.04 L163.47,38.04 L163.47,40.38 L160.08,40.38 L160.08,42.96 L163.17,42.96 L163.17,45.3 L160.08,45.3 L160.08,45.33 Z M171.45,42.69 L168.9,42.69 L168.9,40.71 C168.9,40.5 168.78,40.38 168.57,40.38 L167.43,40.38 C167.22,40.38 167.13,40.5 167.13,40.71 L167.13,47.58 C167.13,47.79 167.22,47.91 167.43,47.91 L168.57,47.91 C168.78,47.91 168.9,47.79 168.9,47.58 L168.9,45.6 L171.45,45.6 L171.45,48.18 C171.45,48.9 171.27,49.41 170.94,49.77 C170.61,50.1 169.95,50.28 168.96,50.28 L166.89,50.28 C165.9,50.28 165.24,50.1 164.91,49.77 C164.58,49.44 164.4,48.9 164.4,48.18 L164.4,40.11 C164.4,39.39 164.58,38.88 164.91,38.52 C165.24,38.19 165.9,38.01 166.89,38.01 L168.96,38.01 C169.95,38.01 170.61,38.19 170.94,38.52 C171.27,38.85 171.45,39.39 171.45,40.11 L171.45,42.69 Z M11.52,50.28 L11.52,11.52 L26.49,11.52 C29.61,11.55 31.71,12.06 32.79,13.11 C33.84,14.19 34.38,15.87 34.38,18.12 L34.38,43.68 C34.38,45.93 33.84,47.61 32.79,48.69 C31.74,49.74 29.64,50.28 26.49,50.28 L11.52,50.28 Z M20.16,42.81 L24.72,42.81 C25.38,42.81 25.71,42.48 25.71,41.79 L25.71,20.01 C25.71,19.32 25.38,18.99 24.72,18.99 L20.16,18.99 L20.16,42.81 Z M51.42,11.52 L60.06,11.52 L60.06,43.68 C60.06,45.93 59.52,47.61 58.47,48.69 C57.42,49.74 55.32,50.28 52.17,50.28 L45.09,50.28 C41.97,50.25 39.87,49.74 38.79,48.69 C37.74,47.61 37.2,45.93 37.2,43.68 L37.2,11.52 L45.84,11.52 L45.84,41.79 C45.84,42.48 46.17,42.81 46.8,42.81 L50.4,42.81 C51.06,42.81 51.39,42.48 51.39,41.79 L51.39,11.52 L51.42,11.52 Z M85.77,29.34 L85.77,43.68 C85.77,45.93 85.23,47.61 84.18,48.69 C83.13,49.74 81.03,50.28 77.88,50.28 L70.8,50.28 C67.68,50.25 65.58,49.74 64.5,48.69 C63.45,47.61 62.91,45.93 62.91,43.68 L62.91,18.09 C62.91,15.84 63.45,14.16 64.5,13.08 C65.55,12.03 67.65,11.52 70.8,11.49 L77.61,11.49 C80.73,11.52 82.83,12.03 83.91,13.08 C84.96,14.16 85.5,15.84 85.5,18.09 L85.5,24.9 L77.4,24.9 L77.4,20.01 C77.4,19.32 77.07,18.99 76.41,18.99 L72.54,18.99 C71.88,18.99 71.58,19.32 71.58,20.01 L71.58,41.79 C71.58,42.48 71.91,42.81 72.54,42.81 L76.41,42.81 C77.07,42.81 77.4,42.48 77.4,41.79 L77.4,36.78 L74.52,36.78 L74.52,29.34 L85.77,29.34 Z" id="Shape"></path>
                <path d="M88.62,18.09 C88.62,15.84 89.16,14.16 90.21,13.08 C91.26,12.03 93.36,11.52 96.51,11.49 L103.59,11.49 C106.71,11.52 108.81,12.03 109.89,13.08 C110.94,14.16 111.48,15.84 111.48,18.09 L111.48,43.65 C111.48,45.9 110.94,47.58 109.89,48.66 C108.84,49.71 106.74,50.25 103.59,50.25 L96.51,50.25 C93.39,50.22 91.29,49.71 90.21,48.66 C89.16,47.58 88.62,45.9 88.62,43.65 L88.62,18.09 Z M97.26,41.79 C97.26,42.48 97.59,42.81 98.22,42.81 L101.82,42.81 C102.48,42.81 102.81,42.48 102.81,41.79 L102.81,20.01 C102.81,19.32 102.48,18.99 101.82,18.99 L98.22,18.99 C97.56,18.99 97.26,19.32 97.26,20.01 L97.26,41.79 Z M128.55,11.52 L137.19,11.52 L137.19,43.68 C137.19,45.93 136.65,47.61 135.6,48.69 C134.55,49.74 132.45,50.28 129.3,50.28 L122.22,50.28 C119.1,50.25 117,49.74 115.92,48.69 C114.87,47.61 114.33,45.93 114.33,43.68 L114.33,11.52 L122.97,11.52 L122.97,41.79 C122.97,42.48 123.3,42.81 123.93,42.81 L127.53,42.81 C128.19,42.81 128.52,42.48 128.52,41.79 L128.52,11.52 L128.55,11.52 Z M154.44,18.96 L154.44,50.25 L145.8,50.25 L145.8,18.96 L138.69,18.96 L138.69,11.52 L161.55,11.52 L161.55,18.96 L154.44,18.96 Z" id="Shape"></path>
                <polygon id="Path" points="60.06 7.65 7.65 7.65 7.65 50.28 0 50.28 0 0 67.74 0"></polygon>
                <path d="M72.12,0.03 L73.59,0.03 C73.77,0.03 73.95,0.06 74.13,0.12 C74.31,0.18 74.46,0.3 74.61,0.42 C74.76,0.57 74.85,0.72 74.94,0.93 C75.03,1.14 75.06,1.38 75.06,1.62 L75.06,2.76 C75.06,3.03 75.03,3.27 74.94,3.45 C74.85,3.66 74.76,3.81 74.61,3.96 C74.76,4.11 74.91,4.29 75,4.5 C75.09,4.71 75.15,4.98 75.15,5.28 L75.15,7.65 L74.4,7.65 L74.4,5.28 C74.4,5.01 74.31,4.8 74.19,4.65 C74.07,4.5 73.92,4.41 73.71,4.38 L72.87,4.38 L72.87,7.65 L72.12,7.65 L72.12,0.03 Z M72.87,3.63 L73.59,3.63 C73.8,3.63 73.98,3.54 74.1,3.39 C74.22,3.24 74.28,3.03 74.31,2.76 L74.31,1.65 C74.31,1.38 74.25,1.17 74.1,1.02 C73.98,0.87 73.8,0.78 73.59,0.78 L72.87,0.78 L72.87,3.63 Z M76.8,0.03 L79.38,0.03 L79.38,0.78 L77.58,0.78 L77.58,3.3 L78.99,3.3 L78.99,4.05 L77.58,4.05 L77.58,6.9 L79.38,6.9 L79.38,7.65 L76.8,7.65 L76.8,0.03 Z M82.47,0.03 C82.65,0.03 82.83,0.06 83.01,0.12 C83.19,0.18 83.34,0.3 83.49,0.42 C83.61,0.54 83.73,0.72 83.82,0.93 C83.91,1.14 83.94,1.38 83.94,1.65 L83.94,7.65 L83.19,7.65 L83.19,4.38 L81.78,4.38 L81.78,7.65 L81,7.65 L81,1.65 C81,1.38 81.03,1.14 81.12,0.93 C81.21,0.72 81.3,0.54 81.45,0.42 C81.6,0.3 81.75,0.18 81.93,0.12 C82.11,0.06 82.29,0.03 82.47,0.03 L82.47,0.03 Z M82.47,0.78 C82.26,0.78 82.08,0.87 81.96,1.02 C81.84,1.17 81.78,1.38 81.75,1.65 L81.75,3.6 L83.16,3.6 L83.16,1.65 C83.16,1.38 83.1,1.17 82.95,1.02 C82.86,0.87 82.68,0.78 82.47,0.78 Z M85.62,0.03 L86.37,0.03 L86.37,6.9 L88.17,6.9 L88.17,7.65 L85.59,7.65 L85.59,0.03 L85.62,0.03 Z M92.37,0.03 L95.31,0.03 L95.31,0.78 L93.12,0.78 L93.12,3.3 L94.98,3.3 L94.98,4.05 L93.12,4.05 L93.12,7.65 L92.37,7.65 L92.37,0.03 Z M98.43,0.03 C98.61,0.03 98.79,0.06 98.97,0.12 C99.15,0.18 99.3,0.3 99.45,0.42 C99.57,0.54 99.69,0.72 99.78,0.93 C99.87,1.14 99.9,1.38 99.9,1.65 L99.9,7.65 L99.15,7.65 L99.15,4.38 L97.74,4.38 L97.74,7.65 L96.99,7.65 L96.99,1.65 C96.99,1.38 97.02,1.14 97.11,0.93 C97.2,0.72 97.29,0.54 97.44,0.42 C97.59,0.3 97.74,0.18 97.92,0.12 C98.07,0.06 98.25,0.03 98.43,0.03 L98.43,0.03 Z M98.43,0.78 C98.22,0.78 98.04,0.87 97.92,1.02 C97.8,1.17 97.74,1.38 97.71,1.65 L97.71,3.6 L99.12,3.6 L99.12,1.65 C99.12,1.38 99.06,1.17 98.91,1.02 C98.82,0.87 98.64,0.78 98.43,0.78 Z M101.55,0.03 L102.33,0.03 L103.74,5.01 L103.74,0.03 L104.49,0.03 L104.49,7.68 L103.74,7.68 C103.59,7.14 103.41,6.6 103.26,6.03 C103.11,5.55 102.96,5.01 102.81,4.44 C102.63,3.87 102.48,3.3 102.33,2.73 L102.33,7.68 L101.55,7.68 L101.55,0.03 Z M106.17,0.03 L109.11,0.03 L109.11,0.78 L108.03,0.78 L108.03,7.65 L107.28,7.65 L107.28,0.78 L106.2,0.78 L106.2,0.03 L106.17,0.03 Z M112.23,0.03 C112.41,0.03 112.59,0.06 112.77,0.12 C112.95,0.18 113.1,0.3 113.25,0.42 C113.37,0.54 113.49,0.72 113.58,0.93 C113.67,1.14 113.7,1.38 113.7,1.65 L113.7,7.65 L112.95,7.65 L112.95,4.38 L111.54,4.38 L111.54,7.65 L110.79,7.65 L110.79,1.65 C110.79,1.38 110.82,1.14 110.91,0.93 C111,0.72 111.09,0.54 111.24,0.42 C111.39,0.3 111.54,0.18 111.72,0.12 C111.84,0.06 112.05,0.03 112.23,0.03 L112.23,0.03 Z M112.23,0.78 C112.02,0.78 111.84,0.87 111.72,1.02 C111.6,1.17 111.54,1.38 111.51,1.65 L111.51,3.6 L112.92,3.6 L112.92,1.65 C112.92,1.38 112.86,1.17 112.71,1.02 C112.62,0.87 112.44,0.78 112.23,0.78 Z M116.82,7.65 C116.64,7.65 116.46,7.62 116.28,7.56 C116.1,7.5 115.95,7.38 115.8,7.26 C115.65,7.14 115.56,6.96 115.47,6.75 C115.38,6.54 115.35,6.3 115.35,6.03 L115.35,5.49 L116.1,5.49 L116.1,6.03 C116.1,6.3 116.16,6.51 116.31,6.66 C116.43,6.81 116.61,6.9 116.82,6.9 C117.03,6.9 117.21,6.81 117.33,6.66 C117.45,6.51 117.51,6.3 117.54,6.03 C117.54,5.76 117.51,5.52 117.42,5.31 C117.33,5.1 117.24,4.89 117.12,4.68 C117,4.5 116.88,4.32 116.73,4.14 C116.58,3.99 116.46,3.81 116.34,3.69 C116.19,3.51 116.07,3.33 115.95,3.21 C115.83,3.06 115.74,2.91 115.65,2.76 C115.56,2.61 115.5,2.46 115.44,2.28 C115.38,2.1 115.38,1.92 115.38,1.68 C115.38,1.41 115.41,1.17 115.5,0.96 C115.59,0.75 115.68,0.57 115.83,0.45 C115.98,0.33 116.13,0.21 116.31,0.15 C116.49,0.09 116.67,0.06 116.85,0.06 C117.03,0.06 117.21,0.09 117.39,0.15 C117.57,0.21 117.72,0.33 117.87,0.45 C118.02,0.57 118.11,0.75 118.2,0.96 C118.29,1.17 118.32,1.41 118.32,1.68 L118.32,2.22 L117.57,2.22 L117.57,1.65 C117.57,1.38 117.51,1.17 117.36,1.02 C117.24,0.87 117.06,0.78 116.85,0.78 C116.64,0.78 116.46,0.87 116.34,1.02 C116.22,1.17 116.16,1.38 116.13,1.65 C116.13,1.89 116.16,2.1 116.22,2.25 C116.28,2.43 116.37,2.58 116.49,2.73 C116.61,2.88 116.73,3.03 116.88,3.18 C117.03,3.33 117.18,3.48 117.33,3.66 L117.69,4.11 C117.81,4.26 117.9,4.44 118.02,4.65 C118.11,4.83 118.2,5.04 118.26,5.28 C118.32,5.49 118.35,5.73 118.35,6 C118.35,6.27 118.32,6.51 118.23,6.72 C118.14,6.93 118.02,7.08 117.9,7.23 C117.75,7.38 117.6,7.47 117.42,7.53 C117.21,7.62 117.03,7.65 116.82,7.65 L116.82,7.65 Z M121.05,4.05 L119.97,0 L120.72,0 L121.44,3.06 L122.16,0 L122.91,0 L121.8,4.05 L121.8,7.65 L121.05,7.65 L121.05,4.05 Z M127.05,0.03 L129.99,0.03 L129.99,0.78 L127.8,0.78 L127.8,3.3 L129.66,3.3 L129.66,4.05 L127.8,4.05 L127.8,7.65 L127.05,7.65 L127.05,0.03 Z M133.11,7.65 C132.93,7.65 132.75,7.62 132.57,7.56 C132.39,7.5 132.24,7.38 132.09,7.26 C131.94,7.14 131.85,6.96 131.76,6.75 C131.67,6.54 131.64,6.3 131.64,6.03 L131.64,1.65 C131.64,1.38 131.67,1.14 131.76,0.93 C131.85,0.72 131.94,0.54 132.09,0.42 C132.24,0.3 132.39,0.18 132.57,0.12 C132.75,0.06 132.93,0.03 133.11,0.03 C133.29,0.03 133.47,0.06 133.65,0.12 C133.83,0.18 133.98,0.3 134.13,0.42 C134.28,0.54 134.37,0.72 134.46,0.93 C134.55,1.14 134.58,1.38 134.58,1.65 L134.58,6.42 C134.58,6.45 134.58,6.48 134.55,6.51 C134.55,6.54 134.52,6.57 134.52,6.6 C134.52,6.66 134.49,6.69 134.49,6.72 C134.49,6.75 134.46,6.75 134.46,6.78 C134.46,6.81 134.43,6.81 134.43,6.84 L134.43,6.9 L134.31,7.11 L134.28,7.14 L134.25,7.17 L134.16,7.26 L134.04,7.38 C134.01,7.41 133.95,7.44 133.92,7.47 C133.89,7.5 133.83,7.5 133.8,7.53 L133.71,7.56 C133.68,7.56 133.68,7.56 133.65,7.59 C133.53,7.62 133.44,7.65 133.32,7.65 L133.11,7.65 Z M133.11,0.78 C132.9,0.78 132.72,0.87 132.6,1.02 C132.48,1.17 132.42,1.38 132.39,1.65 L132.39,6.03 C132.39,6.3 132.45,6.51 132.6,6.66 C132.72,6.81 132.9,6.9 133.11,6.9 L133.17,6.9 C133.2,6.9 133.23,6.87 133.29,6.87 L133.32,6.87 C133.35,6.87 133.38,6.84 133.44,6.81 L133.47,6.81 L133.53,6.78 L133.62,6.69 C133.65,6.66 133.68,6.6 133.71,6.57 C133.74,6.51 133.77,6.42 133.8,6.33 L133.8,1.65 C133.8,1.38 133.74,1.17 133.62,1.02 C133.53,0.87 133.35,0.78 133.11,0.78 Z M137.7,7.65 C137.52,7.65 137.34,7.62 137.16,7.56 C136.98,7.5 136.83,7.38 136.68,7.26 C136.53,7.14 136.44,6.96 136.35,6.75 C136.26,6.54 136.23,6.3 136.23,6.03 L136.23,1.65 C136.23,1.38 136.26,1.14 136.35,0.93 C136.44,0.72 136.53,0.54 136.68,0.42 C136.83,0.3 136.98,0.18 137.16,0.12 C137.34,0.06 137.52,0.03 137.7,0.03 C137.88,0.03 138.06,0.06 138.24,0.12 C138.42,0.18 138.57,0.3 138.72,0.42 C138.87,0.54 138.96,0.72 139.05,0.93 C139.14,1.14 139.17,1.38 139.17,1.65 L139.17,6.42 C139.17,6.45 139.14,6.48 139.14,6.51 C139.14,6.54 139.11,6.57 139.11,6.6 C139.11,6.66 139.08,6.69 139.08,6.72 C139.08,6.75 139.08,6.75 139.05,6.78 C139.05,6.81 139.02,6.81 139.02,6.84 L139.02,6.9 L138.9,7.11 L138.87,7.14 L138.84,7.17 L138.75,7.26 L138.63,7.38 C138.6,7.41 138.54,7.44 138.51,7.47 C138.48,7.5 138.42,7.5 138.39,7.53 L138.3,7.56 C138.27,7.56 138.27,7.56 138.24,7.59 C138.12,7.62 138.03,7.65 137.91,7.65 L137.7,7.65 Z M137.7,0.78 C137.49,0.78 137.31,0.87 137.19,1.02 C137.07,1.17 137.01,1.38 136.98,1.65 L136.98,6.03 C136.98,6.3 137.04,6.51 137.19,6.66 C137.31,6.81 137.49,6.9 137.7,6.9 L137.76,6.9 C137.79,6.9 137.82,6.87 137.88,6.87 L137.91,6.87 C137.94,6.87 137.97,6.84 138.03,6.81 L138.06,6.81 L138.12,6.78 L138.21,6.69 C138.24,6.66 138.27,6.6 138.3,6.57 C138.33,6.51 138.36,6.42 138.39,6.33 L138.39,1.65 C138.39,1.38 138.33,1.17 138.21,1.02 C138.12,0.87 137.94,0.78 137.7,0.78 Z M140.82,0.03 L143.76,0.03 L143.76,0.78 L142.68,0.78 L142.68,7.65 L141.9,7.65 L141.9,0.78 L140.82,0.78 L140.82,0.03 Z M145.41,7.65 L145.41,0.03 L146.82,0.06 C147,0.06 147.18,0.09 147.39,0.18 C147.57,0.24 147.75,0.36 147.87,0.51 C148.02,0.66 148.14,0.81 148.23,1.02 C148.32,1.23 148.35,1.47 148.35,1.74 L148.35,2.49 C148.35,2.73 148.29,2.97 148.2,3.15 C148.11,3.33 147.99,3.51 147.87,3.63 C148.05,3.78 148.17,3.96 148.29,4.17 C148.41,4.38 148.44,4.65 148.44,4.95 L148.44,6.03 C148.44,6.3 148.41,6.54 148.32,6.75 C148.23,6.96 148.14,7.11 147.99,7.26 C147.84,7.41 147.69,7.5 147.51,7.56 C147.33,7.62 147.15,7.65 146.97,7.65 L145.41,7.65 Z M147.6,1.65 C147.6,1.38 147.54,1.17 147.39,1.02 C147.27,0.87 147.09,0.78 146.88,0.78 L146.16,0.78 L146.16,3.3 L146.88,3.3 C147.09,3.3 147.27,3.21 147.39,3.06 C147.51,2.91 147.57,2.7 147.6,2.43 L147.6,1.65 Z M146.16,4.05 L146.16,6.9 L147.03,6.9 C147.24,6.9 147.42,6.81 147.54,6.66 C147.66,6.51 147.72,6.3 147.75,6.03 L147.75,4.95 C147.75,4.68 147.69,4.47 147.54,4.32 C147.42,4.17 147.24,4.08 147.03,4.08 L146.16,4.08 L146.16,4.05 Z M151.59,0.03 C151.77,0.03 151.95,0.06 152.13,0.12 C152.31,0.18 152.46,0.3 152.61,0.42 C152.73,0.54 152.85,0.72 152.94,0.93 C153.03,1.14 153.06,1.38 153.06,1.65 L153.06,7.65 L152.31,7.65 L152.31,4.38 L150.9,4.38 L150.9,7.65 L150.15,7.65 L150.15,1.65 C150.15,1.38 150.18,1.14 150.27,0.93 C150.36,0.72 150.45,0.54 150.6,0.42 C150.75,0.3 150.9,0.18 151.08,0.12 C151.2,0.06 151.38,0.03 151.59,0.03 Z M151.59,0.78 C151.38,0.78 151.2,0.87 151.08,1.02 C150.96,1.17 150.9,1.38 150.87,1.65 L150.87,3.6 L152.28,3.6 L152.28,1.65 C152.28,1.38 152.22,1.17 152.07,1.02 C151.98,0.87 151.8,0.78 151.59,0.78 Z M154.71,0.03 L155.49,0.03 L155.49,6.9 L157.29,6.9 L157.29,7.65 L154.71,7.65 L154.71,0.03 Z M158.97,0.03 L159.72,0.03 L159.72,6.9 L161.52,6.9 L161.52,7.65 L158.94,7.65 L158.94,0.03 L158.97,0.03 Z" id="Shape"></path>
            </g>
        </g>
    </g>
</svg>