<svg height="24" viewBox="0 0 72 24" width="72" xmlns="http://www.w3.org/2000/svg"><path d="m10.6436018 14.999528c0-3.1011109-1.63500438-3.775561-3.26926114-3.775561-1.63500436 0-3.27000872.6404632-3.27000872 3.7083425v8.6281273h-4.10433194v-23.5521289h4.10433194v8.72102464c.90085974-.67369481 2.00207667-1.48258175 4.17012086-1.48258175 3.4703659 0 6.4734809 2.05582655 6.4734809 7.07832711v9.2361142h-4.1043319zm14.2881588-3.775561c-2.402791 0-4.3712256 2.022595-4.3712256 4.3820373 0 2.3934293 1.9684346 4.4160242 4.3712256 4.4160242 2.4356855 0 4.4033725-2.0225949 4.4033725-4.4160242 0-2.3594423-1.967687-4.3820373-4.4033725-4.3820373zm4.4033725 11.2919407c-1.2671844 1.0452844-2.7691157 1.483337-4.4033725 1.483337-4.6717614 0-8.4082735-3.7748056-8.4082735-8.3932404 0-4.6516663 3.7365121-8.35925351 8.4082735-8.35925351 1.6013623 0 3.102546.43805268 4.4033725 1.48258175v-1.17972119h4.1043319v16.01158075h-4.1043319zm5.9389459-19.92157847c0-1.48258174 1.1333638-2.59432923 2.601653-2.59432923 1.4682893 0 2.5695062 1.11174749 2.5695062 2.5950845 0 1.483337-1.1012169 2.62907134-2.5695062 2.62907134-1.4682892 0-2.601653-1.14573434-2.601653-2.62907134zm.5330398 20.96610757h4.104332v-16.01007018h-4.104332zm10.5763177-5.6116059v-17.94505458h-4.104332v18.88913368c0 3.0338924 1.6686465 4.7188847 4.7054035 4.7188847.2526893 0 .5001454-.0188816.7356399-.0506026v-3.8820531c-1.0914982-.1193316-1.3367114-.7605501-1.3367114-1.7295528zm17.6082568-6.9272744c-1.9018981 0-3.4367238 1.1464896-4.0370478 2.8654687h7.9073805c-.2332517-1.6177739-1.9018981-2.8654687-3.8703327-2.8654687zm.2332517 9.2361141c1.4353947 0 2.9694729-.5392579 3.9039747-1.7861975l2.8035054 2.2582371c-1.4353947 2.0558265-3.9712588 3.2702898-6.6738381 3.2702898-4.7711924 0-8.4419155-3.6071372-8.4419155-8.2927904 0-4.550461 3.1698301-8.46045881 8.2086639-8.46045881 4.6710138 0 7.9746646 3.84277941 7.9746646 8.35925351 0 .4380527-.0336421.9100922-.1009262 1.3141581h-12.0782489c.4672509 1.9561318 2.0357187 3.3375082 4.4041201 3.3375082zm-14.8219463-17.66334137c0-1.48258174 1.1341114-2.59432923 2.601653-2.59432923 1.4690369 0 2.5702538 1.11174749 2.5702538 2.5950845 0 1.483337-1.1012169 2.62907134-2.5695062 2.62907134-1.4682892 0-2.6024006-1.14573434-2.6024006-2.62907134zm.5337874 20.96610757h4.104332v-16.01007018h-4.104332z" fill="#fcf8f5"/></svg>