<?xml version="1.0" encoding="UTF-8"?>
<svg width="255px" height="39px" viewBox="0 0 255 39" version="1.1" xmlns="http://www.w3.org/2000/svg" xmlns:xlink="http://www.w3.org/1999/xlink">
    <title>sa-wordmark-light</title>
    <defs>
        <linearGradient x1="58.5473407%" y1="26.4586581%" x2="29.9768811%" y2="100%" id="linearGradient-1">
            <stop stop-color="#0083FF" offset="0%"></stop>
            <stop stop-color="#3A9EFD" offset="100%"></stop>
        </linearGradient>
    </defs>
    <g id="Marketing-Site" stroke="none" stroke-width="1" fill="none" fill-rule="evenodd">
        <g id="Homepage-1" transform="translate(-83.000000, -37.000000)">
            <g id="Group" transform="translate(83.000000, 37.000000)">
                <g id="Logo/Light/Wordmark" transform="translate(0.726400, 0.014400)">
                    <path d="M11.7216,38.808 C15.2064,38.808 17.9432,38.0952 19.932,36.6696 C21.9208,35.244 22.9152,33.2816 22.9152,30.7824 C22.9152,28.7056 22.308,27.06 21.0936,25.8456 C19.8792,24.6312 17.952,23.7248 15.312,23.1264 L15.312,23.1264 L10.9296,22.1232 C9.8736,21.8416 9.1344,21.5424 8.712,21.2256 C8.2896,20.9088 8.0784,20.4688 8.0784,19.9056 C8.0784,19.1312 8.4304,18.5328 9.1344,18.1104 C9.8384,17.688 10.8064,17.4768 12.0384,17.4768 C14.7136,17.4768 17.424,18.4272 20.1696,20.328 L20.1696,20.328 L22.2816,15.048 C20.8736,14.0272 19.2896,13.2352 17.5296,12.672 C15.7696,12.1088 13.9568,11.8272 12.0912,11.8272 C9.9088,11.8272 7.964,12.1792 6.2568,12.8832 C4.5496,13.5872 3.2296,14.5552 2.2968,15.7872 C1.364,17.0192 0.8976,18.4448 0.8976,20.064 C0.8976,22.1056 1.4872,23.716 2.6664,24.8952 C3.8456,26.0744 5.6848,26.9456 8.184,27.5088 L8.184,27.5088 L12.408,28.4592 C13.7104,28.7408 14.5992,29.0576 15.0744,29.4096 C15.5496,29.7616 15.7872,30.2544 15.7872,30.888 C15.7872,31.592 15.444,32.1464 14.7576,32.5512 C14.0712,32.956 13.112,33.1584 11.88,33.1584 C10.1552,33.1584 8.448,32.8944 6.7584,32.3664 C5.0688,31.8384 3.52,31.0992 2.112,30.1488 L2.112,30.1488 L0,35.64 C1.4432,36.6608 3.1592,37.444 5.148,37.9896 C7.1368,38.5352 9.328,38.808 11.7216,38.808 Z M35.7456,7.4448 L35.7456,0 L27.192,0 L27.192,7.4448 L35.7456,7.4448 Z M35.4288,38.3856 L35.4288,12.4608 L27.456,12.4608 L27.456,38.3856 L35.4288,38.3856 Z M54.9648,38.808 C55.9856,38.808 57.0064,38.7376 58.0272,38.5968 L58.0272,38.5968 L58.4496,32.7888 C57.5696,32.8944 56.7248,32.9472 55.9152,32.9472 C53.0288,32.9472 51.5856,31.3984 51.5856,28.3008 L51.5856,28.3008 L51.5856,18.4272 L58.08,18.4272 L58.08,12.4608 L51.5856,12.4608 L51.5856,4.8576 L43.6128,4.8576 L43.6128,12.4608 L38.7024,12.4608 L38.7024,18.4272 L43.6128,18.4272 L43.6128,28.3536 C43.6128,31.8736 44.5192,34.496 46.332,36.2208 C48.1448,37.9456 51.0224,38.808 54.9648,38.808 Z M74.8176,38.808 C76.648,38.808 78.4696,38.5264 80.2824,37.9632 C82.0952,37.4 83.6352,36.6256 84.9024,35.64 L84.9024,35.64 L82.7904,30.3072 C81.6992,31.1168 80.4936,31.7416 79.1736,32.1816 C77.8536,32.6216 76.5248,32.8416 75.1872,32.8416 C73.1456,32.8416 71.5704,32.3752 70.4616,31.4424 C69.3528,30.5096 68.6752,29.0048 68.4288,26.928 L68.4288,26.928 L85.3248,26.928 L85.3248,24.9744 C85.3248,20.9264 84.26,17.7232 82.1304,15.3648 C80.0008,13.0064 77.1232,11.8272 73.4976,11.8272 C71.0336,11.8272 68.8336,12.3992 66.8976,13.5432 C64.9616,14.6872 63.448,16.28 62.3568,18.3216 C61.2656,20.3632 60.72,22.704 60.72,25.344 C60.72,29.4976 61.9784,32.78 64.4952,35.1912 C67.012,37.6024 70.4528,38.808 74.8176,38.808 Z M78.6192,22.968 L68.4288,22.968 C68.64,21.1376 69.1944,19.7384 70.092,18.7704 C70.9896,17.8024 72.1952,17.3184 73.7088,17.3184 C75.2224,17.3184 76.3928,17.7936 77.22,18.744 C78.0472,19.6944 78.5136,21.1024 78.6192,22.968 L78.6192,22.968 Z" id="site" fill="#FFFFFF" fill-rule="nonzero"></path>
                    <path d="M155.8792,38.808 C159.364,38.808 162.1008,38.0952 164.0896,36.6696 C166.0784,35.244 167.0728,33.2816 167.0728,30.7824 C167.0728,28.7056 166.4656,27.06 165.2512,25.8456 C164.0368,24.6312 162.1096,23.7248 159.4696,23.1264 L159.4696,23.1264 L155.0872,22.1232 C154.0312,21.8416 153.292,21.5424 152.8696,21.2256 C152.4472,20.9088 152.236,20.4688 152.236,19.9056 C152.236,19.1312 152.588,18.5328 153.292,18.1104 C153.996,17.688 154.964,17.4768 156.196,17.4768 C158.8712,17.4768 161.5816,18.4272 164.3272,20.328 L164.3272,20.328 L166.4392,15.048 C165.0312,14.0272 163.4472,13.2352 161.6872,12.672 C159.9272,12.1088 158.1144,11.8272 156.2488,11.8272 C154.0664,11.8272 152.1216,12.1792 150.4144,12.8832 C148.7072,13.5872 147.3872,14.5552 146.4544,15.7872 C145.5216,17.0192 145.0552,18.4448 145.0552,20.064 C145.0552,22.1056 145.6448,23.716 146.824,24.8952 C148.0032,26.0744 149.8424,26.9456 152.3416,27.5088 L152.3416,27.5088 L156.5656,28.4592 C157.868,28.7408 158.7568,29.0576 159.232,29.4096 C159.7072,29.7616 159.9448,30.2544 159.9448,30.888 C159.9448,31.592 159.6016,32.1464 158.9152,32.5512 C158.2288,32.956 157.2696,33.1584 156.0376,33.1584 C154.3128,33.1584 152.6056,32.8944 150.916,32.3664 C149.2264,31.8384 147.6776,31.0992 146.2696,30.1488 L146.2696,30.1488 L144.1576,35.64 C145.6008,36.6608 147.3168,37.444 149.3056,37.9896 C151.2944,38.5352 153.4856,38.808 155.8792,38.808 Z M181.5928,38.808 C185.0776,38.808 187.8144,38.0952 189.8032,36.6696 C191.792,35.244 192.7864,33.2816 192.7864,30.7824 C192.7864,28.7056 192.1792,27.06 190.9648,25.8456 C189.7504,24.6312 187.8232,23.7248 185.1832,23.1264 L185.1832,23.1264 L180.8008,22.1232 C179.7448,21.8416 179.0056,21.5424 178.5832,21.2256 C178.1608,20.9088 177.9496,20.4688 177.9496,19.9056 C177.9496,19.1312 178.3016,18.5328 179.0056,18.1104 C179.7096,17.688 180.6776,17.4768 181.9096,17.4768 C184.5848,17.4768 187.2952,18.4272 190.0408,20.328 L190.0408,20.328 L192.1528,15.048 C190.7448,14.0272 189.1608,13.2352 187.4008,12.672 C185.6408,12.1088 183.828,11.8272 181.9624,11.8272 C179.78,11.8272 177.8352,12.1792 176.128,12.8832 C174.4208,13.5872 173.1008,14.5552 172.168,15.7872 C171.2352,17.0192 170.7688,18.4448 170.7688,20.064 C170.7688,22.1056 171.3584,23.716 172.5376,24.8952 C173.7168,26.0744 175.556,26.9456 178.0552,27.5088 L178.0552,27.5088 L182.2792,28.4592 C183.5816,28.7408 184.4704,29.0576 184.9456,29.4096 C185.4208,29.7616 185.6584,30.2544 185.6584,30.888 C185.6584,31.592 185.3152,32.1464 184.6288,32.5512 C183.9424,32.956 182.9832,33.1584 181.7512,33.1584 C180.0264,33.1584 178.3192,32.8944 176.6296,32.3664 C174.94,31.8384 173.3912,31.0992 171.9832,30.1488 L171.9832,30.1488 L169.8712,35.64 C171.3144,36.6608 173.0304,37.444 175.0192,37.9896 C177.008,38.5352 179.1992,38.808 181.5928,38.808 Z M205.6168,7.4448 L205.6168,0 L197.0632,0 L197.0632,7.4448 L205.6168,7.4448 Z M205.3,38.3856 L205.3,12.4608 L197.3272,12.4608 L197.3272,38.3856 L205.3,38.3856 Z M221.404,38.808 C224.8888,38.808 227.6256,38.0952 229.6144,36.6696 C231.6032,35.244 232.5976,33.2816 232.5976,30.7824 C232.5976,28.7056 231.9904,27.06 230.776,25.8456 C229.5616,24.6312 227.6344,23.7248 224.9944,23.1264 L224.9944,23.1264 L220.612,22.1232 C219.556,21.8416 218.8168,21.5424 218.3944,21.2256 C217.972,20.9088 217.7608,20.4688 217.7608,19.9056 C217.7608,19.1312 218.1128,18.5328 218.8168,18.1104 C219.5208,17.688 220.4888,17.4768 221.7208,17.4768 C224.396,17.4768 227.1064,18.4272 229.852,20.328 L229.852,20.328 L231.964,15.048 C230.556,14.0272 228.972,13.2352 227.212,12.672 C225.452,12.1088 223.6392,11.8272 221.7736,11.8272 C219.5912,11.8272 217.6464,12.1792 215.9392,12.8832 C214.232,13.5872 212.912,14.5552 211.9792,15.7872 C211.0464,17.0192 210.58,18.4448 210.58,20.064 C210.58,22.1056 211.1696,23.716 212.3488,24.8952 C213.528,26.0744 215.3672,26.9456 217.8664,27.5088 L217.8664,27.5088 L222.0904,28.4592 C223.3928,28.7408 224.2816,29.0576 224.7568,29.4096 C225.232,29.7616 225.4696,30.2544 225.4696,30.888 C225.4696,31.592 225.1264,32.1464 224.44,32.5512 C223.7536,32.956 222.7944,33.1584 221.5624,33.1584 C219.8376,33.1584 218.1304,32.8944 216.4408,32.3664 C214.7512,31.8384 213.2024,31.0992 211.7944,30.1488 L211.7944,30.1488 L209.6824,35.64 C211.1256,36.6608 212.8416,37.444 214.8304,37.9896 C216.8192,38.5352 219.0104,38.808 221.404,38.808 Z M250.5496,38.808 C251.5704,38.808 252.5912,38.7376 253.612,38.5968 L253.612,38.5968 L254.0344,32.7888 C253.1544,32.8944 252.3096,32.9472 251.5,32.9472 C248.6136,32.9472 247.1704,31.3984 247.1704,28.3008 L247.1704,28.3008 L247.1704,18.4272 L253.6648,18.4272 L253.6648,12.4608 L247.1704,12.4608 L247.1704,4.8576 L239.1976,4.8576 L239.1976,12.4608 L234.2872,12.4608 L234.2872,18.4272 L239.1976,18.4272 L239.1976,28.3536 C239.1976,31.8736 240.104,34.496 241.9168,36.2208 C243.7296,37.9456 246.6072,38.808 250.5496,38.808 Z" id="ssist" fill="#FFFFFF" fill-rule="nonzero"></path>
                    <g id="mark" transform="translate(92.073600, 0.385600)">
                        <path d="M37.0112709,0 L42.4724936,0 C44.9506174,-4.5522395e-16 46.9595336,2.00891624 46.9595336,4.48704 C46.9595336,5.14413759 46.8152127,5.79321625 46.5367706,6.38840295 L32.7885449,35.7760569 C32.0504713,37.3537333 30.4660531,38.3617339 28.724268,38.3617339 L23.2630452,38.3617339 C20.7849214,38.3617339 18.7760052,36.3528177 18.7760052,33.8746939 C18.7760052,33.2175963 18.9203262,32.5685177 19.1987683,31.973331 L32.946994,2.58567705 C33.6850676,1.00800063 35.2694857,1.20813916e-15 37.0112709,0 Z" id="Rectangle-Copy" fill="url(#linearGradient-1)" fill-rule="nonzero" transform="translate(32.867769, 19.180867) scale(-1, 1) translate(-32.867769, -19.180867) "></path>
                        <path d="M20.8011456,0 L26.2623683,0 C28.7404921,1.7457921e-15 30.7494083,2.00891624 30.7494083,4.48704 C30.7494083,5.14413759 30.6050874,5.79321625 30.3266452,6.38840295 L16.5784196,35.7760569 C15.840346,37.3537333 14.2559278,38.3617339 12.5141426,38.3617339 L7.0529199,38.3617339 C4.57479613,38.3617339 2.5658799,36.3528177 2.5658799,33.8746939 C2.5658799,33.2175963 2.71020084,32.5685177 2.98864298,31.973331 L16.7368687,2.58567705 C17.4749423,1.00800063 19.0593604,-5.68217678e-16 20.8011456,0 Z" id="Rectangle" fill="#F7A400"></path>
                        <path d="M26.0869724,25.6345098 L31.1716401,36.2586322 C31.5282436,37.0037349 31.2133028,37.8968443 30.4682001,38.2534478 C30.266622,38.3499224 30.0459873,38.4 29.8225123,38.4 L19.653177,38.4 C18.8271357,38.4 18.157497,37.7303613 18.157497,36.90432 C18.157497,36.680845 18.2075746,36.4602103 18.3040491,36.2586322 L23.3887168,25.6345098 C23.7453203,24.8894071 24.6384297,24.5744663 25.3835325,24.9310699 C25.6914073,25.0784177 25.9396246,25.326635 26.0869724,25.6345098 Z" id="Triangle" fill="#FFFFFF" fill-rule="nonzero"></path>
                    </g>
                </g>
            </g>
        </g>
    </g>
</svg>