<?xml version="1.0" encoding="UTF-8"?>
<svg width="226px" height="36px" viewBox="0 0 226 36" version="1.1" xmlns="http://www.w3.org/2000/svg" xmlns:xlink="http://www.w3.org/1999/xlink">
    <title>Tone&amp;Sculpt</title>
    <g id="Symbols" stroke="none" stroke-width="1" fill="none" fill-rule="evenodd">
        <g id="UI/-Tone-&amp;-Sculpt-Wordmark" transform="translate(-27.000000, -6.000000)" fill="#FFFFFF" fill-rule="nonzero">
            <path d="M39.622,34 L39.622,13.588 L45.778,13.588 L46.354,9.052 L27.274,9.052 L27.274,13.588 L33.718,13.588 L33.718,34 L39.622,34 Z M54.722,34.612 C56.642,34.612 58.304,34.192 59.708,33.352 C61.112,32.512 62.192,31.33 62.948,29.806 C63.704,28.282 64.082,26.5 64.082,24.46 C64.082,21.244 63.254,18.742 61.598,16.954 C59.942,15.166 57.65,14.272 54.722,14.272 C52.802,14.272 51.14,14.692 49.736,15.532 C48.332,16.372 47.252,17.554 46.496,19.078 C45.74,20.602 45.362,22.384 45.362,24.424 C45.362,27.64 46.196,30.142 47.864,31.93 C49.532,33.718 51.818,34.612 54.722,34.612 Z M54.722,30.436 C53.546,30.436 52.676,29.956 52.112,28.996 C51.548,28.036 51.266,26.512 51.266,24.424 C51.266,22.384 51.554,20.878 52.13,19.906 C52.706,18.934 53.57,18.448 54.722,18.448 C55.898,18.448 56.768,18.928 57.332,19.888 C57.896,20.848 58.178,22.372 58.178,24.46 C58.178,26.5 57.89,28.006 57.314,28.978 C56.738,29.95 55.874,30.436 54.722,30.436 Z M72.954,34 L72.954,20.932 C74.01,19.276 75.114,18.448 76.266,18.448 C76.866,18.448 77.316,18.634 77.616,19.006 C77.916,19.378 78.066,20.044 78.066,21.004 L78.066,21.004 L78.066,34 L83.754,34 L83.754,20.032 C83.754,18.208 83.286,16.792 82.35,15.784 C81.414,14.776 80.118,14.272 78.462,14.272 C77.286,14.272 76.224,14.512 75.276,14.992 C74.328,15.472 73.446,16.192 72.63,17.152 L72.63,17.152 L72.234,14.884 L67.266,14.884 L67.266,34 L72.954,34 Z M96.37,34.612 C99.106,34.612 101.59,33.724 103.822,31.948 L103.822,31.948 L101.482,28.78 C100.642,29.356 99.862,29.782 99.142,30.058 C98.422,30.334 97.678,30.472 96.91,30.472 C95.638,30.472 94.642,30.148 93.922,29.5 C93.202,28.852 92.746,27.724 92.554,26.116 L92.554,26.116 L104.398,26.116 C104.47,25.54 104.506,24.856 104.506,24.064 C104.506,20.992 103.726,18.592 102.166,16.864 C100.606,15.136 98.446,14.272 95.686,14.272 C93.814,14.272 92.206,14.722 90.862,15.622 C89.518,16.522 88.498,17.746 87.802,19.294 C87.106,20.842 86.758,22.588 86.758,24.532 C86.758,27.604 87.586,30.052 89.242,31.876 C90.898,33.7 93.274,34.612 96.37,34.612 Z M98.926,22.696 L92.554,22.696 C92.674,21.04 93.004,19.852 93.544,19.132 C94.084,18.412 94.846,18.052 95.83,18.052 C97.846,18.052 98.878,19.516 98.926,22.444 L98.926,22.444 L98.926,22.696 Z M135.354,34.612 L140.214,32.344 L135.858,28.492 C137.154,26.668 138.258,24.436 139.17,21.796 L139.17,21.796 L134.418,20.392 C133.962,22.408 133.386,24.136 132.69,25.576 L132.69,25.576 L127.83,21.004 C129.39,19.972 130.572,18.934 131.376,17.89 C132.18,16.846 132.582,15.616 132.582,14.2 C132.582,13.096 132.276,12.112 131.664,11.248 C131.052,10.384 130.164,9.7 129,9.196 C127.836,8.692 126.462,8.44 124.878,8.44 C123.222,8.44 121.812,8.716 120.648,9.268 C119.484,9.82 118.614,10.546 118.038,11.446 C117.462,12.346 117.174,13.336 117.174,14.416 C117.174,15.52 117.426,16.51 117.93,17.386 C118.434,18.262 119.334,19.324 120.63,20.572 C118.95,21.676 117.72,22.768 116.94,23.848 C116.16,24.928 115.77,26.188 115.77,27.628 C115.77,29.02 116.142,30.244 116.886,31.3 C117.63,32.356 118.674,33.172 120.018,33.748 C121.362,34.324 122.91,34.612 124.662,34.612 C127.686,34.612 130.314,33.712 132.546,31.912 L132.546,31.912 L135.354,34.612 Z M124.698,18.016 C123.93,17.248 123.396,16.612 123.096,16.108 C122.796,15.604 122.646,15.04 122.646,14.416 C122.646,13.72 122.85,13.162 123.258,12.742 C123.666,12.322 124.23,12.112 124.95,12.112 C125.622,12.112 126.156,12.31 126.552,12.706 C126.948,13.102 127.146,13.648 127.146,14.344 C127.146,15.088 126.948,15.748 126.552,16.324 C126.156,16.9 125.538,17.464 124.698,18.016 Z M125.634,30.58 C124.458,30.58 123.51,30.28 122.79,29.68 C122.07,29.08 121.71,28.288 121.71,27.304 C121.71,26.584 121.884,25.93 122.232,25.342 C122.58,24.754 123.126,24.184 123.87,23.632 L123.87,23.632 L129.702,29.212 C128.502,30.124 127.146,30.58 125.634,30.58 Z M158.894,34.612 C160.934,34.612 162.698,34.282 164.186,33.622 C165.674,32.962 166.814,32.038 167.606,30.85 C168.398,29.662 168.794,28.288 168.794,26.728 C168.794,24.544 168.194,22.858 166.994,21.67 C165.794,20.482 163.922,19.48 161.378,18.664 C160.034,18.232 159.026,17.86 158.354,17.548 C157.682,17.236 157.214,16.906 156.95,16.558 C156.686,16.21 156.554,15.76 156.554,15.208 C156.554,14.416 156.854,13.81 157.454,13.39 C158.054,12.97 158.87,12.76 159.902,12.76 C161.846,12.76 163.67,13.456 165.374,14.848 L165.374,14.848 L168.11,11.644 C166.982,10.564 165.728,9.76 164.348,9.232 C162.968,8.704 161.342,8.44 159.47,8.44 C157.742,8.44 156.194,8.734 154.826,9.322 C153.458,9.91 152.39,10.75 151.622,11.842 C150.854,12.934 150.47,14.2 150.47,15.64 C150.47,17.512 151.052,19.06 152.216,20.284 C153.38,21.508 155.342,22.54 158.102,23.38 C159.326,23.764 160.262,24.124 160.91,24.46 C161.558,24.796 162.014,25.174 162.278,25.594 C162.542,26.014 162.674,26.536 162.674,27.16 C162.674,28.12 162.32,28.87 161.612,29.41 C160.904,29.95 159.938,30.22 158.714,30.22 C157.514,30.22 156.404,30.016 155.384,29.608 C154.364,29.2 153.374,28.588 152.414,27.772 L152.414,27.772 L149.426,31.048 C150.554,32.128 151.904,32.992 153.476,33.64 C155.048,34.288 156.854,34.612 158.894,34.612 Z M180.114,34.612 C182.514,34.612 184.662,33.856 186.558,32.344 L186.558,32.344 L184.074,28.816 C183.33,29.272 182.694,29.602 182.166,29.806 C181.638,30.01 181.05,30.112 180.402,30.112 C179.178,30.112 178.242,29.692 177.594,28.852 C176.946,28.012 176.622,26.584 176.622,24.568 C176.622,22.48 176.946,20.968 177.594,20.032 C178.242,19.096 179.202,18.628 180.474,18.628 C181.698,18.628 182.91,19.084 184.11,19.996 L184.11,19.996 L186.558,16.612 C185.622,15.82 184.626,15.232 183.57,14.848 C182.514,14.464 181.326,14.272 180.006,14.272 C178.134,14.272 176.49,14.71 175.074,15.586 C173.658,16.462 172.566,17.68 171.798,19.24 C171.03,20.8 170.646,22.588 170.646,24.604 C170.646,26.62 171.03,28.378 171.798,29.878 C172.566,31.378 173.658,32.542 175.074,33.37 C176.49,34.198 178.17,34.612 180.114,34.612 Z M193.558,34.612 C196.03,34.612 197.962,33.604 199.354,31.588 L199.354,31.588 L199.606,34 L204.538,34 L204.538,14.884 L198.85,14.884 L198.85,28.168 C197.986,29.656 196.954,30.4 195.754,30.4 C195.13,30.4 194.668,30.214 194.368,29.842 C194.068,29.47 193.918,28.816 193.918,27.88 L193.918,27.88 L193.918,14.884 L188.23,14.884 L188.23,28.6 C188.23,30.496 188.68,31.972 189.58,33.028 C190.48,34.084 191.806,34.612 193.558,34.612 Z M213.878,34.612 C215.15,34.612 216.302,34.396 217.334,33.964 L217.334,33.964 L216.218,29.932 C215.93,30.052 215.618,30.112 215.282,30.112 C214.634,30.112 214.31,29.716 214.31,28.924 L214.31,28.924 L214.31,6.676 L208.622,7.288 L208.622,29.14 C208.622,30.892 209.084,32.242 210.008,33.19 C210.932,34.138 212.222,34.612 213.878,34.612 Z M219.294,41.992 L224.982,41.38 L224.982,32.632 C226.158,33.952 227.706,34.612 229.626,34.612 C231.162,34.612 232.506,34.174 233.658,33.298 C234.81,32.422 235.692,31.21 236.304,29.662 C236.916,28.114 237.222,26.356 237.222,24.388 C237.222,21.196 236.634,18.712 235.458,16.936 C234.282,15.16 232.494,14.272 230.094,14.272 C229.086,14.272 228.102,14.494 227.142,14.938 C226.182,15.382 225.33,16.072 224.586,17.008 L224.586,17.008 L224.298,14.884 L219.294,14.884 L219.294,41.992 Z M227.898,30.436 C226.722,30.436 225.75,29.872 224.982,28.744 L224.982,28.744 L224.982,20.68 C225.414,19.96 225.912,19.408 226.476,19.024 C227.04,18.64 227.646,18.448 228.294,18.448 C229.302,18.448 230.058,18.886 230.562,19.762 C231.066,20.638 231.318,22.204 231.318,24.46 C231.318,28.444 230.178,30.436 227.898,30.436 Z M247.39,34.612 C248.302,34.612 249.22,34.48 250.144,34.216 C251.068,33.952 251.878,33.58 252.574,33.1 L252.574,33.1 L250.666,29.5 C249.946,29.908 249.262,30.112 248.614,30.112 C247.99,30.112 247.534,29.92 247.246,29.536 C246.958,29.152 246.814,28.516 246.814,27.628 L246.814,27.628 L246.814,18.844 L250.594,18.844 L251.206,14.884 L246.814,14.884 L246.814,10.096 L241.126,10.744 L241.126,14.884 L238.426,14.884 L238.426,18.844 L241.126,18.844 L241.126,27.7 C241.126,32.284 243.214,34.588 247.39,34.612 Z" id="Tone&amp;Sculpt"></path>
        </g>
    </g>
</svg>