<svg height="41" viewBox="0 0 68 41" width="68" xmlns="http://www.w3.org/2000/svg"><g><path d="m19.0877483 14.7702899c0 .835628.089404 1.5131642.245861 2.0100241.1788079.4968599.4023178 1.0388889.7152318 1.626087.1117549.1806763.1564569.3613526.1564569.5194444 0 .2258455-.134106.4516909-.4246689.6775363l-1.4081126.9485507c-.2011589.1355072-.4023178.2032609-.5811258.2032609-.2235099 0-.4470199-.1129227-.6705298-.3161836-.3129139-.3387681-.5811258-.7001208-.8046357-1.0614734-.22351-.3839373-.4470199-.8130435-.6928809-1.332488-1.7433774 2.0777778-3.9337748 3.1166667-6.571192 3.1166667-1.87748342 0-3.37499999-.542029-4.47019866-1.626087-1.09519868-1.0840579-1.65397351-2.5294686-1.65397351-4.3362319 0-1.9196859.67052981-3.4780193 2.0339404-4.6524154 1.36341059-1.17439615 3.17384104-1.76159425 5.47599337-1.76159425.7599338 0 1.5422185.06775365 2.3692053.18067635.8269867.1129227 1.6763245.29359905 2.5703643.49685993v-1.64867153c0-1.71642511-.3576159-2.91340579-1.0504968-3.61352656-.7152318-.70012077-1.9221854-1.03888889-3.6432119-1.03888889-.7822847 0-1.58692048.09033816-2.41390723.29359904-.82698678.20326086-1.63162254.45169082-2.41390731.76787439-.35761589.15809178-.62582781.24842995-.78228477.29359903-.15645695.04516909-.26821191.06775363-.35761589.06775363-.3129139 0-.46937086-.22584542-.46937086-.70012078v-1.10664251c0-.36135266.04470198-.63236715.15645696-.79045894.11175496-.15809179.3129139-.31618357.62582781-.47427536.78228477-.40652174 1.72102649-.74528985 2.81622516-1.01630435 1.09519868-.29359903 2.25745033-.42910628 3.48675493-.42910628 2.6597682 0 4.6043047.60978261 5.8559603 1.82934783 1.2293046 1.21956522 1.8551325 3.07149758 1.8551325 5.5557971v7.31739135zm-9.0745033 3.4328502c.7375828 0 1.4975166-.1355073 2.3021523-.4065217.8046358-.2710145 1.5198676-.7678745 2.1233444-1.4454107.3576159-.4291062.6258278-.9033816.7599338-1.4454106.1341059-.542029.2235099-1.1969807.2235099-1.964855v-.9485508c-.6481788-.1580918-1.3410596-.293599-2.0562913-.3839372-.7152318-.0903382-1.4081127-.1355072-2.1009935-.1355072-1.4975165 0-2.59271518.293599-3.33029795.9033816-.73758278.6097826-1.09519868 1.4679952-1.09519868 2.5972222 0 1.0614735.26821192 1.8519324.82698675 2.3939614.53642385.5646135 1.31870865.835628 2.34685428.835628zm17.9478477 2.4391305c-.4023179 0-.6705298-.0677537-.8493378-.2258454-.1788079-.1355073-.3352648-.4516909-.4693708-.8807972l-5.2524835-17.45785022c-.1341059-.45169082-.2011589-.74528986-.2011589-.90338165 0-.36135265.1788079-.56461352.5364238-.56461352h2.1903974c.4246689 0 .7152318.06775362.8716888.22584541.1788079.13550725.3129138.45169082.4470198.8807971l3.7549669 14.95096618 3.486755-14.95096618c.1117549-.45169082.2458609-.74528985.4246689-.8807971.1788079-.13550725.4917218-.22584541.8940396-.22584541h1.7880795c.4246689 0 .7152318.06775362.8940398.22584541.1788079.13550725.3352649.45169082.4246689.8807971l3.5314569 15.13164258 3.8667219-15.13164258c.1341059-.45169082.2905629-.74528985.4470199-.8807971.1788079-.13550725.4693708-.22584541.8716887-.22584541h2.0786424c.3576159 0 .5587748.18067633.5587748.56461352 0 .11292271-.022351.22584542-.044702.36135267-.022351.13550724-.067053.31618357-.1564569.56461352l-5.3865894 17.45785018c-.134106.4516909-.2905629.74529-.4693709.8807972-.1788079.1355072-.4693709.2258454-.8493378.2258454h-1.9221854c-.4246688 0-.7152318-.0677537-.8940398-.2258454-.1788079-.1580918-.3352648-.4516908-.4246688-.9033817l-3.464404-14.56702897-3.442053 14.54444447c-.1117549.4516908-.2458609.7452898-.4246689.9033817-.1788079.1580917-.4917218.2258454-.8940396.2258454zm28.7210265.6097826c-1.1622516 0-2.3245033-.1355073-3.442053-.4065218s-1.9892384-.5646135-2.5703643-.9033816c-.3576158-.2032609-.6034767-.4291063-.6928807-.6323672s-.134106-.4291063-.134106-.6323671v-1.1518116c0-.4742754.1788079-.7001208.5140729-.7001208.134106 0 .2682119.0225846.4023178.0677536.134106.0451691.3352649.1355072.5587749.2258454.7599338.3387682 1.5869205.6097826 2.4586093.790459.8940397.1806763 1.7657284.2710144 2.6597682.2710144 1.4081125 0 2.5033112-.2484299 3.263245-.7452898s1.1622516-1.2195652 1.1622516-2.1455314c0-.6323671-.2011589-1.1518116-.6034767-1.5809179-.402318-.4291062-1.1622517-.8130435-2.2574504-1.1743961l-3.2408941-1.0163044c-1.6316225-.5194444-2.8385761-1.2873188-3.5761589-2.30362317-.7375828-.99371978-1.1175496-2.10036229-1.1175496-3.27475843 0-.94855073.2011589-1.78417874.6034767-2.50688405.402318-.72270532.9387418-1.35507247 1.6092716-1.85193237.6705298-.51944445 1.4304636-.90338165 2.3245033-1.17439614s1.8327815-.3839372 2.8162251-.3839372c.4917219 0 1.0057948.02258454 1.4975166.09033817.5140729.06775362.9834438.15809178 1.4528146.24842995.4470199.1129227.8716887.22584541 1.2740066.36135265.4023179.13550725.7152318.2710145.9387417.40652174.312914.18067633.5364239.36135266.6705298.56461353.134106.18067633.201159.42910628.201159.74528985v1.06147344c0 .47427536-.1788079.72270531-.5140729.72270531-.1788079 0-.4693708-.09033816-.8493377-.27101449-1.2740066-.58719807-2.7044702-.88079711-4.2913907-.88079711-1.2740066 0-2.2798013.20326088-2.9726822.63236715-.6928808.42910629-1.0504966 1.08405798-1.0504966 2.01002416 0 .63236715.2235099 1.17439613.6705298 1.60350242.4470198.42910624 1.2740066.85821259 2.4586092 1.24214974l3.1738411 1.01630438c1.6092715.51944447 2.7715232 1.24214977 3.464404 2.16811587.6928807.9259662 1.0281457 1.9874397 1.0281457 3.1618358 0 .9711353-.201159 1.8519324-.5811258 2.6198068-.402318.7678743-.9387418 1.4454106-1.6316226 1.9874396-.6928808.5646135-1.5198675.9711352-2.4809603 1.2647343-1.0057947.3161836-2.0562913.4742754-3.196192.4742754z"/><g transform="translate(0 25.294686)"><path d="m60.906457 6.93345411c-7.3534769 5.48804349-18.0372517 8.40144929-27.22351 8.40144929-12.8741722 0-24.47433773-4.8105073-33.23592713-12.8054348-.6928808-.63236715-.06705298-1.49057971.75993377-.99371981 9.47682116 5.5557971 21.16639066 8.92089371 33.25827816 8.92089371 8.1581126 0 17.1208609-1.7164251 25.3683775-5.23961351 1.2293046-.56461353 2.2798013.81304347 1.0728477 1.71642512z"/><path d="m63.968543 3.4102657c-.9387417-1.21956522-6.2135761-.58719807-8.6051324-.29359903-.7152318.09033816-.8269868-.54202899-.178808-1.01630435 4.2019868-2.98115943 11.1084438-2.12294686 11.9130795-1.12922705.8046357 1.01630434-.2235099 7.99492753-4.1572848 11.33743963-.6034768.5194444-1.1846026.2484299-.9163907-.4291063.8940398-2.2358696 2.8832782-7.27222222 1.9445364-8.4692029z"/></g></g></svg>