<svg height="23" viewBox="0 0 92 23" width="92" xmlns="http://www.w3.org/2000/svg"><path d="m13.8025606 7.90593487v-5.8218279c0-.765.480375-1.37949069 1.2759961-1.37949069h.2201718c.7952637 0 1.2734942.61520232 1.2734942 1.37949069v12.25672323c0 2.9888373-1.4833008 5.3670977-4.0681758 6.8821535-1.1840843.6983666-2.53569062 1.0653283-3.91198247 1.0621047h-.54935738c-3.00305861 0-5.38884963-1.4776954-6.91325392-4.0491629-.70251312-1.1785826-1.07108943-2.5246461-1.06654688-3.8950953v-.5461744c0-2.9899046 1.48401563-5.36674185 4.0667461-6.88464417 1.1838646-.69980358 2.53622002-1.06686796 3.9130547-1.06210465h.54935738c2.03230077 0 3.75650397.78421395 5.21049617 2.05802789zm-10.97034966 6.16127443c0 2.1590791 1.05117773 3.7823023 2.95158985 4.817721.76845702.4184372 1.60267968.6433116 2.47943551.6433116 2.1288047 0 3.7078946-.9998373 4.7969591-2.7956303.5064667-.8354511.7423652-1.7495371.7423652-2.7212651 0-1.8715814-.8899805-3.3321977-2.4050918-4.4170744-.9185742-.6575442-1.95259572-.9873837-3.08026175-.9873837-2.32038283 0-3.99025783 1.16706975-4.99246876 3.2400418-.3381211.7009535-.49252735 1.4449605-.49252735 2.2202791zm23.34822656-8.21930233h.3838711c3.2089336 0 5.6494102 1.54956978 7.1959746 4.33808373.6183399 1.1154768.9493125 2.3330721.9493125 3.6086651v.5461744c0 2.9888373-1.4804414 5.3703-4.069248 6.8825093-1.1984356.699886-2.5223262 1.0617489-3.9112676 1.0617489h-.5486426c-3.0030586 0-5.3895644-1.4776954-6.9132539-4.0491629-.7028554-1.1784897-1.0718016-2.5245509-1.0676192-3.8950953v-.5461744c0-2.9902604 1.4900919-5.35926975 4.0663887-6.88393255 1.1977207-.70842558 2.5226836-1.06281628 3.9144844-1.06281628zm-5.2112109 8.21930233c0 2.0957442 1.0329492 3.6374861 2.811123 4.7216512.8349375.508814 1.754584.7393814 2.7299883.7393814 2.0801953 0 3.6178242-1.050007 4.6879453-2.7977652.5103984-.8333162.741293-1.7488255.741293-2.7191302 0-1.948793-.9428789-3.4375186-2.5548516-4.5163465-.8831894-.59171858-1.8664571-.8881116-2.9301446-.8881116-2.3203827 0-3.9902577 1.16706975-4.9921113 3.2400418-.3388359.7009535-.4932421 1.4449605-.4932421 2.2202791zm25.254-5.24007208c-.4181837-.19498605-1.2009375-.2597442-1.6527188-.27682327-2.3139492-.08681858-3.9881133 1.21047907-4.9703086 3.24253255-.3391934.7009535-.493957 1.4428256-.493957 2.2185 0 2.3615372 1.2456152 4.0150047 3.3629824 5.0230256.773461.3679116 1.7720977.4376512 2.6174004.4376512.7434375 0 1.7942578-.453307 2.4540586-.7653558l.114375-.0540838h.5121856l.0564726.011386c.6297773.1305838 1.1051484.5280279 1.1051484 1.2026512v.2729093c0 1.6787303-3.0816914 2.0630093-4.2576093 2.1448465-4.149668.2857187-7.2531622-1.9829512-8.4362286-5.9232349-.2055175-.6842302-.2980898-1.3638348-.2980898-2.076886v-.5454628c0-2.9899046 1.4904492-5.35820233 4.0663887-6.88144184 1.1977207-.70806977 2.5223261-1.06388372 3.9137695-1.06388372h.549c1.4761524 0 2.8357852.41736977 4.0545937 1.24606047l.1000782.0690279.0632637.10389768c.1315312.21704651.2448339.46825113.2448339.72657206v.27290932c0 .7038-.5289843 1.08238605-1.1673398 1.20478605l-.0528985.00925118h-.1636992c-.4131796 0-1.3528417-.42590933-1.7217011-.59883488zm8.9834414 1.86695578c1.0758399-1.07242325 2.1552539-2.14271158 3.2471777-3.19734416.304166-.29425814 1.4561368-1.53960698 1.9097051-1.53960698h.4961015l.0564727.01174186c.6319219.13058372 1.1051485.52873953 1.1051485 1.20478604v.27255349c0 .4611349-.5425664.9969907-.8417285 1.31259767-.636211.67142093-1.3060196 1.32078138-1.9572423 1.97832558l-3.3461835 3.3816558c1.4407675 1.4374884 2.8801054 2.8760442 4.3090781 4.3245628.3963356.3998165.7896301.8026094 1.1798496 1.2083442.1376074.1441046.3406231.3234349.4560703.5230465.1240254.1871581.2001563.3981558.2001563.623386v.2846512l-.0160841.0658256c-.1554784.629079-.5565058 1.1364698-1.2566952 1.1364698h-.2205294c-.4582148 0-.9757617-.5159303-1.2895781-.8109-.6469336-.6070186-1.2713496-1.2453489-1.905416-1.8655326l-2.1263027-2.0779535v3.3211674c0 .765-.4810899 1.3798466-1.2756387 1.3798466h-.2180274c-.795621 0-1.275996-.6148466-1.275996-1.3798466v-18.71439063c0-.765.4807324-1.377 1.275996-1.377h.2180274c.7945488 0 1.2756387.612 1.2756387 1.377zm34.5187323-4.73695114h.2752147c.830649 0 1.38501.55720465 1.38501 1.37949069 0 1.14145115-1.0962127 1.43357442-2.0444527 1.43357442-1.2438285 0-2.4315413.7497-3.2889968 1.59048843-1.0690485 1.0492953-1.5369135 2.3932046-1.5369135 3.8705441v6.674714c0 .765-.480018 1.3791349-1.275996 1.3791349h-.2187427c-.795978 0-1.2756383-.6137791-1.2756383-1.3791349v-7.0579256c0-2.7102349 1.3253198-4.92268605 3.5349023-6.47439069 1.319244-.92689535 2.8304235-1.41613954 4.445613-1.41613954zm-19.6846522 13.22773954c1.0079296.3504768 2.157041.300307 3.1910625.1209767.5289844-.2238069 1.8814687-.8112557 2.3789999-.7251488l.0775605.0131652.0714848.0348697c.3038085.1465953.5936775.3540349.7487985.661814.3624255.7212348.1883617 1.4463837-.523623 1.8559255l-.2369708.1362768c-2.6270507 1.5093628-5.4213749 1.3001441-8.040205-.1095907-1.2520488-.6739116-2.2099395-1.6741047-2.9165625-2.8934791l-.1651289-.285007c-1.6866739-2.9077116-1.4589961-5.9662883.4432031-8.73131858.656584-.9557163 1.5147539-1.69403024 2.5180371-2.27151628l.379582-.21811396c2.4740743-1.42183255 5.1257872-1.32433953 7.6666992-.0765 1.3664243.67106512 2.4733598 1.67125814 3.2360978 2.98670234l.13725.2369721c.554004.95571618-.1636995 1.78832088-.904635 2.35762318-.8599568.6603908-1.7281343 1.4552791-2.5523498 2.1633489-1.8378629 1.5794581-3.6728668 3.1624744-5.5093004 4.743zm-2.3786427-1.6630744c2.0551758-1.7541628 4.1110665-3.5101047 6.1608809-5.2717395.7005469-.6013257 1.4686467-1.2254233 2.1634744-1.8577047-.5575777-.69953028-1.4890193-1.2037186-2.2803513-1.50438138-1.5976758-.60595117-3.172834-.40242562-4.6379063.43943018-1.9175683 1.1023117-2.7342773 2.8575419-2.6627929 5.0418838.0285937.8603581.2609179 1.6894046.7194902 2.4213139.1615547.2579651.3420527.5002744.537205.7311977z"/></svg>