<svg fill="none" height="26" viewBox="0 0 73 26" width="73" xmlns="http://www.w3.org/2000/svg"><g fill="#000"><path d="m.52002 0v20.16l2.6.01v-9.6h6.25v-2.54h-6.26v-5.5h8.14998v-2.53zm15.39998 4.1c.4509 0 .8833-.17911 1.2021-.49792s.4979-.75121.4979-1.20208-.1791-.88327-.4979-1.20208c-.3188-.318813-.7512-.49792-1.2021-.49792-.4508 0-.8833.179107-1.2021.49792-.3188.31881-.4979.75121-.4979 1.20208s.1791.88327.4979 1.20208.7513.49792 1.2021.49792zm-1.31 2.53v13.54h2.6v-13.54z"/><path clip-rule="evenodd" d="m26.82 6.23999c-3.44 0-5.84 2.91-5.84 6.37001 0 3.46 2.4 6.37 5.84 6.37 1.58 0 2.88-.6 3.83-1.6v1.8c.0066.5378-.0935 1.0716-.2944 1.5706-.201.4989-.4988.953-.8764 1.3361-.3775.3832-.8272.6876-1.3231.8959-.496.2082-1.0282.3161-1.5661.3174-.83 0-1.65-.32-2.3-.78l-1.3 2.25c1.0052.6498 2.1672 1.0162 3.3633 1.0606s2.382-.2349 3.4327-.8083c1.0506-.5734 1.927-1.4198 2.5367-2.4499.6096-1.03.93-2.2055.9273-3.4024v-12.53001h-2.6v1.21c-.95-1-2.25-1.6-3.83-1.6zm-3.25 6.37001c0-2.15 1.64-3.84001 3.54-3.84001s3.53 1.70001 3.53 3.84001c0 2.15-1.64 3.83-3.53 3.83-1.9 0-3.54-1.68-3.54-3.83z" fill-rule="evenodd"/><path d="m42.59 8.77005c-.7436.01314-1.4522.31846-1.9724.84993-.5203.53142-.8104 1.24632-.8076 1.99012v8.56h-2.6v-13.54005h2.6v1.24c.389-.51556.8942-.93192 1.4747-1.21518.5804-.28326 1.2195-.42539 1.8653-.41482 1.82 0 3.22.9 4.02 2.28.4463-.6918 1.0571-1.26217 1.7779-1.66006.7207-.39789 1.5288-.61089 2.3521-.61994 2.95 0 4.8 2.38 4.8 5.33005v8.6h-2.58v-8.57c.0027-.7438-.2874-1.4587-.8077-1.99013-.5202-.53146-1.2287-.83678-1.9723-.84992-.7436.01314-1.4522.31846-1.9724.84992-.5203.53143-.8104 1.24633-.8076 1.99013v8.56h-2.6v-8.56c.0028-.7421-.286-1.4555-.8041-1.98667-.5181-.53119-1.2241-.83765-1.9659-.85338z"/><path clip-rule="evenodd" d="m69.93 8.17003c-.5904-.61564-1.3002-1.10434-2.086-1.43619-.7858-.33186-1.631-.49989-2.484-.49381-3.86 0-6.6 3.26-6.6 7.15997 0 3.9 2.74 7.16 6.6 7.16.8527.0044 1.6974-.1645 2.483-.4962.7855-.3318 1.4955-.8195 2.087-1.4338v1.54h2.59v-13.53997h-2.6v1.54zm-8.58 5.22997c0-2.58 1.98-4.62997 4.29-4.62997 2.3 0 4.29 2.04997 4.29 4.62997s-1.98 4.62-4.29 4.62c-2.3 0-4.29-2.04-4.29-4.62z" fill-rule="evenodd"/></g></svg>