<svg height="94" viewBox="0 0 139 94" width="139" xmlns="http://www.w3.org/2000/svg"><g transform="translate(41 15)"><path d="m15.7670628-.7466834 2.7239234-.00795553-.1535035 52.38135493-2.7239235.0079556z" transform="matrix(-.86601905 -.500011 .500011 -.86601905 19.099578 55.997879)"/><path d="m2 43h53v3h-53z"/><path d="m1.88402396 50.3747821 30.35697814-.0886611-.0079555 2.7147377-30.35697818.0886611z" transform="matrix(-.86601905 -.500011 .500011 -.86601905 5.987073 104.979912)"/><path d="m24.7604114 11.0149454 30.3569782-.0886611-.0079556 2.7147377-30.3569782.0886611z" transform="matrix(-.86601905 -.500011 .500011 -.86601905 68.355199 42.972154)"/><path d="m15.7527951-2.85684602 2.7147377-.00795554-.0886611 30.35697816-2.7147377.0079556z" transform="matrix(-.500011 -.86601905 .86601905 -.500011 14.931605 33.25597)"/><path d="m13.766945 24.1552962 52.3813549-.1535036-.0079555 2.7239235-52.381355.1535035z" transform="matrix(-.500011 -.86601905 .86601905 -.500011 37.898944 72.761657)"/><path d="m4 17h3v30h-3z"/><path d="m50 17h3v30h-3z"/><path d="m38.7877097 38.4750424 2.3713071-.0069492-.0771112 26.4023665-2.3713071.0069491z" transform="matrix(-.500011 -.86601905 .86601905 -.500011 15.153065 112.094)"/><path d="m56.1884517 47.9991349c-1.648389 2.8702323-5.3229227 3.8498924-8.1904328 2.1999385-2.86751-1.6499539-3.8462409-5.327976-2.1978519-8.1982083s5.3229227-3.8498924 8.1904327-2.1999385c2.8846808 1.6671409 3.8634117 5.327976 2.197852 8.1982083"/><path d="m11.1990734 21.9991349c-1.64995387 2.8702323-5.32797605 3.8498924-8.1982083 2.1999385-2.87023226-1.6499539-3.84989237-5.327976-2.1999385-8.1982083s5.32797605-3.8498924 8.1982083-2.1999385c2.8702323 1.6671409 3.8498924 5.327976 2.1999385 8.1982083"/><path d="m.8009266 47.9991349c-1.64995387-2.8702323-.67029376-6.5310674 2.1999385-8.1982083 2.87023225-1.6499539 6.53106741-.6702938 8.1982083 2.1999385 1.6499539 2.8702323.6702938 6.5310674-2.1999385 8.1982083-2.88741927 1.6499539-6.54825443.6702938-8.1982083-2.1999385"/><path d="m45.8009266 21.9991349c-1.6499539-2.8702323-.6702938-6.5310674 2.1999385-8.1982083 2.8702323-1.6499539 6.5310674-.6702938 8.1982083 2.1999385 1.6499539 2.8702323.6702938 6.5310674-2.1999385 8.1982083-2.8702323 1.6499539-6.5482544.6702938-8.1982083-2.1999385"/><path d="m29 64c-3.3180516 0-6-2.6819484-6-6s2.6819484-6 6-6 6 2.6819484 6 6c0 3.3008596-2.6819484 6-6 6"/><path d="m29 12c-3.3180516 0-6-2.68194842-6-6s2.6819484-6 6-6 6 2.68194842 6 6-2.6819484 6-6 6"/></g></svg>