<svg height="94" viewBox="0 0 225 94" width="225" xmlns="http://www.w3.org/2000/svg"><g transform="matrix(1 0 0 -1 58.299457 72.57109)"><path d="m99.6069577 47.6596654h-1.3871775v.5084063h3.3767098v-.5084063h-1.393889v-4.1247817h-.5956433z"/><path d="m105.778828 45.5697874c-.034396.6469076-.075504 1.4225148-.068373 1.9999587h-.020554c-.154364-.5429251-.34606-1.1267613-.575089-1.7600319l-.804957-2.2475564h-.445894l-.739101 2.2062191c-.216025.6537262-.400171 1.2511994-.52727 1.8013692h-.013842c-.013843-.5774439-.047819-1.3530511-.088927-2.0485407l-.120387-1.9863217h-.561247l.315858 4.633188h.752524l.780209-2.2403117c.188341-.5706254.343124-1.0811625.458897-1.5614423h.020554c.114095.4687736.277268.9771799.47987 1.5614423l.811669 2.2403117h.752524l.284398-4.633188h-.575089z"/><path d="m9.71359815 37.6497237v-24.5448589c0-5.36409126-1.51217867-9.73222612-4.53276079-13.1048648l-5.18083736 3.66795327c2.07342556 2.27780085 3.11286487 5.42450769 3.11286487 9.43691153v24.5448589z"/><path d="m25.7315353 23.4795771c-3.1728487 0-4.7580146-1.0142983-4.7580146-3.0380366 0-2.02344 1.3263548-3.035224 3.9857758-3.035224 2.6887837 0 4.9706844.6903331 6.8486383 2.0741954v3.4926618c-1.6619284.3376023-3.6866958.5064034-6.0763995.5064034zm-11.3579089-3.1118045c0 5.447192 3.78569 8.1707668 11.3579089 8.1707668 2.2726724 0 4.2986982-.1688012 6.0763995-.5064034v1.7469062c0 2.379154-2.2667999 3.5664297-6.7995607 3.5664297-2.85699 0-5.6959428-.4201916-8.5176976-1.2635154v5.3133359c2.8217548.8429828 5.6607076 1.2661576 8.5176976 1.2661576 8.9300338 0 13.3986161-2.9200335 13.3986161-8.7553702v-17.8130565h-3.3381187l-2.8376945 1.8709181c-2.2751892-1.2475345-4.7001281-1.8709181-7.2718805-1.8709181-7.0579524 0-10.5856701 2.7576673-10.5856701 8.2747493z"/><path d="m61.9226501 31.8509364c-1.6938079.9129153-3.7357735 1.3675405-6.1254772 1.3675405-4.1019681 0-6.1527424-2.3373905-6.1527424-7.008464 0-5.5515581 2.0507743-8.3255899 6.1527424-8.3255899 2.3897037 0 4.4316693.3302723 6.1254772.9861719zm6.6011527-19.7579131h-3.4517942s-3.092311 2.0029418-3.092311 1.7740524c0 0-3.2378661-1.4787251-5.6846173-1.6491882-8.7635053-.612474-13.1742012 4.6041666-13.1742012 13.8143324 0 8.5031699 4.2156437 12.7540943 12.6515453 12.7540943 2.2575716 0 4.3083459-.4231747 6.1502257-1.2661575v10.8798095h6.6011527z"/><path d="m79.6670868 27.6788938h10.9074013c.2319653 3.8115983-1.5100813 5.7178449-5.229915 5.7178449-3.4853516 0-5.3775674-1.9062466-5.6774863-5.7178449zm17.1104799-4.9089548h-17.1104799c0-3.575933 2.8716713-5.3636225 8.6175308-5.3636225 2.6401255 0 5.2798316.251561 7.9199571.7599247v-5.3159781c-2.3104244-.5053806-5.2798316-.7572398-8.9157719-.7572398-9.4820523 0-14.2228687 4.527586-14.2228687 13.5880852 0 8.6531774 4.3431617 12.9803415 13.0265488 12.9803415 8.6678668 0 12.2291419-5.2971846 10.6850838-15.891511z"/></g></svg>