<svg height="21" viewBox="0 0 103 21" width="103" xmlns="http://www.w3.org/2000/svg"><g transform="translate(.396899 .852713)"><path d="m14.2486822 2.85767442c-.3175194.03968992-.5953489.07937984-.8334884.11906977-.2381395.03968992-.4762791.07937984-.7937984.15875969-.3572094.07937984-.555659.23813953-.6350388.47627906-.0793798.23813954-.1587597.47627906-.1587597.79379846v9.6843411c0 .8731783-.1984496 1.7066667-.5556589 2.4607752s-.8334884 1.3494573-1.46852716 1.8654263c-.63503876.4762791-1.34945736.8731783-2.1432558 1.1113179-.79379844.2381395-1.62728684.3968992-2.50046512.3968992-1.54790698 0-2.77829457-.3572093-3.73085271-1.1113179-.95255814-.7541085-1.42883721-1.7463565-1.42883721-3.056124 0-.7541085.19844961-1.3891473.63503876-1.9051162.43658915-.515969 1.03193798-.7541086 1.78604651-.7541086.71441861 0 1.27007752.1984496 1.70666665.6350388.43658916.4365891.63503876.9525581.63503876 1.547907 0 .515969-.1984496 1.0319379-.55565888 1.4685271-.35720932.4365891-.79379847.8731783-1.27007754 1.2303876v.1587597c.07937985.1587597.23813954.3175194.47627907.4365891.23813954.1190698.51596899.1587597.75410855.1587597.99224804 0 1.78604648-.3572093 2.3417054-1.0716279s.83348836-1.7860465.83348836-3.2148837v-9.92248064c0-.27782944-.03968992-.55565891-.11906976-.75410852-.07937984-.19844962-.31751936-.35720931-.67472868-.515969-.23813952-.11906976-.55565892-.19844961-.9128682-.27782945-.35720932-.07937985-.63503876-.11906977-.87317832-.15875969v-.95255814h9.36682172v.99224806z"/><path d="m28.9339535 16.5110078c-.2778295.476279-.6350388.9128682-1.031938 1.3494573-.3968992.4365892-.8731783.7541085-1.3891473 1.0716279-.5556589.3175194-1.1113178.5556589-1.6669767.7144186s-1.2303876.2381396-1.9448062.2381396c-1.2303876 0-2.2623256-.1587597-3.1751938-.515969-.8731783-.3572093-1.6272869-.7937985-2.1829458-1.3891473-.5953488-.5953489-.992248-1.2700775-1.3097674-2.063876-.2778295-.7937984-.4365891-1.6669767-.4365891-2.5798449 0-.8334884.1587596-1.6669768.476279-2.4210853s.7541086-1.46852714 1.3097674-2.06387598c.555659-.59534884 1.2700776-1.07162792 2.1432559-1.4288372.8731783-.35720932 1.8257364-.55565892 2.8576744-.55565892 1.1510077 0 2.1035659.15875968 2.8576744.43658912.7541085.27782948 1.3494574.67472868 1.8257365 1.15100776.476279.47627908.7937984 1.031938 1.0319379 1.66697672.1984497.6350388.3175194 1.3097675.3175194 2.0241861v.7937984h-8.3745736c0 1.7066667.3175193 2.9767442.992248 3.8499225.6350388.8731783 1.7066667 1.3097674 3.095814 1.3097674.7937984 0 1.4685271-.1984496 2.1035659-.6350387.6350387-.4365891 1.1510077-.9525581 1.5875969-1.6272868zm-4.7231008-4.7231008c0-.4762791-.0396899-.9922481-.0793798-1.5082171-.0396899-.51596898-.1190698-.9525581-.2778295-1.2700775-.1587597-.39689924-.3175194-.67472868-.5953488-.87317828-.2381396-.19844964-.555659-.27782948-.9128682-.27782948-.6350388 0-1.1510078.3175194-1.5082171.95255816-.3968992.63503876-.5953488 1.6669767-.6350387 3.056124z"/><path d="m46.4372092 19.448062h-7.4617053v-.9128682c.1587597 0 .3572093-.0396899.5556589-.0793798.2381395-.03969.3968992-.0793799.5159688-.1190698.15876-.0793798.2778296-.2381396.3572096-.3968992.0793796-.1587597.1190696-.4365892.1190696-.7541086v-5.7947286c0-.8334884-.1587596-1.46852716-.4762792-1.90511632-.3175192-.43658916-.7541084-.63503876-1.3891471-.63503876-.3175194 0-.6350388.03968992-.9128682.15875968-.2778295.07937984-.5556589.23813952-.8334884.43658916-.2381395.15875968-.4365891.31751936-.5953488.515969-.1587597.15875964-.2778295.31751934-.3572093.47627904v6.6282171c0 .2778294.0396899.5159689.1190697.7144186.0793799.1984496.2381396.3572093.3968993.4365891.1190697.0793799.2778294.1587597.476279.1984496.1984496.03969.3968992.0793799.5953489.1190698v.9128682h-7.5410853v-.9128682c.1984496 0 .3968992-.0396899.6350388-.0793798.1984496-.03969.3968992-.0793799.5556589-.1190698.2778294-.0793798.4365891-.2381396.5556589-.4365892.0793798-.1984496.1587597-.4365891.1587597-.7541085v-7.22356586c0-.23813956-.0793799-.515969-.1984496-.75410856-.1190698-.23813952-.3175194-.43658912-.515969-.59534884-.1587597-.07937984-.3175194-.1984496-.5556589-.23813952-.2381396-.07937984-.4762791-.11906976-.7541086-.11906976v-.91286824l5.9137985-.31751936.1984496.1984496v1.78604652h.0396899c.2381396-.1984496.515969-.43658916.8334884-.75410852.3175194-.27782948.6350388-.515969.9128682-.7144186.3175194-.19844964.7144186-.35720932 1.1906977-.515969s1.0319381-.1984496 1.5875969-.1984496c1.3494572 0 2.3417056.3968992 3.016434 1.15100772.6747288.75410856.992248 1.78604652.992248 3.05612402v6.0725582c0 .3175193.03969.5556589.11907.7144186.0793796.1984496.2778292.3175193.5159688.4365891.11907.03969.2778296.1190698.4762792.1587597s.3968992.0793799.6747288.1190698v.9525581z"/><path d="m63.503876 19.448062h-5.8344188c-.7144184-1.2700775-1.3891472-2.3417054-1.984496-3.2148837s-1.1510076-1.7066667-1.6669768-2.4210853l-.7144184.6350388v2.6989147c0 .2778295.03969.5556589.1190696.7144186.07938.1984496.2381396.3175194.5159692.4365892.1587596.0793798.3175192.1190697.5159688.1587597.1984496.0396899.3968992.0793798.5953488.0793798v.9128682h-7.6998448v-.9128682c.1984496 0 .3968992-.0396899.6350388-.0793798.1984496-.03969.3968992-.0793799.5556588-.1190698.2778296-.0793798.4365892-.2381396.5556588-.4365892.07938-.1984496.1587596-.4365891.1587596-.7541085v-13.81209301c0-.27782946-.0793796-.55565892-.1984496-.83348837-.1190696-.27782946-.2778292-.515969-.5159688-.67472868-.1587596-.07937985-.3968992-.19844962-.7144188-.23813954-.3175192-.07937984-.5953488-.11906977-.873178-.11906977v-.91286821l6.151938-.31751938.1984496.19844961v12.78015505c.5953488-.5556589 1.3097672-1.1906977 2.063876-1.9051163.7541084-.7144186 1.3891472-1.3097674 1.8257364-1.7860465.2778292-.27782948.4365892-.47627908.4365892-.63503876.0396896-.15875968.0396896-.23813952.0396896-.27782948 0-.15875968-.1190696-.27782944-.3968992-.35720928-.2778292-.07937984-.6350388-.1984496-1.1906976-.27782948v-.87317828h6.271008v.87317828c-.8334884.23813956-1.4685272.43658916-1.9051164.63503876-.4365892.19844964-.9128684.47627908-1.4288372.79379848-.3572092.23813952-.6747288.47627904-.992248.71441856-.3175196.2381396-.6747288.555659-1.111318.9128682.7937984 1.1906977 1.5479072 2.2623256 2.2226356 3.2545737.6747288.9922481 1.3891472 2.063876 2.143256 3.1751938.2381396.3968992.5556588.6350387.952558.7937985.3968992.1190697.7541084.1984496 1.151008.2381395v.9525581z"/><path d="m71.4418604 19.448062h-7.8189148v-.9128682c.1984496 0 .4365892-.0396899.6350388-.0793798.1984496-.03969.3968992-.0793799.5159692-.1190698.2778292-.0793798.4365892-.2381396.5556588-.4365892s.1587596-.4365891.1587596-.7541085v-7.22356586c0-.27782948-.0793796-.55565892-.1984496-.75410856-.1190696-.23813952-.2778292-.3968992-.4762788-.51596896-.15876-.07937988-.3572096-.19844964-.6747288-.27782948-.3175196-.07937984-.5953488-.15875968-.8334884-.15875968v-.91286824l6.072558-.31751936.1984496.1984496v9.84310084c0 .2778294.07938.5159689.1984496.7541085.11907.1984496.3175196.3572093.5159692.4365891.1587596.0793799.3572092.1587597.5556588.1984496.1984496.03969.3968992.0793799.6350388.1190698v.9128682zm-1.7860464-16.86821704c0 .63503876-.2381396 1.15100775-.7144188 1.58759692-.4762788.43658912-1.0716276.67472868-1.7066664.67472868-.6747288 0-1.2303876-.23813956-1.7463568-.67472868-.4762788-.43658917-.7144184-.99224808-.7144184-1.58759692 0-.63503876.2381396-1.15100775.7144184-1.62728682.4762792-.43658915 1.071628-.67472868 1.7463568-.67472868.6747284 0 1.2303876.23813953 1.7066664.67472868.4762792.43658915.7144188.99224806.7144188 1.62728682z"/><path d="m88.9451164 19.448062h-7.4617056v-.9128682c.1587596 0 .3572092-.0396899.5556588-.0793798.2381396-.03969.3968992-.0793799.5159692-.1190698.1587596-.0793798.2778296-.2381396.3572092-.3968992.07938-.1587597.11907-.4365892.11907-.7541086v-5.7947286c0-.8334884-.15876-1.46852716-.4762792-1.90511632-.3175196-.43658916-.7541084-.63503876-1.3891472-.63503876-.3175196 0-.6350388.03968992-.9128684.15875968s-.5556588.23813952-.8334884.43658916c-.2381396.15875968-.4365892.31751936-.5953488.515969-.1587596.15875964-.2778296.31751934-.3572092.47627904v6.6282171c0 .2778294.03969.5159689.1190696.7144186.07938.1984496.2381396.3572093.3968992.4365891.11907.0793799.2778296.1587597.4762792.1984496.1984496.03969.3968992.0793799.5953488.1190698v.9128682h-7.5410852v-.9128682c.1984496 0 .3968992-.0396899.6350388-.0793798.1984496-.03969.3968992-.0793799.5556588-.1190698.2778296-.0793798.4365892-.2381396.5556588-.4365892.07938-.1984496.15876-.4365891.15876-.7541085v-7.22356586c0-.23813956-.07938-.515969-.1984496-.75410856-.11907-.23813952-.3175196-.43658912-.5159692-.59534884-.1587596-.07937984-.3175192-.1984496-.5556588-.23813952-.2381396-.07937984-.4762792-.11906976-.7541084-.11906976v-.91286824l5.9137984-.31751936.1984496.1984496v1.78604652h.0396896c.2381396-.1984496.5159692-.43658916.8334884-.75410852.3175196-.27782948.6350388-.515969.9128684-.7144186.3175192-.19844964.7144184-.35720932 1.1906976-.515969s1.031938-.1984496 1.5875968-.1984496c1.3494576 0 2.3417056.3968992 3.0164344 1.15100772.6747284.75410856.992248 1.78604652.992248 3.05612402v6.0725582c0 .3175193.03969.5556589.1190696.7144186.07938.1984496.2778296.3175193.5159692.4365891.1190696.03969.2778292.1190698.4762788.1587597s.3968992.0793799.6747288.1190698v.9525581z"/><path d="m95.8114728 19.8846512c-.7937984 0-1.5875968-.1190698-2.3417052-.3572093-.7541088-.2381396-1.3494576-.4762791-1.7860468-.7541086l-.3572092.8334884h-.952558l-.15876-4.604031h.9128684c.1190696.3572093.3175192.7937985.6350388 1.2700775.2778296.4762791.6350388.8731783.992248 1.2700775.3968992.3572093.8334884.6747287 1.3494576.9525582.5159688.2381395 1.0319376.3968992 1.5875968.3968992.7541084 0 1.3097672-.1587597 1.6669768-.4365891.3572092-.2778295.5556588-.7541086.5556588-1.3494574 0-.3175194-.07938-.5953488-.2381396-.8334884-.1587596-.1984496-.3968992-.3968992-.6747288-.5556589-.3175192-.1587597-.6747284-.3175194-1.0716276-.4365891-.3968992-.1190698-.8731784-.2381396-1.4288372-.4365892-.5556592-.1587597-1.031938-.3175194-1.4288372-.515969-.3968996-.1587597-.8334884-.4365891-1.2303876-.7937984-.3572096-.3175194-.6747288-.7144186-.8731784-1.1510078-.2381396-.4365891-.3175196-.992248-.3175196-1.6272868 0-1.15100776.4762792-2.10356588 1.4685272-2.81798452.992248-.7144186 2.2623256-1.07162788 3.8499224-1.07162788.7541088 0 1.4288372.07937984 2.063876.23813952s1.151008.3175194 1.5875972.515969l.2778292-.7144186h.9525582l.19845 4.20713178h-.873179c-.2778292-.8731783-.793798-1.5875969-1.4685268-2.22263566-.7144184-.63503876-1.4685272-.95255816-2.2623256-.95255816-.6350388 0-1.1510076.1190698-1.5082172.39689924-.3572092.27782944-.5556588.63503876-.5556588 1.11131784 0 .63503874.2778296 1.07162784.7937984 1.34945734.5159692.2778295 1.2700776.5556589 2.2226356.7937985 1.4685272.3968992 2.5401552.9128682 3.2545744 1.547907.674728.6747286 1.031937 1.508217 1.031937 2.500465 0 1.3494574-.515969 2.4210853-1.587597 3.1355039-1.1906972.7144186-2.5798444 1.1113179-4.2865112 1.1113179z"/></g></svg>