<svg height="28" viewBox="0 0 92 28" width="92" xmlns="http://www.w3.org/2000/svg"><g fill="#000400" transform="translate(.62963)"><path d="m.01074074 1.12314815h5.76518519v11.45555555l10.63185187-11.45555555h6.9631481l-10.6692592 11.11851855 11.1559259 15.087037h-6.9257407l-8.12351857-11.1559259-3.0324074 3.1444444v8.0112963h-5.76518519z"/><path d="m20.7937037 17.4077778v-.0744445c0-5.7653703 4.6422222-10.44499997 10.8940741-10.44499997 6.2144444 0 10.8192592 4.60481477 10.8192592 10.36999997v.075c0 5.7651852-4.6422222 10.4444445-10.894074 10.4444445-6.2144445 0-10.8192593-4.6046297-10.8192593-10.37zm16.0977778 0v-.0744445c0-2.9577777-2.1338889-5.5407407-5.2785185-5.5407407-3.2570371 0-5.2037037 2.507963-5.2037037 5.4657407v.075c0 2.9574074 2.1338888 5.5403704 5.2785185 5.5403704 3.257037 0 5.2037037-2.5081481 5.2037037-5.4659259z"/><path d="m44.0777778 21.6383333v-9.5088889h-2.3959259v-4.86648144h2.3959259v-5.12907407h5.6903703v5.12888889h4.7170371v4.86666662h-4.7170371v8.5731482c0 1.31.5614815 1.9466667 1.8344445 1.9466667.9810767.0047429 1.9472357-.2401585 2.8075926-.7116667v4.5674074c-1.197963.7112963-2.582963 1.1605556-4.4922222 1.1605556-3.4814815 0-5.8401852-1.3851852-5.8401852-6.0272223zm12.0407407-21.6383333h5.6903704v27.3285185h-5.6903704zm7.7472222 0h5.9896297v5.05388889h-5.9896297zm.15 7.26277778h5.6901852v20.06574072h-5.6903703zm7.8548149 0h5.6903703v2.84500002c1.3103704-1.68462965 2.995-3.21944447 5.8774074-3.21944447 4.3053704 0 6.8135186 2.84518519 6.8135186 7.44999997v12.9901852h-5.6903704v-11.1933333c0-2.6953704-1.272963-4.0805556-3.4442593-4.0805556-2.1714815 0-3.5562963 1.3851852-3.5562963 4.0805556v11.1933333h-5.6905555z"/></g></svg>