<svg height="34" viewBox="0 0 83 34" width="83" xmlns="http://www.w3.org/2000/svg"><g><path d="m10.989 27.5059048c-.0024866 3.0339416-2.46355725 5.4916554-5.49749934 5.4900001-3.0339421-.0016571-5.492328-2.4620564-5.49150062-5.4959988.0008278-3.0339425 2.46055561-5.4930013 5.49449816-5.4930013 1.45801201 0 2.85624198.5795004 3.88679007 1.6108925 1.03054813 1.0313921 1.60890403 2.430096 1.60771173 3.8881075"/><path d="m37.1114982 30.0484048c0 1.602-.774 2.3760001-2.376 2.3760001h-3.51c-1.602 0-2.376-.7740001-2.376-2.3760001v-14.2515c0-1.908-.6705-3.1995-2.889-3.1995-1.6253124.0268252-3.2130176.4933399-4.5945 1.35v16.11c0 1.602-.774 2.376-2.376 2.376h-3.51c-1.602 0-2.376-.774-2.376-2.376v-21.05549995c0-1.5975.774-2.376 2.376-2.376h1.2915c1.1385 0 1.602.567 2.322 1.8585 2.713536-1.65375658 5.8224506-2.54601507 9-2.583 7.02 0 9.036 3.717 9.036 8.67149995z"/><path d="m60.4485 22.2544049h-12.8565c-.207 3.357 1.548 4.338 5.5755 4.338 1.9514653.0502467 3.8993545-.193998 5.778-.7245 2.0655-.45 3.249.774 3.249 2.322v.981c0 1.395-.5175 2.25-1.8585 2.736-2.6757784.8270363-5.4613334 1.2442627-8.262 1.2375809-8.5185018 0-12.6495018-4.3380809-12.6495018-13.6305809s4.077-13.63050005 12.0825018-13.63050005c9.963 0 11.511 6.70950005 11.3085 13.99050005 0 1.548-.774 2.376-2.376 2.376m-12.8475-5.058h7.3305c.45-2.8395-.153-5.112-3.303-5.112-2.7855 0-4.0275 1.8585-4.0275 5.112"/><path d="m67.8285 3.45790494c0-1.4985.6165-2.0655 2.4795-2.583l2.7-.72450002c2.1375-.5625 3.0825.52200002 3.0825 2.10150002v4.33799991h4.05c1.602 0 2.376.774 2.376 2.376v2.11949995c0 1.6020001-.774 2.376-2.376 2.376h-4.05v9.8730001c0 2.016.774 3.15 3.4065 3.15h.5175c.5870411-.0249612 1.158288.1938559 1.5784245.6046181.4201365.4107623.6517859.9769271.6400755 1.5643819v1.7009999c.0381731 1.2680881-.8643018 2.3702596-2.115 2.583-.7657328.1421252-1.5432018.2114345-2.322.2072001-7.3305 0-9.963-3.0467001-9.963-9.1397001v-10.53h-2.0115c-1.602 0-2.376-.774-2.376-2.376v-1.19699995c0-1.35.567-2.0115 2.0655-2.4255l2.322-.621z"/></g></svg>