<svg height="39" viewBox="0 0 134 39" width="134" xmlns="http://www.w3.org/2000/svg" xmlns:xlink="http://www.w3.org/1999/xlink"><mask id="a" fill="#fff"/><mask id="b" fill="#fff"/><mask id="c" fill="#fff"/><mask id="d" fill="#fff"/><g fill="none" fill-rule="evenodd" transform="translate(1 1)"><g fill="#2c2733" fill-rule="nonzero" transform="translate(50.25 11.25)"><path d="m71.4212017 6.85596279c-.0076834-3.76608139-2.2078503-5.96863954-5.812369-5.81773256-2.2748157.09523256-4.1281348 1.58550001-4.6525869 3.84580814-.1856066.79934303-.2702881 1.65191861-.2300375 2.47152908.1029555 2.10231978.9189558 3.85972675 2.8662725 4.77933135 1.9935392.9413373 4.0027249.838657 5.8216458-.4958197 1.5824338-1.1609826 2.0118133-2.89287212 2.0070751-4.78311631m-.8681145 5.16306971c.6528479.5619942 1.2422743 1.0694129 1.8815064 1.6196861-.2361289.2634768-.4579252.5108372-.7245107.8082559-.5391431-.4541861-1.0690894-.8716221-1.5638015-1.3287384-.2786488-.2573721-.5005646-.2533431-.8447848-.1113489-2.1243238.8763837-4.2693105.8668605-6.3679551-.0600697-1.479956-.6536861-2.4653193-1.8488547-2.9796192-3.3961396-.6059088-1.82345932-.597787-3.68195929.0268736-5.49919185.8105061-2.35810465 2.9709002-3.87596512 5.5843225-3.90306977.9228972-.00952326 1.8767289.06153488 2.7660641.29546512 2.3488672.61803488 4.0442893 2.7842093 4.1865399 5.2656279.0530305.9258314.0488502 1.86863373-.0598384 2.78762793-.1629134 1.3750116-.8140892 2.53111047-1.9047968 3.52189527"/><path d="m.13977826 9.12312038h1.14588794c.02818736.26457555.03822015.52316857.08539815.77455815.23469562 1.25291857.95645931 2.08534887 2.14546436 2.44845347 1.30390438.3982675 2.63097973.4138954 3.93966162.02625 1.50921824-.4468605 2.21079697-2.1818024 1.50682949-3.63055817-.28987597-.59642438-.78912667-.90690698-1.38942195-1.05-1.42835876-.34063953-2.86245053-.65624999-4.29391467-.98370348-.13532322-.03088953-.26825769-.07276744-.40178934-.11171511-2.08885076-.60924419-2.92515547-2.25456978-2.22692106-4.3716628.44502589-1.34961628 1.53812225-1.79147093 2.75376196-2.00696511 1.3017545-.23075582 2.61354179-.23136628 3.90645787.09327907 1.45869597.36640116 2.43987897 1.23509302 2.70574787 2.80557558.0390563.23075581.0054941.47445348.0054941.75013953h-1.15795113c-.0255597-.22001163-.03451755-.41975581-.07357372-.61327326-.2074638-1.02509301-.80262323-1.71772674-1.77628161-2.02332558-1.2659231-.39765697-2.55083684-.38593604-3.8181932-.00805813-1.03481063.30840697-1.54493022 1.09236628-1.53895832 2.25664534.00549414 1.08003489.46043339 1.76900582 1.51530959 2.05494768 1.51256253.40998837 3.04614614.7384186 4.57041359 1.10359884.1348455.03223255.26777992.07374418.39975892.11733139 1.62793958.5372093 2.26585778 1.35376746 2.28389298 2.92180814.021021 1.80966277-.6833047 2.96478487-2.24137308 3.46377907-1.89034485.6054593-3.80660772.5859245-5.67808137-.0924244-1.66400987-.6033837-2.53996799-2.0862035-2.36761899-3.92468022" mask="url(#a)" transform="translate(48.730694 .067395)"/><path d="m.98097906 3.60066976c.00119525 1.88877908.95586298 2.85856396 2.80583779 2.85031449 1.66938459-.00750053 2.66024203-1.094861 2.65275999-2.91087262-.00744771-1.76631977-.992811-2.78677326-2.69277171-2.78897482-1.7615907-.00231588-2.76690014 1.03339924-2.76582607 2.84953295m5.4279791 2.36518605c-1.72086235 1.49087791-4.27372964 1.56828486-5.51062932.21769186-1.13000268-1.23375-1.13704952-3.90856395-.01158548-5.13706395.76846393-.83865698 1.75514105-1.03486046 2.82661913-1.03657566 1.07959986-.00170341 1.96917391.36799427 2.67326078 1.42019194.03786183-.48031395.06246606-.79238372.09029511-1.14559884h.8243609c.01086886.16653489.03212881.34112791.03236769.51584303.00226933 2.05360465.0069274 4.10733139-.00023888 6.16081395-.00728571 2.10891278-1.0250167 3.22972676-3.08138033 3.29101736-.78422974.0233199-1.59294428-.063122-2.35603351-.2478488-.93734922-.2267267-1.41617607-.97308133-1.45929318-1.9797383.52003294-.16409303.88826022-.11525588 1.05069587.54209302.13998131.5667558.625855.85379648 1.16487858.9077616.66765828.06702908 1.35490439.12197093 2.01467977.03381975 1.03361624-.13833135 1.64418317-.86747092 1.73459772-1.94567437.04287823-.51193607.00740515-1.03070933.00740515-1.59673259" mask="url(#b)" transform="translate(27.470734 5.439488)"/><path d="m1.02833708 5.38366744c1.41450395 0 2.78541303.04969186 4.15082797-.01648256 1.0092509-.04883721 1.59891618-.65209883 1.78022303-1.59233721.25595558-1.32690697-.25846378-2.61743023-1.28503318-2.71290697-1.52904497-.14236046-3.08018596-.0368721-4.64601782-.0368721zm-.01851288.85465117v4.55626739h-1.00984809v-10.66592437c.22239351-.01294186.4330821-.03430814.64400957-.03589535 1.47243136-.01159884 2.94486273-.03040116 4.41729409-.02478488 1.88282025.00720348 2.95489551 1.07307557 2.99347401 2.94818023.03941452 1.92027907-1.05045702 3.15561628-2.90377609 3.21397674-1.35012688.04236628-2.70264252.00818024-4.14115349.00818024z" mask="url(#c)" transform="translate(0 1.898791)"/><path d="m.01147799 12.7985477v-12.69193607c.18465111-.01990117.35532798-.03064535.52325777-.05811628.48037953-.07838372.60722267.14333721.60507279.61290697-.01492975 3.45718605-.00836067 6.91449416-.00740516 10.37168018.00023888.8602675.00214988.8611221.85792298.8613663 2.1087969.0004884 4.2175938.0001221 6.3263907.0001221h.6331407c.19372838.8286454.13054568.925221-.59229292.926564-2.56636379.0043954-5.13272756.0054942-7.69909135.0058605-.19528109 0-.39044274-.0166047-.64699551-.0284477" mask="url(#d)" transform="translate(73.573793 .433675)"/><path d="m46.475299 8.73827093c.0502834-1.36109302-1.039827-2.49277326-2.4790546-2.59826163-1.6507523-.12111627-2.7290383.82620349-2.9273053 2.59826163zm.9308996.63927907h-6.3339153c-.0845621 1.2646395.5567004 2.2977907 1.6222066 2.6974012 1.5224758.5710291 2.82005.0582383 3.5953219-1.3299593.1275598-.2284361.5860821-.2633547.9679254-.4185349-.2226324 1.8223605-1.9172184 2.8437907-4.0292401 2.6013139-2.048003-.2351511-3.3202563-1.9344418-3.1057457-4.14786627.222513-2.29339533 1.7545439-3.50993021 4.1525001-3.29699998 2.0170685.17898838 3.2930244 1.7325 3.1309471 3.89464535z"/><path d="m16.5237184 10.614975c.5503702-.1222151.934005-.1909535 1.0663423.5500291.05948.3331918.4887402.7175407.8349909.8542849.9496513.3750697 1.9512582.370186 2.9243193.0376046.6352906-.2173256.8938739-.6617442.8305717-1.3081046-.06163-.63-.4631804-.91252333-1.0237029-1.01166282-.9595647-.16995353-1.9240263-.31268025-2.8804856-.49911631-1.0762556-.20987789-1.5389583-.72608722-1.5658319-1.67792437-.0285456-1.01349422.4950705-1.78451166 1.5388389-1.92223259.9707919-.12807558 1.9857758-.14626745 2.9525067-.00525 1.0926186.15933139 1.6148015.94548837 1.6433472 2.10439537h-.8558925c-.0928034-.64306398-.338129-1.22630235-1.0425741-1.431907-.9451128-.27580814-1.88927-.29375582-2.7895934.15872093-.4384568.22037791-.5899042.64294186-.5454733 1.12972674.0458643.5035116.3893678.76405815.8157614.85306395.8361852.17459303 1.685031.28447673 2.5263521.43465118.3315598.05909302.6656278.12807554.9832134.23832555.6985927.2423547 1.1431409.70813957 1.1885272 1.50565117.0484919.853186-.221199 1.5671861-1.0104452 1.9000117-1.4760145.622186-2.9959821.6010639-4.4743854.0089128-.784827-.3143896-1.0706421-1.0347385-1.1163868-1.9191803"/><path d="m11.9760458 12.2189965c1.8680099.0094011 2.8635254-1.0385232 2.8642426-3.01496507.0008356-1.97522097-.9563404-3.0070291-2.7953269-3.01377249-1.7482136-.00644266-2.78063548 1.09837711-2.78905124 2.98471433-.00854444 1.91722673.99055424 3.03535463 2.72013554 3.04402323m3.7443807-3.0220465c-.0004779 2.422936-1.3131013 3.7542384-3.713924 3.7671802-2.2768461.0122093-3.66077393-1.4216511-3.65162275-3.7835407.00924227-2.33576159 1.36605767-3.72481392 3.64182875-3.7279954 2.4039282-.00353364 3.7241956 1.3241059 3.723718 3.7443559"/><path d="m27.3908901 12.0722163v.6799361c-.4744076 0-.9513235.0605581-1.4069794-.014407-.6701665-.11025-.9539511-.4894709-.9688808-1.2527966-.0278291-1.4210406-.0167213-2.84305812-.0214988-4.26458717-.0008361-.24027907-.0001195-.48068023-.0001195-.78127326-.3997589-.01868023-.7472039-.0350407-1.1375273-.05335465-.0134964-.21854651-.0254403-.41084302-.04037-.65112209.3838736-.02466279.7319159-.04700581 1.1472017-.07374418v-2.23881978h.8760776v2.26470349h1.5525742v.69544187h-1.499066c-.012541.23588372-.0312928.42793604-.0317705.62023255-.002747 1.198343-.0016721 2.39656392-.0013138 3.59490692.0003583 1.3778199.1122717 1.4912442 1.5316726 1.4748838"/><path d="m37.0703228 12.6760029c-.223349.0119651-.38041.0279593-.5373514.0260058-.096267-.0012209-.1921758-.0300349-.3272601-.0531104v-6.91266284h.8343937v1.00421512c.6388737-1.32593023 1.7670849-1.31555233 2.9676754-1.25487209v.81802326c-.1337705.00598255-.2655107.02063371-.396773.01672674-1.609785-.04602907-2.4464481.71876163-2.5201413 2.38569769-.0483723 1.0963953-.0166018 2.19633132-.0204239 3.29455812-.0007166.2012093-.0001194.4026628-.0001194.6754186"/></g><path d="m28.9092728 25.8830488.3972746.0358537c1.2032178.05625 2.7771837-.1988415 3.7018731-.640244 1.9905568-.9490243 3.1708977-2.5335365 1.2081136-2.1171951-4.4771951.9490244-4.7850095-.608689-4.7850095-.608689 4.7276837-7.2075915 6.7039982-16.35695123 4.9981118-18.5965244-4.652822-6.10875-12.7067349-3.22006097-12.8415038-3.14506097-.9275379-.18045732-1.9175644-.29314025-3.0297197-.31161586-2.0260739-.03420732-3.5634545.5457622-4.7296421 1.45463415 0 0-14.36775754-6.08213415-13.69934277 7.6489024.1421572 2.92097568 4.07484659 22.10259148 8.765322 16.30884148 1.71434277-2.118567 3.37109277-3.909878 3.37109277-3.909878.822678.5615853 1.8076307.8480488 2.8406515.7451524.0548333.1930793.0658712.4503659.111803.754939-1.2081136 1.3872257-.8531211 1.6307928-3.2689033 2.1417074-2.44408907.5175914-1.0081856 1.4390854-.0709451 1.6799085 1.1365455.2920427 3.765786.7057317 5.5427955-1.8497561l-.0707671.2915853c.4740057.3896342.4419602 2.8005183.5091667 4.5230488.0672954 1.722622.1795435 3.3300915.5212727 4.2778354.3417292.947561.7449678 3.3887195 3.9198712 2.6895732 2.6534526-.5842683 4.6821969-1.4251829 4.8670815-9.2475915.2521799-2.1585365.176606-2.4750914 1.7414034-2.1254268z" fill="#2c2733" fill-rule="nonzero"/><path d="m34.2169792 23.1612805c-4.4776402.9490244-4.7854546-.608689-4.7854546-.608689 4.7276837-7.2080488 6.7039981-16.3575915 4.9984678-18.59689028-4.652822-6.10838414-12.7070909-3.21951219-12.8415038-3.14451219l-.0432613.00795731c-.8846326-.18868902-1.8746591-.30109756-2.9873485-.3197561-2.0260738-.03411585-3.5629204.5457622-4.729108 1.45445122 0 0-14.36802459-6.08185975-13.69978784 7.64908534.14215719 2.9211586 4.07475757 22.1027744 8.76541097 16.3090244 1.71443187-2.118567 3.37091477-3.909878 3.37091477-3.909878.8227671.5615853 1.8077197.8480488 2.8402955.7451524l.0802026-.0699695c-.0249242.2630488-.0135303.5203354.0321345.8249085-1.2083807 1.3872257-.8532992 1.6307927-3.2689034 2.1417074-2.44426705.5175914-1.0083636 1.4390853-.070856 1.6799085 1.1365454.2920427 3.7659639.7057317 5.5426173-1.8497561l-.070856.2915853c.4734716.3896342.8059432 2.5345428.7502197 4.478872-.0557235 1.9444208-.0929319 3.2793293.2801307 4.3220122.3730624 1.0426829.7448787 3.3887195 3.9204053 2.6895732 2.6534526-.5842683 4.0284697-2.0983537 4.2197633-4.6239329.135748-1.7955184.4429393-1.5300915.4623447-3.1353659l.2463939-.7599695c.2841363-2.4339329.0451307-3.2191464 1.6798939-2.8539329l.3972746.0358536c1.2032178.05625 2.7779849-.1988415 3.7022291-.6402439 1.9902009-.9490244 3.1705417-2.5335366 1.2082027-2.1171951z" fill="#2c2733" fill-rule="nonzero"/><g stroke="#fff"><path d="m17.613072 24.5564634c-.123286 4.5289024.0309773 9.0893598.4622557 10.1977134.4315454 1.1083537 1.3550776 3.2641464 4.5308712 2.5650915 2.6531856-.5844512 3.6185549-1.7154878 4.0374602-4.2119817.3085265-1.8367683.9033257-6.9378659.9796118-7.9830183" stroke-linecap="round" stroke-linejoin="round" stroke-width="1.121859"/><path d="m13.8066061 1.85268293s-14.37781633-6.03804878-13.70940155 7.69289632c.14215719 2.92115855 4.07502462 22.10341465 8.76558903 16.30939025 1.71407572-2.1188415 3.26427462-3.7806402 3.26427462-3.7806402" stroke-linecap="round" stroke-linejoin="round" stroke-width="1.121859"/><path d="m21.5727329.75064025c-.4976836.16033536 7.9978334-3.19106708 12.8259262 3.14789633 1.7054413 2.23939025-.2708731 11.38893292-4.9984678 18.59716462" stroke-linecap="round" stroke-linejoin="round" stroke-width="1.121859"/><path d="m29.4001023 22.4957012s.3080814 1.5581708 4.7858106.6085061c1.961894-.4163415.7811969 1.1683536-1.2085587 2.1178354-1.632983.7787195-5.2940872.9782927-5.3539053-.0977744-.1539072-2.776372 1.926911-1.9328963 1.7767424-2.6285671-.1357481-.6265244-1.0663125-1.2414329-1.6818522-2.7748171-.5373846-1.3383841-7.3700986-11.6020426 1.8948654-10.07771335.3394149-.07216462-2.4164052-9.05506099-11.0871041-9.20112807-8.66874052-.14606707-8.3843371 10.95384152-8.3843371 10.95384152" stroke-linecap="round" stroke-linejoin="bevel" stroke-width="1.121859"/><path d="m15.1863409 23.4451829c-1.2085587 1.3871342-.8531212 1.6307012-3.2689034 2.1417988-2.44426708.5176829-1.0081856 1.4389939-.0709451 1.6797256 1.1365455.2922256 3.765964.7059147 5.5426174-1.8502134.5410341-.7782622-.0032045-2.020061-.746392-2.3366159-.3590871-.1528354-.8392349-.3443597-1.4563769.3653049z" stroke-linecap="round" stroke-linejoin="round" stroke-width="1.121859"/><path d="m15.1072064 23.4209451c-.1217727-.8155793.2608144-1.7860976.6708182-2.9215244.6161629-1.7035975 2.0378238-3.4074695.9005663-8.8114939-.8476913-4.02704265-6.5333561-.8380792-6.5369167-.2920426-.0034716.5458536.2571648 2.7676829-.0949792 5.3549999-.45949615 3.3761891 2.0907879 6.2315854 5.0274868 5.9394513" stroke-linecap="round" stroke-linejoin="round" stroke-width="1.121859"/><path d="m13.7543542 11.3140244c-.0256364.1864939.3322936.6841463.799.7506402.4659053.0667683.8646932-.3221341.8899734-.5084451.0252804-.1864939-.3322045-.3919207-.799089-.458689-.4661723-.0668597-.8651382.0304573-.8897954.2164939z" fill="#fff" fill-rule="nonzero" stroke-width=".5"/><path d="m27.9455056 10.933811c.0252804.1864939-.3322045.6841464-.7989999.7506402-.4662614.0667683-.8650493-.3221341-.8905966-.5084451-.0246572-.1864939.3329167-.3919207.799267-.458689.4663504-.0667683.8650493.0304573.8903295.2165854z" fill="#fff" fill-rule="nonzero" stroke-width=".5"/><path d="m29.6132045 9.64317075c.0768201 1.46286585-.3066571 2.45926835-.3549924 4.01652435-.0715681 2.2635366 1.0502898 4.8543293-.6401079 7.4483232" stroke-linecap="round" stroke-linejoin="round" stroke-width="1.121859"/></g></g></svg>