<svg width="134" height="39" viewBox="0 0 134 39" fill="none" xmlns="http://www.w3.org/2000/svg">
<g clip-path="url(#clip0_123_88)">
<path d="M122.671 19.106C122.664 15.3399 120.463 13.1373 116.859 13.2882C114.584 13.3835 112.731 14.8737 112.206 17.134C112.021 17.9334 111.936 18.786 111.976 19.6056C112.079 21.7079 112.895 23.4653 114.843 24.3849C116.836 25.3262 118.845 25.2236 120.664 23.8891C122.247 22.7281 122.676 20.9962 122.671 19.106M121.803 24.269C122.456 24.831 123.045 25.3384 123.685 25.8887C123.448 26.1522 123.227 26.3996 122.96 26.697C122.421 26.2428 121.891 25.8254 121.396 25.3682C121.118 25.1109 120.896 25.1149 120.552 25.2569C118.427 26.1333 116.282 26.1237 114.184 25.1968C112.704 24.5431 111.718 23.348 111.204 21.8007C110.598 19.9772 110.606 18.1187 111.231 16.3015C112.041 13.9434 114.202 12.4255 116.815 12.3984C117.738 12.3889 118.692 12.46 119.581 12.6939C121.93 13.3119 123.625 15.4781 123.768 17.9595C123.821 18.8853 123.817 19.8281 123.708 20.7471C123.545 22.1221 122.894 23.2782 121.803 24.269" fill="#2C2733"/>
<path d="M100.12 21.4405H101.266C101.295 21.7051 101.305 21.9637 101.352 22.2151C101.586 23.468 102.308 24.3004 103.497 24.6635C104.801 25.0618 106.128 25.0774 107.437 24.6898C108.946 24.2429 109.648 22.508 108.944 21.0592C108.654 20.4628 108.155 20.1523 107.554 20.0092C106.126 19.6686 104.692 19.353 103.26 19.0255C103.125 18.9946 102.992 18.9527 102.859 18.9138C100.77 18.3046 99.9334 16.6592 100.632 14.5421C101.077 13.1925 102.17 12.7507 103.385 12.5352C104.687 12.3044 105.999 12.3038 107.292 12.6285C108.751 12.9949 109.732 13.8635 109.998 15.434C110.037 15.6648 110.003 15.9085 110.003 16.1842H108.845C108.82 15.9642 108.811 15.7644 108.772 15.5709C108.564 14.5458 107.969 13.8532 106.995 13.5476C105.729 13.1499 104.445 13.1616 103.177 13.5395C102.142 13.8479 101.632 14.6319 101.638 15.7962C101.644 16.8762 102.099 17.5652 103.153 17.8511C104.666 18.2611 106.2 18.5895 107.724 18.9547C107.859 18.9869 107.992 19.0284 108.124 19.072C109.752 19.6092 110.39 20.4258 110.408 21.9938C110.429 23.8035 109.724 24.9586 108.166 25.4576C106.276 26.0631 104.36 26.0435 102.488 25.3652C100.824 24.7618 99.9481 23.279 100.12 21.4405" fill="#2C2733"/>
<path d="M79.7017 21.2902C79.7029 23.1789 80.6576 24.1487 82.5076 24.1405C84.177 24.133 85.1678 23.0456 85.1603 21.2296C85.1529 19.4633 84.1675 18.4428 82.4676 18.4406C80.706 18.4383 79.7007 19.474 79.7017 21.2902M85.1297 23.6553C83.4089 25.1462 80.856 25.2236 79.6191 23.873C78.4891 22.6393 78.482 19.9645 79.6075 18.736C80.376 17.8973 81.3626 17.7011 82.4341 17.6994C83.5137 17.6977 84.4033 18.0674 85.1074 19.1196C85.1453 18.6393 85.1699 18.3272 85.1977 17.974H86.022C86.0329 18.1405 86.0542 18.3151 86.0544 18.4898C86.0567 20.5434 86.0613 22.5972 86.0542 24.6506C86.0469 26.7596 85.0292 27.8804 82.9728 27.9417C82.1886 27.965 81.3798 27.8785 80.6168 27.6938C79.6794 27.4671 79.2006 26.7207 79.1575 25.7141C79.6775 25.55 80.0457 25.5988 80.2082 26.2562C80.3481 26.8229 80.834 27.11 81.373 27.1639C82.0407 27.231 82.7279 27.2859 83.3877 27.1978C84.4213 27.0594 85.0319 26.3303 85.1223 25.2521C85.1652 24.7401 85.1297 24.2214 85.1297 23.6553" fill="#2C2733"/>
<path d="M52.2784 19.5325C53.6929 19.5325 55.0638 19.5822 56.4292 19.516C57.4384 19.4671 58.0281 18.8639 58.2094 17.9236C58.4654 16.5967 57.9509 15.3062 56.9244 15.2107C55.3953 15.0684 53.8442 15.1739 52.2784 15.1739V19.5325ZM52.2598 20.3871V24.9434H51.25V14.2775C51.4724 14.2645 51.6831 14.2431 51.894 14.2416C53.3664 14.23 54.8389 14.2112 56.3113 14.2168C58.1941 14.224 59.2662 15.2898 59.3048 17.165C59.3442 19.0852 58.2543 20.3206 56.401 20.3789C55.0509 20.4213 53.6984 20.3871 52.2598 20.3871V20.3871Z" fill="#2C2733"/>
<path d="M124.835 25.4822V12.7903C125.02 12.7704 125.191 12.7596 125.359 12.7322C125.839 12.6538 125.966 12.8755 125.964 13.3451C125.949 16.8023 125.955 20.2596 125.956 23.7168C125.956 24.577 125.958 24.5779 126.814 24.5781C128.923 24.5786 131.032 24.5782 133.141 24.5782H133.774C133.967 25.4069 133.904 25.5035 133.181 25.5048C130.615 25.5092 128.049 25.5103 125.482 25.5107C125.287 25.5107 125.092 25.4941 124.835 25.4822" fill="#2C2733"/>
<path d="M97.7253 20.9883C97.7756 19.6272 96.6855 18.4955 95.2463 18.39C93.5955 18.2689 92.5172 19.2162 92.319 20.9883H97.7253ZM98.6562 21.6276H92.3223C92.2378 22.8922 92.879 23.9253 93.9445 24.325C95.467 24.896 96.7646 24.3832 97.5398 22.995C97.6674 22.7666 98.1259 22.7316 98.5078 22.5765C98.2851 24.3988 96.5906 25.4202 94.4785 25.1778C92.4305 24.9426 91.1583 23.2433 91.3728 21.0299C91.5953 18.7365 93.1273 17.52 95.5253 17.7329C97.5424 17.9119 98.8183 19.4654 98.6562 21.6276V21.6276Z" fill="#2C2733"/>
<path d="M67.7737 22.865C68.3241 22.7428 68.7077 22.674 68.8401 23.415C68.8996 23.7482 69.3288 24.1325 69.6751 24.2693C70.6247 24.6444 71.6263 24.6395 72.5994 24.3069C73.2347 24.0896 73.4933 23.6451 73.43 22.9988C73.3683 22.3688 72.9668 22.0863 72.4063 21.9871C71.4467 21.8172 70.4822 21.6744 69.5258 21.488C68.4495 21.2781 67.9868 20.7619 67.9599 19.8101C67.9314 18.7966 68.455 18.0256 69.4988 17.8879C70.4696 17.7598 71.4846 17.7416 72.4513 17.8826C73.5439 18.0419 74.0661 18.8281 74.0946 19.987H73.2387C73.1459 19.3439 72.9006 18.7607 72.1962 18.5551C71.2511 18.2793 70.3069 18.2613 69.4066 18.7138C68.9681 18.9342 68.8167 19.3568 68.8611 19.8435C68.907 20.3471 69.2505 20.6076 69.6769 20.6966C70.5131 20.8712 71.3619 20.9811 72.2032 21.1313C72.5348 21.1903 72.8688 21.2593 73.1864 21.3696C73.885 21.6119 74.3296 22.0777 74.375 22.8752C74.4235 23.7284 74.1538 24.4424 73.3645 24.7752C71.8885 25.3974 70.3685 25.3763 68.8901 24.7842C68.1053 24.4698 67.8195 23.7494 67.7737 22.865" fill="#2C2733"/>
<path d="M63.2261 24.469C65.0941 24.4784 66.0896 23.4305 66.0903 21.454C66.0911 19.4788 65.134 18.447 63.295 18.4403C61.5468 18.4338 60.5143 19.5386 60.5059 21.425C60.4974 23.3422 61.4965 24.4603 63.2261 24.469ZM66.9705 21.4469C66.97 23.8699 65.6573 25.2012 63.2565 25.2141C60.9797 25.2263 59.5958 23.7925 59.6049 21.4306C59.6141 19.0948 60.971 17.7058 63.2467 17.7026C65.6507 17.6991 66.9709 19.0267 66.9705 21.4469Z" fill="#2C2733"/>
<path d="M78.6409 24.3222V25.0022C78.1665 25.0022 77.6896 25.0627 77.2339 24.9877C76.5638 24.8775 76.28 24.4983 76.2651 23.7349C76.2372 22.3139 76.2483 20.8919 76.2436 19.4704C76.2427 19.2301 76.2435 18.9897 76.2435 18.6891C75.8437 18.6704 75.4962 18.654 75.1059 18.6357C75.0924 18.4172 75.0805 18.2249 75.0656 17.9846C75.4494 17.9599 75.7975 17.9376 76.2128 17.9109V15.672H77.0888V17.9368H78.6414V18.6322H77.1423C77.1298 18.8681 77.111 19.0601 77.1106 19.2524C77.1078 20.4508 77.1089 21.649 77.1093 22.8473C77.1096 24.2252 77.2215 24.3386 78.6409 24.3222Z" fill="#2C2733"/>
<path d="M88.3204 24.926C88.097 24.938 87.9399 24.954 87.783 24.952C87.6867 24.9508 87.5908 24.922 87.4557 24.8989V17.9862H88.2901V18.9905C88.929 17.6645 90.0572 17.6749 91.2578 17.7356V18.5536C91.124 18.5596 90.9923 18.5742 90.861 18.5703C89.2513 18.5243 88.4146 19.2891 88.3409 20.956C88.2925 22.0524 88.3243 23.1524 88.3205 24.2506C88.3198 24.4518 88.3204 24.6532 88.3204 24.926" fill="#2C2733"/>
<path d="M29.9093 26.883L30.3065 26.9189C31.5098 26.9752 33.0837 26.7201 34.0084 26.2787C35.999 25.3296 37.1793 23.7451 35.2165 24.1615C30.7393 25.1105 30.4315 23.5528 30.4315 23.5528C35.1592 16.3452 37.1355 7.19582 35.4296 4.95625C30.7768 -1.1525 22.7229 1.73619 22.5881 1.81119C21.6606 1.63073 20.6706 1.51805 19.5584 1.49957C17.5323 1.46537 15.995 2.04534 14.8288 2.95421C14.8288 2.95421 0.461016 -3.12793 1.12943 10.6031C1.27159 13.5241 5.20428 32.7057 9.89475 26.912C11.6091 24.7934 13.2658 23.0021 13.2658 23.0021C14.0885 23.5637 15.0735 23.8501 16.1065 23.7472C16.1613 23.9403 16.1724 24.1976 16.2183 24.5022C15.0102 25.8894 15.3652 26.133 12.9494 26.6439C10.5053 27.1615 11.9412 28.083 12.8785 28.3238C14.015 28.6158 16.6442 29.0295 18.4212 26.474L18.3505 26.7656C18.8245 27.1552 18.7924 29.5661 18.8596 31.2887C18.9269 33.0113 19.0392 34.6187 19.3809 35.5665C19.7226 36.5141 20.1259 38.9552 23.3008 38.2561C25.9542 37.6718 27.983 36.8309 28.1679 29.0085C28.4201 26.8499 28.3445 26.5334 29.9093 26.883V26.883Z" fill="#2C2733"/>
<path d="M35.217 24.1613C30.7393 25.1103 30.4315 23.5526 30.4315 23.5526C35.1592 16.3445 37.1355 7.195 35.43 4.9557C30.7772 -1.15268 22.7229 1.73619 22.5885 1.81119L22.5452 1.81915C21.6606 1.63046 20.6706 1.51805 19.5579 1.49939C17.5318 1.46527 15.995 2.04515 14.8288 2.95384C14.8288 2.95384 0.460754 -3.12802 1.12899 10.6029C1.27115 13.5241 5.20375 32.7057 9.8944 26.912C11.6088 24.7934 13.2653 23.0021 13.2653 23.0021C14.0881 23.5637 15.073 23.8501 16.1056 23.7472L16.1858 23.6773C16.1609 23.9403 16.1723 24.1976 16.2179 24.5022C15.0096 25.8894 15.3646 26.133 12.949 26.6439C10.5048 27.1615 11.9407 28.083 12.8782 28.3238C14.0147 28.6158 16.6442 29.0295 18.4208 26.474L18.35 26.7656C18.8234 27.1552 19.1559 29.3002 19.1002 31.2445C19.0444 33.1889 19.0072 34.5238 19.3803 35.5665C19.7534 36.6092 20.1252 38.9552 23.3007 38.2561C25.9542 37.6718 27.3292 36.1577 27.5205 33.6321C27.6562 31.8366 27.9634 32.102 27.9828 30.4968L28.2292 29.7368C28.5133 27.3029 28.2743 26.5177 29.9091 26.8829L30.3064 26.9187C31.5096 26.975 33.0844 26.7199 34.0086 26.2785C35.9988 25.3295 37.1791 23.7449 35.2168 24.1613H35.217Z" fill="#2C2733"/>
<path d="M18.6131 25.5565C18.4898 30.0854 18.6441 34.6458 19.0754 35.7542C19.5069 36.8625 20.4304 39.0183 23.6062 38.3193C26.2594 37.7348 27.2248 36.6038 27.6437 34.1073C27.9522 32.2705 28.547 27.1694 28.6233 26.1243" stroke="white" stroke-width="1.12186" stroke-linecap="round" stroke-linejoin="round"/>
<path d="M14.8066 2.85268C14.8066 2.85268 0.428804 -3.18537 1.09722 10.5456C1.23938 13.4667 5.17224 32.649 9.86281 26.855C11.5769 24.7361 13.1271 23.0743 13.1271 23.0743" stroke="white" stroke-width="1.12186" stroke-linecap="round" stroke-linejoin="round"/>
<path d="M22.5728 1.75064C22.0751 1.91098 30.5706 -1.44043 35.3987 4.89854C37.1041 7.13793 35.1278 16.2875 30.4002 23.4957" stroke="white" stroke-width="1.12186" stroke-linecap="round" stroke-linejoin="round"/>
<path d="M30.4001 23.4957C30.4001 23.4957 30.7082 25.0539 35.1859 24.1042C37.1478 23.6879 35.9671 25.2726 33.9774 26.222C32.3444 27.0008 28.6833 27.2003 28.6234 26.1243C28.4695 23.3479 30.5504 24.1914 30.4002 23.4957C30.2644 22.8692 29.3339 22.2543 28.7183 20.7209C28.181 19.3825 21.3482 9.11884 30.6132 10.6432C30.9526 10.571 28.1968 1.58811 19.5261 1.44204C10.8574 1.29598 11.1418 12.3959 11.1418 12.3959" stroke="white" stroke-width="1.12186" stroke-linecap="round" stroke-linejoin="bevel"/>
<path fill-rule="evenodd" clip-rule="evenodd" d="M16.1864 24.4452C14.9778 25.8323 15.3332 26.0759 12.9174 26.587C10.4732 27.1047 11.9093 28.026 12.8465 28.2667C13.983 28.5589 16.6125 28.9726 18.3891 26.4165C18.9302 25.6382 18.3859 24.3964 17.6427 24.0799C17.2836 23.927 16.8035 23.7355 16.1864 24.4452V24.4452Z" stroke="white" stroke-width="1.12186" stroke-linecap="round" stroke-linejoin="round"/>
<path d="M16.1072 24.4209C15.9854 23.6054 16.368 22.6348 16.778 21.4994C17.3942 19.7958 18.8159 18.092 17.6786 12.6879C16.8309 8.66088 11.1452 11.8498 11.1417 12.3959C11.1382 12.9417 11.3988 15.1636 11.0467 17.7509C10.5872 21.1271 13.1375 23.9825 16.0742 23.6903" stroke="white" stroke-width="1.12186" stroke-linecap="round" stroke-linejoin="round"/>
<path d="M14.7544 12.314C14.7287 12.5005 15.0867 12.9982 15.5534 13.0647C16.0193 13.1314 16.4181 12.7425 16.4434 12.5562C16.4686 12.3697 16.1111 12.1643 15.6443 12.0975C15.1781 12.0307 14.7791 12.128 14.7545 12.314H14.7544Z" fill="white" stroke="white" stroke-width="0.5"/>
<path d="M28.9455 11.9338C28.9708 12.1203 28.6133 12.618 28.1465 12.6845C27.6803 12.7512 27.2815 12.3623 27.2559 12.176C27.2313 11.9895 27.5888 11.7841 28.0552 11.7173C28.5215 11.6505 28.9202 11.7478 28.9455 11.9339V11.9338Z" fill="white" stroke="white" stroke-width="0.5"/>
<path d="M30.6132 10.6432C30.6901 12.106 30.3066 13.1024 30.2582 14.6597C30.1867 16.9232 31.3085 19.514 29.6181 22.108" stroke="white" stroke-width="1.12186" stroke-linecap="round" stroke-linejoin="round"/>
</g>
<defs>
<clipPath id="clip0_123_88">
<rect width="134" height="39" fill="white"/>
</clipPath>
</defs>
</svg>
