<svg height="94" viewBox="0 0 225 94" width="225" xmlns="http://www.w3.org/2000/svg"><g fill="none" transform="translate(72 2)"><g fill="#000" transform="translate(0 75.821384)"><path d="m2.38711111 7.04439805v3.85380555h-2.38711111v-10.07366846h3.936c1.18444444 0 2.132.26887015 2.82444444.80661046.69244445.53774031 1.03866667 1.27265207 1.03866667 2.22265995 0 .51981563-.14577778.96793255-.41911111 1.34435077s-.69244444.68113772-1.23911111.91415852c.61955555.17924677 1.07511111.46604161 1.34844444.87830918.27333334.41226757.41911111.91415852.41911111 1.52359754v.64528837c0 .26887015.03644445.55566498.12755556.89623387.07288889.3405688.21866667.5735896.41911111.7169871v.1433974h-2.46c-.18222222-.1433974-.30977778-.3943429-.36444444-.7528365-.05466667-.3584935-.09111111-.69906236-.09111111-1.00378187v-.60943902c0-.48396628-.12755556-.84245982-.38266667-1.09340529-.25511111-.25094548-.63777778-.37641822-1.12977778-.37641822h-1.64zm0-1.7924677h1.56711111c.47377778 0 .83822222-.10754806 1.09333334-.32264419.25511111-.21509612.38266666-.51981563.38266666-.9320832s-.12755555-.73491175-.38266666-.98585723c-.25511112-.25094548-.61955556-.37641822-1.09333334-.37641822h-1.54888889v2.61700284z"/><path d="m13.7577778 10.8982036c-.0728889-.1254727-.1275556-.2509455-.1822222-.3943429-.0546667-.1433974-.0911112-.3047195-.1457778-.4481169-.2186667.3047195-.492.555665-.82.7349117-.328.1792468-.7106667.2688702-1.1662222.2688702-.7288889 0-1.312-.1971715-1.7675556-.609439-.45555556-.4122676-.67422222-.95000791-.67422222-1.64907031 0-.73491176.29155555-1.30850142.85644444-1.72076899.56488888-.41226757 1.42133338-.60943902 2.58755558-.60943902h.8564444v-.53774031c0-.32264418-.0728889-.55566498-.2368889-.73491175-.1457777-.17924677-.3826666-.25094548-.7106666-.25094548-.2733334 0-.4737778.07169871-.6013334.19717145-.1275555.12547274-.2004444.32264418-.2004444.59151434h-2.29600001l-.01822222-.03584936c-.03644445-.68113772.25511111-1.25472738.85644443-1.72076898.6013333-.46604161 1.4213333-.68113773 2.4235556-.68113773.9293333 0 1.6946666.2330208 2.2777777.6990624.5831112.4660416.8746667 1.12925465.8746667 1.97171447v2.81417428c0 .39434289.0364445.77076111.1093333 1.11132997.0728889.34056882.164.68113772.3097778 1.02170662zm-1.5671111-1.50567287c.2368889 0 .4555555-.05377403.656-.14339742.2004444-.08962338.3644444-.21509612.4737777-.35849354v-1.18302868h-.8382222c-.3826666 0-.656.08962339-.82.26887016s-.2551111.41226757-.2551111.68113772c0 .21509613.0728889.37641822.2186667.51981563.1457778.14339742.328.21509613.5648889.21509613z"/><path d="m20.992 8.80101639c0-.17924677-.1093333-.34056886-.328-.50189096-.2186667-.14339741-.6013333-.26887015-1.1662222-.39434289-.8928889-.17924677-1.5488889-.43019225-2.0044445-.78868579-.4555555-.35849354-.6742222-.84245981-.6742222-1.46982351 0-.66321304.2733333-1.21887803.8382222-1.68491963s1.3302223-.68113773 2.2777778-.68113773c1.0204445 0 1.8222222.21509613 2.4235556.66321305.6013333.44811693.8928889 1.02170659.8564444 1.72076899l-.0182222.03584935h-2.3142222c0-.28679483-.0728889-.51981563-.2368889-.66321304-.1457778-.14339742-.4008889-.2330208-.7288889-.2330208-.2551111 0-.4555556.0716987-.6195556.19717144s-.2551111.30471951-.2551111.51981563c0 .19717145.0911111.35849354.2915556.50189096.2004444.14339741.5831111.26887015 1.1844444.37641822.9293334.17924677 1.6217778.44811692 2.0591111.80661046.4555556.35849354.6742223.86038449.6742223 1.52359754 0 .68113772-.3097778 1.23680271-.9111112 1.66699492-.6013333.4301923-1.4031111.6452884-2.4053333.6452884-1.0386667 0-1.8586667-.2509455-2.46-.7707611-.6013333-.51981563-.8928889-1.0934053-.8564444-1.73869367l.0182222-.03584935h2.1502222c.0182222.35849354.1093333.60943902.328.77076111.2004445.16132209.5102222.2330208.8928889.2330208.328 0 .5648889-.05377403.7288889-.17924677.1822222-.12547274.2551111-.28679483.2551111-.51981563z"/><path d="m31.4515556 7.3132682c0 1.12925465-.2551112 2.0254885-.7653334 2.7066262s-1.2391111 1.0217066-2.1866666 1.0217066c-.3644445 0-.6924445-.0716987-.9657778-.2150961-.2915556-.1433974-.5284445-.3405689-.7471111-.609439v3.549086h-2.3871111v-10.36046328h2.2231111l.0911111.82453514c.2186666-.30471951.4737778-.55566498.7653333-.71698708.2915556-.16132209.6195556-.25094547 1.0204445-.25094547.9475555 0 1.6764444.35849354 2.1866666 1.07548061.5102222.71698708.7835556 1.64907029.7835556 2.83209896v.14339742zm-2.3688889-.14339742c0-.62736369-.0911111-1.14717932-.2733334-1.52359754-.1822222-.37641821-.492-.57358966-.8928889-.57358966-.2733333 0-.492.05377403-.6742222.14339742-.1822222.08962338-.328.2330208-.4373333.43019224v3.13681847c.1093333.16132209.2551111.28679483.4555555.35849354.1822223.07169871.4191112.12547274.6924445.12547274.4191111 0 .7106667-.16132209.8928889-.50189096.1822222-.34056886.2733333-.80661046.2733333-1.41604948v-.17924677z"/><path d="m39.5604444 7.3132682c0 1.14717933-.2551111 2.04341317-.7471111 2.7245509-.492.6811377-1.2391111 1.0037819-2.2048889 1.0037819-.4191111 0-.7835555-.0896234-1.0933333-.2688701-.3097778-.1792468-.5648889-.4301923-.7835555-.7707612l-.1457778.8783092h-2.0591111v-10.79065552h2.3871111v4.03305232c.2186666-.26887015.4555555-.48396628.7288889-.64528837.2733333-.14339742.6013333-.2330208.9657777-.2330208.984 0 1.7128889.35849354 2.2231112 1.05755594.492.6990624.7471111 1.64907028.7471111 2.83209896v.17924677zm-2.3871111-.14339742c0-.66321304-.0911111-1.18302867-.2551111-1.54152221s-.492-.55566499-.9475555-.55566499c-.2551111 0-.4737778.05377403-.656.14339742-.1822223.08962338-.328.2330208-.4373334.41226757v3.15474314c.1093334.16132209.2551111.28679483.4373334.35849354.1822222.07169871.4008889.12547274.6742222.12547274.4737778 0 .7835555-.16132209.9475555-.48396628.164-.32264418.2368889-.80661046.2368889-1.45189883z"/><path d="m44.0795556 11.0595257c-1.1297778 0-2.0226667-.3405689-2.6786667-1.0396313-.6742222-.69906238-1.0022222-1.55944687-1.0022222-2.59907814v-.26887015c0-1.14717933.3097777-2.07926253.9111111-2.79624961.6013333-.71698708 1.476-1.07548062 2.6057778-1.07548062 1.0386666 0 1.8404444.30471951 2.4235555.91415853s.8746667 1.43397416.8746667 2.47360542v1.21887803h-4.3551111l-.0182223.03584936c.0546667.37641821.2186667.6990624.4737778.95000788.2551111.25094547.6195556.37641821 1.0751111.37641821.4555556 0 .8017778-.03584935 1.0751111-.10754806.2733334-.07169871.6195556-.19717145 1.0204445-.35849354l.5648889 1.43397419c-.328.2330208-.7653334.4481169-1.2937778.5915143-.5102222.1613221-1.0751111.2509455-1.6764444.2509455zm-.164-5.98684212c-.3462223 0-.6013334.12547274-.7653334.35849354s-.2733333.55566499-.3097778.96793256l.0182223.03584935h2.0408889v-.17924677c0-.37641822-.0728889-.66321305-.2368889-.87830917-.164-.19717145-.4191111-.30471951-.7471111-.30471951z"/><path d="m52.5164444 5.48495115h-.8564444c-.2733333 0-.492.05377403-.6742222.14339742-.1822222.08962338-.3097778.21509612-.3826667.37641821v4.91136152h-2.3871111v-7.492515h2.2413333l.0911111 1.09340529c.164-.39434289.3644445-.6990624.6377778-.91415852.2551111-.21509612.5648889-.32264419.9293334-.32264419.1093333 0 .2186666 0 .3462222.01792468.1093333.01792468.2186666.03584935.3097778.05377403z"/><path d="m57.8555556 5.48495115h-.8564445c-.2733333 0-.492.05377403-.6742222.14339742-.1822222.08962338-.3097778.21509612-.3826667.37641821v4.91136152h-2.3871111v-7.492515h2.2413333l.0911112 1.09340529c.164-.39434289.3644444-.6990624.6377777-.91415852.2551111-.21509612.5648889-.32264419.9293334-.32264419.1093333 0 .2186666 0 .3462222.01792468.1093333.01792468.2186667.03584935.3097778.05377403z"/><path d="m61.9555556 7.60006303v.05377403h.0364444l1.2573333-4.24814844h2.5328889l-3.0248889 8.60384498c-.2368889.555665-.5284444 1.0037819-.9111111 1.3622754-.3644444.3584936-.9657778.5377403-1.7675555.5377403-.2004445 0-.3826667-.0179247-.5102223-.0358493-.1275555-.0179247-.3462222-.0716987-.6195555-.1433974l.2915555-1.666995c.0728889.0179247.1093334.0179247.1457778.0358493.0364445 0 .0728889.0179247.1275556.0179247.3826666 0 .656-.053774.82-.1613221.1822222-.107548.3097778-.2688701.3826666-.4839662l.1822223-.4839663-2.624-7.5642137h2.5328889z"/><path d="m72.5062222 7.45666562v3.45946268h-2.3871111v-10.07366848h4.1546667c1.2208889 0 2.1866666.30471951 2.8973333.91415852.7106667.60943902 1.0751111 1.41604948 1.0751111 2.40190672 0 .98585723-.3644444 1.79246769-1.0751111 2.40190671-.7106667.60943901-1.6764444.91415852-2.8973333.91415852h-1.7675556zm0-1.81039238h1.7675556c.5102222 0 .9111111-.14339741 1.1844444-.41226757.2733334-.28679483.4008889-.64528837.4008889-1.07548061 0-.44811693-.1275555-.80661047-.4008889-1.0934053-.2733333-.28679483-.656-.43019225-1.1844444-.43019225h-1.7675556z"/><path d="m81.9453333 1.68491963h-2.3871111v-1.57737157h2.3871111zm0 9.21328397h-2.3871111v-7.49251498h2.3871111z"/></g><path d="m26.0942222.17924677c-.3644444.01792468-.7653333.14339741-1.2026666.48396628-1.0933334-.41226757-2.1684445-.55566499-3.116.28679483-1.476-.17924677-1.9497778.19717145-2.3142223.64528837-.328 0-2.4053333-.32264419-3.3711111 1.05755594-2.4053333-.26887015-3.1524444 1.38020013-2.296 2.90379767-.492.73491175-1.0022222 1.46982351.1457778 2.86794831-.4008889.78868579-.1457778 1.63114563.8017778 2.65285223-.2551111 1.0934053.2368889 1.882091 1.1297778 2.4915301-.164 1.5056728 1.4213333 2.383982 1.8951111 2.6887015.1822222.8783092.5648889 1.7028443 2.3871111 2.1688859.2915555 1.3085014 1.3848889 1.5415222 2.46 1.8103924-3.4986667 1.9717145-6.5053334 4.5707926-6.4871111 10.9340529l-.5102223.8783092c-4.0088888 2.3660574-7.61688884 9.9661204-1.9862222 16.150134.3644445 1.9358651.984 3.3160652 1.5306667 4.8575874.82 6.2019382 6.1955555 9.0878112 7.6168889 9.4463048 2.0773333 1.5415222 4.2822222 2.993421 7.2888889 4.0151276 2.8244444 2.8141743 5.8857777 3.8896549 8.9653333 3.8896549h.1275556c3.0795555 0 6.1408888-1.0754806 8.9653333-3.8896549 2.9884444-1.0217066 5.2115555-2.4736054 7.2888889-4.0151276 1.4213333-.3405689 6.7968889-3.2443666 7.6168889-9.4463048.5466666-1.5415222 1.1662222-2.9217223 1.5306666-4.8575874 5.6488889-6.1840136 2.0408889-13.7840766-1.9862222-16.150134l-.5102222-.8783092c.0182222-6.3632603-2.9884445-8.9623384-6.4871111-10.9340529 1.0568889-.2688702 2.1502222-.501891 2.46-1.8103924 1.8222222-.4660416 2.2048889-1.2905767 2.3871111-2.1688859.4737778-.3047195 2.0773333-1.1830287 1.8951111-2.6887015.8928889-.6094391 1.3848889-1.3802002 1.1297778-2.4915301.9657778-1.0217066 1.2026666-1.88209112.8017778-2.65285223 1.148-1.3981248.6377777-2.13303656.1457777-2.86794831.8564445-1.54152222.1093334-3.1905925-2.3142222-2.90379767-.9657778-1.38020013-3.0431111-1.07548062-3.3711111-1.05755594-.3644444-.44811692-.8382222-.82453514-2.3142222-.64528837-.9475556-.84245982-2.0226667-.6990624-3.116-.28679483-1.2937778-1.00378191-2.1684445-.19717145-3.1524445.10754806-1.5853333-.50189096-1.9315555.17924677-2.7151111.4660416-1.7128889-.35849354-2.2413333.41226757-3.0613333 1.21887803l-.9657778-.01792467c-2.5875555 1.48774818-3.8813333 4.49909391-4.3368889 6.04061613-.4555555-1.55944689-1.7493333-4.57079262-4.3368889-6.04061613l-.9657777.01792467c-.82-.80661046-1.3484445-1.57737157-3.0613334-1.21887803-.7835555-.28679483-1.1297778-.96793256-2.7151111-.4660416-.5831111-.19717145-1.1662222-.60943902-1.8768889-.59151434z" fill="#000"/><g fill="#fff"><path d="m20.9373333 6.70382918c6.888 3.44153802 10.8786667 6.21986292 13.0653334 8.58592022-1.1297778 4.3556966-6.9791111 4.552868-9.1111111 4.4273953.4373333-.1971715.8017777-.4301923.9293333-.8066105-.5284445-.3764182-2.4417778-.0358494-3.772-.7707611.5102222-.1075481.7471111-.1971715.984-.5735897-1.2573333-.3943429-2.6057778-.7169871-3.4075556-1.3622754.4373334 0 .8382223.0896234 1.3848889-.2867949-1.1297778-.5915143-2.3324444-1.0575559-3.2617778-1.9537897.5831112-.0179247 1.2026667 0 1.3848889-.2150962-1.0386666-.609439-1.8951111-1.3085014-2.624-2.0613378.82.0896234 1.1662223.0179247 1.3484445-.1254728-.7835556-.7707611-1.7675556-1.4339741-2.2413334-2.383982.6013334.19717145 1.1662223.28679484 1.5488889-.01792467-.2733333-.57358967-1.4031111-.91415853-2.0591111-2.27643398.6377778.05377403 1.312.12547274 1.4395556 0-.2915556-1.165104-.8017778-1.82831705-1.2937778-2.50945477 1.3666667-.01792468 3.4257778 0 3.3346667-.10754806l-.8382223-.84245982c1.3302223-.34056886 2.6968889.05377403 3.6808889.35849354.4373334-.34056886 0-.77076111-.5466666-1.20095336 1.1297777.14339742 2.1502222.3943429 3.0795555.75283643.492-.43019224-.328-.86038449-.7106666-1.29057674 1.7493333.32264419 2.4782222.77076111 3.2253333 1.21887804.5284444-.50189096.0364444-.91415853-.328-1.34435078 1.312.46604161 2.0044444 1.07548062 2.7151111 1.68491964.2368889-.32264419.6195556-.55566499.164-1.30850142.9293333.51981563 1.64 1.12925465 2.1684444 1.82831705.5831112-.35849354.3462223-.84245982.3462223-1.29057674.9657777.77076111 1.5853333 1.57737157 2.3506666 2.38398204.1457778-.10754807.2915556-.46604161.4008889-1.03963127 2.3142222 2.18681059 5.5942222 7.67176177.8382222 9.84064767-4.0088888-3.2085172-8.8377777-5.55664987-14.1951111-7.31326822z"/><path d="m57.4546667 6.70382918c-6.888 3.44153802-10.8786667 6.21986292-13.0653334 8.58592022 1.1297778 4.3556966 6.9791111 4.552868 9.1111111 4.4273953-.4373333-.1971715-.8017777-.4301923-.9293333-.8066105.5284445-.3764182 2.4417778-.0358494 3.772-.7707611-.5102222-.1075481-.7471111-.1971715-.984-.5735897 1.2573333-.3943429 2.6057778-.7169871 3.4075556-1.3622754-.4373334 0-.8382223.0896234-1.3848889-.2867949 1.1297778-.5915143 2.3324444-1.0575559 3.2617778-1.9537897-.5831112-.0179247-1.2026667 0-1.3848889-.2150962 1.0386666-.609439 1.8951111-1.3085014 2.624-2.0613378-.82.0896234-1.1662223.0179247-1.3484445-.1254728.7835556-.7707611 1.7675556-1.4339741 2.2413334-2.383982-.6013334.19717145-1.1662223.28679484-1.5488889-.01792467.2733333-.57358967 1.4031111-.91415853 2.0591111-2.27643398-.6377778.05377403-1.312.12547274-1.4395556 0 .2915556-1.165104.8017778-1.82831705 1.2937778-2.50945477-1.3666667-.01792468-3.4257778 0-3.3346667-.10754806l.8382223-.84245982c-1.3302223-.34056886-2.6968889.05377403-3.6808889.35849354-.4373334-.34056886 0-.77076111.5466666-1.20095336-1.1297777.14339742-2.1502222.3943429-3.0795555.75283643-.492-.43019224.328-.86038449.7106666-1.29057674-1.7493333.32264419-2.4782222.77076111-3.2253333 1.21887804-.5284444-.50189096-.0364444-.91415853.328-1.34435078-1.312.46604161-2.0044444 1.07548062-2.7151111 1.68491964-.2368889-.32264419-.6195556-.55566499-.164-1.30850142-.9293333.51981563-1.64 1.12925465-2.1684444 1.82831705-.5831112-.35849354-.3462223-.84245982-.3462223-1.29057674-.9657777.77076111-1.5853333 1.57737157-2.3506666 2.38398204-.1457778-.10754807-.2915556-.46604161-.4008889-1.03963127-2.3142222 2.18681059-5.5942222 7.67176177-.8382222 9.84064767 4.0088888-3.2085172 8.8377777-5.55664987 14.1951111-7.31326822z"/><g transform="translate(13.302222 19.896391)"><path d="m34.5857778 31.1889379c.0182222 4.0689017-3.6444445 7.3849669-8.2 7.4028916-4.5555556.0179247-8.2546667-3.2622912-8.2911111-7.3311929v-.0716987c-.0182223-4.0689017 3.6444444-7.3849669 8.2-7.4028916 4.5555555-.0179246 8.2546666 3.2622912 8.2911111 7.3311929z"/><path d="m21.5751111 10.1453672c3.4075556 2.1688859 4.0271111 7.0802474 1.3666667 10.9699023-2.6604445 3.8896549-7.5804445 5.2877797-10.988 3.1188938-3.40755558-2.168886-4.02711113-7.0802474-1.3666667-10.9699023 2.6604445-3.88965495 7.5804445-5.28777975 10.988-3.1188938z"/><path d="m30.7955556 9.75102427c-3.4075556 2.16888593-4.0271112 7.08024743-1.3666667 10.96990233 2.6604444 3.8896549 7.5804444 5.2877797 10.988 3.1188938 3.4075555-2.168886 4.0271111-7.0802474 1.3666667-10.9699023-2.6422223-3.88965494-7.5804445-5.28777975-10.988-3.11889383z"/><path d="m4.50088889 13.6944532c3.68088889-.9500079 1.23911111 14.7878585-1.74933333 13.4972818-3.29822223-2.5811535-4.37333334-10.1095179 1.74933333-13.4972818z"/><path d="m47.1226667 13.4972818c-3.6808889-.9500079-1.2391111 14.7878584 1.7493333 13.4972817 3.2982222-2.5811535 4.3733333-10.1095178-1.7493333-13.4972817z"/><path d="m34.5857778 1.77454302c6.3595555-1.03963126 11.6622222 2.61700284 11.4435555 9.30290738-.2004444 2.5632288-13.776-8.92648916-11.4435555-9.30290738z"/><path d="m17.0013333 1.57737157c-6.3595555-1.03963126-11.66222219 2.61700284-11.44355552 9.30290733.21866666 2.5632288 13.79422222-8.92648911 11.44355552-9.30290733z"/><path d="m26.1488889.01792468c-3.7902222-.08962339-7.4346667 2.7245509-7.4528889 4.37362118-.0182222 1.98963914 3.0066667 4.03305231 7.4711111 4.08682634 4.5737778.03584936 7.4893333-1.6311456 7.5075556-3.69248345.0182222-2.33020801-4.1546667-4.80381343-7.5257778-4.76796407z"/><path d="m26.3857778 40.8682635c3.3164444-.1433974 7.7626666 1.0396312 7.7626666 2.5811535.0546667 1.5056728-4.0271111 4.9292861-7.9813333 4.8575874-4.1.1792468-8.1088889-3.2443665-8.0542222-4.4273952-.0728889-1.720769 4.9746667-3.0830444 8.2728889-3.0113457z"/><path d="m14.1586667 31.6549795c2.3506666 2.7604003 3.4257777 7.5821384 1.4577777 9.0161125-1.8586666 1.0934053-6.37777773.6452884-9.60311107-3.8358808-2.16844444-3.7462575-1.89511111-7.5642137-.36444444-8.6934684 2.27777778-1.3443507 5.79466671.4660416 8.50977781 3.5132367z"/><path d="m38.1391111 30.7766703c-2.5511111 2.9037977-3.9724444 8.1736527-2.1137778 9.876497 1.7857778 1.3264261 6.56 1.1292547 10.0768889-3.60286 2.5693334-3.1905925 1.6946667-8.5142216.2368889-9.9123464-2.1502222-1.6490703-5.2844444.4481169-8.2 3.6387094z"/></g></g></g></svg>