<svg height="94" viewBox="0 0 225 94" width="225" xmlns="http://www.w3.org/2000/svg"><g transform="translate(63 29)"><path d="m15.9554858 13.6991968c0 1.4525238-1.1917908 2.7489184-2.7459695 2.7489184-1.1917908 0-2.2276427.3114558-3.1083573.9857415-.98413939.6229115-1.76142915 1.5042993-2.38277992 2.4896394-1.24350326 1.6600272-1.86445315 3.6307075-2.12381699 4.3563674v9.8550068c0 1.5042993-1.29481481 2.7493197-2.84899346 2.7493197-1.50246623 0-2.74556863-1.2450204-2.74556863-2.7493197v-20.4356735c0-1.5042993 1.2431024-2.6971429 2.74556863-2.6971429 1.55417865 0 2.84899346 1.1932449 2.84899346 2.6971429v.3632313c.31067538-.3632313.72517647-.7778367 1.08796514-1.037517 1.70971678-1.1406667 3.93695857-2.0746327 6.52698907-2.0228572 1.5541787 0 2.7459695 1.1932449 2.7459695 2.6971429z"/><path d="m14 23.9667551c.0521133-7.0539116 5.5432505-12.9667551 12.639878-12.9667551 6.7346405 0 12.0702396 5.0310544 12.4851416 12.0327891v.2592789c0 .1039524 0 .36283-.0517124.4667823-.155939 1.2450204-1.2435033 2.0750341-2.6942571 2.0750341h-16.4734118c.258963 1.1932449.8286014 2.5414149 1.7614292 3.423204 1.0879652 1.2450204 3.1600698 2.1777823 4.9728105 2.3335102 1.864854.1553266 4.0924967-.3110544 5.3877124-1.2963945 1.0875643-1.1414694 3.2117821-.9853402 3.8852462-.1561293.6734641.726864 1.19139 2.2829388 0 3.3714286-2.538719 2.3335102-5.594963 3.4232041-9.2733595 3.4232041-7.0962266-.0509728-12.5873638-5.9120408-12.6394771-12.9659524zm5.6466754-2.541415h14.6602701c-.5179259-2.0746326-3.1600697-5.1346054-7.6670675-5.4978367-4.4027712.207102-6.5787015 3.3714286-6.9932026 5.4978367z"/><path d="m65.176732 33.506381c0 1.5042993-1.2435032 2.8010952-2.7976819 2.8010952-1.3986405 0-2.4862048-.9853401-2.7455686-2.2303606-1.9682789 1.3481701-4.4548846 2.2303606-7.0453159 2.2303606-6.9932026 0-12.5881656-5.9128435-12.5881656-12.9149796 0-7.1060884 5.594963-13.018932 12.5881656-13.018932 2.5387189 0 5.0249237.8296123 6.9414902 2.1781837v-9.75065306c0-1.50429932 1.2435032-2.80109524 2.8489934-2.80109524 1.5541787 0 2.797682 1.29679592 2.797682 2.80109524v20.53922446.0521769 10.1138844zm-12.5881656-17.4792517c-1.864854 0-3.5745708.7778367-4.8689847 2.1264081-1.2952157 1.2967959-2.0725054 3.1635238-2.0725054 5.2385578 0 1.9706803.7768888 3.8378096 2.0725054 5.1346055 1.2944139 1.3489728 3.0041307 2.1268095 4.8689847 2.1268095 1.9165665 0 3.5745709-.7778367 4.8693857-2.1268095 1.2948148-1.2963946 2.0721045-3.1639252 2.0721045-5.1346055 0-2.075034-.7768888-3.9417619-2.0721045-5.2385578-1.2948148-1.3485714-2.9528192-2.1264081-4.8693857-2.1264081z"/><path d="m75.594963 3.89038776c0 1.55607483-1.19139 2.85246938-2.797682 2.85246938-1.5541786 0-2.797281-1.29639455-2.797281-2.85246938v-1.08929252c0-1.55607483 1.2431024-2.80109524 2.797281-2.80109524 1.606292 0 2.797682 1.24502041 2.797682 2.80109524zm0 9.38782314v20.2281701c0 1.5560748-1.19139 2.8010952-2.797682 2.8010952-1.5541786 0-2.797281-1.2450204-2.797281-2.8010952v-20.2281701c0-1.6596259 1.2431024-2.8528708 2.797281-2.8528708 1.6066929 0 2.797682 1.1932449 2.797682 2.8528708z"/><path d="m78.6075749 29.515966c.932427-1.2442177 2.7459695-1.3999456 3.8852462-.4146055 1.3469281 1.1414694 3.6783965 2.3335102 5.6983878 2.2821361 1.3986405 0 2.6938562-.466381 3.5228584-.9853401.7251764-.6225102.9320261-1.1406667.9320261-1.5560749 0-.2592789-.0517124-.3628299-.1551372-.5189592-.0521133-.1553265-.258963-.3628299-.673865-.6217074-.7251764-.5189592-2.2793551-1.0896939-4.1442091-1.4525238h-.0517124c-1.606292-.3110545-3.1604706-.7260613-4.5069979-1.3489728-1.3986405-.6738844-2.6421437-1.607449-3.5745708-3.007796-.5696383-.9335646-.8803137-2.0746326-.8803137-3.2674761 0-2.3860885 1.3469281-4.4089456 3.056244-5.7057415 1.8131416-1.2446191 3.9890719-1.9189048 6.3722527-1.9189048 3.57417 0 6.1124881 1.7118027 7.7704924 2.8524694 1.2435033.8300136 1.6058911 2.5418163.8286013 3.8378095-.8286013 1.2450204-2.5383181 1.6082517-3.8331329.7264626-1.6576035-1.0888912-3.1083573-1.9193061-4.7659608-1.9193061-1.2952156 0-2.4348932.4150068-3.1083573.9335646-.673464.4671837-.8286013.933966-.8286013 1.1932449 0 .207102 0 .2592789.1034249.4146054.0521133.1035511.2072505.3110545.5700392.5185579.6738649.4667823 2.0203921.9335646 3.7818213 1.2450204l.0517125.0521768h.0521133c1.7097167.3106531 3.3156078.7778368 4.8176732 1.503898 1.3986405.6225102 2.7976819 1.6078503 3.6783965 3.0599728.6217516 1.0371156.9841394 2.2303605.9841394 3.4232041 0 2.5414149-1.3986405 4.6682245-3.2638954 6.0163945-1.8648541 1.2963946-4.1963225 2.075034-6.7346405 2.075034-4.0403835-.0517755-7.1487408-1.9189047-9.2208454-3.5785306-1.1400784-.9335646-1.2952156-2.6975442-.3631895-3.8386122z"/></g></svg>