<svg height="24" viewBox="0 0 89 24" width="89" xmlns="http://www.w3.org/2000/svg"><g fill="none"><g fill="#000"><path d="m20.709 1.5678c-.3042.7488-.7254 1.4742-1.2168 2.1294-4.3524-4.5162-11.5362-4.6332-16.029-.2808s-4.6332 11.5362-.2808 16.029c.1404.1638.3042.3042.468.4446l.4212.3744c4.7736 4.0248 11.934 3.4164 15.9588-1.3572 1.5444-1.8252 2.4804-4.1184 2.6442-6.5052.3276-2.8314-.5382-6.4818-1.9656-10.8342zm-15.4206 18.4392c-.3276.4212-.936.468-1.3572.1404s-.468-.936-.1404-1.3572.936-.468 1.3572-.1404c.3978.3276.468.936.1404 1.3572zm15.3504-3.393c-2.7846 3.7206-8.775 2.457-12.5892 2.6442 0 0-.6786.0468-1.3572.1404 0 0 .2574-.117.585-.234 2.691-.936 3.9546-1.1232 5.5926-1.9656 3.0654-1.5678 6.1308-5.0076 6.7392-8.5644-1.17 3.4164-4.7268 6.3648-7.956 7.5582-2.223.819-6.2244 1.6146-6.2244 1.6146l-.1638-.0936c-2.7144-1.3338-2.808-7.2306 2.1528-9.126 2.1762-.8424 4.2354-.3744 6.5988-.936 2.5038-.585 5.4054-2.457 6.5754-4.914 1.3104 3.9546 2.9016 10.0854.0468 13.8762z"/><path d="m29.1096 16.0524c-.3042-.1872-.4914-.5148-.468-.8658 0-.5616.4446-1.0296 1.0062-1.0296h.0234c.1872 0 .3744.0468.5382.1404.936.6552 2.0358 1.0062 3.159 1.053 1.0764 0 1.7082-.468 1.7082-1.1934v-.0468c0-.8658-1.17-1.1466-2.457-1.5444-1.6146-.468-3.4398-1.1232-3.4398-3.2292v-.0468c0-2.0826 1.7316-3.3462 3.9078-3.3462 1.2168.0234 2.3868.3276 3.4632.8892.3744.1872.6084.5382.6084.9594 0 .5616-.468 1.0296-1.0296 1.0296h-.0234c-.1638 0-.3276-.0468-.4914-.117-.7956-.4446-1.6614-.702-2.574-.7488-.9828 0-1.5444.468-1.5444 1.0764v.0468c0 .819 1.1934 1.1466 2.4804 1.5678 1.6146.4914 3.4164 1.2402 3.4164 3.2058v.0468c0 2.3166-1.8018 3.4632-4.0716 3.4632-1.4976-.0234-2.9718-.468-4.212-1.3104z"/><path d="m38.3292 7.2306c-.0234-.6786.5382-1.2402 1.2168-1.2636h.0234c.702 0 1.2636.5616 1.2636 1.2636v.7488c.819-1.1466 1.9656-2.0592 3.744-2.0592 2.574 0 5.1012 2.0358 5.1012 5.7096v.0468c0 3.6504-2.5038 5.7096-5.1012 5.7096-1.8252 0-2.9718-.9126-3.744-1.9422v3.8844c0 .702-.5616 1.2636-1.2636 1.2636-.6786 0-1.2402-.5616-1.2402-1.2402v-.0234zm8.8218 4.446v-.0468c0-2.1294-1.4274-3.51-3.1356-3.51s-3.2058 1.4274-3.2058 3.51v.0468c0 2.106 1.4976 3.51 3.2058 3.51s3.1356-1.3338 3.1356-3.51z"/><path d="m50.661 7.2306c-.0234-.6786.5382-1.2402 1.2168-1.2636h.0234c.702 0 1.2636.5616 1.2636 1.2636v.6084c.117-.936 1.6614-1.872 2.7612-1.872.6318-.0468 1.1934.4212 1.2402 1.053v.1872c0 .6084-.4212 1.1232-1.0062 1.2168-1.8018.3042-3.0186 1.872-3.0186 4.0482v3.627c0 .702-.5616 1.2402-1.2636 1.2402-.6786 0-1.2402-.5382-1.2402-1.2168 0 0 0 0 0-.0234z"/><path d="m58.1724 7.254c-.0234-.6786.5382-1.2402 1.2168-1.2636h.0234c.702 0 1.2636.5616 1.2636 1.2636v8.8686c0 .702-.5616 1.2402-1.2636 1.2402s-1.2402-.5616-1.2402-1.2402z"/><path d="m61.9632 7.254c-.0234-.6786.5382-1.2402 1.2168-1.2636h.0234c.702 0 1.2636.5616 1.2636 1.2636v.5148c.7488-1.17 2.0592-1.8486 3.4398-1.8018 2.4804 0 3.9078 1.6614 3.9078 4.212v5.9202c.0234.6786-.5148 1.2168-1.1934 1.2402-.0234 0-.0234 0-.0468 0-.6786.0234-1.2402-.5382-1.2636-1.2168v-.0234-5.148c0-1.7082-.8424-2.691-2.3634-2.691-1.4508 0-2.4804 1.0296-2.4804 2.7378v5.1246c0 .702-.5616 1.2636-1.2636 1.2636s-1.2636-.5616-1.2636-1.2636z"/><path d="m82.9062 5.9436c-.702 0-1.2636.5616-1.2636 1.2636v.7488c-.819-1.1466-1.9656-2.0592-3.744-2.0592-2.574 0-5.1012 2.0358-5.1012 5.7096v.0468c0 3.6504 2.5038 5.7096 5.1012 5.7096 1.8252 0 2.9718-.9126 3.744-1.9188-.117 1.989-1.3338 3.0186-3.4632 3.0186-1.17 0-2.34-.2808-3.3696-.8658-.1404-.0702-.2808-.0936-.4446-.0936-.585 0-1.053.4446-1.0764 1.0296 0 .4446.2808.8658.702 1.0062 1.3338.6552 2.7846.9828 4.2588.9828 1.989 0 3.5334-.468 4.5162-1.4742.9126-.9126 1.404-2.2932 1.404-4.1418v-7.6752c.0234-.702-.5382-1.2636-1.2402-1.287zm-4.4226 9.243c-1.7316 0-3.1356-1.3572-3.1356-3.5334v-.0468c0-2.1294 1.4274-3.51 3.1356-3.51s3.2058 1.4274 3.2058 3.51v.0468c.0234 2.106-1.4742 3.5334-3.2058 3.5334z"/><path d="m60.6996 2.9484c0 .702-.5616 1.2636-1.2636 1.2636s-1.2636-.5616-1.2636-1.2636.5616-1.2636 1.2636-1.2636c.6786-.0234 1.2402.5382 1.2636 1.2168z"/><path d="m87.048 8.5878c-.702 0-1.287-.585-1.287-1.287s.585-1.287 1.287-1.287 1.287.585 1.287 1.287-.585 1.287-1.287 1.287zm0-2.3868c-.6084 0-1.0998.4914-1.0998 1.0998s.4914 1.0998 1.0998 1.0998 1.0998-.4914 1.0998-1.0998-.468-1.0998-1.0764-1.0998zm.351 1.8252-.3744-.585h-.2574v.585h-.2106v-1.4742h.6084c.2574-.0234.468.1872.4914.4446 0 .2106-.1638.3978-.3744.4446l.3978.585zm-.2574-1.287h-.3744v.5148h.3978c.1404 0 .2574-.117.2574-.2574s-.117-.2574-.2808-.2574z"/><path d="m20.0304 18.9072c1.5444-1.8252 2.4804-4.1184 2.6442-6.5052"/></g><path d="m20.6388 16.614c-2.7846 3.7206-8.775 2.457-12.5892 2.6442 0 0-.6786.0468-1.3572.1404 0 0 .2574-.117.585-.234 2.691-.936 3.9546-1.1232 5.5926-1.9656 3.0654-1.5678 6.1308-5.0076 6.7392-8.5644-1.17 3.4164-4.7268 6.3648-7.956 7.5582-2.223.819-6.2244 1.6146-6.2244 1.6146l-.1638-.0936c-2.7144-1.3338-2.808-7.2306 2.1528-9.126 2.1762-.8424 4.2354-.3744 6.5988-.936 2.5038-.585 5.4054-2.457 6.5754-4.914 1.3104 3.9546 2.9016 10.0854.0468 13.8762z" fill="#fff"/><path d="m5.2884 20.007c-.3276.4212-.936.468-1.3572.1404s-.468-.936-.1404-1.3572.936-.468 1.3572-.1404c.3978.3276.468.936.1404 1.3572z" fill="#fff"/></g></svg>