<svg height="30" viewBox="0 0 236 30" width="236" xmlns="http://www.w3.org/2000/svg"><g fill="none" fill-rule="evenodd"><g fill-rule="nonzero"><path d="m34 23.8947659c0 2.8198075-2.395569 5.1052341-5.3496762 5.1052341h-23.29941349c-2.95460089 0-5.35091031-2.2854266-5.35091031-5.1052341v-18.78929629c0-2.81980753 2.39630942-5.10546961 5.35091031-5.10546961h23.29941349c2.9541072 0 5.3496762 2.28589759 5.3496762 5.10546961z" fill="#267493"/><path d="m16.8464822 21.1244163c0-.2397531 0-5.9194055 0-5.9194055l6.874735-3.7592724-6.874735-4.1596459-12.07188073 7.3591018v-5.91940553l12.07188073-7.35957283 11.6520514 6.71968165v6.23946891z" fill="#55c5cd"/><path d="m16.6369378 22.5645836c.2932141 0 11.8618427-7.1193487 11.8618427-7.1193487v5.359118l-11.8618427 7.3595729-11.86233633-7.3595729v-5.359118l11.86233633-6.71968165v5.91940555l-7.33553532 3.7993097z" fill="#fff"/></g><g fill="#fff" fill-rule="nonzero" transform="translate(38 2)"><path d="m11.1438442 13.8293154v-7.31858555l-2.88476323 5.95735645h-2.49589867l-2.90528875-5.97859549v7.34021079h-2.85789355v-13.68025602h2.71384198l4.33834062 9.2760523 4.2360864-9.2760523h2.713842v13.68025602h-2.8582668z"/><path d="m25.1254297 13.8293154-1.356921-3.89330834h-4.1121871l-1.2953445 3.89330834h-3.0019451l5.0783775-13.68025599h2.5906891l5.0992762 13.68025599zm-3.4337266-9.93523475-1.2128694 3.63805374h2.467163z"/><path d="m28.8054622 13.8293154v-13.68025599h2.8582667v13.68025599z"/><path d="m42.1974065 13.8293154-5.4967242-8.36122912v8.36122912h-2.8578935v-13.68025599h2.2619081l5.8598387 8.85088542v-8.85088542h2.8578935v13.68025599z"/><path d="m55.8841714 9.71512109c0 .58310811-.0996418 1.13377831-.2981792 1.65239701-.1989106.5190048-.4903725.9700447-.8740124 1.3531196-.3836399.3838473-.863563.6893033-1.4390229.9163679-.5758331.2278369-1.2337681.3417554-1.9738051.3417554-.370205 0-.7027178-.0077233-.9971652-.0212391-.2948206-.014288-.5896412-.0428642-.8840885-.0853423-.2948206-.0428642-.6064347-.1100568-.9355888-.2019639-.328781-.0919071-.7127941-.2239753-1.151293-.3938876l-.246679-2.3834059c.19182.0695095.4280496.1409499.7094353.2174105.2806393.075302.5825505.1479009.904614.2166381.3220635.0687373.657935.1274342 1.0076146.1749324.3496796.0482706.6889098.0725989 1.0176907.0725989.3291541 0 .6407683-.0278038.9355889-.08457.2948205-.0563799.5515757-.1590996.7710117-.3085452.2190629-.1486733.3937161-.3394384.5243328-.5730678.1302435-.2336294.1951787-.5348376.1951787-.90285212 0-.38153031-.246679-.70050201-.740037-.9557566-.4933579-.2540961-1.2542935-.56573068-2.2824336-.93413141-.3978212-.14172229-.7915373-.32553649-1.1822678-.55260109-.3907306-.22629227-.740037-.50239974-1.0486656-.82832239-.3082554-.32592266-.5586663-.71517626-.7504862-1.1677608-.1921932-.45297071-.28773-.9839466-.28773-1.59254152 0-.79318144.1746532-1.43035251.5243328-1.91189937.3496796-.4811607.7639211-.85226458 1.2438442-1.11447013.4795499-.26220555.9695492-.43520715 1.4699978-.52016329.5000754-.08534231.9012552-.12782038 1.2027932-.12782038.38364 0 .740037.02432835 1.0691911.07337121.3287809.04942903.657935.11623545.9870891.20080543s.6612937.18999283.9971653.31588239c.3354983.12666188.7023446.26027473 1.0997926.40122469l-.4728325 1.98720141c-.5344089-.1135323-1.0762816-.23749103-1.6244986-.37264853-.548217-.13477134-1.1035246-.20196392-1.6651764-.20196392-.7404101 0-1.2852684.1351575-1.6345748.40508633-.3493064.26992884-.5243328.55453192-.5243328.85265074 0 .39774922.1675626.72830585.5038073.99128372.3358715.26297788.8534869.52209412 1.5524729.77773487.5067928.1849727 1.0180639.37998566 1.5319474.58619739.5138834.20621173.9766397.46918961 1.3878958.78893363.411256.31974403.7433956.71054229.9971652 1.17200861.2530232.46262481.379908 1.04109891.379908 1.73735312z"/><path d="m62.4224706 2.55331825v11.27599715h-2.8578935v-11.27599715h-3.4542522v-2.40425884h9.7458723v2.40425884z"/><path d="m73.7107396 13.8293154-1.356921-3.89330834h-4.1121871l-1.2953446 3.89330834h-3.0019451l5.0783776-13.68025599h2.5906891l5.0992762 13.68025599zm-3.4337266-9.93523475-1.2128695 3.63805374h2.467163z"/><path d="m82.2228438 9.42549788v4.40381752h-2.91947v-4.40381752l-5.0168011-9.2760523h3.0429961l3.4542521 6.27632813 3.4132011-6.27632813h3.0635216z"/><path d="m98.6715923 3.17040878c-.1235261-.25525459-.2604871-.42207756-.4112561-.49969658-.1511421-.07800519-.3496795-.11739395-.5963585-.11739395h-1.6655496c-.3153461 0-.5620251.01776356-.740037.05329068-.1783851.03552711-.315346.09963038-.411256.19153748-.09591.09229327-.1574864.21277652-.1851025.36183594-.0276161.14905941-.041051.33712142-.041051.56379985v6.3829095c0 .2977326.0067174.5421746.0205255.7337121.0134348.1915375.0649351.3440724.1541277.4572185.0888194.1139185.2261535.1915375.411256.2344018.1851026.0420919.4489483.0633309.7915373.0633309.150769 0 .4008067-.0135158.7504863-.0420919.3496795-.0285762.7433956-.0671926 1.1822677-.1170078.438499-.0498152.890806-.1027197 1.356921-.159872.4657419-.05638.8975239-.1131461 1.2953449-.1695261l.123526 2.1910961c-.397448.0853423-.8602045.1702985-1.387896.2556408-.5280647.08457-1.0587418.1590997-1.5935239.2232029-.5347821.063331-1.02814.1170078-1.480447.1590997-.452307.0428643-.7952692.0641033-1.0281401.0641033-1.2613842 0-2.1521902-.3259227-2.672791-.9789265-.5209741-.6518453-.7814611-1.5952446-.7814611-2.8290395v-6.2346224c0-1.2337949.2601138-2.17680808.7814611-2.82942572.520974-.65184532 1.4114068-.9785403 2.672791-.9785403h2.4055865c.8225121 0 1.4976139.15948585 2.0253054.47845755.5276911.31935786.9490241.88277155 1.2647431 1.69139957z"/><path d="m111.830293 12.8511613c-.520975.6522314-1.41178.9781541-2.672791.9781541h-3.2072c-1.261758 0-2.152564-.3259227-2.673538-.9781541-.520974-.6522315-.781461-1.596017-.781461-2.8298119v-6.19137202c0-1.23379489.260114-2.17719424.781461-2.82981188.520974-.65184531 1.41178-.97815414 2.673538-.97815414h3.2072c1.261011 0 2.151816.32630883 2.672791.97815414.520974.65261764.781461 1.59601699.781461 2.82981188v6.19137202c-.000374 1.2337949-.260487 2.1775804-.781461 2.8298119zm-2.076806-8.93622778c0-.29773266-.006718-.54256082-.020526-.73371214-.013808-.19153748-.064935-.34407238-.153754-.45799084-.088073-.11314614-.225407-.19153749-.409017-.23362939-.184356-.04247807-.446709-.06410327-.787805-.06410327h-1.637187c-.341097 0-.604196.0216252-.787806.06410327-.184356.0420919-.320571.12086942-.409763.23362939-.088073.11391846-.142932.26606719-.163831.45799084-.020525.19115132-.030601.43597948-.030601.73371214v6.02107354c0 .29773264.010076.54217464.030601.73371214.021272.1915375.075758.3440724.163831.4579908.088819.1131462.225407.1915375.409763.2336294.18361.0420919.446709.0641033.787806.0641033h1.637187c.341096 0 .603449-.0220114.787805-.0641033.18361-.0420919.320571-.1208694.409017-.2336294.088819-.1139184.139946-.2660671.153754-.4579908.013808-.1919236.020526-.4359795.020526-.73371214z"/><path d="m123.351806 13.8293154-5.496725-8.36122912v8.36122912h-2.857893v-13.68025599h2.261162l5.860212 8.85088542v-8.85088542h2.857893v13.68025599z"/><path d="m137.038197 9.71512109c0 .58310811-.100015 1.13377831-.298179 1.65239701-.19891.5190048-.490372.9700447-.874012 1.3531196-.384013.3838473-.863563.6893033-1.439396.9163679-.575087.2278369-1.233395.3417554-1.973805.3417554-.369459 0-.702718-.0077233-.997166-.0212391-.294447-.014288-.589641-.0428642-.884088-.0853423-.294448-.0428642-.606435-.1100568-.935216-.2019639-.329527-.0919071-.712794-.2239753-1.151666-.3938876l-.246306-2.3834059c.19182.0695095.427677.1409499.709062.2174105.28064.075302.582551.1479009.904614.2166381.322064.0687373.658309.1274342 1.007242.1749324.350053.0482706.68891.0725989 1.018437.0725989.328781 0 .640022-.0278038.935216-.08457.294447-.0563799.551948-.1590996.771011-.3085452.219436-.1486733.393716-.3394384.52396-.5730678.130243-.2336294.195179-.5348376.195179-.90285212 0-.38153031-.246306-.70050201-.739664-.9557566-.493358-.2540961-1.254294-.56573068-2.282807-.93413141-.397075-.14172229-.791537-.32553649-1.182268-.55260109-.389984-.22629227-.739664-.50239974-1.048292-.82832239-.308629-.32592266-.55904-.71517626-.75086-1.1677608s-.28773-.9839466-.28773-1.59254152c0-.79318144.175027-1.43035251.524706-1.91189937.349307-.4811607.763921-.85226458 1.243471-1.11447013s.96955-.43520715 1.469998-.52016329c.500076-.08534231.901629-.12782038 1.202793-.12782038.384014 0 .740411.02432835 1.069191.07337121.329528.04942903.658309.11623545.98709.20080543.329527.08456998.66092.18999283.997165.31588239.335871.12666188.702718.26027473 1.100539.40122469l-.473206 1.98720141c-.535155-.1135323-1.076655-.23749103-1.624872-.37264853-.548217-.13477134-1.103524-.20196392-1.665549-.20196392-.739664 0-1.284895.1351575-1.634202.40508633-.350053.26992884-.524706.55453192-.524706.85265074 0 .39774922.168309.72830585.504554.99128372.335125.26297788.85274.52209412 1.551726.77773487.507166.1849727 1.018437.37998566 1.531948.58619739.513883.20621173.976639.46918961 1.387896.78893363.411256.31974403.743395.71054229.997165 1.17200861.254143.46262481.381027 1.04109891.381027 1.73735312z"/><path d="m148.922452 13.8505544h-2.241383l-.370205-.4464059c-.315719.0710542-.668384.1378607-1.059115.2019639-.39073.0641033-.773997.1274342-1.15092.1915375-.377669.0641033-.730334.1131462-1.059115.1486733-.32878.0355271-.589641.0536768-.781461.0536768-1.261011 0-2.152563-.3259227-2.672791-.9789265-.520974-.6518453-.781461-1.5952446-.781461-2.8290395v-10.04258842h2.857894v9.95724612c0 .2977326.006717.5421746.020525.7337121.013062.1915375.064935.3440724.153008.4572185.08882.1139185.225407.1915375.409764.2344018.184356.0420919.446709.0633309.787805.0633309.177266 0 .395955-.0173774.654576-.0529045.259368-.0355271.53217-.077619.819154-.1274342.28661-.0498152.565757-.0996304.838932-.1494456.272429-.0498152.511644-.0884316.716526-.1170078v-10.99950349h2.857894v13.70149499z"/><path d="m151.513141 13.8293154v-13.68025599h2.857893v11.27638329h5.490007v2.4038727z"/><path d="m165.267826 2.55331825v11.27599715h-2.857893v-11.27599715h-3.454252v-2.40425884h9.745872v2.40425884z"/><path d="m169.79127 13.8293154v-13.68025599h2.857893v13.68025599z"/><path d="m183.18396 13.8293154-5.496724-8.36122912v8.36122912h-2.857893v-13.68025599h2.261161l5.860212 8.85088542v-8.85088542h2.857894v13.68025599z"/><path d="m196.026941 13.8505544-.369458-.4464059c-.31572.0710542-.661667.1378607-1.03859.2019639-.376922.0641033-.747127.1274342-1.110242.1915375-.363861.0641033-.702718.1131462-1.018437.1486733-.314973.0355271-.568369.0536768-.760189.0536768-1.261758 0-2.155922-.3259227-2.682867-.9789265-.528438-.6518453-.792284-1.5952446-.792284-2.8290395v-6.2346224c0-1.2337949.260114-2.17680808.781461-2.82942572.520974-.65184532 1.41178-.9785403 2.673538-.9785403h2.425738c.822886 0 1.497987.15948585 2.025679.47845755.527691.31935786.949024.88277155 1.264743 1.69139957l-2.261908.85110608c-.110092-.25525459-.240708-.42207756-.390731-.49969658-.150769-.07800519-.350053-.11739395-.596358-.11739395h-1.686822c-.342589 0-.606435.0216252-.791537.06371711-.184356.04247807-.322064.12086942-.411256.23401556-.089193.11314613-.140693.26568103-.153755.45760468-.013808.19153748-.021272.43597947-.021272.73371214v6.06393776c0 .2977327.007464.5421747.021272.7337122.013062.1915374.064935.3440723.153755.4572185.088819.1139184.229512.1915375.422078.2344017.19182.0420919.458652.0633309.801614.0633309.178012 0 .39073-.0173774.637036-.0529045.247052-.0355271.503807-.077619.771012-.1274342.267204-.0498152.531423-.0996304.791537-.1494456s.493358-.0884316.698986-.1170077v-2.80857289h-2.05628v-2.40387268h4.646596v7.91405087h-1.973059z"/></g><path d="m37 17.05h198"/><g fill="#55c5cd" fill-rule="nonzero" transform="translate(38 19)"><path d="m.2540857 7.18118635c.45059351.28045004 1.10883892.51359069 1.80200255.51359069 1.02822986 0 1.62889737-.54878888 1.62889737-1.34282961 0-.7353771-.41604676-1.1562414-1.46693631-1.5649945-1.27079998-.45530553-2.05645972-1.12066474-2.05645972-2.2303537 0-1.22625929 1.0051987-2.13687036 2.51819733-2.13687036.79717532 0 1.37481168.1869667 1.72139349.38566612l-.27748833.82886045c-.25408571-.14003579-.77377269-.37355492-1.4784519-.37355492-1.0627766 0-1.46693631.64189375-1.46693631 1.17932838 0 .7353771.47362466 1.09757776 1.54791684 1.51806359 1.31686231.51396917 1.98699477 1.15624139 1.98699477 2.31210432 0 1.21414808-.88967143 2.26517341-2.72622071 2.26517341-.75074153 0-1.57094801-.2217864-1.98699477-.50185797z"/><path d="m10.7328921 6.8780278c0 .58398706.0115156 1.09757776.0460623 1.54115056h-.90081552l-.05794937-.92272226h-.02303116c-.26560129.45530553-.85475322 1.05102532-1.84843634 1.05102532-.87778438 0-1.9290454-.49088219-1.9290454-2.47560556v-3.30484448h1.01671428v3.12998899c0 1.0741123.32355066 1.79813515 1.24739735 1.79813515.68127658 0 1.15527271-.47877099 1.33989346-.93407652.0575779-.15176851.09249612-.33873521.09249612-.5257019v-3.46834572h1.01671428z"/><path d="m12.4208533 4.61209744c0-.72364437-.0230312-1.30763143-.0464338-1.84506606h.9127025l.0464338.96965318h.0230312c.4160468-.68882466 1.0742922-1.09757776 1.9869948-1.09757776 1.3517805 0 2.3681233 1.1562414 2.3681233 2.87262593 0 2.03165428-1.2243662 3.03612717-2.5412285 3.03612717-.739226 0-1.3863273-.32700248-1.7213935-.88790256h-.0230312v3.07132536h-1.0051986zm1.0051986 1.50670933c0 .15176851.0230312.2918043.0464338.42048583.1849923.71191164.7971754 1.20279383 1.5245143 1.20279383 1.0742921 0 1.6983623-.88790256 1.6983623-2.18380127 0-1.13277594-.589152-2.10242912-1.6634441-2.10242912-.6931637 0-1.3398935.50223645-1.5364013 1.27281173-.0345467.12868153-.069465.28007156-.069465.42048582z"/><path d="m18.9951351 4.61209744c0-.72364437-.0230312-1.30763143-.0464338-1.84506606h.9127026l.0460623.96965318h.0234026c.4160468-.68882466 1.0742922-1.09757776 1.9869948-1.09757776 1.3517805 0 2.3681233 1.1562414 2.3681233 2.87262593 0 2.03165428-1.2243662 3.03612717-2.5412285 3.03612717-.7392259 0-1.3863272-.32700248-1.7213935-.88790256h-.0230311v3.07132536h-1.0051987zm1.0051987 1.50670933c0 .15176851.0230311.2918043.0464337.42048583.1849923.71191164.7971754 1.20279383 1.5248857 1.20279383 1.0742922 0 1.6979909-.88790256 1.6979909-2.18380127 0-1.13277594-.5891519-2.10242912-1.6634441-2.10242912-.6931637 0-1.3398935.50223645-1.5364013 1.27281173-.0345467.12868153-.0694649.28007156-.0694649.42048582z"/><path d="m30.6292142 5.54655244c0 2.08993944-1.4323896 3.00130746-2.7837987 3.00130746-1.5133701 0-2.6801583-1.12142169-2.6801583-2.90820259 0-1.8916185 1.2243661-3.00092899 2.772283-3.00092899 1.6058662 0 2.691674 1.17970686 2.691674 2.90782412zm-4.4357272.05828516c0 1.23799202.7046792 2.17169006 1.6979909 2.17169006.9702805 0 1.6979908-.92272227 1.6979908-2.19553399 0-.9571635-.4736246-2.17169006-1.6749597-2.17169006-1.201335 0-1.721022 1.12142169-1.721022 2.19553399z"/><path d="m31.9126441 4.5307253c0-.66611616-.0115155-1.23799202-.0464338-1.76369392h.8896715l.0345467 1.10968896h.0464338c.2540857-.75922103.8666403-1.23799202 1.5479168-1.23799202.1155273 0 .1965078.01135426.2886325.03519819v.9692747c-.1040117-.02346545-.2080234-.03481971-.3465818-.03481971-.7161948 0-1.2243662.54841041-1.3629246 1.31936416-.0234027.13965731-.0464338.30353703-.0464338.47877099v3.01266171h-1.0051987v-3.88845306z"/><path d="m37.1927233 1.1441302v1.62290118h1.4554208v.78268648h-1.4554208v3.0478599c0 .70055739.1965078 1.09719928.7622571 1.09719928.2656013 0 .4621091-.03519818.589152-.07001789l.0460623.77057528c-.1961363.08175062-.5081714.14003579-.9008155.14003579-.4736247 0-.8547533-.15176851-1.0976949-.43221855-.2886324-.30353703-.3926441-.80577347-.3926441-1.47151115v-3.08267961h-.8666403v-.78268648h.8666403v-1.35418387z"/><path d="m40.9248857 1.17932838c.0115156.35046793-.2425701.6305395-.6471013.6305395-.3580974 0-.6121831-.28007157-.6121831-.6305395 0-.36220066.2656013-.64227223.6352142-.64227223.3815001 0 .6240702.28007157.6240702.64227223zm-1.1322416 7.23984998v-5.65214698h1.0167143v5.65214698z"/><path d="m42.4962052 4.29720617c0-.58398707-.0115156-1.06313653-.0464338-1.53017479h.901187l.0579493.93445499h.0230312c.2771169-.53705615.9242182-1.06275805 1.8484363-1.06275805.7737727 0 1.9751078.46703826 1.9751078 2.40558767v3.3744839h-1.0163429v-3.2575351c0-.91098954-.3350662-1.66983209-1.2938311-1.66983209-.6701325 0-1.1898194.47877099-1.3629246 1.05064685-.0464338.12830305-.069465.30353702-.069465.47877099v3.39832782h-1.0167142z"/><path d="m53.7261245 2.76703138c-.0230311.4087531-.0464337.86405863-.0464337 1.55326177v3.28137902c0 1.29665566-.2540857 2.09031792-.7971754 2.58044313-.5430896.5139692-1.3283778.6774704-2.033057.6774704-.6701325 0-1.4093585-.1635012-1.859952-.4666597l.2540857-.78268653c.369613.23351913.9472494.44395133 1.640413.44395133 1.0397454 0 1.8020025-.54878893 1.8020025-1.97336916v-.6305395h-.0230311c-.3120351.5257019-.9127026.94580924-1.7789714.94580924-1.3863273 0-2.3796389-1.1910611-2.3796389-2.7560556 0-1.91470547 1.2362532-3.00092898 2.5181973-3.00092898.9702805 0 1.5014831.5135907 1.7444247.98100743h.0230311l.0464338-.85270438h.8896714zm-1.051261 2.23073218c0-.17523397-.0115156-.32700248-.0575779-.46665979-.1849922-.59571979-.681648-1.08622351-1.420874-1.08622351-.9702805 0-1.6634441.82886045-1.6634441 2.13687036 0 1.10968896.5546052 2.03203275 1.6519286 2.03203275.6236986 0 1.1898194-.39702036 1.4093584-1.05102532.0575779-.17523397.080609-.37317644.080609-.5484104z"/><path d="m58.1867402 2.76703138 1.2243662 3.33966419c.1270428.37393339.2656013.81750619.3580974 1.1562414h.0234026c.1040117-.33873521.219539-.77057529.3580974-1.17932838l1.1088389-3.31657721h1.0742922l-1.5248857 4.02886733c-.7277103 1.9385494-1.2243662 2.93091109-1.9175298 3.53874209-.4966558.4435728-.9933116.6188068-1.2473973.6653592l-.2540857-.8640586c.2540857-.0817506.5891519-.24487341.8896714-.501858.2771168-.2217864.6236987-.61880677.8547532-1.14413019.0460623-.10521608.0806091-.1869667.0806091-.24525186 0-.05828517-.0230312-.14003578-.069465-.26833884l-2.0676038-5.20857418h1.1088389z"/><path d="m68.2034375 5.54655244c0 2.08993944-1.4323896 3.00130746-2.7837986 3.00130746-1.5133701 0-2.6801584-1.12142169-2.6801584-2.90820259 0-1.8916185 1.2243662-3.00092899 2.772283-3.00092899 1.6058663 0 2.691674 1.17970686 2.691674 2.90782412zm-4.4357271.05828516c0 1.23799202.7046792 2.17169006 1.6979908 2.17169006.9702805 0 1.6979909-.92272227 1.6979909-2.19553399 0-.9571635-.4736247-2.17169006-1.6749597-2.17169006s-1.721022 1.12142169-1.721022 2.19553399z"/><path d="m74.1659077 6.8780278c0 .58398706.0115156 1.09757776.0460623 1.54115056h-.9008155l-.0579494-.92272226h-.0230312c-.2656012.45530553-.8547532 1.05102532-1.8484363 1.05102532-.8777844 0-1.9290454-.49088219-1.9290454-2.47560556v-3.30484448h1.0167143v3.12998899c0 1.0741123.3235506 1.79813515 1.2473973 1.79813515.6812766 0 1.1552728-.47877099 1.3398935-.93407652.0575779-.15176851.0924961-.33873521.0924961-.5257019v-3.46834572h1.0167143z"/><path d="m75.8534974 4.5307253c0-.66611616-.0115156-1.23799202-.0464338-1.76369392h.8896714l.0345468 1.10968896h.0464338c.2540857-.75922103.8666402-1.23799202 1.5479168-1.23799202.1155273 0 .1965078.01135426.2890039.03519819v.9692747c-.1040117-.02346545-.2080234-.03481971-.3465818-.03481971-.7161948 0-1.2243662.54841041-1.3629246 1.31936416-.0234027.13965731-.0464338.30353703-.0464338.47877099v3.01266171h-1.0051987z"/><path d="m82.1157441.65362648c.4390779-.09310487 1.1322416-.16350124 1.8369208-.16350124 1.0048272 0 1.6519285.17523397 2.1370688.57225434.4041597.30391549.6467298.77057528.6467298 1.38976052 0 .75884256-.4966558 1.42458024-1.3168623 1.72811726v.02308698c.7392259.1869667 1.6054947.80577347 1.6054947 1.9737476 0 .67709193-.2656013 1.19068263-.6582454 1.57634874-.5427181.50223645-1.420874.73575558-2.691674.73575558-.6931636 0-1.2243661-.04693091-1.5594324-.09348335zm1.0051987 3.22309386h.9127026c1.0627766 0 1.6868468-.56014313 1.6868468-1.31936416 0-.92272227-.6931637-1.28492293-1.709878-1.28492293-.462109 0-.7277103.03557666-.8896714.07039637zm0 3.77188274c.1965078.03519819.4851403.04655244.8432377.04655244 1.0397454 0 1.9985103-.38566612 1.9985103-1.52979631 0-1.07411231-.9127026-1.51806359-2.0100259-1.51806359h-.8317221z"/><path d="m93.0221129 6.8780278c0 .58398706.0115155 1.09757776.0460623 1.54115056h-.9008156l-.0579493-.92272226h-.0230312c-.2656013.45530553-.8547532 1.05102532-1.8484363 1.05102532-.8777844 0-1.9290454-.49088219-1.9290454-2.47560556v-3.30484448h1.0167143v3.12998899c0 1.0741123.3235506 1.79813515 1.2473973 1.79813515.6812766 0 1.1552727-.47877099 1.3398935-.93407652.0575779-.15176851.0924961-.33873521.0924961-.5257019v-3.46834572h1.0167143z"/><path d="m94.5715156 7.36777457c.3005195.19869942.831722.40875309 1.3398934.40875309.739226 0 1.0858078-.37317644 1.0858078-.84059317 0-.49088219-.2886324-.75922103-1.0397454-1.0392926-1.0048273-.36220066-1.4784519-.92272226-1.4784519-1.5998142 0-.91098954.7277103-1.65847784 1.9290454-1.65847784.5661207 0 1.0627766.16387971 1.3748116.35046793l-.2540857.7474883c-.2195389-.14003578-.6236986-.32700247-1.1437571-.32700247-.6006675 0-.9357337.35046793-.9357337.77095375 0 .46665979.3350662.67709194 1.0627766.9571635.9702804.37355492 1.4673077.86405863 1.4673077 1.70503028 0 .99236169-.7626285 1.69329755-2.0910064 1.69329755-.6121831 0-1.1783039-.15176851-1.570948-.38528764z"/><path d="m100.417716 1.17932838c.011515.35046793-.242571.6305395-.6471018.6305395-.3580973 0-.612183-.28007157-.612183-.6305395 0-.36220066.2656012-.64227223.6352142-.64227223.3814996 0 .6240706.28007157.6240706.64227223zm-1.1318705 7.23984998v-5.65214698h1.0167145v5.65214698z"/><path d="m101.989406 4.29720617c0-.58398707-.011515-1.06313653-.046433-1.53017479h.901187l.057578.93445499h.023402c.277117-.53705615.923847-1.06275805 1.848437-1.06275805.774144 0 1.975107.46703826 1.975107 2.40558767v3.3744839h-1.016343v-3.2575351c0-.91098954-.334694-1.66983209-1.293831-1.66983209-.669761 0-1.189819.47877099-1.362924 1.05064685-.046434.12830305-.069465.30353702-.069465.47877099v3.39832782h-1.016715z"/><path d="m108.968219 5.78007157c.023032 1.38976052.901187 1.96201486 1.91753 1.96201486.727711 0 1.166789-.12868153 1.547917-.29180429l.173477.73537709c-.358098.16350124-.970281.35046794-1.859952.35046794-1.721394 0-2.749252-1.1441302-2.749252-2.84916048 0-1.70503027.993312-3.04785989 2.622209-3.04785989 1.825405 0 2.310545 1.62290118 2.310545 2.66219378 0 .21043215-.023031.37393339-.034546.47914946h-3.927928zm2.979935-.7353771c.011516-.65438343-.265601-1.6698321-1.408987-1.6698321-1.028229 0-1.478451.9571635-1.559432 1.6698321z"/><path d="m114.051791 7.36777457c.300519.19869942.831722.40875309 1.339893.40875309.739226 0 1.08618-.37317644 1.08618-.84059317 0-.49088219-.288633-.75922103-1.039746-1.0392926-1.005199-.36220066-1.478452-.92272226-1.478452-1.5998142 0-.91098954.727711-1.65847784 1.929046-1.65847784.565749 0 1.062405.16387971 1.37444.35046793l-.254457.7474883c-.219539-.14003578-.623699-.32700247-1.143386-.32700247-.600668 0-.935734.35046793-.935734.77095375 0 .46665979.334695.67709194 1.062405.9571635.970281.37355492 1.466937.86405863 1.466937 1.70503028 0 .99236169-.762257 1.69329755-2.090635 1.69329755-.612183 0-1.178304-.15176851-1.570948-.38528764z"/><path d="m118.627562 7.36777457c.30052.19869942.831722.40875309 1.339894.40875309.739226 0 1.086179-.37317644 1.086179-.84059317 0-.49088219-.288632-.75922103-1.039745-1.0392926-1.005199-.36220066-1.478452-.92272226-1.478452-1.5998142 0-.91098954.72771-1.65847784 1.929045-1.65847784.565749 0 1.062405.16387971 1.37444.35046793l-.254457.7474883c-.219539-.14003578-.623699-.32700247-1.143386-.32700247-.600667 0-.935733.35046793-.935733.77095375 0 .46665979.334694.67709194 1.062405.9571635.97028.37355492 1.466936.86405863 1.466936 1.70503028 0 .99236169-.762257 1.69329755-2.090635 1.69329755-.612183 0-1.178304-.15176851-1.570948-.38528764z"/><path d="m126.831113 1.41284751h-2.368123v-.86405863h5.764476v.86405863h-2.379639v7.00633085h-1.016343v-7.00633085z"/><path d="m130.540244 4.5307253c0-.66611616-.011515-1.23799202-.046434-1.76369392h.889672l.034918 1.10968896h.046062c.254458-.75922103.866269-1.23799202 1.547917-1.23799202.115899 0 .196137.01135426.288633.03519819v.9692747c-.103641-.02346545-.208024-.03481971-.346582-.03481971-.716195 0-1.224738.54841041-1.363296 1.31936416-.023031.13965731-.046063.30353703-.046063.47877099v3.01266171h-1.004827z"/><path d="m137.356353 8.41917836-.08098-.71229011h-.034919c-.312035.44395128-.912331.84097165-1.709877.84097165-1.131871 0-1.709507-.80577347-1.709507-1.62327966 0-1.3659166 1.200964-2.1134049 3.361435-2.10205065v-.1169488c0-.46665979-.127043-1.30800991-1.2708-1.30800991-.519687 0-1.062405.16387971-1.455421.42048582l-.231054-.67709193c.462109-.3039155 1.132241-.50223645 1.836549-.50223645 1.709878 0 2.125553 1.17932838 2.125553 2.31172585v2.11378337c0 .49050372.023403.96965318.092496 1.35456235h-.923475zm-.150074-2.88435865c-1.108839-.02346546-2.368123.17523396-2.368123 1.27281172 0 .66573769.439078.98100744.958765.98100744.72771 0 1.189819-.46703826 1.35178-.94580925.034547-.10521608.057578-.22216488.057578-.32700248z"/><path d="m139.829974 4.29720617c0-.58398707-.011516-1.06313653-.046434-1.53017479h.901187l.057578.93445499h.023403c.277117-.53705615.923847-1.06275805 1.848436-1.06275805.773773 0 1.975108.46703826 1.975108 2.40558767v3.3744839h-1.016343v-3.2575351c0-.91098954-.335066-1.66983209-1.293831-1.66983209-.669761 0-1.189448.47877099-1.362925 1.05064685-.046062.12830305-.069465.30353702-.069465.47877099v3.39832782h-1.016342v-4.12197219z"/><path d="m146.103736 7.36777457c.30052.19869942.831722.40875309 1.339894.40875309.739226 0 1.086179-.37317644 1.086179-.84059317 0-.49088219-.288632-.75922103-1.039745-1.0392926-1.005199-.36220066-1.478452-.92272226-1.478452-1.5998142 0-.91098954.72771-1.65847784 1.929045-1.65847784.565749 0 1.062405.16387971 1.37444.35046793l-.254457.7474883c-.219539-.14003578-.623699-.32700247-1.143385-.32700247-.600668 0-.935734.35046793-.935734.77095375 0 .46665979.334695.67709194 1.062405.9571635.97028.37355492 1.466936.86405863 1.466936 1.70503028 0 .99236169-.762257 1.69329755-2.090635 1.69329755-.612183 0-1.178304-.15176851-1.570948-.38528764z"/><path d="m150.922078 8.41917836v-4.86908202h-.785288v-.78268649h.785288v-.26833883c0-.79404074.173477-1.51806359.64673-1.9737476.381128-.37317643.889671-.52532342 1.363296-.52532342.358097 0 .670132.08175062.866269.16350124l-.138559.79441921c-.150074-.07039636-.358097-.12868153-.64673-.12868153-.866268 0-1.085807.77057528-1.085807 1.63463391v.30353702h1.351409v.78268649h-1.351409v4.86908202z"/><path d="m159.101483 5.54655244c0 2.08993944-1.432018 3.00130746-2.783799 3.00130746-1.51337 0-2.680158-1.12142169-2.680158-2.90820259 0-1.8916185 1.224366-3.00092899 2.772655-3.00092899 1.605494 0 2.691302 1.17970686 2.691302 2.90782412zm-4.436099.05828516c0 1.23799202.70468 2.17169006 1.697991 2.17169006.970281 0 1.697991-.92272227 1.697991-2.19553399 0-.9571635-.473253-2.17169006-1.67496-2.17169006-1.201706 0-1.721022 1.12142169-1.721022 2.19553399z"/><path d="m160.385284 4.5307253c0-.66611616-.011515-1.23799202-.046433-1.76369392h.889671l.034918 1.10968896h.046063c.254457-.75922103.866268-1.23799202 1.547917-1.23799202.115898 0 .196507.01135426.288632.03519819v.9692747c-.10364-.02346545-.208023-.03481971-.346582-.03481971-.716195 0-1.224366.54841041-1.363296 1.31936416-.023031.13965731-.046062.30353703-.046062.47877099v3.01266171h-1.004828z"/><path d="m164.209943 4.29720617c0-.58398707-.011516-1.06313653-.046434-1.53017479h.889672l.046433.91098954h.034547c.312035-.53705615.831722-1.0392926 1.75594-1.0392926.762629 0 1.339894.46703826 1.582835 1.13277595h.023403c.173105-.31564823.392644-.56052161.623699-.7353771.335066-.25736306.704679-.39739885 1.235881-.39739885.739226 0 1.836921.49050372 1.836921 2.45214011v3.32793146h-.993683v-3.19924993c0-1.08622351-.393015-1.74022846-1.213222-1.74022846-.577636 0-1.02823.43221855-1.200964.93445499-.046433.13965731-.08098.32662401-.08098.5135907v3.4914327h-.993683v-3.38621663c0-.89925681-.392644-1.55326176-1.166788-1.55326176-.635215 0-1.097324.51359069-1.259285 1.02755987-.057578.15176851-.08098.326624-.08098.50185796v3.41006056h-.993312z"/><path d="m176.942088 8.41917836-.08098-.71229011h-.034918c-.312035.44395128-.912332.84097165-1.709878.84097165-1.13187 0-1.709507-.80577347-1.709507-1.62327966 0-1.3659166 1.200964-2.1134049 3.361435-2.10205065v-.1169488c0-.46665979-.127043-1.30800991-1.2708-1.30800991-.519687 0-1.062405.16387971-1.45542.42048582l-.231055-.67709193c.462109-.3039155 1.132242-.50223645 1.836549-.50223645 1.709878 0 2.125553 1.17932838 2.125553 2.31172585v2.11378337c0 .49050372.023403.96965318.092497 1.35456235h-.923476zm-.150074-2.88435865c-1.108839-.02346546-2.368123.17523396-2.368123 1.27281172 0 .66573769.439078.98100744.958765.98100744.72771 0 1.189819-.46703826 1.35178-.94580925.034547-.10521608.057578-.22216488.057578-.32700248z"/><path d="m180.59327 1.1441302v1.62290118h1.455421v.78268648h-1.455421v3.0478599c0 .70055739.196136 1.09719928.762629 1.09719928.265601 0 .461737-.03519818.589152-.07001789l.046062.77057528c-.196136.08175062-.508171.14003579-.901187.14003579-.473253 0-.854753-.15176851-1.097323-.43221855-.288633-.30353703-.393016-.80577347-.393016-1.47151115v-3.08267961h-.866269v-.78268648h.866269v-1.35418387z"/><path d="m184.325433 1.17932838c.011515.35046793-.242199.6305395-.64673.6305395-.358098 0-.612183-.28007157-.612183-.6305395 0-.36220066.265972-.64227223.635585-.64227223.381129 0 .623328.28007157.623328.64227223zm-1.131871 7.23984998v-5.65214698h1.016343v5.65214698z"/><path d="m190.956549 5.54655244c0 2.08993944-1.432018 3.00130746-2.783798 3.00130746-1.51337 0-2.680159-1.12142169-2.680159-2.90820259 0-1.8916185 1.224738-3.00092899 2.772655-3.00092899 1.605866 0 2.691302 1.17970686 2.691302 2.90782412zm-4.435727.05828516c0 1.23799202.704679 2.17169006 1.697991 2.17169006.97028 0 1.697991-.92272227 1.697991-2.19553399 0-.9571635-.473253-2.17169006-1.67496-2.17169006-1.201706 0-1.721022 1.12142169-1.721022 2.19553399z"/><path d="m192.240722 4.29720617c0-.58398707-.011515-1.06313653-.046434-1.53017479h.901187l.057578.93445499h.023403c.277117-.53705615.923847-1.06275805 1.848436-1.06275805.773773 0 1.975108.46703826 1.975108 2.40558767v3.3744839h-1.016343v-3.2575351c0-.91098954-.335066-1.66983209-1.293831-1.66983209-.669761 0-1.189448.47877099-1.362925 1.05064685-.046062.12830305-.069465.30353702-.069465.47877099v3.39832782h-1.016342v-4.12197219z"/></g></g></svg>