<?xml version="1.0" encoding="UTF-8"?>
<svg width="256px" height="36px" viewBox="0 0 256 36" version="1.1" xmlns="http://www.w3.org/2000/svg" xmlns:xlink="http://www.w3.org/1999/xlink">
    <title>LPG5133124_Final_Files</title>
    <g id="Symbols" stroke="none" stroke-width="1" fill="none" fill-rule="evenodd">
        <g id="LPG5133124_Final_Files">
            <g id="Group" transform="translate(0.641573, 0.000000)" fill="#267493" fill-rule="nonzero">
                <polygon id="Path" points="14.3720936 17.0895016 14.3720936 8.04559915 10.6516461 15.4073701 7.43271297 15.4073701 3.68579395 8.01935313 3.68579395 17.0899788 0 17.0899788 0 0.184676564 3.50001222 0.184676564 9.09512252 11.647508 14.5583567 0.184676564 18.0583689 0.184676564 18.0583689 17.0899788 14.3720936 17.0899788"></polygon>
                <path d="M32.403991,17.0895016 L30.6539849,12.2783669 L25.3505423,12.2783669 L23.6799507,17.0895016 L19.808375,17.0895016 L26.3579028,0.184199364 L29.6990861,0.184199364 L36.2755667,17.0895016 L32.403991,17.0895016 Z M27.9755515,4.81208908 L26.4113271,9.30779427 L29.5932001,9.30779427 L27.9755515,4.81208908 Z" id="Shape"></path>
                <polygon id="Path" points="37.1500885 17.0895016 37.1500885 0.184199364 40.8363637 0.184199364 40.8363637 17.0895016"></polygon>
                <polygon id="Path" points="54.4215322 17.0895016 47.3324672 6.75715801 47.3324672 17.0895016 43.6466733 17.0895016 43.6466733 0.184199364 46.5638314 0.184199364 54.1212011 11.1216331 54.1212011 0.184199364 57.806995 0.184199364 57.806995 17.0895016"></polygon>
                <path d="M72.0732027,12.0054083 C72.0732027,12.7259809 71.9446956,13.4064687 71.6886441,14.0473489 C71.4321113,14.6887063 71.0562162,15.2460764 70.56144,15.7194592 C70.0666638,16.1937964 69.4477122,16.5712619 68.7055479,16.8518558 C67.9629023,17.133404 67.1143707,17.2741782 66.1599532,17.2741782 C65.6825038,17.2741782 65.2536657,17.2646341 64.8739201,17.2479321 C64.4936933,17.2302757 64.1134664,17.1949629 63.7337209,17.1424708 C63.353494,17.0895016 62.9516087,17.0064687 62.5271023,16.892895 C62.1030771,16.7793213 61.6078196,16.6161188 61.0422923,16.4061506 L60.7241532,13.4608696 C60.9715413,13.5467656 61.276204,13.6350477 61.6391041,13.7295334 C62.0010416,13.8225875 62.3904131,13.9123012 62.8057748,13.9972428 C63.2211366,14.0821845 63.6543064,14.154719 64.1052843,14.2134146 C64.5562623,14.2730647 64.9937638,14.3031283 65.4177889,14.3031283 C65.8422953,14.3031283 66.2441807,14.2687699 66.6244075,14.1986214 C67.0046344,14.1289502 67.3357687,14.0020148 67.6187729,13.8173383 C67.9012959,13.6336161 68.1265442,13.3978791 68.2949992,13.1091729 C68.4629728,12.8204666 68.546719,12.4482503 68.546719,11.9934783 C68.546719,11.5220042 68.2285798,11.1278367 67.5923015,10.8124072 C66.9560231,10.4984093 65.9746528,10.1133086 64.6486718,9.65805938 C64.1356062,9.48292683 63.6278349,9.25577943 63.123914,8.97518558 C62.6199931,8.69554613 62.1694965,8.35434783 61.7714616,7.95159067 C61.3739079,7.54883351 61.0509557,7.06781548 60.8035676,6.50853659 C60.5556982,5.94878049 60.4324855,5.2926299 60.4324855,4.54056204 C60.4324855,3.56039236 60.6577338,2.77301166 61.1087117,2.17794274 C61.5596896,1.58335101 62.0939324,1.1247614 62.712884,0.800742312 C63.3313542,0.476723224 63.9633009,0.262937434 64.6087239,0.15795334 C65.2536657,0.0524920467 65.771063,0 66.1599532,0 C66.6547294,0 67.1143707,0.0300636267 67.5388772,0.0906680806 C67.9629023,0.151749735 68.3874087,0.234305408 68.8119152,0.338812301 C69.2364216,0.443319194 69.6647784,0.57359491 70.0979483,0.729162248 C70.5306368,0.885683987 71.0037545,1.05079533 71.5163388,1.22497349 L70.906532,3.68064687 C70.2173106,3.54034995 69.5184633,3.38716861 68.8114339,3.22014846 C68.1044045,3.05360551 67.3882303,2.97057264 66.6638741,2.97057264 C65.7089753,2.97057264 65.0062776,3.13759279 64.555781,3.47115589 C64.1052843,3.80471898 63.8795547,4.15641569 63.8795547,4.52481442 C63.8795547,5.01633086 64.0956583,5.42481442 64.5293095,5.74978791 C64.9624793,6.0747614 65.6300421,6.39496288 66.5315167,6.71086957 C67.1851218,6.93944857 67.8445026,7.18043478 68.5072524,7.43525981 C69.1700022,7.69008484 69.766814,8.01505832 70.2972064,8.41018028 C70.8275988,8.80530223 71.2559556,9.28822906 71.5832395,9.85848356 C71.9095608,10.4301697 72.0732027,11.1450159 72.0732027,12.0054083 Z" id="Path"></path>
                <polygon id="Path" points="80.5055754 3.1552492 80.5055754 17.0895016 76.8197814 17.0895016 76.8197814 3.1552492 72.3648704 3.1552492 72.3648704 0.184199364 84.9340149 0.184199364 84.9340149 3.1552492"></polygon>
                <path d="M95.063932,17.0895016 L93.3139259,12.2783669 L88.0104833,12.2783669 L86.3398917,17.0895016 L82.468316,17.0895016 L89.0178438,0.184199364 L92.3590271,0.184199364 L98.9355077,17.0895016 L95.063932,17.0895016 Z M90.6354925,4.81208908 L89.0712681,9.30779427 L92.2531411,9.30779427 L90.6354925,4.81208908 Z" id="Shape"></path>
                <polygon id="Path" points="106.041899 11.647508 106.041899 17.0895016 102.276691 17.0895016 102.276691 11.647508 95.8065776 0.184676564 99.7310963 0.184676564 104.186007 7.94061506 108.587975 0.184676564 112.538966 0.184676564"></polygon>
                <path d="M127.25567,3.91781548 C127.09636,3.602386 126.919723,3.39623542 126.725277,3.30031813 C126.530351,3.20392365 126.2743,3.1552492 125.95616,3.1552492 L123.808119,3.1552492 C123.401421,3.1552492 123.083282,3.17720042 122.853702,3.22110286 C122.62364,3.2650053 122.447003,3.34422057 122.323309,3.45779427 C122.199615,3.57184517 122.120201,3.72073171 122.084585,3.90493107 C122.048968,4.08913043 122.031642,4.32152704 122.031642,4.60164369 L122.031642,12.4892895 C122.031642,12.857211 122.040305,13.1592789 122.058113,13.3959703 C122.07544,13.6326617 122.141859,13.8211559 122.25689,13.9609756 C122.371439,14.1017497 122.548558,14.197667 122.787282,14.2506363 C123.026007,14.3026511 123.366286,14.3288971 123.808119,14.3288971 C124.002564,14.3288971 124.325035,14.3121951 124.776013,14.2768823 C125.226991,14.2415695 125.734762,14.1938494 126.300771,14.1322906 C126.866298,14.0707317 127.449634,14.0053552 128.050777,13.9347296 C128.651439,13.8650583 129.208303,13.7949099 129.721369,13.7252386 L129.880679,16.4328738 C129.368095,16.5383351 128.771283,16.6433192 128.090725,16.7487805 C127.409686,16.8532874 126.725277,16.9453871 126.035575,17.0246023 C125.345872,17.1028632 124.709594,17.1691941 124.126258,17.2212089 C123.542923,17.2741782 123.100609,17.3004242 122.800277,17.3004242 C121.173484,17.3004242 120.024621,16.897667 119.353208,16.0907211 C118.681314,15.2852068 118.345366,14.1194062 118.345366,12.5947508 L118.345366,4.89034995 C118.345366,3.36569459 118.680832,2.20037116 119.353208,1.39390244 C120.025103,0.588388123 121.173484,0.184676564 122.800277,0.184676564 L125.902736,0.184676564 C126.963521,0.184676564 127.834192,0.381760339 128.51475,0.77592789 C129.195308,1.17057264 129.738696,1.86680806 130.145875,2.86606575 L127.25567,3.91781548 Z" id="Path"></path>
                <path d="M144.226301,15.8807529 C143.554407,16.6867444 142.405544,17.0895016 140.779232,17.0895016 L136.642941,17.0895016 C135.015667,17.0895016 133.866804,16.6867444 133.19491,15.8807529 C132.523015,15.0747614 132.187068,13.9084836 132.187068,12.3838282 L132.187068,4.73287381 C132.187068,3.20821845 132.522534,2.04241782 133.19491,1.2359491 C133.866804,0.430434783 135.015667,0.0272004242 136.642941,0.0272004242 L140.779232,0.0272004242 C142.405544,0.0272004242 143.554407,0.430434783 144.226301,1.2359491 C144.898196,2.04241782 145.234143,3.20821845 145.234143,4.73287381 L145.234143,12.3838282 C145.233662,13.9084836 144.898196,15.0747614 144.226301,15.8807529 Z M141.547868,4.8378579 C141.547868,4.46993637 141.539204,4.1673913 141.521396,3.93117709 C141.503588,3.69448568 141.43765,3.50599152 141.323101,3.36521739 C141.209514,3.22539767 141.032396,3.12852598 140.795596,3.07651113 C140.557834,3.02401909 140.21948,2.99729586 139.779572,2.99729586 L137.66811,2.99729586 C137.228202,2.99729586 136.888886,3.02401909 136.652086,3.07651113 C136.414324,3.12852598 136.23865,3.22587487 136.123619,3.36521739 C136.010032,3.50599152 135.939281,3.69400848 135.912328,3.93117709 C135.885857,4.1673913 135.872862,4.46993637 135.872862,4.8378579 L135.872862,12.2783669 C135.872862,12.6462884 135.885857,12.9483563 135.912328,13.1850477 C135.939762,13.4217391 136.010032,13.6102333 136.123619,13.7510074 C136.238168,13.8908271 136.414324,13.9876988 136.652086,14.0397137 C136.888886,14.0917285 137.228202,14.118929 137.66811,14.118929 L139.779572,14.118929 C140.21948,14.118929 140.557834,14.0917285 140.795596,14.0397137 C141.032396,13.9876988 141.209033,13.8903499 141.323101,13.7510074 C141.43765,13.6102333 141.503588,13.4222163 141.521396,13.1850477 C141.539204,12.9478791 141.547868,12.6462884 141.547868,12.2783669 L141.547868,4.8378579 Z" id="Shape"></path>
                <polygon id="Path" points="159.08547 17.0895016 151.996405 6.75715801 151.996405 17.0895016 148.310611 17.0895016 148.310611 0.184199364 151.226807 0.184199364 158.784658 11.1216331 158.784658 0.184199364 162.470452 0.184199364 162.470452 17.0895016"></polygon>
                <path d="M176.736659,12.0054083 C176.736659,12.7259809 176.607671,13.4064687 176.352101,14.0473489 C176.095568,14.6887063 175.719673,15.2460764 175.224897,15.7194592 C174.729639,16.1937964 174.111169,16.5712619 173.368523,16.8518558 C172.62684,17.133404 171.777827,17.2741782 170.822929,17.2741782 C170.346442,17.2741782 169.916641,17.2646341 169.536896,17.2479321 C169.15715,17.2302757 168.776442,17.1949629 168.396696,17.1424708 C168.016951,17.0895016 167.614584,17.0064687 167.190559,16.892895 C166.765571,16.7793213 166.271276,16.6161188 165.705268,16.4061506 L165.38761,13.4608696 C165.634998,13.5467656 165.939179,13.6350477 166.30208,13.7295334 C166.664017,13.8225875 167.053389,13.9123012 167.46875,13.9972428 C167.884112,14.0821845 168.317763,14.154719 168.767778,14.2134146 C169.219238,14.2730647 169.656258,14.3031283 170.081246,14.3031283 C170.505271,14.3031283 170.906675,14.2687699 171.287383,14.1986214 C171.667129,14.1289502 171.999225,14.0020148 172.281748,13.8173383 C172.564753,13.6336161 172.78952,13.3978791 172.957493,13.1091729 C173.125467,12.8204666 173.209213,12.4482503 173.209213,11.9934783 C173.209213,11.5220042 172.891555,11.1278367 172.255277,10.8124072 C171.618999,10.4984093 170.637628,10.1133086 169.311166,9.65805938 C168.799063,9.48292683 168.290329,9.25577943 167.786408,8.97518558 C167.28345,8.69554613 166.832472,8.35434783 166.434437,7.95159067 C166.036402,7.54883351 165.71345,7.06781548 165.466062,6.50853659 C165.218674,5.94925769 165.09498,5.2926299 165.09498,4.54056204 C165.09498,3.56039236 165.320709,2.77301166 165.771687,2.17794274 C166.222184,1.58335101 166.756908,1.1247614 167.375378,0.800742312 C167.993848,0.476723224 168.625795,0.262937434 169.271218,0.15795334 C169.91616,0.0524920467 170.434038,0 170.822447,0 C171.317705,0 171.777346,0.0300636267 172.201371,0.0906680806 C172.626359,0.151749735 173.050384,0.234305408 173.474409,0.338812301 C173.899397,0.443319194 174.326791,0.57359491 174.760442,0.729162248 C175.193612,0.885683987 175.66673,1.05079533 176.179796,1.22497349 L175.569507,3.68064687 C174.879323,3.54034995 174.180957,3.38716861 173.473928,3.22014846 C172.766899,3.05360551 172.050724,2.97057264 171.325887,2.97057264 C170.371951,2.97057264 169.668772,3.13759279 169.218275,3.47115589 C168.766816,3.80471898 168.541568,4.15641569 168.541568,4.52481442 C168.541568,5.01633086 168.758634,5.42481442 169.192285,5.74978791 C169.624492,6.0747614 170.292055,6.39496288 171.19353,6.71086957 C171.847616,6.93944857 172.506997,7.18043478 173.169265,7.43525981 C173.832015,7.69008484 174.428827,8.01505832 174.959219,8.41018028 C175.489612,8.80530223 175.917968,9.28822906 176.245252,9.85848356 C176.573018,10.4301697 176.736659,11.1450159 176.736659,12.0054083 Z" id="Path"></path>
                <path d="M192.063652,17.1157476 L189.172965,17.1157476 L188.695516,16.5641039 C188.288336,16.6519088 187.833508,16.7344645 187.329587,16.8136797 C186.825666,16.892895 186.331371,16.9711559 185.845258,17.0503712 C185.358183,17.1295864 184.903355,17.1901909 184.479329,17.2340933 C184.055304,17.2779958 183.718876,17.3004242 183.471488,17.3004242 C181.845176,17.3004242 180.69535,16.897667 180.024418,16.0907211 C179.352524,15.2852068 179.016577,14.1194062 179.016577,12.5947508 L179.016577,0.184676564 L182.702371,0.184676564 L182.702371,12.4892895 C182.702371,12.857211 182.711034,13.1592789 182.728842,13.3959703 C182.745688,13.6326617 182.812588,13.8211559 182.926175,13.9609756 C183.040724,14.1017497 183.21688,14.197667 183.454642,14.2506363 C183.692404,14.3026511 184.030758,14.3288971 184.470666,14.3288971 C184.699284,14.3288971 184.981325,14.3074231 185.314866,14.2635207 C185.649369,14.2196182 186.001199,14.1676034 186.371319,14.1060445 C186.740957,14.0444857 187.10097,13.9829268 187.453281,13.921368 C187.80463,13.8598091 188.113143,13.8120891 188.377377,13.7767762 L188.377377,0.184199364 L192.063171,0.184199364 L192.063171,17.1157476 L192.063652,17.1157476 Z" id="Path"></path>
                <polygon id="Path" points="195.404835 17.0895016 195.404835 0.184199364 199.090629 0.184199364 199.090629 14.118929 206.171031 14.118929 206.171031 17.0895016 195.404835 17.0895016"></polygon>
                <polygon id="Path" points="213.144102 3.1552492 213.144102 17.0895016 209.458308 17.0895016 209.458308 3.1552492 205.003397 3.1552492 205.003397 0.184199364 217.572542 0.184199364 217.572542 3.1552492"></polygon>
                <polygon id="Path" points="218.977937 17.0895016 218.977937 0.184199364 222.663731 0.184199364 222.663731 17.0895016"></polygon>
                <polygon id="Path" points="236.250344 17.0895016 229.161279 6.75715801 229.161279 17.0895016 225.475485 17.0895016 225.475485 0.184199364 228.39168 0.184199364 235.949531 11.1216331 235.949531 0.184199364 239.635325 0.184199364 239.635325 17.0895016"></polygon>
                <path d="M252.813795,17.1157476 L252.337308,16.5641039 C251.930129,16.6519088 251.483964,16.7344645 250.997851,16.8136797 C250.511738,16.892895 250.034289,16.9711559 249.565984,17.0503712 C249.096717,17.1295864 248.659697,17.1901909 248.252517,17.2340933 C247.8463,17.2779958 247.519497,17.3004242 247.272109,17.3004242 C245.644835,17.3004242 244.49164,16.897667 243.812045,16.0907211 C243.130524,15.2852068 242.790245,14.1194062 242.790245,12.5947508 L242.790245,4.89034995 C242.790245,3.36569459 243.125711,2.20037116 243.798087,1.39390244 C244.469982,0.588388123 245.618844,0.184676564 247.246119,0.184676564 L250.374568,0.184676564 C251.435834,0.184676564 252.306505,0.381760339 252.987063,0.77592789 C253.667621,1.17057264 254.211009,1.86680806 254.618188,2.86606575 L251.70103,3.91781548 C251.559047,3.602386 251.390592,3.39623542 251.197109,3.30031813 C251.002664,3.20392365 250.74565,3.1552492 250.427992,3.1552492 L248.252517,3.1552492 C247.810684,3.1552492 247.470405,3.18197243 247.23168,3.23398727 C246.993918,3.28647932 246.816318,3.38335101 246.701288,3.52317073 C246.586257,3.66299046 246.519838,3.85148462 246.502992,4.08865323 C246.485184,4.32534464 246.475558,4.62741251 246.475558,4.99533404 L246.475558,12.4888123 C246.475558,12.8567338 246.485184,13.1588017 246.502992,13.3954931 C246.519838,13.6321845 246.586738,13.8206787 246.701288,13.9604984 C246.815837,14.1012725 246.997287,14.1971898 247.245638,14.2501591 C247.493026,14.3021739 247.837155,14.3284199 248.27947,14.3284199 C248.50905,14.3284199 248.783391,14.3069459 249.101049,14.2630435 C249.419669,14.219141 249.750803,14.1671262 250.095414,14.1055673 C250.440025,14.0440085 250.780785,13.9824496 251.116251,13.9208908 C251.451717,13.8593319 251.752529,13.8116119 252.017725,13.776299 L252.017725,10.3056204 L249.365763,10.3056204 L249.365763,7.33504772 L255.358427,7.33504772 L255.358427,17.1147932 L252.813795,17.1147932 L252.813795,17.1157476 Z" id="Path"></path>
            </g>
            <line x1="0" y1="19.6043478" x2="255.979785" y2="19.6043478" id="Path" stroke="#1E627B" stroke-width="0.96"></line>
            <g id="Group" transform="translate(0.375414, 22.130647)" fill="#55C5CD" fill-rule="nonzero">
                <path d="M0.32920907,9.05440085 C0.91302574,9.40800636 1.765889,9.70196182 2.66399445,9.70196182 C3.99623232,9.70196182 4.77449412,9.01002121 4.77449412,8.00885472 C4.77449412,7.08165429 4.23543833,6.55100742 2.87384117,6.03563097 C1.22731452,5.46155885 0.209365417,4.62264051 0.209365417,3.22348887 C0.209365417,1.67735949 1.5117627,0.52921527 3.47209683,0.52921527 C4.50496622,0.52921527 5.25338743,0.76495228 5.70244015,1.0154825 L5.34290919,2.06055143 C5.01370012,1.88398727 4.34036169,1.58955461 3.42733595,1.58955461 C2.05033719,1.58955461 1.526683,2.39888653 1.526683,3.07651113 C1.526683,4.00371156 2.14034026,4.46039236 3.53225931,4.99056204 C5.23846714,5.63860021 6.10673199,6.44840933 6.10673199,7.90577943 C6.10673199,9.43663839 4.95401895,10.761824 2.57447269,10.761824 C1.60176577,10.761824 0.539055788,10.4821845 0,10.1290562 L0.32920907,9.05440085 Z" id="Path"></path>
                <path d="M13.9061954,8.67216331 C13.9061954,9.40848356 13.9211157,10.0560445 13.9658766,10.6153234 L12.7987246,10.6153234 L12.7236418,9.4519088 L12.6938012,9.4519088 C12.3496718,10.0259809 11.5863303,10.7770944 10.2988533,10.7770944 C9.16154189,10.7770944 7.79946343,10.1581654 7.79946343,7.65572641 L7.79946343,3.4888123 L9.11678101,3.4888123 L9.11678101,7.43525981 C9.11678101,8.78955461 9.53599314,9.70243902 10.7329858,9.70243902 C11.6156896,9.70243902 12.2298282,9.09878049 12.4690342,8.52470838 C12.5436357,8.33335101 12.5888778,8.097614 12.5888778,7.86187699 L12.5888778,3.4888123 L13.9061954,3.4888123 L13.9061954,8.67216331 L13.9061954,8.67216331 Z" id="Path"></path>
                <path d="M16.0932218,5.81516437 C16.0932218,4.90275716 16.0633812,4.1664369 16.0330593,3.4888123 L17.2156129,3.4888123 L17.2757754,4.71139979 L17.305616,4.71139979 C17.8446718,3.84289502 18.697535,3.32751856 19.8800887,3.32751856 C21.6315387,3.32751856 22.948375,4.78536585 22.948375,6.94946978 C22.948375,9.51108165 21.3620108,10.7775716 19.655803,10.7775716 C18.6980163,10.7775716 17.8595921,10.3652704 17.4254596,9.65805938 L17.395619,9.65805938 L17.395619,13.5305408 L16.0932218,13.5305408 L16.0932218,5.81516437 L16.0932218,5.81516437 Z M17.395619,7.71489926 C17.395619,7.90625663 17.4254596,8.08282078 17.4557815,8.24506893 C17.6954688,9.14268293 18.4886509,9.76161188 19.4310359,9.76161188 C20.822955,9.76161188 21.6315387,8.64209968 21.6315387,7.00816543 C21.6315387,5.57990456 20.8681972,4.35731707 19.4762781,4.35731707 C18.5781727,4.35731707 17.7402297,4.99056204 17.4856221,5.9621421 C17.4408612,6.12439024 17.395619,6.31527041 17.395619,6.49231177 L17.395619,7.71489926 Z" id="Shape"></path>
                <path d="M24.6112658,5.81516437 C24.6112658,4.90275716 24.5814252,4.1664369 24.5511033,3.4888123 L25.733657,3.4888123 L25.7933381,4.71139979 L25.82366,4.71139979 C26.3627158,3.84289502 27.2155791,3.32751856 28.3981327,3.32751856 C30.1495827,3.32751856 31.466419,4.78536585 31.466419,6.94946978 C31.466419,9.51108165 29.8800548,10.7775716 28.173847,10.7775716 C27.2160604,10.7775716 26.3776361,10.3652704 25.9435037,9.65805938 L25.9136631,9.65805938 L25.9136631,13.5305408 L24.6112658,13.5305408 L24.6112658,5.81516437 L24.6112658,5.81516437 Z M25.9136631,7.71489926 C25.9136631,7.90625663 25.9435037,8.08282078 25.9738256,8.24506893 C26.2135129,9.14268293 27.006695,9.76161188 27.9495613,9.76161188 C29.3414803,9.76161188 30.1495827,8.64209968 30.1495827,7.00816543 C30.1495827,5.57990456 29.3862412,4.35731707 27.9943222,4.35731707 C27.0962167,4.35731707 26.2582738,4.99056204 26.0036662,5.9621421 C25.9589053,6.12439024 25.9136631,6.31527041 25.9136631,6.49231177 L25.9136631,7.71489926 L25.9136631,7.71489926 Z" id="Shape"></path>
                <path d="M39.6850946,6.99337222 C39.6850946,9.62847296 37.8292025,10.7775716 36.0782338,10.7775716 C34.1174184,10.7775716 32.6056556,9.36362672 32.6056556,7.11076352 C32.6056556,4.7257158 34.1920198,3.32704136 36.1975961,3.32704136 C38.2782552,3.32704136 39.6850946,4.81447508 39.6850946,6.99337222 Z M33.9378935,7.06686108 C33.9378935,8.62778367 34.8509193,9.80503712 36.137915,9.80503712 C37.3950701,9.80503712 38.3379364,8.64162248 38.3379364,7.03679745 C38.3379364,5.82995758 37.7242791,4.29862142 36.1677555,4.29862142 C34.611232,4.29862142 33.9378935,5.71256628 33.9378935,7.06686108 Z" id="Shape"></path>
                <path d="M41.3479854,5.71256628 C41.3479854,4.87269353 41.3330651,4.15164369 41.2878229,3.4888123 L42.440536,3.4888123 L42.4852969,4.88796394 L42.5454593,4.88796394 C42.8746684,3.93069989 43.6683318,3.32704136 44.5510356,3.32704136 C44.7007199,3.32704136 44.8056432,3.34135737 44.9250056,3.371421 L44.9250056,4.59353128 C44.7902416,4.56394486 44.6554777,4.54962884 44.4759529,4.54962884 C43.5480068,4.54962884 42.8895887,5.24109226 42.7100639,6.21314952 C42.679742,6.38923648 42.6499014,6.59586426 42.6499014,6.81680806 L42.6499014,10.6153234 L41.3475041,10.6153234 L41.3475041,5.71256628 L41.3479854,5.71256628 Z" id="Path"></path>
                <path d="M48.1891809,1.44257688 L48.1891809,3.4888123 L50.0749136,3.4888123 L50.0749136,4.47566278 L48.1891809,4.47566278 L48.1891809,8.31855779 C48.1891809,9.20185578 48.4437885,9.70196182 49.1768081,9.70196182 C49.5209375,9.70196182 49.7755451,9.65758218 49.9401496,9.61367975 L49.9998308,10.5852598 C49.7457045,10.6883351 49.3414127,10.761824 48.8326788,10.761824 C48.2190215,10.761824 47.7252079,10.5704666 47.4104378,10.2168611 C47.0364679,9.83414634 46.9017039,9.20090138 46.9017039,8.36150583 L46.9017039,4.47470838 L45.7788315,4.47470838 L45.7788315,3.4878579 L46.9017039,3.4878579 L46.9017039,1.78043478 L48.1891809,1.44257688 Z" id="Path"></path>
                <path d="M53.0248001,1.48695652 C53.0397204,1.92884411 52.7105113,2.28197243 52.1863758,2.28197243 C51.7224028,2.28197243 51.3931937,1.92884411 51.3931937,1.48695652 C51.3931937,1.03027572 51.7373231,0.677147402 52.2162164,0.677147402 C52.7105113,0.677147402 53.0248001,1.03027572 53.0248001,1.48695652 Z M51.5577983,10.6153234 L51.5577983,3.4888123 L52.8751159,3.4888123 L52.8751159,10.6153234 L51.5577983,10.6153234 Z" id="Shape"></path>
                <path d="M55.0606983,5.41813362 C55.0606983,4.68181336 55.045778,4.07767762 55.0005358,3.4888123 L56.1681692,3.4888123 L56.2432519,4.66702015 L56.2730925,4.66702015 C56.6321422,3.98987275 57.4705664,3.32704136 58.6680404,3.32704136 C59.6705879,3.32704136 61.2271115,3.91590668 61.2271115,6.36012725 L61.2271115,10.6148462 L59.9102752,10.6148462 L59.9102752,6.50758218 C59.9102752,5.35896076 59.4761428,4.40217391 58.2339079,4.40217391 C57.3656431,4.40217391 56.6923047,5.00583245 56.4680189,5.72688229 C56.4078565,5.88865323 56.3780159,6.10959703 56.3780159,6.33054083 L56.3780159,10.6153234 L55.0606983,10.6153234 L55.0606983,5.41813362 Z" id="Path"></path>
                <path d="M69.6108729,3.4888123 C69.5810323,4.00418876 69.5507104,4.57826087 69.5507104,5.44724284 L69.5507104,9.58457052 C69.5507104,11.2194592 69.2215013,12.2201485 68.517841,12.838123 C67.8141807,13.4861612 66.7967129,13.6923118 65.8836871,13.6923118 C65.0154223,13.6923118 64.0576357,13.4861612 63.473819,13.1039236 L63.8030281,12.1170732 C64.2819214,12.4115058 65.0303426,12.6768293 65.928448,12.6768293 C67.2756062,12.6768293 68.2632334,11.9848887 68.2632334,10.1887063 L68.2632334,9.39369035 L68.2333928,9.39369035 C67.829101,10.0565217 67.0508392,10.5862142 65.928448,10.5862142 C64.1322371,10.5862142 62.8452414,9.08446448 62.8452414,7.11124072 C62.8452414,4.69708378 64.4470072,3.32751856 66.1079728,3.32751856 C67.3651279,3.32751856 68.0533867,3.97507953 68.3681568,4.56442206 L68.3979973,4.56442206 L68.4581598,3.4892895 L69.6108729,3.4892895 L69.6108729,3.4888123 Z M68.2487944,6.3014316 C68.2487944,6.0804878 68.2338741,5.88913043 68.1741929,5.71304348 C67.9345056,4.96193001 67.2910078,4.34347826 66.3332212,4.34347826 C65.0760661,4.34347826 64.1779606,5.38854719 64.1779606,7.03775186 C64.1779606,8.4369035 64.8965412,9.59984093 66.3183009,9.59984093 C67.1264032,9.59984093 67.8599042,9.09925769 68.1443523,8.27465536 C68.2189538,8.05371156 68.2487944,7.80413574 68.2487944,7.58319194 L68.2487944,6.3014316 Z" id="Shape"></path>
                <path d="M75.390321,3.4888123 L76.9766852,7.69962884 C77.1412897,8.17110286 77.3208145,8.73038176 77.4406582,9.15747614 L77.4709801,9.15747614 C77.605744,8.73038176 77.7554283,8.18589608 77.9349531,7.67051962 L79.371633,3.4888123 L80.7635521,3.4888123 L78.7878163,8.56861082 C77.84495,11.0128314 77.2014522,12.2640509 76.3033467,13.0304348 C75.6598489,13.5897137 75.016351,13.8106575 74.687142,13.8693531 L74.3579329,12.7799046 C74.687142,12.6768293 75.1212744,12.4711559 75.5106459,12.1471368 C75.8696956,11.8674973 76.3187483,11.3669141 76.6181168,10.7045599 C76.677798,10.5718982 76.7225589,10.4688229 76.7225589,10.395334 C76.7225589,10.3218452 76.6927183,10.2187699 76.6325558,10.0569989 L73.9536411,3.4897667 L75.390321,3.4897667 L75.390321,3.4888123 Z" id="Path"></path>
                <path d="M88.3685704,6.99337222 C88.3685704,9.62847296 86.5126783,10.7775716 84.7617096,10.7775716 C82.8008942,10.7775716 81.2891315,9.36362672 81.2891315,7.11076352 C81.2891315,4.7257158 82.8754956,3.32704136 84.8810719,3.32704136 C86.961731,3.32704136 88.3685704,4.81447508 88.3685704,6.99337222 Z M82.6213693,7.06686108 C82.6213693,8.62778367 83.5343951,9.80503712 84.8213908,9.80503712 C86.0785459,9.80503712 87.0214122,8.64162248 87.0214122,7.03679745 C87.0214122,5.82995758 86.4077549,4.29862142 84.8512314,4.29862142 C83.2947078,4.29862142 82.6213693,5.71256628 82.6213693,7.06686108 Z" id="Shape"></path>
                <path d="M96.0939136,8.67216331 C96.0939136,9.40848356 96.1088339,10.0560445 96.1535948,10.6153234 L94.9864428,10.6153234 L94.91136,9.4519088 L94.8815194,9.4519088 C94.53739,10.0259809 93.7740485,10.7770944 92.4865715,10.7770944 C91.3492601,10.7770944 89.9871816,10.1581654 89.9871816,7.65572641 L89.9871816,3.4888123 L91.3044992,3.4888123 L91.3044992,7.43525981 C91.3044992,8.78955461 91.7237113,9.70243902 92.920704,9.70243902 C93.8034078,9.70243902 94.4175464,9.09878049 94.6567524,8.52470838 C94.7313539,8.33335101 94.776596,8.097614 94.776596,7.86187699 L94.776596,3.4888123 L96.0939136,3.4888123 L96.0939136,8.67216331 L96.0939136,8.67216331 Z" id="Path"></path>
                <path d="M98.2804587,5.71256628 C98.2804587,4.87269353 98.2655384,4.15164369 98.2202962,3.4888123 L99.3730092,3.4888123 L99.4177701,4.88796394 L99.4779326,4.88796394 C99.8071417,3.93069989 100.600805,3.32704136 101.483509,3.32704136 C101.633193,3.32704136 101.738117,3.34135737 101.85796,3.371421 L101.85796,4.59353128 C101.723196,4.56394486 101.588432,4.54962884 101.408907,4.54962884 C100.480961,4.54962884 99.8225433,5.24109226 99.6430184,6.21314952 C99.6126965,6.38923648 99.582856,6.59586426 99.582856,6.81680806 L99.582856,10.6153234 L98.2804587,10.6153234 L98.2804587,5.71256628 Z" id="Path"></path>
                <path d="M106.394211,0.824125133 C106.963107,0.706733828 107.861213,0.617974549 108.774238,0.617974549 C110.076154,0.617974549 110.914579,0.838918346 111.543156,1.33950159 C112.06681,1.72269353 112.381099,2.31108165 112.381099,3.09178155 C112.381099,4.0485684 111.737601,4.88796394 110.674891,5.27067869 L110.674891,5.29978791 C111.632678,5.53552492 112.755069,6.31574761 112.755069,7.78838812 C112.755069,8.64209968 112.41094,9.28966066 111.902206,9.77592789 C111.199027,10.4091729 110.061234,10.7036055 108.414707,10.7036055 C107.516602,10.7036055 106.828343,10.6444327 106.394211,10.585737 L106.394211,0.824125133 Z M107.696608,4.88796394 L108.879162,4.88796394 C110.256161,4.88796394 111.064744,4.18170732 111.064744,3.22444327 C111.064744,2.06102863 110.166639,1.60434783 108.849321,1.60434783 C108.250584,1.60434783 107.906455,1.64920467 107.696608,1.6931071 L107.696608,4.88796394 Z M107.696608,9.64374337 C107.951216,9.68812301 108.325186,9.70243902 108.789159,9.70243902 C110.136317,9.70243902 111.378552,9.21617179 111.378552,7.77359491 C111.378552,6.41930011 110.195998,5.85954401 108.774238,5.85954401 L107.696608,5.85954401 L107.696608,9.64374337 Z" id="Shape"></path>
                <path d="M120.525173,8.67216331 C120.525173,9.40848356 120.540094,10.0560445 120.584854,10.6153234 L119.417702,10.6153234 L119.34262,9.4519088 L119.312779,9.4519088 C118.96865,10.0259809 118.205308,10.7770944 116.917831,10.7770944 C115.78052,10.7770944 114.418441,10.1581654 114.418441,7.65572641 L114.418441,3.4888123 L115.735759,3.4888123 L115.735759,7.43525981 C115.735759,8.78955461 116.154971,9.70243902 117.351964,9.70243902 C118.234667,9.70243902 118.848806,9.09878049 119.088012,8.52470838 C119.162614,8.33335101 119.207856,8.097614 119.207856,7.86187699 L119.207856,3.4888123 L120.525173,3.4888123 L120.525173,8.67216331 L120.525173,8.67216331 Z" id="Path"></path>
                <path d="M122.532675,9.28966066 C122.922046,9.54019088 123.610305,9.80503712 124.268723,9.80503712 C125.22651,9.80503712 125.675563,9.3345175 125.675563,8.74517497 C125.675563,8.12624602 125.301593,7.78791092 124.328404,7.43478261 C123.026488,6.9781018 122.412831,6.27136797 122.412831,5.41765642 C122.412831,4.26903499 123.355697,3.32656416 124.912221,3.32656416 C125.645722,3.32656416 126.28922,3.53319194 126.693512,3.76845175 L126.364303,4.71092259 C126.079854,4.53435843 125.5562,4.29862142 124.88238,4.29862142 C124.104119,4.29862142 123.669986,4.74050901 123.669986,5.27067869 C123.669986,5.85906681 124.104119,6.12439024 125.046985,6.47751856 C126.30414,6.94851538 126.948119,7.56696713 126.948119,8.62730647 C126.948119,9.87852598 125.960011,10.7623012 124.238883,10.7623012 C123.445701,10.7623012 122.7122,10.5709438 122.203466,10.2765111 L122.532675,9.28966066 Z" id="Path"></path>
                <path d="M130.107371,1.48695652 C130.122292,1.92884411 129.793082,2.28197243 129.268947,2.28197243 C128.804974,2.28197243 128.475765,1.92884411 128.475765,1.48695652 C128.475765,1.03027572 128.819894,0.677147402 129.298788,0.677147402 C129.793082,0.677147402 130.107371,1.03027572 130.107371,1.48695652 Z M128.640851,10.6153234 L128.640851,3.4888123 L129.958168,3.4888123 L129.958168,10.6153234 L128.640851,10.6153234 Z" id="Shape"></path>
                <path d="M132.143751,5.41813362 C132.143751,4.68181336 132.12883,4.07767762 132.083588,3.4888123 L133.251222,3.4888123 L133.325823,4.66702015 L133.356145,4.66702015 C133.715195,3.98987275 134.553138,3.32704136 135.751093,3.32704136 C136.754122,3.32704136 138.310164,3.91590668 138.310164,6.36012725 L138.310164,10.6148462 L136.993328,10.6148462 L136.993328,6.50758218 C136.993328,5.35896076 136.559676,4.40217391 135.31696,4.40217391 C134.449177,4.40217391 133.775357,5.00583245 133.551071,5.72688229 C133.490909,5.88865323 133.461068,6.10959703 133.461068,6.33054083 L133.461068,10.6153234 L132.143751,10.6153234 L132.143751,5.41813362 L132.143751,5.41813362 Z" id="Path"></path>
                <path d="M141.18593,7.28780488 C141.215771,9.04008484 142.353564,9.76161188 143.6704,9.76161188 C144.613266,9.76161188 145.182163,9.59936373 145.675976,9.39369035 L145.900743,10.3208908 C145.43677,10.5270414 144.643588,10.7627784 143.490875,10.7627784 C141.260532,10.7627784 139.928775,9.32020148 139.928775,7.17041357 C139.928775,5.02062566 141.215771,3.32751856 143.326271,3.32751856 C145.691378,3.32751856 146.319955,5.37375398 146.319955,6.68414634 C146.319955,6.94946978 146.290115,7.15562036 146.275194,7.28828208 L141.18593,7.28828208 L141.18593,7.28780488 Z M145.046917,6.36060445 C145.061838,5.53552492 144.702788,4.25519618 143.221347,4.25519618 C141.889109,4.25519618 141.305774,5.46203606 141.200851,6.36060445 L145.046917,6.36060445 Z" id="Shape"></path>
                <path d="M147.772518,9.28966066 C148.16189,9.54019088 148.850148,9.80503712 149.508567,9.80503712 C150.466353,9.80503712 150.915887,9.3345175 150.915887,8.74517497 C150.915887,8.12624602 150.541917,7.78791092 149.568729,7.43478261 C148.266332,6.9781018 147.653156,6.27136797 147.653156,5.41765642 C147.653156,4.26903499 148.596022,3.32656416 150.152546,3.32656416 C150.885565,3.32656416 151.529063,3.53319194 151.933355,3.76845175 L151.603665,4.71092259 C151.319216,4.53435843 150.795562,4.29862142 150.122224,4.29862142 C149.343962,4.29862142 148.90983,4.74050901 148.90983,5.27067869 C148.90983,5.85906681 149.343481,6.12439024 150.286347,6.47751856 C151.543502,6.94851538 152.187,7.56696713 152.187,8.62730647 C152.187,9.87852598 151.199373,10.7623012 149.478245,10.7623012 C148.685063,10.7623012 147.951562,10.5709438 147.442828,10.2765111 L147.772518,9.28966066 Z" id="Path"></path>
                <path d="M153.701169,9.28966066 C154.090541,9.54019088 154.778799,9.80503712 155.437218,9.80503712 C156.395004,9.80503712 156.844538,9.3345175 156.844538,8.74517497 C156.844538,8.12624602 156.470568,7.78791092 155.49738,7.43478261 C154.194983,6.9781018 153.581807,6.27136797 153.581807,5.41765642 C153.581807,4.26903499 154.524673,3.32656416 156.081197,3.32656416 C156.814216,3.32656416 157.457714,3.53319194 157.862006,3.76845175 L157.532316,4.71092259 C157.247868,4.53435843 156.724213,4.29862142 156.050875,4.29862142 C155.272613,4.29862142 154.838481,4.74050901 154.838481,5.27067869 C154.838481,5.85906681 155.272132,6.12439024 156.214998,6.47751856 C157.472153,6.94851538 158.115651,7.56696713 158.115651,8.62730647 C158.115651,9.87852598 157.128024,10.7623012 155.406896,10.7623012 C154.613714,10.7623012 153.880213,10.5709438 153.371479,10.2765111 L153.701169,9.28966066 Z" id="Path"></path>
                <polygon id="Path" points="164.330194 1.78138918 161.261908 1.78138918 161.261908 0.691940615 168.730718 0.691940615 168.730718 1.78138918 165.647512 1.78138918 165.647512 10.6153234 164.330676 10.6153234 164.330676 1.78138918"></polygon>
                <path d="M169.135973,5.71256628 C169.135973,4.87269353 169.121053,4.15164369 169.07581,3.4888123 L170.228523,3.4888123 L170.273766,4.88796394 L170.333447,4.88796394 C170.663137,3.93069989 171.455838,3.32704136 172.339023,3.32704136 C172.489189,3.32704136 172.593149,3.34135737 172.712993,3.371421 L172.712993,4.59353128 C172.57871,4.56394486 172.443465,4.54962884 172.26394,4.54962884 C171.335994,4.54962884 170.677095,5.24109226 170.49757,6.21314952 C170.467729,6.38923648 170.437889,6.59586426 170.437889,6.81680806 L170.437889,10.6153234 L169.135973,10.6153234 L169.135973,5.71256628 L169.135973,5.71256628 Z" id="Path"></path>
                <path d="M177.967343,10.6153234 L177.86242,9.71723224 L177.817178,9.71723224 C177.412886,10.2769883 176.635105,10.7775716 175.601754,10.7775716 C174.135234,10.7775716 173.386813,9.76161188 173.386813,8.73085896 C173.386813,7.00864263 174.942855,6.06617179 177.742095,6.0804878 L177.742095,5.93303287 C177.742095,5.34464475 177.57749,4.28382821 176.095568,4.28382821 C175.42223,4.28382821 174.719051,4.49045599 174.209835,4.81399788 L173.910467,3.96028632 C174.509204,3.57709438 175.377469,3.32704136 176.290013,3.32704136 C178.505436,3.32704136 179.044011,4.81399788 179.044011,6.24178155 L179.044011,8.90694592 C179.044011,9.52539767 179.074333,10.1295334 179.163854,10.6148462 L177.967343,10.6148462 L177.967343,10.6153234 Z M177.772898,6.978579 C176.336218,6.94899258 174.704612,7.1995228 174.704612,8.58340403 C174.704612,9.42279958 175.273508,9.82030753 175.946846,9.82030753 C176.889713,9.82030753 177.48845,9.23144221 177.698296,8.62778367 C177.743057,8.49512195 177.772898,8.34766702 177.772898,8.2154825 L177.772898,6.978579 Z" id="Shape"></path>
                <path d="M181.172318,5.41813362 C181.172318,4.68181336 181.157398,4.07767762 181.112156,3.4888123 L182.279789,3.4888123 L182.354391,4.66702015 L182.384713,4.66702015 C182.743762,3.98987275 183.581705,3.32704136 184.779661,3.32704136 C185.782208,3.32704136 187.338732,3.91590668 187.338732,6.36012725 L187.338732,10.6148462 L186.021895,10.6148462 L186.021895,6.50758218 C186.021895,5.35896076 185.587763,4.40217391 184.345528,4.40217391 C183.477745,4.40217391 182.804406,5.00583245 182.579639,5.72688229 C182.519958,5.88865323 182.489636,6.10959703 182.489636,6.33054083 L182.489636,10.6153234 L181.1728,10.6153234 L181.1728,5.41813362 L181.172318,5.41813362 Z" id="Path"></path>
                <path d="M189.300991,9.28966066 C189.690363,9.54019088 190.378621,9.80503712 191.037039,9.80503712 C191.994826,9.80503712 192.44436,9.3345175 192.44436,8.74517497 C192.44436,8.12624602 192.07039,7.78791092 191.097202,7.43478261 C189.794805,6.9781018 189.181629,6.27136797 189.181629,5.41765642 C189.181629,4.26903499 190.124495,3.32656416 191.681019,3.32656416 C192.414038,3.32656416 193.057536,3.53319194 193.461828,3.76845175 L193.132137,4.71092259 C192.847689,4.53435843 192.324035,4.29862142 191.650697,4.29862142 C190.872435,4.29862142 190.438302,4.74050901 190.438302,5.27067869 C190.438302,5.85906681 190.871954,6.12439024 191.81482,6.47751856 C193.071975,6.94851538 193.715473,7.56696713 193.715473,8.62730647 C193.715473,9.87852598 192.727846,10.7623012 191.006718,10.7623012 C190.213535,10.7623012 189.480035,10.5709438 188.971301,10.2765111 L189.300991,9.28966066 Z" id="Path"></path>
                <path d="M195.543931,10.6153234 L195.543931,4.47613998 L194.526463,4.47613998 L194.526463,3.4892895 L195.543931,3.4892895 L195.543931,3.1509544 C195.543931,2.14978791 195.768698,1.2369035 196.381874,0.662354189 C196.875687,0.191834571 197.534587,0 198.148244,0 C198.612217,0 199.016509,0.103075292 199.270635,0.206150583 L199.09111,1.20779427 C198.896665,1.11903499 198.627137,1.04554613 198.253167,1.04554613 C197.130776,1.04554613 196.846328,2.01712619 196.846328,3.10657476 L196.846328,3.4892895 L198.597297,3.4892895 L198.597297,4.47613998 L196.846328,4.47613998 L196.846328,10.6153234 L195.543931,10.6153234 L195.543931,10.6153234 Z" id="Path"></path>
                <path d="M206.141671,6.99337222 C206.141671,9.62847296 204.286261,10.7775716 202.534811,10.7775716 C200.573995,10.7775716 199.062232,9.36362672 199.062232,7.11076352 C199.062232,4.7257158 200.648597,3.32704136 202.654654,3.32704136 C204.734832,3.32704136 206.141671,4.81447508 206.141671,6.99337222 Z M200.393989,7.06686108 C200.393989,8.62778367 201.307015,9.80503712 202.59401,9.80503712 C203.851166,9.80503712 204.794032,8.64162248 204.794032,7.03679745 C204.794032,5.82995758 204.180856,4.29862142 202.623851,4.29862142 C201.066846,4.29862142 200.393989,5.71256628 200.393989,7.06686108 Z" id="Shape"></path>
                <path d="M207.805043,5.71256628 C207.805043,4.87269353 207.790123,4.15164369 207.744881,3.4888123 L208.897594,3.4888123 L208.942836,4.88796394 L209.002517,4.88796394 C209.332208,3.93069989 210.124909,3.32704136 211.008094,3.32704136 C211.158259,3.32704136 211.262701,3.34135737 211.382064,3.371421 L211.382064,4.59353128 C211.247781,4.56394486 211.112536,4.54962884 210.933011,4.54962884 C210.005065,4.54962884 209.346647,5.24109226 209.166641,6.21314952 C209.1368,6.38923648 209.106959,6.59586426 209.106959,6.81680806 L209.106959,10.6153234 L207.805043,10.6153234 L207.805043,5.71256628 L207.805043,5.71256628 Z" id="Path"></path>
                <path d="M212.760506,5.41813362 C212.760506,4.68181336 212.745586,4.07767762 212.700344,3.4888123 L213.853057,3.4888123 L213.913219,4.63743372 L213.95798,4.63743372 C214.362272,3.96028632 215.035611,3.32704136 216.233084,3.32704136 C217.221193,3.32704136 217.969133,3.91590668 218.283903,4.75530223 L218.314225,4.75530223 C218.538511,4.35731707 218.822959,4.0485684 219.122327,3.8281018 C219.55646,3.50360551 220.035353,3.32704136 220.723612,3.32704136 C221.681398,3.32704136 223.103639,3.94549311 223.103639,6.41882291 L223.103639,10.6148462 L221.816162,10.6148462 L221.816162,6.58107105 C221.816162,5.21150583 221.306947,4.3869035 220.244237,4.3869035 C219.495816,4.3869035 218.911999,4.93186638 218.688195,5.56511135 C218.628032,5.7411983 218.583271,5.97693531 218.583271,6.21267232 L218.583271,10.6148462 L217.295794,10.6148462 L217.295794,6.34533404 C217.295794,5.21150583 216.787061,4.3869035 215.784032,4.3869035 C214.961009,4.3869035 214.362272,5.03446448 214.152425,5.68250265 C214.077824,5.87386002 214.047502,6.09432662 214.047502,6.31527041 L214.047502,10.6148462 L212.760506,10.6148462 L212.760506,5.41813362 L212.760506,5.41813362 Z" id="Path"></path>
                <path d="M229.257057,10.6153234 L229.152134,9.71723224 L229.106892,9.71723224 C228.7026,10.2769883 227.924819,10.7775716 226.891469,10.7775716 C225.424948,10.7775716 224.676527,9.76161188 224.676527,8.73085896 C224.676527,7.00864263 226.232569,6.06617179 229.031809,6.0804878 L229.031809,5.93303287 C229.031809,5.34464475 228.867204,4.28382821 227.385282,4.28382821 C226.711944,4.28382821 226.008765,4.49045599 225.49955,4.81399788 L225.200181,3.96028632 C225.798918,3.57709438 226.667183,3.32704136 227.579728,3.32704136 C229.795151,3.32704136 230.333725,4.81399788 230.333725,6.24178155 L230.333725,8.90694592 C230.333725,9.52539767 230.364047,10.1295334 230.453569,10.6148462 L229.257057,10.6148462 L229.257057,10.6153234 Z M229.062612,6.978579 C227.625932,6.94899258 225.994326,7.1995228 225.994326,8.58340403 C225.994326,9.42279958 226.563222,9.82030753 227.236561,9.82030753 C228.179427,9.82030753 228.778164,9.23144221 228.988011,8.62778367 C229.032772,8.49512195 229.062612,8.34766702 229.062612,8.2154825 L229.062612,6.978579 Z" id="Shape"></path>
                <path d="M233.987753,1.44257688 L233.987753,3.4888123 L235.873486,3.4888123 L235.873486,4.47566278 L233.987753,4.47566278 L233.987753,8.31855779 C233.987753,9.20185578 234.241879,9.70196182 234.975862,9.70196182 C235.319991,9.70196182 235.574117,9.65758218 235.739203,9.61367975 L235.798884,10.5852598 C235.544758,10.6883351 235.140466,10.761824 234.631251,10.761824 C234.018075,10.761824 233.52378,10.5704666 233.209491,10.2168611 C232.835521,9.83414634 232.700276,9.20090138 232.700276,8.36150583 L232.700276,4.47470838 L231.577885,4.47470838 L231.577885,3.4878579 L232.700276,3.4878579 L232.700276,1.78043478 L233.987753,1.44257688 Z" id="Path"></path>
                <path d="M238.823372,1.48695652 C238.838293,1.92884411 238.509565,2.28197243 237.985429,2.28197243 C237.521456,2.28197243 237.192247,1.92884411 237.192247,1.48695652 C237.192247,1.03027572 237.536858,0.677147402 238.015751,0.677147402 C238.509565,0.677147402 238.823372,1.03027572 238.823372,1.48695652 Z M237.356852,10.6153234 L237.356852,3.4888123 L238.673688,3.4888123 L238.673688,10.6153234 L237.356852,10.6153234 Z" id="Shape"></path>
                <path d="M247.415055,6.99337222 C247.415055,9.62847296 245.559645,10.7775716 243.808195,10.7775716 C241.847379,10.7775716 240.335616,9.36362672 240.335616,7.11076352 C240.335616,4.7257158 241.922462,3.32704136 243.928038,3.32704136 C246.008697,3.32704136 247.415055,4.81447508 247.415055,6.99337222 Z M241.667854,7.06686108 C241.667854,8.62778367 242.58088,9.80503712 243.867876,9.80503712 C245.125031,9.80503712 246.067897,8.64162248 246.067897,7.03679745 C246.067897,5.82995758 245.454721,4.29862142 243.897716,4.29862142 C242.340711,4.29862142 241.667854,5.71256628 241.667854,7.06686108 Z" id="Shape"></path>
                <path d="M249.078909,5.41813362 C249.078909,4.68181336 249.063988,4.07767762 249.018746,3.4888123 L250.18638,3.4888123 L250.260981,4.66702015 L250.291303,4.66702015 C250.650353,3.98987275 251.488296,3.32704136 252.686251,3.32704136 C253.688798,3.32704136 255.245322,3.91590668 255.245322,6.36012725 L255.245322,10.6148462 L253.928486,10.6148462 L253.928486,6.50758218 C253.928486,5.35896076 253.494353,4.40217391 252.252118,4.40217391 C251.384335,4.40217391 250.710996,5.00583245 250.486229,5.72688229 C250.426548,5.88865323 250.396226,6.10959703 250.396226,6.33054083 L250.396226,10.6153234 L249.07939,10.6153234 L249.07939,5.41813362 L249.078909,5.41813362 Z" id="Path"></path>
            </g>
        </g>
    </g>
</svg>