<svg fill="none" height="39" viewBox="0 0 123 39" width="123" xmlns="http://www.w3.org/2000/svg"><path d="m10.6121 33.885c1.05 0 2.2283-.5309 3.535-1.5926 1.3067-1.0616 2.625-2.4383 3.955-4.1299 1.33-1.6917 2.6367-3.57 3.92-5.635s2.415-4.1067 3.395-6.125c.98-2.0184 1.7733-3.885 2.38-5.6.6067-1.71505.91-3.06255.91-4.04255 0-.63-.0817-1.2775-.245-1.9425s-.4083-1.2775-.735-1.8375-.7525-1.02667-1.2775-1.4-1.1492-.583332-1.8725-.629999l.1825.204999c.35.42.61.9.78 1.44.1983.63.2975 1.27167.2975 1.925 0 .32667-.105.88083-.315 1.6625s-.4783 1.6625-.805 2.6425-.7 1.99505-1.12 3.04505-.8458 2.0183-1.2775 2.905c-.4317.8866-.8517 1.6275-1.26 2.2225s-.7525.9275-1.0325.9975c-.1867.4433-.4842.9975-.8925 1.6625s-.875 1.3766-1.4 2.1349c-.525.7584-1.0908 1.5342-1.6975 2.3276-.6067.7933-1.2075 1.5341-1.8025 2.2225-.595.6883-1.1608 1.295-1.6975 1.82s-1.0033.9041-1.4 1.1374c0-1.54.1867-3.0741.56-4.6024.3733-1.5284.7875-3.0451 1.2425-4.5501s.875-2.9983 1.26-4.4799c.385-1.4817.5775-2.9575.5775-4.4275v-.175l.525-.56c-.0233-.3034.0875-.80505.3325-1.50505s.5425-1.42333.8925-2.17.7117-1.44667 1.085-2.1.665-1.09667.875-1.33l.07-.49-.21-.42c-.07.09333-.1458.06417-.2275-.0875s-.1225-.25083-.1225-.2975c-.6067-.16333-1.19-.39083-1.75-.6825s-1.1667-.437499-1.82-.437499c-.8633 0-1.6392.198329-2.3275.594999s-1.3475.8575-1.9775 1.3825c-.63001.525-1.26001 1.04417-1.89001 1.5575s-1.31833.875-2.065 1.085l-.175.525c-.39667.30333-.875.72333-1.435 1.26s-1.1025 1.12-1.6275 1.75-.98583 1.26005-1.3825 1.89005-.641667 1.19-.735 1.68l-.315.35-.105 1.435c0 .21.1225.4375.3675.6825s.53083.4725.8575.6825.65917.385.9975.525.60083.2216.7875.245c.18667-.4667.4025-.9392.6475-1.4175.245-.4784.5425-.8925.8925-1.2425.02333-.21.1925-.5717.5075-1.085.315-.5134.69417-1.0967 1.1375-1.75.44333-.6534.93917-1.32422 1.4875-2.01255s1.0675-1.32417 1.5575-1.9075c.49001-.58333.92751-1.06167 1.31251-1.435s.6592-.56.8225-.56l.14.07c-.84 1.89-1.6158 3.85-2.32751 5.88005-.71167 2.03-1.32417 4.0891-1.8375 6.1775-.51333 2.0883-.91583 4.1941-1.2075 6.3175-.29167 2.1233-.4375 4.235-.4375 6.335 0 .5366.14 1.0441.42 1.5224.28.4784.64167.8925 1.085 1.2425s.93333.6242 1.47.8226c.53667.1983 1.05001.2975 1.54001.2975zm-1.82001-2.73c-.07 0-.12833-.0642-.175-.1925-.04667-.1284-.08167-.2159-.105-.2625.04667-.1167.11667-.175.21-.175.02333 0 .035.0233.035.0699 0 .0934-.01167.1517-.035.1751v.035c.00778 0 .01426-.0013.01944-.0039l.00556-.0052.038.0413c.056.0644.091.1203.105.1679l.007.0448c0 .07-.035.1051-.105.1051zm20.86001-1.19c.3967 0 .735-.0642 1.015-.1926.28-.1283.56-.3208.84-.5774.14 0 .3208-.0875.5425-.2625s.4492-.3734.6825-.595c.2333-.2217.455-.4434.665-.665.21-.2217.3733-.3792.49-.4725.07.28.2742.5775.6125.8925s.7233.6008 1.155.8575c.4317.2566.8692.4666 1.3125.63.4433.1633.805.245 1.085.245.6533 0 1.2483-.1225 1.785-.3675s1.0383-.56 1.505-.945.91-.7992 1.33-1.2425c.42-.4434.8517-.8634 1.295-1.26.1167-.3734.3675-.84.7525-1.4s.7817-1.1259 1.19-1.6975c.4083-.5717.7758-1.1084 1.1025-1.61.3267-.5017.5017-.8809.525-1.1375l-.28-.28-3.045.035c-.07.1866-.2392.49-.5075.91s-.5833.8924-.945 1.4174-.7467 1.0676-1.155 1.6276-.805 1.0733-1.19 1.54c-.385.4666-.735.8516-1.05 1.155-.315.3033-.5425.455-.6825.455h-.035c0-.8167.1225-1.7967.3675-2.9401.245-1.1433.5425-2.3158.8925-3.5175.35-1.2016.7292-2.3624 1.1375-3.4824s.7758-2.065 1.1025-2.835l-.21-.245-.14.035c-.42-.3967-.8983-.7409-1.435-1.0325-.5367-.2917-1.1083-.4375-1.715-.4375-.49 0-.945.3558-1.365 1.0675-.42.7116-.8225 1.5983-1.2075 2.66-.385 1.0616-.77 2.2108-1.155 3.4475-.385 1.2366-.7992 2.3858-1.2425 3.4474-.4433 1.0617-.9392 1.9484-1.4875 2.6601-.5483.7116-1.1608 1.0675-1.8375 1.0675-.2567 0-.42-.1167-.49-.35-.07-.2334-.105-.4434-.105-.63 0-.8634.0992-1.7675.2975-2.7125s.4492-1.8959.7525-2.8525c.3033-.9567.6417-1.89 1.015-2.8s.7233-1.75 1.05-2.52l.35-.385.0005-.113c-.0178-.2616-.1697-.5098-.4555-.7445-.3267-.2684-.7117-.5017-1.155-.7-.4433-.1984-.8925-.3559-1.3475-.4725-.455-.1167-.7992-.175-1.0325-.175s-.49.1866-.77.56c-.28.3733-.5367.7991-.77 1.2775-.2333.4783-.4317.9566-.595 1.435-.1633.4783-.245.8225-.245 1.0325l-.315.49.07.315c-.2333.4666-.455 1.12-.665 1.96s-.4025 1.7266-.5775 2.66c-.175.9333-.315 1.8374-.42 2.7124s-.1575 1.5692-.1575 2.0826c0 .42.1867.8108.56 1.1725.3733.3616.8225.6766 1.3475.945.525.2683 1.0617.4783 1.61.6299.5483.1517.9975.2276 1.3475.2276zm8.68-10.185c-.1167 0-.175-.035-.175-.105 0-.0234.0058-.035.0175-.035s.0175-.0117.0175-.0351c0-.0466.0408-.1108.1225-.1924.0817-.0817.1458-.1225.1925-.1225s.07.0466.07.14v.105c0 .1633-.0817.245-.245.245zm-9.73 6.335c-.0467 0-.105-.0234-.175-.07-.07-.0467-.105-.105-.105-.175 0-.1167.0583-.175.175-.175.0467 0 .0875.0583.1225.175.035.1166.0525.1983.0525.245l-.003-.028-.0048.0124c-.0052.0052-.013.0091-.0233.0117zm-.49.5949c-.1633 0-.245-.0583-.245-.1749 0-.0467.0408-.0817.1225-.105.0817-.0234.1458-.035.1925-.035.07 0 .105.0233.105.07 0 .1633-.0583.2449-.175.2449zm19.985 3.2551c.3967 0 .735-.0642 1.015-.1926.28-.1283.56-.3208.84-.5774.14 0 .3208-.0875.5425-.2625s.4492-.3734.6825-.595c.2333-.2217.455-.4434.665-.665.21-.2217.3733-.3792.49-.4725.07.28.2742.5775.6125.8925s.7233.6008 1.155.8575c.4317.2566.8692.4666 1.3125.63.4433.1633.805.245 1.085.245.6533 0 1.2483-.1225 1.785-.3675s1.0383-.56 1.505-.945.91-.7992 1.33-1.2425c.42-.4434.8517-.8634 1.295-1.26.1167-.3734.3675-.84.7525-1.4s.7817-1.1259 1.19-1.6975c.4083-.5717.7758-1.1084 1.1025-1.61.3267-.5017.5017-.8809.525-1.1375l-.28-.28-3.045.035c-.07.1866-.2392.49-.5075.91s-.5833.8924-.945 1.4174-.7467 1.0676-1.155 1.6276-.805 1.0733-1.19 1.54c-.385.4666-.735.8516-1.05 1.155-.315.3033-.5425.455-.6825.455h-.035c0-.8167.1225-1.7967.3675-2.9401.245-1.1433.5425-2.3158.8925-3.5175.35-1.2016.7292-2.3624 1.1375-3.4824s.7758-2.065 1.1025-2.835l-.21-.245-.14.035c-.42-.3967-.8983-.7409-1.435-1.0325-.5367-.2917-1.1083-.4375-1.715-.4375-.49 0-.945.3558-1.365 1.0675-.42.7116-.8225 1.5983-1.2075 2.66-.385 1.0616-.77 2.2108-1.155 3.4475-.385 1.2366-.7992 2.3858-1.2425 3.4474-.4433 1.0617-.9392 1.9484-1.4875 2.6601-.5483.7116-1.1608 1.0675-1.8375 1.0675-.2567 0-.42-.1167-.49-.35-.07-.2334-.105-.4434-.105-.63 0-.8634.0992-1.7675.2975-2.7125s.4492-1.8959.7525-2.8525c.3033-.9567.6417-1.89 1.015-2.8s.7233-1.75 1.05-2.52l.35-.385.0005-.113c-.0178-.2616-.1697-.5098-.4555-.7445-.3267-.2684-.7117-.5017-1.155-.7-.4433-.1984-.8925-.3559-1.3475-.4725-.455-.1167-.7992-.175-1.0325-.175s-.49.1866-.77.56c-.28.3733-.5367.7991-.77 1.2775-.2333.4783-.4317.9566-.595 1.435-.1633.4783-.245.8225-.245 1.0325l-.315.49.07.315c-.2333.4666-.455 1.12-.665 1.96s-.4025 1.7266-.5775 2.66c-.175.9333-.315 1.8374-.42 2.7124s-.1575 1.5692-.1575 2.0826c0 .42.1867.8108.56 1.1725.3733.3616.8225.6766 1.3475.945.525.2683 1.0617.4783 1.61.6299.5483.1517.9975.2276 1.3475.2276zm8.68-10.185c-.1167 0-.175-.035-.175-.105 0-.0234.0058-.035.0175-.035s.0175-.0117.0175-.0351c0-.0466.0408-.1108.1225-.1924.0817-.0817.1458-.1225.1925-.1225s.07.0466.07.14v.105c0 .1633-.0817.245-.245.245zm-9.73 6.335c-.0467 0-.105-.0234-.175-.07-.07-.0467-.105-.105-.105-.175 0-.1167.0583-.175.175-.175.0467 0 .0875.0583.1225.175.035.1166.0525.1983.0525.245l-.003-.028-.0048.0124c-.0052.0052-.013.0091-.0233.0117zm-.49.5949c-.1633 0-.245-.0583-.245-.1749 0-.0467.0408-.0817.1225-.105.0817-.0234.1458-.035.1925-.035.07 0 .105.0233.105.07 0 .1633-.0583.2449-.175.2449zm30.205 3.3251c.42 0 .9392-.1867 1.5575-.56.6183-.3734 1.26-.8576 1.925-1.4526s1.3242-1.2599 1.9775-1.9949 1.2425-1.47 1.7675-2.205.9567-1.4234 1.295-2.065c.3383-.6417.5075-1.1725.5075-1.5925l-.175-.1051c-.3967 0-.7758-.0233-1.1375-.0699-.3617-.0467-.7408-.07-1.1375-.07-.49 0-.8458.1633-1.0675.49-.2217.3266-.4258.6766-.6125 1.0499l-.28.1051c-.0233.4666-.2392.9158-.6475 1.3475-.4083.4316-.7642.7991-1.0675 1.1024l-.105.455-.385.1401-.21.525-.35.2099v.3151c-.3733.14-.6767.3616-.91.665-.2333.3033-.5017.5716-.805.8049.0467-.3966.1283-.8983.245-1.5049.1167-.6067.2508-1.2192.4025-1.8375.1517-.6184.3267-1.2075.525-1.7675s.4025-.9917.6125-1.295l-.07-.1401c.07-.21.21-.5891.42-1.1374.21-.5484.42-1.12.63-1.715s.3967-1.1434.56-1.645c.1633-.5017.245-.8342.245-.9975 0-.28-.1633-.5659-.49-.8575-.3267-.2917-.7117-.56-1.155-.805s-.8867-.4492-1.33-.6125c-.4433-.1634-.7817-.245-1.015-.245-.7467 0-1.4583.2275-2.135.6825s-1.295.9566-1.855 1.505c-.56.5483-1.0558 1.0616-1.4875 1.54-.4317.4783-.7758.7408-1.0325.7875-.3267.4666-.6358.9508-.9275 1.4525-.2917.5016-.6592.9391-1.1025 1.3125.0467-.3734.1808-.7992.4025-1.2775.2217-.4784.455-.9509.7-1.4175.245-.4667.4667-.91.665-1.33s.2975-.77.2975-1.05c0-.2334-.1517-.4842-.455-.7525-.3033-.2684-.6533-.5134-1.05-.735-.3967-.2217-.7992-.4025-1.2075-.5425s-.7175-.21-.9275-.21c-.28 0-.5658.1808-.8575.5425-.2917.3616-.5833.8283-.875 1.4-.2917.5716-.5658 1.2075-.8225 1.9075s-.4842 1.3766-.6825 2.03c-.1983.6533-.3558 1.2425-.4725 1.7675s-.175.9158-.175 1.1724l.035.3151-.28.455c0 .77-.0992 1.5225-.2975 2.2575l-.0909.3689c-.1377.6174-.2066 1.2469-.2066 1.8885 0 .3734.1458.7584.4375 1.1551.2917.3966.6417.7641 1.05 1.1024.4083.3384.8458.6125 1.3125.8225s.875.3151 1.225.3151c.2567 0 .4608-.0642.6125-.1925.1517-.1284.2275-.3209.2275-.5776 0-.3266.1225-.8166.3675-1.4699.245-.6534.5717-1.3767.98-2.17.4083-.7934.8633-1.6101 1.365-2.4501s1.0033-1.6158 1.505-2.3274c.5017-.7117.98-1.3125 1.435-1.8025s.8458-.7817 1.1725-.875c.0233-.28.1517-.49.385-.63s.4667-.2334.7-.28c-.3033.6766-.6008 1.4116-.8925 2.205-.2917.7933-.5542 1.5983-.7875 2.4149-.2333.8167-.42 1.6334-.56 2.4501-.14.8166-.21 1.5983-.21 2.3449 0 .5367.1633 1.0092.49 1.4176.3267.4083.735.7583 1.225 1.05.49.2916 1.015.5133 1.575.665.56.1516 1.0617.2275 1.505.2275zm-1.715-15.12c-.1167 0-.175-.0467-.175-.14v-.07c0-.1167.0583-.175.175-.175.0467 0 .1167.0175.21.0525s.14.0875.14.1575c0 .0466-.0467.0875-.14.1225s-.1633.0525-.21.0525zm.245 4.9c-.1167 0-.175-.035-.175-.105 0-.0467.0467-.1225.14-.2275s.1633-.1575.21-.1575.07.035.07.105c0 .0933-.0117.1808-.035.2625-.0233.0816-.0933.1225-.21.1225zm-9.695 6.51c-.0933 0-.1692-.0584-.2275-.175-.0583-.1167-.0875-.21-.0875-.28s.0233-.1051.07-.1051c.07 0 .14.0526.21.1576s.105.1924.105.2624v.07c0 .0467-.0233.0701-.07.0701zm9.065.3499c-.0933 0-.14-.0233-.14-.07l.003.011.0057-.0416c.0117-.0408.035-.0758.07-.105l.0613-.0393c.0933-.0467.175-.07.245-.07s.105.035.105.105-.0467.1224-.14.1574-.1633.0525-.21.0525zm15.715-15.7499c.14 0 .245-.0175.315-.0525s.1517-.1109.245-.2275c.2333-.35.4375-.74088.6125-1.17255s.3558-.86917.5425-1.3125.3967-.86333.63-1.26.5133-.735.84-1.015l-.0442-.13903c-.0892-.23009-.2553-.45208-.4983-.66597-.2917-.25667-.6242-.47833-.9975-.665s-.7525-.33833-1.1375-.455-.7175-.175-.9975-.175c-.2333 0-.5192.16333-.8575.49s-.6592.70583-.9625 1.1375-.5658.86333-.7875 1.295-.3325.7525-.3325.9625c0 .14.0292.27417.0875.4025l.0486.13028c.0259.08815.0389.17889.0389.27222 0 .04667-.0117.09333-.035.14s-.035.09333-.035.14c-.0467.18667.07.40833.35.665s.6125.49583.9975.71755c.385.2216.7642.4083 1.1375.56.3733.1516.6533.2275.84.2275zm-5.46 18.7949c.49.1634.805.2217.945.1751l2.415-.805c.1633-.0467.4375-.2801.8225-.7001s.8342-.9333 1.3475-1.5399c.5133-.6067 1.0383-1.2659 1.575-1.9776.5367-.7116 1.0383-1.3941 1.505-2.0474.4667-.6534.8458-1.225 1.1375-1.715s.4492-.8167.4725-.9801l-.28-.2799c-.5133 0-1.0267.0116-1.54.035l-1.54.07c-.7467 1.26-1.5575 2.4674-2.4325 3.6224s-1.8725 2.2226-2.9925 3.2026l-.035-.5601c0-.1633.0583-.5424.175-1.1374s.2625-1.2834.4375-2.065c.175-.7817.3733-1.6042.595-2.4676.2217-.8633.4433-1.6683.665-2.4149.2217-.7467.42-1.365.595-1.855s.3208-.7584.4375-.805l.56-1.12c-.07-.14-.2567-.3267-.56-.56-.3033-.2334-.6358-.4609-.9975-.6825-.3617-.2217-.7175-.4142-1.0675-.5775-.35-.1634-.6067-.245-.77-.245-.0233 0-.0875.0233-.1925.07-.105.0466-.2275.0933-.3675.14-.14.0466-.2742.0933-.4025.14-.1283.0466-.2042.0816-.2275.105-.0233.2333-.0992.455-.2275.665s-.2858.3966-.4725.56c.07.2333.0117.4375-.175.6125s-.3267.3558-.42.5425c-.3033.7233-.6067 1.5691-.91 2.5375-.3033.9683-.5717 1.9716-.805 3.01-.2333 1.0383-.42 2.065-.56 3.08s-.21 1.9075-.21 2.6775c0 .49.2042.9566.6125 1.4.4083.4433.8692.8283 1.3825 1.155.5133.3266 1.015.5716 1.505.7349zm1.015-11.7949c-.0467 0-.1167-.0292-.21-.0875-.0933-.0584-.14-.1109-.14-.1575 0-.0234.0233-.035.07-.035h.14c.0467 0 .0817-.0059.105-.0175.0233-.0117.0583-.0175.105-.0175.07 0 .105.0466.105.14l-.002-.015-.0029.0441c-.0129.0778-.0518.1245-.1166.14zm-2.03 3.78c-.1167 0-.175-.0817-.175-.2451 0-.0466.0117-.0991.035-.1574.0233-.0584.0583-.0875.105-.0875s.0817.035.105.105.035.1283.035.175l-.001-.016-.0034.0553-.0131.0832c-.0117.0583-.0408.0875-.0875.0875zm11.27 8.295c.4433 0 .98-.1809 1.61-.5425.63-.3617 1.2892-.8284 1.9775-1.4.6883-.5717 1.3654-1.2134 2.0304-1.925.665-.7117 1.265-1.4234 1.802-2.1351.537-.7116.974-1.3883 1.313-2.0299.338-.6417.507-1.1725.507-1.5925l-.28-.35c-1.12 0-2.053.2508-2.8.7525-.747.5016-1.4232 1.12-2.0299 1.855s-1.1958 1.5166-1.7675 2.345c-.5717.8283-1.2425 1.5691-2.0125 2.2225l-.07-.91c0-.49.07-.9975.21-1.5225s.2975-1.0442.4725-1.5576c.175-.5133.3325-1.0208.4725-1.5224.14-.5017.21-.9975.21-1.4875 0-.35.0525-.6825.1575-.9975s.2275-.6242.3675-.9275c.14-.3034.2625-.6067.3675-.91.105-.3034.1575-.63.1575-.98l.42-.525c.07-.77.2917-1.5342.665-2.2925.3733-.7584.7117-1.4875 1.015-2.1875.2569-.0467.5249-.0759.8049-.0875.28-.0117.548-.0175.805-.0175.77 0 1.558.0641 2.363.1925.805.1283 1.51.4608 2.117.9975l.055-.1089.033-.0661c.035-.07.052-.1284.052-.175 0-.21-.07-.525-.21-.945s-.321-.8459-.542-1.27755c-.222-.43167-.467-.805-.735-1.12-.269-.315-.52-.4725-.753-.4725-.187 0-.35.0525-.49.1575s-.303.1575-.49.1575c-.21 0-.414-.0175-.612-.0525-.199-.035-.403-.06417-.613-.0875l.455-.525c-.023-.16333-.187-.3675-.49-.6125s-.647-.48417-1.032-.7175-.7587-.4375-1.1204-.6125-.6242-.2625-.7875-.2625c-.4433 0-.7992.09917-1.0675.2975s-.4958.44917-.6825.7525-.3733.63583-.56.9975-.4083.69417-.665.9975-.5833.55417-.98.7525-.91.2975-1.54.2975c-.49 0-.8983-.11667-1.225-.35-.0233.07-.0583.1575-.105.2625s-.07.1925-.07.26255c0 .1866.035.3908.105.6125.07.2216.1633.4316.28.63.1167.1983.2683.3616.455.49.1867.1283.385.1925.595.1925s.4083-.0175.595-.0525.385-.0292.595.0175c-.42 1.0966-.8517 2.2225-1.295 3.3775s-.8458 2.3275-1.2075 3.5175-.6592 2.3916-.8925 3.605c-.2333 1.2133-.35 2.415-.35 3.605 0 .63.1167 1.1958.35 1.6975.2333.5016.5483.9216.945 1.26.3967.3383.8633.5949 1.4.7699s1.1083.2626 1.715.2626zm2.24-17.01c-.0233 0-.035-.035-.035-.105v-.245c0-.07.035-.105.105-.105.14 0 .21.07.21.21 0 .0466-.0175.0758-.0525.0875-.035.0116-.0642.0291-.0875.0525-.0233.0233-.0467.0408-.07.0525l-.035.0218zm9.2749 25.55c.63 0 1.289-.2626 1.978-.7876.688-.525 1.324-1.155 1.907-1.89s1.062-1.5108 1.435-2.3274c.373-.8167.56-1.5167.56-2.1001l-.035-.455.35-.4549.035-.63c.56.0466 1.161-.0992 1.803-.4375.641-.3384 1.283-.7875 1.925-1.3475.641-.56 1.271-1.2076 1.89-1.9426.618-.735 1.184-1.4699 1.697-2.2049s.951-1.4467 1.313-2.1351c.361-.6883.612-1.2775.752-1.7675l-1.4-.0699-1.96.035c-.42.56-.817 1.1316-1.19 1.715-.373.5833-.758 1.1608-1.155 1.7325-.397.5716-.817 1.12-1.26 1.645s-.945 1.0091-1.505 1.4525l-.035-.21c0-.0934.047-.3209.14-.6825.093-.3617.198-.7467.315-1.1551.117-.4083.233-.7933.35-1.1549.117-.3617.198-.5892.245-.6826l-.105-.455c.187-.1866.268-.4083.245-.6649-.023-.2567.058-.4784.245-.665l-.035-.595c.233-.3034.443-.665.63-1.085s.356-.8692.508-1.3475c.151-.4784.303-.945.455-1.4.151-.455.32-.8692.507-1.2425.047-.0467.117-.175.21-.385s.14-.3384.14-.385c0-.21-.152-.4259-.455-.6475-.303-.2217-.659-.4259-1.067-.6125-.409-.1867-.811-.3384-1.208-.455-.397-.1167-.688-.175-.875-.175-.513 0-.962.3325-1.347.9975s-.753 1.505-1.103 2.52-.706 2.1233-1.067 3.325c-.362 1.2016-.788 2.3391-1.278 3.4125-.49 1.0733-1.073 1.995-1.75 2.765s-1.505 1.2366-2.485 1.4l-.035-1.2601c0-.5833.099-1.1899.298-1.8199.198-.63.414-1.26.647-1.89s.449-1.2425.648-1.8375c.198-.595.297-1.1725.297-1.7325l-.07-.385c.093-.0467.216-.2217.368-.525.151-.3034.309-.6417.472-1.015.163-.3734.303-.7292.42-1.0675.117-.3384.175-.5659.175-.6825 0-.3034-.128-.595-.385-.875s-.566-.5134-.927-.7c-.362-.1867-.735-.3384-1.12-.455-.385-.1167-.706-.175-.963-.175-.397 0-.729.1633-.997.49-.269.3266-.502.7116-.7 1.155-.199.4433-.38.8925-.543 1.3475s-.338.8108-.525 1.0675l.07.525c-.257.28-.513.8691-.77 1.7675-.257.8983-.478 1.8783-.665 2.9399-.187 1.0617-.338 2.0825-.455 3.0625s-.175 1.6917-.175 2.135c0 .3967.198.7701.595 1.1201s.863.6475 1.4.8925 1.091.4375 1.663.5775c.571.14 1.02.21 1.347.21.233 0 .461-.0059.683-.0175.221-.0117.437-.0759.647-.1925l.175-.3151c.397-.07.753-.245 1.068-.525s.635-.5249.962-.7349c0 .3033-.163.595-.49.875s-.729.5658-1.207.8575c-.479.2916-.992.595-1.54.91-.549.315-1.062.665-1.54 1.05-.479.385-.875.8108-1.19 1.2775-.315.4666-.473.9916-.473 1.575 0 .8633.088 1.5516.263 2.065.175.5133.443.91.805 1.19.361.28.828.4608 1.4.5424.571.0817 1.254.1226 2.047.1226zm-1.995-23.695c-.047 0-.07-.0117-.07-.035-.023-.0234-.035-.0934-.035-.21 0-.07.035-.105.105-.105l.02.0049c.033.013.097.0522.19.1176.117.0816.175.1341.175.1575 0 .0233-.023.035-.07.035s-.099.0058-.157.0175l-.084.0131zm10.71.525c-.023 0-.041-.0059-.052-.0175-.012-.0117-.041-.0175-.088-.0175h-.07c-.047 0-.082.0058-.105.0175-.023.0116-.047.0175-.07.0175s-.035-.0409-.035-.1225v-.1575c0-.07.035-.105.105-.105.047 0 .128.0408.245.1225.117.0816.175.1458.175.1925 0 .0466-.035.07-.105.07zm-3.29 4.2-.039-.0657-.048-.0568c-.035-.035-.053-.0759-.053-.1225 0-.07.093-.1226.28-.1576s.303-.0524.35-.0524c.163 0 .245.0583.245.175v.07c0-.07-.023-.105-.07-.105-.07 0-.187.0408-.35.1225-.163.0816-.268.1458-.315.1925zm-7.175.175h-.035c-.093 0-.14-.0467-.14-.1401 0-.0466.018-.1166.053-.2099.035-.0934.075-.14.122-.14.093 0 .14.0816.14.245 0 .0466-.012.0991-.035.1575-.023.0583-.058.0875-.105.0875zm8.015 3.8149c-.047 0-.117-.0524-.21-.1574s-.163-.1692-.21-.1926c-.023.0234-.047.0584-.07.1051-.023.0466-.058.07-.105.07s-.07-.035-.07-.105.035-.1051.105-.1051h.105c.047 0 .088-.0175.123-.0525l.037-.0291c.025-.0156.054-.0233.085-.0233.047 0 .093.0641.14.1925.047.1283.07.2158.07.2625zm-8.33 12.4251c-.093-.0934-.14-.2217-.14-.385 0-.1634.035-.35.105-.56s.158-.42.263-.63.227-.4025.367-.5775.268-.3209.385-.4375c.07-.07.187-.175.35-.315s.338-.28.525-.42.362-.2567.525-.3501c.163-.0933.303-.1399.42-.1399.093 0 .14.0583.14.1749 0 .3267-.087.6942-.262 1.1026-.175.4083-.403.7991-.683 1.1725-.28.3733-.595.6883-.945.945-.35.2566-.7.3966-1.05.42z" fill="#000"/><path d="m10.6121 33.885c1.05 0 2.2283-.5309 3.535-1.5926 1.3067-1.0616 2.625-2.4383 3.955-4.1299 1.33-1.6917 2.6367-3.57 3.92-5.635s2.415-4.1067 3.395-6.125c.98-2.0184 1.7733-3.885 2.38-5.6.6067-1.71505.91-3.06255.91-4.04255 0-.63-.0817-1.2775-.245-1.9425s-.4083-1.2775-.735-1.8375-.7525-1.02667-1.2775-1.4-1.1492-.583332-1.8725-.629999l.1825.204999c.35.42.61.9.78 1.44.1983.63.2975 1.27167.2975 1.925 0 .32667-.105.88083-.315 1.6625s-.4783 1.6625-.805 2.6425-.7 1.99505-1.12 3.04505-.8458 2.0183-1.2775 2.905c-.4317.8866-.8517 1.6275-1.26 2.2225s-.7525.9275-1.0325.9975c-.1867.4433-.4842.9975-.8925 1.6625s-.875 1.3766-1.4 2.1349c-.525.7584-1.0908 1.5342-1.6975 2.3276-.6067.7933-1.2075 1.5341-1.8025 2.2225-.595.6883-1.1608 1.295-1.6975 1.82s-1.0033.9041-1.4 1.1374c0-1.54.1867-3.0741.56-4.6024.3733-1.5284.7875-3.0451 1.2425-4.5501s.875-2.9983 1.26-4.4799c.385-1.4817.5775-2.9575.5775-4.4275v-.175l.525-.56c-.0233-.3034.0875-.80505.3325-1.50505s.5425-1.42333.8925-2.17.7117-1.44667 1.085-2.1.665-1.09667.875-1.33l.07-.49-.21-.42c-.07.09333-.1458.06417-.2275-.0875s-.1225-.25083-.1225-.2975c-.6067-.16333-1.19-.39083-1.75-.6825s-1.1667-.437499-1.82-.437499c-.8633 0-1.6392.198329-2.3275.594999s-1.3475.8575-1.9775 1.3825c-.63001.525-1.26001 1.04417-1.89001 1.5575s-1.31833.875-2.065 1.085l-.175.525c-.39667.30333-.875.72333-1.435 1.26s-1.1025 1.12-1.6275 1.75-.98583 1.26005-1.3825 1.89005-.641667 1.19-.735 1.68l-.315.35-.105 1.435c0 .21.1225.4375.3675.6825s.53083.4725.8575.6825.65917.385.9975.525.60083.2216.7875.245c.18667-.4667.4025-.9392.6475-1.4175.245-.4784.5425-.8925.8925-1.2425.02333-.21.1925-.5717.5075-1.085.315-.5134.69417-1.0967 1.1375-1.75.44333-.6534.93917-1.32422 1.4875-2.01255s1.0675-1.32417 1.5575-1.9075c.49001-.58333.92751-1.06167 1.31251-1.435s.6592-.56.8225-.56l.14.07c-.84 1.89-1.6158 3.85-2.32751 5.88005-.71167 2.03-1.32417 4.0891-1.8375 6.1775-.51333 2.0883-.91583 4.1941-1.2075 6.3175-.29167 2.1233-.4375 4.235-.4375 6.335 0 .5366.14 1.0441.42 1.5224.28.4784.64167.8925 1.085 1.2425s.93333.6242 1.47.8226c.53667.1983 1.05001.2975 1.54001.2975zm-1.82001-2.73c-.07 0-.12833-.0642-.175-.1925-.04667-.1284-.08167-.2159-.105-.2625.04667-.1167.11667-.175.21-.175.02333 0 .035.0233.035.0699 0 .0934-.01167.1517-.035.1751v.035c.00778 0 .01426-.0013.01944-.0039l.00556-.0052.038.0413c.056.0644.091.1203.105.1679l.007.0448c0 .07-.035.1051-.105.1051zm20.86001-1.19c.3967 0 .735-.0642 1.015-.1926.28-.1283.56-.3208.84-.5774.14 0 .3208-.0875.5425-.2625s.4492-.3734.6825-.595c.2333-.2217.455-.4434.665-.665.21-.2217.3733-.3792.49-.4725.07.28.2742.5775.6125.8925s.7233.6008 1.155.8575c.4317.2566.8692.4666 1.3125.63.4433.1633.805.245 1.085.245.6533 0 1.2483-.1225 1.785-.3675s1.0383-.56 1.505-.945.91-.7992 1.33-1.2425c.42-.4434.8517-.8634 1.295-1.26.1167-.3734.3675-.84.7525-1.4s.7817-1.1259 1.19-1.6975c.4083-.5717.7758-1.1084 1.1025-1.61.3267-.5017.5017-.8809.525-1.1375l-.28-.28-3.045.035c-.07.1866-.2392.49-.5075.91s-.5833.8924-.945 1.4174-.7467 1.0676-1.155 1.6276-.805 1.0733-1.19 1.54c-.385.4666-.735.8516-1.05 1.155-.315.3033-.5425.455-.6825.455h-.035c0-.8167.1225-1.7967.3675-2.9401.245-1.1433.5425-2.3158.8925-3.5175.35-1.2016.7292-2.3624 1.1375-3.4824s.7758-2.065 1.1025-2.835l-.21-.245-.14.035c-.42-.3967-.8983-.7409-1.435-1.0325-.5367-.2917-1.1083-.4375-1.715-.4375-.49 0-.945.3558-1.365 1.0675-.42.7116-.8225 1.5983-1.2075 2.66-.385 1.0616-.77 2.2108-1.155 3.4475-.385 1.2366-.7992 2.3858-1.2425 3.4474-.4433 1.0617-.9392 1.9484-1.4875 2.6601-.5483.7116-1.1608 1.0675-1.8375 1.0675-.2567 0-.42-.1167-.49-.35-.07-.2334-.105-.4434-.105-.63 0-.8634.0992-1.7675.2975-2.7125s.4492-1.8959.7525-2.8525c.3033-.9567.6417-1.89 1.015-2.8s.7233-1.75 1.05-2.52l.35-.385.0005-.113c-.0178-.2616-.1697-.5098-.4555-.7445-.3267-.2684-.7117-.5017-1.155-.7-.4433-.1984-.8925-.3559-1.3475-.4725-.455-.1167-.7992-.175-1.0325-.175s-.49.1866-.77.56c-.28.3733-.5367.7991-.77 1.2775-.2333.4783-.4317.9566-.595 1.435-.1633.4783-.245.8225-.245 1.0325l-.315.49.07.315c-.2333.4666-.455 1.12-.665 1.96s-.4025 1.7266-.5775 2.66c-.175.9333-.315 1.8374-.42 2.7124s-.1575 1.5692-.1575 2.0826c0 .42.1867.8108.56 1.1725.3733.3616.8225.6766 1.3475.945.525.2683 1.0617.4783 1.61.6299.5483.1517.9975.2276 1.3475.2276zm8.68-10.185c-.1167 0-.175-.035-.175-.105 0-.0234.0058-.035.0175-.035s.0175-.0117.0175-.0351c0-.0466.0408-.1108.1225-.1924.0817-.0817.1458-.1225.1925-.1225s.07.0466.07.14v.105c0 .1633-.0817.245-.245.245zm-9.73 6.335c-.0467 0-.105-.0234-.175-.07-.07-.0467-.105-.105-.105-.175 0-.1167.0583-.175.175-.175.0467 0 .0875.0583.1225.175.035.1166.0525.1983.0525.245l-.003-.028-.0048.0124c-.0052.0052-.013.0091-.0233.0117zm-.49.5949c-.1633 0-.245-.0583-.245-.1749 0-.0467.0408-.0817.1225-.105.0817-.0234.1458-.035.1925-.035.07 0 .105.0233.105.07 0 .1633-.0583.2449-.175.2449zm19.985 3.2551c.3967 0 .735-.0642 1.015-.1926.28-.1283.56-.3208.84-.5774.14 0 .3208-.0875.5425-.2625s.4492-.3734.6825-.595c.2333-.2217.455-.4434.665-.665.21-.2217.3733-.3792.49-.4725.07.28.2742.5775.6125.8925s.7233.6008 1.155.8575c.4317.2566.8692.4666 1.3125.63.4433.1633.805.245 1.085.245.6533 0 1.2483-.1225 1.785-.3675s1.0383-.56 1.505-.945.91-.7992 1.33-1.2425c.42-.4434.8517-.8634 1.295-1.26.1167-.3734.3675-.84.7525-1.4s.7817-1.1259 1.19-1.6975c.4083-.5717.7758-1.1084 1.1025-1.61.3267-.5017.5017-.8809.525-1.1375l-.28-.28-3.045.035c-.07.1866-.2392.49-.5075.91s-.5833.8924-.945 1.4174-.7467 1.0676-1.155 1.6276-.805 1.0733-1.19 1.54c-.385.4666-.735.8516-1.05 1.155-.315.3033-.5425.455-.6825.455h-.035c0-.8167.1225-1.7967.3675-2.9401.245-1.1433.5425-2.3158.8925-3.5175.35-1.2016.7292-2.3624 1.1375-3.4824s.7758-2.065 1.1025-2.835l-.21-.245-.14.035c-.42-.3967-.8983-.7409-1.435-1.0325-.5367-.2917-1.1083-.4375-1.715-.4375-.49 0-.945.3558-1.365 1.0675-.42.7116-.8225 1.5983-1.2075 2.66-.385 1.0616-.77 2.2108-1.155 3.4475-.385 1.2366-.7992 2.3858-1.2425 3.4474-.4433 1.0617-.9392 1.9484-1.4875 2.6601-.5483.7116-1.1608 1.0675-1.8375 1.0675-.2567 0-.42-.1167-.49-.35-.07-.2334-.105-.4434-.105-.63 0-.8634.0992-1.7675.2975-2.7125s.4492-1.8959.7525-2.8525c.3033-.9567.6417-1.89 1.015-2.8s.7233-1.75 1.05-2.52l.35-.385.0005-.113c-.0178-.2616-.1697-.5098-.4555-.7445-.3267-.2684-.7117-.5017-1.155-.7-.4433-.1984-.8925-.3559-1.3475-.4725-.455-.1167-.7992-.175-1.0325-.175s-.49.1866-.77.56c-.28.3733-.5367.7991-.77 1.2775-.2333.4783-.4317.9566-.595 1.435-.1633.4783-.245.8225-.245 1.0325l-.315.49.07.315c-.2333.4666-.455 1.12-.665 1.96s-.4025 1.7266-.5775 2.66c-.175.9333-.315 1.8374-.42 2.7124s-.1575 1.5692-.1575 2.0826c0 .42.1867.8108.56 1.1725.3733.3616.8225.6766 1.3475.945.525.2683 1.0617.4783 1.61.6299.5483.1517.9975.2276 1.3475.2276zm8.68-10.185c-.1167 0-.175-.035-.175-.105 0-.0234.0058-.035.0175-.035s.0175-.0117.0175-.0351c0-.0466.0408-.1108.1225-.1924.0817-.0817.1458-.1225.1925-.1225s.07.0466.07.14v.105c0 .1633-.0817.245-.245.245zm-9.73 6.335c-.0467 0-.105-.0234-.175-.07-.07-.0467-.105-.105-.105-.175 0-.1167.0583-.175.175-.175.0467 0 .0875.0583.1225.175.035.1166.0525.1983.0525.245l-.003-.028-.0048.0124c-.0052.0052-.013.0091-.0233.0117zm-.49.5949c-.1633 0-.245-.0583-.245-.1749 0-.0467.0408-.0817.1225-.105.0817-.0234.1458-.035.1925-.035.07 0 .105.0233.105.07 0 .1633-.0583.2449-.175.2449zm30.205 3.3251c.42 0 .9392-.1867 1.5575-.56.6183-.3734 1.26-.8576 1.925-1.4526s1.3242-1.2599 1.9775-1.9949 1.2425-1.47 1.7675-2.205.9567-1.4234 1.295-2.065c.3383-.6417.5075-1.1725.5075-1.5925l-.175-.1051c-.3967 0-.7758-.0233-1.1375-.0699-.3617-.0467-.7408-.07-1.1375-.07-.49 0-.8458.1633-1.0675.49-.2217.3266-.4258.6766-.6125 1.0499l-.28.1051c-.0233.4666-.2392.9158-.6475 1.3475-.4083.4316-.7642.7991-1.0675 1.1024l-.105.455-.385.1401-.21.525-.35.2099v.3151c-.3733.14-.6767.3616-.91.665-.2333.3033-.5017.5716-.805.8049.0467-.3966.1283-.8983.245-1.5049.1167-.6067.2508-1.2192.4025-1.8375.1517-.6184.3267-1.2075.525-1.7675s.4025-.9917.6125-1.295l-.07-.1401c.07-.21.21-.5891.42-1.1374.21-.5484.42-1.12.63-1.715s.3967-1.1434.56-1.645c.1633-.5017.245-.8342.245-.9975 0-.28-.1633-.5659-.49-.8575-.3267-.2917-.7117-.56-1.155-.805s-.8867-.4492-1.33-.6125c-.4433-.1634-.7817-.245-1.015-.245-.7467 0-1.4583.2275-2.135.6825s-1.295.9566-1.855 1.505c-.56.5483-1.0558 1.0616-1.4875 1.54-.4317.4783-.7758.7408-1.0325.7875-.3267.4666-.6358.9508-.9275 1.4525-.2917.5016-.6592.9391-1.1025 1.3125.0467-.3734.1808-.7992.4025-1.2775.2217-.4784.455-.9509.7-1.4175.245-.4667.4667-.91.665-1.33s.2975-.77.2975-1.05c0-.2334-.1517-.4842-.455-.7525-.3033-.2684-.6533-.5134-1.05-.735-.3967-.2217-.7992-.4025-1.2075-.5425s-.7175-.21-.9275-.21c-.28 0-.5658.1808-.8575.5425-.2917.3616-.5833.8283-.875 1.4-.2917.5716-.5658 1.2075-.8225 1.9075s-.4842 1.3766-.6825 2.03c-.1983.6533-.3558 1.2425-.4725 1.7675s-.175.9158-.175 1.1724l.035.3151-.28.455c0 .77-.0992 1.5225-.2975 2.2575l-.0909.3689c-.1377.6174-.2066 1.2469-.2066 1.8885 0 .3734.1458.7584.4375 1.1551.2917.3966.6417.7641 1.05 1.1024.4083.3384.8458.6125 1.3125.8225s.875.3151 1.225.3151c.2567 0 .4608-.0642.6125-.1925.1517-.1284.2275-.3209.2275-.5776 0-.3266.1225-.8166.3675-1.4699.245-.6534.5717-1.3767.98-2.17.4083-.7934.8633-1.6101 1.365-2.4501s1.0033-1.6158 1.505-2.3274c.5017-.7117.98-1.3125 1.435-1.8025s.8458-.7817 1.1725-.875c.0233-.28.1517-.49.385-.63s.4667-.2334.7-.28c-.3033.6766-.6008 1.4116-.8925 2.205-.2917.7933-.5542 1.5983-.7875 2.4149-.2333.8167-.42 1.6334-.56 2.4501-.14.8166-.21 1.5983-.21 2.3449 0 .5367.1633 1.0092.49 1.4176.3267.4083.735.7583 1.225 1.05.49.2916 1.015.5133 1.575.665.56.1516 1.0617.2275 1.505.2275zm-1.715-15.12c-.1167 0-.175-.0467-.175-.14v-.07c0-.1167.0583-.175.175-.175.0467 0 .1167.0175.21.0525s.14.0875.14.1575c0 .0466-.0467.0875-.14.1225s-.1633.0525-.21.0525zm.245 4.9c-.1167 0-.175-.035-.175-.105 0-.0467.0467-.1225.14-.2275s.1633-.1575.21-.1575.07.035.07.105c0 .0933-.0117.1808-.035.2625-.0233.0816-.0933.1225-.21.1225zm-9.695 6.51c-.0933 0-.1692-.0584-.2275-.175-.0583-.1167-.0875-.21-.0875-.28s.0233-.1051.07-.1051c.07 0 .14.0526.21.1576s.105.1924.105.2624v.07c0 .0467-.0233.0701-.07.0701zm9.065.3499c-.0933 0-.14-.0233-.14-.07l.003.011.0057-.0416c.0117-.0408.035-.0758.07-.105l.0613-.0393c.0933-.0467.175-.07.245-.07s.105.035.105.105-.0467.1224-.14.1574-.1633.0525-.21.0525zm15.715-15.7499c.14 0 .245-.0175.315-.0525s.1517-.1109.245-.2275c.2333-.35.4375-.74088.6125-1.17255s.3558-.86917.5425-1.3125.3967-.86333.63-1.26.5133-.735.84-1.015l-.0442-.13903c-.0892-.23009-.2553-.45208-.4983-.66597-.2917-.25667-.6242-.47833-.9975-.665s-.7525-.33833-1.1375-.455-.7175-.175-.9975-.175c-.2333 0-.5192.16333-.8575.49s-.6592.70583-.9625 1.1375-.5658.86333-.7875 1.295-.3325.7525-.3325.9625c0 .14.0292.27417.0875.4025l.0486.13028c.0259.08815.0389.17889.0389.27222 0 .04667-.0117.09333-.035.14s-.035.09333-.035.14c-.0467.18667.07.40833.35.665s.6125.49583.9975.71755c.385.2216.7642.4083 1.1375.56.3733.1516.6533.2275.84.2275zm-5.46 18.7949c.49.1634.805.2217.945.1751l2.415-.805c.1633-.0467.4375-.2801.8225-.7001s.8342-.9333 1.3475-1.5399c.5133-.6067 1.0383-1.2659 1.575-1.9776.5367-.7116 1.0383-1.3941 1.505-2.0474.4667-.6534.8458-1.225 1.1375-1.715s.4492-.8167.4725-.9801l-.28-.2799c-.5133 0-1.0267.0116-1.54.035l-1.54.07c-.7467 1.26-1.5575 2.4674-2.4325 3.6224s-1.8725 2.2226-2.9925 3.2026l-.035-.5601c0-.1633.0583-.5424.175-1.1374s.2625-1.2834.4375-2.065c.175-.7817.3733-1.6042.595-2.4676.2217-.8633.4433-1.6683.665-2.4149.2217-.7467.42-1.365.595-1.855s.3208-.7584.4375-.805l.56-1.12c-.07-.14-.2567-.3267-.56-.56-.3033-.2334-.6358-.4609-.9975-.6825-.3617-.2217-.7175-.4142-1.0675-.5775-.35-.1634-.6067-.245-.77-.245-.0233 0-.0875.0233-.1925.07-.105.0466-.2275.0933-.3675.14-.14.0466-.2742.0933-.4025.14-.1283.0466-.2042.0816-.2275.105-.0233.2333-.0992.455-.2275.665s-.2858.3966-.4725.56c.07.2333.0117.4375-.175.6125s-.3267.3558-.42.5425c-.3033.7233-.6067 1.5691-.91 2.5375-.3033.9683-.5717 1.9716-.805 3.01-.2333 1.0383-.42 2.065-.56 3.08s-.21 1.9075-.21 2.6775c0 .49.2042.9566.6125 1.4.4083.4433.8692.8283 1.3825 1.155.5133.3266 1.015.5716 1.505.7349zm1.015-11.7949c-.0467 0-.1167-.0292-.21-.0875-.0933-.0584-.14-.1109-.14-.1575 0-.0234.0233-.035.07-.035h.14c.0467 0 .0817-.0059.105-.0175.0233-.0117.0583-.0175.105-.0175.07 0 .105.0466.105.14l-.002-.015-.0029.0441c-.0129.0778-.0518.1245-.1166.14zm-2.03 3.78c-.1167 0-.175-.0817-.175-.2451 0-.0466.0117-.0991.035-.1574.0233-.0584.0583-.0875.105-.0875s.0817.035.105.105.035.1283.035.175l-.001-.016-.0034.0553-.0131.0832c-.0117.0583-.0408.0875-.0875.0875zm11.27 8.295c.4433 0 .98-.1809 1.61-.5425.63-.3617 1.2892-.8284 1.9775-1.4.6883-.5717 1.3654-1.2134 2.0304-1.925.665-.7117 1.265-1.4234 1.802-2.1351.537-.7116.974-1.3883 1.313-2.0299.338-.6417.507-1.1725.507-1.5925l-.28-.35c-1.12 0-2.053.2508-2.8.7525-.747.5016-1.4232 1.12-2.0299 1.855s-1.1958 1.5166-1.7675 2.345c-.5717.8283-1.2425 1.5691-2.0125 2.2225l-.07-.91c0-.49.07-.9975.21-1.5225s.2975-1.0442.4725-1.5576c.175-.5133.3325-1.0208.4725-1.5224.14-.5017.21-.9975.21-1.4875 0-.35.0525-.6825.1575-.9975s.2275-.6242.3675-.9275c.14-.3034.2625-.6067.3675-.91.105-.3034.1575-.63.1575-.98l.42-.525c.07-.77.2917-1.5342.665-2.2925.3733-.7584.7117-1.4875 1.015-2.1875.2569-.0467.5249-.0759.8049-.0875.28-.0117.548-.0175.805-.0175.77 0 1.558.0641 2.363.1925.805.1283 1.51.4608 2.117.9975l.055-.1089.033-.0661c.035-.07.052-.1284.052-.175 0-.21-.07-.525-.21-.945s-.321-.8459-.542-1.27755c-.222-.43167-.467-.805-.735-1.12-.269-.315-.52-.4725-.753-.4725-.187 0-.35.0525-.49.1575s-.303.1575-.49.1575c-.21 0-.414-.0175-.612-.0525-.199-.035-.403-.06417-.613-.0875l.455-.525c-.023-.16333-.187-.3675-.49-.6125s-.647-.48417-1.032-.7175-.7587-.4375-1.1204-.6125-.6242-.2625-.7875-.2625c-.4433 0-.7992.09917-1.0675.2975s-.4958.44917-.6825.7525-.3733.63583-.56.9975-.4083.69417-.665.9975-.5833.55417-.98.7525-.91.2975-1.54.2975c-.49 0-.8983-.11667-1.225-.35-.0233.07-.0583.1575-.105.2625s-.07.1925-.07.26255c0 .1866.035.3908.105.6125.07.2216.1633.4316.28.63.1167.1983.2683.3616.455.49.1867.1283.385.1925.595.1925s.4083-.0175.595-.0525.385-.0292.595.0175c-.42 1.0966-.8517 2.2225-1.295 3.3775s-.8458 2.3275-1.2075 3.5175-.6592 2.3916-.8925 3.605c-.2333 1.2133-.35 2.415-.35 3.605 0 .63.1167 1.1958.35 1.6975.2333.5016.5483.9216.945 1.26.3967.3383.8633.5949 1.4.7699s1.1083.2626 1.715.2626zm2.24-17.01c-.0233 0-.035-.035-.035-.105v-.245c0-.07.035-.105.105-.105.14 0 .21.07.21.21 0 .0466-.0175.0758-.0525.0875-.035.0116-.0642.0291-.0875.0525-.0233.0233-.0467.0408-.07.0525l-.035.0218zm9.2749 25.55c.63 0 1.289-.2626 1.978-.7876.688-.525 1.324-1.155 1.907-1.89s1.062-1.5108 1.435-2.3274c.373-.8167.56-1.5167.56-2.1001l-.035-.455.35-.4549.035-.63c.56.0466 1.161-.0992 1.803-.4375.641-.3384 1.283-.7875 1.925-1.3475.641-.56 1.271-1.2076 1.89-1.9426.618-.735 1.184-1.4699 1.697-2.2049s.951-1.4467 1.313-2.1351c.361-.6883.612-1.2775.752-1.7675l-1.4-.0699-1.96.035c-.42.56-.817 1.1316-1.19 1.715-.373.5833-.758 1.1608-1.155 1.7325-.397.5716-.817 1.12-1.26 1.645s-.945 1.0091-1.505 1.4525l-.035-.21c0-.0934.047-.3209.14-.6825.093-.3617.198-.7467.315-1.1551.117-.4083.233-.7933.35-1.1549.117-.3617.198-.5892.245-.6826l-.105-.455c.187-.1866.268-.4083.245-.6649-.023-.2567.058-.4784.245-.665l-.035-.595c.233-.3034.443-.665.63-1.085s.356-.8692.508-1.3475c.151-.4784.303-.945.455-1.4.151-.455.32-.8692.507-1.2425.047-.0467.117-.175.21-.385s.14-.3384.14-.385c0-.21-.152-.4259-.455-.6475-.303-.2217-.659-.4259-1.067-.6125-.409-.1867-.811-.3384-1.208-.455-.397-.1167-.688-.175-.875-.175-.513 0-.962.3325-1.347.9975s-.753 1.505-1.103 2.52-.706 2.1233-1.067 3.325c-.362 1.2016-.788 2.3391-1.278 3.4125-.49 1.0733-1.073 1.995-1.75 2.765s-1.505 1.2366-2.485 1.4l-.035-1.2601c0-.5833.099-1.1899.298-1.8199.198-.63.414-1.26.647-1.89s.449-1.2425.648-1.8375c.198-.595.297-1.1725.297-1.7325l-.07-.385c.093-.0467.216-.2217.368-.525.151-.3034.309-.6417.472-1.015.163-.3734.303-.7292.42-1.0675.117-.3384.175-.5659.175-.6825 0-.3034-.128-.595-.385-.875s-.566-.5134-.927-.7c-.362-.1867-.735-.3384-1.12-.455-.385-.1167-.706-.175-.963-.175-.397 0-.729.1633-.997.49-.269.3266-.502.7116-.7 1.155-.199.4433-.38.8925-.543 1.3475s-.338.8108-.525 1.0675l.07.525c-.257.28-.513.8691-.77 1.7675-.257.8983-.478 1.8783-.665 2.9399-.187 1.0617-.338 2.0825-.455 3.0625s-.175 1.6917-.175 2.135c0 .3967.198.7701.595 1.1201s.863.6475 1.4.8925 1.091.4375 1.663.5775c.571.14 1.02.21 1.347.21.233 0 .461-.0059.683-.0175.221-.0117.437-.0759.647-.1925l.175-.3151c.397-.07.753-.245 1.068-.525s.635-.5249.962-.7349c0 .3033-.163.595-.49.875s-.729.5658-1.207.8575c-.479.2916-.992.595-1.54.91-.549.315-1.062.665-1.54 1.05-.479.385-.875.8108-1.19 1.2775-.315.4666-.473.9916-.473 1.575 0 .8633.088 1.5516.263 2.065.175.5133.443.91.805 1.19.361.28.828.4608 1.4.5424.571.0817 1.254.1226 2.047.1226zm-1.995-23.695c-.047 0-.07-.0117-.07-.035-.023-.0234-.035-.0934-.035-.21 0-.07.035-.105.105-.105l.02.0049c.033.013.097.0522.19.1176.117.0816.175.1341.175.1575 0 .0233-.023.035-.07.035s-.099.0058-.157.0175l-.084.0131zm10.71.525c-.023 0-.041-.0059-.052-.0175-.012-.0117-.041-.0175-.088-.0175h-.07c-.047 0-.082.0058-.105.0175-.023.0116-.047.0175-.07.0175s-.035-.0409-.035-.1225v-.1575c0-.07.035-.105.105-.105.047 0 .128.0408.245.1225.117.0816.175.1458.175.1925 0 .0466-.035.07-.105.07zm-3.29 4.2-.039-.0657-.048-.0568c-.035-.035-.053-.0759-.053-.1225 0-.07.093-.1226.28-.1576s.303-.0524.35-.0524c.163 0 .245.0583.245.175v.07c0-.07-.023-.105-.07-.105-.07 0-.187.0408-.35.1225-.163.0816-.268.1458-.315.1925zm-7.175.175h-.035c-.093 0-.14-.0467-.14-.1401 0-.0466.018-.1166.053-.2099.035-.0934.075-.14.122-.14.093 0 .14.0816.14.245 0 .0466-.012.0991-.035.1575-.023.0583-.058.0875-.105.0875zm8.015 3.8149c-.047 0-.117-.0524-.21-.1574s-.163-.1692-.21-.1926c-.023.0234-.047.0584-.07.1051-.023.0466-.058.07-.105.07s-.07-.035-.07-.105.035-.1051.105-.1051h.105c.047 0 .088-.0175.123-.0525l.037-.0291c.025-.0156.054-.0233.085-.0233.047 0 .093.0641.14.1925.047.1283.07.2158.07.2625zm-8.33 12.4251c-.093-.0934-.14-.2217-.14-.385 0-.1634.035-.35.105-.56s.158-.42.263-.63.227-.4025.367-.5775.268-.3209.385-.4375c.07-.07.187-.175.35-.315s.338-.28.525-.42.362-.2567.525-.3501c.163-.0933.303-.1399.42-.1399.093 0 .14.0583.14.1749 0 .3267-.087.6942-.262 1.1026-.175.4083-.403.7991-.683 1.1725-.28.3733-.595.6883-.945.945-.35.2566-.7.3966-1.05.42z" fill="#fff"/></svg>