<svg fill="none" height="44" viewBox="0 0 208 44" width="208" xmlns="http://www.w3.org/2000/svg" xmlns:xlink="http://www.w3.org/1999/xlink"><clipPath id="a"><path d="m0 0h208v44h-208z"/></clipPath><g clip-path="url(#a)"><path clip-rule="evenodd" d="m103.632 34.9754c-.257.6287-.62 1.1732-1.089 1.6335-.47.4605-1.028.8146-1.674 1.0623-.646.2483-1.3324.3719-2.0583.3719h-3.7006c-.7262 0-1.4078-.1236-2.0452-.3719-.6375-.2477-1.1911-.6018-1.66-1.0623-.4694-.4603-.8367-1.0048-1.1023-1.6335-.2657-.6283-.3985-1.3235-.3985-2.085 0-.7612.1328-1.4563.3985-2.085.2656-.6284.6329-1.1728 1.1023-1.6335.4689-.4603 1.0225-.8142 1.66-1.0624.6374-.2477 1.319-.3719 2.0452-.3719h3.7006c.7259 0 1.4123.1242 2.0583.3719.646.2482 1.204.6021 1.674 1.0624.469.4607.832 1.0051 1.089 1.6335.256.6287.385 1.3238.385 2.085 0 .7615-.129 1.4567-.385 2.085zm2.868-9.0837c-.965-.894-2.098-1.5892-3.4-2.0851-1.301-.4955-2.722-.7437-4.2626-.7437h-3.7539c-1.5405 0-2.9615.2482-4.263.7437-1.3014.4959-2.4348 1.1911-3.3997 2.0851-.9654.8943-1.7132 1.939-2.2445 3.134-.5311 1.1953-.7968 2.4835-.7968 3.8647 0 1.3811.2657 2.6693.7968 3.8646.5313 1.1952 1.2791 2.2401 2.2445 3.1341.9649.8942 2.0983 1.5894 3.3997 2.085 1.3015.4955 2.7225.7437 4.263.7437h3.7539c1.5406 0 2.9616-.2482 4.2626-.7437 1.302-.4956 2.435-1.1908 3.4-2.085.965-.894 1.713-1.9389 2.244-3.1341.532-1.1953.797-2.4835.797-3.8646 0-1.3812-.265-2.6694-.797-3.8647-.531-1.195-1.279-2.2397-2.244-3.134zm28.824-2.4834h-3.991c-.379 0-.687.3075-.687.6869v9.6982c0 1.0625-.159 1.8992-.478 2.51-.319.6109-.735 1.045-1.248 1.3015-.514.2568-1.072.3852-1.674.3852h-6.675c-.62 0-1.182-.1284-1.687-.3852-.505-.2565-.912-.6906-1.222-1.3015-.31-.6108-.465-1.4475-.465-2.51v-9.6982c0-.3794-.307-.6869-.686-.6869h-4.098c-.379 0-.687.3075-.687.6869v9.6716c0 2.0718.372 3.7629 1.116 5.0732.743 1.3106 1.775 2.2754 3.094 2.8951 1.319.62 2.864.9296 4.635.9296h6.675c1.735 0 3.263-.3096 4.582-.9296 1.319-.6197 2.346-1.5845 3.081-2.8951.735-1.3103 1.102-3.0014 1.102-5.0732v-9.6716c0-.3794-.307-.6869-.687-.6869zm49.006-21.78062h-5.111c-.245 0-.471.13018-.594.34165l-8.053 13.85287c-.082.141-.233.2279-.396.2279h-1.023c-.163 0-.313-.0864-.395-.2268l-8.106-13.85559c-.123-.21059-.349-.34003-.593-.34003h-5.38c-.357 0-.577.39005-.392.69533l10.87 17.93799c.125.2055.347.331.588.331h7.469c.24 0 .462-.125.587-.3298l10.92-17.93845c.186-.30515-.034-.69607-.391-.69607zm-26.403 14.47552h-13.225c-.253 0-.458-.205-.458-.4579v-13.33073c0-.37937-.307-.68689-.687-.68689h-4.124c-.379 0-.687.30752-.687.68689v17.59043c0 .3795.308.687.687.687h18.494c.379 0 .687-.3075.687-.687v-3.1148c0-.3794-.308-.687-.687-.687zm-27.192-2.9084c-.257.6287-.62 1.1732-1.089 1.6335-.47.4606-1.028.8146-1.674 1.0624-.646.2482-1.332.3718-2.058.3718h-4.09c-.727 0-1.408-.1236-2.046-.3718-.637-.2478-1.191-.6018-1.66-1.0624-.469-.4603-.836-1.0048-1.102-1.6335-.265-.6283-.398-1.3235-.398-2.085 0-.7611.133-1.45627.398-2.08496.266-.62831.633-1.17286 1.102-1.63351.469-.46016 1.023-.81421 1.66-1.06241.638-.2477 1.319-.37192 2.046-.37192h4.09c.726 0 1.412.12422 2.058.37192.646.2482 1.204.60225 1.674 1.06241.469.46065.832 1.0052 1.089 1.63351.256.62869.385 1.32386.385 2.08496 0 .7615-.129 1.4567-.385 2.085zm2.868-9.08365c-.965-.89401-2.098-1.58909-3.4-2.08498-1.301-.49553-2.722-.74385-4.263-.74385h-4.143c-1.54 0-2.961.24832-4.263.74385-1.301.49589-2.435 1.19097-3.4 2.08498-.965.89426-1.713 1.93892-2.244 3.13412-.531 1.19519-.797 2.48334-.797 3.86453 0 1.3811.266 2.6694.797 3.8646s1.279 2.2402 2.244 3.1341c.965.8944 2.099 1.5895 3.4 2.085 1.302.4955 2.723.7437 4.263.7437h3.949c1.54 0 3.156-.2482 4.457-.7437 1.302-.4955 2.435-1.1906 3.4-2.085.965-.8939 1.713-1.9389 2.245-3.1341.531-1.1952.796-2.4835.796-3.8646 0-1.38119-.265-2.66934-.796-3.86453-.532-1.1952-1.28-2.23986-2.245-3.13412zm-40.991 16.14985c.1244.2055.3473.331.5875.331h7.4695c.24 0 .462-.125.587-.3298l10.92-17.93845c.186-.30515-.034-.69607-.391-.69607h-5.111c-.245 0-.471.13018-.594.34165l-8.0532 13.85287c-.0819.141-.2327.2279-.3959.2279h-1.0232c-.1626 0-.3131-.0864-.3953-.2268l-8.1057-13.85559c-.1232-.21059-.3489-.34003-.593-.34003h-5.38c-.3568 0-.5766.39005-.3917.69533zm-32.5667.331h19.7243c.3794 0 .6869-.3075.6869-.687v-2.7696c0-.3794-.3075-.687-.6869-.687h-14.4552c-.2529 0-.4579-.205-.4579-.4579v-2.6963c0-.2529.205-.458.4579-.458h13.9771c.3793 0 .687-.3076.687-.6869v-2.76953c0-.37937-.3077-.68689-.687-.68689h-13.9771c-.2529 0-.4579-.20501-.4579-.45805v-2.00569c0-.25291.205-.45792.4579-.45792h14.4552c.3794 0 .6869-.30764.6869-.68701v-2.76964c0-.37937-.3075-.68689-.6869-.68689h-19.7243c-.3793 0-.6869.30752-.6869.68689v17.59043c0 .3795.3076.687.6869.687zm132.0477-14.82078h14.455c.38 0 .687-.30764.687-.68701v-2.76964c0-.37937-.307-.68689-.687-.68689h-19.724c-.379 0-.687.30752-.687.68689v17.59043c0 .3795.308.687.687.687h19.724c.38 0 .687-.3075.687-.687v-2.7696c0-.3794-.307-.687-.687-.687h-14.455c-.253 0-.458-.205-.458-.4579v-2.6963c0-.2529.205-.458.458-.458h13.977c.38 0 .687-.3076.687-.6869v-2.76953c0-.37937-.307-.68689-.687-.68689h-13.977c-.253 0-.458-.20501-.458-.45805v-2.00569c0-.25291.205-.45792.458-.45792zm-106.4368 17.63708h-5.5348c-.1823 0-.3571.0724-.4859.2014l-6.9846 6.9907c-.1791.1791-.4694.179-.6483-.0004l-6.9714-6.9899c-.1289-.1292-.3039-.2018-.4864-.2018h-5.7717c-.4093 0-.6131.4959-.3221.7835l10.8231 10.7014c.1305.1291.2039.3051.2039.4885v6.3038c0 .3794.3076.6871.687.6871h4.0976c.3794 0 .6869-.3077.6869-.6871v-6.2776c0-.1833.0733-.359.2034-.488l10.8257-10.7284c.2906-.288.0867-.7832-.3224-.7832zm-40.9921-19.30638c-5.5151-5.48592-14.4627-5.46606-19.9537.04083-.1687.16492-.4381.16492-.6067 0-5.491-5.50677-14.4388-5.52675-19.95376-.04071-2.66825 2.65423-4.14042945 6.15916-4.14528153 9.86906-.00470353 3.567 1.35430153 7.0161 3.84459153 9.8088.10809.1212.10487.3049-.01005.4198l-3.364443 3.3646c-.274755.2746-.274755.72 0 .9948l2.244943 2.2448c.27464.2747.72003.2747.99478 0l10.35792-10.358c.2747-.2747.2747-.7201 0-.9948l-2.245-2.2448c-.2746-.2748-.72-.2748-.9947 0l-3.31273 3.3127c-.12757.1275-.33556.1159-.45209-.0219-1.60882-1.9049-2.48471-4.1868-2.4816-6.52.00322-2.4839.99576-4.83739 2.79482-6.6269 1.85764-1.84783 4.2915-2.77088 6.725-2.77088 2.4504 0 4.9007.93608 6.7612 2.80638l2.8334 2.774c.3925.3842 1.0202.3842 1.4126 0l2.8119-2.75254.0216-.02146c3.7084-3.72781 9.7582-3.74369 13.4862-.0355 1.799 1.78951 2.7916 4.143 2.7948 6.6269.0035 2.6404-1.1164 5.2164-3.1531 7.2532l-16.3611 16.3628c-.1694.1693-.4439.1693-.6132 0l-3.2294-3.2298c-.1192-.1193-.1192-.3126 0-.432l3.3435-3.3433c.2746-.2747.2746-.7201 0-.9948l-2.245-2.2448c-.2747-.2748-.7201-.2748-.9947 0l-10.3581 10.3579c-.2747.2747-.2747.7201 0 .9949l2.245 2.2448c.2746.2747.7201.2746.9948 0l3.3429-3.343c.1193-.1192.3126-.1192.432 0l6.128 6.1288c.3577.3576.9376.3576 1.2951 0l19.2599-19.262c2.9034-2.9037 4.5001-6.6325 4.495-10.4988-.0049-3.7098-1.477-7.21473-4.1453-9.86908zm-27.4392 23.33358c.2385-.2387.2385-.6254 0-.864l-2.3758-2.3757c-.2386-.2386-.6254-.2386-.864 0l-6.52085 6.521c-.23852.2385-.23852.6253 0 .8639l2.37575 2.3757c.2386.2386.6253.2386.864 0z" fill="#fff" fill-rule="evenodd"/></g></svg>