<svg width="276" height="36" viewBox="0 0 276 36" fill="none" xmlns="http://www.w3.org/2000/svg">
<path d="M0.979971 8.465C0.921637 8.185 0.863304 7.7825 0.804971 7.2575C0.758304 6.72083 0.717471 6.16083 0.682471 5.5775C0.659137 4.9825 0.635804 4.45166 0.612471 3.985C0.600804 3.51833 0.594971 3.20916 0.594971 3.0575C1.90164 2.9525 3.3833 2.865 5.03997 2.795C6.69664 2.725 8.37664 2.69 10.08 2.69C11.3866 2.69 12.6583 2.71917 13.895 2.7775C15.1316 2.82416 16.2633 2.92333 17.29 3.075C17.29 4.17166 17.2491 5.1925 17.1675 6.1375C17.0858 7.07083 16.9866 7.765 16.87 8.22C16.66 8.22 16.3625 8.22 15.9775 8.22C15.5925 8.20833 15.1666 8.2025 14.7 8.2025C14.2333 8.19083 13.7725 8.185 13.3175 8.185C12.8741 8.17333 12.4891 8.16166 12.1625 8.15C12.1858 8.58166 12.215 9.21167 12.25 10.04C12.285 10.8567 12.3258 11.7958 12.3725 12.8575C12.4308 13.9075 12.4891 15.01 12.5475 16.165C12.6058 17.3083 12.6583 18.4342 12.705 19.5425C12.7633 20.6508 12.8158 21.66 12.8625 22.57C12.9091 23.48 12.95 24.2267 12.985 24.81C13.02 25.3817 13.0375 25.7142 13.0375 25.8075C12.5008 25.8892 11.8125 25.965 10.9725 26.035C10.1325 26.105 9.2983 26.1575 8.46997 26.1925C7.64164 26.2275 6.96497 26.245 6.43997 26.245C6.40497 25.5683 6.36997 24.7633 6.33497 23.83C6.29997 22.885 6.2708 21.87 6.24747 20.785C6.22414 19.7 6.2008 18.5917 6.17747 17.46C6.15414 16.3283 6.13664 15.22 6.12497 14.135C6.1133 13.0383 6.10747 12.0233 6.10747 11.09C6.10747 10.5417 6.10747 10.0342 6.10747 9.5675C6.11914 9.08916 6.1308 8.6575 6.14247 8.2725C5.75747 8.3075 5.34914 8.33667 4.91747 8.36C4.49747 8.37166 4.0658 8.38916 3.62247 8.4125C3.17914 8.42416 2.7358 8.43583 2.29247 8.4475C1.84914 8.4475 1.41164 8.45333 0.979971 8.465Z" fill="#101434"/>
<path d="M26.4111 26.14C26.1077 26.1867 25.6877 26.2275 25.1511 26.2625C24.6261 26.2975 24.0719 26.315 23.4886 26.315C22.8119 26.315 22.1819 26.2858 21.5986 26.2275C21.0152 26.1808 20.5836 26.1108 20.3036 26.0175C20.3969 25.3408 20.4786 24.4658 20.5486 23.3925C20.6302 22.3192 20.6944 21.1058 20.7411 19.7525C20.7877 18.3875 20.8111 16.9583 20.8111 15.465C20.8111 13.8667 20.7819 12.2392 20.7236 10.5825C20.6769 8.91417 20.6127 7.30416 20.5311 5.7525C20.4494 4.18917 20.3677 2.76583 20.2861 1.4825C20.3794 1.4475 20.6652 1.395 21.1436 1.325C21.6336 1.24333 22.1994 1.16166 22.8411 1.08C23.4827 0.986665 24.0952 0.910832 24.6786 0.852498C25.2619 0.782498 25.6994 0.747498 25.9911 0.747498C26.1661 1.6225 26.3236 2.64916 26.4636 3.8275C26.6152 5.00583 26.7436 6.30083 26.8486 7.7125C26.9536 9.1125 27.0294 10.6 27.0761 12.175C27.4727 11.755 27.9627 11.3875 28.5461 11.0725C29.1411 10.7458 29.7827 10.4892 30.4711 10.3025C31.1594 10.1158 31.8361 10.0225 32.5011 10.0225C33.9594 10.0225 35.0736 10.2908 35.8436 10.8275C36.6136 11.3642 37.1386 12.1458 37.4186 13.1725C37.7102 14.1992 37.8561 15.4592 37.8561 16.9525C37.8561 17.9092 37.8211 18.93 37.7511 20.015C37.6811 21.0883 37.5819 22.1442 37.4536 23.1825C37.3369 24.2092 37.2086 25.125 37.0686 25.93C36.6136 26 36.1411 26.0525 35.6511 26.0875C35.1727 26.1342 34.6944 26.1575 34.2161 26.1575C33.7027 26.1575 33.1894 26.1342 32.6761 26.0875C32.1627 26.0408 31.6902 25.9708 31.2586 25.8775C31.3402 25.3642 31.4277 24.7517 31.5211 24.04C31.6144 23.3283 31.7019 22.5992 31.7836 21.8525C31.8769 21.0942 31.9469 20.3825 31.9936 19.7175C32.0519 19.0408 32.0811 18.4867 32.0811 18.055C32.0811 17.46 32.0169 16.9583 31.8886 16.55C31.7602 16.1417 31.5619 15.8325 31.2936 15.6225C31.0369 15.4125 30.6986 15.3075 30.2786 15.3075C29.9286 15.3075 29.5902 15.3717 29.2636 15.5C28.9486 15.6167 28.6511 15.7683 28.3711 15.955C28.0911 16.1417 27.8344 16.3458 27.6011 16.5675C27.3794 16.7775 27.1927 16.9817 27.0411 17.18C27.0411 18.3583 27.0061 19.525 26.9361 20.68C26.8777 21.8233 26.8019 22.8733 26.7086 23.83C26.6152 24.7867 26.5161 25.5567 26.4111 26.14Z" fill="#101434"/>
<path d="M58.6562 23.1125C58.3179 23.5325 57.8921 23.935 57.3787 24.32C56.8771 24.6933 56.2821 25.02 55.5937 25.3C54.9171 25.5683 54.1412 25.7842 53.2662 25.9475C52.4029 26.1108 51.4346 26.1925 50.3612 26.1925C48.5996 26.1925 47.0246 25.86 45.6362 25.195C44.2596 24.53 43.1804 23.5442 42.3987 22.2375C41.6287 20.9308 41.2437 19.2975 41.2437 17.3375C41.2437 15.3308 41.6404 13.5808 42.4337 12.0875C43.2271 10.5942 44.3471 9.43917 45.7937 8.6225C47.2404 7.79417 48.9321 7.38 50.8687 7.38C53.3187 7.38 55.2554 8.045 56.6787 9.375C58.1021 10.6933 58.8312 12.5425 58.8662 14.9225C58.8662 15.3775 58.8487 15.78 58.8137 16.13C58.7904 16.48 58.7379 16.8592 58.6562 17.2675C58.4812 17.2558 58.0904 17.2442 57.4837 17.2325C56.8887 17.2208 56.2179 17.2092 55.4712 17.1975C54.7246 17.1858 54.0304 17.1742 53.3887 17.1625C52.7471 17.1508 52.2979 17.145 52.0412 17.145C51.0962 17.145 50.1921 17.1858 49.3287 17.2675C48.4654 17.3492 47.7654 17.4367 47.2287 17.53C47.2287 17.705 47.2404 17.88 47.2637 18.055C47.2871 18.23 47.3279 18.3933 47.3862 18.545C47.5262 18.9533 47.7596 19.2975 48.0862 19.5775C48.4129 19.8575 48.8096 20.0733 49.2762 20.225C49.7429 20.365 50.2387 20.435 50.7637 20.435C51.1954 20.435 51.5979 20.3942 51.9712 20.3125C52.3562 20.2192 52.7237 20.085 53.0737 19.91C53.4237 19.735 53.7562 19.5308 54.0712 19.2975C54.3862 19.0642 54.7012 18.8017 55.0162 18.51C55.0862 18.5683 55.2787 18.755 55.5937 19.07C55.9087 19.385 56.2646 19.7758 56.6612 20.2425C57.0696 20.7092 57.4546 21.1992 57.8162 21.7125C58.1896 22.2142 58.4696 22.6808 58.6562 23.1125ZM47.4737 13.96C47.9054 13.8783 48.4421 13.8083 49.0837 13.75C49.7371 13.6917 50.4954 13.6625 51.3587 13.6625C51.8371 13.6625 52.2746 13.6742 52.6712 13.6975C53.0679 13.7092 53.3479 13.7208 53.5112 13.7325C53.5112 13.5342 53.4762 13.3125 53.4062 13.0675C53.3129 12.7175 53.1379 12.3967 52.8812 12.105C52.6362 11.8133 52.3271 11.58 51.9537 11.405C51.5804 11.2183 51.1429 11.125 50.6412 11.125C49.9762 11.125 49.4104 11.2708 48.9437 11.5625C48.4887 11.8542 48.1387 12.2217 47.8937 12.665C47.6487 13.0967 47.5087 13.5283 47.4737 13.96Z" fill="#101434"/>
<path d="M74.4353 25.93C74.3886 25.4283 74.3303 24.67 74.2603 23.655C74.1903 22.64 74.1203 21.4675 74.0503 20.1375C73.992 18.7958 73.9395 17.39 73.8928 15.92C73.8461 14.4383 73.8053 12.9742 73.7703 11.5275C73.747 10.0808 73.7353 8.73916 73.7353 7.5025C73.7353 6.68583 73.7411 5.93916 73.7528 5.2625C73.7761 4.58583 73.8053 4.02 73.8403 3.565C73.9453 3.55333 74.2486 3.53583 74.7503 3.5125C75.2519 3.4775 75.8353 3.44833 76.5003 3.425C77.1653 3.40166 77.8128 3.37833 78.4428 3.355C79.0845 3.33167 79.6036 3.32 80.0003 3.32C79.9886 3.92666 79.9828 4.62083 79.9828 5.4025C79.9828 6.1725 79.9828 6.89 79.9828 7.555C79.9828 8.37167 79.9945 9.24083 80.0178 10.1625C80.0528 11.0725 80.082 11.7317 80.1053 12.14C80.362 12.1167 80.6245 12.0933 80.8928 12.07C81.1728 12.0467 81.447 12.0292 81.7153 12.0175C81.9953 12.0058 82.2694 11.9942 82.5378 11.9825C82.8061 11.9708 83.057 11.9592 83.2903 11.9475C83.5353 11.9358 83.757 11.93 83.9553 11.93C83.9669 11.615 83.9786 11.1017 83.9903 10.39C84.0136 9.66667 84.037 8.86166 84.0603 7.975C84.0836 7.08833 84.1069 6.21333 84.1303 5.35C84.1536 4.48666 84.177 3.76333 84.2003 3.18C84.5153 3.15666 84.8886 3.145 85.3203 3.145C85.7519 3.13333 86.1778 3.1275 86.5978 3.1275C87.4145 3.1275 88.1844 3.13916 88.9078 3.1625C89.6428 3.18583 90.1969 3.22083 90.5703 3.2675C90.5236 3.53583 90.477 3.9675 90.4303 4.5625C90.3836 5.1575 90.3311 5.86917 90.2728 6.6975C90.2261 7.52583 90.1795 8.43583 90.1328 9.4275C90.0861 10.4075 90.0395 11.4283 89.9928 12.49C89.9461 13.5517 89.9053 14.6192 89.8703 15.6925C89.812 17.0575 89.7653 18.3933 89.7303 19.7C89.6953 21.0067 89.6661 22.1908 89.6428 23.2525C89.6195 24.3142 89.6078 25.1658 89.6078 25.8075C89.3278 25.8308 88.8786 25.86 88.2603 25.895C87.642 25.9183 86.9536 25.9358 86.1953 25.9475C85.437 25.9592 84.6786 25.965 83.9203 25.965C83.9203 25.1483 83.9203 24.3667 83.9203 23.62C83.9203 22.8617 83.9203 22.1383 83.9203 21.45C83.9203 20.75 83.9203 20.0675 83.9203 19.4025C83.9203 18.7258 83.9203 18.0492 83.9203 17.3725C83.6869 17.3842 83.442 17.39 83.1853 17.39C82.9403 17.39 82.6953 17.3958 82.4503 17.4075C82.2053 17.4192 81.9603 17.425 81.7153 17.425C81.4703 17.425 81.2311 17.425 80.9978 17.425C80.7645 17.425 80.5486 17.425 80.3503 17.425C80.3736 17.985 80.3969 18.6733 80.4203 19.49C80.4553 20.295 80.4845 21.1233 80.5078 21.975C80.5428 22.8267 80.572 23.585 80.5953 24.25C80.6303 24.915 80.6478 25.3817 80.6478 25.65C80.3328 25.6967 79.8953 25.7375 79.3353 25.7725C78.7869 25.7958 78.192 25.825 77.5503 25.86C76.9203 25.8833 76.3253 25.9008 75.7653 25.9125C75.2053 25.9242 74.7619 25.93 74.4353 25.93Z" fill="#101434"/>
<path d="M101.593 26.28C100.147 26.28 98.8284 26.0875 97.6384 25.7025C96.4484 25.3058 95.4976 24.67 94.7859 23.795C94.0859 22.9083 93.7359 21.73 93.7359 20.26C93.7359 18.7783 94.1501 17.5942 94.9784 16.7075C95.8184 15.8208 96.9151 15.185 98.2684 14.8C99.6217 14.4033 101.063 14.205 102.591 14.205C103.128 14.205 103.647 14.2458 104.148 14.3275C104.662 14.4092 105.111 14.5142 105.496 14.6425C105.893 14.7708 106.184 14.8992 106.371 15.0275C106.359 14.7592 106.295 14.4617 106.178 14.135C106.073 13.8083 105.916 13.54 105.706 13.33C105.379 12.9683 104.959 12.6592 104.446 12.4025C103.933 12.1342 103.233 12 102.346 12C101.471 12 100.683 12.2042 99.9834 12.6125C99.2834 13.0092 98.7526 13.4583 98.3909 13.96L93.6309 10.8975C94.1676 10.1625 94.8909 9.52083 95.8009 8.9725C96.7109 8.42416 97.7376 7.99833 98.8809 7.695C100.024 7.38 101.226 7.2225 102.486 7.2225C104.586 7.2225 106.272 7.54916 107.543 8.2025C108.827 8.84416 109.783 9.7775 110.413 11.0025C110.705 11.5625 110.944 12.1867 111.131 12.875C111.318 13.5633 111.452 14.3333 111.533 15.185C111.58 15.8383 111.615 16.4858 111.638 17.1275C111.673 17.7575 111.697 18.3875 111.708 19.0175C111.72 19.9392 111.813 20.5458 111.988 20.8375C112.175 21.1175 112.426 21.2575 112.741 21.2575C113.033 21.2575 113.295 21.1992 113.528 21.0825C113.762 20.9658 113.919 20.8083 114.001 20.61L115.856 24.635C115.704 25.0317 115.337 25.3875 114.753 25.7025C114.17 26.0175 113.412 26.175 112.478 26.175C111.79 26.175 111.131 26.0642 110.501 25.8425C109.883 25.6208 109.363 25.3175 108.943 24.9325C108.523 24.5358 108.284 24.075 108.226 23.55C108.051 24.005 107.678 24.4425 107.106 24.8625C106.534 25.2825 105.788 25.6267 104.866 25.895C103.944 26.1517 102.853 26.28 101.593 26.28ZM102.923 21.7125C103.413 21.7125 103.921 21.6425 104.446 21.5025C104.971 21.3508 105.449 21.1642 105.881 20.9425C106.313 20.7208 106.628 20.5167 106.826 20.33C106.791 20.0733 106.762 19.7875 106.738 19.4725C106.727 19.1458 106.721 18.8833 106.721 18.685C106.488 18.5917 106.05 18.4983 105.408 18.405C104.778 18.3 104.137 18.2475 103.483 18.2475C102.9 18.2475 102.334 18.3058 101.786 18.4225C101.238 18.5275 100.788 18.7025 100.438 18.9475C100.088 19.1925 99.9134 19.525 99.9134 19.945C99.9134 20.3767 100.03 20.7208 100.263 20.9775C100.508 21.2342 100.858 21.4208 101.313 21.5375C101.768 21.6542 102.305 21.7125 102.923 21.7125Z" fill="#101434"/>
<path d="M117.24 33.91C117.368 31.95 117.479 29.8967 117.572 27.75C117.665 25.615 117.741 23.5033 117.8 21.415C117.87 19.3267 117.922 17.3783 117.957 15.57C118.004 13.7617 118.033 12.1983 118.045 10.88C118.068 9.55 118.08 8.5875 118.08 7.9925C118.896 7.72416 119.83 7.5375 120.88 7.4325C121.93 7.31583 122.945 7.2575 123.925 7.2575C123.971 7.66583 124.006 8.12083 124.03 8.6225C124.065 9.1125 124.082 9.5675 124.082 9.9875C124.292 9.69583 124.66 9.34 125.185 8.92C125.71 8.48833 126.386 8.10917 127.215 7.7825C128.043 7.44417 128.994 7.275 130.067 7.275C132.459 7.275 134.209 8.03333 135.317 9.55C136.437 11.055 136.997 13.155 136.997 15.85C136.997 17.74 136.63 19.3675 135.895 20.7325C135.16 22.0975 134.162 23.1475 132.902 23.8825C131.654 24.6058 130.254 24.9675 128.702 24.9675C128.025 24.9675 127.337 24.88 126.637 24.705C125.949 24.53 125.336 24.3142 124.8 24.0575C124.263 23.8008 123.895 23.5442 123.697 23.2875C123.697 23.5792 123.685 24.0517 123.662 24.705C123.639 25.3467 123.61 26.0758 123.575 26.8925C123.551 27.7092 123.516 28.5317 123.47 29.36C123.435 30.2 123.394 30.9758 123.347 31.6875C123.312 32.3992 123.271 32.965 123.225 33.385C122.525 33.5133 121.79 33.6125 121.02 33.6825C120.261 33.7642 119.544 33.8225 118.867 33.8575C118.19 33.8925 117.648 33.91 117.24 33.91ZM127.74 18.86C128.44 18.86 129.035 18.7258 129.525 18.4575C130.026 18.1892 130.411 17.7983 130.68 17.285C130.948 16.76 131.082 16.1358 131.082 15.4125C131.082 14.4208 130.849 13.6567 130.382 13.12C129.927 12.5833 129.163 12.315 128.09 12.315C127.425 12.315 126.83 12.4142 126.305 12.6125C125.78 12.7992 125.336 13.0267 124.975 13.295C124.625 13.5633 124.345 13.8317 124.135 14.1C124.135 14.2633 124.129 14.4908 124.117 14.7825C124.105 15.0742 124.094 15.3892 124.082 15.7275C124.082 16.0542 124.076 16.3692 124.065 16.6725C124.053 16.9642 124.041 17.1858 124.03 17.3375C124.228 17.5475 124.479 17.7692 124.782 18.0025C125.097 18.2358 125.494 18.44 125.972 18.615C126.45 18.7783 127.04 18.86 127.74 18.86Z" fill="#101434"/>
<path d="M139.67 33.91C139.799 31.95 139.909 29.8967 140.003 27.75C140.096 25.615 140.172 23.5033 140.23 21.415C140.3 19.3267 140.353 17.3783 140.388 15.57C140.434 13.7617 140.464 12.1983 140.475 10.88C140.499 9.55 140.51 8.5875 140.51 7.9925C141.327 7.72416 142.26 7.5375 143.31 7.4325C144.36 7.31583 145.375 7.2575 146.355 7.2575C146.402 7.66583 146.437 8.12083 146.46 8.6225C146.495 9.1125 146.513 9.5675 146.513 9.9875C146.723 9.69583 147.09 9.34 147.615 8.92C148.14 8.48833 148.817 8.10917 149.645 7.7825C150.474 7.44417 151.424 7.275 152.498 7.275C154.889 7.275 156.639 8.03333 157.748 9.55C158.868 11.055 159.428 13.155 159.428 15.85C159.428 17.74 159.06 19.3675 158.325 20.7325C157.59 22.0975 156.593 23.1475 155.333 23.8825C154.084 24.6058 152.684 24.9675 151.133 24.9675C150.456 24.9675 149.768 24.88 149.068 24.705C148.379 24.53 147.767 24.3142 147.23 24.0575C146.694 23.8008 146.326 23.5442 146.128 23.2875C146.128 23.5792 146.116 24.0517 146.093 24.705C146.069 25.3467 146.04 26.0758 146.005 26.8925C145.982 27.7092 145.947 28.5317 145.9 29.36C145.865 30.2 145.824 30.9758 145.778 31.6875C145.743 32.3992 145.702 32.965 145.655 33.385C144.955 33.5133 144.22 33.6125 143.45 33.6825C142.692 33.7642 141.974 33.8225 141.298 33.8575C140.621 33.8925 140.079 33.91 139.67 33.91ZM150.17 18.86C150.87 18.86 151.465 18.7258 151.955 18.4575C152.457 18.1892 152.842 17.7983 153.11 17.285C153.379 16.76 153.513 16.1358 153.513 15.4125C153.513 14.4208 153.279 13.6567 152.813 13.12C152.358 12.5833 151.594 12.315 150.52 12.315C149.855 12.315 149.26 12.4142 148.735 12.6125C148.21 12.7992 147.767 13.0267 147.405 13.295C147.055 13.5633 146.775 13.8317 146.565 14.1C146.565 14.2633 146.559 14.4908 146.548 14.7825C146.536 15.0742 146.524 15.3892 146.513 15.7275C146.513 16.0542 146.507 16.3692 146.495 16.6725C146.484 16.9642 146.472 17.1858 146.46 17.3375C146.659 17.5475 146.909 17.7692 147.213 18.0025C147.528 18.2358 147.924 18.44 148.403 18.615C148.881 18.7783 149.47 18.86 150.17 18.86Z" fill="#101434"/>
<path d="M169.188 35.205C167.368 35.205 165.723 34.9308 164.253 34.3825C162.795 33.8458 161.576 33.2567 160.596 32.615C160.759 32.1833 161.004 31.6292 161.331 30.9525C161.658 30.2875 161.996 29.6342 162.346 28.9925C162.708 28.3625 162.993 27.8958 163.203 27.5925C163.647 27.8725 164.201 28.1758 164.866 28.5025C165.531 28.8408 166.254 29.1267 167.036 29.36C167.829 29.605 168.617 29.7275 169.398 29.7275C170.168 29.7275 170.816 29.5233 171.341 29.115C171.878 28.7067 172.309 28.1642 172.636 27.4875C172.974 26.8225 173.219 26.0933 173.371 25.3C173.534 24.495 173.628 23.7075 173.651 22.9375C173.371 23.3692 172.998 23.7717 172.531 24.145C172.076 24.5067 171.563 24.7983 170.991 25.02C170.419 25.2417 169.818 25.3525 169.188 25.3525C167.345 25.3525 165.91 24.8625 164.883 23.8825C163.868 22.9025 163.157 21.5842 162.748 19.9275C162.34 18.2708 162.136 16.4158 162.136 14.3625C162.136 13.5692 162.153 12.735 162.188 11.86C162.223 10.985 162.264 10.0692 162.311 9.1125C162.533 9.06583 162.859 9.03083 163.291 9.0075C163.734 8.98417 164.213 8.9725 164.726 8.9725C165.449 8.9725 166.161 8.99583 166.861 9.0425C167.561 9.0775 168.039 9.12417 168.296 9.1825C168.249 9.38083 168.191 9.74833 168.121 10.285C168.051 10.81 167.987 11.4342 167.928 12.1575C167.882 12.8692 167.858 13.5983 167.858 14.345C167.858 15.01 167.888 15.6633 167.946 16.305C168.004 16.9467 168.115 17.5242 168.278 18.0375C168.442 18.5508 168.669 18.965 168.961 19.28C169.253 19.5833 169.626 19.735 170.081 19.735C170.863 19.735 171.481 19.4317 171.936 18.825C172.403 18.2183 172.735 17.3783 172.933 16.305C173.143 15.2317 173.26 14.0008 173.283 12.6125C173.295 12.2158 173.301 11.8367 173.301 11.475C173.301 11.1133 173.295 10.7867 173.283 10.495C173.283 10.1917 173.278 9.935 173.266 9.725C173.254 9.515 173.243 9.3575 173.231 9.2525C173.534 9.22917 173.832 9.21166 174.123 9.2C174.427 9.17666 174.724 9.165 175.016 9.165C176.218 9.165 177.413 9.29916 178.603 9.5675C178.673 10.9908 178.708 12.6067 178.708 14.415C178.708 15.465 178.697 16.5792 178.673 17.7575C178.65 18.9242 178.615 20.12 178.568 21.345C178.533 22.57 178.481 23.795 178.411 25.02C178.306 27.0267 177.903 28.7942 177.203 30.3225C176.503 31.8508 175.488 33.0467 174.158 33.91C172.84 34.7733 171.183 35.205 169.188 35.205Z" fill="#101434"/>
<path d="M194.505 25.5625C194.505 25.1075 194.51 24.3842 194.522 23.3925C194.545 22.3892 194.575 21.2225 194.61 19.8925C194.645 18.5625 194.68 17.1683 194.715 15.71C194.75 14.24 194.779 12.805 194.802 11.405C194.837 9.99333 194.872 8.70416 194.907 7.5375C194.942 6.37083 194.965 5.42583 194.977 4.7025C195 3.97917 195.012 3.5825 195.012 3.5125C195.712 3.46583 196.529 3.41333 197.462 3.355C198.407 3.29667 199.393 3.25 200.42 3.215C201.446 3.16833 202.426 3.145 203.36 3.145C204.76 3.145 205.996 3.32 207.07 3.67C208.143 4.02 208.983 4.59166 209.59 5.385C210.208 6.16666 210.517 7.19916 210.517 8.4825C210.517 9.4275 210.295 10.2383 209.852 10.915C209.409 11.5917 208.872 12.1283 208.242 12.525C207.612 12.91 207.023 13.155 206.475 13.26C206.533 13.26 206.597 13.26 206.667 13.26C206.737 13.26 206.819 13.2658 206.912 13.2775C207.962 13.3475 208.878 13.6042 209.66 14.0475C210.441 14.4908 211.048 15.08 211.48 15.815C211.911 16.55 212.127 17.3958 212.127 18.3525C212.127 19.9392 211.824 21.2283 211.217 22.22C210.61 23.2117 209.747 23.9817 208.627 24.53C207.507 25.0667 206.165 25.44 204.602 25.65C203.05 25.86 201.312 25.965 199.387 25.965C198.454 25.965 197.555 25.9358 196.692 25.8775C195.829 25.8075 195.1 25.7025 194.505 25.5625ZM200.962 20.12C201.079 20.12 201.213 20.12 201.365 20.12C201.516 20.12 201.686 20.12 201.872 20.12C202.385 20.12 202.899 20.085 203.412 20.015C203.925 19.945 204.398 19.8283 204.83 19.665C205.273 19.5017 205.629 19.2917 205.897 19.035C206.165 18.7667 206.3 18.4283 206.3 18.02C206.3 17.7633 206.247 17.5242 206.142 17.3025C206.049 17.0808 205.88 16.8883 205.635 16.725C205.401 16.5617 205.075 16.4392 204.655 16.3575C204.246 16.2758 203.721 16.235 203.08 16.235C202.881 16.235 202.66 16.2408 202.415 16.2525C202.17 16.2525 201.913 16.2642 201.645 16.2875C201.376 16.2992 201.108 16.3225 200.84 16.3575L200.962 20.12ZM200.77 11.3875C201.166 11.3875 201.499 11.3817 201.767 11.37C202.035 11.3467 202.275 11.3117 202.485 11.265C203.173 11.2183 203.809 11.0375 204.392 10.7225C204.975 10.4075 205.267 9.94666 205.267 9.34C205.267 8.79166 205.063 8.37166 204.655 8.08C204.246 7.77666 203.739 7.625 203.132 7.625C202.77 7.625 202.356 7.64833 201.89 7.695C201.435 7.74166 201.026 7.78833 200.665 7.835L200.77 11.3875Z" fill="#101434"/>
<path d="M223.292 26.28C221.845 26.28 220.527 26.0875 219.337 25.7025C218.147 25.3058 217.196 24.67 216.484 23.795C215.784 22.9083 215.434 21.73 215.434 20.26C215.434 18.7783 215.848 17.5942 216.677 16.7075C217.517 15.8208 218.613 15.185 219.967 14.8C221.32 14.4033 222.761 14.205 224.289 14.205C224.826 14.205 225.345 14.2458 225.847 14.3275C226.36 14.4092 226.809 14.5142 227.194 14.6425C227.591 14.7708 227.882 14.8992 228.069 15.0275C228.057 14.7592 227.993 14.4617 227.877 14.135C227.772 13.8083 227.614 13.54 227.404 13.33C227.077 12.9683 226.657 12.6592 226.144 12.4025C225.631 12.1342 224.931 12 224.044 12C223.169 12 222.382 12.2042 221.682 12.6125C220.982 13.0092 220.451 13.4583 220.089 13.96L215.329 10.8975C215.866 10.1625 216.589 9.52083 217.499 8.9725C218.409 8.42416 219.436 7.99833 220.579 7.695C221.722 7.38 222.924 7.2225 224.184 7.2225C226.284 7.2225 227.97 7.54916 229.242 8.2025C230.525 8.84416 231.482 9.7775 232.112 11.0025C232.403 11.5625 232.642 12.1867 232.829 12.875C233.016 13.5633 233.15 14.3333 233.232 15.185C233.278 15.8383 233.313 16.4858 233.337 17.1275C233.372 17.7575 233.395 18.3875 233.407 19.0175C233.418 19.9392 233.512 20.5458 233.687 20.8375C233.873 21.1175 234.124 21.2575 234.439 21.2575C234.731 21.2575 234.993 21.1992 235.227 21.0825C235.46 20.9658 235.617 20.8083 235.699 20.61L237.554 24.635C237.402 25.0317 237.035 25.3875 236.452 25.7025C235.868 26.0175 235.11 26.175 234.177 26.175C233.488 26.175 232.829 26.0642 232.199 25.8425C231.581 25.6208 231.062 25.3175 230.642 24.9325C230.222 24.5358 229.982 24.075 229.924 23.55C229.749 24.005 229.376 24.4425 228.804 24.8625C228.232 25.2825 227.486 25.6267 226.564 25.895C225.642 26.1517 224.552 26.28 223.292 26.28ZM224.622 21.7125C225.112 21.7125 225.619 21.6425 226.144 21.5025C226.669 21.3508 227.147 21.1642 227.579 20.9425C228.011 20.7208 228.326 20.5167 228.524 20.33C228.489 20.0733 228.46 19.7875 228.437 19.4725C228.425 19.1458 228.419 18.8833 228.419 18.685C228.186 18.5917 227.748 18.4983 227.107 18.405C226.477 18.3 225.835 18.2475 225.182 18.2475C224.598 18.2475 224.032 18.3058 223.484 18.4225C222.936 18.5275 222.487 18.7025 222.137 18.9475C221.787 19.1925 221.612 19.525 221.612 19.945C221.612 20.3767 221.728 20.7208 221.962 20.9775C222.207 21.2342 222.557 21.4208 223.012 21.5375C223.467 21.6542 224.003 21.7125 224.622 21.7125Z" fill="#101434"/>
<path d="M246.725 27.365C245.255 27.365 243.943 27.1958 242.788 26.8575C241.633 26.5192 240.676 26.14 239.918 25.72C239.159 25.2883 238.64 24.9267 238.36 24.635C238.43 24.4017 238.576 24.0458 238.798 23.5675C239.019 23.0892 239.282 22.57 239.585 22.01C239.889 21.4383 240.192 20.9075 240.495 20.4175C240.81 19.9275 241.084 19.5658 241.318 19.3325C241.901 19.7992 242.514 20.2542 243.155 20.6975C243.797 21.1292 244.439 21.485 245.08 21.765C245.722 22.045 246.311 22.185 246.848 22.185C247.221 22.185 247.548 22.1442 247.828 22.0625C248.119 21.9808 248.347 21.8525 248.51 21.6775C248.674 21.4908 248.755 21.2517 248.755 20.96C248.755 20.6333 248.557 20.295 248.16 19.945C247.775 19.5833 247.285 19.2392 246.69 18.9125C246.107 18.5742 245.512 18.2767 244.905 18.02C244.007 17.6233 243.161 17.1625 242.368 16.6375C241.574 16.1125 240.933 15.4592 240.443 14.6775C239.953 13.8842 239.708 12.91 239.708 11.755C239.708 10.5767 240.058 9.585 240.758 8.78C241.469 7.96333 242.391 7.35083 243.523 6.9425C244.666 6.5225 245.874 6.3125 247.145 6.3125C248.3 6.3125 249.514 6.47583 250.785 6.8025C252.057 7.12917 253.113 7.625 253.953 8.29C253.883 8.52333 253.719 8.89083 253.463 9.3925C253.218 9.89417 252.909 10.4367 252.535 11.02C252.174 11.5917 251.783 12.1283 251.363 12.63C250.919 12.1983 250.348 11.79 249.648 11.405C248.948 11.02 248.23 10.8275 247.495 10.8275C247.169 10.8275 246.842 10.8625 246.515 10.9325C246.2 10.9908 245.932 11.1075 245.71 11.2825C245.5 11.4458 245.395 11.6733 245.395 11.965C245.395 12.245 245.518 12.5075 245.763 12.7525C246.008 12.9858 246.364 13.2192 246.83 13.4525C247.309 13.6858 247.892 13.9483 248.58 14.24C249.187 14.4967 249.834 14.8117 250.523 15.185C251.223 15.5583 251.876 16.0133 252.483 16.55C253.101 17.075 253.603 17.6875 253.988 18.3875C254.384 19.0875 254.583 19.8925 254.583 20.8025C254.583 22.2842 254.215 23.515 253.48 24.495C252.757 25.4633 251.8 26.1808 250.61 26.6475C249.432 27.1258 248.137 27.365 246.725 27.365Z" fill="#101434"/>
<path d="M274.803 23.1125C274.464 23.5325 274.039 23.935 273.525 24.32C273.024 24.6933 272.429 25.02 271.74 25.3C271.064 25.5683 270.288 25.7842 269.413 25.9475C268.549 26.1108 267.581 26.1925 266.508 26.1925C264.746 26.1925 263.171 25.86 261.783 25.195C260.406 24.53 259.327 23.5442 258.545 22.2375C257.775 20.9308 257.39 19.2975 257.39 17.3375C257.39 15.3308 257.787 13.5808 258.58 12.0875C259.374 10.5942 260.494 9.43917 261.94 8.6225C263.387 7.79417 265.079 7.38 267.015 7.38C269.465 7.38 271.402 8.045 272.825 9.375C274.249 10.6933 274.978 12.5425 275.013 14.9225C275.013 15.3775 274.995 15.78 274.96 16.13C274.937 16.48 274.884 16.8592 274.803 17.2675C274.628 17.2558 274.237 17.2442 273.63 17.2325C273.035 17.2208 272.364 17.2092 271.618 17.1975C270.871 17.1858 270.177 17.1742 269.535 17.1625C268.894 17.1508 268.444 17.145 268.188 17.145C267.243 17.145 266.339 17.1858 265.475 17.2675C264.612 17.3492 263.912 17.4367 263.375 17.53C263.375 17.705 263.387 17.88 263.41 18.055C263.434 18.23 263.474 18.3933 263.533 18.545C263.673 18.9533 263.906 19.2975 264.233 19.5775C264.559 19.8575 264.956 20.0733 265.423 20.225C265.889 20.365 266.385 20.435 266.91 20.435C267.342 20.435 267.744 20.3942 268.118 20.3125C268.503 20.2192 268.87 20.085 269.22 19.91C269.57 19.735 269.903 19.5308 270.218 19.2975C270.533 19.0642 270.848 18.8017 271.163 18.51C271.233 18.5683 271.425 18.755 271.74 19.07C272.055 19.385 272.411 19.7758 272.808 20.2425C273.216 20.7092 273.601 21.1992 273.963 21.7125C274.336 22.2142 274.616 22.6808 274.803 23.1125ZM263.62 13.96C264.052 13.8783 264.589 13.8083 265.23 13.75C265.884 13.6917 266.642 13.6625 267.505 13.6625C267.984 13.6625 268.421 13.6742 268.818 13.6975C269.214 13.7092 269.494 13.7208 269.658 13.7325C269.658 13.5342 269.623 13.3125 269.553 13.0675C269.459 12.7175 269.284 12.3967 269.028 12.105C268.783 11.8133 268.474 11.58 268.1 11.405C267.727 11.2183 267.289 11.125 266.788 11.125C266.123 11.125 265.557 11.2708 265.09 11.5625C264.635 11.8542 264.285 12.2217 264.04 12.665C263.795 13.0967 263.655 13.5283 263.62 13.96Z" fill="#101434"/>
</svg>
