<svg fill="none" height="36" viewBox="0 0 276 36" width="276" xmlns="http://www.w3.org/2000/svg"><g fill="#fff"><path d="m.979971 8.465c-.058334-.28-.116667-.6825-.175-1.2075-.046667-.53667-.0875-1.09667-.1225-1.68-.023334-.595-.046667-1.12584-.07-1.5925-.011667-.46667-.0175-.77584-.0175-.9275 1.306669-.105 2.788329-.1925 4.444999-.2625s3.33667-.105 5.04003-.105c1.3066 0 2.5783.02917 3.815.0875 1.2366.04666 2.3683.14583 3.395.2975 0 1.09666-.0409 2.1175-.1225 3.0625-.0817.93333-.1809 1.6275-.2975 2.0825-.21 0-.5075 0-.8925 0-.385-.01167-.8109-.0175-1.2775-.0175-.4667-.01167-.9275-.0175-1.3825-.0175-.4434-.01167-.8284-.02334-1.155-.035.0233.43166.0525 1.06166.0875 1.89.035.8167.0758 1.7558.1225 2.8175.0583 1.05.1166 2.1525.175 3.3075.0583 1.1433.1108 2.2692.1575 3.3775.0583 1.1083.1108 2.1175.1575 3.0275.0466.91.0875 1.6567.1225 2.24.035.5717.0525.9042.0525.9975-.5367.0817-1.225.1575-2.065.2275s-1.6742.1225-2.50253.1575-1.505.0525-2.03.0525c-.035-.6767-.07-1.4817-.105-2.415-.035-.945-.06417-1.96-.0875-3.045s-.04667-2.1933-.07-3.325-.04083-2.24-.0525-3.325c-.01167-1.0967-.0175-2.1117-.0175-3.045 0-.5483 0-1.0558 0-1.5225.01167-.47834.02333-.91.035-1.295-.385.035-.79333.06417-1.225.0875-.42.01166-.85167.02916-1.295.0525-.44333.01166-.88667.02333-1.33.035-.44333 0-.88083.00583-1.312499.0175z"/><path d="m26.4111 26.14c-.3034.0467-.7234.0875-1.26.1225-.525.035-1.0792.0525-1.6625.0525-.6767 0-1.3067-.0292-1.89-.0875-.5834-.0467-1.015-.1167-1.295-.21.0933-.6767.175-1.5517.245-2.625.0816-1.0733.1458-2.2867.1925-3.64.0466-1.365.07-2.7942.07-4.2875 0-1.5983-.0292-3.2258-.0875-4.8825-.0467-1.66833-.1109-3.27834-.1925-4.83-.0817-1.56334-.1634-2.98667-.245-4.27.0933-.035.3791-.0875.8575-.1575.49-.08167 1.0558-.16334 1.6975-.245.6416-.093335 1.2541-.169168 1.8375-.227502.5833-.07 1.0208-.105 1.3125-.105.175.875002.3325 1.901662.4725 3.080002.1516 1.17833.28 2.47333.385 3.885.105 1.4.1808 2.8875.2275 4.4625.3966-.42.8866-.7875 1.47-1.1025.595-.3267 1.2366-.5833 1.925-.77.6883-.1867 1.365-.28 2.03-.28 1.4583 0 2.5725.2683 3.3425.805s1.295 1.3183 1.575 2.345c.2916 1.0267.4375 2.2867.4375 3.78 0 .9567-.035 1.9775-.105 3.0625-.07 1.0733-.1692 2.1292-.2975 3.1675-.1167 1.0267-.245 1.9425-.385 2.7475-.455.07-.9275.1225-1.4175.1575-.4784.0467-.9567.07-1.435.07-.5134 0-1.0267-.0233-1.54-.07-.5134-.0467-.9859-.1167-1.4175-.21.0816-.5133.1691-1.1258.2625-1.8375.0933-.7117.1808-1.4408.2625-2.1875.0933-.7583.1633-1.47.21-2.135.0583-.6767.0875-1.2308.0875-1.6625 0-.595-.0642-1.0967-.1925-1.505-.1284-.4083-.3267-.7175-.595-.9275-.2567-.21-.595-.315-1.015-.315-.35 0-.6884.0642-1.015.1925-.315.1167-.6125.2683-.8925.455s-.5367.3908-.77.6125c-.2217.21-.4084.4142-.56.6125 0 1.1783-.035 2.345-.105 3.5-.0584 1.1433-.1342 2.1933-.2275 3.15-.0934.9567-.1925 1.7267-.2975 2.31z"/><path d="m58.6562 23.1125c-.3383.42-.7641.8225-1.2775 1.2075-.5016.3733-1.0966.7-1.785.98-.6766.2683-1.4525.4842-2.3275.6475-.8633.1633-1.8316.245-2.905.245-1.7616 0-3.3366-.3325-4.725-.9975-1.3766-.665-2.4558-1.6508-3.2375-2.9575-.77-1.3067-1.155-2.94-1.155-4.9 0-2.0067.3967-3.7567 1.19-5.25.7934-1.4933 1.9134-2.64833 3.36-3.465 1.4467-.82833 3.1384-1.2425 5.075-1.2425 2.45 0 4.3867.665 5.81 1.995 1.4234 1.3183 2.1525 3.1675 2.1875 5.5475 0 .455-.0175.8575-.0525 1.2075-.0233.35-.0758.7292-.1575 1.1375-.175-.0117-.5658-.0233-1.1725-.035-.595-.0117-1.2658-.0233-2.0125-.035-.7466-.0117-1.4408-.0233-2.0825-.035-.6416-.0117-1.0908-.0175-1.3475-.0175-.945 0-1.8491.0408-2.7125.1225-.8633.0817-1.5633.1692-2.1.2625 0 .175.0117.35.035.525.0234.175.0642.3383.1225.49.14.4083.3734.7525.7 1.0325.3267.28.7234.4958 1.19.6475.4667.14.9625.21 1.4875.21.4317 0 .8342-.0408 1.2075-.1225.385-.0933.7525-.2275 1.1025-.4025s.6825-.3792.9975-.6125.63-.4958.945-.7875c.07.0583.2625.245.5775.56s.6709.7058 1.0675 1.1725c.4084.4667.7934.9567 1.155 1.47.3734.5017.6534.9683.84 1.4zm-11.1825-9.1525c.4317-.0817.9684-.1517 1.61-.21.6534-.0583 1.4117-.0875 2.275-.0875.4784 0 .9159.0117 1.3125.035.3967.0117.6767.0233.84.035 0-.1983-.035-.42-.105-.665-.0933-.35-.2683-.6708-.525-.9625-.245-.2917-.5541-.525-.9275-.7-.3733-.1867-.8108-.28-1.3125-.28-.665 0-1.2308.1458-1.6975.4375-.455.2917-.805.6592-1.05 1.1025-.245.4317-.385.8633-.42 1.295z"/><path d="m74.4353 25.93c-.0467-.5017-.105-1.26-.175-2.275s-.14-2.1875-.21-3.5175c-.0583-1.3417-.1108-2.7475-.1575-4.2175-.0467-1.4817-.0875-2.9458-.1225-4.3925-.0233-1.4467-.035-2.78834-.035-4.025 0-.81667.0058-1.56334.0175-2.24.0233-.67667.0525-1.2425.0875-1.6975.105-.01167.4083-.02917.91-.0525.5016-.035 1.085-.06417 1.75-.0875.665-.02334 1.3125-.04667 1.9425-.07.6417-.02333 1.1608-.035 1.5575-.035-.0117.60666-.0175 1.30083-.0175 2.0825v2.1525c0 .81667.0117 1.68583.035 2.6075.035.91.0642 1.5692.0875 1.9775.2567-.0233.5192-.0467.7875-.07.28-.0233.5542-.0408.8225-.0525.28-.0117.5541-.0233.8225-.035.2683-.0117.5192-.0233.7525-.035.245-.0117.4667-.0175.665-.0175.0117-.315.0233-.8283.035-1.54.0233-.72334.0467-1.52834.07-2.415.0233-.88667.0466-1.76167.07-2.625.0233-.86334.0467-1.58667.07-2.17.315-.02334.6883-.035 1.12-.035.4316-.01167.8575-.0175 1.2775-.0175.8167 0 1.5866.01166 2.31.035.735.02333 1.2891.05833 1.6625.105-.0467.26833-.0934.7-.14 1.295-.0467.595-.0992 1.30667-.1575 2.135-.0467.82833-.0934 1.73833-.14 2.73-.0467.98-.0934 2.0008-.14 3.0625-.0467 1.0617-.0875 2.1292-.1225 3.2025-.0583 1.365-.105 2.7008-.14 4.0075s-.0642 2.4908-.0875 3.5525-.035 1.9133-.035 2.555c-.28.0233-.7292.0525-1.3475.0875-.6183.0233-1.3067.0408-2.065.0525-.7584.0117-1.5167.0175-2.275.0175 0-.8167 0-1.5983 0-2.345 0-.7583 0-1.4817 0-2.17 0-.7 0-1.3825 0-2.0475 0-.6767 0-1.3533 0-2.03-.2334.0117-.4783.0175-.735.0175-.245 0-.49.0058-.735.0175s-.49.0175-.735.0175-.4842 0-.7175 0c-.2334 0-.4492 0-.6475 0 .0233.56.0466 1.2483.07 2.065.035.805.0641 1.6333.0875 2.485.035.8517.0642 1.61.0875 2.275.035.665.0525 1.1317.0525 1.4-.315.0467-.7525.0875-1.3125.1225-.5484.0233-1.1433.0525-1.785.0875-.63.0233-1.225.0408-1.785.0525s-1.0034.0175-1.33.0175z"/><path d="m101.593 26.28c-1.446 0-2.7646-.1925-3.9546-.5775-1.19-.3967-2.1408-1.0325-2.8525-1.9075-.7-.8867-1.05-2.065-1.05-3.535 0-1.4817.4142-2.6658 1.2425-3.5525.84-.8867 1.9367-1.5225 3.29-1.9075 1.3533-.3967 2.7946-.595 4.3226-.595.537 0 1.056.0408 1.557.1225.514.0817.963.1867 1.348.315.397.1283.688.2567.875.385-.012-.2683-.076-.5658-.193-.8925-.105-.3267-.262-.595-.472-.805-.327-.3617-.747-.6708-1.26-.9275-.513-.2683-1.213-.4025-2.1-.4025-.875 0-1.663.2042-2.3626.6125-.7.3967-1.2308.8458-1.5925 1.3475l-4.76-3.0625c.5367-.735 1.26-1.37667 2.17-1.925.91-.54834 1.9367-.97417 3.08-1.2775 1.1431-.315 2.3451-.4725 3.6051-.4725 2.1 0 3.786.32666 5.057.98 1.284.64166 2.24 1.575 2.87 2.8.292.56.531 1.1842.718 1.8725s.321 1.4583.402 2.31c.047.6533.082 1.3008.105 1.9425.035.63.059 1.26.07 1.89.012.9217.105 1.5283.28 1.82.187.28.438.42.753.42.292 0 .554-.0583.787-.175.234-.1167.391-.2742.473-.4725l1.855 4.025c-.152.3967-.519.7525-1.103 1.0675-.583.315-1.341.4725-2.275.4725-.688 0-1.347-.1108-1.977-.3325-.618-.2217-1.138-.525-1.558-.91-.42-.3967-.659-.8575-.717-1.3825-.175.455-.548.8925-1.12 1.3125s-1.318.7642-2.24 1.0325c-.922.2567-2.013.385-3.273.385zm1.33-4.5675c.49 0 .998-.07 1.523-.21.525-.1517 1.003-.3383 1.435-.56s.747-.4258.945-.6125c-.035-.2567-.064-.5425-.088-.8575-.011-.3267-.017-.5892-.017-.7875-.233-.0933-.671-.1867-1.313-.28-.63-.105-1.271-.1575-1.925-.1575-.583 0-1.149.0583-1.697.175-.548.105-.998.28-1.348.525s-.5246.5775-.5246.9975c0 .4317.1166.7758.3496 1.0325.245.2567.595.4433 1.05.56s.992.175 1.61.175z"/><path d="m117.24 33.91c.128-1.96.239-4.0133.332-6.16.093-2.135.169-4.2467.228-6.335.07-2.0883.122-4.0367.157-5.845.047-1.8083.076-3.3717.088-4.69.023-1.33.035-2.2925.035-2.8875.816-.26833 1.75-.455 2.8-.56 1.05-.11667 2.065-.175 3.045-.175.046.40833.081.86333.105 1.365.035.49.052.945.052 1.365.21-.29167.578-.6475 1.103-1.0675.525-.43167 1.201-.81083 2.03-1.1375.828-.33834 1.779-.5075 2.852-.5075 2.392 0 4.142.75833 5.25 2.275 1.12 1.505 1.68 3.605 1.68 6.3 0 1.89-.367 3.5175-1.102 4.8825s-1.733 2.415-2.993 3.15c-1.248.7233-2.648 1.085-4.2 1.085-.677 0-1.365-.0875-2.065-.2625-.688-.175-1.301-.3908-1.837-.6475-.537-.2567-.905-.5133-1.103-.77 0 .2917-.012.7642-.035 1.4175-.023.6417-.052 1.3708-.087 2.1875-.024.8167-.059 1.6392-.105 2.4675-.035.84-.076 1.6158-.123 2.3275-.035.7117-.076 1.2775-.122 1.6975-.7.1283-1.435.2275-2.205.2975-.759.0817-1.476.14-2.153.175s-1.219.0525-1.627.0525zm10.5-15.05c.7 0 1.295-.1342 1.785-.4025.501-.2683.886-.6592 1.155-1.1725.268-.525.402-1.1492.402-1.8725 0-.9917-.233-1.7558-.7-2.2925-.455-.5367-1.219-.805-2.292-.805-.665 0-1.26.0992-1.785.2975-.525.1867-.969.4142-1.33.6825-.35.2683-.63.5367-.84.805 0 .1633-.006.3908-.018.6825s-.023.6067-.035.945c0 .3267-.006.6417-.017.945-.012.2917-.024.5133-.035.665.198.21.449.4317.752.665.315.2333.712.4375 1.19.6125.478.1633 1.068.245 1.768.245z"/><path d="m139.67 33.91c.129-1.96.239-4.0133.333-6.16.093-2.135.169-4.2467.227-6.335.07-2.0883.123-4.0367.158-5.845.046-1.8083.076-3.3717.087-4.69.024-1.33.035-2.2925.035-2.8875.817-.26833 1.75-.455 2.8-.56 1.05-.11667 2.065-.175 3.045-.175.047.40833.082.86333.105 1.365.035.49.053.945.053 1.365.21-.29167.577-.6475 1.102-1.0675.525-.43167 1.202-.81083 2.03-1.1375.829-.33834 1.779-.5075 2.853-.5075 2.391 0 4.141.75833 5.25 2.275 1.12 1.505 1.68 3.605 1.68 6.3 0 1.89-.368 3.5175-1.103 4.8825s-1.732 2.415-2.992 3.15c-1.249.7233-2.649 1.085-4.2 1.085-.677 0-1.365-.0875-2.065-.2625-.689-.175-1.301-.3908-1.838-.6475-.536-.2567-.904-.5133-1.102-.77 0 .2917-.012.7642-.035 1.4175-.024.6417-.053 1.3708-.088 2.1875-.023.8167-.058 1.6392-.105 2.4675-.035.84-.076 1.6158-.122 2.3275-.035.7117-.076 1.2775-.123 1.6975-.7.1283-1.435.2275-2.205.2975-.758.0817-1.476.14-2.152.175-.677.035-1.219.0525-1.628.0525zm10.5-15.05c.7 0 1.295-.1342 1.785-.4025.502-.2683.887-.6592 1.155-1.1725.269-.525.403-1.1492.403-1.8725 0-.9917-.234-1.7558-.7-2.2925-.455-.5367-1.219-.805-2.293-.805-.665 0-1.26.0992-1.785.2975-.525.1867-.968.4142-1.33.6825-.35.2683-.63.5367-.84.805 0 .1633-.006.3908-.017.6825-.012.2917-.024.6067-.035.945 0 .3267-.006.6417-.018.945-.011.2917-.023.5133-.035.665.199.21.449.4317.753.665.315.2333.711.4375 1.19.6125.478.1633 1.067.245 1.767.245z"/><path d="m169.188 35.205c-1.82 0-3.465-.2742-4.935-.8225-1.458-.5367-2.677-1.1258-3.657-1.7675.163-.4317.408-.9858.735-1.6625.327-.665.665-1.3183 1.015-1.96.362-.63.647-1.0967.857-1.4.444.28.998.5833 1.663.91.665.3383 1.388.6242 2.17.8575.793.245 1.581.3675 2.362.3675.77 0 1.418-.2042 1.943-.6125.537-.4083.968-.9508 1.295-1.6275.338-.665.583-1.3942.735-2.1875.163-.805.257-1.5925.28-2.3625-.28.4317-.653.8342-1.12 1.2075-.455.3617-.968.6533-1.54.875s-1.173.3325-1.803.3325c-1.843 0-3.278-.49-4.305-1.47-1.015-.98-1.726-2.2983-2.135-3.955-.408-1.6567-.612-3.5117-.612-5.565 0-.7933.017-1.6275.052-2.5025s.076-1.7908.123-2.7475c.222-.04667.548-.08167.98-.105.443-.02334.922-.035 1.435-.035.723 0 1.435.02333 2.135.07.7.035 1.178.08167 1.435.14-.047.19833-.105.56583-.175 1.1025-.07.525-.134 1.1492-.193 1.8725-.046.7117-.07 1.4408-.07 2.1875 0 .665.03 1.3183.088 1.96s.169 1.2192.332 1.7325c.164.5133.391.9275.683 1.2425.292.3033.665.455 1.12.455.782 0 1.4-.3033 1.855-.91.467-.6067.799-1.4467.997-2.52.21-1.0733.327-2.3042.35-3.6925.012-.3967.018-.7758.018-1.1375s-.006-.6883-.018-.98c0-.3033-.005-.56-.017-.77s-.023-.3675-.035-.4725c.303-.02334.601-.04084.892-.0525.304-.02334.601-.035.893-.035 1.202 0 2.397.13416 3.587.4025.07 1.4233.105 3.0392.105 4.8475 0 1.05-.011 2.1642-.035 3.3425-.023 1.1667-.058 2.3625-.105 3.5875-.035 1.225-.087 2.45-.157 3.675-.105 2.0067-.508 3.7742-1.208 5.3025s-1.715 2.7242-3.045 3.5875c-1.318.8633-2.975 1.295-4.97 1.295z"/><path d="m194.505 25.5625c0-.455.005-1.1783.017-2.17.023-1.0033.053-2.17.088-3.5s.07-2.7242.105-4.1825c.035-1.47.064-2.905.087-4.305.035-1.41167.07-2.70084.105-3.8675.035-1.16667.058-2.11167.07-2.835.023-.72333.035-1.12.035-1.19.7-.04667 1.517-.09917 2.45-.1575.945-.05833 1.931-.105 2.958-.14 1.026-.04667 2.006-.07 2.94-.07 1.4 0 2.636.175 3.71.525 1.073.35 1.913.92166 2.52 1.715.618.78166.927 1.81416.927 3.0975 0 .945-.222 1.7558-.665 2.4325s-.98 1.2133-1.61 1.61c-.63.385-1.219.63-1.767.735h.192c.07 0 .152.0058.245.0175 1.05.07 1.966.3267 2.748.77.781.4433 1.388 1.0325 1.82 1.7675.431.735.647 1.5808.647 2.5375 0 1.5867-.303 2.8758-.91 3.8675s-1.47 1.7617-2.59 2.31c-1.12.5367-2.462.91-4.025 1.12-1.552.21-3.29.315-5.215.315-.933 0-1.832-.0292-2.695-.0875-.863-.07-1.592-.175-2.187-.315zm6.457-5.4425h.403.507c.513 0 1.027-.035 1.54-.105s.986-.1867 1.418-.35c.443-.1633.799-.3733 1.067-.63.268-.2683.403-.6067.403-1.015 0-.2567-.053-.4958-.158-.7175-.093-.2217-.262-.4142-.507-.5775-.234-.1633-.56-.2858-.98-.3675-.409-.0817-.934-.1225-1.575-.1225-.199 0-.42.0058-.665.0175-.245 0-.502.0117-.77.035-.269.0117-.537.035-.805.07zm-.192-8.7325c.396 0 .729-.0058.997-.0175.268-.0233.508-.0583.718-.105.688-.0467 1.324-.2275 1.907-.5425s.875-.77584.875-1.3825c0-.54834-.204-.96834-.612-1.26-.409-.30334-.916-.455-1.523-.455-.362 0-.776.02333-1.242.07-.455.04666-.864.09333-1.225.14z"/><path d="m223.292 26.28c-1.447 0-2.765-.1925-3.955-.5775-1.19-.3967-2.141-1.0325-2.853-1.9075-.7-.8867-1.05-2.065-1.05-3.535 0-1.4817.414-2.6658 1.243-3.5525.84-.8867 1.936-1.5225 3.29-1.9075 1.353-.3967 2.794-.595 4.322-.595.537 0 1.056.0408 1.558.1225.513.0817.962.1867 1.347.315.397.1283.688.2567.875.385-.012-.2683-.076-.5658-.192-.8925-.105-.3267-.263-.595-.473-.805-.327-.3617-.747-.6708-1.26-.9275-.513-.2683-1.213-.4025-2.1-.4025-.875 0-1.662.2042-2.362.6125-.7.3967-1.231.8458-1.593 1.3475l-4.76-3.0625c.537-.735 1.26-1.37667 2.17-1.925.91-.54834 1.937-.97417 3.08-1.2775 1.143-.315 2.345-.4725 3.605-.4725 2.1 0 3.786.32666 5.058.98 1.283.64166 2.24 1.575 2.87 2.8.291.56.53 1.1842.717 1.8725s.321 1.4583.403 2.31c.046.6533.081 1.3008.105 1.9425.035.63.058 1.26.07 1.89.011.9217.105 1.5283.28 1.82.186.28.437.42.752.42.292 0 .554-.0583.788-.175.233-.1167.39-.2742.472-.4725l1.855 4.025c-.152.3967-.519.7525-1.102 1.0675-.584.315-1.342.4725-2.275.4725-.689 0-1.348-.1108-1.978-.3325-.618-.2217-1.137-.525-1.557-.91-.42-.3967-.66-.8575-.718-1.3825-.175.455-.548.8925-1.12 1.3125s-1.318.7642-2.24 1.0325c-.922.2567-2.012.385-3.272.385zm1.33-4.5675c.49 0 .997-.07 1.522-.21.525-.1517 1.003-.3383 1.435-.56s.747-.4258.945-.6125c-.035-.2567-.064-.5425-.087-.8575-.012-.3267-.018-.5892-.018-.7875-.233-.0933-.671-.1867-1.312-.28-.63-.105-1.272-.1575-1.925-.1575-.584 0-1.15.0583-1.698.175-.548.105-.997.28-1.347.525s-.525.5775-.525.9975c0 .4317.116.7758.35 1.0325.245.2567.595.4433 1.05.56s.991.175 1.61.175z"/><path d="m246.725 27.365c-1.47 0-2.782-.1692-3.937-.5075s-2.112-.7175-2.87-1.1375c-.759-.4317-1.278-.7933-1.558-1.085.07-.2333.216-.5892.438-1.0675.221-.4783.484-.9975.787-1.5575.304-.5717.607-1.1025.91-1.5925.315-.49.589-.8517.823-1.085.583.4667 1.196.9217 1.837 1.365.642.4317 1.284.7875 1.925 1.0675.642.28 1.231.42 1.768.42.373 0 .7-.0408.98-.1225.291-.0817.519-.21.682-.385.164-.1867.245-.4258.245-.7175 0-.3267-.198-.665-.595-1.015-.385-.3617-.875-.7058-1.47-1.0325-.583-.3383-1.178-.6358-1.785-.8925-.898-.3967-1.744-.8575-2.537-1.3825-.794-.525-1.435-1.1783-1.925-1.96-.49-.7933-.735-1.7675-.735-2.9225 0-1.1783.35-2.17 1.05-2.975.711-.81667 1.633-1.42917 2.765-1.8375 1.143-.42 2.351-.63 3.622-.63 1.155 0 2.369.16333 3.64.49 1.272.32667 2.328.8225 3.168 1.4875-.07.23333-.234.60083-.49 1.1025-.245.50167-.554 1.0442-.928 1.6275-.361.5717-.752 1.1083-1.172 1.61-.444-.4317-1.015-.84-1.715-1.225s-1.418-.5775-2.153-.5775c-.326 0-.653.035-.98.105-.315.0583-.583.175-.805.35-.21.1633-.315.3908-.315.6825 0 .28.123.5425.368.7875.245.2333.601.4667 1.067.7.479.2333 1.062.4958 1.75.7875.607.2567 1.254.5717 1.943.945.7.3733 1.353.8283 1.96 1.365.618.525 1.12 1.1375 1.505 1.8375.396.7.595 1.505.595 2.415 0 1.4817-.368 2.7125-1.103 3.6925-.723.9683-1.68 1.6858-2.87 2.1525-1.178.4783-2.473.7175-3.885.7175z"/><path d="m274.803 23.1125c-.339.42-.764.8225-1.278 1.2075-.501.3733-1.096.7-1.785.98-.676.2683-1.452.4842-2.327.6475-.864.1633-1.832.245-2.905.245-1.762 0-3.337-.3325-4.725-.9975-1.377-.665-2.456-1.6508-3.238-2.9575-.77-1.3067-1.155-2.94-1.155-4.9 0-2.0067.397-3.7567 1.19-5.25.794-1.4933 1.914-2.64833 3.36-3.465 1.447-.82833 3.139-1.2425 5.075-1.2425 2.45 0 4.387.665 5.81 1.995 1.424 1.3183 2.153 3.1675 2.188 5.5475 0 .455-.018.8575-.053 1.2075-.023.35-.076.7292-.157 1.1375-.175-.0117-.566-.0233-1.173-.035-.595-.0117-1.266-.0233-2.012-.035-.747-.0117-1.441-.0233-2.083-.035-.641-.0117-1.091-.0175-1.347-.0175-.945 0-1.849.0408-2.713.1225-.863.0817-1.563.1692-2.1.2625 0 .175.012.35.035.525.024.175.064.3383.123.49.14.4083.373.7525.7 1.0325.326.28.723.4958 1.19.6475.466.14.962.21 1.487.21.432 0 .834-.0408 1.208-.1225.385-.0933.752-.2275 1.102-.4025s.683-.3792.998-.6125.63-.4958.945-.7875c.07.0583.262.245.577.56s.671.7058 1.068 1.1725c.408.4667.793.9567 1.155 1.47.373.5017.653.9683.84 1.4zm-11.183-9.1525c.432-.0817.969-.1517 1.61-.21.654-.0583 1.412-.0875 2.275-.0875.479 0 .916.0117 1.313.035.396.0117.676.0233.84.035 0-.1983-.035-.42-.105-.665-.094-.35-.269-.6708-.525-.9625-.245-.2917-.554-.525-.928-.7-.373-.1867-.811-.28-1.312-.28-.665 0-1.231.1458-1.698.4375-.455.2917-.805.6592-1.05 1.1025-.245.4317-.385.8633-.42 1.295z"/></g></svg>