<?xml version="1.0" encoding="UTF-8"?>
<svg width="118px" height="101px" viewBox="0 0 118 101" version="1.1" xmlns="http://www.w3.org/2000/svg" xmlns:xlink="http://www.w3.org/1999/xlink">
    <title>glenfiddich</title>
    <g id="Client-logos-white" stroke="none" stroke-width="1" fill="none" fill-rule="evenodd">
        <g id="Artboard-Copy-10" transform="translate(-90.000000, -23.000000)" fill="#FFFFFF" fill-rule="nonzero">
            <g id="glenfiddich" transform="translate(90.000000, 23.000000)">
                <path d="M0.2,85.2 C0.48,83.84 0.6,82.42 1.06,81.12 C1.64,79.48 2.32,77.8 3.28,76.38 C5.02,73.84 8.24,72.98 11.4,73.92 C13.22,74.46 13.22,74.46 14.16,73.96 L14.16,77.74 L14.16,81.74 C13.78,80.62 13.52,79.74 13.16,78.9 C12.86,78.2 12.5,77.5 12.06,76.9 C10.6,74.92 8.28,74.9 6.74,76.84 C5.58,78.3 5.1,80.04 4.86,81.82 C4.32,85.86 4.28,89.92 5.2,93.92 C5.46,95 5.96,96.06 6.54,97 C7.14,97.96 8.12,98.42 9.3,98.1 C10.46,97.78 11.02,96.9 11.04,95.8 C11.08,93.78 11.06,91.74 10.9,89.72 C10.84,89.08 10.28,88.48 9.98,87.92 L15.06,87.92 C14.9,88.88 14.6,89.84 14.58,90.82 C14.52,93.72 14.56,96.62 14.56,99.7 C13.74,98.58 12.9,98.94 12,99.34 C11.22,99.7 10.38,99.92 9.56,100.22 C8.9,100.22 8.22,100.22 7.56,100.22 C7.02,100.06 6.48,99.9 5.96,99.72 C3.02,98.72 1.72,96.38 0.98,93.6 C0.64,92.3 0.44,90.94 0.18,89.62 C0.2,88.14 0.2,86.66 0.2,85.2 Z" id="Path"></path>
                <path d="M65.2,100.2 C62.14,99.08 61.46,96.48 61.2,93.66 C60.96,91.26 61,88.84 61.82,86.56 C62.22,85.46 62.82,84.36 63.6,83.5 C64.96,82.02 66.8,82.04 68.42,83.3 C68.48,83.36 68.6,83.36 68.72,83.4 C68.72,80.78 68.78,78.2 68.68,75.62 C68.66,75.02 68.12,74.42 67.84,73.86 L72.12,73.86 L72.12,75 L72.12,96.9 C72.12,97.92 72.08,98.98 73.12,99.78 C71.68,99.78 70.36,99.78 68.96,99.78 C68.94,99.48 68.9,99.16 68.88,98.78 C68.08,99.28 67.34,99.76 66.62,100.22 C66.14,100.2 65.66,100.2 65.2,100.2 L65.2,100.2 Z M68.8,91.18 C68.8,89.48 68.78,87.78 68.8,86.08 C68.82,85.28 68.34,84.76 67.7,84.62 C67.2,84.52 66.4,84.66 66.12,85 C65.6,85.64 65.12,86.5 65.06,87.3 C64.88,89.62 64.86,91.96 64.9,94.28 C64.92,95.18 65.22,96.12 65.56,96.98 C65.84,97.7 66.46,98.18 67.32,97.9 C68.12,97.64 68.86,97.28 68.82,96.2 C68.76,94.52 68.8,92.84 68.8,91.18 L68.8,91.18 Z" id="Shape"></path>
                <path d="M78,100.2 C75.3,99.16 74.44,96.9 74.14,94.3 C73.84,91.74 73.86,89.18 74.62,86.68 C74.86,85.9 75.2,85.12 75.64,84.42 C77.06,82.18 79.34,81.78 81.5,83.42 C81.54,83.18 81.6,82.96 81.62,82.76 C81.62,80.6 81.7,78.42 81.58,76.26 C81.54,75.44 81.12,74.64 80.86,73.86 L84.98,73.86 L84.98,74.98 L84.98,96.98 C84.98,98.06 85.1,99.1 86.28,99.78 C84.7,99.78 83.28,99.78 81.82,99.78 C81.8,99.46 81.76,99.16 81.74,98.8 C80.92,99.28 80.16,99.76 79.38,100.22 C78.94,100.2 78.46,100.2 78,100.2 L78,100.2 Z M81.62,91.24 C81.62,89.54 81.6,87.84 81.64,86.16 C81.66,85.32 81.22,84.72 80.52,84.64 C79.98,84.56 79.22,84.84 78.82,85.22 C78.4,85.6 78.08,86.3 78.04,86.9 C77.86,89.14 77.72,91.4 77.76,93.64 C77.78,94.78 78.12,95.92 78.46,97.02 C78.68,97.72 79.32,98.16 80.12,97.92 C80.94,97.68 81.66,97.34 81.64,96.26 C81.58,94.56 81.62,92.9 81.62,91.24 L81.62,91.24 Z" id="Shape"></path>
                <path d="M27.8,100.2 C24.5,99.3 23.36,96.76 22.98,93.7 C22.62,90.96 22.66,88.24 23.92,85.7 C25.1,83.34 27.28,82.24 29.54,82.76 C31.14,83.14 32.1,84.26 32.72,85.68 C33.42,87.32 33.7,89.06 33.6,90.94 C31.24,90.94 28.9,90.94 26.46,90.94 C26.32,92.82 26.42,94.56 27.14,96.2 C28.08,98.36 30.08,98.76 31.82,97.16 C32.22,96.78 32.54,96.32 32.9,95.9 C33.02,97.34 31.92,99.06 30.42,99.72 C30.08,99.86 29.76,100.02 29.42,100.16 C28.86,100.2 28.34,100.2 27.8,100.2 L27.8,100.2 Z M30.36,89.54 C30.16,88.02 30.06,86.64 29.74,85.3 C29.62,84.8 29,84.12 28.54,84.08 C28.1,84.04 27.4,84.6 27.14,85.06 C26.42,86.44 26.34,87.96 26.44,89.54 L30.36,89.54 Z" id="Shape"></path>
                <path d="M98.2,100.2 C94.46,98.18 93.02,95.24 93.46,90.62 C93.66,88.64 94,86.72 95.16,85.06 C96.48,83.14 98.54,82.28 100.6,82.78 C102.64,83.28 103.86,85.48 103.16,87.46 C102.8,88.46 101.74,88.94 100.7,88.56 C99.82,88.24 99.46,87.18 99.9,86.2 C100.04,85.9 100.34,85.64 100.4,85.34 C100.48,84.94 100.56,84.26 100.34,84.12 C100.02,83.9 99.26,83.82 99.04,84.04 C98.46,84.6 97.92,85.3 97.68,86.04 C96.92,88.32 96.92,90.7 97.14,93.06 C97.24,94.08 97.42,95.12 97.76,96.08 C98.58,98.34 100.4,98.76 102.22,97.18 C102.54,96.9 102.82,96.56 103.12,96.24 C103.2,97.52 102.08,99.14 100.72,99.74 C100.42,99.88 100.12,100.02 99.84,100.16 C99.26,100.2 98.74,100.2 98.2,100.2 L98.2,100.2 Z" id="Path"></path>
                <g id="Group" transform="translate(16.000000, 0.000000)">
                    <path d="M45.34,66.74 C43.16,60.9 38.92,57.42 33.14,55.84 C28.38,54.54 23.6,54.3 19.06,56.28 C20.04,54.78 23.1,52.5 25.74,51.68 C27.44,51.16 29.22,50.92 30.98,50.62 C31.9,50.46 32.74,50.68 33.42,51.44 C33.7,51.76 34.18,51.9 34.74,52.08 C33.42,49.64 34.08,47.56 35.74,45.46 C35.76,47.68 37.08,48.9 38.58,50.08 C40.06,51.24 41.5,52.46 42.9,53.72 C44.14,54.84 44.58,56.4 44.96,57.96 C45,58.14 45.06,58.32 45.34,58.58 C45.5,58.24 45.7,57.9 45.82,57.54 C46.82,54.04 46.14,50.76 44.38,47.66 C42,43.46 38.24,41.16 33.66,40.02 C33.16,39.9 32.6,40 32.06,39.94 C31.78,39.92 31.4,39.84 31.26,39.66 C31.04,39.36 30.84,38.92 30.9,38.58 C30.94,38.38 31.46,38.14 31.78,38.12 C32.4,38.1 33.02,38.22 33.7,38.28 C33.66,39.02 34.06,39.16 34.7,39.32 C36.36,39.74 37.98,40.38 39.62,40.88 C40.54,41.16 41.46,41.5 42.4,41.58 C44.18,41.72 44.72,40.4 44.62,38.94 C44.52,37.54 44.62,36.1 44.86,34.72 C45.14,33.18 46.28,32.08 47.7,31.62 C49.6,31 51.58,30.72 53.42,30.3 C53.28,31.04 53.2,31.56 53.1,32.08 C53.06,32.24 53.04,32.4 52.96,32.54 C51.74,34.28 49.68,36.34 46.96,35.3 C46.14,35 45.78,35.38 46.12,36.2 C46.7,37.58 47.4,38.9 48.02,40.26 C49.62,43.72 50.74,47.28 51,51.12 C51.3,55.62 50.22,59.64 47.56,63.28 C46.76,64.34 46.12,65.5 45.34,66.74 L45.34,66.74 Z" id="Path"></path>
                    <path d="M33.92,5.8 C31.7,7.8 29.84,10.02 28.88,12.86 C28.96,12.98 29.04,13.1 29.12,13.22 C31.26,12.26 33.4,11.3 35.52,10.32 C35.56,10.38 35.6,10.44 35.64,10.52 C33.64,11.94 31.66,13.38 29.64,14.76 C28.4,15.6 27.9,16.72 27.88,18.22 C27.84,20.5 28.08,22.64 29.88,24.24 C30.5,24.78 31.28,25.16 32.16,25.48 C31.46,23.06 30.64,20.74 31.84,18.3 C31.94,19.16 31.9,20.02 32.14,20.76 C32.48,21.78 32.98,22.76 33.54,23.68 C34.06,24.52 34.68,25.34 35.38,26.02 C36.08,26.68 36.92,27.24 37.78,27.7 C38.86,28.28 38.98,28.5 38.26,29.54 C39.46,29.66 40.36,29.1 41.08,28.36 C41.8,27.62 41.5,26.66 41.04,25.86 C39.7,23.56 39.74,19.52 40.82,17.12 C40.92,18.4 40.94,19.64 41.14,20.84 C41.4,22.4 42.02,23.82 43.18,24.96 C44.1,25.84 45.1,26.22 46.44,25.48 C46.14,26.26 46.22,26.68 47.08,26.68 C47.28,26.68 47.5,27.06 47.58,27.44 C47.08,27.26 46.58,27.08 46.3,26.98 C46,27.74 45.7,28.36 45.52,29 C45.34,29.66 45.3,30.34 45.12,31.02 C45.02,31.42 44.88,31.9 44.58,32.12 C44.38,32.26 43.8,32.08 43.54,31.88 C42.08,30.7 40.3,30.84 39.18,32.38 C38.74,32.98 38.24,33.24 37.56,33.38 C36.56,33.6 35.58,33.9 34.58,34.14 C34.28,34.22 33.94,34.28 33.64,34.22 C33.06,34.12 32.6,34.2 32.54,34.86 C32.48,35.4 32.4,36.04 33.3,36.08 C33.5,36.08 33.7,36.38 33.9,36.54 C33.7,36.74 33.5,37.1 33.28,37.12 C32.46,37.2 31.64,37.18 30.82,37.14 C30.2,37.12 30.2,36.7 30.32,36.22 C30.4,35.86 30.48,35.5 30.46,35.14 C30.42,34.46 30.74,34.1 31.38,33.94 C32.22,33.72 33.04,33.5 33.88,33.26 C34.46,33.1 34.9,32.86 34.84,32.08 C34.82,31.84 35.26,31.52 35.52,31.3 C35.86,31 36.26,30.74 36.62,30.46 C36.24,30.14 35.9,29.72 35.46,29.52 C33.38,28.52 31.22,27.64 29.16,26.58 C28.36,26.16 27.64,25.48 27.08,24.76 C26.42,23.92 25.7,23.3 24.76,22.8 C21.9,21.26 21.04,18.44 22.36,15.4 C22.52,16.44 22.58,17.6 22.92,18.66 C23.32,19.98 24.4,20.68 25.64,20.58 C25.64,19.44 25.68,18.28 25.62,17.14 C25.6,16.86 25.34,16.56 25.12,16.32 C23.04,14.06 22.86,10.04 24.96,7.86 C24.76,8.72 24.6,9.36 24.46,10 C24.14,11.46 24.52,12.76 25.38,13.94 C25.88,14.64 26.16,14.58 26.54,13.76 C27,12.78 27.38,11.74 27.94,10.8 C29.3,8.42 31.34,6.8 33.92,5.8 L33.92,5.8 Z" id="Path"></path>
                    <path d="M44.26,99.76 C42.52,99.76 40.86,99.76 39.44,99.76 C39.62,98.98 39.92,98.16 39.94,97.36 C40,93.62 39.96,89.9 39.96,86.16 C39.96,85.8 39.9,85.42 39.8,85.08 C39.56,84.24 38.96,83.82 38.1,83.8 C37.24,83.8 36.64,84.24 36.4,85.06 C36.28,85.46 36.26,85.92 36.26,86.34 C36.24,89.94 36.22,93.54 36.28,97.14 C36.3,98.02 36.6,98.9 36.76,99.78 C35.28,99.78 33.6,99.78 31.7,99.78 C32.76,99.3 32.98,98.48 32.98,97.6 C32.98,93.6 33,89.6 32.98,85.6 C32.98,84.54 32.58,83.66 31.52,83.04 C32.08,82.98 32.48,82.96 33.02,82.9 C33.02,81.44 32.98,80 33.02,78.58 C33.1,76.06 34.5,74.28 36.96,73.72 C38.6,73.34 40.22,73.44 41.68,74.4 C43.16,75.38 43.62,77.22 42.78,78.7 C42.2,79.7 41,80.1 40.04,79.58 C39.14,79.1 38.92,78.08 39.48,76.98 C40.04,75.86 39.98,75.26 39.24,74.82 C38.44,74.34 37.24,74.62 36.68,75.46 C36.5,75.74 36.34,76.08 36.34,76.38 C36.32,78.54 36.32,80.7 36.32,82.94 L43.24,82.94 L43.24,84.1 L43.24,96.9 C43.24,97.94 43.3,98.96 44.26,99.76 L44.26,99.76 Z" id="Path"></path>
                    <path d="M100.1,99.76 C98.32,99.76 96.68,99.76 95.26,99.76 C95.44,98.96 95.76,98.16 95.76,97.34 C95.82,93.9 95.8,90.48 95.78,87.04 C95.78,86.64 95.72,86.24 95.6,85.86 C95.36,85.14 94.84,84.9 94.1,85.16 C92.92,85.56 92.22,86.52 92.22,87.76 C92.22,90.9 92.18,94.02 92.24,97.16 C92.26,98.04 92.56,98.92 92.74,99.78 C91.32,99.78 89.7,99.78 88.32,99.78 C88.52,98.8 88.92,97.78 88.92,96.78 C88.98,90.16 88.96,83.52 88.94,76.9 C88.94,75.8 88.9,74.68 87.7,73.88 L92.22,73.88 L92.22,84.78 C92.7,84.32 93.02,84.02 93.36,83.72 C94.4,82.8 95.58,82.36 96.94,82.86 C98.28,83.34 98.74,84.48 98.94,85.74 C99.04,86.42 99.04,87.14 99.04,87.84 L99.04,96.94 C99.06,97.92 99.1,98.96 100.1,99.76 L100.1,99.76 Z" id="Path"></path>
                    <path d="M23.32,99.8 C21.92,99.8 20.3,99.8 18.9,99.8 C19.12,98.88 19.52,97.94 19.54,96.98 C19.62,93.28 19.58,89.58 19.56,85.88 C19.56,84.84 19.48,83.82 18.36,83.04 L22.64,83.04 L22.64,84.9 C22.92,84.68 23.1,84.58 23.24,84.44 C23.48,84.22 23.7,83.96 23.94,83.72 C25,82.76 26.22,82.32 27.62,82.86 C28.98,83.38 29.44,84.56 29.58,85.88 C29.7,87 29.66,88.14 29.66,89.28 L29.66,97.28 C29.66,98.24 29.68,99.22 30.94,99.8 C29.04,99.8 27.36,99.8 25.84,99.8 C26.02,99 26.34,98.16 26.34,97.32 C26.4,93.92 26.36,90.52 26.36,87.12 C26.36,86.76 26.32,86.38 26.24,86.04 C26,85.16 25.4,84.88 24.56,85.22 C23.42,85.68 22.8,86.6 22.8,87.82 C22.8,90.96 22.76,94.08 22.82,97.22 C22.86,98.04 23.16,98.88 23.32,99.8 L23.32,99.8 Z" id="Path"></path>
                    <path d="M57.32,1.5 C60.68,2.08 63.18,3.9 64.98,6.74 C65.36,7.32 65.72,7.92 66.16,8.48 C66.34,8.72 66.68,9.02 66.9,8.98 C67.14,8.94 67.48,8.56 67.5,8.3 C67.64,6.92 67.84,5.52 67.72,4.16 C67.62,2.98 67.1,1.82 66.72,0.46 C68.76,3.18 69.66,6 68.9,9.22 C68.8,9.68 68.72,10.16 68.5,10.54 C67.44,12.36 67.92,14.42 67.44,16.32 C67.54,16.38 67.62,16.44 67.72,16.5 C68.72,15.58 69.72,14.64 70.66,13.78 C70.32,15.5 68.1,18.34 65.18,20.44 C62.78,22.16 60.2,23.52 57.3,24.24 C56.86,23.5 56.46,22.78 56,21.96 C57.66,21 58.5,19.4 59.12,17.68 C59.72,16 60.16,14.28 60.68,12.5 C60.68,14.02 60.72,15.5 60.66,17 C60.64,17.62 60.46,18.24 60.36,18.86 C60.24,19.58 60.64,19.82 61.24,19.62 C63.06,19.02 65.16,17.1 65.3,14.76 C65.42,12.72 65.32,10.68 63.8,9.16 C62.98,8.36 61.84,7.82 60.76,7.36 C58.76,6.52 56.68,5.84 54.72,4.88 C57.26,5.38 59.8,5.86 62.36,6.36 C62.42,6.24 62.48,6.12 62.54,6 C61.48,3.72 59.44,2.56 57.32,1.5 Z" id="Path"></path>
                    <path d="M0.48,73.84 L5.02,73.84 L5.02,75.02 L5.02,96.92 C5.02,97.94 5.02,99 6.12,99.78 C4.22,99.78 2.52,99.78 1.04,99.78 C1.28,98.84 1.72,97.86 1.72,96.86 C1.78,90.22 1.76,83.6 1.74,76.96 C1.74,75.84 1.68,74.68 0.48,73.84 L0.48,73.84 Z" id="Path"></path>
                    <path d="M71.62,83.02 L75.64,83.02 L75.64,84.84 C75.64,88.86 75.62,92.9 75.64,96.92 C75.64,97.94 75.62,99 76.74,99.78 C74.74,99.78 72.94,99.78 70.94,99.78 C72.1,99.22 72.32,98.28 72.34,97.3 C72.36,93.38 72.4,89.44 72.32,85.52 C72.32,84.7 71.86,83.88 71.62,83.02 L71.62,83.02 Z" id="Path"></path>
                    <path d="M73.84,80.22 C72.62,80.24 71.68,79.32 71.68,78.12 C71.7,76.96 72.6,76.04 73.76,76.02 C74.96,76 75.92,76.96 75.92,78.14 C75.9,79.3 75,80.2 73.84,80.22 L73.84,80.22 Z" id="Path"></path>
                    <path d="M51.5,21.52 C50.68,20.8 50.12,20.1 50.98,19.08 C51.08,19.48 51.18,19.86 51.3,20.3 C52.02,19.48 51.9,18.68 51.12,18.2 C51.26,17.14 51.42,16.1 51.56,15.08 C52.24,15.96 52.26,19.6 51.5,21.52 L51.5,21.52 Z" id="Path"></path>
                    <path d="M42.96,33.38 C42.08,32.32 41.88,32.34 41.34,33.54 C40.94,33.46 40.52,33.4 40.12,33.32 C40.08,33.24 40.04,33.18 39.98,33.1 C40.56,32.78 41.12,32.22 41.7,32.2 C42.18,32.18 42.7,32.8 43.2,33.14 C43.12,33.2 43.04,33.28 42.96,33.38 Z" id="Path"></path>
                    <path d="M52.78,24.2 C53.48,24.34 54.06,25.4 54.66,24.16 C55.04,24.34 55.4,24.54 55.82,24.74 C53.98,25.84 53.56,25.76 52.78,24.2 L52.78,24.2 Z" id="Path"></path>
                </g>
            </g>
        </g>
    </g>
</svg>