<?xml version="1.0" encoding="UTF-8"?>
<svg width="144px" height="38px" viewBox="0 0 144 38" version="1.1" xmlns="http://www.w3.org/2000/svg" xmlns:xlink="http://www.w3.org/1999/xlink">
    <title>meownow</title>
    <g id="Client-logos-white" stroke="none" stroke-width="1" fill="none" fill-rule="evenodd">
        <g id="Artboard-Copy-7" transform="translate(-75.000000, -23.000000)">
            <g id="meownow" transform="translate(78.000000, 23.000000)">
                <g id="Group" transform="translate(8.400000, 0.000000)" fill-rule="nonzero">
                    <g fill="#FFFFFF">
                        <ellipse id="Oval" cx="3.62829" cy="21.806113" rx="3.410943" ry="3.370724"></ellipse>
                        <ellipse id="Oval" cx="17.4085" cy="21.806113" rx="3.410943" ry="3.370724"></ellipse>
                        <path d="M55.8021666,15.0679143 L43.0072154,15.0679143 C43.0231892,16.5376201 43.3226935,17.8334703 43.9057373,18.9555038 C44.488781,20.0775373 45.2634988,20.9230006 46.2299138,21.4919189 C47.1963288,22.0608373 48.262564,22.3452922 49.4286516,22.3452922 C50.2113678,22.3452922 50.9261844,22.2544247 51.5731236,22.0726868 C52.2200628,21.8909491 52.847025,21.6064941 53.4540294,21.2193136 C54.0610338,20.832133 54.6201084,20.4173029 55.13127,19.9748108 C55.6424316,19.5323188 56.3053344,18.9318028 57.1199982,18.173245 C57.4554486,17.8887857 57.9346554,17.7465583 58.5576336,17.7465583 C59.2285332,17.7465583 59.771634,17.9282933 60.1869528,18.291769 C60.6022716,18.6552446 60.809928,19.1688438 60.809928,19.8325819 C60.809928,20.4173036 60.5783118,21.1007856 60.115071,21.8830484 C59.6518308,22.6653112 58.952988,23.4159561 58.0185204,24.1350057 C57.0840528,24.8540553 55.9099962,25.4506205 54.4963146,25.9247192 C53.082633,26.3988178 51.4573236,26.6358636 49.620336,26.6358636 C45.4192264,26.6358636 42.152633,25.4506348 39.820458,23.0801414 C37.488283,20.7096482 36.322213,17.4937273 36.322213,13.4322821 C36.322213,11.5200842 36.6097371,9.74619168 37.184794,8.1105513 C37.7598508,6.47491098 38.5984628,5.07239014 39.7006551,3.90294679 C40.8028474,2.73350344 42.1606001,1.83668027 43.7739541,1.21245038 C45.387308,0.58822049 47.1763469,0.27611022 49.1411245,0.27611022 C51.696933,0.27611022 53.8893042,0.8094632 55.7183046,1.87618518 C57.5473044,2.94290715 58.9170378,4.32172339 59.8275444,6.01267524 C60.738051,7.7036271 61.1932974,9.42615972 61.1932974,11.1803248 C61.1932974,12.8080634 60.7220772,13.8629171 59.779623,14.3449174 C58.8371688,14.8269178 57.5113632,15.0679143 55.8021666,15.0679143 L55.8021666,15.0679143 Z M43.0072154,11.3936681 L54.8677038,11.3936681 C54.7079658,9.18120768 54.104964,7.52583804 53.0586798,6.42750948 C52.0123956,5.32918095 50.6346762,4.78002491 48.9254793,4.78002491 C47.2961516,4.78002491 45.9583657,5.33708248 44.9120818,6.45121434 C43.8657977,7.56534618 43.2308487,9.21281424 43.0072154,11.3936681 L43.0072154,11.3936681 Z M91.1919468,13.4796917 C91.1919468,15.4076929 90.8884488,17.1855362 90.2814444,18.8132749 C89.67444,20.4410136 88.7958942,21.8395837 87.6457806,23.009027 C86.495667,24.1784704 85.1219406,25.0752935 83.52456,25.6995235 C81.92718,26.3237533 80.1301542,26.6358636 78.1334292,26.6358636 C76.152678,26.6358636 74.371626,26.3198026 72.7902192,25.6876711 C71.208813,25.0555395 69.8390802,24.1508148 68.6809794,22.9734698 C67.5228786,21.7961248 66.6443328,20.4054563 66.0453156,18.8014225 C65.4462978,17.1973887 65.1467934,15.4234962 65.1467934,13.4796917 C65.1467934,11.5200839 65.4502914,9.72643764 66.0572958,8.0986989 C66.6643002,6.47096016 67.5348594,5.08029166 68.6689992,3.9266516 C69.803139,2.77301155 71.1768654,1.8840899 72.7902192,1.25986001 C74.4035736,0.63563011 76.1846256,0.32351985 78.1334292,0.32351985 C80.1141804,0.32351985 81.9112062,0.63958088 83.52456,1.27171241 C85.1379144,1.90384396 86.5196274,2.80461788 87.669741,3.97406123 C88.8198546,5.14350458 89.6944074,6.5341731 90.2934246,8.14610856 C90.8924424,9.75804396 91.1919468,11.5358872 91.1919468,13.4796917 L91.1919468,13.4796917 Z M84.6267468,13.4796917 C84.6267468,10.8405425 84.0397188,8.78614584 82.8656442,7.31644002 C81.6915696,5.84673421 80.1141804,5.11189231 78.1334292,5.11189231 C76.8555252,5.11189231 75.7293888,5.43980563 74.754987,6.0956421 C73.7805852,6.75147858 73.029828,7.7194155 72.5026926,8.99948184 C71.9755572,10.2795482 71.7119934,11.7729365 71.7119934,13.4796917 C71.7119934,15.1706436 71.9715636,16.6482289 72.4907118,17.912492 C73.0098606,19.176755 73.7526312,20.144692 74.7190464,20.8163317 C75.685461,21.4879715 76.8235776,21.8237863 78.1334292,21.8237863 C80.1141804,21.8237863 81.6915696,21.0849937 82.8656442,19.6073862 C84.0397188,18.1297787 84.6267468,16.0872343 84.6267468,13.4796917 L84.6267468,13.4796917 Z M100.416771,4.35333826 L104.681755,18.8132749 L108.563369,5.37264527 C108.978688,3.9661526 109.286179,3.00611722 109.485851,2.49251035 C109.685524,1.97890347 110.060903,1.48900888 110.611999,1.02281186 C111.163095,0.55661486 111.917846,0.32351985 112.876274,0.32351985 C113.850676,0.32351985 114.613413,0.55661486 115.164509,1.02281186 C115.715605,1.48900888 116.102965,1.99470652 116.326598,2.53991998 C116.550231,3.08513343 116.861715,4.02936575 117.26106,5.37264527 L121.142675,18.8132749 L125.455579,4.35333826 C125.743108,3.31032122 125.974724,2.55572552 126.150436,2.08952851 C126.326148,1.62333149 126.621659,1.21245216 127.036978,0.85687817 C127.452297,0.50130418 128.051305,0.32351985 128.834021,0.32351985 C129.616738,0.32351985 130.295614,0.59217172 130.870671,1.12948353 C131.445728,1.66679534 131.733252,2.29891739 131.733252,3.02586866 C131.733252,3.68960678 131.485662,4.69310055 130.990474,6.03638004 L125.647264,21.5393285 C125.184024,22.8510015 124.824619,23.7991846 124.569038,24.3839062 C124.313457,24.9686279 123.910124,25.4901286 123.359029,25.948424 C122.807932,26.4067193 122.053181,26.6358636 121.094753,26.6358636 C120.104378,26.6358636 119.325667,26.3909163 118.758596,25.9010144 C118.191527,25.4111124 117.772221,24.8105965 117.500666,24.0994485 C117.229111,23.3883005 116.9336,22.463822 116.614124,21.3259852 L112.876274,8.71502406 L109.258226,21.3259852 C108.779012,23.0801503 108.259871,24.4036558 107.700788,25.2965416 C107.141705,26.1894274 106.159331,26.6358636 104.753636,26.6358636 C104.034815,26.6358636 103.423826,26.4975869 102.920652,26.2210294 C102.417477,25.9444718 101.998171,25.5493955 101.662721,25.0357886 C101.327272,24.5221817 101.03176,23.9137643 100.776179,23.210518 C100.520599,22.5072716 100.320929,21.9502141 100.177165,21.5393285 L94.8818766,6.03638004 C94.3547406,4.58247753 94.0911768,3.57898376 94.0911768,3.02586866 C94.0911768,2.33052397 94.3707144,1.70630344 94.9297974,1.15318834 C95.4888804,0.60007325 96.1757436,0.32351985 96.9904074,0.32351985 C98.0766258,0.32351985 98.8114098,0.62772859 99.194781,1.2361552 C99.5781522,1.8445818 99.9854784,2.88363243 100.416771,4.35333826 Z" id="Shape"></path>
                    </g>
                    <g id="a-link" transform="translate(102.000000, 31.000000)" fill="#000000">
                        <path d="M5.433451,6.8367602 C5.646076,6.8367602 5.818834,6.7623415 5.951725,6.613504 C6.084615,6.4646665 6.151061,6.244954 6.151061,5.9543665 L6.151061,3.254029 C6.151061,2.9350915 6.136886,2.672854 6.108536,2.4673165 C6.080186,2.261779 6.01817,2.0704165 5.922489,1.893229 C5.773651,1.5884665 5.548623,1.3528071 5.247404,1.1862509 C4.946186,1.0196946 4.604214,0.9364165 4.221489,0.9364165 C3.828133,0.9364165 3.479959,1.0152649 3.176968,1.1729618 C2.873978,1.3306587 2.594908,1.5778352 2.339758,1.9144915 L2.339758,1.7390759 C2.339758,1.5654321 2.30875,1.4183665 2.246734,1.297879 C2.184718,1.1773915 2.102326,1.0870259 1.999558,1.0267821 C1.896789,0.9665384 1.781617,0.9364165 1.654042,0.9364165 C1.444961,0.9364165 1.280176,1.0046337 1.159689,1.141068 C1.039201,1.2775024 0.978958,1.4839259 0.978958,1.7603384 L0.978958,5.9543665 C0.978958,6.2378665 1.046289,6.4558071 1.180951,6.6081884 C1.315614,6.7605696 1.487486,6.8367602 1.696567,6.8367602 C1.912736,6.8367602 2.089037,6.7632274 2.225472,6.6161618 C2.361906,6.4690962 2.430123,6.2484977 2.430123,5.9543665 L2.430123,4.1364227 C2.430123,3.5446165 2.465561,3.140629 2.536436,2.9244602 C2.635661,2.6551352 2.791586,2.4433962 3.004211,2.289243 C3.216836,2.1350899 3.452495,2.0580134 3.711189,2.0580134 C4.108089,2.0580134 4.372984,2.1847024 4.505875,2.4380805 C4.638765,2.6914587 4.705211,3.0573509 4.705211,3.5357571 L4.705211,5.9543665 C4.705211,6.2378665 4.772542,6.4558071 4.907204,6.6081884 C5.041867,6.7605696 5.217283,6.8367602 5.433451,6.8367602 L5.433451,6.8367602 Z M10.132464,6.8367602 C10.575433,6.8367602 10.974104,6.7667712 11.328479,6.626793 C11.682854,6.4868149 11.987617,6.2857071 12.242767,6.0234696 C12.497917,5.7612321 12.692823,5.4476102 12.827486,5.082604 C12.962148,4.7175977 13.029479,4.3189259 13.029479,3.8865884 C13.029479,3.4507071 12.963034,3.0520352 12.830143,2.6905727 C12.697253,2.3291102 12.503233,2.0172602 12.248083,1.7550227 C11.992933,1.4927852 11.686398,1.2907915 11.328479,1.1490415 C10.970561,1.0072915 10.571889,0.9364165 10.132464,0.9364165 C9.700126,0.9364165 9.304998,1.0064055 8.947079,1.1463837 C8.589161,1.2863618 8.284398,1.4856977 8.032792,1.7443915 C7.781186,2.0030852 7.588051,2.3149352 7.453389,2.6799415 C7.318726,3.0449477 7.251395,3.4471634 7.251395,3.8865884 C7.251395,4.3224696 7.31784,4.7202555 7.450731,5.0799462 C7.583622,5.4396368 7.778528,5.7514868 8.03545,6.0154962 C8.292372,6.2795055 8.596248,6.4823852 8.947079,6.6241352 C9.297911,6.7658852 9.693039,6.8367602 10.132464,6.8367602 L10.132464,6.8367602 Z M10.132464,5.7576884 C9.841876,5.7576884 9.589384,5.6823837 9.374987,5.5317743 C9.16059,5.3811649 8.995806,5.1641102 8.880634,4.8806102 C8.765462,4.5971102 8.707876,4.2657696 8.707876,3.8865884 C8.707876,3.5038634 8.766348,3.168979 8.883292,2.8819352 C9.000236,2.5948915 9.166792,2.3778368 9.382961,2.2307712 C9.599129,2.0837055 9.848964,2.0101727 10.132464,2.0101727 C10.571889,2.0101727 10.921834,2.1749571 11.1823,2.5045259 C11.442765,2.8340946 11.572998,3.2947821 11.572998,3.8865884 C11.572998,4.4713071 11.442765,4.9293368 11.1823,5.2606774 C10.921834,5.592018 10.571889,5.7576884 10.132464,5.7576884 L10.132464,5.7576884 Z M19.663379,6.8367602 C19.876004,6.8367602 20.043447,6.7853759 20.165706,6.6826071 C20.287965,6.5798384 20.377445,6.4628946 20.434145,6.3317759 C20.490845,6.2006571 20.570579,5.9880321 20.673348,5.6939009 L21.858733,2.2174821 C21.968589,1.9162634 22.023517,1.6912352 22.023517,1.5423977 C22.023517,1.3793852 21.959729,1.2376352 21.832154,1.1171477 C21.704579,0.9966602 21.55397,0.9364165 21.380326,0.9364165 C21.206683,0.9364165 21.073792,0.9762837 20.981654,1.056018 C20.889517,1.1357524 20.823958,1.2278899 20.784976,1.3324305 C20.745995,1.4369712 20.694611,1.6061852 20.630823,1.8400727 L19.674011,5.082604 L18.812879,2.0686446 C18.724286,1.7674259 18.655183,1.5556868 18.60557,1.4334274 C18.555958,1.311168 18.470022,1.197768 18.347762,1.0932274 C18.225503,0.9886868 18.056289,0.9364165 17.84012,0.9364165 C17.627495,0.9364165 17.460053,0.9886868 17.337793,1.0932274 C17.215534,1.197768 17.132256,1.3076243 17.087959,1.4227962 C17.043662,1.537968 16.975445,1.7532509 16.883308,2.0686446 L16.022176,5.082604 L15.075995,1.8400727 C14.980314,1.510504 14.889948,1.2775024 14.804898,1.141068 C14.719848,1.0046337 14.556836,0.9364165 14.315861,0.9364165 C14.135129,0.9364165 13.982748,0.9984321 13.858717,1.1224634 C13.734686,1.2464946 13.67267,1.3864727 13.67267,1.5423977 C13.67267,1.666429 13.731142,1.8914571 13.848086,2.2174821 L15.022839,5.6939009 C15.054733,5.7860384 15.099029,5.9109555 15.155729,6.0686524 C15.212429,6.2263493 15.277989,6.3627837 15.352408,6.4779555 C15.426826,6.5931274 15.51985,6.6817212 15.631478,6.7437368 C15.743106,6.8057524 15.878654,6.8367602 16.038123,6.8367602 C16.349973,6.8367602 16.567914,6.7366493 16.691945,6.5364274 C16.815976,6.3362055 16.931148,6.0394165 17.037461,5.6460602 L17.84012,2.8181477 L18.669358,5.6460602 C18.740233,5.9012102 18.805792,6.1085196 18.866036,6.2679884 C18.926279,6.4274571 19.019303,6.5621196 19.145106,6.6719759 C19.270909,6.7818321 19.443667,6.8367602 19.663379,6.8367602 L19.663379,6.8367602 Z" id="a"></path>
                    </g>
                    <g id="a-link" transform="translate(102.000000, 31.000000)" fill="#FFFFFF">
                        <path d="M5.433451,6.8367602 C5.646076,6.8367602 5.818834,6.7623415 5.951725,6.613504 C6.084615,6.4646665 6.151061,6.244954 6.151061,5.9543665 L6.151061,3.254029 C6.151061,2.9350915 6.136886,2.672854 6.108536,2.4673165 C6.080186,2.261779 6.01817,2.0704165 5.922489,1.893229 C5.773651,1.5884665 5.548623,1.3528071 5.247404,1.1862509 C4.946186,1.0196946 4.604214,0.9364165 4.221489,0.9364165 C3.828133,0.9364165 3.479959,1.0152649 3.176968,1.1729618 C2.873978,1.3306587 2.594908,1.5778352 2.339758,1.9144915 L2.339758,1.7390759 C2.339758,1.5654321 2.30875,1.4183665 2.246734,1.297879 C2.184718,1.1773915 2.102326,1.0870259 1.999558,1.0267821 C1.896789,0.9665384 1.781617,0.9364165 1.654042,0.9364165 C1.444961,0.9364165 1.280176,1.0046337 1.159689,1.141068 C1.039201,1.2775024 0.978958,1.4839259 0.978958,1.7603384 L0.978958,5.9543665 C0.978958,6.2378665 1.046289,6.4558071 1.180951,6.6081884 C1.315614,6.7605696 1.487486,6.8367602 1.696567,6.8367602 C1.912736,6.8367602 2.089037,6.7632274 2.225472,6.6161618 C2.361906,6.4690962 2.430123,6.2484977 2.430123,5.9543665 L2.430123,4.1364227 C2.430123,3.5446165 2.465561,3.140629 2.536436,2.9244602 C2.635661,2.6551352 2.791586,2.4433962 3.004211,2.289243 C3.216836,2.1350899 3.452495,2.0580134 3.711189,2.0580134 C4.108089,2.0580134 4.372984,2.1847024 4.505875,2.4380805 C4.638765,2.6914587 4.705211,3.0573509 4.705211,3.5357571 L4.705211,5.9543665 C4.705211,6.2378665 4.772542,6.4558071 4.907204,6.6081884 C5.041867,6.7605696 5.217283,6.8367602 5.433451,6.8367602 L5.433451,6.8367602 Z M10.132464,6.8367602 C10.575433,6.8367602 10.974104,6.7667712 11.328479,6.626793 C11.682854,6.4868149 11.987617,6.2857071 12.242767,6.0234696 C12.497917,5.7612321 12.692823,5.4476102 12.827486,5.082604 C12.962148,4.7175977 13.029479,4.3189259 13.029479,3.8865884 C13.029479,3.4507071 12.963034,3.0520352 12.830143,2.6905727 C12.697253,2.3291102 12.503233,2.0172602 12.248083,1.7550227 C11.992933,1.4927852 11.686398,1.2907915 11.328479,1.1490415 C10.970561,1.0072915 10.571889,0.9364165 10.132464,0.9364165 C9.700126,0.9364165 9.304998,1.0064055 8.947079,1.1463837 C8.589161,1.2863618 8.284398,1.4856977 8.032792,1.7443915 C7.781186,2.0030852 7.588051,2.3149352 7.453389,2.6799415 C7.318726,3.0449477 7.251395,3.4471634 7.251395,3.8865884 C7.251395,4.3224696 7.31784,4.7202555 7.450731,5.0799462 C7.583622,5.4396368 7.778528,5.7514868 8.03545,6.0154962 C8.292372,6.2795055 8.596248,6.4823852 8.947079,6.6241352 C9.297911,6.7658852 9.693039,6.8367602 10.132464,6.8367602 L10.132464,6.8367602 Z M10.132464,5.7576884 C9.841876,5.7576884 9.589384,5.6823837 9.374987,5.5317743 C9.16059,5.3811649 8.995806,5.1641102 8.880634,4.8806102 C8.765462,4.5971102 8.707876,4.2657696 8.707876,3.8865884 C8.707876,3.5038634 8.766348,3.168979 8.883292,2.8819352 C9.000236,2.5948915 9.166792,2.3778368 9.382961,2.2307712 C9.599129,2.0837055 9.848964,2.0101727 10.132464,2.0101727 C10.571889,2.0101727 10.921834,2.1749571 11.1823,2.5045259 C11.442765,2.8340946 11.572998,3.2947821 11.572998,3.8865884 C11.572998,4.4713071 11.442765,4.9293368 11.1823,5.2606774 C10.921834,5.592018 10.571889,5.7576884 10.132464,5.7576884 L10.132464,5.7576884 Z M19.663379,6.8367602 C19.876004,6.8367602 20.043447,6.7853759 20.165706,6.6826071 C20.287965,6.5798384 20.377445,6.4628946 20.434145,6.3317759 C20.490845,6.2006571 20.570579,5.9880321 20.673348,5.6939009 L21.858733,2.2174821 C21.968589,1.9162634 22.023517,1.6912352 22.023517,1.5423977 C22.023517,1.3793852 21.959729,1.2376352 21.832154,1.1171477 C21.704579,0.9966602 21.55397,0.9364165 21.380326,0.9364165 C21.206683,0.9364165 21.073792,0.9762837 20.981654,1.056018 C20.889517,1.1357524 20.823958,1.2278899 20.784976,1.3324305 C20.745995,1.4369712 20.694611,1.6061852 20.630823,1.8400727 L19.674011,5.082604 L18.812879,2.0686446 C18.724286,1.7674259 18.655183,1.5556868 18.60557,1.4334274 C18.555958,1.311168 18.470022,1.197768 18.347762,1.0932274 C18.225503,0.9886868 18.056289,0.9364165 17.84012,0.9364165 C17.627495,0.9364165 17.460053,0.9886868 17.337793,1.0932274 C17.215534,1.197768 17.132256,1.3076243 17.087959,1.4227962 C17.043662,1.537968 16.975445,1.7532509 16.883308,2.0686446 L16.022176,5.082604 L15.075995,1.8400727 C14.980314,1.510504 14.889948,1.2775024 14.804898,1.141068 C14.719848,1.0046337 14.556836,0.9364165 14.315861,0.9364165 C14.135129,0.9364165 13.982748,0.9984321 13.858717,1.1224634 C13.734686,1.2464946 13.67267,1.3864727 13.67267,1.5423977 C13.67267,1.666429 13.731142,1.8914571 13.848086,2.2174821 L15.022839,5.6939009 C15.054733,5.7860384 15.099029,5.9109555 15.155729,6.0686524 C15.212429,6.2263493 15.277989,6.3627837 15.352408,6.4779555 C15.426826,6.5931274 15.51985,6.6817212 15.631478,6.7437368 C15.743106,6.8057524 15.878654,6.8367602 16.038123,6.8367602 C16.349973,6.8367602 16.567914,6.7366493 16.691945,6.5364274 C16.815976,6.3362055 16.931148,6.0394165 17.037461,5.6460602 L17.84012,2.8181477 L18.669358,5.6460602 C18.740233,5.9012102 18.805792,6.1085196 18.866036,6.2679884 C18.926279,6.4274571 19.019303,6.5621196 19.145106,6.6719759 C19.270909,6.7818321 19.443667,6.8367602 19.663379,6.8367602 L19.663379,6.8367602 Z" id="a"></path>
                    </g>
                </g>
                <path d="M0.3851888,23.3111275 L0.3851888,4.94179219 C0.3851888,4.34532466 0.86872127,3.86179219 1.4651888,3.86179219 C1.64019631,3.86179219 1.81258238,3.90432155 1.96750823,3.9857194 L10.2212121,8.3222049 C15.4924246,11.5620079 22.1147296,11.654284 27.4741657,8.56260984 L27.8909091,8.3222049 L35.7493931,4.02761731 C36.2728012,3.74157973 36.9289866,3.93400652 37.2150242,4.4574146 C37.3018214,4.61624128 37.34731,4.7943351 37.34731,4.97533147 L37.34731,23.3111275" id="Path" stroke="#FFFFFF" stroke-width="5.76" stroke-linecap="round"></path>
                <g id="Group" stroke-linecap="round" transform="translate(0.000000, 26.400000)" stroke="#FFFFFF">
                    <g transform="translate(26.168522, 0.592208)" id="Path">
                        <path d="M0,0.95675676 C5.99146586,0.48108108 9.71772846,0.48108108 11.1787879,0.95675676" stroke-width="0.72"></path>
                        <path d="M0.000864499652,4.53447552 C5.9912795,4.04770794 9.7163427,4.04090582 11.1760541,4.51406916" stroke-width="0.719999998" transform="translate(5.588459, 4.349351) rotate(10.000000) translate(-5.588459, -4.349351) "></path>
                    </g>
                    <path d="M0.204886,1.54896516 C6.19635186,1.07328948 9.92261446,1.07328948 11.3836739,1.54896516" id="Path" stroke-width="0.72" transform="translate(5.794280, 1.370587) scale(-1, 1) translate(-5.794280, -1.370587) "></path>
                    <path d="M0.207618931,5.12668349 C6.19803395,4.63991592 9.92309713,4.6331138 11.3828085,5.10627713" id="Path" stroke-width="0.719999998" transform="translate(5.795214, 4.941559) scale(-1, 1) rotate(10.000000) translate(-5.795214, -4.941559) "></path>
                </g>
                <path d="M21.2231928,29.8982875 C20.7999879,30.1838602 20.4536282,30.2589718 20.1558998,30.2604591 C19.8585427,30.2615746 19.6012787,30.1753079 19.4193749,30.0871819 C19.4167762,30.0860664 19.4152913,30.0849509 19.4130639,30.0838354 L19.3915324,28.8534185 C20.5130253,27.8873795 22.4976334,25.8084248 18.7919922,25.8084248 C15.1472332,25.8084248 17.0078496,27.8204483 18.1367671,28.805823 L18.1582986,30.0749112 C17.976766,30.16564 17.7046527,30.2645494 17.3965298,30.2612028 C17.0980591,30.2593436 16.7520705,30.1834883 16.3318355,29.8982875 C16.0452442,29.7019562 15.655079,29.7763241 15.4598108,30.0618968 C15.2645426,30.3485851 15.3373041,30.7386447 15.6238955,30.9346041 C16.2308603,31.3536673 16.8511895,31.5165329 17.3831655,31.5165329 L17.3961586,31.5165329 C17.9994112,31.511699 18.4664215,31.3321006 18.7764005,31.1670038 C19.0860082,31.3321006 19.5526473,31.511699 20.1551573,31.5165329 L20.1681505,31.5165329 C20.7012401,31.5165329 21.3200844,31.3529236 21.928163,30.934976 C22.2143831,30.7397602 22.2882584,30.3489569 22.0918765,30.0622687 C21.8980931,29.7763241 21.5086705,29.7015844 21.2231928,29.8982875 L21.2231928,29.8982875 Z" id="Path" fill="#FFFFFF" fill-rule="nonzero"></path>
            </g>
        </g>
    </g>
</svg>