<svg width="169" height="26" viewBox="0 0 169 26" fill="none" xmlns="http://www.w3.org/2000/svg">
<g clip-path="url(#clip0_816_6856)">
<path d="M14.6999 1.22688C15.8759 1.86478 16.8559 2.79711 17.4929 3.97481C18.1789 5.20155 18.5219 6.62459 18.4729 8.04763C18.5219 9.42162 18.1299 10.8447 17.4439 12.0223C16.7579 13.151 15.7779 14.0833 14.5529 14.6721C13.2299 15.3101 11.7599 15.6535 10.2899 15.6045H5.24297C5.14499 15.6045 5.09599 15.6535 5.04697 15.7517V15.8008V24.9278C5.04697 25.0261 4.99797 25.1732 4.94898 25.2223C4.85099 25.3203 4.75297 25.3203 4.65498 25.3203H0.441007C0.343019 25.3203 0.196006 25.2715 0.147012 25.2223C0.0490236 25.1241 0 25.0261 0 24.9278V0.687086C0 0.588938 0.0490236 0.441744 0.147012 0.392669C0.245001 0.294521 0.343019 0.245446 0.441007 0.294521H10.5349C12.0049 0.245446 13.4259 0.588938 14.6999 1.22688ZM12.4459 10.6484C13.1319 10.0105 13.4749 9.07813 13.4749 8.14578C13.5239 7.21345 13.1319 6.2811 12.4949 5.59412C11.7599 4.90713 10.8289 4.56364 9.84894 4.61271H5.29197C5.19398 4.61271 5.14499 4.66179 5.09599 4.75994V4.80901V11.4335C5.09599 11.5316 5.14499 11.5807 5.24297 11.6298H5.29197H9.84894C10.7799 11.6298 11.711 11.2863 12.4459 10.6484Z" fill="white"/>
<path d="M21.2171 25.2712C21.119 25.1729 21.07 25.0749 21.119 24.9767V0.736013C21.119 0.637864 21.168 0.490641 21.2171 0.441567C21.3151 0.343447 21.4131 0.294373 21.5111 0.294373H25.7249C25.8229 0.294373 25.9699 0.343447 26.0189 0.441567C26.1171 0.539715 26.1661 0.637864 26.1661 0.736013V24.9767C26.1661 25.0749 26.1171 25.222 26.0189 25.2712C25.9209 25.3694 25.8229 25.3694 25.7249 25.3694H21.5111C21.4131 25.4183 21.3151 25.3694 21.2171 25.2712Z" fill="white"/>
<path d="M33.2216 24.6333C31.8498 23.9463 30.7226 22.8666 29.9387 21.5909C29.1548 20.2169 28.7626 18.6466 28.8116 17.0273V8.73441C28.7626 7.1151 29.1548 5.54484 29.9387 4.17087C30.7226 2.84598 31.8498 1.81551 33.2216 1.12852C34.7407 0.392465 36.4065 -0.000100743 38.1216 0.0489736C39.7877 -0.000100743 41.4535 0.343391 42.9727 1.07945C44.2955 1.71736 45.4717 2.69876 46.2556 3.9746C47.0395 5.29949 47.4314 6.82068 47.4314 8.34184C47.4314 8.53814 47.2844 8.68533 46.9905 8.73441L42.7767 8.97978H42.6787C42.4337 8.97978 42.3357 8.83256 42.3357 8.58721C42.3847 7.45859 41.9435 6.32997 41.1596 5.54484C40.3267 4.7597 39.2485 4.36717 38.1216 4.41621C36.9948 4.36717 35.8676 4.7597 35.0347 5.54484C34.2505 6.37904 33.8096 7.45859 33.8586 8.58721V17.2236C33.8096 18.3522 34.2505 19.4317 35.0347 20.2169C35.8676 21.0019 36.9948 21.4438 38.1216 21.3455C39.2485 21.3946 40.3757 21.0019 41.1596 20.2169C41.9435 19.4317 42.3847 18.3522 42.3357 17.2236C42.3357 16.9782 42.4827 16.831 42.7767 16.831L46.9905 17.0273C47.0885 17.0273 47.1865 17.0764 47.2844 17.1255C47.3824 17.1745 47.4314 17.2726 47.4314 17.3708C47.4807 18.892 47.0395 20.4131 46.2556 21.738C45.4717 23.014 44.3445 24.0443 42.9727 24.6821C41.4535 25.4183 39.7877 25.7619 38.1216 25.7128C36.4555 25.7619 34.7407 25.3691 33.2216 24.6333Z" fill="white"/>
<path d="M50.2247 25.2712C50.1264 25.1729 50.0774 25.0749 50.0774 24.9767V0.736013C50.0774 0.637864 50.1264 0.490641 50.2247 0.441567C50.3227 0.343447 50.4206 0.294373 50.5186 0.294373H54.7324C54.8304 0.294373 54.9774 0.343447 55.0264 0.441567C55.1244 0.539715 55.1734 0.637864 55.1734 0.736013V10.7954C55.1734 10.8445 55.2224 10.8936 55.2224 10.8936C55.2714 10.8936 55.3204 10.8936 55.3694 10.8445L63.6506 0.539715C63.7976 0.392521 63.9935 0.294373 64.1895 0.294373H68.8935C69.0895 0.294373 69.1875 0.343447 69.2365 0.441567C69.2855 0.58879 69.2365 0.736013 69.1875 0.834132L61.2006 11.0408C61.1516 11.1389 61.1026 11.2371 61.1516 11.2861L69.6285 24.8787C69.6775 24.9767 69.6775 25.0258 69.6775 25.124C69.6775 25.2712 69.5795 25.3694 69.3345 25.3694H64.6305C64.4345 25.3694 64.2385 25.2712 64.1405 25.0749L57.7704 14.7701C57.7704 14.721 57.7214 14.672 57.6724 14.672C57.6234 14.672 57.5744 14.721 57.5254 14.7701L55.2714 17.6162C55.2224 17.6653 55.2224 17.7634 55.2224 17.8125V24.9278C55.2224 25.0258 55.1734 25.1729 55.0754 25.222C54.9774 25.3203 54.8794 25.3694 54.7814 25.3203H50.5676C50.4206 25.4183 50.3227 25.3694 50.2247 25.2712Z" fill="white"/>
<path d="M74.5288 13.1509C75.8516 13.7888 77.2237 14.3776 78.5956 14.8192L78.9875 14.9665V10.1575C78.4976 9.96128 78.0567 9.76498 77.7137 9.66686C77.0768 9.42149 76.5375 9.02893 76.0476 8.58731C75.6556 8.19475 75.4597 7.65496 75.5087 7.06613C75.4597 6.28099 75.8516 5.54494 76.4395 5.1033C77.1748 4.61261 78.0567 4.36727 78.9385 4.36727V0C77.5177 0 76.0476 0.294417 74.7247 0.834177C73.4996 1.32489 72.4217 2.20817 71.6378 3.28772C70.9026 4.41631 70.5107 5.69216 70.5107 7.06613C70.4617 8.39102 70.8536 9.71591 71.6378 10.7464C72.5197 11.7769 73.4506 12.562 74.5288 13.1509Z" fill="white"/>
<path d="M80.1144 4.41619C80.9966 4.51434 81.8785 4.85783 82.5644 5.39762C83.3483 6.03553 83.7896 6.96785 83.7896 7.94925V8.2437C83.7896 8.48904 83.9855 8.68531 84.2305 8.68531H88.3463C88.5913 8.68531 88.7876 8.48904 88.7876 8.2437V7.75298C88.8366 6.32994 88.3953 4.9069 87.6114 3.72921C86.7785 2.55154 85.6024 1.61918 84.2795 1.03035C82.9564 0.441516 81.5845 0.0980246 80.1634 0.0489502V4.41619H80.1144Z" fill="white"/>
<path d="M87.7584 14.7702C87.0725 13.8869 86.1416 13.1508 85.1614 12.6111C83.8386 11.9732 82.5154 11.4334 81.1926 10.9427L80.1144 10.5501V15.359C80.8006 15.6044 81.3886 15.8497 81.7805 16.046C82.3684 16.2913 82.9074 16.6348 83.3483 17.0765C83.7406 17.469 83.9366 18.0088 83.9366 18.5486C83.9366 19.3337 83.5936 20.0698 83.0054 20.5605C82.3684 21.1002 81.4376 21.3455 80.1634 21.3455H80.1144V25.6637C82.7604 25.6148 84.9164 24.9767 86.4845 23.701C88.1014 22.4253 89.0325 20.4623 88.9346 18.3523C88.9835 17.0765 88.5913 15.8007 87.7584 14.7702Z" fill="white"/>
<path d="M79.0366 21.2963C78.1544 21.1984 77.2725 20.9039 76.5376 20.3641C75.7044 19.8243 75.2144 18.941 75.2144 17.9596V17.4199C75.2144 17.3217 75.1654 17.1745 75.0674 17.1254C74.9694 17.0273 74.8715 16.9782 74.7735 16.9782H70.7064C70.6084 16.9782 70.4614 17.0273 70.4124 17.1254C70.3144 17.2236 70.2654 17.3217 70.2654 17.4199V18.205C70.2164 19.628 70.6574 21.0018 71.4416 22.1796C72.2745 23.3573 73.4013 24.2897 74.7735 24.7804C76.1453 25.3203 77.5664 25.6636 79.0366 25.6636V21.2963Z" fill="white"/>
<path d="M96.2843 25.0749L89.9632 0.785057L89.9142 0.637863C89.9142 0.441565 90.0611 0.294371 90.3061 0.294371H94.7652C95.0101 0.245297 95.2061 0.441565 95.2551 0.637863L98.6363 15.2608C98.6853 15.3589 98.6853 15.408 98.7343 15.408C98.7833 15.408 98.8323 15.3589 98.8323 15.2608L102.115 0.686937C102.164 0.441565 102.36 0.294371 102.605 0.294371H106.966C107.211 0.294371 107.407 0.441565 107.456 0.637863L110.984 15.2608C111.033 15.3099 111.033 15.3589 111.082 15.3589C111.131 15.3589 111.18 15.3099 111.18 15.2608L114.463 0.686937C114.512 0.441565 114.708 0.294371 114.904 0.294371H119.118C119.461 0.294371 119.608 0.441565 119.51 0.785057L113.63 25.0749C113.581 25.2712 113.385 25.4183 113.14 25.4183H108.877C108.632 25.4183 108.436 25.2712 108.436 25.0749L104.761 9.56864C104.712 9.47052 104.712 9.42145 104.663 9.42145C104.614 9.42145 104.565 9.47052 104.565 9.56864L101.184 25.0749C101.184 25.3203 100.988 25.4674 100.743 25.4674C100.743 25.4674 100.743 25.4674 100.694 25.4674H96.7252C96.5293 25.4674 96.3333 25.2712 96.2843 25.0749Z" fill="white"/>
<path d="M122.499 25.2712C122.401 25.1729 122.352 25.0749 122.401 24.9767V0.736013C122.401 0.637864 122.45 0.490641 122.499 0.441567C122.597 0.343447 122.695 0.294373 122.793 0.294373H126.958C127.056 0.294373 127.203 0.343447 127.252 0.441567C127.35 0.539715 127.399 0.637864 127.399 0.736013V24.9767C127.399 25.0749 127.35 25.222 127.252 25.2712C127.154 25.3694 127.056 25.4183 126.958 25.3694H122.793C122.695 25.4183 122.548 25.3694 122.499 25.2712Z" fill="white"/>
<path d="M168.853 4.51442C168.755 4.61257 168.657 4.66161 168.559 4.66161H156.799C156.701 4.66161 156.652 4.71069 156.603 4.80884V4.85791V10.4028C156.603 10.501 156.652 10.5501 156.75 10.5991H156.799H164.492C164.59 10.5991 164.737 10.6482 164.786 10.7463C164.884 10.8445 164.933 10.9426 164.933 11.0408V14.5248C164.933 14.6229 164.884 14.7701 164.786 14.8192C164.688 14.9173 164.59 14.9664 164.492 14.9173H156.799C156.701 14.9173 156.652 14.9664 156.603 15.0645V15.1136V20.9039C156.603 21.0022 156.652 21.051 156.75 21.1001H156.799H168.559C168.657 21.1001 168.804 21.1493 168.853 21.1984C168.951 21.2964 169 21.3946 169 21.4926V24.9767C169 25.0749 168.951 25.222 168.853 25.2712C168.755 25.3694 168.657 25.4183 168.559 25.3694H151.997C151.752 25.3694 151.556 25.1729 151.556 24.9767C151.556 24.9767 151.556 24.9767 151.556 24.9278V0.736013C151.556 0.637864 151.605 0.490641 151.654 0.441567C151.752 0.343447 151.85 0.294373 151.948 0.294373H168.51C168.608 0.294373 168.755 0.343447 168.804 0.441567C168.902 0.539715 168.951 0.637864 168.951 0.736013V4.22C168.951 4.31812 168.902 4.46534 168.853 4.51442Z" fill="white"/>
<path d="M140.09 4.41622C140.972 4.51437 141.805 4.85786 142.491 5.39765C143.275 6.03555 143.716 6.96788 143.716 7.94928V8.2437C143.716 8.34184 143.765 8.48907 143.814 8.53814C143.912 8.63626 144.01 8.68534 144.108 8.68534H148.224C148.322 8.68534 148.469 8.63626 148.518 8.53814C148.616 8.43999 148.665 8.34184 148.665 8.2437V7.75301C148.714 6.32997 148.273 4.90693 147.44 3.72923C146.607 2.55157 145.431 1.61921 144.108 1.03038C142.834 0.441543 141.462 0.147097 140.041 0.0980225V4.41622H140.09Z" fill="white"/>
<path d="M134.504 13.1509C135.827 13.7888 137.199 14.3776 138.571 14.8192L139.061 15.0155V10.2066C138.522 10.0103 138.081 9.81406 137.738 9.66683C137.101 9.42149 136.562 9.02892 136.072 8.58729C135.68 8.19475 135.484 7.65496 135.533 7.06613C135.484 6.28099 135.876 5.54494 136.464 5.1033C137.199 4.61261 138.13 4.36724 139.012 4.36724V0C137.542 0 136.072 0.294417 134.749 0.834177C133.524 1.32489 132.446 2.20817 131.662 3.28769C130.927 4.41631 130.535 5.74123 130.584 7.06613C130.535 8.39102 130.927 9.66683 131.711 10.7464C132.446 11.7769 133.426 12.562 134.504 13.1509Z" fill="white"/>
<path d="M147.685 14.7702C146.999 13.8869 146.068 13.1508 145.088 12.6111C143.765 11.9732 142.442 11.4334 141.119 10.9427L140.09 10.5501V15.359C140.776 15.6044 141.315 15.8497 141.707 15.9969C142.295 16.2423 142.834 16.5858 143.275 17.0274C143.667 17.42 143.863 17.9597 143.863 18.4995C143.863 19.2846 143.52 20.0207 142.932 20.5114C142.295 21.051 141.364 21.2964 140.139 21.2964V25.6148C142.785 25.5657 144.892 24.9278 146.46 23.6519C148.077 22.3762 149.008 20.4132 148.91 18.3032C148.91 17.0765 148.518 15.8007 147.685 14.7702Z" fill="white"/>
<path d="M139.012 21.2963C138.081 21.1984 137.199 20.9039 136.464 20.3641C135.631 19.8243 135.141 18.941 135.141 17.9596V17.4199C135.141 17.1745 134.945 16.9782 134.7 16.9782H130.633C130.535 16.9782 130.388 17.0273 130.339 17.1254C130.241 17.2236 130.192 17.3217 130.241 17.4199V18.205C130.192 19.628 130.633 21.0018 131.417 22.1796C132.25 23.3573 133.377 24.2897 134.749 24.7804C136.121 25.3203 137.591 25.6636 139.061 25.6636V21.2963H139.012Z" fill="white"/>
</g>
<defs>
<clipPath id="clip0_816_6856">
<rect width="169" height="25.7174" fill="white"/>
</clipPath>
</defs>
</svg>
