<svg width="156" height="25" viewBox="0 0 156 25" fill="none" xmlns="http://www.w3.org/2000/svg">
<g clip-path="url(#clip0_816_6836)">
<path d="M7.58317 24.264C9.70608 24.264 11.3733 23.8185 12.5849 22.9275C13.7964 22.0365 14.4022 20.81 14.4022 19.248C14.4022 17.95 14.0323 16.9215 13.2925 16.1625C12.5527 15.4035 11.3787 14.837 9.77041 14.463L7.1007 13.836C6.45739 13.66 6.00708 13.473 5.74976 13.275C5.49244 13.077 5.36378 12.802 5.36378 12.45C5.36378 11.966 5.57821 11.592 6.00708 11.328C6.43595 11.064 7.02564 10.932 7.77617 10.932C9.40587 10.932 11.057 11.526 12.7296 12.714L14.0162 9.41403C13.1585 8.77603 12.1935 8.28103 11.1213 7.92903C10.0492 7.57703 8.94483 7.40103 7.80833 7.40103C6.47884 7.40103 5.29409 7.62103 4.25408 8.06103C3.21407 8.50103 2.40994 9.10603 1.84169 9.87603C1.27344 10.646 0.989313 11.537 0.989313 12.549C0.989313 13.825 1.34849 14.8315 2.06685 15.5685C2.7852 16.3055 3.90562 16.85 5.42811 17.202L8.00132 17.796C8.79473 17.972 9.33618 18.17 9.62566 18.39C9.91515 18.61 10.0599 18.918 10.0599 19.314C10.0599 19.754 9.85082 20.1005 9.43267 20.3535C9.01452 20.6065 8.43019 20.733 7.67967 20.733C6.62894 20.733 5.58893 20.568 4.55965 20.238C3.53036 19.908 2.58685 19.446 1.72911 18.852L0.442505 22.284C1.32169 22.922 2.36705 23.4115 3.57861 23.7525C4.79016 24.0935 6.12502 24.264 7.58317 24.264ZM22.2183 4.66203V0.0090332H17.0076V4.66203H22.2183ZM22.0253 24V7.79703H17.1684V24H22.0253ZM33.9265 24.264C34.5483 24.264 35.1702 24.22 35.792 24.132L36.0494 20.502C35.5133 20.568 34.9986 20.601 34.5054 20.601C32.7471 20.601 31.8679 19.633 31.8679 17.697V11.526H35.8242V7.79703H31.8679V3.04503H27.0109V7.79703H24.0196V11.526H27.0109V17.73C27.0109 19.93 27.5631 21.569 28.6674 22.647C29.7718 23.725 31.5248 24.264 33.9265 24.264ZM46.0206 24.264C47.1356 24.264 48.2453 24.088 49.3497 23.736C50.454 23.384 51.3921 22.9 52.1641 22.284L50.8775 18.951C50.2128 19.457 49.4783 19.8475 48.6742 20.1225C47.8701 20.3975 47.0606 20.535 46.2457 20.535C45.002 20.535 44.0424 20.2435 43.3669 19.6605C42.6915 19.0775 42.2787 18.137 42.1286 16.839H52.4214V15.618C52.4214 13.088 51.7728 11.086 50.4754 9.61203C49.1781 8.13803 47.4251 7.40103 45.2164 7.40103C43.7154 7.40103 42.3752 7.75853 41.1958 8.47353C40.0164 9.18853 39.0943 10.184 38.4296 11.46C37.7648 12.736 37.4325 14.199 37.4325 15.849C37.4325 18.445 38.1991 20.4965 39.7323 22.0035C41.2655 23.5105 43.3616 24.264 46.0206 24.264ZM48.3365 14.364H42.1286C42.2572 13.22 42.595 12.3455 43.1418 11.7405C43.6886 11.1355 44.423 10.833 45.3451 10.833C46.2672 10.833 46.9802 11.13 47.4841 11.724C47.988 12.318 48.2721 13.198 48.3365 14.364Z" fill="white"/>
<path d="M95.4024 24.264C97.5253 24.264 99.1925 23.8185 100.404 22.9275C101.616 22.0365 102.221 20.81 102.221 19.248C102.221 17.95 101.851 16.9215 101.112 16.1625C100.372 15.4035 99.1979 14.837 97.5896 14.463L94.9199 13.836C94.2766 13.66 93.8263 13.473 93.569 13.275C93.3116 13.077 93.183 12.802 93.183 12.45C93.183 11.966 93.3974 11.592 93.8263 11.328C94.2551 11.064 94.8448 10.932 95.5954 10.932C97.2251 10.932 98.8762 11.526 100.549 12.714L101.835 9.41403C100.978 8.77603 100.013 8.28103 98.9405 7.92903C97.8684 7.57703 96.764 7.40103 95.6275 7.40103C94.298 7.40103 93.1133 7.62103 92.0733 8.06103C91.0333 8.50103 90.2291 9.10603 89.6609 9.87603C89.0926 10.646 88.8085 11.537 88.8085 12.549C88.8085 13.825 89.1677 14.8315 89.886 15.5685C90.6044 16.3055 91.7248 16.85 93.2473 17.202L95.8205 17.796C96.6139 17.972 97.1554 18.17 97.4449 18.39C97.7343 18.61 97.8791 18.918 97.8791 19.314C97.8791 19.754 97.67 20.1005 97.2519 20.3535C96.8337 20.6065 96.2494 20.733 95.4989 20.733C94.4481 20.733 93.4081 20.568 92.3788 20.238C91.3496 19.908 90.406 19.446 89.5483 18.852L88.2617 22.284C89.1409 22.922 90.1862 23.4115 91.3978 23.7525C92.6094 24.0935 93.9442 24.264 95.4024 24.264ZM111.067 24.264C113.19 24.264 114.857 23.8185 116.068 22.9275C117.28 22.0365 117.886 20.81 117.886 19.248C117.886 17.95 117.516 16.9215 116.776 16.1625C116.036 15.4035 114.862 14.837 113.254 14.463L110.584 13.836C109.941 13.66 109.491 13.473 109.233 13.275C108.976 13.077 108.847 12.802 108.847 12.45C108.847 11.966 109.062 11.592 109.491 11.328C109.92 11.064 110.509 10.932 111.26 10.932C112.89 10.932 114.541 11.526 116.213 12.714L117.5 9.41403C116.642 8.77603 115.677 8.28103 114.605 7.92903C113.533 7.57703 112.428 7.40103 111.292 7.40103C109.962 7.40103 108.778 7.62103 107.738 8.06103C106.698 8.50103 105.894 9.10603 105.325 9.87603C104.757 10.646 104.473 11.537 104.473 12.549C104.473 13.825 104.832 14.8315 105.55 15.5685C106.269 16.3055 107.389 16.85 108.912 17.202L111.485 17.796C112.278 17.972 112.82 18.17 113.109 18.39C113.399 18.61 113.544 18.918 113.544 19.314C113.544 19.754 113.334 20.1005 112.916 20.3535C112.498 20.6065 111.914 20.733 111.163 20.733C110.113 20.733 109.073 20.568 108.043 20.238C107.014 19.908 106.07 19.446 105.213 18.852L103.926 22.284C104.805 22.922 105.851 23.4115 107.062 23.7525C108.274 24.0935 109.609 24.264 111.067 24.264ZM125.702 4.66203V0.0090332H120.491V4.66203H125.702ZM125.509 24V7.79703H120.652V24H125.509ZM135.319 24.264C137.442 24.264 139.109 23.8185 140.321 22.9275C141.533 22.0365 142.138 20.81 142.138 19.248C142.138 17.95 141.768 16.9215 141.029 16.1625C140.289 15.4035 139.115 14.837 137.507 14.463L134.837 13.836C134.194 13.66 133.743 13.473 133.486 13.275C133.229 13.077 133.1 12.802 133.1 12.45C133.1 11.966 133.314 11.592 133.743 11.328C134.172 11.064 134.762 10.932 135.512 10.932C137.142 10.932 138.793 11.526 140.466 12.714L141.752 9.41403C140.895 8.77603 139.93 8.28103 138.858 7.92903C137.785 7.57703 136.681 7.40103 135.545 7.40103C134.215 7.40103 133.03 7.62103 131.99 8.06103C130.95 8.50103 130.146 9.10603 129.578 9.87603C129.01 10.646 128.725 11.537 128.725 12.549C128.725 13.825 129.085 14.8315 129.803 15.5685C130.521 16.3055 131.642 16.85 133.164 17.202L135.737 17.796C136.531 17.972 137.072 18.17 137.362 18.39C137.651 18.61 137.796 18.918 137.796 19.314C137.796 19.754 137.587 20.1005 137.169 20.3535C136.751 20.6065 136.166 20.733 135.416 20.733C134.365 20.733 133.325 20.568 132.296 20.238C131.267 19.908 130.323 19.446 129.465 18.852L128.179 22.284C129.058 22.922 130.103 23.4115 131.315 23.7525C132.526 24.0935 133.861 24.264 135.319 24.264ZM153.075 24.264C153.696 24.264 154.318 24.22 154.94 24.132L155.197 20.502C154.661 20.568 154.147 20.601 153.654 20.601C151.895 20.601 151.016 19.633 151.016 17.697V11.526H154.972V7.79703H151.016V3.04503H146.159V7.79703H143.168V11.526H146.159V17.73C146.159 19.93 146.711 21.569 147.816 22.647C148.92 23.725 150.673 24.264 153.075 24.264Z" fill="white"/>
<path d="M74.5377 0.249878H69.3885C68.3299 0.249878 67.4717 1.10804 67.4717 2.16663C67.4717 2.44102 67.5306 2.71221 67.6445 2.96187L76.8292 23.1045C77.1407 23.7876 77.8224 24.226 78.5732 24.226H83.7225C84.7811 24.226 85.6392 23.3678 85.6392 22.3092C85.6392 22.0348 85.5803 21.7636 85.4665 21.514L76.2817 1.37139C75.9702 0.688245 75.2885 0.249878 74.5377 0.249878Z" fill="white"/>
<path fill-rule="evenodd" clip-rule="evenodd" d="M68.6982 0.249939H73.8474C74.906 0.249939 75.7642 1.1081 75.7642 2.16669C75.7642 2.44108 75.7053 2.71227 75.5914 2.96193L66.4066 23.1045C66.0951 23.7877 65.4134 24.226 64.6626 24.226H59.5134C58.4548 24.226 57.5966 23.3679 57.5966 22.3093C57.5966 22.0349 57.6555 21.7637 57.7694 21.514L66.9542 1.37145C67.2657 0.688306 67.9473 0.249939 68.6982 0.249939Z" fill="white"/>
<path d="M72.1818 15.7508L75.7225 23.3408C75.8716 23.6606 75.7333 24.0408 75.4136 24.1899C75.329 24.2294 75.2368 24.2498 75.1435 24.2498H68.0621C67.7093 24.2498 67.4232 23.9638 67.4232 23.6109C67.4232 23.5176 67.4437 23.4254 67.4831 23.3408L71.0238 15.7508C71.173 15.431 71.5531 15.2927 71.8729 15.4419C72.009 15.5054 72.1183 15.6147 72.1818 15.7508Z" fill="white"/>
</g>
<defs>
<clipPath id="clip0_816_6836">
<rect width="155.952" height="25" fill="white"/>
</clipPath>
</defs>
</svg>
