<?xml version="1.0" encoding="UTF-8"?>
<svg width="192px" height="32px" viewBox="0 0 192 32" version="1.1" xmlns="http://www.w3.org/2000/svg" xmlns:xlink="http://www.w3.org/1999/xlink">
    <title>toyota-logo</title>
    <g id="Page-1" stroke="none" stroke-width="1" fill="none" fill-rule="evenodd">
        <g id="toyota-logo" fill="#FFFFFF" fill-rule="nonzero">
            <path d="M22.7123613,29.9645131 C20.1710262,28.3730209 18.2996335,22.8800995 18.2996335,16.3544764 C18.2996335,16.1149948 18.300644,15.8785445 18.3067068,15.6431047 L18.3097382,15.6461361 C11.2425026,14.5356283 6.13558115,11.492089 6.00523037,7.89380105 L5.98401047,7.93523037 C4.25408377,10.0845026 3.2668534,12.5692513 3.2668534,15.2166859 C3.2668534,23.0074188 11.8184712,29.3905654 22.6658796,29.9554188 L22.7123613,29.9645131 Z M0,15.7855812 C0,7.06824607 10.8484188,0 24.2310995,0 C37.6137801,0 48.462199,7.06824607 48.462199,15.7855812 C48.462199,24.5029162 37.6137801,31.5711623 24.2310995,31.5711623 C10.8484188,31.5711623 0,24.5029162 0,15.7855812 Z M24.2310995,2.27760209 C26.8148743,2.27760209 29.0116387,6.19620942 29.8260785,11.6648796 L29.8291099,11.6567958 C34.8551937,10.8746911 38.3746649,9.06897906 38.3746649,6.9692199 C38.3746649,4.15000524 32.0420419,1.86836126 24.2310995,1.86836126 C16.4201571,1.86836126 10.087534,4.15101571 10.087534,6.9692199 C10.087534,9.06897906 13.6059948,10.8736806 18.633089,11.6567958 L18.6361204,11.6648796 C19.4505602,6.1972199 21.6483351,2.27760209 24.2310995,2.27760209 Z M25.7953089,29.9554188 C36.6427173,29.3905654 45.1953455,23.0074188 45.1953455,15.2166859 C45.1953455,12.5692513 44.2071047,10.0845026 42.4781885,7.93523037 L42.4569686,7.89380105 C42.3266178,11.492089 37.2207068,14.5356283 30.1524607,15.6461361 L30.1554921,15.6431047 C30.1605445,15.8785445 30.1625654,16.1149948 30.1625654,16.3544764 C30.1625654,22.8800995 28.2891518,28.3730209 25.7498377,29.9645131 L25.7953089,29.9554188 Z M24.2310995,12.071089 C25.3890995,12.071089 26.5137539,12.0215759 27.5899058,11.9265916 L27.5888953,11.9276021 C27.0533455,8.42227749 25.7518586,5.94864398 24.2310995,5.94864398 C22.7103403,5.94864398 21.4098639,8.42227749 20.8733037,11.9276021 L20.8722932,11.9265916 C21.948445,12.0215759 23.0730995,12.071089 24.2310995,12.071089 Z M24.2310995,25.0516021 C26.1762565,25.0516021 27.7626963,21.0036545 27.8475759,15.9270471 L27.8576806,15.9300785 C26.685534,16.038199 25.4729686,16.0957958 24.2310995,16.0957958 C22.9892304,16.0957958 21.7766649,16.0392094 20.6045183,15.9300785 L20.6156335,15.9270471 C20.6995026,21.0046649 22.2859424,25.0516021 24.2310995,25.0516021 Z" id="Shape"></path>
            <path d="M123.643277,15.7855812 C123.643277,9.12253403 129.045257,3.72156545 135.707293,3.72156545 C142.372361,3.72156545 147.77333,9.1235445 147.77333,15.7855812 C147.77333,22.4496387 142.371351,27.8495969 135.707293,27.8495969 C129.045257,27.8495969 123.643277,22.4486283 123.643277,15.7855812 Z M135.707293,23.4257539 C139.428859,23.4257539 142.445115,20.0042984 142.445115,15.7845707 C142.445115,11.5658534 139.428859,8.14338743 135.707293,8.14338743 C131.987749,8.14338743 128.972503,11.5648429 128.972503,15.7845707 C128.972503,20.0042984 131.988759,23.4257539 135.707293,23.4257539 Z" id="Shape"></path>
            <polygon id="Path" points="161.463194 8.74764921 161.463194 27.3019215 156.380524 27.3019215 156.380524 8.74764921 156.397702 8.74764921 149.289037 8.74764921 149.289037 4.55217277 168.554681 4.55217277 168.554681 8.74663874 161.481382 8.74663874 161.463194 8.74663874"></polygon>
            <path d="M174.703398,22.1838848 L174.698346,22.1889372 L172.748136,27.3029319 L166.811618,27.3029319 L176.196874,4.55318325 L179.36167,4.55318325 L182.523435,4.55318325 L191.909702,27.3029319 L185.972173,27.3029319 L184.021963,22.1889372 L184.016911,22.1838848 L179.36167,22.1838848 L174.703398,22.1838848 Z M179.36167,18.3440942 L182.559812,18.3440942 L182.557791,18.3451047 L179.38289,10.018822 L179.338429,10.018822 L176.161508,18.3451047 L176.160497,18.3440942 L179.36167,18.3440942 Z" id="Shape"></path>
            <polygon id="Path" points="67.7591675 8.74764921 67.7591675 27.3019215 62.6754869 27.3019215 62.6754869 8.74764921 62.6926649 8.74764921 55.5829895 8.74764921 55.5829895 4.55217277 74.849644 4.55217277 74.849644 8.74663874 67.7763455 8.74663874 67.7591675 8.74663874"></polygon>
            <path d="M76.1511309,15.7855812 C76.1511309,9.12253403 81.5531099,3.72156545 88.2171675,3.72156545 C94.8802147,3.72156545 100.282194,9.1235445 100.282194,15.7855812 C100.282194,22.4496387 94.8802147,27.8495969 88.2171675,27.8495969 C81.5531099,27.8495969 76.1511309,22.4486283 76.1511309,15.7855812 Z M88.2171675,23.4257539 C91.936712,23.4257539 94.9539791,20.0042984 94.9539791,15.7845707 C94.9539791,11.5658534 91.9377225,8.14338743 88.2171675,8.14338743 C84.4966126,8.14338743 81.480356,11.5648429 81.480356,15.7845707 C81.480356,20.0042984 84.4966126,23.4257539 88.2171675,23.4257539 Z" id="Shape"></path>
            <polygon id="Path" points="111.96223 27.3019215 114.539942 27.3019215 114.539942 18.7705131 114.539942 18.6634031 123.407838 4.55217277 117.47233 4.55217277 111.96223 14.1142618 106.453141 4.55217277 100.515613 4.55217277 109.384518 18.6634031 109.384518 18.7695026 109.384518 27.300911 111.96223 27.300911"></polygon>
        </g>
    </g>
</svg>