<?xml version="1.0" encoding="UTF-8"?>
<svg width="108px" height="120px" viewBox="0 0 108 120" version="1.1" xmlns="http://www.w3.org/2000/svg" xmlns:xlink="http://www.w3.org/1999/xlink">
    <title>unilever</title>
    <defs>
        <polygon id="path-1" points="0 0 107.566 0 107.566 120 0 120"></polygon>
    </defs>
    <g id="Client-logos-white" stroke="none" stroke-width="1" fill="none" fill-rule="evenodd">
        <g id="Artboard-Copy-8" transform="translate(-95.000000, -14.000000)">
            <g id="unilever" transform="translate(95.000000, 14.000000)">
                <g id="Clipped">
                    <mask id="mask-2" fill="white">
                        <use xlink:href="#path-1"></use>
                    </mask>
                    <g id="Path"></g>
                    <path d="M13.854,105.503193 C13.678,104.937479 13.164,103.665882 13.024,102.727059 C12.715,100.647731 13.793,99.2783193 14.783,98.9647059 C15.894,98.6521008 16.328,99.2147898 16.7579999,100.522689 C17.3140001,102.514286 17.376,105.124034 17.189,108.860168 C16.946,113.963698 14.414,120.127059 8.12000001,119.998992 C2.68700001,119.878992 0.28299999,116.33042 0.033,110.916302 C-0.08499999,108.364034 0.096,105.812773 1.14399999,102.204706 C1.70000001,100.272605 2.196,99.584874 3.921,99.2147898 C5.277,98.9647059 5.15500002,100.394622 4.848,102.080672 C4.17200001,105.812773 3.858,107.61479 4.10799999,111.849076 C4.35,116.33042 6.39100002,118.07395 8.613,118.07395 C11.946,118.138487 13.426,115.338151 14.046,111.288404 C14.535,108.053445 14.166,106.497479 13.854,105.503193 L13.854,105.503193 Z M84.918,109.923025 C86.2160001,109.923025 86.5879998,111.470924 86.2779999,112.408739 C85.968,113.340504 84.8589999,114.403361 83.1319998,114.712941 C82.7600001,113.777143 82.5740001,109.923025 84.918,109.923025 Z M60.792,112.032605 C60.792,110.978824 60.2330001,110.106555 59.5599999,110.106555 C58.998,110.106555 57.7070001,110.726723 57.7070001,112.719328 C57.7070001,114.280336 58.257,115.020504 58.509,115.338151 C60.294,114.775462 60.792,113.277983 60.792,112.032605 Z M41.5940001,99.3388236 C41.5070001,98.3405043 40.731,97.6608405 39.681,97.6608405 C38.5100001,97.6608405 37.407,98.9001681 37.524,100.457143 C37.599,101.483698 38.199,102.327732 39.378,102.327732 C40.731,102.328739 41.718,100.772773 41.5940001,99.3388236 Z M51.6310002,102.994286 C51.5240001,101.253782 51.1059999,100.468235 50.1789999,100.532773 C48.9499998,100.607395 48.3819999,104.506891 48.633,108.60605 C48.7929999,111.280336 49.188,111.692773 49.5560001,111.666555 C50.2359999,111.62521 51.867,106.847395 51.6310002,102.994286 Z M92.5719999,109.545882 C91.8070002,112.745546 89.4879999,117.452773 86.028,117.452773 C85.227,117.452773 83.8069998,117.13916 83.8069998,116.33042 C83.8069998,115.458151 89.2420002,115.338151 89.2420002,111.165378 C89.2420002,109.611429 87.8229999,107.430252 85.7229999,107.430252 C82.9460001,107.430252 80.2369998,110.482689 80.2369998,114.71395 C80.2369998,118.507563 82.5740001,119.752941 84.9189999,119.752941 C88.9940001,119.752941 91.4630001,116.389916 92.7579999,113.591597 C93.378,115.45916 93.7419999,119.752941 95.2910001,119.752941 C95.9060001,119.752941 96.3410001,119.441345 97.0820001,117.763361 C98.9290002,113.590588 100.721,108.798656 103.191,108.798656 C104.114,108.798656 103.561,110.482689 105.782,110.482689 C106.829,110.482689 107.567,109.611429 107.567,108.611093 C107.567,107.178151 106.273,106.061849 104.3,106.061849 C98.4970002,106.061849 97.2669999,114.837983 96.3399999,114.837983 C94.7959998,114.837983 95.2900002,107.80437 94.1770002,107.80437 C93.189,107.803361 92.7039999,108.990252 92.5719999,109.545882 L92.5719999,109.545882 Z M43.2,117.013109 C44.1250002,117.013109 45.7160001,116.710588 46.968,114.688739 C46.2520002,113.085378 45.741,109.845378 45.6699999,108.665546 C45.3020001,102.632269 47.607,96.9569748 50.13,96.7996638 C51.9800001,96.6867225 53.46,98.452437 53.6300001,101.313278 C54.0849999,108.830924 51.6020001,111.969076 50.3589999,114.676639 C50.5689999,115.726387 52.335,117.513278 54.0010002,117.513278 C54.6159999,117.513278 55.3599999,117.201681 55.5470001,116.94958 C55.4229999,116.516975 55.2970002,115.957311 55.2970002,115.145546 C55.2970002,110.789244 58.0749999,107.11563 60.483,107.11563 C62.3959998,107.11563 63.507,109.666891 63.507,111.350924 C63.507,113.339496 61.839,114.961008 59.3719998,116.516975 C59.8060002,116.94958 60.6039999,117.264202 61.2860001,117.264202 C64.8070002,117.264202 66.6489999,112.968404 68.013,109.045714 C68.259,108.297479 68.694,107.241681 69.5559999,107.241681 C71.037,107.241681 71.6569998,117.07563 74.1189999,117.07563 C75.1719999,117.07563 76.0340001,114.895462 76.0340001,113.219496 C76.0340001,111.973109 75.6020001,111.848067 75.6020001,110.043025 C75.6020001,108.053445 76.6519998,106.374454 78.075,106.374454 C78.9380001,106.374454 79.2500001,107.241681 79.2500001,108.297479 C79.2500001,112.281681 76.407,119.689412 72.216,119.689412 C69.063,119.689412 69.309,114.211765 68.199,114.211765 C66.9589998,114.211765 65.2309998,119.750924 59.127,119.750924 C58.1349999,119.750924 57.0879999,119.253782 56.226,118.255462 C54.747,119.253782 53.5089999,119.689412 52.089,119.689412 C49.8079998,119.689412 48.8180001,117.323698 47.895,117.323698 C46.782,117.323698 45.5510001,119.750924 41.844,119.750924 C38.8820001,119.750924 38.388,115.771765 37.341,115.771765 C36.4130001,115.771765 34.9940001,119.750924 33.4519998,119.750924 C30.8559999,119.750924 30.306,112.84437 28.018,112.84437 C26.229,112.84437 20.574,119.858824 19.039,119.698487 C18.422,119.63395 18.1619999,119.169076 18.227,118.545882 C18.314,117.684706 19.049,115.379496 19.347,114.289412 C19.8460001,112.396639 20.304,110.322353 20.5600001,109.660841 C20.8139999,108.993278 21.4990001,108.517311 22.049,108.568739 C22.3259999,108.594958 22.4089999,109.116302 22.495,109.546891 C22.807,111.085714 23.2419999,112.65479 23.733,112.65479 C24.6000001,112.65479 27.463,107.114622 29.129,107.114622 C31.1690001,107.114622 31.413,115.830252 34.1890002,115.830252 C35.1170001,115.830252 35.7980001,114.711933 36.4130001,113.338487 C36.4759998,111.032269 37.0929999,107.740841 38.9439999,107.740841 C40.2410001,107.740841 40.8590001,110.663193 39.93,113.218487 C39.9279999,116.265882 41.901,117.013109 43.2,117.013109 L43.2,117.013109 Z" id="Shape" fill="#FFFFFF" fill-rule="nonzero" mask="url(#mask-2)"></path>
                </g>
                <path d="M86.5788939,18.7359523 C86.098098,18.7359523 85.4094468,18.7359523 85.030479,18.0446534 C84.7197462,17.4773845 84.8247234,16.5630238 84.24,16.1543978 C84.8247234,16.3111179 85.4430396,16.3111179 85.9238358,16.3111179 C87.4733004,16.3111179 88.95348,15.335223 90.0893343,15.335223 C90.8378223,15.335223 91.0792707,15.776539 91.0792707,16.2159321 C91.0803198,17.6033373 88.025481,18.7359523 86.5788939,18.7359523 L86.5788939,18.7359523 Z M87.3347304,22.2943631 C90.9071073,22.2943631 94.1781996,19.6810801 94.1781996,17.3831601 C94.1781996,16.3111179 93.626019,15.4304088 92.2161741,15.2727273 C92.4565722,15.5563618 92.5594497,15.776539 92.5594497,16.2803508 C92.5594497,18.0129247 89.6778234,19.9339474 86.5453011,19.9339474 C85.4094468,19.9339474 85.0651215,20.656975 85.0651215,21.0348338 C85.0651215,21.9174658 85.9952202,22.2943631 87.3347304,22.2943631 L87.3347304,22.2943631 Z M87.0607395,23.6173497 C87.5089926,26.6075301 92.4565722,30.6389856 93.7971321,30.5437998 C94.693638,30.4745739 95.0369139,26.6392588 95.0369139,23.6173497 C95.0369139,21.8857372 95.1408414,20.531022 94.1425074,20.215659 C92.5584003,23.1452665 88.4033991,23.7433027 87.0607395,23.6173497 L87.0607395,23.6173497 Z" id="Shape" fill="#FFFFFF" fill-rule="nonzero"></path>
                <path d="M13.6047533,44.7325362 C14.7388935,44.7325362 14.5053341,37.7918076 16.3421925,37.7918076 C16.7776942,37.7918076 16.9113024,38.2257942 16.9113024,38.7596181 C16.9113024,40.3274709 16.1422901,42.6308595 16.1422901,43.8971631 C16.1422901,44.5318431 16.3095553,44.7325362 16.6104289,44.7325362 C17.4130983,44.7325362 18.8154749,37.0909092 20.1841945,37.0909092 C20.6186763,37.0909092 20.8185786,37.5248958 20.8185786,37.9588824 C20.8185786,39.5603538 18.7828379,44.1640749 18.7828379,45.4650159 C18.7828379,45.6657093 18.8481121,45.8317653 19.0163972,45.8317653 C19.8517038,45.8317653 21.5212969,42.229473 22.05471,40.428327 C22.3555835,39.4931166 22.7564083,38.9918925 23.1245959,38.9918925 C23.4581065,38.9918925 23.76,39.3596604 23.76,40.1277963 C23.76,41.9289423 22.088367,46.1659146 20.6186763,49.0031271 C19.484536,51.2046411 17.7139718,54.3719277 17.7139718,56.1404742 C17.7139718,57.042066 17.8781774,57.9752388 19.1816227,59.1101238 C17.0438908,58.9766679 16.1759471,58.7769933 15.3753175,57.1093032 C11.800532,64.215069 21.9547588,63.5151894 18.4809443,69.8181819 C17.8455402,68.686353 12.8367608,67.5178494 12.8367608,60.9122886 C12.8367608,55.2073011 17.8455402,51.8709021 17.8455402,49.5033321 C17.8455402,49.0367457 17.6803148,48.6363777 17.245833,48.2696286 C16.1422901,47.3333994 16.108633,46.5683199 15.2406894,46.5683199 C14.6073251,46.5683199 13.8362729,48.0353166 14.6389423,49.3362576 C14.9071787,49.7702442 15.1407382,50.037156 15.1407382,50.437524 C15.1407382,51.3706971 13.6700276,53.8717227 12.6358385,53.8717227 C11.5996097,53.8717227 10.8,51.3065157 10.8,47.1673437 C10.8,43.4957766 11.6332667,39.7946658 12.6694955,39.7946658 C12.9693492,39.7946658 13.0693004,39.9943404 13.0693004,40.262271 C13.0693004,40.6962576 12.9367121,41.5621932 12.9367121,43.0302087 C12.9367121,44.5980615 13.3038797,44.7325362 13.6047533,44.7325362" id="Path" fill="#FFFFFF" fill-rule="nonzero"></path>
                <path d="M21.2764373,55.916922 C22.7051232,55.916922 23.893101,54.8532579 23.893101,52.4937441 L23.893101,48.9984006 C23.893101,47.6628072 23.9958169,46.1567343 24.8797969,45.0930705 C24.777081,45.5396628 24.777081,46.0186776 24.777081,46.4642241 C24.777081,49.4104788 26.4070486,51.4321722 26.4070486,54.2738385 C26.4070486,55.3343646 26.1009758,55.9179678 25.2875483,55.9179678 C24.5052467,55.9179678 24.5737241,55.1983998 24.4025307,55.1983998 C24.2676511,55.1983998 24.0632568,55.6429002 24.0632568,56.1229611 C24.0632568,56.8425291 24.5726864,57.9720837 25.9992973,57.9720837 C27.2235888,57.9720837 28.2071722,56.8425291 28.2071722,55.5749178 C28.2071722,52.4947902 25.8291415,49.0674291 25.8291415,45.7802163 C25.8291415,44.34108 26.2026542,43.3830507 26.5087271,42.6279225 C26.5087271,49.4449932 32.2504467,54.4108494 32.2504467,57.2525154 C32.2504467,57.904101 31.7752557,58.418676 31.0614312,58.418676 C30.2801673,58.418676 29.9056173,57.8005587 29.9056173,57.3204978 C29.9056173,57.0809907 29.8713786,57.0130083 29.7697002,57.0130083 C29.5673808,57.0130083 28.9552351,57.6980622 28.9552351,58.590201 C28.9552351,59.7187095 29.8713786,61.0909092 31.5708612,61.0909092 C33.5058642,61.0909092 34.56,59.444688 34.56,57.9720837 C34.56,54.3773808 27.5950264,48.9304182 27.5950264,43.1090289 C27.5950264,42.1143936 27.7631071,40.5047784 28.4790064,39.2727273 C23.9937418,42.182376 22.6013696,46.0542378 22.6013696,49.4449932 C22.6013696,52.3912476 22.4996912,53.8617603 21.004603,53.8617603 C20.2223015,53.8617603 20.0189447,53.1442839 19.7460729,53.1442839 C19.5427161,53.1442839 19.44,53.7603096 19.44,53.9307885 C19.4420751,55.197354 20.3602937,55.916922 21.2764373,55.916922" id="Path" fill="#FFFFFF" fill-rule="nonzero"></path>
                <path d="M71.4846588,16.659814 C71.9168322,16.348723 73.8346005,16.8415625 76.3144017,15.5258372 C76.6198317,15.3463187 76.9263006,15.2727273 77.1984864,15.2727273 C78.3911184,15.2727273 78.0846495,16.7322904 79.1744319,16.7322904 C80.0231952,16.7322904 81.1150557,15.9651556 81.7622766,15.9651556 C82.7762211,15.9651556 84.24,19.3983066 84.24,21.0050525 C84.24,22.8671384 81.6251448,24 78.527211,24 C74.0049762,24 71.28,19.7640337 71.28,17.024426 C71.2810389,16.8058817 71.3838879,16.7322904 71.4846588,16.659814 L71.4846588,16.659814 Z M78.9022461,21.297188 C80.4003078,21.297188 81.5233347,20.566849 81.5233347,20.1275306 C81.5233347,19.9836929 81.3197145,19.8733058 80.8761138,19.8733058 C80.433552,19.8733058 79.5484281,19.837625 77.8799904,19.5443745 C76.4484168,19.2890344 75.359673,18.7047633 74.951394,18.7047633 C74.8153011,18.7047633 74.7467352,18.7772397 74.7467352,18.8865118 C74.7467352,19.837625 76.3819287,21.297188 78.9022461,21.297188 Z" id="Shape" fill="#FFFFFF" fill-rule="nonzero"></path>
                <path d="M22.267472,68.7124959 C21.1834571,68.9592462 19.44,70.5542112 19.44,73.0770705 C19.44,76.0859247 22.8917843,80.7272727 28.5778438,80.7272727 C33.3756135,80.7272727 34.56,77.6236587 34.56,75.5323782 C34.56,70.8938448 31.5046839,67.6363635 27.5279554,67.6363635 C25.3579182,67.6363635 23.4177324,69.111237 23.4177324,71.2916481 C23.4177324,73.3219443 25.0618215,76.3626981 28.9723048,76.3626981 C30.8131227,76.3626981 31.8971376,75.1317606 31.8971376,73.7225622 C31.8971376,72.3386955 30.5501487,70.4350581 28.5768401,70.4350581 C27.9856505,70.4350581 27.5590706,70.8000234 27.5590706,71.3864076 C27.5590706,72.121968 28.6420817,72.8612811 29.9910779,72.8612811 C30.3182898,72.8612811 30.5822676,72.799359 30.7147584,72.7374366 C30.7789962,72.8321964 30.8131227,72.9841872 30.8131227,73.1070933 C30.8131227,73.8145071 30.0894423,74.2451475 28.9723048,74.2451475 C27.2960966,74.2451475 25.6851301,73.0780086 25.6851301,71.2306638 C25.6851301,70.1273235 26.704907,69.3289029 28.1833829,69.3289029 C31.1082156,69.3289029 32.8496655,71.7551259 32.8496655,74.1841635 C32.8496655,76.3636362 31.5699255,77.6255349 28.9391821,77.6255349 C23.6797026,77.6245968 21.1182156,73.1990382 22.267472,68.7124959" id="Path" fill="#FFFFFF" fill-rule="nonzero"></path>
                <path d="M60.4582503,87.2166228 C62.0661921,87.2166228 61.9822638,87.0768192 62.485833,87.0768192 C62.9873553,87.0768192 63.022155,87.391644 63.022155,87.6018828 C63.022155,88.3713354 61.3783902,89.3147418 58.4623965,89.3147418 C56.753127,89.3147418 55.7132358,88.3702683 55.4123223,87.3222759 C53.7368289,88.4407035 51.1903239,89.4545454 48.6755481,89.4545454 C41.805717,89.4545454 40.0626714,86.3415174 37.916361,85.3308771 C36.2736198,84.5614242 33.7598673,86.0651121 30.24,81.975594 C30.7097934,82.0812471 31.3474431,82.1153973 31.8499887,82.1153973 C34.9317918,82.1153973 36.574533,80.5455435 36.574533,78.0269466 C36.574533,77.711055 36.5407569,77.3652816 36.5069811,77.0515242 C37.4465676,77.4357168 39.592878,79.111224 40.0964472,82.0812471 C40.1619522,82.4312892 41.5355091,82.7450466 42.4075437,82.7450466 C43.6152912,82.7450466 45.1567044,82.2199833 45.3910893,80.1602835 C49.4135022,79.8113085 52.1299104,77.3311311 52.7000082,74.1818181 C54.1390701,74.6716638 55.7818113,76.0344807 56.1840525,76.7356326 C56.7541503,76.5264609 57.4235289,76.4208078 58.1942358,76.4208078 C59.2668792,76.4208078 60.4746267,76.6310466 61.9147119,77.0856747 C61.9822638,76.6310466 62.0487921,76.0718328 62.7202182,76.0718328 C63.7253097,76.0718328 63.4571487,77.225478 63.7928616,77.8860762 C63.9607179,78.2361183 64.8,78.44529 64.8,79.1453745 C64.8,79.8113085 64.2606078,80.0567649 63.9259182,80.0567649 C63.791838,80.0567649 63.6239814,80.0215473 63.5226537,79.9873968 C62.8532748,80.2317861 62.8184754,85.261509 60.0038097,85.261509 C57.9270981,85.261509 56.0161962,83.4792816 55.1769141,81.2445606 C54.9425292,80.5807611 54.4399836,80.1602835 53.9701902,80.1602835 C53.4348921,80.1602835 53.132955,80.2659363 52.4973525,81.0001713 C50.6877783,83.0598711 47.6704566,84.8420985 43.9499805,84.8420985 C42.8097849,84.8420985 41.9049978,84.7353783 41.6695896,84.7353783 C41.5344855,84.7353783 41.5344855,84.7705959 41.5344855,84.8047464 C41.5344855,85.0502028 42.6736575,85.9946766 45.1546575,85.9946766 C51.0541965,85.9946766 52.4963289,82.5337407 53.4338685,82.5337407 C53.5699959,82.5337407 53.9691666,82.5337407 54.2035515,83.0940216 C55.5801789,86.4471702 58.5811242,87.2166228 60.4582503,87.2166228 L60.4582503,87.2166228 Z M57.8595462,80.2317861 C57.8595462,81.0012387 58.4634201,81.6308877 59.2013742,81.6308877 C59.9393283,81.6308877 60.5421786,81.0012387 60.5421786,80.2317861 C60.5421786,79.4612661 59.9393283,78.8316171 59.2013742,78.8316171 C58.4634201,78.8316171 57.8595462,79.4612661 57.8595462,80.2317861 Z" id="Shape" fill="#FFFFFF" fill-rule="nonzero"></path>
                <path d="M82.1039493,64.6247391 C81.6740634,64.6247391 81.2142072,64.9791882 81.2142072,65.8491102 C81.2142072,66.8103447 81.9203817,67.4230209 82.3184241,67.6144824 C82.5338355,67.7450688 82.8719376,67.8736914 83.2062933,67.8736914 C84.0969723,67.8736914 84.8040831,67.6144824 84.8040831,66.8417637 C84.8031468,65.8491102 83.4207681,64.6247391 82.1039493,64.6247391 L82.1039493,64.6247391 Z M78.7950444,66.6169194 C78.150684,66.6169194 74.5879683,71.6008065 72.2924331,71.6008065 C71.7407928,71.6008065 71.28,70.508004 71.28,69.6753924 C71.28,69.2247216 71.5553517,68.9026737 72.5396877,68.6758656 C77.8135182,67.4220393 76.6465509,63.2727273 81.1514568,63.2727273 C83.6352429,63.2727273 86.4,65.0439906 86.4,69.0293328 C86.4,73.2738843 80.6372793,78.5454546 79.7775072,78.5454546 C79.071333,78.5454546 78.3042816,77.485053 78.3042816,76.7781186 C78.3042816,76.5532743 78.397002,76.2636276 79.0104558,76.0063821 C81.9512883,74.7829929 83.6361795,71.9542737 83.6361795,70.5060402 C83.6361795,70.1839923 83.4835182,69.865872 83.0845392,69.865872 C82.5638058,69.865872 80.3310207,75.2012622 77.8434885,75.2012622 C76.123008,75.2012622 74.3734935,73.5654948 74.3734935,72.7917945 C74.3734935,71.5036029 79.3476213,69.1265364 79.3476213,67.3238538 C79.3466847,66.6473568 79.0404261,66.6169194 78.7950444,66.6169194 L78.7950444,66.6169194 Z" id="Shape" fill="#FFFFFF" fill-rule="nonzero"></path>
                <path d="M15.552334,21.6198523 C15.552334,21.6198523 14.6279714,22.3130899 13.47958,22.3130899 C12.1091078,22.3130899 11.0240289,21.3036048 11.0240289,19.8824196 C11.0240289,18.9028237 11.5344251,17.8933388 12.7139857,17.3871501 C12.6828165,17.5770913 12.6828165,17.7342509 12.6828165,17.9241922 C12.6818424,19.72526 13.7026348,21.0818459 15.552334,21.6198523 Z M22.378396,27.6825473 C21.6770882,28.5020911 20.9426631,29.8924228 20.9426631,31.312644 C20.9426631,33.0172947 21.9965728,34.437516 23.6232171,34.437516 C25.185575,34.437516 25.92,33.1117833 25.92,31.7551974 C25.92,29.6398105 23.973871,28.154026 22.378396,27.6825473 Z M11.7896231,28.9446446 C11.7292328,29.0420257 11.6931933,29.1664035 11.6931933,29.2927097 C11.6931933,29.5771396 12.012678,29.8924228 12.2980712,29.8924228 C12.5532694,29.8924228 12.7130117,29.8297519 12.8406107,29.8297519 C13.6052309,29.8297519 14.467255,30.3658299 15.7111022,30.3658299 C16.4435792,30.3658299 17.3056033,30.1440711 18.3897081,29.6089572 C20.686491,28.4712377 21.5806584,25.661649 21.5806584,25.1872778 C21.5806584,24.5866005 21.0936392,24.6656624 20.686491,24.1131934 C20.2793429,23.562653 20.435189,23.0757475 20.1760948,22.8183144 C20.029015,22.6707965 19.5712169,22.6611548 18.9955602,22.5975197 C18.8036746,22.5772722 18.5484765,22.5657021 18.2932784,22.5657021 C17.2422908,22.5657021 15.9945474,22.6939365 14.59388,23.5771156 C11.8276106,25.3251539 12.2347588,28.2186253 11.7896231,28.9446446 L11.7896231,28.9446446 Z M19.2848496,25.0291541 C19.5059562,25.3270823 20.1157044,25.6934666 20.1157044,25.9142614 C20.1157044,26.3548865 19.8585582,26.9247106 19.3491361,26.9247106 C18.2319139,26.9247106 17.3396947,25.2509131 17.3396947,24.3021706 C17.3396947,23.7034216 17.6913225,23.6407506 18.1686015,23.6407506 C18.3916562,23.6407506 18.4880861,23.6725682 18.6468543,23.7670568 C18.9332217,23.9251805 18.9332217,24.5557471 19.2848496,25.0291541 L19.2848496,25.0291541 Z M16.3490975,28.8819737 C15.2971359,28.8819737 14.1487445,27.5880589 14.1487445,26.4185218 C14.1487445,25.7879552 14.6269974,24.9973365 14.9776512,24.9973365 C15.1052503,24.9973365 15.1695368,25.0927892 15.2007061,25.3145481 C15.3916176,26.8610753 16.413384,27.7461825 17.3708639,28.1868079 C17.4663197,28.2494788 17.5306062,28.2812965 17.5306062,28.3439674 C17.5306062,28.5657263 16.9237802,28.8819737 16.3490975,28.8819737 L16.3490975,28.8819737 Z M19.0617947,20.9246864 C19.2205631,20.4184976 19.348162,19.7888952 19.348162,19.0927652 C19.348162,17.5780555 18.6449063,15.2727273 16.4766965,15.2727273 C15.2338234,15.2727273 14.338682,16.2513589 14.338682,17.4199318 C14.338682,19.9152013 16.8594937,20.9246864 19.0617947,20.9246864 L19.0617947,20.9246864 Z M10.8,33.554337 C10.8,35.9531895 11.5344251,37.0909092 12.8415848,37.0909092 C13.8623771,37.0909092 15.2338234,36.3639258 16.8594937,34.974558 C15.6166205,35.258988 14.6581666,35.4489291 13.7980906,35.4489291 C12.6496992,35.4489291 11.7574799,35.0063757 10.8,33.554337 Z M11.9172222,30.7437843 C11.886053,30.9028722 11.886053,31.0600317 11.886053,31.2171912 C11.886053,32.7010473 12.6818424,33.5225196 13.7347781,33.5225196 C14.5295935,33.5225196 15.4568782,33.0491124 16.2838369,32.0058816 C15.9351311,32.0685525 15.5192166,32.1003702 15.1364195,32.1003702 C13.9578329,32.1003702 12.6818424,31.7860509 11.9172222,30.7437843 L11.9172222,30.7437843 Z M19.7319333,30.3021948 C18.9965341,30.4911717 17.4663197,31.3753149 17.4663197,32.9536596 C17.4663197,34.0894509 18.358539,34.8173985 19.4757611,34.8173985 C20.0504438,34.8173985 20.4644103,34.6901283 20.7196084,34.5011511 C19.8273891,33.6488256 19.5079043,32.7010473 19.5079043,31.7551974 C19.5079043,31.0908852 19.6033601,30.6811131 19.7319333,30.3021948 Z M20.8793507,21.6507057 C20.8793507,22.3449073 21.4530593,22.9147313 22.154367,22.9147313 C22.8566488,22.9147313 23.4313316,22.3458716 23.4313316,21.6507057 C23.4313316,20.956504 22.8566488,20.38668 22.154367,20.38668 C21.4530593,20.38668 20.8793507,20.956504 20.8793507,21.6507057 Z M22.5371642,24.4921119 C22.5371642,25.1872778 23.112821,25.7561376 23.8160768,25.7561376 C24.5164105,25.7561376 25.0910933,25.1872778 25.0910933,24.4921119 C25.0910933,23.7988743 24.5164105,23.2300146 23.8160768,23.2300146 C23.1118469,23.2300146 22.5371642,23.7988743 22.5371642,24.4921119 L22.5371642,24.4921119 Z" id="Shape" fill="#FFFFFF" fill-rule="nonzero"></path>
                <path d="M72.9759498,42.3608085 C72.9759498,41.7080595 73.5606135,41.152125 74.2017615,41.152125 C74.9172315,41.152125 75.4691937,41.7080595 75.4691937,42.3608085 C75.4691937,43.1123679 74.9162406,43.6363635 74.2017615,43.6363635 C73.5606135,43.6363635 72.9759498,43.1123679 72.9759498,42.3608085 L72.9759498,42.3608085 Z M61.5819426,32.294103 C61.5819426,33.0127254 62.1675972,33.6015969 62.8791036,33.6015969 C63.5955642,33.6015969 64.1802279,33.0127254 64.1802279,32.294103 C64.1802279,31.5764784 63.5945733,30.9876069 62.8791036,30.9876069 C62.1675972,30.9876069 61.5819426,31.5764784 61.5819426,32.294103 Z M60.48,36.9022707 C60.48,37.9163268 61.3213212,38.764701 62.3291232,38.764701 C63.3339522,38.764701 64.1802279,37.9163268 64.1802279,36.9022707 C64.1802279,35.8902105 63.3339522,35.0388423 62.3291232,35.0388423 C61.3213212,35.0388423 60.48,35.8902105 60.48,36.9022707 Z M64.5696735,34.8102801 C64.5696735,35.9231472 65.4466692,36.8044581 66.543657,36.8044581 C67.6465905,36.8044581 68.5265592,35.9231472 68.5265592,34.8102801 C68.5265592,33.6994095 67.6465905,32.8171005 66.543657,32.8171005 C65.4466692,32.8171005 64.5696735,33.6994095 64.5696735,34.8102801 Z M64.7331813,30.5614239 C64.7331813,31.2491058 65.2851435,31.8060384 65.9599842,31.8060384 C66.6417615,31.8060384 67.193724,31.2491058 67.193724,30.5614239 C67.193724,29.8767362 66.6407709,29.3208017 65.9599842,29.3208017 C65.2851435,29.3208017 64.7331813,29.8767362 64.7331813,30.5614239 Z M70.6045929,27.4254345 C70.6045929,28.1101223 71.1565554,28.6660567 71.8393236,28.6660567 C72.5211012,28.6660567 73.0740543,28.1101223 73.0740543,27.4254345 C73.0740543,26.7377526 72.5211012,26.1818182 71.8393236,26.1818182 C71.1565554,26.1818182 70.6045929,26.7377526 70.6045929,27.4254345 Z M68.1688242,31.4457288 C68.1688242,32.5885386 69.110232,33.5357232 70.2468582,33.5357232 C71.384475,33.5357232 72.3268737,32.5885386 72.3268737,31.4457288 C72.3268737,30.2999253 71.3854659,29.3537386 70.2468582,29.3537386 C69.110232,29.3537386 68.1688242,30.2999253 68.1688242,31.4457288 Z M64.829304,39.0930714 C64.829304,39.8126922 65.4139677,40.3995675 66.1225011,40.3995675 C66.8369799,40.3995675 67.4226348,39.8126922 67.4226348,39.0930714 C67.4226348,38.3734509 66.8369799,37.7855775 66.1225011,37.7855775 C65.4139677,37.7855775 64.829304,38.3734509 64.829304,39.0930714 Z M69.0785214,36.4770855 C69.0785214,37.1967063 69.6621942,37.7855775 70.3786551,37.7855775 C71.092143,37.7855775 71.676807,37.1967063 71.676807,36.4770855 C71.676807,35.7594609 71.092143,35.1705897 70.3786551,35.1705897 C69.6621942,35.1705897 69.0785214,35.7594609 69.0785214,36.4770855 Z M67.8774834,41.0862513 C67.8774834,42.3278715 68.883303,43.3419279 70.1180337,43.3419279 C71.3517735,43.3419279 72.3605664,42.3278715 72.3605664,41.0862513 C72.3605664,39.8446311 71.3517735,38.8305747 70.1180337,38.8305747 C68.883303,38.8305747 67.8774834,39.8446311 67.8774834,41.0862513 L67.8774834,41.0862513 Z M72.5528115,38.3065791 C72.5528115,39.1579473 73.23558,39.8446311 74.0739285,39.8446311 C74.9182224,39.8446311 75.6,39.1579473 75.6,38.3065791 C75.6,37.4582052 74.9182224,36.7715211 74.0739285,36.7715211 C73.23558,36.7715211 72.5528115,37.4582052 72.5528115,38.3065791 Z M72.4556979,34.1884722 C72.4556979,34.9420278 73.0740543,35.5628379 73.8123162,35.5628379 C74.5604877,35.5628379 75.1778529,34.9420278 75.1778529,34.1884722 C75.1778529,33.4379106 74.5604877,32.8171005 73.8123162,32.8171005 C73.0740543,32.8171005 72.4556979,33.4379106 72.4556979,34.1884722 Z" id="Shape" fill="#FFFFFF" fill-rule="nonzero"></path>
                <path d="M76.0443699,77.7768822 C75.2336562,78.437673 73.3381851,79.9194156 70.1876301,79.9194156 C68.5043526,79.9194156 67.755489,79.3583481 67.5061851,79.3583481 C67.1940795,79.3583481 66.8515242,79.6877361 66.5080176,80.1178542 C65.7677181,81.0425586 64.8,82.7579955 64.8,84.6366156 C64.8,85.955175 65.7677181,87.2727273 67.5680352,87.2727273 C73.4009868,87.2727273 77.76,83.414757 77.76,80.2830522 C77.76,78.5031477 76.7627841,77.7768822 76.0443699,77.7768822 Z M74.4238944,77.4142533 C74.6760528,77.1866028 74.7350484,76.8209517 74.7350484,76.456308 L74.7350484,75.697809 C74.7350484,74.739864 73.3695861,74.1818181 71.4979032,74.1818181 C69.2208633,74.1818181 68.0047929,75.2676906 68.0047929,75.7310499 L68.0047929,77.2480482 C68.0047929,77.8766052 69.377868,78.5031477 71.0620968,78.5031477 C72.4028193,78.5031477 73.61889,78.1405188 74.4238944,77.4142533 Z M74.1726873,80.6799294 C74.3296917,80.6799294 74.5152423,80.7776379 74.5152423,81.372954 C74.5152423,82.0972047 74.2050396,83.0531352 73.0879296,83.8106271 C72.3086169,84.3737094 71.2476474,84.8360613 69.689022,84.8652732 C69.9383259,84.0765552 70.1257797,83.2495593 70.1257797,82.4618484 C70.1257797,82.1969277 70.0953303,81.9984891 70.0639296,81.702342 L70.4692863,81.702342 C72.9328284,81.7033494 73.9937973,80.6799294 74.1726873,80.6799294 L74.1726873,80.6799294 Z" id="Shape" fill="#FFFFFF" fill-rule="nonzero"></path>
                <path d="M60.5257725,39.2727273 C60.8985792,42.0985272 64.7685192,40.6683597 64.7685192,44.0934486 C64.7685192,44.5931946 64.6328589,45.3265617 64.6328589,45.9573387 C64.6328589,46.6896903 64.6991355,47.3214831 65.2707726,47.3214831 C65.8465518,47.3214831 65.9832474,46.9233114 65.9832474,46.3900458 C65.9832474,45.8567802 65.8465518,45.1924836 65.8465518,44.8268157 C65.8465518,43.6617573 66.6957222,43.3966479 67.2062604,43.3966479 C68.4955497,43.3966479 69.4793451,44.6937531 71.4148329,44.6937531 C70.9726428,46.8227526 66.4927497,46.2569832 66.4927497,48.5860842 C66.4927497,49.7511429 67.6805532,50.0152362 68.4613758,50.0152362 C69.1738509,50.0152362 69.4120329,49.9156932 69.4120329,49.3184358 C69.4120329,48.9842559 69.3436851,48.6185883 69.3436851,48.3859827 C69.3436851,48.2519046 69.4462068,48.118842 69.6160407,48.118842 C70.3647609,48.118842 74.0203371,50.8471305 74.0203371,51.6800406 C74.0203371,52.4438802 70.1586816,53.2087356 69.0392262,53.2087356 C68.6995578,53.2087356 68.63121,52.97613 68.63121,52.8430674 C68.63121,52.6104621 69.2080248,51.9116304 69.2080248,51.5134587 C69.2080248,51.2138142 68.6995578,51.0137124 67.3408848,51.0137124 C66.6957222,51.0137124 66.2203938,51.0807516 66.2203938,51.5804979 C66.2203938,52.476384 67.7136915,53.575419 67.7136915,54.405282 C67.7136915,55.0716102 67.3067109,55.4707974 66.2203938,55.4707974 C65.3039109,55.4707974 63.9183129,54.7709496 63.9183129,53.6079228 C63.9183129,52.6764855 64.8969303,51.7470798 64.8969303,51.1802946 C64.8969303,51.0137124 64.7674836,50.7475875 64.360503,50.7475875 C63.1033161,50.7475875 62.7646836,54.0060945 58.32,54.3727782 C59.0324748,53.7409854 59.6413923,53.0421534 59.6413923,51.6140172 C59.6413923,50.9151855 59.4736296,50.3484003 59.4736296,49.5845607 C59.4736296,48.5860842 59.9468868,48.0863382 60.6251877,48.0863382 C61.8792678,48.0863382 62.4902565,49.8151347 63.3073242,49.8151347 C63.7495143,49.8151347 64.2238071,49.4179788 64.2238071,48.8186898 C64.2238071,46.2905028 59.2706568,46.6561707 59.2706568,43.0970034 C59.2716927,42.1320468 59.6092896,40.9344843 60.5257725,39.2727273 L60.5257725,39.2727273 Z M76.701438,49.0187913 C76.701438,49.8486543 76.9748295,50.8136109 77.8229646,50.8136109 C78.5354394,50.8136109 79.1453925,49.7511429 79.1453925,48.5860842 C79.1453925,47.2554597 78.9082461,46.2234636 78.9082461,45.690198 C78.9082461,45.4586085 79.0107678,45.3590655 79.1453925,45.3590655 C79.6548951,45.3925851 80.1291879,46.7557137 80.6738997,46.7557137 C81.2848884,46.7557137 82.195158,45.6566787 82.5669291,45.6566787 C82.6694508,45.6566787 82.7025891,45.7907568 82.7025891,45.8232606 C82.7025891,46.3230066 81.9217665,47.4220416 81.9217665,47.8537329 C81.9217665,48.2194008 83.8903926,48.2854242 83.8903926,48.6185883 C83.8903926,49.1183343 81.8264934,49.1183343 80.8437339,49.5510411 C79.8941127,49.9492128 79.3141911,50.4479433 79.3141911,51.1142712 C79.3141911,51.7795836 79.9935276,51.9116304 80.9441844,51.9116304 C83.2100205,51.9116304 84.8048043,50.715084 85.313271,50.715084 C85.4147574,50.715084 85.4820699,50.7800913 85.4820699,50.8806501 C85.4820699,51.2138142 84.3294759,52.3108176 84.3294759,52.8105639 C84.3294759,53.3753175 86.433762,54.0385983 86.3995881,54.3727782 C86.3664498,54.4723209 86.2297542,54.5048247 85.9926075,54.5048247 C85.6177299,54.5048247 85.0419507,54.405282 84.5997606,54.405282 C84.3284403,54.405282 84.0912939,54.4377858 83.9877363,54.5708481 C83.7526611,54.8379888 84.0560844,56.6013207 83.5838625,56.6013207 C83.1416727,56.6013207 81.9880431,52.6764855 79.3825389,52.6764855 C79.0086966,52.6764855 78.7373763,52.97613 78.7373763,53.4748605 C78.7373763,54.8044692 80.0608398,56.3341797 81.3169911,57.0665313 C81.8855214,57.4332147 82.8372138,57.7988826 82.8372138,57.9999999 C82.8372138,58.3971558 80.6718285,58.0325037 80.6718285,58.6968003 C80.6718285,59.2960893 80.9431491,60.1960386 80.9431491,60.7262568 C80.9431491,60.892839 80.9089752,61.0909092 80.7060024,61.0909092 C80.2990218,61.0909092 79.3131555,59.2625697 78.8388627,59.2625697 C78.4318821,59.2625697 77.5495731,60.3595734 77.1757308,60.3595734 C77.0742447,60.3595734 77.0069322,60.2600304 77.0069322,60.1615035 C77.0069322,59.3956323 78.2630835,57.6668361 78.2630835,55.9695276 C78.2630835,55.1711529 78.1605618,53.4413409 77.1757308,53.4413409 C76.3617696,53.4413409 75.4442514,54.7049265 75.0372708,55.9695276 C74.8011597,56.7008634 74.9699583,59.5286949 74.4262821,59.5286949 C73.9178151,59.5286949 74.0534754,57.6333165 73.3731033,57.6333165 C72.8729211,57.6333165 71.786604,58.5302184 71.4127617,58.5302184 C71.3444139,58.5302184 71.2760658,58.4966988 71.2760658,58.4306754 C71.2760658,58.0325037 72.2608968,56.734383 72.2608968,56.4682581 C72.2608968,55.9695276 70.0209504,55.9035042 70.0209504,55.504317 C70.0209504,55.2706959 70.9032594,55.1051295 71.7172203,54.9710514 C73.4424867,54.6714069 75.986892,53.4413409 75.986892,51.7125444 C75.986892,49.7836464 74.0866137,48.9507363 72.8377113,48.1523616 C72.192549,47.7531741 71.4800742,47.4220416 71.4800742,47.1559167 C71.4800742,46.888776 72.2940351,46.888776 72.6337035,46.888776 C73.1421702,46.888776 73.6454592,46.8552564 73.6454592,46.4570847 C73.6454592,46.1564247 73.5771114,45.559167 73.5771114,45.0929406 C73.5771114,44.7597765 73.6102497,44.4936516 73.7479809,44.4936516 C74.2564479,44.4936516 74.9689227,46.1229051 75.3096267,46.1229051 C75.8512317,46.1229051 76.5978807,44.7922803 77.1084186,44.7922803 C77.2761816,44.7922803 77.345565,44.8928391 77.345565,45.1914678 C77.3476362,46.4225496 76.701438,47.8191978 76.701438,49.0187913 L76.701438,49.0187913 Z" id="Shape" fill="#FFFFFF" fill-rule="nonzero"></path>
                <path d="M61.7381949,57.0836145 C63.2228259,57.2872875 63.5782314,57.8280036 63.5782314,58.2694677 C63.5782314,59.0148906 62.9323974,59.2506138 62.3180673,59.2506138 C61.8681495,59.2506138 61.3512852,59.1492942 60.802917,59.1492942 C60.0921057,59.1492942 59.3842479,59.3188494 58.8043755,60.0301545 C59.2227894,60.0973563 59.8361349,60.403383 59.8361349,61.0816041 C59.8361349,63.0449304 54.645834,61.4176131 54.645834,66.4649847 C54.645834,69.138582 57.2902095,72.0520383 61.2863082,72.0520383 C63.3527802,72.0520383 64.6749681,71.3407332 64.6749681,70.5260406 C64.6749681,69.8840052 63.579216,70.3223676 63.579216,69.7806177 C63.579216,69.5438604 63.9661257,69.1023963 63.9661257,68.728134 C63.9661257,68.5647822 63.8371557,68.2577217 63.579216,68.2577217 C62.9963901,68.2577217 61.8996537,69.2368002 59.6746764,69.2368002 C57.9330903,69.2368002 56.2239927,68.1905199 56.2239927,66.7668756 C56.2239927,66.4629171 56.353947,66.2923278 56.5469097,66.2923278 C56.7408567,66.2923278 56.9978121,66.428799 57.2242479,66.428799 C57.4181952,66.428799 57.4496991,66.2923278 57.4496991,65.9211672 C57.4496991,65.5479387 57.4496991,64.4975229 58.0610757,64.4975229 C58.6754055,64.4975229 59.8361349,66.8681955 64.2880584,66.8681955 C65.7657975,66.8681955 68.6375934,66.5652705 69.7028259,65.5479387 C69.6703374,69.2729856 66.8940381,74.1818181 61.0933455,74.1818181 C55.0642479,74.1818181 51.84,69.1023963 51.84,64.4292873 C51.84,59.2506138 55.8685869,54.5454546 61.3837737,54.5454546 C62.8004739,54.5454546 63.9966453,55.0520526 63.9966453,55.6961559 C63.995661,56.5780503 61.8986691,56.0352666 61.7381949,57.0836145 L61.7381949,57.0836145 Z M71.6373747,58.880487 C71.8628259,59.2506138 71.9602917,59.623842 71.9602917,59.9619189 C71.9602917,60.9110151 71.3469462,61.7908416 71.3469462,62.7740553 C71.3469462,63.8906391 72.1542387,64.8035496 73.3740381,64.8035496 C74.696226,64.8035496 75.6,63.6890337 75.6,62.3667093 C75.6,60.5719044 74.0513763,59.0490084 71.6373747,58.880487 Z M60.9633909,61.0464525 C61.284339,61.3834953 61.3827894,61.7226057 61.3827894,62.0617164 C61.3827894,62.5693485 61.1573382,63.1121322 61.1573382,63.6879999 C61.1573382,64.4975229 61.7381949,65.2098618 62.5750227,65.2098618 C63.479781,65.2098618 64.0941111,64.4634051 64.0941111,63.5866803 C64.0941111,62.2995075 62.8319781,61.0464525 60.9633909,61.0464525 L60.9633909,61.0464525 Z M65.2489335,55.2898437 C68.6366088,55.9670307 70.475661,58.6426962 70.475661,61.1488059 C70.475661,62.876409 69.4439013,64.4644389 67.6363536,64.4644389 C65.9902641,64.4644389 64.8029535,63.2806536 64.8029535,61.3845291 C64.8029535,59.9629527 65.8603098,58.4731407 65.8603098,57.0164127 C65.8603098,56.4415791 65.6998359,55.8657111 65.2489335,55.2898437 Z M66.9265269,59.7933975 C66.9265269,60.2669118 67.2494439,60.64014 67.7013309,60.64014 C68.216226,60.64014 68.5401276,60.1655919 68.5401276,59.623842 C68.5401276,58.913571 67.9267821,57.9313911 67.3459251,57.9313911 C67.0870008,57.9313911 67.1844666,58.3377033 67.1204739,58.7781336 C67.0870008,59.1151764 66.9265269,59.5214886 66.9265269,59.7933975 L66.9265269,59.7933975 Z" id="Shape" fill="#FFFFFF" fill-rule="nonzero"></path>
                <path d="M31.0398597,26.5553551 C32.0943387,26.5553551 33.3032469,20.4881487 33.3032469,19.4652012 C33.3032469,19.2014096 33.211347,19.0030625 32.9943879,19.0030625 C32.0318088,19.0030625 30.6987777,24.7742584 30.6987777,26.0609976 C30.6978408,26.2915636 30.7594233,26.5553551 31.0398597,26.5553551 L31.0398597,26.5553551 Z M38.6410134,28.3686705 C39.4150557,28.3686705 40.2838401,25.2021648 40.2838401,23.2237278 C40.2838401,22.7948147 40.2222579,22.3346898 40.0346685,22.3346898 C39.3828435,22.3346898 38.2970994,25.5988589 38.2970994,27.3789487 C38.2980471,28.0716533 38.4543714,28.3686705 38.6410134,28.3686705 L38.6410134,28.3686705 Z M33.5808411,25.4337374 C33.9219123,25.4337374 34.3567785,25.0360364 35.1658755,24.0825608 C35.2265103,23.6536477 35.2265103,23.2569535 35.2265103,22.762596 C35.2265103,22.1041238 34.9782861,21.3781935 34.6068975,21.3781935 C33.6746355,21.3781935 33.2103996,24.0161094 33.2103996,24.7098209 C33.211347,25.1034946 33.3960942,25.4337374 33.5808411,25.4337374 L33.5808411,25.4337374 Z M37.8328635,24.0825608 C37.8328635,23.5207451 37.7078043,23.3888492 37.5846393,23.3888492 C37.2738855,23.3888492 36.9337617,23.7855435 36.4373133,24.6755883 C36.4988958,25.8626505 36.6855375,26.3902337 36.9953439,26.3902337 C37.3364154,26.3902337 37.8328635,25.2353903 37.8328635,24.0825608 L37.8328635,24.0825608 Z M40.2222579,20.1911315 C42.2705805,20.1911315 43.2,22.0708981 43.2,24.1812309 C43.2,25.1034946 42.9536706,26.4566849 42.5500695,26.4566849 C42.1464684,26.4566849 42.2089983,25.6975291 42.1464684,25.0048245 C42.0848862,24.1147795 41.9285619,23.9174392 41.6490729,23.9174392 C41.1213597,23.9174392 40.7812359,25.2353903 40.7812359,26.4566849 C40.7812359,27.2138273 40.905348,28.0716533 41.4624312,28.0716533 C41.773185,28.0716533 42.052674,27.9065319 42.2393157,27.7091916 C42.1152036,29.224483 41.0588301,30.5454546 39.5704326,30.5454546 C36.839967,30.5454546 35.8158057,27.1483828 35.5069467,25.1699459 C33.8622249,27.016487 32.3425626,28.3686705 29.6111498,28.3686705 C27.0682736,28.3686705 25.92,26.3902337 25.92,24.5114737 C25.92,23.9496581 26.1056945,22.4998112 26.758467,22.4998112 C27.5334569,22.4998112 26.8513143,25.2021648 28.3709766,25.2021648 C28.7442601,25.2021648 29.4245079,24.8719218 29.798739,23.7855435 C30.0156984,23.1250577 30.1398102,22.4343668 30.1398102,21.8393253 C30.1398102,20.9482736 29.9541159,20.3894786 29.3335557,20.3894786 C28.804895,20.3894786 28.1530699,20.816378 27.9361106,21.0479507 C28.6817304,18.6738264 30.4808817,17.4545455 32.4638325,17.4545455 C34.9176513,17.4545455 36.2194068,19.7622184 36.2194068,22.3346898 C36.2194068,22.6961446 36.188142,23.091832 36.1256121,23.4553006 C37.1810385,21.6087595 38.6410134,20.1911315 40.2222579,20.1911315 L40.2222579,20.1911315 Z" id="Shape" fill="#FFFFFF" fill-rule="nonzero"></path>
                <path d="M34.3589391,30.5454546 C32.8741806,30.5454546 32.8056372,32.2291665 32.8056372,35.6202765 C31.6994499,33.3907896 29.8709195,30.9984579 27.7291978,30.9984579 C26.2792385,30.9984579 25.7277265,31.9044648 25.7277265,33.4865223 C25.7277265,33.810237 25.7614711,34.2958092 25.8310691,34.5849813 C26.0040097,34.0372323 26.5565761,33.810237 27.2462294,33.810237 C28.7330968,33.810237 30.527883,34.8761274 31.7015589,36.331857 C30.3559968,36.1058487 29.0431245,35.8788537 27.9390464,35.8788537 C27.247284,35.8788537 26.626174,35.9439915 26.1084069,36.1699995 C25.1066167,36.5894472 23.76,37.9800393 23.76,40.0812249 C23.76,40.4049396 23.794799,40.7592495 23.864397,41.147115 C25.0728721,38.625495 28.283873,37.4944671 30.3559968,37.4944671 C30.7714761,37.4944671 31.0804491,37.527036 31.3229877,37.5596049 C30.2515998,38.4636378 30.0111702,40.047669 29.9405175,41.1145461 C29.9078275,41.6317005 29.6990333,41.6652561 29.3183531,41.6652561 C29.3183531,42.7301595 30.2178552,44.315178 30.2178552,45.1224912 C30.2178552,45.413637 30.0449145,45.6722142 29.8730285,45.737352 C29.8730285,47.1595257 31.3904769,48.1938342 31.3904769,49.0978671 C31.3904769,49.3238751 31.3229877,49.5183015 31.2175362,49.6160082 C31.3229877,50.1983001 32.9933409,51.1763529 33.2095167,51.6668598 C33.4752546,52.2629691 33.7736826,52.3636365 33.9466233,52.3636365 C34.5339885,52.3636365 35.4640716,51.7162065 35.4640716,51.1339146 C35.4640716,50.9404755 35.2911309,50.7144672 35.1550983,50.6167608 C34.4981349,50.1657312 34.1522538,49.1955735 33.8759706,48.5501178 C33.633432,48.5501178 33.3212952,48.4543851 33.2116257,48.073428 C33.0228675,47.4042858 33.0133767,46.1577864 32.7370935,45.413637 C32.2878699,45.3169173 32.0801301,45.1550601 32.0801301,44.2826091 C32.0801301,43.8621744 32.3574678,42.2130054 32.3574678,41.6307135 C32.1507828,41.6307135 31.8744996,41.5014249 31.8744996,41.1135594 C31.8744996,40.0802379 32.9806866,39.2719377 33.2896599,37.9474704 C35.2584411,39.3035196 35.7403548,40.6931247 35.7403548,41.9228463 C35.7403548,42.5673153 35.6370123,43.1821761 35.4988707,43.7654547 C36.9498846,43.0854564 39.1253505,42.0837168 39.1253505,40.047669 C39.1253505,38.8505163 38.5379853,37.526049 34.635222,37.0088949 C35.8436973,36.5884602 37.3643091,36.3634389 38.6413278,36.3634389 C40.8526476,36.3634389 42.1296663,37.0088949 42.404895,38.4626505 C42.8541189,37.8171951 43.2,37.0730457 43.2,36.3950211 C43.2,34.8100026 41.7827307,33.7776681 39.9879447,33.7776681 C37.8810219,33.7776681 36.016638,34.8100026 34.0130577,36.0722931 C34.9136142,34.3273914 35.5315605,33.2930829 36.6388023,33.2930829 C36.8106882,33.2930829 36.9836289,33.3256518 37.1565696,33.3582207 C36.7421448,31.9370337 35.1888429,30.5454546 34.3589391,30.5454546" id="Path" fill="#FFFFFF" fill-rule="nonzero"></path>
                <path d="M90.0193938,52.3636365 C91.6096971,52.3636365 92.88,54.662865 92.88,57.3532218 C92.88,60.2186139 91.6717575,63.3335934 89.5180605,65.4545454 C89.4860607,60.6788919 84.24,62.2001862 84.24,58.7340558 C84.24,57.2484168 85.1951517,56.2565505 86.339394,56.2565505 C87.3566061,56.2565505 88.1507877,56.5752873 88.722909,57.2138418 C88.1507877,56.6109426 87.8647272,55.7606169 87.8647272,54.9481077 C87.8647272,53.6007681 88.6278786,52.3636365 90.0193938,52.3636365" id="Path" fill="#FFFFFF" fill-rule="nonzero"></path>
                <path d="M59.2341435,21.2095167 C60.1504356,22.1039668 60.9571593,22.4960394 61.9432743,22.4960394 C62.3321343,22.4960394 62.7908175,22.3901034 63.0378834,22.3901034 C63.3547722,22.3901034 63.5642409,22.5320795 63.5642409,22.7821762 C63.5642409,23.1764331 63.2119038,23.8207866 62.7908175,24.1790035 C63.2119038,24.3570198 63.6705867,24.4291001 64.1636442,24.4291001 C66.161655,24.4291001 68.4496995,23.1403931 68.4496995,19.9229939 C68.8740084,20.493083 69.12,21.6747618 69.12,22.2120871 C69.12,26.1098799 66.3023751,27.6115512 63.7049613,27.6115512 C62.0152455,27.6115512 61.1687766,27.0381857 60.956085,27.0381857 C60.2890074,27.0381857 60.3244557,28.3989731 59.8668468,28.3629329 C59.0569005,28.2198645 58.32,26.3960165 58.32,24.4651401 C58.321074,23.3195015 58.6025145,22.1039668 59.2341435,21.2095167 L59.2341435,21.2095167 Z M64.5439107,18.5982467 C64.2624705,18.1330016 63.2119038,17.8839972 62.7209946,17.8839972 C61.1698506,17.8839972 60.113913,18.9914116 59.9033697,19.993982 C59.7626496,19.6357651 59.6573781,19.2065601 59.6573781,18.7773551 C59.6573781,17.2036036 60.713316,15.2727273 63.2849493,15.2727273 C65.5300257,15.2727273 66.4097952,16.488262 66.727758,16.488262 C67.0790214,16.488262 67.4313588,16.130045 67.713873,16.130045 C68.100585,16.130045 68.100585,16.7383586 68.100585,17.1686556 C68.100585,18.5982467 67.4657331,21.0664483 65.8823631,21.9608984 C65.5998489,21.3525851 65.0369682,20.6721914 64.1281956,20.2440785 C63.882204,20.1370502 63.7769325,19.9229939 63.7769325,19.7078454 C63.7758582,19.3135883 64.1271216,18.8123032 64.5439107,18.5982467 L64.5439107,18.5982467 Z" id="Shape" fill="#FFFFFF" fill-rule="nonzero"></path>
                <path d="M36.9755409,12.0620515 C36.9755409,13.2155154 41.112714,18.8519881 41.9082075,18.8519881 C42.5712873,18.8519881 43.0665756,17.6985242 43.0665756,16.7081155 C43.0665756,16.4464221 42.9998631,16.1837222 42.8694711,15.9844326 C42.2731035,15.1600985 38.0692182,11.8637685 37.141311,11.8637685 C37.0412424,11.8637685 36.9755409,11.9634133 36.9755409,12.0620515 Z M12.6457699,8.66708325 C12.6457699,9.32735577 10.1309187,11.5346387 9.23838906,11.5346387 C8.90785995,11.5346387 8.80678074,11.1400856 8.80678074,10.777741 C8.80678074,10.1194815 9.10496448,9.19550256 9.46986048,8.89757472 C9.89843643,8.50201512 10.8920453,8.3067516 11.6531719,8.3067516 C12.1161148,8.3067516 12.6457699,8.40337686 12.6457699,8.66708325 Z M42.8694711,10.5794579 C42.8694711,8.60065341 37.4991315,5.00840859 37.4394945,3.46039161 C37.43343,3.31847328 37.5112608,3.17756148 37.6315452,3.05174736 C38.5513662,2.08549488 42.3711504,1.38093579 42.3711504,0.55760817 C42.3711504,0.13084668 41.5756569,0.13084668 41.1784155,0.13084668 C38.1005529,0.13084668 33.5984838,1.25109561 33.5984838,2.33812965 C33.5984838,3.46039161 37.636599,6.19609389 37.636599,7.54784082 C37.636599,7.9101855 37.4051277,8.04203868 37.0402317,8.04203868 C35.9162307,8.04203868 33.4660701,6.68928525 32.307702,6.68928525 C31.7780469,6.68928525 31.57791,7.05162993 31.57791,7.58105574 C31.57791,9.16228764 33.4650594,12.1616963 33.4650594,13.0494408 C33.4650594,13.1490856 33.431703,13.2809387 33.2992893,13.2809387 C32.702922,13.2809387 29.8919085,9.98662179 28.8972887,9.98662179 C28.5344143,9.98662179 28.5000475,10.4798131 28.5000475,11.205509 L28.5000475,12.3257579 C28.5000475,13.0836622 28.4666912,13.5456517 28.1048276,13.5456517 C27.241611,13.5456517 26.8453804,11.1400856 26.0185523,11.1400856 C25.1573572,11.1400856 24.9915873,15.4238049 24.1657699,15.4238049 C23.2045065,15.4238049 24.0323454,10.7103046 23.1054488,10.7103046 C22.0794946,10.7103046 20.9201158,13.842573 20.1913345,13.842573 C19.9275178,13.842573 19.8618162,13.5778601 19.8618162,13.3473686 C19.8618162,12.3921878 20.422806,10.8431643 20.422806,9.92119842 C20.422806,9.45820245 20.2903922,9.19550256 19.8951724,9.19550256 C18.8671966,9.19550256 16.617173,10.8431643 15.7569888,10.8431643 C15.6245749,10.8431643 15.458805,10.777741 15.458805,10.6448813 C15.458805,9.85577508 19.0663227,7.34955777 19.0663227,6.22930881 C19.0663227,5.14026177 14.0992893,5.86696416 14.0992893,4.61284896 C14.0992893,3.55902987 17.644138,2.47098936 17.644138,1.38294882 C17.644138,0.42676149 13.4392419,0 11.817931,0 C9.86406951,0 8.80576995,0.22847844 8.80576995,0.78910617 C8.80576995,1.64665524 13.2421374,1.91136813 13.2421374,2.66826591 C13.2421374,3.39396174 8.64,5.33854482 8.64,6.45879378 C8.64,7.44819603 15.1272651,6.52421712 15.1272651,7.54784082 C15.1272651,8.66708325 9.46884969,13.5114302 9.46884969,15.1268836 C9.46884969,15.4902347 9.7336773,15.6553029 10.0965517,15.6553029 C11.817931,15.6553029 16.2846222,12.3921878 17.5107133,12.3921878 C17.9413109,12.3921878 17.974667,12.9185941 17.974667,13.3805835 C17.974667,14.2381326 17.6774941,15.5556581 17.6774941,16.5128519 C17.6774941,17.2697496 17.8756093,17.7971625 18.5366676,17.7971625 C19.7637694,17.7971625 20.8867597,15.7207262 21.7166202,15.7207262 C22.7749198,15.7207262 22.1462069,21.8181818 23.7351724,21.8181818 C25.0916557,21.8181818 25.6536562,15.2265284 26.5148513,15.2265284 C27.3760464,15.2265284 28.0724822,17.1378965 28.8659542,17.1378965 C29.8575415,17.1378965 29.3945985,13.8093581 30.4549197,13.8093581 C31.6122768,13.8093581 34.9226217,17.764954 36.4125297,17.764954 C36.8754726,17.764954 37.0402317,17.4016029 37.0402317,16.9396133 C37.0402317,15.1923069 34.5920928,11.2387239 34.5920928,9.98662179 C34.5920928,9.65749203 34.6901397,9.55784724 35.054025,9.55784724 C36.3448065,9.55784724 40.1201157,11.3373622 41.9061861,11.3373622 C42.5065965,11.3373622 42.8694711,11.0082324 42.8694711,10.5794579 Z M39.4257015,4.05322776 C39.4257015,4.64606391 41.5109661,5.9323875 42.4722297,5.9323875 C43.0342302,5.9323875 43.2,5.17347669 43.2,4.38235749 C43.2,3.39396174 42.7714242,3.36074685 41.9092182,3.36074685 C40.8165519,3.36074685 39.4257015,3.65766816 39.4257015,4.05322776 L39.4257015,4.05322776 Z M31.6466439,0.69046788 C31.6466439,0.49218483 30.6540459,0.29390178 29.2975626,0.29390178 C27.1455858,0.29390178 27.4437695,2.07643626 25.7891024,2.07643626 C24.0677231,2.07643626 24.4962991,0.22847844 22.3119768,0.22847844 C20.9878389,0.22847844 19.7647803,0.45997641 19.7647803,0.75589125 C19.7647803,1.15245735 21.3193788,0.98738922 21.3193788,2.07643626 C21.3193788,3.22889361 17.9756779,3.55902987 17.9756779,4.25151081 C17.9756779,4.48200228 18.2394946,4.58064057 18.5710345,4.58064057 C19.3008266,4.58064057 20.457173,4.25151081 21.2860227,4.25151081 C21.7499764,4.25151081 22.1805739,4.34914257 22.1805739,4.77791709 C22.1805739,5.60225124 20.3914714,7.08585135 20.3914714,7.74511737 C20.3914714,7.94340042 20.5562307,8.00983029 20.7220006,8.00983029 C21.3850804,8.00983029 22.5111029,6.3279471 23.5694025,6.3279471 C25.3241379,6.3279471 24.1667808,10.0520451 25.1250118,10.0520451 C26.1176098,10.0520451 25.6880232,6.39236394 27.1112188,6.39236394 C28.2716083,6.39236394 29.1307818,8.93078967 29.9252646,8.93078967 C30.1243908,8.93078967 30.2891499,8.76672804 30.2891499,8.53523004 C30.2891499,7.84476216 29.2965517,6.42557886 29.2965517,5.50361295 C29.2965517,4.94298522 29.6937931,4.67827233 30.2234484,4.67827233 C30.9835641,4.67827233 32.0105292,5.14026177 32.5715187,5.14026177 C32.7696342,5.14026177 32.9687604,5.07483843 32.9687604,4.84434696 C32.9687604,4.05322776 30.0253329,3.19668522 30.0253329,2.17507455 C30.0263439,1.15245735 31.6466439,1.15245735 31.6466439,0.69046788 L31.6466439,0.69046788 Z" id="Shape" fill="#FFFFFF" fill-rule="nonzero"></path>
                <path d="M91.2296673,6.21348756 C91.2296673,9.26677521 89.0067114,11.6010257 84.9901035,12.2529807 C85.4372076,12.2865218 85.848711,12.2865218 86.2612617,12.2865218 C90.9553317,12.2865218 92.6725467,10.1598068 92.6725467,8.37583992 C92.6725467,7.37904054 92.1228285,6.48810528 91.2296673,6.21348756 L91.2296673,6.21348756 Z M85.4372076,9.67870176 C85.4372076,7.24173171 79.6122885,6.6233178 79.6122885,6.07513056 C79.6122885,5.6296629 82.8645264,4.87289199 84.5450937,4.83830271 C81.9734592,1.54393845 78.3086709,1.88773467 78.3086709,1.30391001 C78.3086709,0.96011379 81.0530739,0.27252138 83.5870131,0.27252138 C85.7125905,0.27252138 87.7020468,0.75362643 87.7020468,2.36674341 C87.7020468,3.26082318 86.9816541,4.18844406 86.9816541,5.55943623 C86.9816541,6.315159 87.3565098,6.96711399 88.3543791,6.96711399 C89.4203091,6.96711399 89.6579967,5.83510209 89.6579967,4.63181538 C89.6579967,3.63816048 89.4873222,2.88243771 89.4873222,2.40133266 C89.4873222,0.96011379 90.4747209,1.33226763e-15 91.8819996,1.33226763e-15 C93.0484494,1.33226763e-15 93.323832,0.51254982 95.04,0.51254982 C94.1122848,1.06388154 93.7698891,2.05963278 93.7698891,2.53864152 C93.7698891,3.98195667 94.6986513,4.97665974 94.6986513,7.92932412 C94.6986513,13.3504033 89.62449,15.2727273 83.4152916,15.2727273 C81.7085475,15.2727273 79.8876711,15.1354184 78.1023957,14.8618489 C77.8291074,14.8272596 77.76,14.7591293 77.76,14.5872312 C77.76,14.1407154 80.1976077,13.8996388 80.1976077,11.7047935 C80.1976077,10.8453029 79.9222248,10.022498 79.9222248,9.71433918 C79.9222248,9.5424411 80.0593926,9.43867332 80.1976077,9.43867332 C80.7117249,9.43867332 81.7431012,11.4291276 83.6571678,11.4291276 C84.1660497,11.4291276 85.4372076,11.2572295 85.4372076,9.67870176 L85.4372076,9.67870176 Z M91.0244391,2.09422203 C91.0244391,2.57323077 91.4013888,2.95056807 91.8819996,2.95056807 C92.3626104,2.95056807 92.7406071,2.57323077 92.7406071,2.09422203 C92.7406071,1.61311695 92.3626104,1.23473148 91.8819996,1.23473148 C91.4013888,1.23473148 91.0244391,1.61311695 91.0244391,2.09422203 Z" id="Shape" fill="#FFFFFF" fill-rule="nonzero"></path>
                <path d="M88.3646808,33.4691454 C88.3646808,32.7513831 86.7006384,32.6834724 86.5445745,30.6639162 C86.5120212,30.3567516 86.4181914,29.8103325 86.0725533,29.8103325 C85.5086172,29.8103325 85.9471278,31.6919781 85.32,31.6919781 C83.8780851,31.6919781 83.4079788,28.6119721 82.8746808,28.6119721 C82.748298,28.6119721 82.5989364,28.7143604 82.5989364,29.1249582 C82.5989364,29.502123 82.6621278,29.7413772 82.6621278,30.1843632 C82.6621278,30.6304833 82.5663831,30.9386931 82.1910639,30.9386931 C81.3437235,30.9386931 80.5902129,28.7822709 79.868298,28.7822709 C79.7112768,28.7822709 79.5552129,28.8857039 79.5552129,29.0570476 C79.5552129,29.4676454 80.1813831,30.218841 80.1813831,30.5960058 C80.1813831,31.4182461 78.1420212,30.9721257 78.1420212,31.6575003 C78.1420212,31.9657098 78.4235109,32.0670531 78.8007447,32.0670531 C79.4604255,32.0670531 80.4963831,31.7609334 81.0296808,31.7609334 C81.3437235,31.7609334 81.8138298,31.8288438 81.8138298,32.2718298 C81.8138298,32.7513831 80.6840427,33.3667572 80.6840427,33.8118327 C80.6840427,34.017654 80.871702,34.1189976 81.0287235,34.1189976 C81.8760639,34.1189976 83.3754255,32.5121289 84.4420215,32.5121289 C84.6296811,32.5121289 85.0997874,32.6145171 85.0997874,32.9227266 C85.0997874,33.3667572 84.034149,34.1524305 84.034149,34.8033273 C84.034149,34.9746708 84.1298937,35.1794472 84.3175533,35.1794472 C84.8786169,35.1794472 85.6321278,33.5725785 86.6996811,33.5725785 C87.1075533,33.5725785 87.7040427,33.7439223 88.0190427,33.7439223 C88.2708513,33.7439223 88.3646808,33.5725785 88.3646808,33.4691454 Z M89.1804255,50.0633565 C89.6830851,48.3540993 90.3111705,47.1546942 91.3385106,45.3075264 C90.3111705,44.7276747 87.5795745,43.4937915 87.5795745,41.4752802 C87.5795745,39.1140819 90.2767023,37.2669141 90.8358513,37.2669141 C91.0876596,37.2669141 91.1498937,37.5072129 91.1498937,37.9522884 C91.1498937,39.1830372 90.6165957,41.1670707 90.6165957,42.2285652 C90.6165957,43.185582 91.1814894,44.1112557 91.6831917,44.1112557 C92.2164894,44.1112557 93.6909576,42.0582666 93.6909576,40.0387104 C93.6909576,36.4112409 90.7726596,35.3173581 89.8697871,35.3173581 C89.022447,35.3173581 87.4847874,36.8218386 83.8771278,36.8218386 C77.1376596,36.8218386 75.6,29.5366007 75.6,26.3531617 C75.6,26.2162959 75.6296811,26.1818182 75.6612768,26.1818182 C75.818298,26.1818182 76.4789361,27.073014 78.6111702,27.073014 C79.7093619,27.073014 80.7137235,26.7637595 82.3145745,26.7637595 C86.0706384,26.7637595 87.7346808,29.6055561 90.057447,33.2298915 C91.4620215,34.1869083 94.8207447,35.7279558 94.8207447,40.0731882 C94.8207447,43.9054341 91.0867023,46.0263339 90.1828725,50.1323118 C91.6190427,49.9620129 92.4673404,47.1546942 93.9418086,47.1546942 C94.6953192,47.1546942 95.04,47.805591 95.04,48.8336526 C95.04,50.3370882 94.2548937,52.5969432 92.7488298,53.9990355 C92.7794682,53.8621695 92.7794682,53.6897814 92.7794682,53.4850047 C92.7794682,52.5279882 92.4357447,51.1603734 91.4294682,51.1603734 C89.8678722,51.1603734 89.3661702,53.0075412 88.4881914,54.5454546 C87.5776596,51.0569403 86.3540427,47.9079792 84.1595745,45.9918561 C81.9392556,44.0423001 78.1094682,45.1017051 78.1094682,41.5442358 C78.1094682,40.5851292 78.6753192,39.2175147 78.6753192,38.1225873 C78.6753192,37.7464671 78.6121278,37.4037801 78.4225533,37.1300481 C81.4356384,38.3628864 80.3680851,40.5506517 82.2217023,42.8094621 C83.3754255,44.2481214 86.5752129,45.6157359 88.4259576,51.5344041 C88.4565957,51.3641052 88.4881914,50.9200746 88.4881914,50.6118651 C88.4881914,45.5478255 82.3452129,40.5851292 81.8119149,38.5321404 C85.3803192,38.9772159 86.007447,39.9363222 87.7021278,45.0682722 C88.0496811,46.1297667 89.1804255,48.7646973 89.1804255,50.0633565 L89.1804255,50.0633565 Z" id="Shape" fill="#FFFFFF" fill-rule="nonzero"></path>
                <path d="M69.6552081,13.4565967 C67.2986265,13.4565967 65.7511896,12.3227529 65.7511896,11.7375113 C65.7511896,11.4453856 65.9524488,11.2522856 66.2235327,11.2522856 C66.9628521,11.2522856 68.5780605,12.3534509 69.1150941,12.3534509 C69.2516628,12.3534509 69.3512655,12.2900744 69.3512655,12.0949939 C69.3512655,11.5107425 68.7793197,10.5383105 68.7793197,10.0530848 C68.7793197,9.92237097 68.8809762,9.82631607 69.0822354,9.82631607 C69.9899556,9.82631607 71.3361336,10.1828084 72.0446481,10.1828084 C72.2797929,10.1828084 72.3465369,10.0530848 72.3465369,9.92237097 C72.3465369,9.20938623 70.1583561,7.81510494 70.1583561,7.39325565 C70.1583561,7.00408482 72.8774097,6.41884317 72.8774097,5.80488408 C72.8774097,5.15527578 69.1808112,5.60980353 69.1808112,4.99287369 C69.1808112,4.53933618 69.8882991,3.76099449 69.8882991,3.40450215 C69.8882991,3.24210006 69.7527573,3.17773338 69.5186394,3.17773338 C69.2157237,3.17773338 67.6005153,3.79367298 66.926913,3.79367298 C66.5911389,3.79367298 66.1865667,3.7293063 66.1865667,3.27378825 C66.1865667,2.52812505 67.4988591,1.71809517 69.5525247,1.71809517 C72.8763828,1.71809517 74.8633062,3.92339658 74.8633062,7.62002439 C74.8653582,12.2900744 71.4727023,13.4565967 69.6552081,13.4565967 L69.6552081,13.4565967 Z M63.0999072,7.29621051 C63.0999072,6.93872787 61.785561,6.25842159 61.785561,5.86925076 C61.785561,5.80488408 61.8512781,5.77220562 61.9529349,5.77220562 C62.3246481,5.77220562 62.9643651,5.90192925 63.4705938,5.90192925 C63.9080244,5.90192925 63.9747684,4.08579867 64.3054086,4.08579867 C64.5405534,4.08579867 64.9430718,5.80488408 65.3158125,5.80488408 C65.7522162,5.80488408 66.5593071,5.31767784 66.8961081,5.31767784 C66.9628521,5.31767784 67.0306233,5.34936606 67.0306233,5.41571325 C67.0306233,5.64248202 66.1896471,6.51687858 66.1896471,6.77632581 C66.1896471,7.06845147 68.0749122,7.42593411 68.0749122,7.68538134 C68.0749122,8.01018549 66.1557618,7.97750703 66.1557618,8.26963272 C66.1557618,8.49442098 66.8632494,9.40347651 66.8632494,9.6956022 C66.8632494,9.76095915 66.8283372,9.79363761 66.7615932,9.79363761 C66.4915359,9.79363761 65.4493005,9.33811959 65.1463848,9.33811959 C64.7756982,9.33811959 64.1770548,10.6680342 63.8741391,10.6680342 C63.7735095,10.6680342 63.7067652,10.5383105 63.7067652,10.3759085 L63.6389943,9.0796626 C63.6389943,8.949939 63.5732769,8.81922513 63.4038495,8.81922513 C62.9992773,8.81922513 62.2250454,8.78654667 61.9878471,8.78654667 C61.8194463,8.78654667 61.7527011,8.75485845 61.7527011,8.6895015 C61.7516754,8.43005427 63.0999072,7.52297928 63.0999072,7.29621051 L63.0999072,7.29621051 Z M62.1213354,12.6119078 C62.6614494,12.6119078 62.762079,13.878446 62.8647624,14.623119 C62.9315064,15.0132801 62.9992773,15.0449683 63.1676781,15.0449683 C63.57225,15.0449683 64.2099132,13.5536419 64.6422102,13.5536419 C65.2798734,13.5536419 66.9977646,15.2727273 69.8574942,15.2727273 C73.9237524,15.2727273 77.76,12.5148627 77.76,7.65270288 C77.76,2.94997434 74.3252439,0.19310004 69.5874372,0.19310004 C67.3345659,0.19310004 65.6834184,1.26356739 64.8085569,1.26356739 C64.2776841,1.29624588 63.4705938,1.33226763e-15 63.0649947,1.33226763e-15 C62.8976211,1.33226763e-15 62.7292203,0.3218334 62.7292203,0.87439656 C62.7292203,1.2318792 62.7292203,2.36572299 62.3246481,2.36572299 C61.515504,2.36572299 58.3898247,0.1297236 58.3898247,0.93876324 C58.3898247,1.68541671 60.4722417,3.95607504 60.4722417,4.53933618 C60.4722417,5.12259729 58.4226834,5.67516048 58.4226834,6.06334107 C58.4226834,6.77632581 60.6077835,6.90604941 60.6077835,7.81510494 C60.6077835,8.72217999 58.32,9.43615497 58.32,10.1174515 C58.32,10.6680342 60.6077835,10.2798536 60.6077835,10.9601599 C60.6077835,11.6404661 58.9268583,13.9111245 58.9268583,14.557762 C58.9268583,14.7211543 58.959717,14.7211543 59.093205,14.7211543 C59.732922,14.7211543 61.6500192,12.6119078 62.1213354,12.6119078 L62.1213354,12.6119078 Z" id="Shape" fill="#FFFFFF" fill-rule="nonzero"></path>
                <path d="M48.6296307,70.1978583 C48.6296307,70.5098487 48.5372391,70.8567399 48.2927283,71.2015158 C47.9586261,70.5098487 47.009514,70.1629578 46.5811536,70.1640153 C43.4333118,70.1640153 44.6250681,75.3250782 41.2635126,75.3250782 C39.8580426,75.3250782 39.7348542,75.1167321 39.2169021,75.1167321 C39.0022554,75.1167321 38.88,75.2214339 38.88,75.4287225 C38.88,76.3308507 40.0110951,78.5454546 43.1589372,78.5454546 C46.306779,78.5454546 49.3332987,76.364694 49.3332987,73.6604238 C49.3332987,73.2098886 49.2418404,72.7286829 49.0579908,72.2432466 C49.1802462,72.0349005 49.4872845,71.8963557 49.7616591,71.8963557 C50.2497471,71.8963557 50.525055,72.5224518 50.9832792,72.5224518 C51.4732338,72.5224518 51.84,72.1047018 51.84,71.5515798 C51.84,71.098929 51.6262863,70.7890539 51.2604537,70.5785925 C51.5049642,70.3723614 51.6878808,70.0254705 51.6878808,69.6447363 C51.6878808,69.0535407 51.3201813,68.5025337 50.7079716,68.5025337 C50.4326637,68.5025337 50.2506804,68.6082933 50.036967,68.8451943 C49.9772391,68.2254438 49.6702008,67.6363635 49.0887879,67.6363635 C48.6305637,67.6363635 48.2927283,68.0160402 48.2927283,68.6072355 C48.2927283,69.157185 48.6296307,69.6098355 48.6296307,70.1978583" id="Path" fill="#FFFFFF" fill-rule="nonzero"></path>
                <path d="M30.3331347,64.368525 C32.8020651,65.07576 34.03653,66.6064728 34.2824808,68.4218181 C34.5293739,70.1643756 34.8375192,71.5897095 35.4236544,72.2991174 C36.1954308,73.2975027 37.7078862,74.1818181 39.035643,74.1818181 C40.1466618,74.1818181 41.04,73.7592153 41.04,72.5837496 C41.04,71.3018181 39.5284869,68.4207318 37.3064496,68.4207318 C37.0906536,68.4207318 36.8126634,68.4576687 36.5035761,68.4576687 C36.2255856,68.4576687 35.824149,68.3870538 35.5781982,68.1371859 C35.0853543,67.6374498 34.9298685,64.9692945 34.0044906,63.3690531 C32.9867637,61.5895587 31.8757449,61.0909092 30.3642318,61.0909092 C29.2852526,61.0909092 28.08,61.7655525 28.08,62.7628518 C28.08,63.371226 28.3579903,63.797088 30.3331347,64.368525 L30.3331347,64.368525 Z M38.9432937,72.3360543 C38.0160315,72.3360543 36.6279648,71.1953526 36.6279648,70.554387 C36.6279648,70.0198869 37.0604988,69.7352547 37.3978566,69.7352547 C38.170575,69.7352547 39.5577036,70.8411918 39.5577036,71.7657036 C39.5586417,72.0144852 39.4040979,72.3360543 38.9432937,72.3360543 L38.9432937,72.3360543 Z" id="Shape" fill="#FFFFFF" fill-rule="nonzero"></path>
                <path d="M37.2940074,47.0269695 C37.2940074,44.8691238 42.4250382,43.7232834 42.4250382,41.058921 C42.4250382,40.620351 42.2560305,39.8461623 41.9520228,39.2727273 C43.7389695,40.2497289 45.0559923,41.9031162 45.0559923,43.2507399 C45.0559923,45.5774244 42.6270228,46.6563471 42.6270228,48.1069215 C42.6270228,49.7922237 45.225,50.0619543 45.225,52.1518521 C45.225,53.8700985 42.7609923,55.8601341 42.7609923,58.0848975 C42.7609923,59.8041732 43.9770228,61.2187149 45.8309541,61.4555013 C45.2239695,61.5903669 44.685,61.6912584 44.1109923,61.6912584 C40.7009541,61.6912584 37.1919846,58.8940896 37.1919846,55.5554004 C37.1919846,53.904072 37.9009923,52.4565861 38.9789313,51.4106076 C39.9259923,52.2197997 40.8699618,52.7582316 41.4779772,52.7582316 C42.0169467,52.7582316 42.255,52.4895303 42.255,52.0849344 C42.2560305,50.836143 37.2940074,49.6913319 37.2940074,47.0269695 L37.2940074,47.0269695 Z M48.06,64.052946 C46.9027098,64.5821124 46.4410305,64.4915157 46.4410305,65.6723598 C46.4410305,66.1098999 46.3390077,66.6802464 46.3390077,66.9849801 C46.3390077,67.3895763 46.4059923,67.6263627 46.8779772,67.6263627 C48.0940077,67.6263627 50.0180154,65.5704384 50.0180154,63.8161596 C50.0180154,63.3425868 49.7469846,63.143892 49.4429772,63.143892 C49.1729772,63.143892 48.8710305,63.6812943 48.06,64.052946 Z M47.925,61.6243407 C47.925,60.1078776 44.7859923,60.0739038 44.7859923,57.7811931 C44.7859923,57.2067285 45.1559541,56.2307565 45.9,55.1837484 C46.2050382,56.9369979 46.9109541,57.8481111 48.4320231,58.4225757 C51.4339695,59.533413 51.84,61.2187149 51.84,63.0079971 C51.84,66.0429819 49.7140077,69.8181819 44.2470228,69.8181819 C39.8590077,69.8181819 36.72,65.9060574 36.72,62.6023716 C36.72,61.6912584 36.9559923,60.6813126 37.53,60.6813126 C38.0370228,60.6813126 38.205,61.0848792 38.61,61.4884458 C40.1300382,63.0079971 41.7830151,63.4105341 44.1790077,63.4105341 C46.3390077,63.4115637 47.925,62.5354536 47.925,61.6243407 L47.925,61.6243407 Z" id="Shape" fill="#FFFFFF" fill-rule="nonzero"></path>
                <path d="M22.7711764,60.9984702 C22.8427754,61.6938129 22.405127,62.3210448 21.7938513,62.4023715 C21.1816807,62.4836982 20.626789,61.9855725 20.5569802,61.2912462 C20.4853812,60.5948868 20.9230296,59.9656218 21.5352002,59.8842951 C22.1473709,59.8029684 22.7004726,60.3021108 22.7711764,60.9984702 Z M17.2938596,62.3078292 C17.4182627,63.444369 18.3517336,64.3064316 19.4051326,64.1732592 C19.7855019,64.1254797 20.1381265,64.007556 20.3735078,63.8408367 C20.6079943,64.9051992 21.3946874,65.5903761 22.4579312,65.4317892 C23.5372848,65.2721856 24.2711738,64.3064316 24.1548255,63.0743328 C24.1243959,62.7429267 24.0662218,62.5406268 23.9794081,62.3078292 C23.9794081,62.3078292 24.121711,62.2905474 24.2291093,62.2681827 C25.2878783,62.040468 26.0011825,61.0757304 25.9125787,59.9107263 C25.7962305,58.712175 24.8493349,57.8226648 23.8639549,57.9609201 C23.4817957,58.0137825 23.1291711,58.1794854 22.8937897,58.412283 C22.6288736,57.4150149 21.8028011,56.5478697 20.6751183,56.759319 C19.6557289,56.9514531 18.981804,57.9334725 19.0838324,59.1787866 C19.1008372,59.3810865 19.1420066,59.611851 19.2306102,59.8436319 C19.2306102,59.8436319 19.0578778,59.8731129 18.9388447,59.8924278 C18.0832376,60.0367827 17.1551368,61.0147356 17.2938596,62.3078292 L17.2938596,62.3078292 Z" id="Shape" fill="#FFFFFF" fill-rule="nonzero"></path>
            </g>
        </g>
    </g>
</svg>