<?xml version="1.0" encoding="UTF-8"?>
<svg width="75px" height="24px" viewBox="0 0 75 24" version="1.1" xmlns="http://www.w3.org/2000/svg" xmlns:xlink="http://www.w3.org/1999/xlink">
    <!-- Generator: Sketch 62 (91390) - https://sketch.com -->
    <title>Visa</title>
    <desc>Created with Sketch.</desc>
    <defs>
        <path d="M38.7830576,16.336989 C38.7404385,12.9970545 41.7776074,11.1331124 44.0655781,10.0250033 C46.4163559,8.88790943 47.2059301,8.15883158 47.1969577,7.14213588 C47.1790128,5.585878 45.3217189,4.89916249 43.5833098,4.87240734 C40.5506271,4.82558582 38.7875438,5.68620981 37.385601,6.33725179 L36.2932072,1.25600292 C37.6996362,0.611649728 40.3038852,0.0497915833 43.0045878,0.025266029 C49.3436125,0.025266029 53.4911202,3.1355522 53.5135513,7.95816796 C53.5382254,14.0784085 44.9964682,14.417307 45.054789,17.1530211 C45.074977,17.9824307 45.8712805,18.8675803 47.6164189,19.0927694 C48.4800157,19.2064789 50.86444,19.2934331 53.5673858,18.0560074 L54.6283762,22.9722662 C53.1748418,23.4984508 51.3063325,24.0023395 48.9802289,24.0023395 C43.0135603,24.0023395 38.8167042,20.8496909 38.7830576,16.336989 M64.8233044,23.5787162 C63.6658604,23.5787162 62.6901082,22.9076079 62.2549451,21.8775347 L53.1995161,0.386460552 L59.5340545,0.386460552 L60.7946815,3.84902286 L68.535649,3.84902286 L69.2669023,0.386460552 L74.8499995,0.386460552 L69.9779677,23.5787162 L64.8233044,23.5787162 M65.7093322,17.313552 L67.5374657,8.60475076 L62.5308475,8.60475076 L65.7093322,17.313552 M31.102654,23.5787162 L26.1094945,0.386460552 L32.1456994,0.386460552 L37.1366159,23.5787162 L31.102654,23.5787162 M22.172839,23.5787162 L15.889892,7.79317786 L13.3484501,21.2153447 C13.0501166,22.7136331 11.8724847,23.5787162 10.5647524,23.5787162 L0.293558503,23.5787162 L0.149999557,22.9053783 C2.25852157,22.4505407 4.65416146,21.7170038 6.10545268,20.932186 C6.99372365,20.4528229 7.24719491,20.0336589 7.53879902,18.8943354 L12.3525099,0.386460552 L18.7319105,0.386460552 L28.5118636,23.5787162 L22.172839,23.5787162" id="path-1"></path>
    </defs>
    <g id="UI-Design-(Teal)" stroke="none" stroke-width="1" fill="none" fill-rule="evenodd">
        <g id="Homepage-Teal" transform="translate(-1079.000000, -852.000000)">
            <g id="Visa" transform="translate(1079.000000, 852.000000)">
                <mask id="mask-2" fill="white">
                    <use xlink:href="#path-1"></use>
                </mask>
                <use id="path-1" fill="#FFFFFF" transform="translate(37.500000, 12.013803) scale(1, -1) translate(-37.500000, -12.013803) " xlink:href="#path-1"></use>
            </g>
        </g>
    </g>
</svg>