<?xml version="1.0" encoding="UTF-8"?>
<svg width="284px" height="79px" viewBox="0 0 284 79" version="1.1" xmlns="http://www.w3.org/2000/svg" xmlns:xlink="http://www.w3.org/1999/xlink">
    <title>wfa</title>
    <g id="Client-logos-white" stroke="none" stroke-width="1" fill="none" fill-rule="evenodd">
        <g id="Artboard-Copy-5" transform="translate(-6.000000, -1.000000)" fill="#FFFFFF">
            <g id="wfa" transform="translate(6.000000, 1.000000)">
                <path d="M39.163,0.216 C60.724,0.216 78.197,17.692 78.197,39.25 C78.197,60.808 60.724,78.284 39.163,78.284 C17.607,78.284 0.133,60.808 0.133,39.25 C0.133,17.692 17.607,0.216 39.163,0.216 Z M14.601,29.752 L11.648,29.752 L17.45,48.244 L20.532,48.244 L24.08,35.346 L27.602,48.244 L30.684,48.244 L36.485,29.752 L33.533,29.752 L29.156,44.437 L25.53,31.151 L22.681,31.151 L19.03,44.437 L14.601,29.752 Z M51.325,29.752 L39.334,29.752 L39.334,48.244 L42.002,48.244 L42.002,40.241 L50.626,40.241 L50.626,37.703 L42.002,37.703 L42.002,32.316 L51.325,32.316 L51.325,29.752 Z M60.492,29.752 L57.617,29.752 L51.272,48.244 L54.069,48.244 L55.416,44.256 L62.668,44.256 L64.014,48.244 L66.811,48.244 L60.492,29.752 Z M59.068,33.352 L61.865,41.743 L56.245,41.743 L59.068,33.352 Z" id="Combined-Shape" fill-rule="nonzero"></path>
                <path d="M90.716,34.791 L93.798,34.791 L97.346,21.893 L100.868,34.791 L103.95,34.791 L109.752,16.299 L106.799,16.299 L102.422,30.984 L98.796,17.698 L95.948,17.698 L92.296,30.984 L87.867,16.299 L84.915,16.299 L90.716,34.791 Z M115.941,35.076 C119.619,35.076 122.597,32.098 122.597,28.265 C122.597,24.354 119.645,21.453 115.941,21.453 C112.238,21.453 109.285,24.354 109.285,28.265 C109.285,32.098 112.238,35.076 115.941,35.076 Z M115.941,32.745 C113.533,32.745 111.849,30.829 111.849,28.239 C111.849,25.623 113.507,23.81 115.941,23.81 C118.35,23.81 120.033,25.623 120.033,28.239 C120.033,30.829 118.324,32.745 115.941,32.745 Z M125.032,34.791 L127.492,34.791 L127.492,27.85 C127.492,26.633 127.829,25.649 128.632,24.975 C129.564,24.147 130.911,24.069 132.154,24.25 L132.154,21.453 C129.953,21.401 128.166,22.463 127.492,23.525 L127.492,21.842 L125.032,21.842 L125.032,34.791 Z M134.537,15.781 L137.023,15.781 L137.023,34.791 L134.537,34.791 L134.537,15.781 Z M145.492,35.05 C147.409,35.05 148.703,33.988 149.221,33.263 L149.325,33.263 L149.325,34.791 L151.785,34.791 L151.785,15.781 L149.325,15.781 L149.325,23.188 C148.729,22.437 147.305,21.453 145.544,21.453 C142.203,21.453 139.587,24.38 139.587,28.239 C139.587,32.098 142.099,35.05 145.492,35.05 L145.492,35.05 Z M145.699,32.693 C143.783,32.693 142.177,30.984 142.177,28.213 C142.177,25.519 143.757,23.836 145.699,23.836 C147.823,23.836 149.377,25.493 149.377,28.239 C149.377,30.906 147.952,32.693 145.699,32.693 Z M161.912,34.791 L164.579,34.791 L164.579,26.788 L173.204,26.788 L173.204,24.25 L164.579,24.25 L164.579,18.863 L173.903,18.863 L173.903,16.299 L161.912,16.299 L161.912,34.791 Z M187.837,28.135 C187.837,24.483 185.402,21.453 181.621,21.453 C177.866,21.453 175.224,24.483 175.198,28.29 C175.172,32.072 177.762,35.05 181.647,35.076 C184.185,35.076 186.309,33.6 187.267,31.942 L185.143,30.984 C184.392,32.046 183.227,32.771 181.724,32.771 C179.523,32.771 177.995,31.139 177.788,29.223 L187.785,29.223 C187.811,28.912 187.837,28.472 187.837,28.135 L187.837,28.135 Z M177.762,27.047 C178.073,25.183 179.601,23.784 181.569,23.784 C183.667,23.784 185.091,25.234 185.221,27.047 L177.762,27.047 Z M195.941,35.05 C197.858,35.05 199.153,33.988 199.671,33.263 L199.775,33.263 L199.775,34.791 L202.235,34.791 L202.235,15.781 L199.775,15.781 L199.775,23.188 C199.179,22.437 197.754,21.453 195.993,21.453 C192.652,21.453 190.037,24.38 190.037,28.239 C190.037,32.098 192.549,35.05 195.941,35.05 Z M196.149,32.693 C194.232,32.693 192.626,30.984 192.626,28.213 C192.626,25.519 194.206,23.836 196.149,23.836 C198.272,23.836 199.826,25.493 199.826,28.239 C199.826,30.906 198.402,32.693 196.149,32.693 Z M217.412,28.135 C217.412,24.483 214.977,21.453 211.196,21.453 C207.441,21.453 204.799,24.483 204.773,28.29 C204.747,32.072 207.337,35.05 211.222,35.076 C213.76,35.076 215.884,33.6 216.842,31.942 L214.718,30.984 C213.967,32.046 212.802,32.771 211.299,32.771 C209.098,32.771 207.57,31.139 207.363,29.223 L217.36,29.223 C217.386,28.912 217.412,28.472 217.412,28.135 L217.412,28.135 Z M207.337,27.047 C207.648,25.183 209.176,23.784 211.144,23.784 C213.242,23.784 214.666,25.234 214.796,27.047 L207.337,27.047 Z M219.846,34.791 L222.306,34.791 L222.306,27.85 C222.306,26.633 222.643,25.649 223.446,24.975 C224.378,24.147 225.725,24.069 226.968,24.25 L226.968,21.453 C224.767,21.401 222.98,22.463 222.306,23.525 L222.306,21.842 L219.846,21.842 L219.846,34.791 Z M232.692,35.076 C234.531,35.076 235.981,34.195 236.81,33.211 L236.965,33.211 L236.965,34.791 L239.4,34.791 L239.4,26.4 C239.4,23.603 237.483,21.453 234.142,21.453 C230.905,21.453 229.04,23.603 228.703,25.209 L231.267,25.468 C231.552,24.639 232.511,23.784 234.065,23.784 C235.722,23.784 236.965,24.768 236.965,26.296 L232.873,26.97 C230.387,27.41 228.289,28.601 228.289,31.139 C228.289,33.574 230.309,35.076 232.692,35.076 L232.692,35.076 Z M233.288,32.849 C231.915,32.849 230.905,32.227 230.905,31.088 C230.905,29.715 232.2,29.197 233.754,28.912 C234.867,28.705 236.37,28.394 236.991,28.29 L236.991,29.508 C236.991,29.896 236.965,30.336 236.81,30.751 C236.395,31.813 234.816,32.849 233.288,32.849 L233.288,32.849 Z M247.143,35.05 C248.516,35.05 249.293,34.739 249.604,34.584 L249.604,32.382 C249.009293,32.6144161 248.377464,32.7373941 247.739,32.745 C246.341,32.745 245.823,31.839 245.823,30.44 L245.823,24.069 L249.63,24.069 L249.63,21.842 L245.823,21.842 L245.823,18.449 L243.336,18.449 L243.336,21.842 L241.057,21.842 L241.057,24.069 L243.336,24.069 L243.336,31.139 C243.336,33.496 244.89,35.05 247.143,35.05 Z M253.463,19.951 C254.447,19.951 255.25,19.174 255.25,18.138 C255.248348,17.1517521 254.449248,16.3526515 253.463,16.351 C252.427,16.351 251.624,17.154 251.624,18.138 C251.624,19.174 252.427,19.951 253.463,19.951 Z M252.22,34.791 L254.68,34.791 L254.68,21.842 L252.22,21.842 L252.22,34.791 Z M263.847,35.076 C267.524,35.076 270.503,32.098 270.503,28.265 C270.503,24.354 267.55,21.453 263.847,21.453 C260.143,21.453 257.191,24.354 257.191,28.265 C257.191,32.098 260.143,35.076 263.847,35.076 Z M263.847,32.745 C261.438,32.745 259.755,30.829 259.755,28.239 C259.755,25.623 261.412,23.81 263.847,23.81 C266.255,23.81 267.939,25.623 267.939,28.239 C267.939,30.829 266.229,32.745 263.847,32.745 Z M272.678,34.791 L275.139,34.791 L275.139,27.358 C275.139,25.442 276.382,23.888 278.324,23.888 C280.241,23.888 281.406,25.131 281.406,27.125 L281.406,34.791 L283.867,34.791 L283.867,26.244 C283.867,23.551 281.665,21.479 278.92,21.479 C277.475587,21.4678325 276.09692,22.0818696 275.139,23.163 L275.139,21.842 L272.678,21.842 L272.678,34.791 Z M92.166,62.414 C95.844,62.414 98.822,59.435 98.822,55.602 C98.822,51.692 95.87,48.791 92.166,48.791 C88.463,48.791 85.51,51.692 85.51,55.602 C85.51,59.435 88.463,62.414 92.166,62.414 Z M92.166,60.083 C89.758,60.083 88.074,58.166 88.074,55.576 C88.074,52.961 89.732,51.148 92.166,51.148 C94.575,51.148 96.258,52.961 96.258,55.576 C96.258,58.166 94.549,60.083 92.166,60.083 Z M102.267,62.129 L104.727,62.129 L104.727,51.407 L109.182,51.407 L109.182,49.179 L104.727,49.179 L104.727,47.625 C104.727,46.227 105.556,45.191 107.006,45.191 C107.939,45.191 108.767,45.424 109.001,45.476 L109.001,43.326 C108.186567,43.0345903 107.327998,42.8857445 106.463,42.8859997 C103.536,42.8859997 102.267,45.061 102.267,47.237 L102.267,49.179 L99.599,49.179 L99.599,51.407 L102.267,51.407 L102.267,62.129 Z M115.76,62.129 L118.557,62.129 L119.904,58.14 L127.156,58.14 L128.502,62.129 L131.299,62.129 L124.98,43.637 L122.105,43.637 L115.76,62.129 Z M120.733,55.628 L123.556,47.237 L126.353,55.628 L120.733,55.628 Z M138.343,62.388 C140.259,62.388 141.554,61.326 142.072,60.601 L142.176,60.601 L142.176,62.129 L144.636,62.129 L144.636,43.119 L142.176,43.119 L142.176,50.526 C141.58,49.775 140.155,48.791 138.394,48.791 C135.053,48.791 132.438,51.717 132.438,55.576 C132.438,59.435 134.95,62.388 138.343,62.388 L138.343,62.388 Z M138.55,60.031 C136.633,60.031 135.027,58.322 135.027,55.55 C135.027,52.857 136.607,51.174 138.55,51.174 C140.673,51.174 142.227,52.831 142.227,55.576 C142.227,58.244 140.803,60.031 138.55,60.031 Z M150.981,62.129 L153.934,62.129 L158.155,49.179 L155.462,49.179 L152.483,59.332 L149.479,49.179 L146.76,49.179 L150.981,62.129 Z M171.7,55.473 C171.7,51.821 169.266,48.791 165.484,48.791 C161.729,48.791 159.087,51.821 159.062,55.628 C159.036,59.409 161.626,62.388 165.51,62.414 C168.048,62.414 170.172,60.937 171.13,59.28 L169.007,58.322 C168.256,59.383 167.09,60.109 165.588,60.109 C163.387,60.109 161.859,58.477 161.651,56.56 L171.648,56.56 C171.674,56.25 171.7,55.809 171.7,55.473 L171.7,55.473 Z M161.626,54.385 C161.936,52.52 163.464,51.122 165.433,51.122 C167.53,51.122 168.955,52.572 169.084,54.385 L161.626,54.385 Z M174.005,62.129 L176.466,62.129 L176.466,55.188 C176.466,53.971 176.802,52.986 177.605,52.313 C178.537,51.484 179.884,51.407 181.127,51.588 L181.127,48.791 C178.926,48.739 177.139,49.801 176.466,50.863 L176.466,49.179 L174.005,49.179 L174.005,62.129 Z M189.311,62.388 C190.684,62.388 191.461,62.077 191.772,61.922 L191.772,59.72 C191.177293,59.9524161 190.545464,60.0753941 189.907,60.083 C188.509,60.083 187.991,59.176 187.991,57.778 L187.991,51.407 L191.798,51.407 L191.798,49.179 L187.991,49.179 L187.991,45.787 L185.504,45.787 L185.504,49.179 L183.225,49.179 L183.225,51.407 L185.504,51.407 L185.504,58.477 C185.504,60.834 187.058,62.388 189.311,62.388 L189.311,62.388 Z M195.629,47.289 C196.613,47.289 197.416,46.512 197.416,45.476 C197.414348,44.4897521 196.615248,43.6906515 195.629,43.689 C194.593,43.689 193.79,44.492 193.79,45.476 C193.79,46.512 194.593,47.289 195.629,47.289 Z M194.386,62.129 L196.847,62.129 L196.847,49.179 L194.386,49.179 L194.386,62.129 Z M204.979,62.414 C207.569,62.44 210.081,60.782 210.081,58.373 C210.081,55.991 208.087,55.136 206.067,54.566 L204.668,54.178 C203.451,53.841 202.311,53.556 202.311,52.546 C202.311,51.692 203.218,51.018 204.435,50.992 C206.17,50.992 206.973,51.925 207.439,52.805 L209.744,52.365 C209.33,50.707 207.336,48.765 204.513,48.791 C201.845,48.817 199.825,50.422 199.825,52.546 C199.825,54.903 201.767,55.706 203.399,56.146 L204.901,56.535 C206.274,56.897 207.62,57.234 207.62,58.451 C207.62,59.461 206.533,60.16 205.005,60.186 C203.269,60.186 202.026,59.202 201.56,58.037 L198.996,58.529 C199.566,60.394 201.69,62.388 204.979,62.414 L204.979,62.414 Z M224.401,55.473 C224.401,51.821 221.967,48.791 218.186,48.791 C214.43,48.791 211.789,51.821 211.763,55.628 C211.737,59.409 214.327,62.388 218.212,62.414 C220.75,62.414 222.873,60.937 223.832,59.28 L221.708,58.322 C220.957,59.383 219.791,60.109 218.289,60.109 C216.088,60.109 214.56,58.477 214.353,56.56 L224.35,56.56 C224.376,56.25 224.401,55.809 224.401,55.473 Z M214.327,54.385 C214.638,52.52 216.166,51.122 218.134,51.122 C220.232,51.122 221.656,52.572 221.786,54.385 L214.327,54.385 Z M226.708,62.129 L229.168,62.129 L229.168,55.188 C229.168,53.971 229.505,52.986 230.308,52.313 C231.24,51.484 232.587,51.407 233.83,51.588 L233.83,48.791 C231.629,48.739 229.842,49.801 229.168,50.863 L229.168,49.179 L226.708,49.179 L226.708,62.129 Z M240.616,62.414 C243.205,62.44 245.718,60.782 245.718,58.373 C245.718,55.991 243.723,55.136 241.703,54.566 L240.305,54.178 C239.087,53.841 237.948,53.556 237.948,52.546 C237.948,51.692 238.854,51.018 240.072,50.992 C241.807,50.992 242.61,51.925 243.076,52.805 L245.381,52.365 C244.967,50.707 242.972,48.765 240.149,48.791 C237.482,48.817 235.462,50.422 235.462,52.546 C235.462,54.903 237.404,55.706 239.036,56.146 L240.538,56.535 C241.91,56.897 243.257,57.234 243.257,58.451 C243.257,59.461 242.169,60.16 240.641,60.186 C238.906,60.186 237.663,59.202 237.197,58.037 L234.633,58.529 C235.203,60.394 237.326,62.388 240.616,62.414 L240.616,62.414 Z" id="Shape"></path>
            </g>
        </g>
    </g>
</svg>