<?xml version="1.0" encoding="UTF-8"?>
<svg width="150px" height="24px" viewBox="0 0 150 24" version="1.1" xmlns="http://www.w3.org/2000/svg" xmlns:xlink="http://www.w3.org/1999/xlink">
    <!-- Generator: Sketch 61.2 (89653) - https://sketch.com -->
    <title>British Airways</title>
    <desc>Created with Sketch.</desc>
    <g id="UI-Design-(Teal)" stroke="none" stroke-width="1" fill="none" fill-rule="evenodd">
        <g id="Homepage-Teal" transform="translate(-801.000000, -850.000000)" fill="#FFFFFF" fill-rule="nonzero">
            <g id="British-Airways" transform="translate(801.000000, 850.000000)">
                <path d="M145.100563,15.3321938 C143.381524,13.5958911 139.657293,12.1052782 137.82478,11.4068892 C135.321284,10.4513497 134.210499,10.1132578 132.809332,9.64981395 C131.224207,9.12691754 128.05255,8.15132176 128.05255,8.15132176 C134.622815,6.158585 139.252026,5.55761227 139.252026,5.55761227 C139.252026,5.55761227 141.408753,6.23451243 144.825686,8.09115286 C146.675819,9.04740863 147.586437,9.69064285 148.238389,10.3059415 C148.477321,10.5258445 149.098261,11.1819721 149.252615,12.0221878 C149.262482,12.083073 149.292084,12.2435234 149.292084,12.4011087 C149.292084,12.4011087 149.292084,12.5128509 149.282217,12.6095509 C149.279398,12.7212932 149.258958,12.795788 149.258958,12.795788 C149.258958,12.795788 149.223013,12.9942021 149.175086,13.13388 C149.124339,13.274274 148.912895,13.7047682 148.570356,13.9848401 C148.340587,14.1739424 147.945892,14.6445492 146.513007,15.1567011 C146.025277,15.3286123 145.237296,15.4876301 145.237296,15.4876301 L145.100563,15.3321938 Z" id="Path" transform="translate(138.672317, 10.522621) scale(-1, 1) rotate(-180.000000) translate(-138.672317, -10.522621) "></path>
                <path d="M149.292084,0.0144235607 C149.292084,0.0144235607 149.282217,0.199944341 149.237814,0.357529563 C149.202573,0.497923668 149.141254,0.631871111 149.048924,0.772981511 C148.936859,0.940594886 148.786029,1.13686011 148.562603,1.35461424 C148.392743,1.51578094 148.208082,1.65904023 147.986771,1.81089508 C147.090249,2.40757004 145.933651,2.74351308 144.909558,2.88605607 C143.323729,3.10022871 141.503903,3.0629813 141.331223,3.06871167 C140.746229,3.07730723 136.964908,3.04579018 135.992266,3.02788277 C131.675288,2.93691312 126.390601,2.92545237 125.005644,2.92545237 C110.715563,2.8588368 104.494181,3.17185836 97.570804,4.58224609 C91.6806832,5.77129821 88.4131709,6.90089773 88.4131709,6.90089773 C93.6083463,7.08355333 123.920232,8.36214249 129.450193,8.51113216 C133.071522,8.61499516 135.641269,8.63720034 137.697913,8.51614629 C138.753018,8.45669364 139.734117,8.36500771 140.96613,8.15226766 C142.071982,7.96030021 143.075635,7.63438531 143.66063,7.41376599 C144.892643,6.95032218 145.930127,6.2798687 146.442526,5.59294039 C146.442526,5.59294039 146.594766,5.43535518 146.799866,5.15456696 C147.031045,4.82865207 147.298874,4.42680975 147.389794,4.2771038 C148.139011,3.12386649 148.495646,2.39825818 148.618988,2.14540553 C148.752903,1.88037584 148.870606,1.6046017 148.985491,1.33455794 C149.098261,1.06666306 149.144074,0.904063766 149.180724,0.790888923 C149.258958,0.507235526 149.279398,0.247936211 149.282217,0.190632491 L149.292084,0.0144235607 Z" id="Path" transform="translate(118.852628, 4.306357) scale(-1, 1) rotate(-180.000000) translate(-118.852628, -4.306357) "></path>
                <path d="M52.2952899,12.9742514 C52.5154909,13.0748147 52.7489318,13.4274944 52.7489318,13.8892358 L52.7489318,17.7113492 C52.2081851,17.772962 51.4521153,17.7998733 50.6040628,17.7998733 C49.7434672,17.7998733 48.9818227,17.772962 48.4271393,17.7113492 L48.4271393,13.8892358 C48.4271393,13.4274944 48.6557023,13.0911031 48.8786906,12.9742514 L45.8829818,12.9742514 C46.1052732,13.0748147 46.3421984,13.4274944 46.3421984,13.8892358 L46.3421984,22.3209725 C46.3421984,22.7890876 46.1052732,23.1339772 45.8829818,23.2472879 L48.8786906,23.2472879 C48.6557023,23.1339772 48.4271393,22.7890876 48.4271393,22.3209725 L48.4271393,18.867119 C48.9818227,18.8076308 49.7295304,18.7785949 50.6040628,18.7785949 C51.4521153,18.7785949 52.2081851,18.8161291 52.7489318,18.867119 L52.7489318,22.3209725 C52.7489318,22.7890876 52.5154909,23.1339772 52.2952899,23.2472879 L55.285424,23.2472879 C55.0617389,23.1339772 54.8401443,22.7890876 54.8401443,22.3209725 L54.8401443,13.8892358 C54.8401443,13.4274944 55.0617389,13.0911031 55.285424,12.9742514 L52.2952899,12.9742514 Z M42.5792703,15.2985383 C42.5792703,17.2552735 38.0449419,17.6964772 38.0449419,20.819605 C38.0449419,22.753678 39.8546316,23.3868018 41.4462108,23.3868018 C42.1555924,23.3868018 43.1834293,23.2869467 43.832186,22.9831322 L43.9450738,21.0625149 C43.5464821,21.9109292 42.5472157,22.52564 41.6190268,22.52564 C40.8859526,22.52564 40.1166429,22.1566719 40.1166429,21.3040084 C40.1166429,19.2743295 44.7283203,18.7785949 44.7283203,15.8211842 C44.7283203,13.6732371 42.8830918,12.7844559 41.0190488,12.7844559 C40.0448685,12.7844559 38.7187848,12.9742514 37.8972122,13.5457625 C37.8470398,13.8892358 37.8240441,14.2489974 37.8240441,14.5995526 C37.8240441,15.0188024 37.8609765,15.4401768 37.9216015,15.8530528 C38.4351715,14.6654145 39.4957598,13.7362663 40.8218435,13.7362663 C41.829472,13.7362663 42.5792703,14.1831356 42.5792703,15.2985383 Z M33.4116626,12.9742514 C33.6604339,13.0911031 33.9210515,13.4274944 33.9210515,13.8892358 L33.9210515,22.3209725 C33.9210515,22.7890876 33.6604339,23.1205215 33.4116626,23.2472879 L36.5230466,23.2472879 C36.2582479,23.1205215 36.0052956,22.7890876 36.0052956,22.3209725 L36.0052956,13.8892358 C36.0052956,13.4274944 36.2582479,13.0911031 36.5230466,12.9742514 L33.4116626,12.9742514 Z M26.4516393,12.9742514 C26.7840313,13.1293455 26.9470915,13.5294741 26.9470915,13.8892358 L26.9470915,22.068856 L24.713724,22.068856 C24.1980635,22.068856 23.5848456,22.0051187 23.1409594,21.7374221 L23.8357074,23.2472879 L31.2444947,23.2472879 C31.8451695,23.2472879 32.4590843,23.2607436 33.0416412,23.3868018 C32.7601185,22.6134559 31.9197313,22.0405284 31.4354285,22.0405284 C30.8472968,22.0546922 29.8731165,22.0936428 29.0348197,22.0936428 L29.0348197,13.8892358 C29.0348197,13.5294741 29.2097262,13.1293455 29.5372403,12.9742514 L26.4516393,12.9742514 Z M19.7013644,12.9742514 C19.9522263,13.0911031 20.2142376,13.4274944 20.2142376,13.8892358 L20.2142376,22.3209725 C20.2142376,22.7890876 19.9522263,23.1205215 19.7013644,23.2472879 L22.8120516,23.2472879 C22.5444657,23.1205215 22.301269,22.7890876 22.301269,22.3209725 L22.301269,13.8892358 C22.301269,13.4274944 22.5444657,13.0911031 22.8120516,12.9742514 L19.7013644,12.9742514 Z M17.6275729,12.9140551 C17.2394339,12.9140551 16.8122718,12.8998912 16.4422506,13.0110774 C15.7537741,13.2178695 14.8046801,14.7928891 14.4262967,15.4111409 C13.8388618,16.4160657 13.328776,17.7998733 12.0117512,17.8147453 L12.0117512,13.8892358 C12.0117512,13.5457625 12.1650557,13.1293455 12.4911761,12.9742514 L9.4557475,12.9742514 C9.77420265,13.1442175 9.92681029,13.5294741 9.92681029,13.8892358 L9.92681029,22.3209725 C9.92681029,22.6779013 9.77420265,23.0688235 9.4557475,23.2472879 L13.1106656,23.2472879 C14.7008511,23.2472879 16.6903251,22.6269115 16.6903251,20.6857566 C16.6903251,19.0562063 15.3649382,18.2212477 13.88555,18.2212477 C15.9900024,18.2092084 17.2254971,13.1923746 19.5487568,13.1775026 C18.9257832,12.9905398 18.2763296,12.9140551 17.6275729,12.9140551 L17.6275729,12.9140551 Z M12.5308959,22.3627558 C12.3497179,22.3627558 12.1908388,22.3330117 12.0117512,22.3068086 L12.0117512,18.7545164 C12.1775988,18.7431853 12.327419,18.7254805 12.4911761,18.7254805 C13.6291135,18.7254805 14.4701976,19.3635617 14.4701976,20.620603 C14.4701976,21.9045555 13.6430502,22.3627558 12.5308959,22.3627558 Z M3.73121893,17.7998733 C3.44272778,17.7998733 3.18280701,17.7998733 2.83090354,17.772962 L2.83090354,13.9763434 C3.26991182,13.8892358 3.74376202,13.8609081 4.18067979,13.8609081 C5.19527668,13.8609081 6.22659771,14.3198167 6.22659771,15.8955444 C6.22659771,17.4500263 5.00713028,17.7998733 3.73121893,17.7998733 L3.73121893,17.7998733 Z M3.47896338,22.3627558 C3.29499801,22.3627558 3.16887024,22.3627558 2.83090354,22.3209725 L2.83090354,18.7254805 L3.23088886,18.7254805 C4.44269107,18.7254805 5.61477349,19.1057797 5.61477349,20.5327871 C5.61477349,21.9491716 4.67822249,22.3627558 3.47896338,22.3627558 L3.47896338,22.3627558 Z M0.277687162,12.9742514 C0.603110757,13.1442175 0.748750015,13.5457625 0.748750015,13.8892358 L0.748750015,22.3209725 C0.748750015,22.6779013 0.603110757,23.0688235 0.277687162,23.2472879 L4.23224584,23.2472879 C5.99594416,23.2472879 7.71574169,22.5136008 7.71574169,20.4789645 C7.71574169,19.4003877 6.79034009,18.5491407 5.79246731,18.3572206 C7.22934836,18.3713844 8.61884441,17.478354 8.61884441,15.8665085 C8.61884441,13.562051 6.24123132,12.9742514 4.56812201,12.9742514 L0.277687162,12.9742514 Z" id="Shape" transform="translate(27.781556, 18.085629) scale(-1, 1) rotate(-180.000000) translate(-27.781556, -18.085629) "></path>
                <path d="M116.646933,15.29854 C116.646933,17.2552752 112.111908,17.6964789 112.111908,20.8196067 C112.111908,22.7536797 113.916719,23.3868035 115.508995,23.3868035 C116.221861,23.3868035 117.24273,23.2869484 117.896364,22.9838421 L118.008555,21.0625166 C117.605086,21.9109309 116.61,22.5256418 115.681811,22.5256418 C114.946647,22.5256418 114.183609,22.1566736 114.183609,21.3040101 C114.183609,19.2743312 118.795286,18.7785967 118.795286,15.8211859 C118.795286,13.6732389 116.961904,12.7844576 115.085318,12.7844576 C114.110441,12.7844576 112.782266,12.9742531 111.958603,13.5464725 C111.904947,13.8892375 111.87986,14.2489992 111.87986,14.5995543 C111.87986,15.0195123 111.918883,15.4401785 111.980902,15.8530546 C112.493775,14.6654162 113.558544,13.7369762 114.883931,13.7369762 C115.895741,13.7369762 116.646933,14.1838455 116.646933,15.29854 L116.646933,15.29854 Z M111.04226,22.1687129 L108.647923,17.9011465 L108.647923,13.8892375 C108.647923,13.5620527 108.779626,13.1293472 109.099475,12.9742531 L106.121187,12.9742531 C106.425008,13.1442193 106.565073,13.574092 106.565073,13.8892375 L106.565073,17.9146021 L104.483616,21.3040101 C104.29756,21.6205721 103.429996,23.0978611 102.372195,23.0978611 C102.659293,23.208339 103.534522,23.3783052 104.12126,23.3783052 C105.100318,23.3783052 105.586015,23.2869484 106.185993,22.3330134 L108.111358,19.2304233 C108.273024,19.534946 109.797707,22.2296174 109.797707,22.2296174 C109.981672,22.5582186 110.108497,22.7890893 110.108497,22.9045246 C110.108497,23.0518286 110.045781,23.1481428 109.898052,23.2472896 L112.044314,23.2472896 C111.62203,23.0426221 111.272914,22.5730906 111.04226,22.1687129 L111.04226,22.1687129 Z M101.908101,12.9742531 C102.012627,13.0748164 102.092066,13.1498848 102.092066,13.3318902 C102.092066,13.3935029 102.062102,13.4947744 102.00078,13.6874027 C102.00078,13.6874027 101.175724,15.9833619 101.075379,16.2503504 C100.446831,16.3282515 99.7973771,16.3282515 99.1604666,16.3282515 C98.563276,16.3282515 97.9486644,16.3133795 97.3472927,16.2503504 C97.2608848,16.0208961 96.3779904,13.7369762 96.3779904,13.7369762 C96.2490752,13.4274962 96.2149301,13.3226837 96.2149301,13.2554055 C96.2149301,13.1024359 96.3382706,13.0287839 96.4469774,12.9742531 L94.4122088,12.9742531 C94.7132431,13.1293472 94.9717702,13.4473255 95.0978979,13.7653039 L98.4538724,22.5362646 C98.4629313,22.5730906 98.472687,22.6134576 98.472687,22.6630311 C98.472687,22.9045246 98.3145046,23.1339789 98.0963942,23.2472896 L100.720688,23.2472896 L104.12126,13.7738022 C104.262022,13.3935029 104.561662,13.1158916 104.809737,12.9742531 L101.908101,12.9742531 Z M99.2705671,21.2926791 L97.7382192,17.2921012 C98.1995263,17.2411113 98.6740733,17.2304884 99.1339868,17.2304884 C99.6587062,17.2304884 100.189697,17.2304884 100.701873,17.2921012 L99.2705671,21.2926791 Z M95.5968343,22.2444894 L92.525867,12.9742531 C92.2729146,12.9742531 92.0241432,13.0627772 91.8833818,13.1633405 C91.5802571,13.4607812 91.1022258,14.7029504 90.928713,15.1604426 L89.5420043,18.7254823 L87.5420778,12.9742531 L86.5901963,12.9742531 L83.151995,22.2671516 C83.0035684,22.6630311 82.7527065,23.0426221 82.3778074,23.2472896 L85.3651542,23.2472896 C85.2397232,23.1481428 85.1526185,23.0355402 85.1526185,22.8195415 C85.1526185,22.7154372 85.2034876,22.5730906 85.2397232,22.4619045 L87.4786654,16.3133795 L89.8618532,23.2472896 L92.4875408,16.5626632 L94.476318,22.6134576 C94.5257935,22.7777582 94.5550607,22.8386627 94.5550607,22.9420588 C94.5550607,23.0688252 94.5007074,23.1481428 94.3759732,23.2472896 L96.353601,23.2472896 C95.9884576,23.0518286 95.7243558,22.6269132 95.5968343,22.2444894 L95.5968343,22.2444894 Z M82.9861474,12.9140568 C82.5994021,12.9140568 82.181299,12.899893 81.8015219,13.0110791 C81.1130454,13.2178713 80.1646482,14.7928908 79.7869618,15.4111426 C79.2023142,16.4160674 78.4399729,17.814747 77.1313101,17.814747 L77.1313101,13.8892375 C77.1313101,13.5464725 77.2790399,13.1293472 77.5995856,12.9742531 L74.5669443,12.9742531 C74.8923679,13.1442193 75.0435818,13.5294758 75.0435818,13.8892375 L75.0435818,22.3209742 C75.0435818,22.6779031 74.8923679,23.0688252 74.5669443,23.2472896 L78.2302245,23.2472896 C79.8155321,23.2472896 81.8015219,22.6269132 81.8015219,20.6857584 C81.8015219,19.056208 80.3520978,18.2212494 79.2566676,18.2212494 C81.4370754,18.0937748 82.7527065,13.1775043 84.9163901,13.1775043 C84.2892355,12.9905416 83.6404788,12.9140568 82.9861474,12.9140568 L82.9861474,12.9140568 Z M77.6358212,22.3627575 C77.4671863,22.3627575 77.3062165,22.3330134 77.1313101,22.3068104 L77.1313101,18.7545181 C77.2936735,18.7431871 77.4421001,18.7254823 77.5995856,18.7254823 C78.7403103,18.7254823 79.5800007,19.3635634 79.5800007,20.6206047 C79.5800007,21.9045572 78.7493692,22.3627575 77.6358212,22.3627575 Z M69.7998719,12.9742531 C70.0507338,13.0911049 70.3106546,13.4274962 70.3106546,13.8892375 L70.3106546,22.3209742 C70.3106546,22.7890893 70.0507338,23.1205233 69.7998719,23.2472896 L72.9084686,23.2472896 C72.6443668,23.1205233 72.3983828,22.7890893 72.3983828,22.3209742 L72.3983828,13.8892375 C72.3983828,13.4274962 72.6443668,13.0911049 72.9084686,12.9742531 L69.7998719,12.9742531 Z M63.7478292,21.2926791 L62.2147845,17.2921012 C62.6712137,17.2411113 63.1450639,17.2304884 63.6077647,17.2304884 C64.137362,17.2304884 64.6613846,17.2304884 65.1763482,17.2921012 L63.7478292,21.2926791 Z M66.3881504,12.9742531 C66.4857079,13.0748164 66.5721158,13.1498848 66.5721158,13.3318902 C66.5721158,13.3935029 66.549817,13.4947744 66.4759521,13.6874027 C66.4759521,13.6874027 65.6453206,15.9833619 65.5477632,16.2503504 C64.9240927,16.3282515 64.2746392,16.3282515 63.6384256,16.3282515 C63.0342666,16.3282515 62.4217455,16.3133795 61.8231612,16.2503504 C61.7381469,16.0208961 60.8482841,13.7369762 60.8482841,13.7369762 C60.7284279,13.4274962 60.6873144,13.3226837 60.6873144,13.2554055 C60.6873144,13.1024359 60.8162295,13.0287839 60.9256332,12.9742531 L58.8915615,12.9742531 C59.1912021,13.1293472 59.4518197,13.4473255 59.5793411,13.7653039 L62.9241661,22.5362646 C62.9387997,22.5730906 62.9450713,22.6134576 62.9450713,22.6630311 C62.9450713,22.9045246 62.7861921,23.1339789 62.5736563,23.2472896 L65.1972534,23.2472896 L68.5978254,13.7738022 C68.7364963,13.3935029 69.0333495,13.1158916 69.2828177,12.9742531 L66.3881504,12.9742531 Z" id="Shape" transform="translate(88.843424, 18.085631) scale(-1, 1) rotate(-180.000000) translate(-88.843424, -18.085631) "></path>
            </g>
        </g>
    </g>
</svg>