<?xml version="1.0" encoding="utf-8"?>
<!-- Generator: Adobe Illustrator 16.0.0, SVG Export Plug-In . SVG Version: 6.00 Build 0)  -->
<!DOCTYPE svg PUBLIC "-//W3C//DTD SVG 1.1//EN" "http://www.w3.org/Graphics/SVG/1.1/DTD/svg11.dtd">
<svg version="1.1" id="Layer_1" xmlns="http://www.w3.org/2000/svg" xmlns:xlink="http://www.w3.org/1999/xlink" x="0px" y="0px"
	 width="241.995px" height="37.833px" viewBox="0 0 241.995 37.833" enable-background="new 0 0 241.995 37.833"
	 xml:space="preserve">
<g>
	<g>
		<g>
			<path fill="#2E5C99" d="M0.388,37.242c0.53-0.271,0.767-0.914,0.767-1.464V22.285c0-0.571-0.237-1.195-0.767-1.482h6.431
				c2.868,0,5.666,1.174,5.666,4.43c0,1.727-1.505,3.089-3.128,3.395c2.338-0.021,4.597,1.407,4.597,3.987
				c0,3.687-3.867,4.628-6.587,4.628H0.388z M5.594,22.219c-0.298,0-0.505,0-1.054,0.066v5.754h0.651
				c1.971,0,3.876-0.609,3.876-2.893C9.067,22.88,7.544,22.219,5.594,22.219z M6.004,29.52c-0.47,0-0.892,0-1.464,0.043v6.076
				c0.713,0.14,1.484,0.186,2.195,0.186c1.65,0,3.328-0.736,3.328-3.257C10.063,30.08,8.079,29.52,6.004,29.52z M20.314,22.219
				c-0.294,0-0.553,0.048-0.843,0.089v5.685c0.269,0.019,0.513,0.047,0.779,0.047c1.85,0,3.219-1.021,3.219-3.033
				C23.469,22.951,22.123,22.219,20.314,22.219z M28.603,37.339c-0.63,0-1.325,0.023-1.927-0.155
				c-1.119-0.33-2.664-2.852-3.278-3.841c-0.955-1.608-1.785-3.823-3.926-3.847v6.282c0,0.55,0.249,1.216,0.779,1.464h-4.937
				c0.519-0.271,0.766-0.889,0.766-1.464V22.285c0-0.571-0.248-1.195-0.766-1.482h5.944c2.586,0,5.822,0.993,5.822,4.1
				c0,2.607-2.157,3.943-4.562,3.943c3.422,0.02,5.432,8.047,9.21,8.07C30.715,37.216,29.659,37.339,28.603,37.339z M31.976,37.242
				c0.408-0.187,0.835-0.726,0.835-1.464V22.285c0-0.749-0.427-1.279-0.835-1.482h5.059c-0.434,0.203-0.83,0.733-0.83,1.482v13.493
				c0,0.738,0.396,1.277,0.83,1.464H31.976z M42.954,37.242c0.542-0.248,0.807-0.889,0.807-1.464v-13.09h-3.633
				c-0.838,0-1.837,0.103-2.557,0.53l1.129-2.416h12.05c0.976,0,1.974-0.021,2.922-0.223c-0.459,1.237-1.825,2.154-2.612,2.154
				c-0.957-0.022-2.54-0.086-3.904-0.086v13.13c0,0.575,0.285,1.216,0.817,1.464H42.954z M54.274,37.242
				c0.404-0.187,0.828-0.726,0.828-1.464V22.285c0-0.749-0.424-1.279-0.828-1.482h5.059c-0.43,0.203-0.842,0.733-0.842,1.482v13.493
				c0,0.738,0.412,1.277,0.842,1.464H54.274z M69.183,33.523c0-3.131-7.375-3.838-7.375-8.836c0-3.094,2.943-4.107,5.531-4.107
				c1.155,0,2.826,0.16,3.882,0.646l0.184,3.073c-0.649-1.357-2.274-2.34-3.783-2.34c-1.193,0-2.443,0.59-2.443,1.954
				c0,3.247,7.5,4.04,7.5,8.774c0,3.436-3.002,4.859-6.032,4.859c-1.585,0-3.741-0.305-5.078-1.219
				c-0.081-0.55-0.118-1.125-0.118-1.688c0-0.671,0.059-1.344,0.158-2.006c0.834,1.901,2.56,3.388,4.716,3.388
				C67.963,36.022,69.183,35.308,69.183,33.523z M84.983,37.242c0.357-0.161,0.739-0.726,0.739-1.464v-6.117
				c-0.88-0.099-2.109-0.142-3.488-0.142c-1.4,0-2.639,0.043-3.541,0.142v6.117c0,0.738,0.372,1.277,0.734,1.464h-4.871
				c0.361-0.161,0.746-0.726,0.746-1.464V22.285c0-0.749-0.385-1.301-0.746-1.482h4.871c-0.362,0.182-0.734,0.733-0.734,1.482v5.527
				c0.902,0.095,2.119,0.141,3.541,0.141c1.379,0,2.608-0.06,3.488-0.141v-5.527c0-0.749-0.381-1.301-0.739-1.482h4.864
				c-0.364,0.182-0.725,0.733-0.725,1.482v13.493c0,0.738,0.361,1.277,0.725,1.464H84.983z"/>
			<path fill="#2E5C99" d="M107.902,37.242c0.157-0.161,0.299-0.281,0.299-0.572c0-0.098-0.037-0.262-0.157-0.568
				c0,0-1.35-3.674-1.508-4.102c-1.014-0.125-2.071-0.125-3.106-0.125c-0.982,0-1.979,0.023-2.952,0.125
				c-0.138,0.368-1.585,4.022-1.585,4.022c-0.195,0.494-0.262,0.663-0.262,0.771c0,0.244,0.21,0.363,0.388,0.449H95.71
				c0.488-0.248,0.911-0.758,1.12-1.266l5.438-14.036c0.025-0.058,0.034-0.123,0.034-0.202c0-0.387-0.257-0.754-0.603-0.936h4.266
				l5.531,15.16c0.226,0.609,0.708,1.053,1.113,1.279H107.902z M103.607,23.932l-2.493,6.4c0.743,0.082,1.514,0.101,2.266,0.101
				c0.862,0,1.714,0,2.552-0.101L103.607,23.932z M113.451,37.242c0.408-0.187,0.83-0.726,0.83-1.464V22.285
				c0-0.749-0.422-1.279-0.83-1.482h5.056c-0.43,0.203-0.831,0.733-0.831,1.482v13.493c0,0.738,0.4,1.277,0.831,1.464H113.451z
				 M126.193,22.219c-0.273,0-0.535,0.048-0.819,0.089v5.685c0.264,0.019,0.505,0.047,0.762,0.047c1.854,0,3.22-1.021,3.22-3.033
				C129.355,22.951,128.004,22.219,126.193,22.219z M134.895,37.339c-0.63,0-1.31,0.023-1.926-0.155
				c-1.121-0.33-2.662-2.852-3.277-3.841c-0.951-1.608-2.189-3.847-4.318-3.847v6.282c0,0.55,0.238,1.216,0.762,1.464h-4.933
				c0.53-0.271,0.777-0.889,0.777-1.464V22.285c0-0.571-0.247-1.195-0.777-1.482h5.957c2.579,0,5.81,0.993,5.81,4.1
				c0,2.607-2.357,3.943-4.141,3.943c3.547,0.204,5.686,8.07,9.205,8.07C137.014,37.216,135.958,37.339,134.895,37.339z
				 M155.405,22.408l-4.996,14.834c-0.412,0-0.816-0.142-1.045-0.303c-0.494-0.476-1.271-2.463-1.551-3.196l-2.258-5.704
				l-3.252,9.203h-1.548l-5.591-14.871c-0.24-0.633-0.65-1.24-1.26-1.568h4.859c-0.205,0.159-0.346,0.34-0.346,0.686
				c0,0.166,0.082,0.395,0.141,0.572l3.641,9.838l3.877-11.096l4.27,10.697l3.234-9.683c0.08-0.263,0.127-0.36,0.127-0.526
				c0-0.201-0.087-0.329-0.29-0.488h3.218C156.04,21.115,155.61,21.796,155.405,22.408z M161.377,23.932l-2.492,6.4
				c0.752,0.082,1.521,0.101,2.271,0.101c0.853,0,1.715,0,2.548-0.101L161.377,23.932z M165.667,37.242
				c0.17-0.161,0.299-0.281,0.299-0.572c0-0.098-0.05-0.262-0.149-0.568c0,0-1.341-3.674-1.504-4.102
				c-1.023-0.125-2.078-0.125-3.113-0.125c-0.973,0-1.971,0.023-2.949,0.125c-0.141,0.368-1.578,4.022-1.578,4.022
				c-0.207,0.494-0.264,0.663-0.264,0.771c0,0.244,0.201,0.363,0.377,0.449h-3.31c0.489-0.248,0.911-0.758,1.116-1.266l5.457-14.036
				c0.016-0.058,0.031-0.123,0.031-0.202c0-0.387-0.258-0.754-0.613-0.936h4.27l5.529,15.16c0.229,0.609,0.717,1.053,1.119,1.279
				H165.667z M180.522,22.529l-3.894,6.828v6.421c0,0.522,0.214,1.216,0.734,1.464h-4.845c0.495-0.271,0.723-0.959,0.723-1.464
				v-6.442l-3.385-5.423c-0.303-0.507-1.715-2.87-3.436-2.87c0.468-0.178,1.891-0.449,2.846-0.449c1.593,0,2.382,0.146,3.357,1.673
				l3.132,4.964c0.263-0.487,2.743-4.799,2.743-4.799c0.299-0.525,0.504-0.896,0.504-1.08c0-0.236-0.102-0.39-0.342-0.549h3.49
				C181.465,21.131,180.895,21.883,180.522,22.529z M189.637,33.523c0-3.131-7.376-3.838-7.376-8.836
				c0-3.094,2.935-4.107,5.524-4.107c1.159,0,2.82,0.16,3.881,0.646l0.184,3.073c-0.656-1.357-2.274-2.34-3.784-2.34
				c-1.195,0-2.437,0.59-2.437,1.954c0,3.247,7.5,4.04,7.5,8.774c0,3.436-2.981,4.859-6.033,4.859c-1.584,0-3.745-0.305-5.084-1.219
				c-0.087-0.55-0.129-1.125-0.129-1.688c0-0.671,0.064-1.344,0.166-2.006c0.833,1.901,2.565,3.388,4.721,3.388
				C188.415,36.022,189.637,35.308,189.637,33.523z"/>
		</g>
	</g>
	<linearGradient id="SVGID_1_" gradientUnits="userSpaceOnUse" x1="231.4927" y1="5.96" x2="219.1567" y2="27.3264">
		<stop  offset="0" style="stop-color:#E6EBEF"/>
		<stop  offset="0.0764" style="stop-color:#BBCEE5"/>
		<stop  offset="0.1854" style="stop-color:#85A9D8"/>
		<stop  offset="0.2796" style="stop-color:#5D8FCF"/>
		<stop  offset="0.3543" style="stop-color:#457EC9"/>
		<stop  offset="0.4" style="stop-color:#3C78C7"/>
		<stop  offset="0.9" style="stop-color:#2E5C99"/>
	</linearGradient>
	<path fill="url(#SVGID_1_)" d="M235.014,9.296c-2.764,2.747-8.752,5.105-11.698,6.209c-4.025,1.512-5.811,2.047-8.063,2.78
		c-2.549,0.827-7.648,2.37-7.648,2.37c10.563,3.154,18.007,4.105,18.007,4.105s3.468-1.072,8.962-4.01
		c2.975-1.512,4.439-2.53,5.486-3.503c0.386-0.349,1.383-1.387,1.631-2.715c0.016-0.097,0.064-0.351,0.064-0.601
		c0,0,0-0.176-0.016-0.329c-0.006-0.176-0.037-0.294-0.037-0.294s-0.059-0.315-0.137-0.536c-0.081-0.221-0.421-0.903-0.972-1.346
		c-0.368-0.299-1.004-1.044-3.308-1.854c-0.783-0.272-2.051-0.523-2.051-0.523L235.014,9.296z"/>
	<path fill="#CE210F" d="M241.754,13.861c0,0-0.016-0.294-0.088-0.543c-0.056-0.222-0.155-0.434-0.304-0.657
		c-0.18-0.265-0.423-0.576-0.782-0.92c-0.271-0.256-0.568-0.482-0.926-0.722c-1.441-0.944-3.301-1.476-4.947-1.701
		c-2.551-0.339-5.477-0.279-5.754-0.289c-0.941-0.013-7.021,0.037-8.584,0.065c-6.941,0.143-15.438,0.162-17.664,0.162
		c-22.979,0.105-32.981-0.39-44.113-2.622c-9.47-1.881-14.724-3.668-14.724-3.668c8.353-0.289,57.091-2.311,65.982-2.547
		c5.821-0.164,9.954-0.199,13.261-0.008c1.696,0.095,3.274,0.239,5.256,0.576c1.777,0.304,3.391,0.82,4.331,1.169
		c1.98,0.733,3.649,1.793,4.474,2.879c0,0,0.244,0.25,0.575,0.694c0.371,0.516,0.802,1.151,0.948,1.388
		c1.205,1.826,1.777,2.973,1.976,3.373c0.215,0.42,0.405,0.856,0.59,1.283c0.181,0.424,0.255,0.681,0.313,0.86
		c0.127,0.449,0.158,0.858,0.164,0.95L241.754,13.861z"/>
</g>
</svg>
