<?xml version="1.0" encoding="UTF-8"?>
<svg width="102px" height="117px" viewBox="0 0 102 117" version="1.1" xmlns="http://www.w3.org/2000/svg" xmlns:xlink="http://www.w3.org/1999/xlink">
    <title>logotype coloured white</title>
    <defs>
        <linearGradient x1="50%" y1="50%" x2="100%" y2="50%" id="linearGradient-1">
            <stop stop-color="#FFFFFF" offset="0%"></stop>
            <stop stop-color="#D4D4D4" offset="100%"></stop>
        </linearGradient>
        <linearGradient x1="0%" y1="50%" x2="90.5867821%" y2="50%" id="linearGradient-2">
            <stop stop-color="#DDDDDD" offset="0%"></stop>
            <stop stop-color="#D4D4D4" offset="100%"></stop>
        </linearGradient>
        <filter id="filter-3">
            <feColorMatrix in="SourceGraphic" type="matrix" values="0 0 0 0 1.000000 0 0 0 0 1.000000 0 0 0 0 1.000000 0 0 0 1.000000 0"></feColorMatrix>
        </filter>
    </defs>
    <g id="logotype-coloured-white" stroke="none" stroke-width="1" fill="none" fill-rule="evenodd">
        <g id="Brand-Document--/-v4-logotype-coloured-white">
            <g id="c10-mARK">
                <text id="1" font-family="SofiaPro-Bold, Sofia Pro" font-size="106.56" font-weight="bold" letter-spacing="-2.66399994" fill="#FFFFFF">
                    <tspan x="0" y="76">1</tspan>
                </text>
                <path d="M57.024,4.608 C76.747193,4.608 92.736,20.596807 92.736,40.32 C92.736,60.043193 76.747193,76.032 57.024,76.032 C37.300807,76.032 21.312,60.043193 21.312,40.32 C21.312,20.596807 37.300807,4.608 57.024,4.608 Z M57.312,16.704 C44.4283014,16.704 33.984,27.1483014 33.984,40.032 C33.984,52.9156986 44.4283014,63.36 57.312,63.36 C70.1956986,63.36 80.64,52.9156986 80.64,40.032 C80.64,27.1483014 70.1956986,16.704 57.312,16.704 Z" id="Combined-Shape" fill="url(#linearGradient-1)" opacity="0.44514974"></path>
                <path d="M57.024,4.608 L57.6,4.612 L57.6007174,16.70575 C57.504617,16.7045844 57.4083768,16.704 57.312,16.704 C44.4283014,16.704 33.984,27.1483014 33.984,40.032 C33.984,52.9156986 44.4283014,63.36 57.312,63.36 L57.6,63.357 L57.6005764,76.0274397 C57.4087478,76.0304761 57.2165519,76.032 57.024,76.032 C37.300807,76.032 21.312,60.043193 21.312,40.32 C21.312,20.596807 37.300807,4.608 57.024,4.608 Z" id="Combined-Shape" fill="url(#linearGradient-2)"></path>
            </g>
            <g filter="url(#filter-3)" id="Group">
                <g transform="translate(13.600000, 90.400000)">
                    <path d="M8.988544,17.100672 C11.828224,17.100672 14.099968,15.79776 15.56992,13.759872 L12.295936,11.45472 C11.594368,12.423552 10.291456,13.024896 9.021952,13.024896 C6.54976,13.024896 4.87936,11.254272 4.87936,8.94912 C4.87936,6.677376 6.54976,4.906752 9.021952,4.906752 C10.291456,4.906752 11.594368,5.508096 12.295936,6.476928 L15.56992,4.171776 C14.099968,2.167296 11.828224,0.830976 8.988544,0.830976 C4.445056,0.830976 0.436096,4.004736 0.436096,8.94912 C0.436096,13.893504 4.445056,17.100672 8.988544,17.100672 Z M24.2894079,17.100672 C26.0266239,17.100672 28.1981439,16.399104 29.3006079,14.862336 L29.3006079,16.8 L33.6770559,16.8 L33.6770559,1.231872 L29.3006079,1.231872 L29.3006079,3.10272 C28.1981439,1.532544 26.0934399,0.864384 24.2894079,0.864384 C20.2804479,0.864384 16.6389759,3.971328 16.6389759,8.982528 C16.6389759,13.993728 20.2804479,17.100672 24.2894079,17.100672 Z M25.1246079,13.024896 C22.9196799,13.024896 21.0822399,11.254272 21.0822399,8.982528 C21.0822399,6.677376 22.9196799,4.973568 25.1246079,4.973568 C27.1624959,4.973568 29.1669759,6.577152 29.1669759,8.982528 C29.1669759,11.354496 27.2627199,13.024896 25.1246079,13.024896 Z M41.6281599,24.450432 L41.6281599,14.862336 C42.7306239,16.432512 44.8687359,17.100672 46.6393599,17.100672 C50.6483199,17.100672 54.2897919,13.993728 54.2897919,8.982528 C54.2897919,3.971328 50.6483199,0.830976 46.6393599,0.830976 C44.8687359,0.830976 42.7306239,1.532544 41.6281599,3.10272 L41.6281599,1.231872 L37.2517119,1.231872 L37.2517119,24.450432 L41.6281599,24.450432 Z M45.8041599,12.991488 C43.7662719,12.991488 41.7617919,11.387904 41.7617919,8.982528 C41.7617919,6.61056 43.6660479,4.94016 45.8041599,4.94016 C48.0090879,4.94016 49.8131199,6.710784 49.8131199,8.982528 C49.8131199,11.28768 48.0090879,12.991488 45.8041599,12.991488 Z" id="cap" fill="#414141" fill-rule="nonzero"></path>
                    <g id="10" transform="translate(53.344000, 0.000000)" fill="#414141">
                        <path d="M17.4216961,16.300672 C21.8649601,16.300672 25.8071041,13.093504 25.8071041,8.182528 C25.8071041,3.238144 21.8649601,0.030976 17.4216961,0.030976 C12.9784321,0.030976 9.03628806,3.238144 9.03628806,8.182528 C9.03628806,13.093504 12.9784321,16.300672 17.4216961,16.300672 Z M17.4216961,12.224896 C15.2501761,12.224896 13.4795521,10.587904 13.4795521,8.182528 C13.4795521,5.743744 15.2501761,4.106752 17.4216961,4.106752 C19.5932161,4.106752 21.3638401,5.743744 21.3638401,8.182528 C21.3638401,10.587904 19.5932161,12.224896 17.4216961,12.224896 Z" id="o" fill-rule="nonzero"></path>
                        <rect id="Rectangle" x="3.888" y="1.008" width="3.744" height="15.552"></rect>
                        <rect id="Rectangle-Copy" transform="translate(3.024000, 3.888000) rotate(55.000000) translate(-3.024000, -3.888000) " x="1.152" y="1.584" width="3.744" height="4.608"></rect>
                    </g>
                </g>
            </g>
        </g>
    </g>
</svg>