<?xml version="1.0" encoding="UTF-8"?>
<svg width="224px" height="36px" viewBox="0 0 224 36" version="1.1" xmlns="http://www.w3.org/2000/svg" xmlns:xlink="http://www.w3.org/1999/xlink">
    <!-- Generator: Sketch 64 (93537) - https://sketch.com -->
    <title>change-please</title>
    <desc>Created with Sketch.</desc>
    <defs>
        <linearGradient x1="10.144043%" y1="9.436035%" x2="78.487142%" y2="74.348958%" id="linearGradient-1">
            <stop stop-color="#48BAF2" offset="0%"></stop>
            <stop stop-color="#908DF7" offset="100%"></stop>
        </linearGradient>
    </defs>
    <g id="Client-logos" stroke="none" stroke-width="1" fill="none" fill-rule="evenodd">
        <g id="tone-and-sculpt-copy-5" transform="translate(-21.000000, -42.000000)">
            <g id="change-please" transform="translate(21.000000, 42.000000)">
                <path d="M46.3383736,15.5472527 C46.3383736,14.4543901 46.5391958,13.3741537 46.9408462,12.306511 C47.3424968,11.2388683 47.9278722,10.2847295 48.6969902,9.44406594 C49.4661082,8.6034024 50.4061272,7.92247514 51.5170754,7.40126374 C52.6280236,6.88005234 53.8927766,6.61945054 55.311372,6.61945054 C56.98634,6.61945054 58.4348238,6.98093046 59.6568668,7.7039011 C60.87891,8.42687174 61.7890192,9.3684008 62.3872222,10.5285165 L59.6696854,12.3695604 C59.4304044,11.8651623 59.139853,11.4406336 58.7980228,11.0959615 C58.4561926,10.7512895 58.0887306,10.4780779 57.6956258,10.2763187 C57.302521,10.0745594 56.892331,9.92744552 56.4650432,9.83497252 C56.0377554,9.74249954 55.6190196,9.69626374 55.2088234,9.69626374 C54.3200648,9.69626374 53.5466856,9.87280044 52.8886624,10.2258791 C52.2306392,10.5789578 51.683719,11.0371126 51.2478856,11.6003571 C50.812052,12.1636017 50.4830454,12.8024964 50.2608556,13.5170604 C50.038666,14.2316245 49.9275728,14.9419745 49.9275728,15.6481319 C49.9275728,16.4383556 50.0557572,17.1991447 50.31213,17.930522 C50.5685026,18.6618993 50.9316918,19.3049972 51.4017084,19.8598352 C51.8717248,20.4146732 52.4357364,20.860218 53.0937594,21.1964836 C53.7517826,21.532749 54.4738882,21.7008792 55.2600976,21.7008792 C55.670294,21.7008792 56.0975752,21.65044 56.5419546,21.5495604 C56.9863338,21.4486808 57.4093424,21.2889572 57.810993,21.0703846 C58.2126434,20.851812 58.5843782,20.570194 58.9262084,20.225522 C59.2680386,19.8808499 59.5414988,19.4647277 59.7465968,18.9771429 L62.6435936,20.6164286 C62.3530378,21.2889594 61.9385748,21.8816184 61.4001922,22.394423 C60.8618098,22.9072278 60.2550702,23.340163 59.5799554,23.6932418 C58.9048408,24.0463204 58.1827352,24.3153288 57.4136172,24.5002748 C56.6444992,24.6852208 55.892484,24.7776924 55.1575492,24.7776924 C53.8585942,24.7776924 52.670752,24.508684 51.5939868,23.9706594 C50.5172216,23.4326346 49.5900212,22.7306912 48.8123574,21.8648076 C48.0346936,20.9989242 47.427954,20.0153626 46.9921206,18.9140934 C46.556287,17.8128242 46.3383736,16.6905552 46.3383736,15.5472527 L46.3383736,15.5472527 Z M76.7854334,24.6263736 L73.3500568,24.6263736 L73.3500568,17.2117582 C73.3500568,16.1693354 73.1535074,15.4001398 72.7604026,14.9041484 C72.3672978,14.4081569 71.8118322,14.1601648 71.0939886,14.1601648 C70.7863414,14.1601648 70.4616076,14.2274169 70.1197774,14.3619231 C69.7779472,14.4964292 69.4532134,14.6855757 69.1455662,14.9293681 C68.837919,15.1731606 68.5559132,15.4631851 68.2995406,15.7994505 C68.043168,16.135716 67.8551642,16.5056024 67.7355236,16.9091209 L67.7355236,24.6263736 L64.300147,24.6263736 L64.300147,6.21593406 L67.7355236,6.21593406 L67.7355236,13.8575275 C68.2311774,13.0000507 68.902009,12.3401397 69.7480388,11.8777747 C70.5940686,11.4154098 71.5298148,11.1842308 72.5553056,11.1842308 C73.4269726,11.1842308 74.1362596,11.3313447 74.683188,11.6255769 C75.2301164,11.9198092 75.6573978,12.3107118 75.965045,12.7982967 C76.2726922,13.2858816 76.4863328,13.8407112 76.6059734,14.4628022 C76.725614,15.0848932 76.7854334,15.7237879 76.7854334,16.3795055 L76.7854334,24.6263736 Z M83.0566718,24.8785714 C82.4071944,24.8785714 81.8004548,24.77349 81.236435,24.5633242 C80.672415,24.3531582 80.1853144,24.0589304 79.775118,23.6806318 C79.3649218,23.3023332 79.0444608,22.8609916 78.8137254,22.3565934 C78.58299,21.8521952 78.467624,21.2973656 78.467624,20.692088 C78.467624,20.0699968 78.6086268,19.494151 78.8906368,18.964533 C79.1726468,18.4349149 79.5657456,17.9851667 80.0699452,17.6152747 C80.5741448,17.2453828 81.1766114,16.9553582 81.8773634,16.7451923 C82.5781154,16.5350264 83.3472218,16.4299451 84.1847058,16.4299451 C84.7829088,16.4299451 85.3682842,16.4803841 85.9408498,16.5812637 C86.5134154,16.6821434 87.0218802,16.825054 87.4662596,17.01 L87.4662596,16.2534066 C87.4662596,15.3791165 87.2141636,14.7065958 86.709964,14.2358242 C86.2057644,13.7650526 85.458022,13.5296703 84.4667144,13.5296703 C83.748871,13.5296703 83.0481294,13.655768 82.364469,13.907967 C81.6808086,14.1601661 80.9800672,14.5300525 80.2622236,15.0176374 L79.211101,12.873956 C80.9373436,11.7474669 82.8002904,11.1842308 84.7999972,11.1842308 C86.731338,11.1842308 88.2310956,11.650792 89.299315,12.5839286 C90.3675344,13.5170651 90.901636,14.8663099 90.901636,16.6317033 L90.901636,20.7425274 C90.901636,21.0956062 90.9657282,21.3478014 91.0939146,21.4991208 C91.222101,21.6504404 91.4314688,21.7345054 91.7220246,21.7513186 L91.7220246,24.6263736 C91.1409132,24.7440666 90.6367212,24.802912 90.2094334,24.802912 C89.559956,24.802912 89.0600368,24.6600014 88.7096608,24.3741758 C88.3592848,24.0883502 88.1413712,23.7100572 88.0559138,23.2392858 L87.9790024,22.507912 C87.3807994,23.2813226 86.6544212,23.8697782 85.7998456,24.2732968 C84.94527,24.6768152 84.0308878,24.8785714 83.0566718,24.8785714 L83.0566718,24.8785714 Z M84.030883,22.407033 C84.6119944,22.407033 85.1631874,22.3061548 85.6844784,22.1043956 C86.2057696,21.9026364 86.6116868,21.633628 86.9022426,21.2973626 C87.2782558,21.011537 87.4662596,20.6920896 87.4662596,20.339011 L87.4662596,18.8258242 C87.0560632,18.6745047 86.6116906,18.5526104 86.1331284,18.4601374 C85.654566,18.3676644 85.1931022,18.3214286 84.7487228,18.3214286 C83.8599644,18.3214286 83.133586,18.5189815 82.5695662,18.9140934 C82.0055462,19.3092053 81.7235406,19.8093926 81.7235406,20.4146704 C81.7235406,20.9863216 81.9457268,21.4612894 82.3901062,21.839588 C82.8344854,22.2178866 83.3814056,22.407033 84.030883,22.407033 L84.030883,22.407033 Z M106.197147,24.6263736 L102.761771,24.6263736 L102.761771,17.2117582 C102.761771,16.1525222 102.573767,15.3791233 102.197754,14.8915385 C101.82174,14.4039536 101.300457,14.1601648 100.633888,14.1601648 C100.292058,14.1601648 99.9416872,14.2274169 99.5827654,14.3619231 C99.2238438,14.4964292 98.8862914,14.6855757 98.5700986,14.9293681 C98.2539056,15.1731606 97.967627,15.4631851 97.7112544,15.7994505 C97.4548818,16.135716 97.266878,16.5056024 97.1472374,16.9091209 L97.1472374,24.6263736 L93.7118608,24.6263736 L93.7118608,11.4112088 L96.8139546,11.4112088 L96.8139546,13.8575275 C97.3096084,13.0168639 98.027441,12.3611562 98.9674742,11.8903846 C99.9075072,11.419613 100.967165,11.1842308 102.146479,11.1842308 C102.983963,11.1842308 103.667614,11.3355479 104.19745,11.6381868 C104.727287,11.9408257 105.137477,12.3359316 105.428033,12.8235165 C105.718589,13.3111013 105.919411,13.865931 106.030506,14.488022 C106.141601,15.110113 106.197147,15.7406012 106.197147,16.3795055 L106.197147,24.6263736 Z M114.057888,24.702033 C113.152038,24.702033 112.331658,24.5254962 111.596723,24.1724176 C110.861788,23.8193388 110.225139,23.3359646 109.686756,22.7222802 C109.148373,22.1085958 108.733911,21.3982458 108.443355,20.5912088 C108.152799,19.7841718 108.007523,18.9267078 108.007523,18.0187912 C108.007523,17.0604348 108.161345,16.1693448 108.468992,15.3454945 C108.776639,14.5216442 109.203921,13.7986844 109.750849,13.1765934 C110.297777,12.5545024 110.955791,12.0669248 111.724909,11.7138462 C112.494027,11.3607675 113.340044,11.1842308 114.262985,11.1842308 C115.305567,11.1842308 116.21995,11.4154098 117.006159,11.8777747 C117.792369,12.3401397 118.441836,12.9580181 118.954582,13.7314286 L118.954582,11.4112088 L121.954127,11.4112088 L121.954127,23.9958792 C121.954127,24.9710488 121.766123,25.8453258 121.39011,26.6187362 C121.014096,27.3921468 120.497086,28.0478544 119.839063,28.5858792 C119.18104,29.1239038 118.394842,29.5358228 117.480446,29.8216484 C116.56605,30.107474 115.570485,30.2503846 114.493719,30.2503846 C113.02385,30.2503846 111.789006,30.010799 110.789153,29.5316208 C109.7893,29.0524426 108.930464,28.3757186 108.212621,27.5014286 L110.084132,25.7108242 C110.596877,26.3329152 111.242072,26.8204928 112.019736,27.1735714 C112.797399,27.5266502 113.622052,27.7031868 114.493719,27.7031868 C115.023556,27.7031868 115.532021,27.6317314 116.019129,27.4888186 C116.506237,27.3459058 116.937791,27.1231334 117.313805,26.8204946 C117.689818,26.5178556 117.984642,26.1311562 118.198286,25.6603846 C118.41193,25.189613 118.51875,24.6347834 118.51875,23.9958792 L118.51875,22.3313736 C118.074371,23.0879708 117.45054,23.6722232 116.647239,24.0841484 C115.843938,24.4960734 114.98083,24.702033 114.057888,24.702033 Z M115.211559,22.0035164 C115.587573,22.0035164 115.946489,21.944671 116.288319,21.826978 C116.630149,21.7092852 116.946338,21.5495614 117.236893,21.3478022 C117.527449,21.146043 117.783818,20.9106606 118.006007,20.6416484 C118.228197,20.372636 118.39911,20.0868148 118.51875,19.7841758 L118.51875,16.6317033 C118.211103,15.8582928 117.728275,15.2362111 117.070252,14.7654396 C116.412229,14.294668 115.724306,14.0592857 115.006462,14.0592857 C114.476625,14.0592857 113.99807,14.1727736 113.570783,14.3997527 C113.143495,14.6267319 112.776033,14.9293662 112.468386,15.3076648 C112.160738,15.6859634 111.925734,16.1188987 111.763364,16.6064835 C111.600995,17.0940684 111.519811,17.5984589 111.519811,18.1196703 C111.519811,18.657695 111.613813,19.1620856 111.80182,19.6328571 C111.989827,20.1036288 112.250468,20.5155476 112.583753,20.8686264 C112.917037,21.221705 113.305863,21.4991198 113.750242,21.7008792 C114.194622,21.9026384 114.681723,22.0035164 115.211559,22.0035164 L115.211559,22.0035164 Z M130.891628,24.8785714 C129.814862,24.8785714 128.840661,24.6978314 127.968994,24.3363462 C127.097327,23.9748608 126.353857,23.48308 125.738563,22.860989 C125.123268,22.238898 124.648986,21.5159382 124.315702,20.692088 C123.982417,19.8682376 123.815777,19.0023672 123.815777,18.0944505 C123.815777,17.1529074 123.978144,16.2660206 124.302883,15.4337637 C124.627622,14.6015068 125.097631,13.8701405 125.712926,13.2396429 C126.32822,12.6091452 127.075962,12.1089579 127.956175,11.7390659 C128.836388,11.369174 129.823408,11.1842308 130.917265,11.1842308 C132.011121,11.1842308 132.989596,11.369174 133.852717,11.7390659 C134.715838,12.1089579 135.450762,12.6049419 136.057511,13.227033 C136.66426,13.849124 137.125723,14.5720838 137.441916,15.3959341 C137.758109,16.2197843 137.916203,17.0772483 137.916203,17.9683516 C137.916203,18.1869242 137.911931,18.3970869 137.903385,18.5988462 C137.894839,18.8006054 137.873475,18.9687356 137.839292,19.1032418 L127.456251,19.1032418 C127.507526,19.6244532 127.63571,20.0868112 127.840808,20.4903296 C128.045906,20.8938482 128.310821,21.238515 128.635559,21.5243406 C128.960298,21.8101662 129.32776,22.0287356 129.737956,22.180055 C130.148153,22.3313744 130.575434,22.407033 131.019813,22.407033 C131.703474,22.407033 132.348669,22.243106 132.955417,21.9152472 C133.562166,21.5873884 133.976629,21.1544532 134.198818,20.6164286 L137.147089,21.4234616 C136.651435,22.4322578 135.860965,23.260299 134.775654,23.9076098 C133.690343,24.5549208 132.395681,24.8785714 130.891628,24.8785714 L130.891628,24.8785714 Z M134.378278,16.9091209 C134.292821,15.9171379 133.921086,15.1227228 133.263063,14.5258516 C132.60504,13.9289805 131.806024,13.6305495 130.86599,13.6305495 C130.40452,13.6305495 129.972965,13.7104113 129.571315,13.8701374 C129.169664,14.0298634 128.815021,14.2526359 128.507374,14.5384615 C128.199726,14.8242871 127.94763,15.168954 127.751078,15.5724725 C127.554526,15.975991 127.43916,16.421536 127.404977,16.9091209 L134.378278,16.9091209 Z M139.829128,24.6263736 L139.829128,6.72032968 L147.545907,6.72032968 C148.383391,6.72032968 149.15677,6.89266312 149.866068,7.23733516 C150.575366,7.58200722 151.186378,8.03595872 151.699123,8.5992033 C152.211869,9.16244788 152.613513,9.80134258 152.904069,10.5159066 C153.194625,11.2304706 153.3399,11.9492272 153.3399,12.6721978 C153.3399,13.428795 153.20317,14.1643646 152.929706,14.8789286 C152.656242,15.5934926 152.271689,16.228184 151.776035,16.783022 C151.280381,17.3378599 150.682187,17.7834049 149.981435,18.1196703 C149.280683,18.4559357 148.511577,18.6240659 147.674093,18.6240659 L143.367053,18.6240659 L143.367053,24.6263736 L139.829128,24.6263736 Z M143.367053,15.5724725 L147.468996,15.5724725 C148.118473,15.5724725 148.66112,15.3118707 149.096954,14.7906593 C149.532787,14.2694479 149.750701,13.5633012 149.750701,12.6721978 C149.750701,12.2182395 149.682336,11.8105238 149.545604,11.4490385 C149.408872,11.0875531 149.229413,10.7807155 149.007224,10.5285165 C148.785034,10.2763174 148.524393,10.087171 148.225291,9.96107142 C147.92619,9.8349719 147.62282,9.77192308 147.315173,9.77192308 L143.367053,9.77192308 L143.367053,15.5724725 Z M155.047728,6.21593406 L158.483105,6.21593406 L158.483105,20.3894506 C158.483105,20.8770354 158.602743,21.2553284 158.842024,21.5243406 C159.081306,21.793353 159.423131,21.9278572 159.86751,21.9278572 C160.072608,21.9278572 160.299067,21.8942312 160.546894,21.826978 C160.794721,21.759725 161.029726,21.6756598 161.251915,21.5747802 L161.713384,24.1471978 C161.251913,24.3657704 160.713539,24.5339006 160.098244,24.6515934 C159.48295,24.7692864 158.927484,24.8281318 158.43183,24.8281318 C157.355065,24.8281318 156.521866,24.5465138 155.932209,23.9832692 C155.342552,23.4200246 155.047728,22.617203 155.047728,21.5747802 L155.047728,6.21593406 Z M169.035745,24.8785714 C167.95898,24.8785714 166.984778,24.6978314 166.113111,24.3363462 C165.241444,23.9748608 164.497975,23.48308 163.88268,22.860989 C163.267386,22.238898 162.793103,21.5159382 162.459819,20.692088 C162.126535,19.8682376 161.959895,19.0023672 161.959895,18.0944505 C161.959895,17.1529074 162.122262,16.2660206 162.447,15.4337637 C162.771739,14.6015068 163.241749,13.8701405 163.857043,13.2396429 C164.472337,12.6091452 165.22008,12.1089579 166.100293,11.7390659 C166.980505,11.369174 167.967525,11.1842308 169.061382,11.1842308 C170.155239,11.1842308 171.133713,11.369174 171.996834,11.7390659 C172.859956,12.1089579 173.59488,12.6049419 174.201628,13.227033 C174.808377,13.849124 175.269841,14.5720838 175.586034,15.3959341 C175.902227,16.2197843 176.060321,17.0772483 176.060321,17.9683516 C176.060321,18.1869242 176.056048,18.3970869 176.047502,18.5988462 C176.038957,18.8006054 176.017593,18.9687356 175.98341,19.1032418 L165.600368,19.1032418 C165.651643,19.6244532 165.779827,20.0868112 165.984926,20.4903296 C166.190024,20.8938482 166.454938,21.238515 166.779677,21.5243406 C167.104416,21.8101662 167.471878,22.0287356 167.882074,22.180055 C168.29227,22.3313744 168.719551,22.407033 169.163931,22.407033 C169.847591,22.407033 170.492786,22.243106 171.099535,21.9152472 C171.706283,21.5873884 172.120746,21.1544532 172.342936,20.6164286 L175.291207,21.4234616 C174.795553,22.4322578 174.005082,23.260299 172.919771,23.9076098 C171.834461,24.5549208 170.539798,24.8785714 169.035745,24.8785714 L169.035745,24.8785714 Z M172.522396,16.9091209 C172.436938,15.9171379 172.065203,15.1227228 171.40718,14.5258516 C170.749157,13.9289805 169.950141,13.6305495 169.010108,13.6305495 C168.548637,13.6305495 168.117083,13.7104113 167.715432,13.8701374 C167.313782,14.0298634 166.959138,14.2526359 166.651491,14.5384615 C166.343844,14.8242871 166.091748,15.168954 165.895196,15.5724725 C165.698643,15.975991 165.583277,16.421536 165.549094,16.9091209 L172.522396,16.9091209 Z M181.434259,24.8785714 C180.784782,24.8785714 180.178043,24.77349 179.614023,24.5633242 C179.050003,24.3531582 178.562902,24.0589304 178.152706,23.6806318 C177.742509,23.3023332 177.422048,22.8609916 177.191313,22.3565934 C176.960578,21.8521952 176.845212,21.2973656 176.845212,20.692088 C176.845212,20.0699968 176.986215,19.494151 177.268224,18.964533 C177.550234,18.4349149 177.943333,17.9851667 178.447533,17.6152747 C178.951732,17.2453828 179.554199,16.9553582 180.254951,16.7451923 C180.955703,16.5350264 181.72481,16.4299451 182.562294,16.4299451 C183.160496,16.4299451 183.745872,16.4803841 184.318438,16.5812637 C184.891003,16.6821434 185.399468,16.825054 185.843847,17.01 L185.843847,16.2534066 C185.843847,15.3791165 185.591751,14.7065958 185.087552,14.2358242 C184.583352,13.7650526 183.83561,13.5296703 182.844302,13.5296703 C182.126459,13.5296703 181.425717,13.655768 180.742057,13.907967 C180.058396,14.1601661 179.357655,14.5300525 178.639811,15.0176374 L177.588689,12.873956 C179.314931,11.7474669 181.177878,11.1842308 183.177585,11.1842308 C185.108926,11.1842308 186.608683,11.650792 187.676903,12.5839286 C188.745122,13.5170651 189.279224,14.8663099 189.279224,16.6317033 L189.279224,20.7425274 C189.279224,21.0956062 189.343316,21.3478014 189.471502,21.4991208 C189.599689,21.6504404 189.809057,21.7345054 190.099612,21.7513186 L190.099612,24.6263736 C189.518501,24.7440666 189.014309,24.802912 188.587021,24.802912 C187.937544,24.802912 187.437624,24.6600014 187.087248,24.3741758 C186.736872,24.0883502 186.518959,23.7100572 186.433501,23.2392858 L186.35659,22.507912 C185.758387,23.2813226 185.032009,23.8697782 184.177433,24.2732968 C183.322858,24.6768152 182.408476,24.8785714 181.434259,24.8785714 L181.434259,24.8785714 Z M182.408471,22.407033 C182.989582,22.407033 183.540775,22.3061548 184.062066,22.1043956 C184.583357,21.9026364 184.989275,21.633628 185.27983,21.2973626 C185.655843,21.011537 185.843847,20.6920896 185.843847,20.339011 L185.843847,18.8258242 C185.433651,18.6745047 184.989278,18.5526104 184.510716,18.4601374 C184.032154,18.3676644 183.57069,18.3214286 183.126311,18.3214286 C182.237552,18.3214286 181.511174,18.5189815 180.947154,18.9140934 C180.383134,19.3092053 180.101128,19.8093926 180.101128,20.4146704 C180.101128,20.9863216 180.323315,21.4612894 180.767694,21.839588 C181.212073,22.2178866 181.758993,22.407033 182.408471,22.407033 L182.408471,22.407033 Z M197.165602,24.8785714 C196.037562,24.8785714 194.935176,24.7020348 193.858411,24.348956 C192.781646,23.9958774 191.858718,23.4914868 191.0896,22.8357692 L192.371457,20.7173076 C193.19185,21.288959 193.990866,21.7218942 194.768529,22.0161264 C195.546193,22.3103586 196.319572,22.4574726 197.08869,22.4574726 C197.772351,22.4574726 198.310725,22.3313748 198.70383,22.0791758 C199.096935,21.8269768 199.293484,21.4654968 199.293484,20.9947252 C199.293484,20.5239536 199.062752,20.1792868 198.601282,19.9607143 C198.139811,19.7421418 197.387796,19.4899465 196.345213,19.2041209 C195.473546,18.9687351 194.730077,18.7417593 194.114782,18.5231868 C193.499488,18.3046143 193.003842,18.0566223 192.627828,17.7792033 C192.251815,17.5017843 191.978355,17.182337 191.80744,16.8208516 C191.636525,16.4593663 191.551069,16.0264311 191.551069,15.522033 C191.551069,14.8495021 191.683526,14.2442335 191.948444,13.7062088 C192.213363,13.1681841 192.585097,12.7100294 193.06366,12.3317308 C193.542222,11.9534322 194.101961,11.6634076 194.742892,11.4616484 C195.383824,11.2598891 196.080293,11.159011 196.832319,11.159011 C197.840718,11.159011 198.78501,11.3019216 199.665223,11.5877473 C200.545436,11.8735729 201.352998,12.3359309 202.087932,12.9748352 L200.703526,15.0176374 C200.019866,14.5132392 199.35758,14.1433528 198.716649,13.907967 C198.075717,13.6725812 197.439068,13.5548901 196.806682,13.5548901 C196.225571,13.5548901 195.73847,13.6725812 195.345365,13.907967 C194.95226,14.1433528 194.755711,14.5216457 194.755711,15.0428571 C194.755711,15.2782429 194.802712,15.4715927 194.896715,15.6229121 C194.990718,15.7742315 195.140267,15.9087357 195.345365,16.0264286 C195.550463,16.1441215 195.81965,16.2576093 196.152935,16.3668956 C196.486219,16.4761819 196.900682,16.5896697 197.396336,16.7073626 C198.319278,16.9427484 199.109748,17.1781307 199.767771,17.4135165 C200.425794,17.6489023 200.96417,17.9179106 201.382912,18.2205495 C201.801654,18.5231883 202.109296,18.8720585 202.305848,19.2671703 C202.5024,19.6622822 202.600676,20.13725 202.600676,20.692088 C202.600676,21.9867098 202.113574,23.0081006 201.139358,23.7562912 C200.165142,24.5044818 198.84057,24.8785714 197.165602,24.8785714 L197.165602,24.8785714 Z M210.666514,24.8785714 C209.589748,24.8785714 208.615546,24.6978314 207.74388,24.3363462 C206.872212,23.9748608 206.128742,23.48308 205.513448,22.860989 C204.898154,22.238898 204.423872,21.5159382 204.090588,20.692088 C203.757302,19.8682376 203.590664,19.0023672 203.590664,18.0944505 C203.590664,17.1529074 203.75303,16.2660206 204.077768,15.4337637 C204.402508,14.6015068 204.872516,13.8701405 205.487812,13.2396429 C206.103106,12.6091452 206.850848,12.1089579 207.73106,11.7390659 C208.611274,11.369174 209.598294,11.1842308 210.69215,11.1842308 C211.786008,11.1842308 212.764482,11.369174 213.627602,11.7390659 C214.490724,12.1089579 215.225648,12.6049419 215.832396,13.227033 C216.439146,13.849124 216.90061,14.5720838 217.216802,15.3959341 C217.532996,16.2197843 217.69109,17.0772483 217.69109,17.9683516 C217.69109,18.1869242 217.686816,18.3970869 217.67827,18.5988462 C217.669724,18.8006054 217.64836,18.9687356 217.614178,19.1032418 L207.231136,19.1032418 C207.282412,19.6244532 207.410596,20.0868112 207.615694,20.4903296 C207.820792,20.8938482 208.085706,21.238515 208.410446,21.5243406 C208.735184,21.8101662 209.102646,22.0287356 209.512842,22.180055 C209.923038,22.3313744 210.35032,22.407033 210.7947,22.407033 C211.47836,22.407033 212.123554,22.243106 212.730302,21.9152472 C213.337052,21.5873884 213.751514,21.1544532 213.973704,20.6164286 L216.921976,21.4234616 C216.426322,22.4322578 215.63585,23.260299 214.55054,23.9076098 C213.465228,24.5549208 212.170566,24.8785714 210.666514,24.8785714 L210.666514,24.8785714 Z M214.153164,16.9091209 C214.067706,15.9171379 213.695972,15.1227228 213.037948,14.5258516 C212.379926,13.9289805 211.58091,13.6305495 210.640876,13.6305495 C210.179406,13.6305495 209.747852,13.7104113 209.3462,13.8701374 C208.94455,14.0298634 208.589906,14.2526359 208.28226,14.5384615 C207.974612,14.8242871 207.722516,15.168954 207.525964,15.5724725 C207.329412,15.975991 207.214046,16.421536 207.179862,16.9091209 L214.153164,16.9091209 Z M220.065482,17.8926923 L220.065482,6.5437912 L223.50086,6.5437912 L223.50086,17.8926923 L220.065482,17.8926923 Z M220.065482,24.6263736 L220.065482,20.8181868 L223.50086,20.8181868 L223.50086,24.6263736 L220.065482,24.6263736 Z" id="Shape" fill="#1D1F24" fill-rule="nonzero"></path>
                <rect id="Rectangle" fill="url(#linearGradient-1)" fill-rule="nonzero" x="0" y="0" width="36.49522" height="35.9011" rx="9.261"></rect>
                <g id="Group" stroke-linecap="round" stroke-linejoin="round" transform="translate(6.333882, 6.230770)" stroke="#FFFFFF">
                    <path d="M7.8419482,23.4395604 L1.56838964,23.4395604 C0.70219196,23.4395604 4.4408921e-16,22.7563906 4.4408921e-16,21.9136578 L4.4408921e-16,18.0989011" id="Path" stroke-width="2.4"></path>
                    <g id="Path" stroke-width="2.5638">
                        <path d="M23.827458,18.0989011 L23.827458,21.9136578 C23.827458,22.7563906 23.125266,23.4395604 22.2590684,23.4395604 L15.9855098,23.4395604"></path>
                        <path d="M15.9855098,0 L22.2590684,0 C23.125266,0 23.827458,0.6831699 23.827458,1.52590266 L23.827458,5.34065934"></path>
                        <path d="M0,5.34065934 L0,1.52590266 C0,0.6831699 0.70219196,2.22044605e-16 1.56838964,2.22044605e-16 L7.8419482,2.22044605e-16"></path>
                    </g>
                </g>
            </g>
        </g>
    </g>
</svg>