<svg height="38" viewBox="0 0 93 38" width="93" xmlns="http://www.w3.org/2000/svg"><g fill="#fff"><path d="m8.48340435.02236803c-3.59561507.10065613-6.50581604.5480167-7.15752128 1.24142559-.57305116.61512079-1.29217418 1.12958544-1.31464677 1.95720251-.0224726.81643304.93261267.88353713 1.51690012.88353713s1.11239343-.04473606 1.10115713-.3914405c0-.4697286-.76406822-.38025649-.76406822-.84998509 0-.54801671 2.97761877-.68222488 4.46080999-.68222488 12.77566988-.04473605 27.46151038 8.75708321 27.48398298 16.21682081.0224725 5.8045034-7.5620281 7.101849-11.7531669 7.113033-1.4831912.0111841-2.9326736-.1565761-4.3035018-.4026244-.0561815-1.8565464-.1685445-5.7262154-.2247259-8.1755145.4831607-.011184.9326126-.011184 1.325883-.011184 3.0899817-.011184 7.1575213 1.0736653 7.1687576 1.7894422 0 .6151209-1.0786845 1.0401134-1.0786845 1.6328661.0112362.4361766 1.0000304.3690725 1.8652253.4249926.1573082.011184 1.9101706-.9618252 1.8989342-2.4940352 0-2.0354906-2.5506394-4.4400537-10.8654993-4.4176857-.112363 0-.2359623.0111841-.3595615.0111841-.0786542-2.2815389-.415743-5.8827916-1.7191535-5.8827916-1.0786845.011184-1.3933008 3.9703251-1.4944275 6.1623919-4.6630634.6934089-8.80925706 2.5835074-8.79802077 4.4400537 0 1.5210259 3.33718027 5.3571429 8.73060297 7.6834178.0898903 1.7223383.4269792 2.9078438 1.9551157 2.8967382 1.1236297 0 1.4944275-.8165115 1.6180268-1.6776806 1.741626.4473606 3.6405603.6934089 5.6406212.6934089 7.8316991-.022368 14.1127893-4.1828213 14.0903768-9.8866687-.0225328-7.6498657-15.5398591-18.65493586-29.03465212-18.28586338zm-2.10118754 19.03519237c0-1.3308977 4.07877589-1.8341783 7.84293549-2.0243066-.0337089 2.0914107-.0561816 5.0999106-.0561816 7.1018491-4.6293544-1.6216821-7.78675389-4.2051894-7.78675389-5.0775425z"/><path d="m40.3158344 14.058306c-1.3258831.011184-1.359592 5.3124068-1.3933009 7.2472413-.0898904 4.4288696.5618149 4.9545183 1.7416261 4.9433343 1.0562119 0 1.4270097-.1230242 1.325883-3.8249329-.1573081-7.001193-.6404689-8.3544587-1.6742082-8.3544587z"/><path d="m41.0012485 12.0451835c2.9326735-.0111841 7.5957369-3.32165232 7.5845209-6.06173584 0-1.24142559-.6404893-1.86773039-2.2472797-2.10259469-.6741779-.63748881-1.662972-1.35326574-3.134927-1.35326574-4.5619366.01118402-7.5170828 3.62362065-7.5170828 5.5920072 0 .7269609.2359622 1.62168202.8876674 2.37101097.0224727 1.565762.4045068 1.9795706.9213765 1.9795706.5730511 0 .91014-.3243365 1.134866-.726961.6517052.2013123 1.438246.3131524 2.3708587.3019685zm.30338-2.2256189c-.6854141 0-1.247229-.07828815-1.7303898-.2236803 1.2921742-1.45392187 4.4271011-4.2051894 5.9664739-4.2051894 1.0112667-.01118401 1.1798112.79406502 1.1798112 1.0960334 0 1.84536235-3.7866322 3.3440203-5.4158953 3.3440203zm.2134897-4.88741428c-1.4045372.82761705-2.8427832 1.96838652-3.7978685 3.12033996-.0449452-.15657615-.0674178-.30196838-.0674178-.43617653-.0112363-.88353713 1.2921742-2.24798688 3.8652863-2.68416343z"/><path d="m56.1702497 15.0089472c-.0112363-1.2190576-3.1798721-1.2078735-4.9552071-1.1966895-1.3371193 0-8.1238428.1565761-8.1126205 3.925589.0112503 2.5499552 3.7978824 1.9348345 6.314813 2.1808828 2.0562424.2013122 4.5507004.8611691 4.5507004 1.5322099.0112363 1.4874739-5.4271316 2.0914108-6.5507613 2.1025947-2.303441 0-2.3596224-.6598568-2.3596224-1.0065612 0-.3355205.3820341-.9059052 1.247229-.9059052s2.6405298 1.0960334 3.8652862 1.0960334c1.2247564-.011184 2.2584957-.5480167 2.2472595-1.0960334 0-.9953773-4.0675396-1.4874739-5.326005-1.4762899-1.3146467.011184-3.2135809.5480167-3.2135809 2.5164032.0112363 1.0177453 1.6854445 3.4446764 6.4159257 3.4223084 4.6630633-.011184 5.8428745-2.6506114 5.8316382-4.0038771-.0112363-3.3104682-3.1461632-3.6795408-5.8878197-3.9144051-2.0450061-.1677602-4.2697929-.2684163-4.2585567-.7157769.0224727-1.5098419 10.1913216-.3914405 10.1800853-2.4492991z"/><path d="m63.9120585 12.2129436c-.3820342 0-.4494519.4026245-.4494519.8388011.0112363 1.2861617 1.7978075 5.7933194 1.7978075 7.5044736 0 .3578885-.0337089.9953773-.30338 1.0736654-.4269793.1230241-4.1799025-6.6880406-5.7305116-6.7886967-1.6067904-.1118402-2.4607491 6.6768565-2.4496222 8.3544587.0113458 1.6776022.3034895 2.7960036 1.5394821 2.7960036 1.8539891-.0111841.8876676-6.7998807 1.6404994-6.7998807.5505786 0 3.5731425 6.2071279 5.2473509 6.2071279 1.8202801-.011184 2.8989646-2.6617954 2.8878153-4.3841336-.0113233-3.9479571-2.6518531-8.7906352-4.1799895-8.7906352z"/><path d="m76.4967113 22.7259171c-.651705 0-4.2810292.8052491-4.5169914.5815688-.2359623-.2236803.2022533-2.303907.6629415-2.4492992s3.2922354-.1006561 3.7529236-.1342081c1.3146465-.0671041 1.067448-1.8453624.2584343-1.9124665-.415743-.0335521-2.9888549-.0447361-3.1236904-.2796004-.1348356-.2348643.0337089-1.4091858.3258526-1.5322099.5842875-.2348643 4.4832828-.3467045 4.7754265-.4249926.4831605-.1118401.8427218-.3690724.9550853-.7828809.1235992-.4138086-1.348356-2.1025947-3.1798725-1.9124665-3.1236905.3467044-7.1799937.3243364-7.1799937 1.3420817 0 .9506412 1.8989342 1.3308977 1.9438794 1.599314.0561814.2572323-.2471986 1.2526096-.3483252 1.5545781-.112363.3355203-1.471955.4361765-1.5618454 1.3644497-.0224725.2124963.3370889.5480167.2584349.805249-.2134896.794065-.8539586 2.393379-.8539586 3.0644199.0112363 1.0289293.7640682 3.3328363 2.8989647 3.2657322 3.3484165-.1118401 6.3597443-2.4381151 6.4046896-2.8519236.078654-.6151209-.853959-1.3308978-1.4944275-1.3308978z"/><path d="m89.4858713 14.818819c-1.8315165.1006561-5.3372416 3.959141-7.3934843 6.5650164-.1235992-.2684164-.2022533-.5256487-.2022533-.760513 0-1.0960334 2.0899516-4.3953176 2.4719858-5.2229347.4045065-.8611691-.0561818-1.9907545-.5505788-1.58813-.988794.794065-4.1124847 4.4176856-4.1012482 7.795258 0 .771697.2022532 1.7223381.6404685 2.5835073-.7078868 2.2591708-2.4045675 7.3031613-2.3483857 10.3563973.0224722 1.576946 1.6292632 3.1315239 2.5843484 2.9302117.3707978-.0782881.4494518-2.1473308.9326123-3.5565166.674178-2.0131225 1.7528625-5.7038473 2.1348967-7.2807933.1685446.011184.3483248.033552.5393423.033552 3.820341-.011184 8.056425-4.0597971 8.0452108-7.5603936-.0112581-3.4894125-2.0899731-4.3282136-2.7529146-4.2834775zm-4.3933928 8.634059c1.5281363-2.6506114 3.76416-6.1623919 4.595646-6.1512345.573051.0112106.7978064.5815954.7978064 1.4427645.0112066 2.5946913-3.1461929 4.7420221-5.3934524 4.70847z"/></g></svg>