<svg height="84" viewBox="0 0 286 84" width="286" xmlns="http://www.w3.org/2000/svg"><g fill="none" transform=""><path d="m266.8 75.55v8.25h-4.55v-20.4h10.2v3.9h-5.65v4.3h5.15v3.9h-5.15zm18.95-4.4h-4.25v-3.3c0-.35-.2-.55-.55-.55h-1.9c-.35 0-.5.2-.5.55v11.45c0 .35.15.55.5.55h1.9c.35 0 .55-.2.55-.55v-3.3h4.25v4.3c0 1.2-.3 2.05-.85 2.65-.55.55-1.65.85-3.3.85h-3.45c-1.65 0-2.75-.3-3.3-.85s-.85-1.45-.85-2.65v-13.45c0-1.2.3-2.05.85-2.65.55-.55 1.65-.85 3.3-.85h3.45c1.65 0 2.75.3 3.3.85s.85 1.45.85 2.65zm-266.55 12.65v-64.6h24.95c5.2.05 8.7.9 10.5 2.65 1.75 1.8 2.65 4.6 2.65 8.35v42.6c0 3.75-.9 6.55-2.65 8.35-1.75 1.75-5.25 2.65-10.5 2.65zm14.4-12.45h7.6c1.1 0 1.65-.55 1.65-1.7v-36.3c0-1.15-.55-1.7-1.65-1.7h-7.6zm52.1-52.15h14.4v53.6c0 3.75-.9 6.55-2.65 8.35-1.75 1.75-5.25 2.65-10.5 2.65h-11.8c-5.2-.05-8.7-.9-10.5-2.65-1.75-1.8-2.65-4.6-2.65-8.35v-53.6h14.4v50.45c0 1.15.55 1.7 1.6 1.7h6c1.1 0 1.65-.55 1.65-1.7v-50.45zm57.25 29.7v23.9c0 3.75-.9 6.55-2.65 8.35-1.75 1.75-5.25 2.65-10.5 2.65h-11.8c-5.2-.05-8.7-.9-10.5-2.65-1.75-1.8-2.65-4.6-2.65-8.35v-42.65c0-3.75.9-6.55 2.65-8.35 1.75-1.75 5.25-2.6 10.5-2.65h11.35c5.2.05 8.7.9 10.5 2.65 1.75 1.8 2.65 4.6 2.65 8.35v11.35h-13.5v-8.15c0-1.15-.55-1.7-1.65-1.7h-6.45c-1.1 0-1.6.55-1.6 1.7v36.3c0 1.15.55 1.7 1.6 1.7h6.45c1.1 0 1.65-.55 1.65-1.7v-8.35h-4.8v-12.4z" fill="#153143"/><path d="m147.7 30.15c0-3.75.9-6.55 2.65-8.35 1.75-1.75 5.25-2.6 10.5-2.65h11.8c5.2.05 8.7.9 10.5 2.65 1.75 1.8 2.65 4.6 2.65 8.35v42.6c0 3.75-.9 6.55-2.65 8.35-1.75 1.75-5.25 2.65-10.5 2.65h-11.8c-5.2-.05-8.7-.9-10.5-2.65-1.75-1.8-2.65-4.6-2.65-8.35zm14.4 39.5c0 1.15.55 1.7 1.6 1.7h6c1.1 0 1.65-.55 1.65-1.7v-36.3c0-1.15-.55-1.7-1.65-1.7h-6c-1.1 0-1.6.55-1.6 1.7zm52.15-50.45h14.4v53.6c0 3.75-.9 6.55-2.65 8.35-1.75 1.75-5.25 2.65-10.5 2.65h-11.8c-5.2-.05-8.7-.9-10.5-2.65-1.75-1.8-2.65-4.6-2.65-8.35v-53.6h14.4v50.45c0 1.15.55 1.7 1.6 1.7h6c1.1 0 1.65-.55 1.65-1.7v-50.45zm43.15 12.4v52.15h-14.4v-52.15h-11.85v-12.4h38.1v12.4z" fill="#b71541"/><path d="m100.1 12.75h-87.35v71.05h-12.75v-83.8h112.9z" fill="#153143" fill-opacity=".944121"/><path d="m120.2.05h2.45c.3 0 .6.05.9.15s.55.3.8.5c.25.25.4.5.55.85s.2.75.2 1.15v1.9c0 .45-.05.85-.2 1.15-.15.35-.3.6-.55.85.25.25.5.55.65.9s.25.8.25 1.3v3.95h-1.25v-3.95c0-.45-.15-.8-.35-1.05s-.45-.4-.8-.45h-1.4v5.45h-1.25zm1.25 6h1.2c.35 0 .65-.15.85-.4s.3-.6.35-1.05v-1.85c0-.45-.1-.8-.35-1.05-.2-.25-.5-.4-.85-.4h-1.2zm6.55-6h4.3v1.25h-3v4.2h2.35v1.25h-2.35v4.75h3v1.25h-4.3zm9.45 0c.3 0 .6.05.9.15s.55.3.8.5c.2.2.4.5.55.85s.2.75.2 1.2v10h-1.25v-5.45h-2.35v5.45h-1.3v-10c0-.45.05-.85.2-1.2s.3-.65.55-.85.5-.4.8-.5.6-.15.9-.15zm0 1.25c-.35 0-.65.15-.85.4s-.3.6-.35 1.05v3.25h2.35v-3.25c0-.45-.1-.8-.35-1.05-.15-.25-.45-.4-.8-.4zm5.25-1.25h1.25v11.45h3v1.25h-4.3v-12.7zm11.25 0h4.9v1.25h-3.65v4.2h3.1v1.25h-3.1v6h-1.25zm10.1 0c.3 0 .6.05.9.15s.55.3.8.5c.2.2.4.5.55.85s.2.75.2 1.2v10h-1.25v-5.45h-2.35v5.45h-1.25v-10c0-.45.05-.85.2-1.2s.3-.65.55-.85.5-.4.8-.5c.25-.1.55-.15.85-.15zm0 1.25c-.35 0-.65.15-.85.4s-.3.6-.35 1.05v3.25h2.35v-3.25c0-.45-.1-.8-.35-1.05-.15-.25-.45-.4-.8-.4zm5.2-1.25h1.3l2.35 8.3v-8.3h1.25v12.75h-1.25c-.25-.9-.55-1.8-.8-2.75-.25-.8-.5-1.7-.75-2.65-.3-.95-.55-1.9-.8-2.85v8.25h-1.3zm7.7 0h4.9v1.25h-1.8v11.45h-1.25v-11.45h-1.8v-1.25zm10.1 0c.3 0 .6.05.9.15s.55.3.8.5c.2.2.4.5.55.85s.2.75.2 1.2v10h-1.25v-5.45h-2.35v5.45h-1.25v-10c0-.45.05-.85.2-1.2s.3-.65.55-.85.5-.4.8-.5c.2-.1.55-.15.85-.15zm0 1.25c-.35 0-.65.15-.85.4s-.3.6-.35 1.05v3.25h2.35v-3.25c0-.45-.1-.8-.35-1.05-.15-.25-.45-.4-.8-.4zm7.65 11.45c-.3 0-.6-.05-.9-.15s-.55-.3-.8-.5-.4-.5-.55-.85-.2-.75-.2-1.2v-.9h1.25v.9c0 .45.1.8.35 1.05.2.25.5.4.85.4s.65-.15.85-.4.3-.6.35-1.05c0-.45-.05-.85-.2-1.2s-.3-.7-.5-1.05c-.2-.3-.4-.6-.65-.9-.25-.25-.45-.55-.65-.75-.25-.3-.45-.6-.65-.8-.2-.25-.35-.5-.5-.75s-.25-.5-.35-.8-.1-.6-.1-1c0-.45.05-.85.2-1.2s.3-.65.55-.85.5-.4.8-.5.6-.15.9-.15.6.05.9.15.55.3.8.5.4.5.55.85.2.75.2 1.2v.9h-1.25v-.95c0-.45-.1-.8-.35-1.05-.2-.25-.5-.4-.85-.4s-.65.15-.85.4-.3.6-.35 1.05c0 .4.05.75.15 1 .1.3.25.55.45.8s.4.5.65.75.5.5.75.8l.6.75c.2.25.35.55.55.9.15.3.3.65.4 1.05.1.35.15.75.15 1.2s-.05.85-.2 1.2-.35.6-.55.85c-.25.25-.5.4-.8.5-.35.15-.65.2-1 .2zm7.05-6-1.8-6.75h1.25l1.2 5.1 1.2-5.1h1.25l-1.85 6.75v6h-1.25zm10-6.7h4.9v1.25h-3.65v4.2h3.1v1.25h-3.1v6h-1.25zm10.1 12.7c-.3 0-.6-.05-.9-.15s-.55-.3-.8-.5-.4-.5-.55-.85-.2-.75-.2-1.2v-7.3c0-.45.05-.85.2-1.2s.3-.65.55-.85.5-.4.8-.5.6-.15.9-.15.6.05.9.15.55.3.8.5.4.5.55.85.2.75.2 1.2v7.95c0 .05 0 .1-.05.15 0 .05-.05.1-.05.15 0 .1-.05.15-.05.2s-.05.05-.05.1-.05.05-.05.1v.1l-.2.35-.05.05-.05.05-.15.15-.2.2c-.05.05-.15.1-.2.15s-.15.05-.2.1l-.15.05c-.05 0-.05 0-.1.05-.2.05-.35.1-.55.1zm0-11.45c-.35 0-.65.15-.85.4s-.3.6-.35 1.05v7.3c0 .45.1.8.35 1.05.2.25.5.4.85.4h.1c.05 0 .1-.05.2-.05h.05c.05 0 .1-.05.2-.1h.05l.1-.05.15-.15c.05-.05.1-.15.15-.2.05-.1.1-.25.15-.4v-7.8c0-.45-.1-.8-.3-1.05-.15-.25-.45-.4-.85-.4zm7.65 11.45c-.3 0-.6-.05-.9-.15s-.55-.3-.8-.5-.4-.5-.55-.85-.2-.75-.2-1.2v-7.3c0-.45.05-.85.2-1.2s.3-.65.55-.85.5-.4.8-.5.6-.15.9-.15.6.05.9.15.55.3.8.5.4.5.55.85.2.75.2 1.2v7.95c0 .05-.05.1-.05.15s-.05.1-.05.15c0 .1-.05.15-.05.2s0 .05-.05.1c0 .05-.05.05-.05.1v.1l-.2.35-.05.05-.05.05-.15.15-.2.2c-.05.05-.15.1-.2.15s-.15.05-.2.1l-.15.05c-.05 0-.05 0-.1.05-.2.05-.35.1-.55.1zm0-11.45c-.35 0-.65.15-.85.4s-.3.6-.35 1.05v7.3c0 .45.1.8.35 1.05.2.25.5.4.85.4h.1c.05 0 .1-.05.2-.05h.05c.05 0 .1-.05.2-.1h.05l.1-.05.15-.15c.05-.05.1-.15.15-.2.05-.1.1-.25.15-.4v-7.8c0-.45-.1-.8-.3-1.05-.15-.25-.45-.4-.85-.4zm5.2-1.25h4.9v1.25h-1.8v11.45h-1.3v-11.45h-1.8zm7.65 12.7v-12.7l2.35.05c.3 0 .6.05.95.2.3.1.6.3.8.55.25.25.45.5.6.85s.2.75.2 1.2v1.25c0 .4-.1.8-.25 1.1s-.35.6-.55.8c.3.25.5.55.7.9s.25.8.25 1.3v1.8c0 .45-.05.85-.2 1.2s-.3.6-.55.85-.5.4-.8.5-.6.15-.9.15zm3.65-10c0-.45-.1-.8-.35-1.05-.2-.25-.5-.4-.85-.4h-1.2v4.2h1.2c.35 0 .65-.15.85-.4s.3-.6.35-1.05zm-2.4 4v4.75h1.45c.35 0 .65-.15.85-.4s.3-.6.35-1.05v-1.8c0-.45-.1-.8-.35-1.05-.2-.25-.5-.4-.85-.4h-1.45zm9.05-6.7c.3 0 .6.05.9.15s.55.3.8.5c.2.2.4.5.55.85s.2.75.2 1.2v10h-1.25v-5.45h-2.35v5.45h-1.25v-10c0-.45.05-.85.2-1.2s.3-.65.55-.85.5-.4.8-.5c.2-.1.5-.15.85-.15zm0 1.25c-.35 0-.65.15-.85.4s-.3.6-.35 1.05v3.25h2.35v-3.25c0-.45-.1-.8-.35-1.05-.15-.25-.45-.4-.8-.4zm5.2-1.25h1.3v11.45h3v1.25h-4.3zm7.1 0h1.25v11.45h3v1.25h-4.3v-12.7z" fill="#b71541"/></g></svg>