<svg height="101" viewBox="0 0 117 101" width="117" xmlns="http://www.w3.org/2000/svg"><g fill="none"><path d="m.2 85.2c.28-1.36.4-2.78.86-4.08.58-1.64 1.26-3.32 2.22-4.74 1.74-2.54 4.96-3.4 8.12-2.46 1.82.54 1.82.54 2.76.04v3.78 4c-.38-1.12-.64-2-1-2.84-.3-.7-.66-1.4-1.1-2-1.46-1.98-3.78-2-5.32-.06-1.16 1.46-1.64 3.2-1.88 4.98-.54 4.04-.58 8.1.34 12.1.26 1.08.76 2.14 1.34 3.08.6.96 1.58 1.42 2.76 1.1 1.16-.32 1.72-1.2 1.74-2.3.04-2.02.02-4.06-.14-6.08-.06-.64-.62-1.24-.92-1.8h5.08c-.16.96-.46 1.92-.48 2.9-.06 2.9-.02 5.8-.02 8.88-.82-1.12-1.66-.76-2.56-.36-.78.36-1.62.58-2.44.88-.66 0-1.34 0-2 0-.54-.16-1.08-.32-1.6-.5-2.94-1-4.24-3.34-4.98-6.12-.34-1.3-.54-2.66-.8-3.98.02-1.48.02-2.96.02-4.42z" fill="#000"/><path d="m65.2 100.2c-3.06-1.12-3.74-3.72-4-6.54-.24-2.4-.2-4.82.62-7.1.4-1.1 1-2.2 1.78-3.06 1.36-1.48 3.2-1.46 4.82-.2.06.06.18.06.3.1 0-2.62.06-5.2-.04-7.78-.02-.6-.56-1.2-.84-1.76h4.28v1.14 21.9c0 1.02-.04 2.08 1 2.88-1.44 0-2.76 0-4.16 0-.02-.3-.06-.62-.08-1-.8.5-1.54.98-2.26 1.44-.48-.02-.96-.02-1.42-.02zm3.6-9.02c0-1.7-.02-3.4 0-5.1.02-.8-.46-1.32-1.1-1.46-.5-.1-1.3.04-1.58.38-.52.64-1 1.5-1.06 2.3-.18 2.32-.2 4.66-.16 6.98.02.9.32 1.84.66 2.7.28.72.9 1.2 1.76.92.8-.26 1.54-.62 1.5-1.7-.06-1.68-.02-3.36-.02-5.02z" fill="#000"/><path d="m78 100.2c-2.7-1.04-3.56-3.3-3.86-5.9-.3-2.56-.28-5.12.48-7.62.24-.78.58-1.56 1.02-2.26 1.42-2.24 3.7-2.64 5.86-1 .04-.24.1-.46.12-.66 0-2.16.08-4.34-.04-6.5-.04-.82-.46-1.62-.72-2.4h4.12v1.12 22c0 1.08.12 2.12 1.3 2.8-1.58 0-3 0-4.46 0-.02-.32-.06-.62-.08-.98-.82.48-1.58.96-2.36 1.42-.44-.02-.92-.02-1.38-.02zm3.62-8.96c0-1.7-.02-3.4.02-5.08.02-.84-.42-1.44-1.12-1.52-.54-.08-1.3.2-1.7.58-.42.38-.74 1.08-.78 1.68-.18 2.24-.32 4.5-.28 6.74.02 1.14.36 2.28.7 3.38.22.7.86 1.14 1.66.9.82-.24 1.54-.58 1.52-1.66-.06-1.7-.02-3.36-.02-5.02z" fill="#000"/><path d="m27.8 100.2c-3.3-.9-4.44-3.44-4.82-6.5-.36-2.74-.32-5.46.94-8 1.18-2.36 3.36-3.46 5.62-2.94 1.6.38 2.56 1.5 3.18 2.92.7 1.64.98 3.38.88 5.26-2.36 0-4.7 0-7.14 0-.14 1.88-.04 3.62.68 5.26.94 2.16 2.94 2.56 4.68.96.4-.38.72-.84 1.08-1.26.12 1.44-.98 3.16-2.48 3.82-.34.14-.66.3-1 .44-.56.04-1.08.04-1.62.04zm2.56-10.66c-.2-1.52-.3-2.9-.62-4.24-.12-.5-.74-1.18-1.2-1.22-.44-.04-1.14.52-1.4.98-.72 1.38-.8 2.9-.7 4.48z" fill="#000"/><path d="m98.2 100.2c-3.74-2.02-5.18-4.96-4.74-9.58.2-1.98.54-3.9 1.7-5.56 1.32-1.92 3.38-2.78 5.44-2.28 2.04.5 3.26 2.7 2.56 4.68-.36 1-1.42 1.48-2.46 1.1-.88-.32-1.24-1.38-.8-2.36.14-.3.44-.56.5-.86.08-.4.16-1.08-.06-1.22-.32-.22-1.08-.3-1.3-.08-.58.56-1.12 1.26-1.36 2-.76 2.28-.76 4.66-.54 7.02.1 1.02.28 2.06.62 3.02.82 2.26 2.64 2.68 4.46 1.1.32-.28.6-.62.9-.94.08 1.28-1.04 2.9-2.4 3.5-.3.14-.6.28-.88.42-.58.04-1.1.04-1.64.04z" fill="#000"/><path d="m.2 89.6c.26 1.32.46 2.68.8 3.98.74 2.78 2.04 5.12 4.98 6.12.54.18 1.08.34 1.6.5-2.46 0-4.94 0-7.4 0 .02-3.54.02-7.06.02-10.6z" fill="#fff"/><g fill="#000"><path d="m61.34 66.74c-2.18-5.84-6.42-9.32-12.2-10.9-4.76-1.3-9.54-1.54-14.08.44.98-1.5 4.04-3.78 6.68-4.6 1.7-.52 3.48-.76 5.24-1.06.92-.16 1.76.06 2.44.82.28.32.76.46 1.32.64-1.32-2.44-.66-4.52 1-6.62.02 2.22 1.34 3.44 2.84 4.62 1.48 1.16 2.92 2.38 4.32 3.64 1.24 1.12 1.68 2.68 2.06 4.24.04.18.1.36.38.62.16-.34.36-.68.48-1.04 1-3.5.32-6.78-1.44-9.88-2.38-4.2-6.14-6.5-10.72-7.64-.5-.12-1.06-.02-1.6-.08-.28-.02-.66-.1-.8-.28-.22-.3-.42-.74-.36-1.08.04-.2.56-.44.88-.46.62-.02 1.24.1 1.92.16-.04.74.36.88 1 1.04 1.66.42 3.28 1.06 4.92 1.56.92.28 1.84.62 2.78.7 1.78.14 2.32-1.18 2.22-2.64-.1-1.4 0-2.84.24-4.22.28-1.54 1.42-2.64 2.84-3.1 1.9-.62 3.88-.9 5.72-1.32-.14.74-.22 1.26-.32 1.78-.04.16-.06.32-.14.46-1.22 1.74-3.28 3.8-6 2.76-.82-.3-1.18.08-.84.9.58 1.38 1.28 2.7 1.9 4.06 1.6 3.46 2.72 7.02 2.98 10.86.3 4.5-.78 8.52-3.44 12.16-.8 1.06-1.44 2.22-2.22 3.46z"/><path d="m49.92 5.8c-2.22 2-4.08 4.22-5.04 7.06.08.12.16.24.24.36 2.14-.96 4.28-1.92 6.4-2.9.04.06.08.12.12.2-2 1.42-3.98 2.86-6 4.24-1.24.84-1.74 1.96-1.76 3.46-.04 2.28.2 4.42 2 6.02.62.54 1.4.92 2.28 1.24-.7-2.42-1.52-4.74-.32-7.18.1.86.06 1.72.3 2.46.34 1.02.84 2 1.4 2.92.52.84 1.14 1.66 1.84 2.34.7.66 1.54 1.22 2.4 1.68 1.08.58 1.2.8.48 1.84 1.2.12 2.1-.44 2.82-1.18s.42-1.7-.04-2.5c-1.34-2.3-1.3-6.34-.22-8.74.1 1.28.12 2.52.32 3.72.26 1.56.88 2.98 2.04 4.12.92.88 1.92 1.26 3.26.52-.3.78-.22 1.2.64 1.2.2 0 .42.38.5.76-.5-.18-1-.36-1.28-.46-.3.76-.6 1.38-.78 2.02-.18.66-.22 1.34-.4 2.02-.1.4-.24.88-.54 1.1-.2.14-.78-.04-1.04-.24-1.46-1.18-3.24-1.04-4.36.5-.44.6-.94.86-1.62 1-1 .22-1.98.52-2.98.76-.3.08-.64.14-.94.08-.58-.1-1.04-.02-1.1.64-.06.54-.14 1.18.76 1.22.2 0 .4.3.6.46-.2.2-.4.56-.62.58-.82.08-1.64.06-2.46.02-.62-.02-.62-.44-.5-.92.08-.36.16-.72.14-1.08-.04-.68.28-1.04.92-1.2.84-.22 1.66-.44 2.5-.68.58-.16 1.02-.4.96-1.18-.02-.24.42-.56.68-.78.34-.3.74-.56 1.1-.84-.38-.32-.72-.74-1.16-.94-2.08-1-4.24-1.88-6.3-2.94-.8-.42-1.52-1.1-2.08-1.82-.66-.84-1.38-1.46-2.32-1.96-2.86-1.54-3.72-4.36-2.4-7.4.16 1.04.22 2.2.56 3.26.4 1.32 1.48 2.02 2.72 1.92 0-1.14.04-2.3-.02-3.44-.02-.28-.28-.58-.5-.82-2.08-2.26-2.26-6.28-.16-8.46-.2.86-.36 1.5-.5 2.14-.32 1.46.06 2.76.92 3.94.5.7.78.64 1.16-.18.46-.98.84-2.02 1.4-2.96 1.36-2.38 3.4-4 5.98-5z"/><path d="m60.26 99.76c-1.74 0-3.4 0-4.82 0 .18-.78.48-1.6.5-2.4.06-3.74.02-7.46.02-11.2 0-.36-.06-.74-.16-1.08-.24-.84-.84-1.26-1.7-1.28-.86 0-1.46.44-1.7 1.26-.12.4-.14.86-.14 1.28-.02 3.6-.04 7.2.02 10.8.02.88.32 1.76.48 2.64-1.48 0-3.16 0-5.06 0 1.06-.48 1.28-1.3 1.28-2.18 0-4 .02-8 0-12 0-1.06-.4-1.94-1.46-2.56.56-.06.96-.08 1.5-.14 0-1.46-.04-2.9 0-4.32.08-2.52 1.48-4.3 3.94-4.86 1.64-.38 3.26-.28 4.72.68 1.48.98 1.94 2.82 1.1 4.3-.58 1-1.78 1.4-2.74.88-.9-.48-1.12-1.5-.56-2.6.56-1.12.5-1.72-.24-2.16-.8-.48-2-.2-2.56.64-.18.28-.34.62-.34.92-.02 2.16-.02 4.32-.02 6.56h6.92v1.16 12.8c0 1.04.06 2.06 1.02 2.86z"/><path d="m116.1 99.76c-1.78 0-3.42 0-4.84 0 .18-.8.5-1.6.5-2.42.06-3.44.04-6.86.02-10.3 0-.4-.06-.8-.18-1.18-.24-.72-.76-.96-1.5-.7-1.18.4-1.88 1.36-1.88 2.6 0 3.14-.04 6.26.02 9.4.02.88.32 1.76.5 2.62-1.42 0-3.04 0-4.42 0 .2-.98.6-2 .6-3 .06-6.62.04-13.26.02-19.88 0-1.1-.04-2.22-1.24-3.02h4.52v10.9c.48-.46.8-.76 1.14-1.06 1.04-.92 2.22-1.36 3.58-.86 1.34.48 1.8 1.62 2 2.88.1.68.1 1.4.1 2.1v9.1c.02.98.06 2.02 1.06 2.82z"/><path d="m39.32 99.8c-1.4 0-3.02 0-4.42 0 .22-.92.62-1.86.64-2.82.08-3.7.04-7.4.02-11.1 0-1.04-.08-2.06-1.2-2.84h4.28v1.86c.28-.22.46-.32.6-.46.24-.22.46-.48.7-.72 1.06-.96 2.28-1.4 3.68-.86 1.36.52 1.82 1.7 1.96 3.02.12 1.12.08 2.26.08 3.4v8c0 .96.02 1.94 1.28 2.52-1.9 0-3.58 0-5.1 0 .18-.8.5-1.64.5-2.48.06-3.4.02-6.8.02-10.2 0-.36-.04-.74-.12-1.08-.24-.88-.84-1.16-1.68-.82-1.14.46-1.76 1.38-1.76 2.6 0 3.14-.04 6.26.02 9.4.04.82.34 1.66.5 2.58z"/><path d="m73.32 1.5c3.36.58 5.86 2.4 7.66 5.24.38.58.74 1.18 1.18 1.74.18.24.52.54.74.5.24-.04.58-.42.6-.68.14-1.38.34-2.78.22-4.14-.1-1.18-.62-2.34-1-3.7 2.04 2.72 2.94 5.54 2.18 8.76-.1.46-.18.94-.4 1.32-1.06 1.82-.58 3.88-1.06 5.78.1.06.18.12.28.18 1-.92 2-1.86 2.94-2.72-.34 1.72-2.56 4.56-5.48 6.66-2.4 1.72-4.98 3.08-7.88 3.8-.44-.74-.84-1.46-1.3-2.28 1.66-.96 2.5-2.56 3.12-4.28.6-1.68 1.04-3.4 1.56-5.18 0 1.52.04 3-.02 4.5-.02.62-.2 1.24-.3 1.86-.12.72.28.96.88.76 1.82-.6 3.92-2.52 4.06-4.86.12-2.04.02-4.08-1.5-5.6-.82-.8-1.96-1.34-3.04-1.8-2-.84-4.08-1.52-6.04-2.48 2.54.5 5.08.98 7.64 1.48.06-.12.12-.24.18-.36-1.06-2.28-3.1-3.44-5.22-4.5z"/><path d="m16.48 73.84h4.54v1.18 21.9c0 1.02 0 2.08 1.1 2.86-1.9 0-3.6 0-5.08 0 .24-.94.68-1.92.68-2.92.06-6.64.04-13.26.02-19.9 0-1.12-.06-2.28-1.26-3.12z"/><path d="m87.62 83.02h4.02v1.82c0 4.02-.02 8.06 0 12.08 0 1.02-.02 2.08 1.1 2.86-2 0-3.8 0-5.8 0 1.16-.56 1.38-1.5 1.4-2.48.02-3.92.06-7.86-.02-11.78 0-.82-.46-1.64-.7-2.5z"/><path d="m89.84 80.22c-1.22.02-2.16-.9-2.16-2.1.02-1.16.92-2.08 2.08-2.1 1.2-.02 2.16.94 2.16 2.12-.02 1.16-.92 2.06-2.08 2.08z"/><path d="m67.5 21.52c-.82-.72-1.38-1.42-.52-2.44.1.4.2.78.32 1.22.72-.82.6-1.62-.18-2.1.14-1.06.3-2.1.44-3.12.68.88.7 4.52-.06 6.44z"/><path d="m58.96 33.38c-.88-1.06-1.08-1.04-1.62.16-.4-.08-.82-.14-1.22-.22-.04-.08-.08-.14-.14-.22.58-.32 1.14-.88 1.72-.9.48-.02 1 .6 1.5.94-.08.06-.16.14-.24.24z"/><path d="m68.78 24.2c.7.14 1.28 1.2 1.88-.04.38.18.74.38 1.16.58-1.84 1.1-2.26 1.02-3.04-.54z"/></g><g fill="#fff" transform="translate(26.4 84)"><path d="m42.4 7.18c0 1.66-.04 3.34.02 5 .04 1.08-.7 1.44-1.5 1.7-.86.28-1.48-.2-1.76-.92-.32-.86-.64-1.78-.66-2.7-.06-2.32-.02-4.66.16-6.98.06-.8.54-1.64 1.06-2.3.28-.34 1.08-.5 1.58-.38.64.14 1.12.66 1.1 1.46-.02 1.72 0 3.42 0 5.12z"/><path d="m55.22 7.24c0 1.66-.04 3.32.02 4.98.02 1.08-.7 1.44-1.52 1.66-.8.22-1.44-.2-1.66-.9-.34-1.1-.68-2.24-.7-3.38-.04-2.24.1-4.5.28-6.74.04-.58.36-1.28.78-1.68.42-.38 1.16-.64 1.7-.58.7.1 1.14.68 1.12 1.52-.06 1.72-.02 3.42-.02 5.12z"/><path d="m3.96 5.54c-1.46 0-2.64 0-3.92 0-.08-1.58-.02-3.1.7-4.48.24-.48.96-1.02 1.4-.98s1.08.72 1.2 1.22c.32 1.34.42 2.74.62 4.24z"/></g></g></svg>