<?xml version="1.0" encoding="UTF-8"?>
<svg width="117px" height="101px" viewBox="0 0 117 101" version="1.1" xmlns="http://www.w3.org/2000/svg" xmlns:xlink="http://www.w3.org/1999/xlink">
    <!-- Generator: Sketch 64 (93537) - https://sketch.com -->
    <title>glenfiddich</title>
    <desc>Created with Sketch.</desc>
    <g id="Client-logos" stroke="none" stroke-width="1" fill="none" fill-rule="evenodd">
        <g id="tone-and-sculpt-copy-4" transform="translate(-23.000000, -3.000000)" fill-rule="nonzero">
            <g id="glenfiddich" transform="translate(23.000000, 3.000000)">
                <path d="M0.2,85.2 C0.48,83.84 0.6,82.42 1.06,81.12 C1.64,79.48 2.32,77.8 3.28,76.38 C5.02,73.84 8.24,72.98 11.4,73.92 C13.22,74.46 13.22,74.46 14.16,73.96 L14.16,77.74 L14.16,81.74 C13.78,80.62 13.52,79.74 13.16,78.9 C12.86,78.2 12.5,77.5 12.06,76.9 C10.6,74.92 8.28,74.9 6.74,76.84 C5.58,78.3 5.1,80.04 4.86,81.82 C4.32,85.86 4.28,89.92 5.2,93.92 C5.46,95 5.96,96.06 6.54,97 C7.14,97.96 8.12,98.42 9.3,98.1 C10.46,97.78 11.02,96.9 11.04,95.8 C11.08,93.78 11.06,91.74 10.9,89.72 C10.84,89.08 10.28,88.48 9.98,87.92 L15.06,87.92 C14.9,88.88 14.6,89.84 14.58,90.82 C14.52,93.72 14.56,96.62 14.56,99.7 C13.74,98.58 12.9,98.94 12,99.34 C11.22,99.7 10.38,99.92 9.56,100.22 C8.9,100.22 8.22,100.22 7.56,100.22 C7.02,100.06 6.48,99.9 5.96,99.72 C3.02,98.72 1.72,96.38 0.98,93.6 C0.64,92.3 0.44,90.94 0.18,89.62 C0.2,88.14 0.2,86.66 0.2,85.2 L0.2,85.2 Z" id="Path" fill="#000000"></path>
                <path d="M65.2,100.2 C62.14,99.08 61.46,96.48 61.2,93.66 C60.96,91.26 61,88.84 61.82,86.56 C62.22,85.46 62.82,84.36 63.6,83.5 C64.96,82.02 66.8,82.04 68.42,83.3 C68.48,83.36 68.6,83.36 68.72,83.4 C68.72,80.78 68.78,78.2 68.68,75.62 C68.66,75.02 68.12,74.42 67.84,73.86 L72.12,73.86 L72.12,75 L72.12,96.9 C72.12,97.92 72.08,98.98 73.12,99.78 C71.68,99.78 70.36,99.78 68.96,99.78 C68.94,99.48 68.9,99.16 68.88,98.78 C68.08,99.28 67.34,99.76 66.62,100.22 C66.14,100.2 65.66,100.2 65.2,100.2 L65.2,100.2 Z M68.8,91.18 C68.8,89.48 68.78,87.78 68.8,86.08 C68.82,85.28 68.34,84.76 67.7,84.62 C67.2,84.52 66.4,84.66 66.12,85 C65.6,85.64 65.12,86.5 65.06,87.3 C64.88,89.62 64.86,91.96 64.9,94.28 C64.92,95.18 65.22,96.12 65.56,96.98 C65.84,97.7 66.46,98.18 67.32,97.9 C68.12,97.64 68.86,97.28 68.82,96.2 C68.76,94.52 68.8,92.84 68.8,91.18 L68.8,91.18 Z" id="Shape" fill="#000000"></path>
                <path d="M78,100.2 C75.3,99.16 74.44,96.9 74.14,94.3 C73.84,91.74 73.86,89.18 74.62,86.68 C74.86,85.9 75.2,85.12 75.64,84.42 C77.06,82.18 79.34,81.78 81.5,83.42 C81.54,83.18 81.6,82.96 81.62,82.76 C81.62,80.6 81.7,78.42 81.58,76.26 C81.54,75.44 81.12,74.64 80.86,73.86 L84.98,73.86 L84.98,74.98 L84.98,96.98 C84.98,98.06 85.1,99.1 86.28,99.78 C84.7,99.78 83.28,99.78 81.82,99.78 C81.8,99.46 81.76,99.16 81.74,98.8 C80.92,99.28 80.16,99.76 79.38,100.22 C78.94,100.2 78.46,100.2 78,100.2 L78,100.2 Z M81.62,91.24 C81.62,89.54 81.6,87.84 81.64,86.16 C81.66,85.32 81.22,84.72 80.52,84.64 C79.98,84.56 79.22,84.84 78.82,85.22 C78.4,85.6 78.08,86.3 78.04,86.9 C77.86,89.14 77.72,91.4 77.76,93.64 C77.78,94.78 78.12,95.92 78.46,97.02 C78.68,97.72 79.32,98.16 80.12,97.92 C80.94,97.68 81.66,97.34 81.64,96.26 C81.58,94.56 81.62,92.9 81.62,91.24 L81.62,91.24 Z" id="Shape" fill="#000000"></path>
                <path d="M27.8,100.2 C24.5,99.3 23.36,96.76 22.98,93.7 C22.62,90.96 22.66,88.24 23.92,85.7 C25.1,83.34 27.28,82.24 29.54,82.76 C31.14,83.14 32.1,84.26 32.72,85.68 C33.42,87.32 33.7,89.06 33.6,90.94 C31.24,90.94 28.9,90.94 26.46,90.94 C26.32,92.82 26.42,94.56 27.14,96.2 C28.08,98.36 30.08,98.76 31.82,97.16 C32.22,96.78 32.54,96.32 32.9,95.9 C33.02,97.34 31.92,99.06 30.42,99.72 C30.08,99.86 29.76,100.02 29.42,100.16 C28.86,100.2 28.34,100.2 27.8,100.2 L27.8,100.2 Z M30.36,89.54 C30.16,88.02 30.06,86.64 29.74,85.3 C29.62,84.8 29,84.12 28.54,84.08 C28.1,84.04 27.4,84.6 27.14,85.06 C26.42,86.44 26.34,87.96 26.44,89.54 L30.36,89.54 Z" id="Shape" fill="#000000"></path>
                <path d="M98.2,100.2 C94.46,98.18 93.02,95.24 93.46,90.62 C93.66,88.64 94,86.72 95.16,85.06 C96.48,83.14 98.54,82.28 100.6,82.78 C102.64,83.28 103.86,85.48 103.16,87.46 C102.8,88.46 101.74,88.94 100.7,88.56 C99.82,88.24 99.46,87.18 99.9,86.2 C100.04,85.9 100.34,85.64 100.4,85.34 C100.48,84.94 100.56,84.26 100.34,84.12 C100.02,83.9 99.26,83.82 99.04,84.04 C98.46,84.6 97.92,85.3 97.68,86.04 C96.92,88.32 96.92,90.7 97.14,93.06 C97.24,94.08 97.42,95.12 97.76,96.08 C98.58,98.34 100.4,98.76 102.22,97.18 C102.54,96.9 102.82,96.56 103.12,96.24 C103.2,97.52 102.08,99.14 100.72,99.74 C100.42,99.88 100.12,100.02 99.84,100.16 C99.26,100.2 98.74,100.2 98.2,100.2 L98.2,100.2 Z" id="Path" fill="#000000"></path>
                <path d="M0.2,89.6 C0.46,90.92 0.66,92.28 1,93.58 C1.74,96.36 3.04,98.7 5.98,99.7 C6.52,99.88 7.06,100.04 7.58,100.2 C5.12,100.2 2.64,100.2 0.18,100.2 C0.2,96.66 0.2,93.14 0.2,89.6 Z" id="Path" fill="#FFFFFF"></path>
                <path d="M61.34,66.74 C59.16,60.9 54.92,57.42 49.14,55.84 C44.38,54.54 39.6,54.3 35.06,56.28 C36.04,54.78 39.1,52.5 41.74,51.68 C43.44,51.16 45.22,50.92 46.98,50.62 C47.9,50.46 48.74,50.68 49.42,51.44 C49.7,51.76 50.18,51.9 50.74,52.08 C49.42,49.64 50.08,47.56 51.74,45.46 C51.76,47.68 53.08,48.9 54.58,50.08 C56.06,51.24 57.5,52.46 58.9,53.72 C60.14,54.84 60.58,56.4 60.96,57.96 C61,58.14 61.06,58.32 61.34,58.58 C61.5,58.24 61.7,57.9 61.82,57.54 C62.82,54.04 62.14,50.76 60.38,47.66 C58,43.46 54.24,41.16 49.66,40.02 C49.16,39.9 48.6,40 48.06,39.94 C47.78,39.92 47.4,39.84 47.26,39.66 C47.04,39.36 46.84,38.92 46.9,38.58 C46.94,38.38 47.46,38.14 47.78,38.12 C48.4,38.1 49.02,38.22 49.7,38.28 C49.66,39.02 50.06,39.16 50.7,39.32 C52.36,39.74 53.98,40.38 55.62,40.88 C56.54,41.16 57.46,41.5 58.4,41.58 C60.18,41.72 60.72,40.4 60.62,38.94 C60.52,37.54 60.62,36.1 60.86,34.72 C61.14,33.18 62.28,32.08 63.7,31.62 C65.6,31 67.58,30.72 69.42,30.3 C69.28,31.04 69.2,31.56 69.1,32.08 C69.06,32.24 69.04,32.4 68.96,32.54 C67.74,34.28 65.68,36.34 62.96,35.3 C62.14,35 61.78,35.38 62.12,36.2 C62.7,37.58 63.4,38.9 64.02,40.26 C65.62,43.72 66.74,47.28 67,51.12 C67.3,55.62 66.22,59.64 63.56,63.28 C62.76,64.34 62.12,65.5 61.34,66.74 L61.34,66.74 Z" id="Path" fill="#000000"></path>
                <path d="M49.92,5.8 C47.7,7.8 45.84,10.02 44.88,12.86 C44.96,12.98 45.04,13.1 45.12,13.22 C47.26,12.26 49.4,11.3 51.52,10.32 C51.56,10.38 51.6,10.44 51.64,10.52 C49.64,11.94 47.66,13.38 45.64,14.76 C44.4,15.6 43.9,16.72 43.88,18.22 C43.84,20.5 44.08,22.64 45.88,24.24 C46.5,24.78 47.28,25.16 48.16,25.48 C47.46,23.06 46.64,20.74 47.84,18.3 C47.94,19.16 47.9,20.02 48.14,20.76 C48.48,21.78 48.98,22.76 49.54,23.68 C50.06,24.52 50.68,25.34 51.38,26.02 C52.08,26.68 52.92,27.24 53.78,27.7 C54.86,28.28 54.98,28.5 54.26,29.54 C55.46,29.66 56.36,29.1 57.08,28.36 C57.8,27.62 57.5,26.66 57.04,25.86 C55.7,23.56 55.74,19.52 56.82,17.12 C56.92,18.4 56.94,19.64 57.14,20.84 C57.4,22.4 58.02,23.82 59.18,24.96 C60.1,25.84 61.1,26.22 62.44,25.48 C62.14,26.26 62.22,26.68 63.08,26.68 C63.28,26.68 63.5,27.06 63.58,27.44 C63.08,27.26 62.58,27.08 62.3,26.98 C62,27.74 61.7,28.36 61.52,29 C61.34,29.66 61.3,30.34 61.12,31.02 C61.02,31.42 60.88,31.9 60.58,32.12 C60.38,32.26 59.8,32.08 59.54,31.88 C58.08,30.7 56.3,30.84 55.18,32.38 C54.74,32.98 54.24,33.24 53.56,33.38 C52.56,33.6 51.58,33.9 50.58,34.14 C50.28,34.22 49.94,34.28 49.64,34.22 C49.06,34.12 48.6,34.2 48.54,34.86 C48.48,35.4 48.4,36.04 49.3,36.08 C49.5,36.08 49.7,36.38 49.9,36.54 C49.7,36.74 49.5,37.1 49.28,37.12 C48.46,37.2 47.64,37.18 46.82,37.14 C46.2,37.12 46.2,36.7 46.32,36.22 C46.4,35.86 46.48,35.5 46.46,35.14 C46.42,34.46 46.74,34.1 47.38,33.94 C48.22,33.72 49.04,33.5 49.88,33.26 C50.46,33.1 50.9,32.86 50.84,32.08 C50.82,31.84 51.26,31.52 51.52,31.3 C51.86,31 52.26,30.74 52.62,30.46 C52.24,30.14 51.9,29.72 51.46,29.52 C49.38,28.52 47.22,27.64 45.16,26.58 C44.36,26.16 43.64,25.48 43.08,24.76 C42.42,23.92 41.7,23.3 40.76,22.8 C37.9,21.26 37.04,18.44 38.36,15.4 C38.52,16.44 38.58,17.6 38.92,18.66 C39.32,19.98 40.4,20.68 41.64,20.58 C41.64,19.44 41.68,18.28 41.62,17.14 C41.6,16.86 41.34,16.56 41.12,16.32 C39.04,14.06 38.86,10.04 40.96,7.86 C40.76,8.72 40.6,9.36 40.46,10 C40.14,11.46 40.52,12.76 41.38,13.94 C41.88,14.64 42.16,14.58 42.54,13.76 C43,12.78 43.38,11.74 43.94,10.8 C45.3,8.42 47.34,6.8 49.92,5.8 L49.92,5.8 Z" id="Path" fill="#000000"></path>
                <path d="M60.26,99.76 C58.52,99.76 56.86,99.76 55.44,99.76 C55.62,98.98 55.92,98.16 55.94,97.36 C56,93.62 55.96,89.9 55.96,86.16 C55.96,85.8 55.9,85.42 55.8,85.08 C55.56,84.24 54.96,83.82 54.1,83.8 C53.24,83.8 52.64,84.24 52.4,85.06 C52.28,85.46 52.26,85.92 52.26,86.34 C52.24,89.94 52.22,93.54 52.28,97.14 C52.3,98.02 52.6,98.9 52.76,99.78 C51.28,99.78 49.6,99.78 47.7,99.78 C48.76,99.3 48.98,98.48 48.98,97.6 C48.98,93.6 49,89.6 48.98,85.6 C48.98,84.54 48.58,83.66 47.52,83.04 C48.08,82.98 48.48,82.96 49.02,82.9 C49.02,81.44 48.98,80 49.02,78.58 C49.1,76.06 50.5,74.28 52.96,73.72 C54.6,73.34 56.22,73.44 57.68,74.4 C59.16,75.38 59.62,77.22 58.78,78.7 C58.2,79.7 57,80.1 56.04,79.58 C55.14,79.1 54.92,78.08 55.48,76.98 C56.04,75.86 55.98,75.26 55.24,74.82 C54.44,74.34 53.24,74.62 52.68,75.46 C52.5,75.74 52.34,76.08 52.34,76.38 C52.32,78.54 52.32,80.7 52.32,82.94 L59.24,82.94 L59.24,84.1 L59.24,96.9 C59.24,97.94 59.3,98.96 60.26,99.76 L60.26,99.76 Z" id="Path" fill="#000000"></path>
                <path d="M116.1,99.76 C114.32,99.76 112.68,99.76 111.26,99.76 C111.44,98.96 111.76,98.16 111.76,97.34 C111.82,93.9 111.8,90.48 111.78,87.04 C111.78,86.64 111.72,86.24 111.6,85.86 C111.36,85.14 110.84,84.9 110.1,85.16 C108.92,85.56 108.22,86.52 108.22,87.76 C108.22,90.9 108.18,94.02 108.24,97.16 C108.26,98.04 108.56,98.92 108.74,99.78 C107.32,99.78 105.7,99.78 104.32,99.78 C104.52,98.8 104.92,97.78 104.92,96.78 C104.98,90.16 104.96,83.52 104.94,76.9 C104.94,75.8 104.9,74.68 103.7,73.88 L108.22,73.88 L108.22,84.78 C108.7,84.32 109.02,84.02 109.36,83.72 C110.4,82.8 111.58,82.36 112.94,82.86 C114.28,83.34 114.74,84.48 114.94,85.74 C115.04,86.42 115.04,87.14 115.04,87.84 L115.04,96.94 C115.06,97.92 115.1,98.96 116.1,99.76 L116.1,99.76 Z" id="Path" fill="#000000"></path>
                <path d="M39.32,99.8 C37.92,99.8 36.3,99.8 34.9,99.8 C35.12,98.88 35.52,97.94 35.54,96.98 C35.62,93.28 35.58,89.58 35.56,85.88 C35.56,84.84 35.48,83.82 34.36,83.04 L38.64,83.04 L38.64,84.9 C38.92,84.68 39.1,84.58 39.24,84.44 C39.48,84.22 39.7,83.96 39.94,83.72 C41,82.76 42.22,82.32 43.62,82.86 C44.98,83.38 45.44,84.56 45.58,85.88 C45.7,87 45.66,88.14 45.66,89.28 L45.66,97.28 C45.66,98.24 45.68,99.22 46.94,99.8 C45.04,99.8 43.36,99.8 41.84,99.8 C42.02,99 42.34,98.16 42.34,97.32 C42.4,93.92 42.36,90.52 42.36,87.12 C42.36,86.76 42.32,86.38 42.24,86.04 C42,85.16 41.4,84.88 40.56,85.22 C39.42,85.68 38.8,86.6 38.8,87.82 C38.8,90.96 38.76,94.08 38.82,97.22 C38.86,98.04 39.16,98.88 39.32,99.8 Z" id="Path" fill="#000000"></path>
                <path d="M73.32,1.5 C76.68,2.08 79.18,3.9 80.98,6.74 C81.36,7.32 81.72,7.92 82.16,8.48 C82.34,8.72 82.68,9.02 82.9,8.98 C83.14,8.94 83.48,8.56 83.5,8.3 C83.64,6.92 83.84,5.52 83.72,4.16 C83.62,2.98 83.1,1.82 82.72,0.46 C84.76,3.18 85.66,6 84.9,9.22 C84.8,9.68 84.72,10.16 84.5,10.54 C83.44,12.36 83.92,14.42 83.44,16.32 C83.54,16.38 83.62,16.44 83.72,16.5 C84.72,15.58 85.72,14.64 86.66,13.78 C86.32,15.5 84.1,18.34 81.18,20.44 C78.78,22.16 76.2,23.52 73.3,24.24 C72.86,23.5 72.46,22.78 72,21.96 C73.66,21 74.5,19.4 75.12,17.68 C75.72,16 76.16,14.28 76.68,12.5 C76.68,14.02 76.72,15.5 76.66,17 C76.64,17.62 76.46,18.24 76.36,18.86 C76.24,19.58 76.64,19.82 77.24,19.62 C79.06,19.02 81.16,17.1 81.3,14.76 C81.42,12.72 81.32,10.68 79.8,9.16 C78.98,8.36 77.84,7.82 76.76,7.36 C74.76,6.52 72.68,5.84 70.72,4.88 C73.26,5.38 75.8,5.86 78.36,6.36 C78.42,6.24 78.48,6.12 78.54,6 C77.48,3.72 75.44,2.56 73.32,1.5 L73.32,1.5 Z" id="Path" fill="#000000"></path>
                <path d="M16.48,73.84 L21.02,73.84 L21.02,75.02 L21.02,96.92 C21.02,97.94 21.02,99 22.12,99.78 C20.22,99.78 18.52,99.78 17.04,99.78 C17.28,98.84 17.72,97.86 17.72,96.86 C17.78,90.22 17.76,83.6 17.74,76.96 C17.74,75.84 17.68,74.68 16.48,73.84 L16.48,73.84 Z" id="Path" fill="#000000"></path>
                <path d="M87.62,83.02 L91.64,83.02 L91.64,84.84 C91.64,88.86 91.62,92.9 91.64,96.92 C91.64,97.94 91.62,99 92.74,99.78 C90.74,99.78 88.94,99.78 86.94,99.78 C88.1,99.22 88.32,98.28 88.34,97.3 C88.36,93.38 88.4,89.44 88.32,85.52 C88.32,84.7 87.86,83.88 87.62,83.02 L87.62,83.02 Z" id="Path" fill="#000000"></path>
                <path d="M89.84,80.22 C88.62,80.24 87.68,79.32 87.68,78.12 C87.7,76.96 88.6,76.04 89.76,76.02 C90.96,76 91.92,76.96 91.92,78.14 C91.9,79.3 91,80.2 89.84,80.22 Z" id="Path" fill="#000000"></path>
                <path d="M67.5,21.52 C66.68,20.8 66.12,20.1 66.98,19.08 C67.08,19.48 67.18,19.86 67.3,20.3 C68.02,19.48 67.9,18.68 67.12,18.2 C67.26,17.14 67.42,16.1 67.56,15.08 C68.24,15.96 68.26,19.6 67.5,21.52 Z" id="Path" fill="#000000"></path>
                <path d="M58.96,33.38 C58.08,32.32 57.88,32.34 57.34,33.54 C56.94,33.46 56.52,33.4 56.12,33.32 C56.08,33.24 56.04,33.18 55.98,33.1 C56.56,32.78 57.12,32.22 57.7,32.2 C58.18,32.18 58.7,32.8 59.2,33.14 C59.12,33.2 59.04,33.28 58.96,33.38 Z" id="Path" fill="#000000"></path>
                <path d="M68.78,24.2 C69.48,24.34 70.06,25.4 70.66,24.16 C71.04,24.34 71.4,24.54 71.82,24.74 C69.98,25.84 69.56,25.76 68.78,24.2 Z" id="Path" fill="#000000"></path>
                <g id="Group" transform="translate(26.400000, 84.000000)" fill="#FFFFFF">
                    <path d="M42.4,7.18 C42.4,8.84 42.36,10.52 42.42,12.18 C42.46,13.26 41.72,13.62 40.92,13.88 C40.06,14.16 39.44,13.68 39.16,12.96 C38.84,12.1 38.52,11.18 38.5,10.26 C38.44,7.94 38.48,5.6 38.66,3.28 C38.72,2.48 39.2,1.64 39.72,0.98 C40,0.64 40.8,0.48 41.3,0.6 C41.94,0.74 42.42,1.26 42.4,2.06 C42.38,3.78 42.4,5.48 42.4,7.18 L42.4,7.18 Z" id="Path"></path>
                    <path d="M55.22,7.24 C55.22,8.9 55.18,10.56 55.24,12.22 C55.26,13.3 54.54,13.66 53.72,13.88 C52.92,14.1 52.28,13.68 52.06,12.98 C51.72,11.88 51.38,10.74 51.36,9.6 C51.32,7.36 51.46,5.1 51.64,2.86 C51.68,2.28 52,1.58 52.42,1.18 C52.84,0.8 53.58,0.54 54.12,0.6 C54.82,0.7 55.26,1.28 55.24,2.12 C55.18,3.84 55.22,5.54 55.22,7.24 L55.22,7.24 Z" id="Path"></path>
                    <path d="M3.96,5.54 C2.5,5.54 1.32,5.54 0.04,5.54 C-0.04,3.96 0.02,2.44 0.74,1.06 C0.98,0.58 1.7,0.04 2.14,0.08 C2.58,0.12 3.22,0.8 3.34,1.3 C3.66,2.64 3.76,4.04 3.96,5.54 L3.96,5.54 Z" id="Path"></path>
                </g>
            </g>
        </g>
    </g>
</svg>