<svg height="96" viewBox="0 0 300 96" width="300" xmlns="http://www.w3.org/2000/svg"><g fill="none"><path d="m0 0h300l-60 96h-240z" fill="#ff715a"/><path d="m21.666 30.0975c0-6.159-3.2805-7.4985-6.5595-7.4985-3.2805 0-6.561 1.272-6.561 7.365v17.136h-8.235v-46.776h8.235v17.3205c1.8075-1.338 4.017-2.9445 8.367-2.9445 6.963 0 12.9885 4.083 12.9885 14.058v18.3435h-8.235zm28.668-7.4985c-4.821 0-8.7705 4.017-8.7705 8.703 0 4.7535 3.9495 8.7705 8.7705 8.7705 4.887 0 8.835-4.017 8.835-8.7705 0-4.686-3.948-8.703-8.835-8.703zm8.835 22.4265c-2.5425 2.076-5.556 2.946-8.835 2.946-9.3735 0-16.8705-7.497-16.8705-16.6695 0-9.2385 7.497-16.602 16.8705-16.602 3.213 0 6.225.87 8.835 2.9445v-2.343h8.235v31.8h-8.235zm11.916-39.5655c0-2.9445 2.274-5.1525 5.22-5.1525s5.1555 2.208 5.1555 5.154-2.2095 5.2215-5.1555 5.2215-5.22-2.2755-5.22-5.2215zm1.0695 41.64h8.235v-31.797h-8.235zm21.2205-11.145v-35.64h-8.235v37.515c0 6.0255 3.348 9.372 9.441 9.372.507 0 1.0035-.0375 1.476-.1005v-7.71c-2.19-.237-2.682-1.5105-2.682-3.435zm35.3295-13.758c-3.816 0-6.8955 2.277-8.1 5.691h15.8655c-.468-3.213-3.816-5.691-7.7655-5.691zm.468 18.3435c2.88 0 5.958-1.071 7.833-3.5475l5.625 4.485c-2.88 4.083-7.968 6.495-13.3905 6.495-9.573 0-16.938-7.164-16.938-16.47 0-9.0375 6.36-16.803 16.47-16.803 9.372 0 16.0005 7.632 16.0005 16.602 0 .87-.0675 1.8075-.2025 2.61h-24.234c.9375 3.885 4.0845 6.6285 8.8365 6.6285zm-29.739-35.0805c0-2.9445 2.2755-5.1525 5.22-5.1525 2.9475 0 5.157 2.208 5.157 5.154s-2.2095 5.2215-5.1555 5.2215-5.2215-2.2755-5.2215-5.2215zm1.071 41.64h8.235v-31.797h-8.235z" fill="#fcf8f5" transform="translate(24 24)"/></g></svg>