<?xml version="1.0" encoding="UTF-8"?>
<svg width="300px" height="96px" viewBox="0 0 300 96" version="1.1" xmlns="http://www.w3.org/2000/svg" xmlns:xlink="http://www.w3.org/1999/xlink">
    <!-- Generator: Sketch 57.1 (83088) - https://sketch.com -->
    <title>hailie-logo-new</title>
    <desc>Created with Sketch.</desc>
    <g id="Adherium" stroke="none" stroke-width="1" fill="none" fill-rule="evenodd">
        <g id="adherium-case-study-copy" transform="translate(-145.000000, -374.000000)" fill-rule="nonzero">
            <g id="Group-3" transform="translate(145.000000, 348.000000)">
                <g id="hailie-logo-new" transform="translate(0.000000, 26.000000)">
                    <polygon id="Path" fill="#FF715A" points="0 0 300 0 240 96 0 96"></polygon>
                    <g id="Group" transform="translate(24.000000, 24.000000)" fill="#FCF8F5">
                        <path d="M21.666,30.0975 C21.666,23.9385 18.3855,22.599 15.1065,22.599 C11.826,22.599 8.5455,23.871 8.5455,29.964 L8.5455,47.1 L0.3105,47.1 L0.3105,0.324 L8.5455,0.324 L8.5455,17.6445 C10.353,16.3065 12.5625,14.7 16.9125,14.7 C23.8755,14.7 29.901,18.783 29.901,28.758 L29.901,47.1015 L21.666,47.1015 L21.666,30.0975 L21.666,30.0975 Z M50.334,22.599 C45.513,22.599 41.5635,26.616 41.5635,31.302 C41.5635,36.0555 45.513,40.0725 50.334,40.0725 C55.221,40.0725 59.169,36.0555 59.169,31.302 C59.169,26.616 55.221,22.599 50.334,22.599 L50.334,22.599 Z M59.169,45.0255 C56.6265,47.1015 53.613,47.9715 50.334,47.9715 C40.9605,47.9715 33.4635,40.4745 33.4635,31.302 C33.4635,22.0635 40.9605,14.7 50.334,14.7 C53.547,14.7 56.559,15.57 59.169,17.6445 L59.169,15.3015 L67.404,15.3015 L67.404,47.1015 L59.169,47.1015 L59.169,45.0255 Z M71.085,5.46 C71.085,2.5155 73.359,0.3075 76.305,0.3075 C79.251,0.3075 81.4605,2.5155 81.4605,5.4615 C81.4605,8.4075 79.251,10.683 76.305,10.683 C73.359,10.683 71.085,8.4075 71.085,5.4615 L71.085,5.46 Z M72.1545,47.1 L80.3895,47.1 L80.3895,15.303 L72.1545,15.303 L72.1545,47.1 Z M93.375,35.955 L93.375,0.315 L85.14,0.315 L85.14,37.83 C85.14,43.8555 88.488,47.202 94.581,47.202 C95.088,47.202 95.5845,47.1645 96.057,47.1015 L96.057,39.3915 C93.867,39.1545 93.375,37.881 93.375,35.9565 L93.375,35.955 Z M128.7045,22.197 C124.8885,22.197 121.809,24.474 120.6045,27.888 L136.47,27.888 C136.002,24.675 132.654,22.197 128.7045,22.197 L128.7045,22.197 Z M129.1725,40.5405 C132.0525,40.5405 135.1305,39.4695 137.0055,36.993 L142.6305,41.478 C139.7505,45.561 134.6625,47.973 129.24,47.973 C119.667,47.973 112.302,40.809 112.302,31.503 C112.302,22.4655 118.662,14.7 128.772,14.7 C138.144,14.7 144.7725,22.332 144.7725,31.302 C144.7725,32.172 144.705,33.1095 144.57,33.912 L120.336,33.912 C121.2735,37.797 124.4205,40.5405 129.1725,40.5405 L129.1725,40.5405 Z M99.4335,5.46 C99.4335,2.5155 101.709,0.3075 104.6535,0.3075 C107.601,0.3075 109.8105,2.5155 109.8105,5.4615 C109.8105,8.4075 107.601,10.683 104.655,10.683 C101.709,10.683 99.4335,8.4075 99.4335,5.4615 L99.4335,5.46 Z M100.5045,47.1 L108.7395,47.1 L108.7395,15.303 L100.5045,15.303 L100.5045,47.1 Z" id="Shape"></path>
                    </g>
                </g>
            </g>
        </g>
    </g>
</svg>