<svg height="24" viewBox="0 0 86 24" width="86" xmlns="http://www.w3.org/2000/svg"><g fill="#fff"><path d="m9.99146961.16271187c-.78229914 3.64745762-1.55087371 7.18644066-2.33317284 10.80677963h8.56411683c.2744909-1.20677966.5627064-2.45423726.8234727-3.70169486.4666347-2.18305088.9195447-4.36610172 1.3999038-6.54915257.0411736-.20338983.2882154-.52881356.45291-.52881356 1.5234247-.05423729 3.0605738-.04067797 4.6937948-.04067797-.2744909 1.26101695-.5215328 2.44067797-.7822991 3.62033898-1.3587301 6.27796608-2.7174602 12.56949148-4.0761903 18.84745758-.2195926 1.0033899-.2058681 1.0033899-1.2626582 1.0033899h-3.0880229c-.2470418 0-.4940837-.0271186-.8646464-.040678.576431-2.7254237 1.1391374-5.3559322 1.7155683-8.0542373h-8.56411685c-.46663457 2.1559322-.93326914 4.2847458-1.38617916 6.4271187-.35683821 1.6677966-.35683821 1.6677966-2.09985557 1.6677966-.96071823 0-1.92143647 0-2.88215471-.0135593-.06862273 0-.12352091-.0271187-.30194001-.081356.06862273-.4203389.12352092-.8542373.20586819-1.2881356 1.50970009-7.1050847 3.01940016-14.21016945 4.50165116-21.3152542.12352091-.56949153.30194001-.82711865.96071823-.8 1.42735279.08135593 2.82725653.04067797 4.32323203.04067797z"/><path d="m36.8092329 18.1288136c.6587782 1.098305 1.3038319 2.1830508 2.0037838 3.3491525-.6999519.3932203-1.331281.8135593-2.0037838 1.1254237-2.539041 1.220339-5.2290521 1.6000001-8.0014104 1.1525424-3.3350647-.5288135-5.2290521-2.4677966-5.6819622-5.8576271-.4803591-3.620339.3842873-6.9694915 2.6351129-9.88474576 2.5253165-3.28135595 6.834824-4.56949154 10.8012179-3.33559324 2.9233283.90847458 4.625172 3.09152544 4.6526211 6.2237288.0137246 1.3423729-.2607664 2.6847458-.3980118 4.0271186-.0548982.4745763-.30194.6101695-.7822991.6101695-3.7742502-.0135593-7.5485004-.0135593-11.3090261-.0135593h-.7960237c-.7136764 2.2508475.5078082 4.0271187 2.813532 4.1762712 1.9488855.1220339 3.7605256-.3254237 5.4623694-1.2338983.1784191-.1084746.3568382-.2033898.60388-.338983zm-.2058682-6.7389831c.2607664-1.220339-.1646945-2.21016952-1.20776-2.79322031-.9332692-.5288136-1.9488856-.59661017-2.9919511-.39322038-1.5371492.29830512-3.1566456 1.81694919-3.3762384 3.18644069z"/><path d="m73.4812201 19.1593221h8.8797814c-.315664 1.4372881-.6176045 2.8203389-.9469935 4.1898305-.0274491.1220339-.3019398.2711864-.4666346.2711864-4.9133878.0135593-9.8267749 0-14.7401626 0-.0411736 0-.0823472-.0271186-.2195926-.0949153.1097963-.5559322.2607663-1.138983.329389-1.7355932.1921437-1.6542373.9195447-2.9288136 2.2233766-4.0677966 2.9782262-2.6033898 5.8054831-5.3694915 8.7013624-8.06779664.1784191-.16271184.4117364-.27118643.6176046-.40677964-.0548983-.08135595-.0960724-.16271184-.1509699-.23050848h-8.6190157c.3293897-1.55932203.6313295-2.99661015.9469942-4.47457626h15.4812879c-.2882156 1.41016949-.5627062 2.77966102-.8783709 4.1355932-.0548983.21694917-.3019399.37966101-.4803589.55593223-3.3487898 3.11864409-6.6975789 6.22372879-10.0326437 9.34237289-.1784191.1355932-.329389.2847457-.6450537.5830509z"/><path d="m61.7055597 9.01694914c-.4117364 1.95254236-.8234728 3.86440676-1.2352091 5.78983046-.1646946.7457628-.3431137 1.4915255-.4666346 2.2508475-.2607664 1.5322034.4117364 2.3864407 2.0037837 2.481356.8646464.0542372 1.7292929.0135593 2.6762866.0135593-.2882155 1.3288135-.5352574 2.5898305-.8371974 3.8237288-.027449.1355932-.2882154.2847457-.45291.3118644-2.1273046.4745762-4.1859866.3118644-6.079974-.8135593-2.0175083-1.1932203-2.539041-3.1186441-2.2508255-5.220339.3431136-2.5491525.8920954-5.0576271 1.3999036-7.579661.6313292-3.11864409 1.3450056-6.21016952 1.9900593-9.32881359.0960718-.47457627.2744909-.62372881.75485-.61016949 1.4410774.02711865 2.8684302.01355932 4.3918548.01355932-.30194 1.46440678-.5764309 2.86101695-.878371 4.33898305h5.174154c-.3156646 1.4779661-.5901555 2.84745762-.9195446 4.2033898-.0411737.1491526-.3980119.29830512-.6176046.31186444-1.5234247.02711863-3.0331247.01355931-4.6526212.01355931z"/><path d="m55.556963 4.56949153c-.30194 1.41016948-.5764309 2.779661-.90582 4.13559325-.0274491.12203389-.3842873.20338978-.5901555.24406779-1.0705146.16271184-2.1684783.20338978-3.2115438.46101689-.7960237.18983054-1.4136283.78644074-1.633221 1.61355934-.5215328 1.8711864-1.029341 3.7423729-1.4685264 5.6271187-.5078083 2.1559322-.9332692 4.3254237-1.4136283 6.4813559-.0411737.2033898-.3019401.4881356-.4803592.5016949-1.5097.040678-3.0056755.0271186-4.6388966.0271186.1921437-.9084745.3705628-1.7355932.5489819-2.5491525.7822991-3.4576271 1.4548019-6.9288136 2.3743465-10.359322 1.4410774-5.42372884 6.3956385-7.07796613 10.6639724-6.34576274.2195927 0 .45291.08135593.75485.16271187z"/></g></svg>