<svg height="38" viewBox="0 0 144 38" width="144" xmlns="http://www.w3.org/2000/svg" xmlns:xlink="http://www.w3.org/1999/xlink"><defs><path id="a" d="m107.433451 37.8367602c.212625 0 .385383-.0744187.518274-.2232562.13289-.1488375.199336-.36855.199336-.6591375v-2.7003375c0-.3189375-.014175-.581175-.042525-.7867125s-.090366-.3969-.186047-.5740875c-.148838-.3047625-.373866-.5404219-.675085-.7069781-.301218-.1665563-.64319-.2498344-1.025915-.2498344-.393356 0-.74153.0788484-1.044521.2365453-.30299.1576969-.58206.4048734-.83721.7415297v-.1754156c0-.1736438-.031008-.3207094-.093024-.4411969s-.144408-.2108531-.247176-.2710969c-.102769-.0602437-.217941-.0903656-.345516-.0903656-.209081 0-.373866.0682172-.494353.2046515-.120488.1364344-.180731.3428579-.180731.6192704v4.1940281c0 .2835.067331.5014406.201993.6538219.134663.1523812.306535.2285718.515616.2285718.216169 0 .39247-.0735328.528905-.2205984.136434-.1470656.204651-.3676641.204651-.6617953v-1.8179438c0-.5918062.035438-.9957937.106313-1.2119625.099225-.269325.25515-.481064.467775-.6352172.212625-.1541531.448284-.2312296.706978-.2312296.3969 0 .661795.126689.794686.3800671.13289.2533782.199336.6192704.199336 1.0976766v2.4186094c0 .2835.067331.5014406.201993.6538219.134663.1523812.310079.2285718.526247.2285718zm4.699013 0c.442969 0 .84164-.069989 1.196015-.2099672.354375-.1399781.659138-.3410859.914288-.6033234s.450056-.5758594.584719-.9408656c.134662-.3650063.201993-.7636781.201993-1.1960156 0-.4358813-.066445-.8345532-.199336-1.1960157-.13289-.3614625-.32691-.6733125-.58206-.93555s-.561685-.4642312-.919604-.6059812c-.357918-.14175-.75659-.212625-1.196015-.212625-.432338 0-.827466.069989-1.185385.2099672-.357918.1399781-.662681.339314-.914287.5980078-.251606.2586937-.444741.5705437-.579403.93555-.134663.3650062-.201994.7672219-.201994 1.2066469 0 .4358812.066445.8336671.199336 1.1933578.132891.3596906.327797.6715406.584719.93555.256922.2640093.560798.466889.911629.608639.350832.14175.74596.212625 1.185385.212625zm0-1.0790718c-.290588 0-.54308-.0753047-.757477-.2259141s-.379181-.3676641-.494353-.6511641-.172758-.6148406-.172758-.9940218c0-.382725.058472-.7176094.175416-1.0046532.116944-.2870437.2835-.5040984.499669-.651164.216168-.1470657.466003-.2205985.749503-.2205985.439425 0 .78937.1647844 1.049836.4943532.260465.3295687.390698.7902562.390698 1.3820625 0 .5847187-.130233 1.0427484-.390698 1.374089-.260466.3313406-.610411.497011-1.049836.497011zm9.530915 1.0790718c.212625 0 .380068-.0513843.502327-.1541531.122259-.1027687.211739-.2197125.268439-.3508312.0567-.1311188.136434-.3437438.239203-.637875l1.185385-3.4764188c.109856-.3012187.164784-.5262469.164784-.6750844 0-.1630125-.063788-.3047625-.191363-.42525s-.278184-.1807312-.451828-.1807312c-.173643 0-.306534.0398672-.398672.1196015-.092137.0797344-.157696.1718719-.196678.2764125-.038981.1045407-.090365.2737547-.154153.5076422l-.956812 3.2425313-.861132-3.0139594c-.088593-.3012187-.157696-.5129578-.207309-.6352172-.049612-.1222594-.135548-.2356594-.257808-.3402-.122259-.1045406-.291473-.1568109-.507642-.1568109-.212625 0-.380067.0522703-.502327.1568109-.122259.1045406-.205537.2143969-.249834.3295688-.044297.1151718-.112514.3304547-.204651.6458484l-.861132 3.0139594-.946181-3.2425313c-.095681-.3295687-.186047-.5625703-.271097-.6990047-.08505-.1364343-.248062-.2046515-.489037-.2046515-.180732 0-.333113.0620156-.457144.1860469-.124031.1240312-.186047.2640093-.186047.4199343 0 .1240313.058472.3490594.175416.6750844l1.174753 3.4764188c.031894.0921375.07619.2170546.13289.3747515s.12226.2941313.196679.4093031c.074418.1151719.167442.2037657.27907.2657813s.247176.0930234.406645.0930234c.31185 0 .529791-.1001109.653822-.3003328s.239203-.4970109.345516-.8903672l.802659-2.8279125.829238 2.8279125c.070875.25515.136434.4624594.196678.6219282.060243.1594687.153267.2941312.27907.4039875.125803.1098562.298561.1647843.518273.1647843z"/></defs><g fill="none" fill-rule="evenodd" transform="translate(3)"><g fill-rule="nonzero" transform="translate(8.4)"><g fill="#ff6150"><ellipse cx="3.62829" cy="21.806113" rx="3.410943" ry="3.370724"/><ellipse cx="17.4085" cy="21.806113" rx="3.410943" ry="3.370724"/><path d="m55.8021666 15.0679143h-12.7949512c.0159738 1.4697058.3154781 2.765556.8985219 3.8875895.5830437 1.1220335 1.3577615 1.9674968 2.3241765 2.5364151.966415.5689184 2.0326502.8533733 3.1987378.8533733.7827162 0 1.4975328-.0908675 2.144472-.2726054.6469392-.1817377 1.2739014-.4661927 1.8809058-.8533732.6070044-.3871806 1.166079-.8020107 1.6772406-1.2445028.5111616-.442492 1.1740644-1.043008 1.9887282-1.8015658.3354504-.2844593.8146572-.4266867 1.4376354-.4266867.6708996 0 1.2140004.181735 1.6293192.5452107.4153188.3634756.6229752.8770748.6229752 1.5408129 0 .5847217-.2316162 1.2682037-.694857 2.0504665-.4632402.7822628-1.162083 1.5329077-2.0965506 2.2519573s-2.1085242 1.3156148-3.5222058 1.7897135c-1.4136816.4740986-3.038991.7111444-4.8759786.7111444-4.2011096 0-7.467703-1.1852288-9.799878-3.5557222-2.332175-2.3704932-3.498245-5.5864141-3.498245-9.6478593 0-1.9121979.2875241-3.68609042.862581-5.3217308.5750568-1.63564032 1.4136688-3.03816116 2.5158611-4.20760451s2.459945-2.06626652 4.073299-2.69049641c1.6133539-.62422989 3.4023928-.93634016 5.3671704-.93634016 2.5558085 0 4.7481797.53335298 6.5771801 1.60007496 1.8289998 1.06672197 3.1987332 2.44553821 4.1092398 4.13649006.9105066 1.69095186 1.365753 3.41348448 1.365753 5.16764956 0 1.6277386-.4712202 2.6825923-1.4136744 3.1645926-.9424542.4820004-2.2682598.7229969-3.9774564.7229969zm-12.7949512-3.6742462h11.8604884c-.159738-2.21246042-.7627398-3.86783006-1.809024-4.96615862-1.0462842-1.09832853-2.4240036-1.64748457-4.1332005-1.64748457-1.6293277 0-2.9671136.55705757-4.0133975 1.67118943-1.0462841 1.11413184-1.6812331 2.7615999-1.9048664 4.94245376zm48.1847314 2.0860236c0 1.9280012-.303498 3.7058445-.9105024 5.3335832s-1.4855502 3.0263088-2.6356638 4.1957521c-1.1501136 1.1694434-2.52384 2.0662665-4.1212206 2.6904965-1.59738.6242298-3.3944058.9363401-5.3911308.9363401-1.9807512 0-3.7618032-.316061-5.34321-.9481925-1.5814062-.6321316-2.951139-1.5368563-4.1092398-2.7142013s-2.0366466-2.5680135-2.6356638-4.1720473c-.5990178-1.6040338-.8985222-3.3779263-.8985222-5.3217308 0-1.9596078.303498-3.75325406.9105024-5.3809928s1.4775636-3.01840724 2.6117034-4.1720473c1.1341398-1.15364005 2.5078662-2.0425617 4.12122-2.66679159 1.6133544-.6242299 3.3944064-.93634016 5.34321-.93634016 1.9807512 0 3.777777.31606103 5.3911308.94819256 1.6133544.63213155 2.9950674 1.53290547 4.145181 2.70234882s2.0246664 2.56011187 2.6236836 4.17204733c.5990178 1.6119354.8985222 3.38977864.8985222 5.33358314zm-6.5652 0c0-2.6391492-.587028-4.69354586-1.7611026-6.16325168-1.1740746-1.46970581-2.7514638-2.20454771-4.732215-2.20454771-1.277904 0-2.4040404.32791332-3.3784422.98374979-.9744018.65583648-1.725159 1.6237734-2.2522944 2.90383974-.5271354 1.28006636-.7906992 2.77345466-.7906992 4.48020986 0 1.6909519.2595702 3.1685372.7787184 4.4328003.5191488 1.264263 1.2619194 2.2322 2.2283346 2.9038397.9664146.6716398 2.1045312 1.0074546 3.4143828 1.0074546 1.9807512 0 3.5581404-.7387926 4.732215-2.2164001s1.7611026-3.5201519 1.7611026-6.1276945zm15.7900242-9.12635344 4.264984 14.45993664 3.881614-13.44062963c.415319-1.40649267.72281-2.36652805.922482-2.88013492.199673-.51360688.575052-1.00350147 1.126148-1.46969849.551096-.466197 1.305847-.69929201 2.264275-.69929201.974402 0 1.737139.23309501 2.288235.69929201.551096.46619702.938456.97189466 1.162089 1.51710812.223633.54521345.535117 1.48944577.934462 2.83272529l3.881615 13.44062963 4.312904-14.45993664c.287529-1.04301704.519145-1.79761274.694857-2.26380975.175712-.46619702.471223-.87707635.886542-1.23265034s1.014327-.53335832 1.797043-.53335832c.782717 0 1.461593.26865187 2.03665.80596368s.862581 1.16943386.862581 1.89638513c0 .66373812-.24759 1.66723189-.742778 3.01051138l-5.34321 15.50294846c-.46324 1.311673-.822645 2.2598561-1.078226 2.8445777-.255581.5847217-.658914 1.1062224-1.210009 1.5645178-.551097.4582953-1.305848.6874396-2.264276.6874396-.990375 0-1.769086-.2449473-2.336157-.7348492-.567069-.489902-.986375-1.0904179-1.25793-1.8015659s-.567066-1.6356265-.886542-2.7734633l-3.73785-12.61096114-3.618048 12.61096114c-.479214 1.7541651-.998355 3.0776706-1.557438 3.9705564s-1.541457 1.339322-2.947152 1.339322c-.718821 0-1.32981-.1382767-1.832984-.4148342-.503175-.2765576-.922481-.6716339-1.257931-1.1852408-.335449-.5136069-.630961-1.1220243-.886542-1.8252706-.25558-.7032464-.45525-1.2603039-.599014-1.6711895l-5.2952884-15.50294846c-.527136-1.45390251-.7906998-2.45739628-.7906998-3.01051138 0-.69534469.2795376-1.31956522.8386206-1.87268032.559083-.55311509 1.2459462-.82966849 2.06061-.82966849 1.0862184 0 1.8210024.30420874 2.2043736.91263535.3833712.6084266.7906974 1.64747723 1.22199 3.11718306z"/></g><use fill="#000" xlink:href="#a"/><use fill="#ff6150" xlink:href="#a"/></g><path d="m.3851888 23.3111275v-18.36933531c0-.59646753.48353247-1.08 1.08-1.08.17500751 0 .34739358.04252936.50231943.12392721l8.25370387 4.3364855c5.2712125 3.239803 11.8935175 3.3320791 17.2529536.24040494l.4167434-.24040494 7.858484-4.29458759c.5234081-.28603758 1.1795935-.09361079 1.4656311.42979729.0867972.15882668.1322858.3369205.1322858.51791687v18.33579603" stroke="#ff6150" stroke-linecap="round" stroke-width="5.76"/><g stroke="#ff6150" stroke-linecap="round" stroke-width=".72" transform="translate(0 26.4)"><g transform="translate(26.168522 .592208)"><path d="m0 .95675676c5.99146586-.47567568 9.71772846-.47567568 11.1787879 0"/><path d="m.00086453 4.53447514c5.99041502-.48676758 9.71547823-.4935697 11.17518967-.02040636" transform="matrix(.98480775 .17364818 -.17364818 .98480775 .840158 -.904349)"/></g><path d="m.20488614 1.54896516c5.99146586-.47567568 9.71772846-.47567568 11.17878786 0" transform="matrix(-1 0 0 1 11.58856 0)"/><path d="m.20761946 5.12668347c5.99041503-.48676757 9.71547822-.49356969 11.17518964-.02040636" transform="matrix(-.98480775 .17364818 .17364818 .98480775 10.644293 -.931255)"/></g><path d="m21.2231928 29.8982875c-.4232049.2855727-.7695646.3606843-1.067293.3621716-.2973571.0011155-.5546211-.0851512-.7365249-.1732772-.0025987-.0011155-.0040836-.002231-.006311-.0033465l-.0215315-1.2304169c1.1214929-.966039 3.106101-3.0449937-.5995402-3.0449937-3.644759 0-1.7841426 2.0120235-.6552251 2.9973982l.0215315 1.2690882c-.1815326.0907288-.4536459.1896382-.7617688.1862916-.2984707-.0018592-.6444593-.0777145-1.0646943-.3629153-.2865913-.1963313-.6767565-.1219634-.8720247.1636093-.1952682.2866883-.1225067.6767479.1640847.8727073.6069648.4190632 1.227294.5819288 1.75927.5819288h.0129931c.6032526-.0048339 1.0702629-.1844323 1.3802419-.3495291.3096077.1650968.7762468.3446952 1.3787568.3495291h.0129932c.5330896 0 1.1519339-.1636093 1.7600125-.5815569.2862201-.1952158.3600954-.5860191.1637135-.8727073-.1937834-.2859446-.583206-.3606843-.8686837-.1639812z" fill="#ff6150" fill-rule="nonzero"/></g></svg>