<?xml version="1.0" encoding="UTF-8"?>
<svg width="144px" height="38px" viewBox="0 0 144 38" version="1.1" xmlns="http://www.w3.org/2000/svg" xmlns:xlink="http://www.w3.org/1999/xlink">
    <!-- Generator: Sketch 64 (93537) - https://sketch.com -->
    <title>meownow_logo@1x</title>
    <desc>Created with Sketch.</desc>
    <defs>
        <path d="M107.433451,37.8367602 C107.646076,37.8367602 107.818834,37.7623415 107.951725,37.613504 C108.084615,37.4646665 108.151061,37.244954 108.151061,36.9543665 L108.151061,36.9543665 L108.151061,34.254029 C108.151061,33.9350915 108.136886,33.672854 108.108536,33.4673165 C108.080186,33.261779 108.01817,33.0704165 107.922489,32.893229 C107.773651,32.5884665 107.548623,32.3528071 107.247404,32.1862509 C106.946186,32.0196946 106.604214,31.9364165 106.221489,31.9364165 C105.828133,31.9364165 105.479959,32.0152649 105.176968,32.1729618 C104.873978,32.3306587 104.594908,32.5778352 104.339758,32.9144915 L104.339758,32.9144915 L104.339758,32.7390759 C104.339758,32.5654321 104.30875,32.4183665 104.246734,32.297879 C104.184718,32.1773915 104.102326,32.0870259 103.999558,32.0267821 C103.896789,31.9665384 103.781617,31.9364165 103.654042,31.9364165 C103.444961,31.9364165 103.280176,32.0046337 103.159689,32.141068 C103.039201,32.2775024 102.978958,32.4839259 102.978958,32.7603384 L102.978958,32.7603384 L102.978958,36.9543665 C102.978958,37.2378665 103.046289,37.4558071 103.180951,37.6081884 C103.315614,37.7605696 103.487486,37.8367602 103.696567,37.8367602 C103.912736,37.8367602 104.089037,37.7632274 104.225472,37.6161618 C104.361906,37.4690962 104.430123,37.2484977 104.430123,36.9543665 L104.430123,36.9543665 L104.430123,35.1364227 C104.430123,34.5446165 104.465561,34.140629 104.536436,33.9244602 C104.635661,33.6551352 104.791586,33.4433962 105.004211,33.289243 C105.216836,33.1350899 105.452495,33.0580134 105.711189,33.0580134 C106.108089,33.0580134 106.372984,33.1847024 106.505875,33.4380805 C106.638765,33.6914587 106.705211,34.0573509 106.705211,34.5357571 L106.705211,34.5357571 L106.705211,36.9543665 C106.705211,37.2378665 106.772542,37.4558071 106.907204,37.6081884 C107.041867,37.7605696 107.217283,37.8367602 107.433451,37.8367602 Z M112.132464,37.8367602 C112.575433,37.8367602 112.974104,37.7667712 113.328479,37.626793 C113.682854,37.4868149 113.987617,37.2857071 114.242767,37.0234696 C114.497917,36.7612321 114.692823,36.4476102 114.827486,36.082604 C114.962148,35.7175977 115.029479,35.3189259 115.029479,34.8865884 C115.029479,34.4507071 114.963034,34.0520352 114.830143,33.6905727 C114.697253,33.3291102 114.503233,33.0172602 114.248083,32.7550227 C113.992933,32.4927852 113.686398,32.2907915 113.328479,32.1490415 C112.970561,32.0072915 112.571889,31.9364165 112.132464,31.9364165 C111.700126,31.9364165 111.304998,32.0064055 110.947079,32.1463837 C110.589161,32.2863618 110.284398,32.4856977 110.032792,32.7443915 C109.781186,33.0030852 109.588051,33.3149352 109.453389,33.6799415 C109.318726,34.0449477 109.251395,34.4471634 109.251395,34.8865884 C109.251395,35.3224696 109.31784,35.7202555 109.450731,36.0799462 C109.583622,36.4396368 109.778528,36.7514868 110.03545,37.0154962 C110.292372,37.2795055 110.596248,37.4823852 110.947079,37.6241352 C111.297911,37.7658852 111.693039,37.8367602 112.132464,37.8367602 Z M112.132464,36.7576884 C111.841876,36.7576884 111.589384,36.6823837 111.374987,36.5317743 C111.16059,36.3811649 110.995806,36.1641102 110.880634,35.8806102 C110.765462,35.5971102 110.707876,35.2657696 110.707876,34.8865884 C110.707876,34.5038634 110.766348,34.168979 110.883292,33.8819352 C111.000236,33.5948915 111.166792,33.3778368 111.382961,33.2307712 C111.599129,33.0837055 111.848964,33.0101727 112.132464,33.0101727 C112.571889,33.0101727 112.921834,33.1749571 113.1823,33.5045259 C113.442765,33.8340946 113.572998,34.2947821 113.572998,34.8865884 C113.572998,35.4713071 113.442765,35.9293368 113.1823,36.2606774 C112.921834,36.592018 112.571889,36.7576884 112.132464,36.7576884 Z M121.663379,37.8367602 C121.876004,37.8367602 122.043447,37.7853759 122.165706,37.6826071 C122.287965,37.5798384 122.377445,37.4628946 122.434145,37.3317759 C122.490845,37.2006571 122.570579,36.9880321 122.673348,36.6939009 L122.673348,36.6939009 L123.858733,33.2174821 C123.968589,32.9162634 124.023517,32.6912352 124.023517,32.5423977 C124.023517,32.3793852 123.959729,32.2376352 123.832154,32.1171477 C123.704579,31.9966602 123.55397,31.9364165 123.380326,31.9364165 C123.206683,31.9364165 123.073792,31.9762837 122.981654,32.056018 C122.889517,32.1357524 122.823958,32.2278899 122.784976,32.3324305 C122.745995,32.4369712 122.694611,32.6061852 122.630823,32.8400727 L122.630823,32.8400727 L121.674011,36.082604 L120.812879,33.0686446 C120.724286,32.7674259 120.655183,32.5556868 120.60557,32.4334274 C120.555958,32.311168 120.470022,32.197768 120.347762,32.0932274 C120.225503,31.9886868 120.056289,31.9364165 119.84012,31.9364165 C119.627495,31.9364165 119.460053,31.9886868 119.337793,32.0932274 C119.215534,32.197768 119.132256,32.3076243 119.087959,32.4227962 C119.043662,32.537968 118.975445,32.7532509 118.883308,33.0686446 L118.883308,33.0686446 L118.022176,36.082604 L117.075995,32.8400727 C116.980314,32.510504 116.889948,32.2775024 116.804898,32.141068 C116.719848,32.0046337 116.556836,31.9364165 116.315861,31.9364165 C116.135129,31.9364165 115.982748,31.9984321 115.858717,32.1224634 C115.734686,32.2464946 115.67267,32.3864727 115.67267,32.5423977 C115.67267,32.666429 115.731142,32.8914571 115.848086,33.2174821 L115.848086,33.2174821 L117.022839,36.6939009 C117.054733,36.7860384 117.099029,36.9109555 117.155729,37.0686524 C117.212429,37.2263493 117.277989,37.3627837 117.352408,37.4779555 C117.426826,37.5931274 117.51985,37.6817212 117.631478,37.7437368 C117.743106,37.8057524 117.878654,37.8367602 118.038123,37.8367602 C118.349973,37.8367602 118.567914,37.7366493 118.691945,37.5364274 C118.815976,37.3362055 118.931148,37.0394165 119.037461,36.6460602 L119.037461,36.6460602 L119.84012,33.8181477 L120.669358,36.6460602 C120.740233,36.9012102 120.805792,37.1085196 120.866036,37.2679884 C120.926279,37.4274571 121.019303,37.5621196 121.145106,37.6719759 C121.270909,37.7818321 121.443667,37.8367602 121.663379,37.8367602 Z" id="path-1"></path>
    </defs>
    <g id="Client-logos" stroke="none" stroke-width="1" fill="none" fill-rule="evenodd">
        <g id="tone-and-sculpt-copy-3" transform="translate(-9.000000, -2.000000)">
            <g id="meownow_logo" transform="translate(12.000000, 2.000000)">
                <g id="Group" transform="translate(8.400000, 0.000000)" fill-rule="nonzero">
                    <ellipse id="Oval" fill="#FF6150" cx="3.62829" cy="21.8061132" rx="3.410943" ry="3.3707244"></ellipse>
                    <ellipse id="Oval" fill="#FF6150" cx="17.4085002" cy="21.8061132" rx="3.410943" ry="3.3707244"></ellipse>
                    <path d="M55.8021666,15.0679143 L43.0072154,15.0679143 C43.0231892,16.5376201 43.3226935,17.8334703 43.9057373,18.9555038 C44.488781,20.0775373 45.2634988,20.9230006 46.2299138,21.4919189 C47.1963288,22.0608373 48.262564,22.3452922 49.4286516,22.3452922 C50.2113678,22.3452922 50.9261844,22.2544247 51.5731236,22.0726868 C52.2200628,21.8909491 52.847025,21.6064941 53.4540294,21.2193136 C54.0610338,20.832133 54.6201084,20.4173029 55.13127,19.9748108 C55.6424316,19.5323188 56.3053344,18.9318028 57.1199982,18.173245 C57.4554486,17.8887857 57.9346554,17.7465583 58.5576336,17.7465583 C59.2285332,17.7465583 59.771634,17.9282933 60.1869528,18.291769 C60.6022716,18.6552446 60.809928,19.1688438 60.809928,19.8325819 C60.809928,20.4173036 60.5783118,21.1007856 60.115071,21.8830484 C59.6518308,22.6653112 58.952988,23.4159561 58.0185204,24.1350057 C57.0840528,24.8540553 55.9099962,25.4506205 54.4963146,25.9247192 C53.082633,26.3988178 51.4573236,26.6358636 49.620336,26.6358636 C45.4192264,26.6358636 42.152633,25.4506348 39.820458,23.0801414 C37.488283,20.7096482 36.322213,17.4937273 36.322213,13.4322821 C36.322213,11.5200842 36.6097371,9.74619168 37.184794,8.1105513 C37.7598508,6.47491098 38.5984628,5.07239014 39.7006551,3.90294679 C40.8028474,2.73350344 42.1606001,1.83668027 43.7739541,1.21245038 C45.387308,0.588220488 47.1763469,0.27611022 49.1411245,0.27611022 C51.696933,0.27611022 53.8893042,0.809463204 55.7183046,1.87618518 C57.5473044,2.94290715 58.9170378,4.32172339 59.8275444,6.01267524 C60.738051,7.7036271 61.1932974,9.42615972 61.1932974,11.1803248 C61.1932974,12.8080634 60.7220772,13.8629171 59.779623,14.3449174 C58.8371688,14.8269178 57.5113632,15.0679143 55.8021666,15.0679143 L55.8021666,15.0679143 Z M43.0072154,11.3936681 L54.8677038,11.3936681 C54.7079658,9.18120768 54.104964,7.52583804 53.0586798,6.42750948 C52.0123956,5.32918095 50.6346762,4.78002491 48.9254793,4.78002491 C47.2961516,4.78002491 45.9583657,5.33708248 44.9120818,6.45121434 C43.8657977,7.56534618 43.2308487,9.21281424 43.0072154,11.3936681 L43.0072154,11.3936681 Z M91.1919468,13.4796917 C91.1919468,15.4076929 90.8884488,17.1855362 90.2814444,18.8132749 C89.67444,20.4410136 88.7958942,21.8395837 87.6457806,23.009027 C86.495667,24.1784704 85.1219406,25.0752935 83.52456,25.6995235 C81.92718,26.3237533 80.1301542,26.6358636 78.1334292,26.6358636 C76.152678,26.6358636 74.371626,26.3198026 72.7902192,25.6876711 C71.208813,25.0555395 69.8390802,24.1508148 68.6809794,22.9734698 C67.5228786,21.7961248 66.6443328,20.4054563 66.0453156,18.8014225 C65.4462978,17.1973887 65.1467934,15.4234962 65.1467934,13.4796917 C65.1467934,11.5200839 65.4502914,9.72643764 66.0572958,8.0986989 C66.6643002,6.47096016 67.5348594,5.08029166 68.6689992,3.9266516 C69.803139,2.77301155 71.1768654,1.8840899 72.7902192,1.25986001 C74.4035736,0.635630112 76.1846256,0.32351985 78.1334292,0.32351985 C80.1141804,0.32351985 81.9112062,0.639580878 83.52456,1.27171241 C85.1379144,1.90384396 86.5196274,2.80461788 87.669741,3.97406123 C88.8198546,5.14350458 89.6944074,6.5341731 90.2934246,8.14610856 C90.8924424,9.75804396 91.1919468,11.5358872 91.1919468,13.4796917 L91.1919468,13.4796917 Z M84.6267468,13.4796917 C84.6267468,10.8405425 84.0397188,8.78614584 82.8656442,7.31644002 C81.6915696,5.84673421 80.1141804,5.11189231 78.1334292,5.11189231 C76.8555252,5.11189231 75.7293888,5.43980563 74.754987,6.0956421 C73.7805852,6.75147858 73.029828,7.7194155 72.5026926,8.99948184 C71.9755572,10.2795482 71.7119934,11.7729365 71.7119934,13.4796917 C71.7119934,15.1706436 71.9715636,16.6482289 72.4907118,17.912492 C73.0098606,19.176755 73.7526312,20.144692 74.7190464,20.8163317 C75.685461,21.4879715 76.8235776,21.8237863 78.1334292,21.8237863 C80.1141804,21.8237863 81.6915696,21.0849937 82.8656442,19.6073862 C84.0397188,18.1297787 84.6267468,16.0872343 84.6267468,13.4796917 L84.6267468,13.4796917 Z M100.416771,4.35333826 L104.681755,18.8132749 L108.563369,5.37264527 C108.978688,3.9661526 109.286179,3.00611722 109.485851,2.49251035 C109.685524,1.97890347 110.060903,1.48900888 110.611999,1.02281186 C111.163095,0.556614858 111.917846,0.32351985 112.876274,0.32351985 C113.850676,0.32351985 114.613413,0.556614858 115.164509,1.02281186 C115.715605,1.48900888 116.102965,1.99470652 116.326598,2.53991998 C116.550231,3.08513343 116.861715,4.02936575 117.26106,5.37264527 L121.142675,18.8132749 L125.455579,4.35333826 C125.743108,3.31032122 125.974724,2.55572552 126.150436,2.08952851 C126.326148,1.62333149 126.621659,1.21245216 127.036978,0.856878168 C127.452297,0.501304176 128.051305,0.32351985 128.834021,0.32351985 C129.616738,0.32351985 130.295614,0.592171722 130.870671,1.12948353 C131.445728,1.66679534 131.733252,2.29891739 131.733252,3.02586866 C131.733252,3.68960678 131.485662,4.69310055 130.990474,6.03638004 L125.647264,21.5393285 C125.184024,22.8510015 124.824619,23.7991846 124.569038,24.3839062 C124.313457,24.9686279 123.910124,25.4901286 123.359029,25.948424 C122.807932,26.4067193 122.053181,26.6358636 121.094753,26.6358636 C120.104378,26.6358636 119.325667,26.3909163 118.758596,25.9010144 C118.191527,25.4111124 117.772221,24.8105965 117.500666,24.0994485 C117.229111,23.3883005 116.9336,22.463822 116.614124,21.3259852 L112.876274,8.71502406 L109.258226,21.3259852 C108.779012,23.0801503 108.259871,24.4036558 107.700788,25.2965416 C107.141705,26.1894274 106.159331,26.6358636 104.753636,26.6358636 C104.034815,26.6358636 103.423826,26.4975869 102.920652,26.2210294 C102.417477,25.9444718 101.998171,25.5493955 101.662721,25.0357886 C101.327272,24.5221817 101.03176,23.9137643 100.776179,23.210518 C100.520599,22.5072716 100.320929,21.9502141 100.177165,21.5393285 L94.8818766,6.03638004 C94.3547406,4.58247753 94.0911768,3.57898376 94.0911768,3.02586866 C94.0911768,2.33052397 94.3707144,1.70630344 94.9297974,1.15318834 C95.4888804,0.600073248 96.1757436,0.32351985 96.9904074,0.32351985 C98.0766258,0.32351985 98.8114098,0.627728586 99.194781,1.2361552 C99.5781522,1.8445818 99.9854784,2.88363243 100.416771,4.35333826 L100.416771,4.35333826 Z" id="Shape" fill="#FF6150"></path>
                    <g id="now">
                        <use fill="#000000" xlink:href="#path-1"></use>
                        <use fill="#FF6150" xlink:href="#path-1"></use>
                    </g>
                </g>
                <path d="M0.385188804,23.3111275 L0.385188804,4.94179219 C0.385188804,4.34532466 0.868721274,3.86179219 1.4651888,3.86179219 C1.64019631,3.86179219 1.81258238,3.90432155 1.96750823,3.9857194 L10.2212121,8.3222049 C15.4924246,11.5620079 22.1147296,11.654284 27.4741657,8.56260984 L27.8909091,8.3222049 L35.7493931,4.02761731 C36.2728012,3.74157973 36.9289866,3.93400652 37.2150242,4.4574146 C37.3018214,4.61624128 37.34731,4.7943351 37.34731,4.97533147 L37.34731,23.3111275" id="Path" stroke="#FF6150" stroke-width="5.76" stroke-linecap="round"></path>
                <g id="Group" stroke-linecap="round" transform="translate(0.000000, 26.400000)" stroke="#FF6150">
                    <g transform="translate(26.168522, 0.592208)" id="Path">
                        <path d="M0,0.95675676 C5.99146586,0.48108108 9.71772846,0.48108108 11.1787879,0.95675676" stroke-width="0.72"></path>
                        <path d="M0.000864526636,4.53447514 C5.99127955,4.04770756 9.71634276,4.04090544 11.1760542,4.51406878" stroke-width="0.719999998" transform="translate(5.588459, 4.349350) rotate(10.000000) translate(-5.588459, -4.349350) "></path>
                    </g>
                    <path d="M0.20488614,1.54896516 C6.196352,1.07328948 9.9226146,1.07328948 11.383674,1.54896516" id="Path" stroke-width="0.72" transform="translate(5.794280, 1.370587) scale(-1, 1) translate(-5.794280, -1.370587) "></path>
                    <path d="M0.207619459,5.12668347 C6.19803449,4.6399159 9.92309768,4.63311378 11.3828091,5.10627711" id="Path" stroke-width="0.719999998" transform="translate(5.795214, 4.941559) scale(-1, 1) rotate(10.000000) translate(-5.795214, -4.941559) "></path>
                </g>
                <path d="M21.2231928,29.8982875 C20.7999879,30.1838602 20.4536282,30.2589718 20.1558998,30.2604591 C19.8585427,30.2615746 19.6012787,30.1753079 19.4193749,30.0871819 C19.4167762,30.0860664 19.4152913,30.0849509 19.4130639,30.0838354 L19.3915324,28.8534185 C20.5130253,27.8873795 22.4976334,25.8084248 18.7919922,25.8084248 C15.1472332,25.8084248 17.0078496,27.8204483 18.1367671,28.805823 L18.1582986,30.0749112 C17.976766,30.16564 17.7046527,30.2645494 17.3965298,30.2612028 C17.0980591,30.2593436 16.7520705,30.1834883 16.3318355,29.8982875 C16.0452442,29.7019562 15.655079,29.7763241 15.4598108,30.0618968 C15.2645426,30.3485851 15.3373041,30.7386447 15.6238955,30.9346041 C16.2308603,31.3536673 16.8511895,31.5165329 17.3831655,31.5165329 L17.3961586,31.5165329 C17.9994112,31.511699 18.4664215,31.3321006 18.7764005,31.1670038 C19.0860082,31.3321006 19.5526473,31.511699 20.1551573,31.5165329 L20.1681505,31.5165329 C20.7012401,31.5165329 21.3200844,31.3529236 21.928163,30.934976 C22.2143831,30.7397602 22.2882584,30.3489569 22.0918765,30.0622687 C21.8980931,29.7763241 21.5086705,29.7015844 21.2231928,29.8982875 L21.2231928,29.8982875 Z" id="Path" fill="#FF6150" fill-rule="nonzero"></path>
            </g>
        </g>
    </g>
</svg>