<?xml version="1.0" encoding="UTF-8"?>
<svg width="76px" height="28px" viewBox="0 0 76 28" version="1.1" xmlns="http://www.w3.org/2000/svg" xmlns:xlink="http://www.w3.org/1999/xlink">
    <!-- Generator: Sketch 62 (91390) - https://sketch.com -->
    <title>NHS</title>
    <desc>Created with Sketch.</desc>
    <g id="UI-Design-(Teal)" stroke="none" stroke-width="1" fill="none" fill-rule="evenodd">
        <g id="Homepage-Teal" transform="translate(-1201.000000, -848.000000)" fill="#FFFFFF" fill-rule="nonzero">
            <g id="NHS" transform="translate(1201.000000, 848.000000)">
                <polyline id="Path" points="5.89500002 0.981000033 14.7028499 0.981000033 20.1104999 19.2779999 20.1851999 19.2779999 23.8886999 0.981000033 30.5446498 0.981000033 24.9493499 27.3698999 16.1774999 27.3698999 10.6578 9.10889998 10.5817499 9.10889998 6.9156 27.3698999 0.26055004 27.3698999"></polyline>
                <polyline id="Path" points="33.1483498 0.981000033 40.2182998 0.981000033 38.1383998 11.0754 46.4939997 11.0754 48.5725497 0.981000033 55.6415997 0.981000033 50.1605997 27.3698999 43.0901998 27.3698999 45.4360498 16.0654499 37.0790998 16.0654499 34.7372998 27.3698999 27.6659998 27.3698999"></polyline>
                <path d="M74.2409996,6.95429997 C72.8797494,6.31169999 71.0270992,5.74335001 68.4179995,5.74335001 C65.6221496,5.74335001 63.3545996,6.16095002 63.3545996,8.27684998 C63.3545996,12.0199499 73.5983996,10.62045 73.5983996,18.6362999 C73.5983996,25.9330499 66.8317496,27.8225999 60.7067997,27.8225999 C57.9842996,27.8225999 54.8464497,27.1799998 52.5401997,26.4613498 L54.2060997,21.0946499 C55.6046997,22.0009499 58.4005496,22.6061999 60.7067997,22.6061999 C62.8996496,22.6061999 66.3412494,22.1903999 66.3412494,19.4683499 C66.3412494,15.2329499 56.0942997,16.821 56.0942997,9.37304995 C56.0942997,2.56905003 62.0680497,0.52650004 67.8514498,0.52650004 C71.1044995,0.52650004 74.1667496,0.865800033 75.9419996,1.69875003" id="Path"></path>
            </g>
        </g>
    </g>
</svg>