<?xml version="1.0" encoding="UTF-8"?>
<svg width="460px" height="366px" viewBox="0 0 460 366" version="1.1" xmlns="http://www.w3.org/2000/svg" xmlns:xlink="http://www.w3.org/1999/xlink">
    <!-- Generator: Sketch 62 (91390) - https://sketch.com -->
    <title>partner-logos</title>
    <desc>Created with Sketch.</desc>
    <defs>
        <polygon id="path-1" points="0 0 33 0 33 32.99775 0 32.99775"></polygon>
        <polygon id="path-3" points="0 0 33 0 33 32.99775 0 32.99775"></polygon>
        <polygon id="path-5" points="197.4525 21.421875 0.0628125 21.421875 0.0628125 0.238125 197.4525 0.238125"></polygon>
    </defs>
    <g id="UI-Design-(Teal)" stroke="none" stroke-width="1" fill="none" fill-rule="evenodd">
        <g id="Partners-Teal-v1" transform="translate(-837.000000, -269.000000)">
            <g id="logos" transform="translate(790.000000, 185.000000)">
                <g id="partner-logos" transform="translate(47.279909, 84.000000)">
                    <g id="Capgemini_201x_logo" transform="translate(277.500000, 64.500000)" fill="#FFFFFF" fill-rule="nonzero">
                        <path d="M170.895534,23.4639274 C174.741436,23.4639274 177.711499,20.3351932 177.75,16.6209893 C177.480494,14.9995703 176.911232,12 172.706393,12 C168.097295,12 166.572443,18.4292838 162.822683,22.5790173 C162.521607,24.9356262 160.287129,27.0447901 157.5,27.3993038 C158.182014,28.1125083 159.702797,28.5 161.517835,28.5 C164.837156,28.5 168.854991,27.500986 170.960106,25.4233711 C168.150976,25.4618454 166.346938,23.6577282 166.169504,21.1623917 C167.539033,22.8208561 169.085996,23.4639274 170.895534,23.4639274" id="path3676"></path>
                        <path d="M140.877625,13.3840793 C140.877625,11.3046951 140.752212,9.91843898 139.396304,9.91843898 C138.776263,9.91843898 138.47661,10.0442082 137.937391,10.2230799 C138.416746,17.2437964 136.832309,23.4288464 134.900951,23.4288464 C132.369061,23.4288464 133.63155,8.37846494 128.270793,8.37846494 C123.322616,8.37846494 122.609156,20.3936163 122.048979,20.3936163 C121.667166,20.3936163 121.60864,17.2382067 121.629487,14.8303692 C121.83717,13.6788823 121.951435,12.6419851 121.951435,11.8552847 C121.951435,10.7373362 121.494375,8.8046269 118.962374,9.7703108 C119.050442,18.3630865 117.334794,23.5531623 115.402099,23.5531623 C112.571893,23.5531623 112.539899,15.7638562 112.539899,13.6188485 C112.539899,11.5226951 112.691732,8.7222341 109.584281,9.71575492 C109.121647,17.210258 107.161082,22.865624 105.926463,22.865624 C104.085625,22.865624 104.45629,9.91843898 100.476523,9.91843898 C96.8952898,9.91843898 95.7903192,22.1836754 95.0447538,22.1836754 C93.7112531,22.1836754 95.4642458,8.37846494 90.2930011,8.37846494 C87.5827462,8.37846494 86.5041959,12.9857542 85.4423672,18.143745 C85.2361328,19.1428555 85.0243245,19.176394 84.9853072,18.0464835 C84.9585524,17.0863893 84.9529785,16.1193639 84.9641263,15.1593815 C86.2642951,9.97344204 84.6757326,8.05761372 82.2802918,9.4382801 C83.0537266,19.0079192 78.6711892,23.6850802 75.3129124,23.6850802 C74.0992506,23.6850802 73.1405392,23.1666875 72.4284173,22.3477903 C76.4555626,19.870081 78.2462348,17.0263555 78.2462348,14.2468001 C78.2462348,11.2395187 76.5211117,9.50390368 73.657463,9.50390368 C69.6624234,9.50390368 67.4258389,13.6305869 67.4258389,17.1409452 C67.4258389,19.0288248 67.7797817,20.6345342 68.3566808,21.955055 C66.9841627,22.6105082 65.6895679,23.177867 64.4856047,23.7284566 C64.3763562,20.1202779 63.9742548,16.3332274 63.6649032,12.8340486 C61.535672,12.2443308 60.9155195,13.2700485 60.7525386,15.1691076 C60.3707262,19.5039529 58.7710159,22.1954139 57.3552444,22.1954139 C56.2934158,22.1954139 55.6412691,20.8957988 55.5645721,19.5151324 C55.1674873,12.565741 60.7901067,10.6330317 63.734577,11.6434335 C64.3449194,10.1090492 63.6743788,9.0064166 61.0186368,9.0064166 C57.8011567,9.0064166 55.3960173,10.9670747 53.6318768,13.4824588 C52.4571209,15.1593815 51.0957507,16.3485433 49.2883568,17.7851071 C49.3374071,17.3757144 49.3597027,16.9606201 49.3597027,16.5512274 C49.3597027,11.654613 46.7134363,9.50390368 44.188458,9.50390368 C42.0982442,9.50390368 40.7814652,10.7588009 40.0191781,12.6915102 C39.8339016,10.7532111 39.447853,9.91899795 38.3261607,9.91899795 C37.846805,9.91899795 37.1779366,10.0544933 36.4644769,10.4038522 C36.7905503,11.4854674 36.9159631,13.8821253 36.9159631,15.4541845 C36.9159631,21.3429782 35.233982,23.9855848 33.6175499,23.9855848 C31.767014,23.9855848 31.4730463,16.9984067 31.3155278,14.2803386 C31.027134,14.1707796 30.7219071,14.1113048 30.4112177,14.1113048 C28.7348104,14.1113048 28.5174282,16.3653125 28.1036216,18.439107 C27.6465615,20.7379444 26.3296711,23.6250464 24.3746801,23.6250464 C23.1943503,23.6250464 22.4530212,22.4847389 22.3610518,20.4318501 C22.1702013,16.267492 25.6273592,11.3317495 31.0327079,12.8661338 C31.7391445,11.2074336 30.6285999,9.94549333 28.3864415,9.94549333 C24.4345439,9.94549333 21.1682364,12.9095102 19.7427663,16.4198684 C18.2948891,19.6409016 15.7629992,24.3684821 10.6140501,24.3684821 C6.97852722,24.3684821 4.19157546,21.1851238 4.19157546,14.509518 C4.19157546,8.75633153 7.81037659,3.29090496 11.6703048,3.29090496 C14.3695233,3.29090496 14.9965875,5.95587057 14.7569096,8.45582697 C16.1559594,9.5793652 18.4468337,8.53072952 18.4468337,5.72110138 C18.4468337,3.7828023 16.8791176,0.496033744 11.8124393,0.496033744 C5.54179785,0.496033744 0,6.76917809 0,15.0056636 C0,22.9863624 4.03829311,27.7027635 9.75433118,27.7027635 C13.3634337,27.7027635 16.7648526,25.6401486 19.111466,21.8292858 C19.7050867,25.1650204 21.9695408,26.5680458 23.6667944,26.5680458 C26.4160666,26.5680458 28.2123127,24.7821231 29.1918705,22.3701492 C29.802213,24.7877128 31.0912339,26.5792253 33.2371868,26.5792253 C34.7449277,26.5792253 35.925146,25.8091824 36.8128459,24.5808924 C36.458903,32.9864117 36.0185646,38.3469746 40.9709779,37.2947615 C40.2045662,34.9036933 39.9593144,30.5520788 39.9593144,26.6435073 C39.9593144,15.95033 41.717881,12.4301338 43.9223598,12.4301338 C45.5220701,12.4301338 46.038994,14.4703898 46.038994,16.6490478 C46.038994,17.817304 45.9247289,19.1601837 45.6307613,20.3662266 C42.9203949,22.0808242 40.7591696,23.4349952 40.7591696,25.153841 C40.7591696,26.5134899 41.7665969,26.6379176 42.6375751,26.6379176 C44.7166411,26.6379176 47.2206615,24.5920718 48.6029896,20.7323547 C49.8111889,19.9958502 51.0248507,19.154594 52.1842226,18.0086968 C52.1463201,18.4014321 52.1240244,18.7940556 52.1240244,19.1979704 C52.1240244,23.0297388 53.7947463,25.3508235 56.467433,25.3508235 C58.5632208,25.3508235 60.1309369,23.8598156 61.2414814,21.628055 C61.3128274,22.9151491 61.3557464,24.1001745 61.3724681,25.1859261 C57.1266029,27.1577636 52.4291399,29.1546432 52.4291399,34.7123005 C52.4291399,37.588223 54.4970581,39.75 57.1920405,39.75 C63.1087391,39.75 64.459073,33.4894885 64.5133628,26.2130972 C66.4405957,25.3774307 67.8716397,24.7331569 69.527089,23.9086699 C70.9415228,25.6890029 72.8686442,26.5792253 74.6327847,26.5792253 C77.9687659,26.5792253 80.4784717,24.8044821 82.4919886,21.2074828 C82.8459315,23.9422084 83.5538173,26.5792253 85.0072683,26.5792253 C87.6520856,26.5792253 88.191305,12.7026897 90.156106,12.7026897 C91.6638469,12.7026897 90.4292273,27.713943 94.4076566,27.713943 C97.8146494,27.713943 98.4515237,14.5039283 100.112547,14.5039283 C101.288641,14.5039283 101.375036,26.5792253 105.087256,26.5792253 C106.91126,26.5792253 108.892783,24.3782083 109.882151,19.770919 C110.350358,22.8396876 111.891543,26.5792253 114.907025,26.5792253 C116.665591,26.5792253 118.178906,24.7933026 119.348088,22.4245933 C119.669925,24.8645159 120.355515,26.5792253 121.689127,26.5792253 C125.156095,26.5792253 125.04183,12.7347748 127.785529,12.7347748 C129.92457,12.7347748 129.266849,26.5792253 134.361397,26.5792253 C136.783258,26.5792253 137.931482,24.5095672 138.61841,21.9062006 C139.553488,25.7323793 141.072377,26.5792253 142.313908,26.5792253 C143.102616,26.5792253 143.70181,26.2997382 144.486393,25.3662512 C140.544194,23.6529951 140.87729,17.4133892 140.87729,13.3846383 M57.4428662,37.1634026 C56.2180566,37.1634026 55.5700346,35.9951464 55.5700346,34.6787621 C55.5700346,31.1250274 58.1717098,29.2427376 61.3724681,27.6217122 C61.2303336,35.3830696 59.428625,37.1634026 57.4428662,37.1634026 M73.3591477,11.9983821 C74.5506253,11.9983821 75.2306415,13.0953132 75.1108026,14.6730739 C74.9755797,16.5232786 73.6309312,18.6473808 71.2898917,20.3116707 C70.0705446,16.8292611 70.9805401,11.9983821 73.3591477,11.9983821 M111.112646,6.74681912 C112.245486,6.70880887 113.039767,5.73228087 113.045341,4.56961444 C113.056489,3.40694801 112.266444,2.48877692 111.129367,2.53215332 C109.992291,2.57128152 109.067023,3.54803311 109.061449,4.71069954 C109.050301,5.87336597 109.975569,6.78449398 111.112646,6.74681912 M139.352828,7.33653695 C140.386787,7.2985267 141.231233,6.37085304 141.231233,5.2627425 C141.231233,4.15452017 140.403509,3.28676855 139.369549,3.31885367 C138.334141,3.35686392 137.491144,4.29012732 137.48557,5.39823786 C137.474422,6.5064602 138.318869,7.37421181 139.352828,7.33653695 M177.744426,16.5512274 C177.656358,12.1618262 175.577627,8.46141671 172.365609,5.50723784 C169.927026,3.27558907 167.031384,1.57764891 163.995055,0.300392759 C163.755377,0.197541498 163.504552,0.0978204926 163.2593,0 C159.520548,4.49269959 146.576607,7.84375018 146.576607,17.2611246 C146.576607,20.9391752 148.895351,24.383798 152.29677,25.7659178 C154.272718,26.5134899 156.243093,26.5512766 158.219042,25.8846439 C159.977609,25.3061055 161.419912,24.2147642 162.622426,22.8885419 C166.42249,18.6682864 167.967799,12.1353308 172.633157,12.1353308 C176.89998,12.1353308 177.476879,15.1802871 177.75,16.8292611 C177.75,16.8180817 177.75,16.7090817 177.738852,16.5512274" id="path3678"></path>
                    </g>
                    <g id="logo-color-ddaacb3d" transform="translate(244.500000, 114.000000)">
                        <g id="Clipped">
                            <mask id="mask-2" fill="white">
                                <use xlink:href="#path-1"></use>
                            </mask>
                            <g id="a"></g>
                            <path d="M17.6996967,17.47383 L33,0.56529 L32.43603,0 L15.5682267,15.2953533 C16.4331933,15.84957 17.1635933,16.5957734 17.6996967,17.47383" id="Path" fill="#FFFFFF" fill-rule="nonzero" mask="url(#mask-2)"></path>
                        </g>
                        <g id="Clipped">
                            <mask id="mask-4" fill="white">
                                <use xlink:href="#path-3"></use>
                            </mask>
                            <g id="a"></g>
                            <path d="M11.9802466,24.0410133 C10.3268367,24.0410133 8.98644997,22.6982067 8.98644997,21.04157 C8.98644997,19.3878667 10.3268367,18.0450967 11.9802466,18.0450967 C13.63395,18.0450967 14.97342,19.3878667 14.97342,21.04157 C14.97342,22.6982067 13.63395,24.0410133 11.9802466,24.0410133 Z M13.5324567,16.0852267 L12.3454833,0.0334033333 L11.5466633,0.0334033333 L10.3569767,16.1090967 C10.0958733,16.1950433 9.84312998,16.30189 9.60204668,16.4257133 L1.25477,9.74094 L0.68992,10.30667 L7.36794667,18.66216 C7.23664334,18.9181667 7.12385667,19.1849534 7.03556333,19.4636567 L0,20.6375767 L0,21.4372034 L7.03197,22.6099133 C7.12327,22.90002 7.24027334,23.1780267 7.37869,23.44364 L3.28416,29.1824133 L3.84842333,29.74752 L9.58085333,25.64881 C9.8348067,25.78191 10.1015567,25.8946967 10.3790866,25.9848233 L11.5466633,33 L12.3454833,33 L13.5082934,26.00862 C13.8043034,25.9173933 14.08748,25.79918 14.35874,25.66014 L22.70598,32.3453534 L23.26995,31.7801733 L16.5928034,23.4239133 C16.7232267,23.1679067 16.8353534,22.9011567 16.9237567,22.62425 L32.9313967,21.4372034 L32.9313967,20.6375767 L16.9195034,19.4505667 C16.4056933,17.84992 15.1375767,16.58866 13.5324567,16.0852267 Z" id="Shape" fill="#FFFFFF" fill-rule="nonzero" mask="url(#mask-4)"></path>
                        </g>
                    </g>
                    <g id="pearson_logo_white_bg" transform="translate(312.750000, 267.000000)" fill="#FFFFFF" fill-rule="nonzero">
                        <path d="M91.3038863,30.9384789 C91.2494348,30.797664 91.0993245,30.7163688 90.9521572,30.7497579 L90.9065355,30.7628232 C90.470922,30.855732 90.135381,30.8296014 89.899914,30.6728178 C89.5658453,30.4507077 89.4039615,29.9484195 89.4039615,29.1383709 L89.4039615,21.8174476 C89.4039615,18.9575986 87.6762218,17.5073503 84.2648933,17.5073503 C81.2111798,17.5073503 78.8182455,18.9329197 78.8182455,20.7533515 C78.8182455,21.689698 79.3966118,22.3661902 80.25018,22.4678092 C80.8079422,22.5345875 81.3406868,22.284895 81.726264,21.8827741 C82.4768153,21.1017595 82.3811565,20.1712198 81.4701938,19.1739019 C82.0088243,18.6179008 82.9624658,18.2898166 84.0500295,18.2898166 C85.8219188,18.2898166 86.5783568,19.3263304 86.5783568,21.7564762 L86.5783568,23.6073937 C86.1633465,23.7336916 85.7748255,23.852731 85.0625378,24.0182248 C83.6276603,24.3506642 81.6585668,24.7934327 80.173653,25.6020296 C78.9477525,26.2654565 78.3252368,27.3121322 78.3252368,28.7130228 C78.3252368,30.2387595 79.340688,32.0199955 82.2016133,32.0199955 C83.8042605,32.0199955 85.239138,31.2709182 86.712279,29.6624346 C86.8403138,31.3333413 87.481962,31.9604758 89.0389875,31.9604758 C89.7880673,31.9604758 90.3870368,31.7877234 91.0993245,31.4480256 C91.2921128,31.3551168 91.3833563,31.1344584 91.3038863,30.9384789 L91.3038863,30.9384789 Z M86.5783568,28.7014092 C86.231043,29.1790185 85.0949145,30.6002328 83.6791688,30.6002328 C81.7674705,30.6002328 81.3657053,29.2762824 81.3657053,28.1657319 C81.3657053,26.3394932 82.784394,25.4946038 86.5783568,24.5698709 L86.5783568,28.7014092 Z M123.240578,32.0824186 C119.187601,32.0824186 116.130944,28.9496499 116.130944,24.7948844 C116.130944,20.7272209 119.320052,17.4173449 123.240578,17.4173449 C127.20967,17.4173449 130.320778,20.6038264 130.320778,24.6743933 C130.320778,29.2501518 126.64602,32.0824186 123.240578,32.0824186 Z M123.087524,18.1983595 C121.336238,18.1983595 119.324466,18.9416299 119.324466,24.733913 C119.324466,29.1528879 120.646025,31.2999522 123.364198,31.2999522 C125.964638,31.2999522 127.125785,29.2762824 127.125785,24.733913 C127.125785,20.3367136 125.804225,18.1983595 123.087524,18.1983595 Z M60.5813221,17.6786509 C60.5813221,21.0494984 59.7395274,22.9047709 55.4334236,22.9047709 L53.1508648,22.9047709 L53.1508648,12.7225469 L55.5261387,12.7225469 C59.9808811,12.7225469 60.5813221,15.2281812 60.5813221,17.6786509 Z M53.1508648,29.1383709 L53.1508648,23.8411174 L55.2185599,23.8411174 C58.3031783,23.8411174 60.6490189,23.1980143 62.1927998,21.9277769 C63.8072208,20.5994713 64.1457046,18.916951 64.1457046,17.7396223 C64.1457046,12.8967509 59.4084018,11.8805609 55.4334236,11.8805609 L55.4496119,11.8791092 L47.3892802,11.8791092 C47.2067933,11.8791092 47.0581547,12.0271826 47.0581547,12.2057417 L47.0581547,12.2275172 L47.0581547,12.2217104 C47.0581547,12.3872042 47.1596999,12.5352776 47.3186401,12.5918939 C48.0368146,12.8531999 49.9867762,12.4873715 49.9867762,14.5502373 L49.9867762,29.1354675 C49.9867762,30.1966602 49.5099553,30.9457374 47.3304134,31.1489754 C47.1567565,31.1649441 47.0272496,31.3043073 47.0272496,31.4727045 L47.0272496,31.523514 C47.0272496,31.7035248 47.1744165,31.8486948 47.3569035,31.8486948 L55.9691111,31.8486948 C56.1515981,31.8486948 56.3002367,31.7035248 56.3002367,31.523514 L56.3002367,31.4785113 C56.3002367,31.3101141 56.1648431,31.1678475 55.9911862,31.1533305 C53.6232706,30.9660612 53.1479214,30.2431146 53.1479214,29.1354675 L53.1479214,23.8512793 L53.1508648,29.1383709 Z M70.6637272,17.4100864 C66.915386,17.4100864 63.8646159,20.7577066 63.8646159,24.8732762 C63.8646159,29.0396553 66.724069,32.0635465 70.6637272,32.0635465 C73.973511,32.0635465 75.5849888,30.1124616 76.507725,28.6462446 C76.5989685,28.5010746 76.5592335,28.3094502 76.4179538,28.2092829 L76.3738035,28.1787972 C76.2310515,28.0786298 76.0323758,28.1076638 75.9220013,28.2441237 C74.7049306,29.7495366 73.6394421,30.6205566 71.7998558,30.6205566 C69.4731469,30.6205566 66.9874977,29.0396553 66.9874977,24.6003566 L66.9874977,24.5684192 C66.9830828,24.3724397 66.9874977,24.1038752 66.9948561,23.852731 L76.5150833,23.852731 C76.5415733,23.852731 76.5621773,23.8324072 76.5636488,23.8062767 L76.5695355,23.7307882 C76.7049285,21.9118081 76.182486,20.2757422 75.0993375,19.1274475 C74.0412078,18.0038317 72.5077286,17.4100864 70.6637272,17.4100864 Z M67.0478362,22.9178363 C67.3613017,19.8808798 68.5621837,18.2157799 70.4488635,18.2157799 C71.3922034,18.2157799 72.0927178,18.4741825 72.5871987,19.0055047 C73.2671098,19.7328064 73.555557,21.0494984 73.4422385,22.9178363 L67.0478362,22.9178363 Z M110.123591,23.0804266 L110.120648,23.0804266 C107.517265,22.3589317 106.503285,21.6301784 106.503285,20.4789802 C106.503285,19.1680951 107.558472,18.2157799 109.012481,18.2157799 C110.72256,18.2157799 111.455452,19.0229251 113.261189,22.0003619 L113.284736,22.0395578 C113.293566,22.0555265 113.309755,22.0642366 113.309755,22.0642366 L113.574655,22.0642366 C113.757142,22.0642366 113.90578,21.917615 113.90578,21.7376042 L113.90578,17.4579925 C113.90578,17.4318619 113.883706,17.4100864 113.883706,17.4100864 L113.529033,17.4100864 C113.430431,17.4100864 113.336245,17.4536374 113.274434,17.5291258 L112.69754,18.220135 C111.970536,17.8252726 110.785842,17.4100864 109.596733,17.4100864 C106.606302,17.4100864 104.518004,19.2319699 104.518004,21.8421265 C104.518004,24.2925962 106.164801,25.2100706 109.008066,25.967858 C111.770389,26.7140318 112.75052,27.4906913 112.75052,28.9322295 C112.75052,30.536358 111.175835,31.2564012 110.057366,31.2564012 C107.976426,31.2564012 107.097839,30.4942587 105.103728,26.9608208 L105.080181,26.9187215 C105.071351,26.9027528 105.055163,26.8925909 105.055163,26.8925909 L104.787319,26.8925909 C104.604832,26.8925909 104.456193,27.0406643 104.456193,27.2192234 L104.456193,32.0141887 C104.456193,32.041771 104.478269,32.0635465 104.50623,32.0635465 L104.844714,32.0635465 C104.931542,32.0635465 105.016899,32.0287057 105.07871,31.9677343 L105.989672,31.0691319 C107.056633,31.7223969 108.651922,32.0635465 109.687977,32.0635465 C111.243531,32.0635465 112.522412,31.5772269 113.386282,30.6583008 C114.157436,29.8380903 114.581277,28.6767303 114.581277,27.3876206 C114.581277,25.154906 113.373037,23.9877392 110.123591,23.0804266 Z M94.3693732,30.1284303 C94.3693732,30.8673456 94.179528,31.1097795 92.9860043,31.1838162 C92.812347,31.1954298 92.676954,31.3376964 92.676954,31.508997 C92.676954,31.6890078 92.825592,31.8341778 93.008079,31.8341778 L98.8991708,31.8341778 C99.078714,31.8341778 99.2244098,31.6904595 99.2244098,31.5148038 C99.2244098,31.3405998 99.0875445,31.1968815 98.9109443,31.189623 C97.5481785,31.1242965 97.194978,30.9065415 97.194978,30.1284303 L97.194978,21.6069512 C98.1648075,20.0158879 98.8609072,19.1826121 100.038242,18.931468 C99.9808477,19.1332543 99.9440557,19.3727848 99.9440557,19.5687643 C99.9440557,20.6038264 100.676954,21.326773 101.726247,21.326773 C102.756416,21.326773 103.477533,20.6038264 103.477533,19.5687643 C103.477533,18.5903185 102.85796,17.4463789 101.109618,17.4463789 C99.6776835,17.4463789 98.3090318,18.2564275 97.1331675,20.194447 L97.1331675,18.00238 C97.1331675,17.7788182 96.946266,17.5988074 96.7196287,17.6046142 L93.008079,17.7033298 C92.8270643,17.7091366 92.6872552,17.8514032 92.6872552,18.0285106 L92.6872552,18.074965 C92.6872552,18.2361037 92.8049888,18.3740152 92.9624572,18.3957907 C94.2001312,18.568543 94.3708448,19.149223 94.3693732,19.7516785 L94.3693732,30.1284303 Z M135.115476,17.595904 C135.200833,17.595904 135.283246,17.6292931 135.343585,17.6888128 C135.40981,17.7497842 135.44513,17.8310794 135.446602,17.9210848 L135.458374,20.3512306 C135.458374,20.3512306 136.668087,17.5000918 140.591557,17.5000918 L140.626877,17.5000918 C143.072791,17.5000918 144.475291,19.0388938 144.475291,21.7216355 L144.475291,30.115365 C144.475291,30.8542803 144.666608,31.0967142 145.858661,31.1707509 C146.032317,31.1809128 146.167711,31.3231794 146.167711,31.4959317 C146.167711,31.6744908 146.019072,31.8211125 145.838057,31.8211125 L140.544464,31.8211125 C140.361976,31.8211125 140.213338,31.6744908 140.213338,31.49448 C140.213338,31.320276 140.347259,31.1780094 140.51503,31.1634924 C141.477502,31.0821972 141.630555,30.8426667 141.630555,30.115365 L141.630555,22.5403942 C141.630555,20.0376634 140.909437,19.0650244 139.059549,19.0650244 C137.80863,19.0650244 136.78582,20.1407341 136.147116,21.0436915 C136.147116,21.0436915 135.820405,21.4472641 135.467205,22.207955 L135.505469,30.1139133 C135.505469,30.841215 135.655579,31.0807455 136.590089,31.1620407 C136.757858,31.1765577 136.890309,31.320276 136.890309,31.4872215 C136.890309,31.6744908 136.74167,31.8211125 136.560655,31.8211125 L131.299438,31.8211125 C131.118422,31.8211125 130.969784,31.6744908 130.969784,31.49448 C130.969784,31.3231794 131.10665,31.1809128 131.278834,31.1692992 C132.470887,31.0952625 132.660732,30.8542803 132.660732,30.115365 L132.660732,19.7531302 C132.660732,19.149223 132.490018,18.5656396 131.246458,18.3914356 C131.088989,18.3696601 130.969784,18.2302969 130.969784,18.0691582 L130.969784,18.0212521 C130.969784,17.842693 131.111064,17.7004264 131.292079,17.6946196 L135.115476,17.595904 Z" id="wordmark"></path>
                        <path d="M31.7071742,2.83937315 C41.0360846,8.08291365 43.2082682,19.8387805 36.7167358,31.7340105 C31.0125464,42.1891541 18.556339,46.6545834 9.2745219,41.3326511 C-0.00876682507,36.0078154 -1.8203915,21.1554724 2.16930346,12.6093143 C7.96179308,0.197279102 21.3996038,-2.95581336 31.7071742,2.83937315 Z M18.4400771,33.3541078 C17.8337495,33.3541078 17.2377235,33.6836437 16.8492029,34.2367414 C16.5254357,34.6954786 16.3915137,35.2456729 16.4768705,35.7769951 C16.532794,36.1181446 16.6608292,36.4128397 16.8521462,36.6320464 C17.0655382,36.8788354 17.3922488,37.0690081 17.7984294,37.1836924 C18.0324248,37.2475672 18.2723069,37.282408 18.512189,37.282408 L18.5136606,37.282408 C19.0375748,37.282408 19.5085089,37.1256244 19.8749546,36.8352844 C20.3002669,36.4912315 20.5313189,36.004912 20.5269039,35.4605245 C20.5210172,34.829035 20.2119668,34.2120625 19.6968826,33.8172001 C19.4128505,33.5994451 19.0949699,33.44992 18.7726744,33.3874969 C18.6637709,33.3657214 18.5504523,33.3541078 18.4400771,33.3541078 Z M31.4643488,11.8326548 C27.9558896,7.92322665 23.0846648,7.67788935 20.0000464,7.75337775 C16.5901891,7.83902805 14.1413317,8.94957855 12.13839,9.98028562 C10.3900471,10.8788879 8.81388953,12.4249484 8.17371345,13.1928978 C7.76606108,13.6821207 7.07290493,14.6925039 7.44523722,15.5983647 C7.75134443,16.3503453 8.900718,16.3009875 9.33338865,15.9801618 C9.76458773,15.6593361 10.2222768,15.1715649 10.8153595,14.6866971 C13.4481755,12.538181 15.7822427,11.1851966 21.2200601,11.1851966 C26.6578775,11.1851966 29.604159,14.5299135 29.604159,17.5160605 C29.604159,20.5022074 28.1736966,22.5302323 25.4702405,23.8541827 C24.1324933,24.5088995 22.7020309,25.0155428 20.9007079,25.0837727 C21.0316865,22.1890828 21.0993833,19.4497249 21.0993833,19.4497249 C21.1376466,17.3665354 21.4952622,15.6709497 20.0809882,15.3907716 C18.6696575,15.1105935 16.0692182,15.3864165 16.0206531,16.9760281 C15.9573713,16.7394009 16.2884969,30.0021324 16.3488353,30.2634384 L16.3488353,30.2634384 L16.372382,30.5682954 C16.4003438,30.9050898 16.5210206,31.2012366 16.7344127,31.4378637 C16.9478047,31.6715874 17.2936469,31.8167574 17.6041691,31.8515982 C17.6527342,31.8559533 17.7012992,31.8603084 17.7498644,31.8603084 C18.0456698,31.8603084 18.4621522,31.8080472 18.8815779,31.6919112 C19.4113787,31.5423861 19.944123,31.2883386 20.2517018,30.8920245 C20.4076988,30.6916899 20.535734,30.4971621 20.601959,30.1385922 C20.6475808,29.8947066 20.7373526,28.3544529 20.7608993,27.9073292 C23.6203524,27.8811986 26.5268989,27.3527798 28.7388176,26.0230226 C31.5276305,24.3492124 33.2053334,21.8232544 33.5688356,19.0940584 C33.8852444,16.700205 33.3171802,13.782288 31.4908388,11.8587854 L31.4908388,11.8587854 Z" id="Combined-Shape"></path>
                    </g>
                    <g id="big-radical-logo-horizontal-white" transform="translate(0.000000, 243.000000)" fill="#FFFFFF" fill-rule="nonzero">
                        <path d="M0,0.00015 L0,30.000165 L30.00021,30.000165 L30.00021,22.4993625 L22.499895,22.4993625 L22.499895,14.9991 L30.00021,14.9991 L30.00021,0.00015 L0,0.00015 L0,0.00015 Z M30.00021,22.500225 L37.5,22.500225 L37.5,14.99994 L30.00021,14.99994 L30.00021,22.500225 L30.00021,22.500225 Z M185.076135,20.135265 L185.076135,22.502835 L183.628935,22.502835 C180.872385,22.502835 179.954055,20.22516 179.954055,18.06417 L179.954055,1.045335 L182.471828,1.045335 L182.471828,17.619435 C182.471828,18.62556 182.471828,20.135265 184.311675,20.135265 L185.076135,20.135265 Z M173.072775,17.05044 C173.072775,19.135515 171.906345,20.62122 169.42647,20.62122 C167.721525,20.62122 166.82652,20.08767 166.37523,19.283325 L166.37523,17.05044 C167.604128,15.8894925 171.401205,16.21749 173.072775,14.968065 L173.072775,17.05044 Z M177.051345,20.413515 C176.212335,20.413515 175.556415,19.75752 175.556415,18.92619 L175.556415,12.468165 C175.556415,9.195165 173.134163,7.319955 169.487865,7.319955 C167.004218,7.319955 164.85177,8.74794 163.68534,10.7709675 L165.956805,12.080265 C165.956805,12.080265 167.004217,9.78858 169.695727,9.78858 C171.906352,9.78858 173.072775,11.0396175 173.072775,11.93298 C173.072775,12.944505 171.996825,13.2708825 168.82818,13.77798 C167.27403,14.0747025 164.913705,14.49171 164.015452,15.68178 L164.015452,20.621205 C165.451673,22.1398275 166.884667,23.092005 169.426477,23.092005 C171.131422,23.092005 172.654882,22.287645 173.641987,21.1283175 C174.149272,22.0513575 174.986137,22.6463925 176.3028,22.6463925 L177.138045,22.6463925 L177.138045,20.413515 L177.051345,20.413515 L177.051345,20.413515 Z M154.960387,20.5512525 C152.821935,20.29878 151.194532,18.0448575 151.194532,15.2347275 C151.194532,12.225555 153.017962,9.87075 155.348122,9.87075 C158.007862,9.87075 159.143047,12.82167 159.143047,12.82167 L161.413447,11.5393425 C161.413447,11.5393425 159.649807,7.3368375 155.348122,7.3368375 C151.55481,7.3368375 148.505722,10.8245325 148.505722,15.2347275 C148.505722,19.4609625 151.350172,22.8526275 154.960395,23.08893 L154.960395,20.551245 L154.960387,20.5512525 Z M141.93435,22.5 L144.750255,22.5 L144.750255,7.6281 L141.93435,7.6281 L141.93435,22.5 Z M141.371055,3.0291 C141.371055,1.93395 142.255837,1.0459875 143.380268,1.0459875 C144.472373,1.0459875 145.360928,1.9339575 145.360928,3.0290925 C145.360928,4.1544225 144.472373,5.04294 143.380253,5.04294 C142.255838,5.04294 141.371055,4.154415 141.371055,3.029085 L141.371055,3.0291 Z M135.430725,1.045395 L135.430725,9.396975 C134.41455,8.116275 132.977775,7.343205 131.15598,7.343205 C127.434285,7.343205 124.86393,10.543905 124.64853,14.67897 L127.336807,14.67897 C127.524757,11.94708 129.074077,9.8727975 131.454322,9.8727975 C133.963275,9.8727975 135.430732,11.9271225 135.430732,15.2292375 C135.430732,18.8016375 134.175457,20.5889025 131.454322,20.5889025 C131.392935,20.5889025 131.138212,20.567325 131.138212,20.567325 L131.138212,23.10285 C131.138212,23.10285 131.379465,23.099625 131.430637,23.09745 C133.125338,23.01492 134.495872,22.18629 135.430732,20.9438775 L135.730147,22.5 L137.94345,22.5 L137.94345,1.045395 L135.430725,1.045395 Z M118.653052,17.05044 C118.653052,19.135515 117.48609,20.62122 115.006755,20.62122 C113.30127,20.62122 112.40625,20.08767 111.955515,19.283325 L111.955515,17.05044 C113.18226,15.8894925 116.980965,16.21749 118.653052,14.968065 L118.653052,17.05044 Z M122.631082,20.413515 C121.79262,20.413515 121.136707,19.75752 121.136707,18.92619 L121.136707,12.468165 C121.136707,9.195165 118.714455,7.319955 115.068157,7.319955 C112.58397,7.319955 110.432055,8.74794 109.265085,10.7709675 L111.537097,12.080265 C111.537097,12.080265 112.58397,9.78858 115.27602,9.78858 C117.486097,9.78858 118.65306,11.0396175 118.65306,11.93298 C118.65306,12.944505 117.57711,13.2708825 114.40686,13.77798 C112.85376,14.0747025 110.493983,14.49171 109.595198,15.68178 L109.595198,20.621205 C111.029813,22.1398275 112.46496,23.092005 115.006763,23.092005 C116.711168,23.092005 118.234635,22.287645 119.22174,21.1283175 C119.72904,22.0513575 120.636967,22.67499 121.953645,22.67499 L122.6898,22.67499 L122.6898,20.413515 L122.631097,20.413515 L122.631082,20.413515 Z M106.07307,7.6281 L106.07307,10.06437 L105.385395,10.06437 C102.46017,10.06437 100.729905,11.90289 100.729905,14.8511175 L100.729905,22.5 L98.2818,22.5 L98.2818,7.6281 L100.43049,7.6281 L100.729905,9.794625 C101.53338,8.59215 102.84951,7.6281 104.638455,7.6281 L106.07307,7.6281 L106.07307,7.6281 Z M77.6316,21.5390775 C77.6316,21.5390775 77.9326275,21.7484025 80.502975,21.7484025 C81.937575,21.7484025 83.25264,22.04403 84.1228875,22.491255 L84.1228875,25.61643 C83.3727375,26.211465 82.1766825,26.71857 80.56275,26.71857 C76.764045,26.71857 76.1991375,24.6933825 76.1991375,23.502765 C76.1991375,22.0148925 77.6316,21.5390775 77.6316,21.5390775 L77.6316,21.5390775 Z M86.66094,7.730175 L82.4760975,7.730175 C81.8018775,7.470675 81.0231825,7.34607 80.1895575,7.31208 L80.1895575,9.483465 C81.9252075,9.6275025 83.283885,10.743675 83.283885,12.521775 C83.283885,14.397525 81.72918,15.55686 79.816905,15.55686 C77.999955,15.55686 76.505025,14.4714375 76.397865,12.7154475 L74.035935,12.7154475 C74.090325,14.5744725 74.86902,15.9431175 76.1081475,16.7474775 C74.941725,17.7298575 74.55561,19.4561775 75.8981325,20.646255 C75.8981325,20.646255 73.7166075,21.688515 73.7166075,24.03846 C73.7166075,26.80704 76.3456425,29.008635 79.9650075,29.008635 C82.9559325,29.008635 85.1967075,28.2636225 86.57316,26.65653 L86.57316,21.568215 C85.345335,20.0210025 83.40345,19.54464 80.5029975,19.54464 L79.7259225,19.54464 C77.5449225,19.54464 77.0069475,18.41553 77.872335,17.52108 C78.4690125,17.6705175 79.1281575,17.7298575 79.81692,17.7298575 C83.133645,17.7298575 85.64637,16.0024725 85.64637,12.5217825 C85.64637,11.5394025 85.435815,10.67517 85.077165,9.9614325 L86.66094,9.9614325 L86.66094,7.7301825 L86.66094,7.730175 Z M68.685585,1.045875 C69.7776975,1.045875 70.66626,1.9338525 70.66626,3.02898 C70.66626,4.154325 69.7776975,5.042835 68.685585,5.042835 C67.5606225,5.042835 66.6763725,4.154325 66.6763725,3.02898 C66.6763725,1.9338525 67.5606225,1.045875 68.685585,1.045875 M67.16202,22.5 L69.94506,22.5 L69.94506,7.6281 L67.16202,7.6281 M51.8217,1.045395 L51.8217,9.35814 C52.838415,8.077965 54.27303,7.3043625 56.096985,7.3043625 C59.816535,7.3043625 62.38686,10.5050625 62.602815,14.6401275 L59.91561,14.6401275 C59.72766,11.9082375 58.178895,9.8345025 55.79649,9.8345025 C53.2875375,9.8345025 51.8216925,11.8888125 51.8216925,15.1925475 C51.8216925,18.7627875 53.0775075,20.55006 55.7964825,20.55006 C55.86003,20.55006 55.91442,20.53011 55.9779675,20.527935 L55.9779675,23.06346 C54.2110875,23.025705 52.78563,22.18575 51.8216925,20.905035 L51.5211975,22.5 L49.308975,22.5 L49.308975,1.045395 L51.8217,1.045395 Z" id="Shape"></path>
                    </g>
                    <g id="f212" transform="translate(205.500000, 0.000000)" fill="#FFFFFF" fill-rule="nonzero">
                        <g id="Group-5">
                            <polyline id="Fill-1" points="11.0776304 0.0163728814 11.0776304 1.88902119 2.25303261 1.88902119 2.25303261 7.23038135 9.99205432 7.23038135 9.99205432 9.10069065 2.25303261 9.10069065 2.25303261 16.8006229 0 16.8006229 0 0.0163728814 11.0776304 0.0163728814"></polyline>
                            <path d="M18.1756957,10.9356229 C17.7615978,11.0245042 17.3375218,11.0905805 16.8931957,11.1478856 C16.4400652,11.2013898 15.9869347,11.2622034 15.5349782,11.3350043 C15.0795,11.4086822 14.6686304,11.5189068 14.3085326,11.6776652 C13.9460869,11.8337923 13.6517282,12.0527797 13.4225218,12.3501229 C13.1930218,12.636356 13.0791522,13.0325212 13.0791522,13.5345254 C13.0791522,13.8619831 13.1454782,14.1441229 13.2793043,14.3663263 C13.4137174,14.5955466 13.5848153,14.7817881 13.7981739,14.9215424 C14.0121196,15.0645127 14.2639239,15.1662585 14.5571087,15.2261949 C14.8502935,15.2899322 15.1399565,15.3177077 15.4390109,15.3177077 C16.1022718,15.3177077 16.6660435,15.2329195 17.1370761,15.0490169 C17.6089891,14.8703771 17.9916848,14.6426186 18.2910326,14.3663263 C18.5939022,14.0964661 18.8131304,13.8008771 18.9563478,13.4740043 C19.0936957,13.1506398 19.1629565,12.8518348 19.1629565,12.5696949 L19.1629565,10.5192839 C18.9120326,10.7131271 18.5833369,10.8528814 18.1756957,10.9356229 Z M20.9766522,17.0546949 C20.4533804,17.0546949 20.0466196,16.9082161 19.7405218,16.6193517 C19.4373587,16.3272712 19.2850435,15.8521652 19.2850435,15.1984195 C18.7306631,15.8521652 18.0908804,16.3272712 17.3568913,16.6193517 C16.6275978,16.9082161 15.8375543,17.0546949 14.9829457,17.0546949 C14.4364891,17.0546949 13.9164457,16.9973898 13.42575,16.8760551 C12.939163,16.7626144 12.50775,16.5687712 12.1414891,16.2892627 C11.7690653,16.0135551 11.4791087,15.6650466 11.2686848,15.2329195 C11.0553261,14.8010848 10.9496739,14.2797839 10.9496739,13.6681398 C10.9496739,12.9796017 11.0682392,12.4141525 11.3003804,11.9764703 C11.5392718,11.537911 11.84625,11.1759534 12.23775,10.9040466 C12.6198587,10.6277542 13.0594892,10.4280635 13.5598696,10.281 C14.0499782,10.1412457 14.5600435,10.0242966 15.0795,9.92956777 C15.626837,9.82109745 16.1498152,9.73601692 16.6472609,9.68163562 C17.1438261,9.62491522 17.5802282,9.5509449 17.9564674,9.44656777 C18.3356413,9.34511437 18.6323478,9.1998051 18.8577392,9.00186863 C19.0778478,8.8015932 19.1864348,8.51916105 19.1864348,8.14258477 C19.1864348,7.70402542 19.0998587,7.3517161 18.9369782,7.08185594 C18.77175,6.82135169 18.5616196,6.61522881 18.2977826,6.47255085 C18.0392282,6.33279661 17.7536739,6.23485169 17.4308478,6.19304237 C17.1024457,6.14597034 16.7837282,6.11673305 16.4717608,6.11673305 C15.6244891,6.11673305 14.9195543,6.27870763 14.3502065,6.60616525 C13.7855543,6.92689831 13.4803369,7.53883477 13.4325,8.44431352 L11.4189457,8.44431352 C11.4482935,7.68823732 11.6064782,7.04677119 11.88675,6.52956356 C12.1731848,6.01206356 12.5461957,5.59075424 13.0210435,5.27265254 C13.4961848,4.94899577 14.0376522,4.71655932 14.6486739,4.57709746 C15.2611631,4.43471186 15.9076957,4.36161865 16.5853369,4.36161865 C17.1370761,4.36161865 17.6800109,4.4031356 18.2241196,4.48266102 C18.7682282,4.56130932 19.2595108,4.72065254 19.6994348,4.9615678 C20.1355435,5.2095 20.4927065,5.54894491 20.7591848,5.98341102 C21.0277174,6.42869491 21.1580218,6.99969915 21.1580218,7.70402542 L21.1580218,13.9540805 C21.1580218,14.4300635 21.1900109,14.7756483 21.2448913,14.9879111 C21.2991848,15.2145 21.4831957,15.3177076 21.801913,15.3177076 C21.9744782,15.3177076 22.1778587,15.2799915 22.4108804,15.2039746 L22.4108804,16.7503348 C22.0695652,16.9558729 21.5885543,17.0546949 20.9766522,17.0546949 Z" id="Fill-3"></path>
                            <path d="M25.4398696,0.0163728814 L25.4398696,6.43483474 L25.4783152,6.43483474 C25.6376739,6.05708898 25.8574891,5.74278814 26.1409891,5.48199152 C26.4212609,5.22616525 26.7429131,5.01273305 27.0977282,4.84754237 C27.4540108,4.68235169 27.8199782,4.56130932 28.2111848,4.48266102 C28.5953478,4.4031356 28.9707065,4.36161865 29.3308043,4.36161865 C30.1366957,4.36161865 30.8061196,4.47359746 31.340837,4.69521611 C31.8761413,4.91361865 32.3125435,5.21534746 32.6432935,5.61180508 C32.9746304,6.00241525 33.2050109,6.46962712 33.33825,7.00847034 C33.4755978,7.55228392 33.5419239,8.14843222 33.5419239,8.80539405 L33.5419239,16.8006229 L31.5251413,16.8006229 L31.5251413,8.56740255 C31.5251413,7.81191105 31.3094348,7.21517797 30.8659892,6.77749576 C30.4231304,6.33952119 29.8203261,6.11673305 29.0505326,6.11673305 C28.4345218,6.11673305 27.9059674,6.21555508 27.4540108,6.40647457 C27.0076304,6.59330085 26.6378478,6.85409746 26.3352718,7.20231356 C26.0394457,7.55228392 25.8131739,7.95166522 25.6599782,8.4118602 C25.5167609,8.88111862 25.4398696,9.3825381 25.4398696,9.9324915 L25.4398696,16.8006229 L23.4233804,16.8006229 L23.4233804,0.0163728814 L25.4398696,0.0163728814" id="Fill-4"></path>
                        </g>
                        <path d="M37.52387,4.66833509 L37.52387,7.24830502 L37.571767,7.24830502 C38.0595518,6.25275398 38.6619365,5.52254609 39.368049,5.04710289 C40.0782753,4.57459815 40.9727433,4.35509501 42.0629128,4.38359809 L42.0629128,6.52485559 C41.2595372,6.52485559 40.5728186,6.62858331 40.0068707,6.85572645 C39.4373967,7.07258497 38.9810535,7.39846044 38.6346088,7.81866053 C38.2861072,8.2467945 38.0369255,8.76014385 37.8779548,9.36693638 C37.7213347,9.97284728 37.6419962,10.671026 37.6419962,11.4529508 L37.6419962,16.885286 L35.6223911,16.885286 L35.6223911,4.66833509 L37.52387,4.66833509" id="Fill-6"></path>
                        <path d="M50.7495951,8.26354372 C50.5647659,7.83540982 50.3249873,7.47162815 50.0185057,7.15838806 C49.7126117,6.84926183 49.3494178,6.60390022 48.9315685,6.42200941 C48.5172453,6.23718013 48.0544375,6.14755702 47.5501973,6.14755702 C47.0336156,6.14755702 46.5608171,6.23718013 46.1435555,6.42200941 C45.7257061,6.60390022 45.370446,6.85572645 45.0689597,7.1751373 C44.7707058,7.48749585 44.5382734,7.85421592 44.3625534,8.27559143 C44.191241,8.69637922 44.0854564,9.14331937 44.057541,9.62170103 L51.0684183,9.62170103 C51.0396214,9.14331937 50.9285475,8.6934408 50.7495951,8.26354372 Z M51.2400244,16.1033612 C50.3288073,16.7994829 49.1736978,17.1406385 47.7888004,17.1406385 C46.8088233,17.1406385 45.9587261,16.9843122 45.2435044,16.6657829 C44.525638,16.3557751 43.9223717,15.9155935 43.4313547,15.3443564 C42.94357,14.7798778 42.5800822,14.1037376 42.333839,13.3156421 C42.0881836,12.5249018 41.9521327,11.6698093 41.9159897,10.7386106 C41.9159897,9.81035032 42.0629128,8.9617224 42.3470621,8.1894945 C42.6306237,7.4172666 43.0287853,6.74788488 43.5430163,6.18281857 C44.0501948,5.61892765 44.6631581,5.17845215 45.3619244,4.8590413 C46.0636292,4.5431566 46.8349756,4.38359809 47.6703805,4.38359809 C48.7593745,4.38359809 49.6591318,4.61015354 50.3764104,5.06061982 C51.0969214,5.50961686 51.6725661,6.08085394 52.1054016,6.77697565 C52.5358864,7.46575123 52.8388418,8.22122992 53.0080972,9.04164855 C53.1676558,9.86147955 53.2343588,10.6428167 53.2093819,11.3794892 L44.057541,11.3794892 C44.0407918,11.9189909 44.101618,12.4261695 44.2450149,12.904845 C44.3898811,13.3832267 44.615555,13.8098914 44.9279135,14.1801376 C45.2435044,14.5500901 45.6487183,14.850107 46.1338585,15.0634394 C46.6284017,15.2911703 47.1990511,15.394898 47.8657882,15.394898 C48.7105961,15.394898 49.4125948,15.2009594 49.9562103,14.8060301 C50.5007074,14.41257 50.8577305,13.8098914 51.0308059,13.0065157 L53.014268,13.0065157 C52.7492187,14.3776023 52.1559432,15.4084149 51.2400244,16.1033612 Z" id="Fill-7"></path>
                        <g id="Group-17" transform="translate(54.000000, 0.000000)">
                            <path d="M2.0378662,4.64492797 L2.0378662,6.57751271 L2.0803706,6.57751271 C2.91345686,5.10424576 4.23402465,4.36161865 6.05086795,4.36161865 C6.8464331,4.36161865 7.51653698,4.47359746 8.05355813,4.69521611 C8.5905792,4.91361865 9.02324475,5.21534746 9.35477903,5.61180509 C9.67898505,6.00241526 9.9146646,6.46962712 10.0486268,7.00847034 C10.1820026,7.55228392 10.2523547,8.14843222 10.2523547,8.80539405 L10.2523547,16.8006229 L8.23735298,16.8006229 L8.23735298,8.56740255 C8.23735298,7.81191105 8.01457133,7.21517797 7.57956075,6.77749577 C7.13751496,6.33952119 6.52838292,6.11673305 5.76183803,6.11673305 C5.15006778,6.11673305 4.6194956,6.21555509 4.17100088,6.40647457 C3.72221303,6.59330085 3.34934683,6.85409746 3.04653961,7.20231356 C2.75545774,7.55228392 2.52827905,7.95166523 2.37936708,8.4118602 C2.23309331,8.88111862 2.16039613,9.3825381 2.16039613,9.9324915 L2.16039613,16.8006229 L0.144514965,16.8006229 L0.144514965,4.64492797 L2.0378662,4.64492797" id="Fill-8"></path>
                            <path d="M14.319,0.0163728814 L14.319,6.43483474 L14.3632632,6.43483474 C14.5159859,6.05708898 14.7358363,5.74278814 15.0187104,5.48199152 C15.3015845,5.22616525 15.6266699,5.01273305 15.9760854,4.84754237 C16.3337086,4.68235169 16.7059885,4.56130932 17.0873556,4.48266102 C17.4728266,4.4031356 17.8480378,4.36161865 18.2080061,4.36161865 C19.0126585,4.36161865 19.6845211,4.47359746 20.2197835,4.69521611 C20.7500625,4.91361865 21.1856594,5.21534746 21.5145554,5.61180508 C21.8478486,6.00241525 22.0773724,6.46962712 22.2142658,7.00847034 C22.3441241,7.55228392 22.4106655,8.14843222 22.4106655,8.80539405 L22.4106655,16.8006229 L20.400647,16.8006229 L20.400647,8.56740255 C20.400647,7.81191105 20.1805035,7.21517797 19.7413891,6.77749576 C19.2949463,6.33952119 18.6943151,6.11673305 17.927184,6.11673305 C17.3133618,6.11673305 16.7819102,6.21555508 16.3360537,6.40647457 C15.8869727,6.59330085 15.5187967,6.85409746 15.2162826,7.20231356 C14.9202174,7.55228392 14.6942113,7.95166522 14.5450061,8.4118602 C14.3955079,8.88111862 14.319,9.3825381 14.319,9.9324915 L14.319,16.8006229 L12.3075158,16.8006229 L12.3075158,0.0163728814 L14.319,0.0163728814" id="Fill-10"></path>
                            <path d="M32.6257922,8.2221102 C32.4449287,7.79612287 32.1995757,7.43416525 31.8947165,7.12249577 C31.588978,6.81491949 31.2260783,6.57078814 30.8095352,6.38980932 C30.395044,6.20590678 29.9403934,6.11673305 29.4312201,6.11673305 C28.9164771,6.11673305 28.4448248,6.20590678 28.0276954,6.38980932 C27.6132042,6.57078814 27.2547016,6.82135169 26.9586365,7.13916102 C26.6631576,7.44995339 26.4242535,7.81483477 26.2518908,8.23409745 C26.0745449,8.65277542 25.9751725,9.09747457 25.9473248,9.57345765 L32.9444287,9.57345765 C32.912184,9.09747457 32.8046038,8.6498517 32.6257922,8.2221102 Z M33.1200158,16.0226186 C32.2028002,16.71525 31.0572333,17.0546949 29.6698309,17.0546949 C28.6934023,17.0546949 27.8494701,16.8991525 27.1336373,16.5822203 C26.4110625,16.2737669 25.8130696,15.8357924 25.3261743,15.2674195 C24.8425035,14.7057712 24.4734481,14.0330212 24.2278019,13.2488771 C23.9859665,12.4621017 23.8464349,11.6112966 23.8153627,10.6847669 C23.8153627,9.76116105 23.9581189,8.9167881 24.2439243,8.14843222 C24.523867,7.38007627 24.9187183,6.71405085 25.4352201,6.1518178 C25.941169,5.59075424 26.5476628,5.15248729 27.2485458,4.83467797 C27.9514806,4.52037712 28.7186118,4.36161865 29.5487667,4.36161865 C30.6383451,4.36161865 31.534162,4.58703814 32.252926,5.03524576 C32.9628961,5.48199152 33.5424217,6.0503644 33.9780184,6.74299576 C34.4109771,7.4283178 34.7038177,8.1800085 34.8735422,8.99631352 C35.0379903,9.81203392 35.1115669,10.5894534 35.0763908,11.3224322 L25.9473248,11.3224322 C25.9314956,11.8592288 25.9945194,12.3638644 26.1346373,12.8401398 C26.2779797,13.3161229 26.5069172,13.7406483 26.8188116,14.1090381 C27.1336373,14.4771356 27.5349375,14.7756483 28.0221259,14.9879111 C28.5110731,15.2145 29.0818045,15.3177076 29.7434076,15.3177076 C30.5902711,15.3177076 31.2893953,15.1247415 31.8311065,14.7317923 C32.3745766,14.3403051 32.7313204,13.7406483 32.9030968,12.9413008 L34.8852676,12.9413008 C34.6117738,14.3055127 34.0260924,15.3311568 33.1200158,16.0226186 Z" id="Fill-11"></path>
                            <path d="M36.426272,16.8003305 L38.4403944,16.8003305 L38.4403944,4.64755932 L36.426272,4.64755932 L36.426272,16.8003305 Z M36.426272,2.45476271 L38.4403944,2.45476271 L38.4403944,0.0163728814 L36.426272,0.0163728814 L36.426272,2.45476271 Z" id="Fill-12"></path>
                            <path d="M45.8235554,4.65369915 L45.8235554,6.41232203 L43.4075467,6.41232203 L43.4075467,13.9660678 C43.4075467,14.1990889 43.4233759,14.3882543 43.4623627,14.5315169 C43.5031083,14.6701017 43.5758054,14.7817881 43.6842649,14.8613135 C43.7950696,14.9408389 43.9486717,14.9879111 44.1427262,15.0142246 C44.3402984,15.0329365 44.5944455,15.0490169 44.9098574,15.0490169 L45.8235554,15.0490169 L45.8235554,16.8006229 L44.293397,16.8006229 C43.7727913,16.8006229 43.3310387,16.7652457 42.9593451,16.6930297 C42.5864788,16.6225678 42.2907069,16.4965551 42.0611831,16.3056356 C41.8325387,16.1182246 41.6636936,15.8521652 41.5590449,15.5080424 C41.4438433,15.1662585 41.3901998,14.7086949 41.3901998,14.1441229 L41.3901998,6.41232203 L39.3153988,6.41232203 L39.3153988,4.65369915 L41.3901998,4.65369915 L41.3901998,1.01365678 L43.4075467,1.01365678 L43.4075467,4.65369915 L45.8235554,4.65369915" id="Fill-13"></path>
                            <path d="M48.6297253,4.0473178 C48.8841655,3.23773729 49.2596699,2.53341102 49.7626875,1.93404661 C50.2686364,1.33029661 50.8982878,0.864254235 51.6589701,0.524809322 C52.4193592,0.188580508 53.3008125,0.0163728814 54.2910184,0.0163728814 C55.0449586,0.0163728814 55.7631364,0.137415254 56.4481901,0.369266949 C57.1297262,0.609597458 57.7312368,0.942902542 58.2494974,1.38146186 C58.7651197,1.82031356 59.1825422,2.36208051 59.4906259,3.00354661 C59.7963644,3.64442797 59.9490871,4.36863559 59.9490871,5.16447457 C59.9490871,5.99919915 59.8154181,6.70761865 59.5510114,7.30435169 C59.2833802,7.9005 58.9275158,8.43086438 58.4889877,8.89456778 C58.0451831,9.35739405 57.549787,9.77607202 56.9893151,10.1506017 C56.4317746,10.5286398 55.8686646,10.897322 55.3026232,11.2692203 C54.7395132,11.6367331 54.1934049,12.0302669 53.6575564,12.4553771 C53.1161382,12.8775635 52.6459516,13.3731356 52.2420132,13.9347839 L60.0440625,13.9347839 L60.0440625,16.8006229 L47.9335326,16.8006229 C47.9335326,15.8448559 48.072478,15.0142246 48.3465581,14.312822 C48.6168274,13.6011865 48.9955564,12.9725848 49.463691,12.4141525 C49.9376884,11.8618602 50.4884868,11.3449449 51.1245871,10.8786102 C51.763912,10.4081822 52.4354815,9.92956777 53.1457447,9.44364405 C53.5080581,9.19600425 53.8908908,8.93520765 54.2968811,8.67850425 C54.704044,8.41887712 55.0772033,8.13556777 55.4184111,7.8177585 C55.7543424,7.50696607 56.0345783,7.15085593 56.2635158,6.76463135 C56.4962641,6.37109746 56.6050167,5.92347457 56.6050167,5.42234746 C56.6050167,4.62241525 56.3719753,4.00053814 55.9073583,3.55613135 C55.4459656,3.10558474 54.8541285,2.88630508 54.125691,2.88630508 C53.6352781,2.88630508 53.225184,2.99682203 52.887787,3.2225339 C52.5503899,3.45087712 52.2757236,3.75289831 52.0769788,4.11748729 C51.8659225,4.48266102 51.7237526,4.89198305 51.6361056,5.3431144 C51.5508037,5.78664406 51.5100581,6.23075848 51.5100581,6.6693178 L48.3020017,6.6693178 C48.267412,5.72992373 48.3820273,4.85338983 48.6297253,4.0473178" id="Fill-14"></path>
                            <path d="M65.6728177,16.8006229 L65.6728177,6.11673305 L61.5232156,6.11673305 L61.5232156,3.60349576 C62.1059657,3.61899152 62.6655581,3.57542797 63.20639,3.47660593 C63.7504463,3.37515254 64.2408592,3.19388135 64.6711796,2.93659322 C65.1035519,2.67901271 65.4693829,2.3395678 65.7680863,1.91767373 C66.0679621,1.49870339 66.2617236,0.975063562 66.3537676,0.346754237 L69.0116118,0.346754237 L69.0116118,16.8006229 L65.6728177,16.8006229" id="Fill-15"></path>
                            <path d="M71.7521198,4.0473178 C72.0036285,3.23773729 72.3753222,2.53341102 72.8839093,1.93404661 C73.3845819,1.33029661 74.0180441,0.864254235 74.7848821,0.524809322 C75.5414603,0.188580508 76.4202758,0.0163728814 77.4125333,0.0163728814 C78.1638353,0.0163728814 78.88641,0.137415254 79.570878,0.369266949 C80.2515345,0.609597458 80.8492343,0.942902542 81.3715988,1.38146186 C81.8898593,1.82031356 82.3014187,2.36208051 82.6068645,3.00354661 C82.9178798,3.64442797 83.0735333,4.36863559 83.0735333,5.16447457 C83.0735333,5.99919915 82.9345883,6.70761865 82.670181,7.30435169 C82.4028435,7.9005 82.0463925,8.43086438 81.6040537,8.89456778 C81.1684568,9.35739405 80.665146,9.77607202 80.1114165,10.1506017 C79.5509445,10.5286398 78.9916455,10.897322 78.4288282,11.2692203 C77.8583902,11.6367331 77.307885,12.0302669 76.7732085,12.4553771 C76.2420502,12.8775635 75.7671735,13.3731356 75.3561998,13.9347839 L83.16675,13.9347839 L83.16675,16.8006229 L71.0541681,16.8006229 C71.0541681,15.8448559 71.1884234,15.0142246 71.4651417,14.312822 C71.7389287,13.6011865 72.1109155,12.9725848 72.583154,12.4141525 C73.0574446,11.8618602 73.6070705,11.3449449 74.2499129,10.8786102 C74.883375,10.4081822 75.5546513,9.92956777 76.2649148,9.44364405 C76.623417,9.19600425 77.0059568,8.93520765 77.4160507,8.67850425 C77.823507,8.41887712 78.1966665,8.13556777 78.5396332,7.8177585 C78.8761507,7.50696607 79.1528685,7.15085593 79.38591,6.76463135 C79.6122098,6.37109746 79.72917,5.92347457 79.72917,5.42234746 C79.72917,4.62241525 79.494663,4.00053814 79.029753,3.55613135 C78.5683597,3.10558474 77.9703667,2.88630508 77.2507237,2.88630508 C76.760604,2.88630508 76.346406,2.99682203 76.009302,3.2225339 C75.6657488,3.45087712 75.4016355,3.75289831 75.1923383,4.11748729 C74.9853856,4.48266102 74.8446814,4.89198305 74.7555686,5.3431144 C74.6664559,5.78664406 74.6277623,6.23075848 74.6277623,6.6693178 L71.4232236,6.6693178 C71.3851162,5.72992373 71.4973865,4.85338983 71.7521198,4.0473178" id="Fill-16"></path>
                        </g>
                    </g>
                    <g id="Arthur-D-Little-Logo" transform="translate(45.000000, 51.000000)">
                        <polyline id="path35" fill="#FFFFFF" fill-rule="nonzero" points="0.75 21.3496875 6.5371875 0.75 18.0225 0.7584375 23.9025 21.3675 12.2325 21.36 12.2353125 17.1046875 14.7628125 17.1065625 12.328125 6.0075 8.9671875 21.358125 0.75 21.3496875"></polyline>
                        <path d="M24.901875,6.9553125 C24.94125,7.3115625 24.95625,7.51125 24.9825,7.8675 C25.0134375,8.2978125 25.0265625,8.5396875 25.0425,8.968125 L25.0340625,21.365625 L32.0925,21.373125 L32.0953125,15.4884375 C32.0953125,14.664375 32.2321875,13.10625 32.88,12.5475 C34.0340595,11.5565625 35.956872,11.720625 37.2159345,11.7271875 L37.149372,16.843125 C37.147497,18.2109375 37.066872,19.329375 38.0578095,20.3259375 C38.8115595,21.0853125 40.169997,21.37875 40.5984345,21.380625 L56.3803095,21.39 L56.3859345,12.744375 C56.3878095,11.866875 56.538747,10.7653125 57.466872,10.7671875 C58.276872,10.7671875 58.584372,11.3859375 58.5815595,12.1584375 L58.578747,16.4165625 C58.5778095,17.3409375 58.546872,19.2384375 59.6728095,20.37 C60.757497,21.455625 61.9528095,21.8090625 63.564372,21.785625 C65.3446845,21.76125 66.524997,21.238125 67.739997,19.9359375 L68.053122,21.3965625 L74.765622,21.4003125 C74.720622,21.065625 74.701872,20.8753125 74.673747,20.5378125 C74.6409345,20.1590625 74.626872,19.9453125 74.611872,19.565625 L74.6203095,6.988125 L67.713747,6.9834375 L67.7090595,16.0940625 C67.708122,16.7971875 67.573122,17.6615625 66.6571845,17.6615625 C65.803122,17.6615625 65.4815595,16.8121875 65.482497,16.0940625 L65.4853095,11.120625 C65.4853095,10.0678125 65.257497,8.835 64.327497,7.8553125 C63.260622,6.733125 61.7428095,6.583125 60.5690595,6.585 C58.976247,6.58125 57.8165595,7.048125 56.3259345,8.6353125 L56.328747,0.78375 L49.4896845,0.7809375 L49.4803095,17.3521875 L45.5559345,17.3484375 C45.138747,17.3728125 44.8528095,17.2621875 44.5528095,16.9715625 C44.2584345,16.6875 44.1421845,16.4128125 44.1459345,15.9975 L44.148747,11.7309375 L47.538747,11.73375 L47.542497,6.9703125 L44.184372,6.965625 L44.186247,2.8228125 L37.282497,2.81625 L37.2796845,6.9628125 L36.037497,6.96375 C34.9228095,7.025625 33.5090595,6.838125 32.416875,7.895625 C32.2115625,8.094375 32.1046875,8.2228125 31.9434375,8.4609375 C31.905,8.1496875 31.884375,7.9771875 31.839375,7.6678125 C31.801875,7.39125 31.7746875,7.2346875 31.7325,6.96 L24.901875,6.9553125" id="path37" fill="#FFFFFF" fill-rule="nonzero"></path>
                        <path d="M76.453122,6.9909375 L76.5890595,9.0028125 L76.5815595,21.4003125 L83.428122,21.4059375 L83.4328095,15.9609375 C83.5471845,14.74875 83.589372,13.33125 84.0946845,12.823125 C84.461247,12.4546875 85.019997,12.27375 85.717497,12.27375 L88.250622,12.2746875 L88.252497,7.1184375 C87.6571845,6.838125 87.2690595,6.7490625 86.6109345,6.7471646 C85.1671845,6.7425 84.350622,7.4578125 83.353122,8.505 C83.330622,8.19375 83.311872,8.0175 83.272497,7.70625 C83.234997,7.42875 83.2115595,7.2721875 83.161872,6.995625 L76.453122,6.9909375" id="path39" fill="#FFFFFF" fill-rule="nonzero"></path>
                        <path d="M93.575622,0.81 L103.867497,0.8175 C106.911559,0.8175 110.204059,1.14 112.587184,3.6834375 C114.66656,5.89875 115.188747,8.0128125 115.186877,11.026875 C115.185935,12.5353125 115.027497,13.880625 114.652497,14.8546875 C114.469684,15.3271875 114.363747,15.530625 114.129372,15.9346875 L109.067809,15.9309375 L109.063122,20.74875 C108.35531,21.005625 107.937185,21.1190625 107.195622,21.2503125 C106.301247,21.4096875 106.046247,21.4209375 104.872497,21.4209375 L93.558747,21.4115625 L93.575622,0.81 Z M101.66906,5.5265625 L101.65781,16.7896875 L102.758435,16.7896875 C103.598435,16.6321875 104.143122,16.46625 104.736559,15.8475 C105.839059,14.6840625 105.914059,12.95625 105.898122,11.02125 C105.883122,9.121875 105.94781,7.6171875 104.714059,6.3 C104.138435,5.6859375 103.204685,5.5246875 102.268122,5.5246875 L101.66906,5.5265625" id="path41" fill="#FFFFFF" fill-rule="nonzero"></path>
                        <polyline id="path43" fill="#FFFFFF" fill-rule="nonzero" points="121.468122 0.819375 130.224372 0.8221875 130.213122 15.9440625 137.82281 15.9515625 137.818122 21.4425 121.454059 21.4321875 121.468122 0.819375"></polyline>
                        <polyline id="path45" fill="#FFFFFF" fill-rule="nonzero" points="139.190622 5.270625 146.130934 5.2734375 146.132809 0.8325 139.192497 0.82875 139.190622 5.270625"></polyline>
                        <g id="g47" transform="translate(99.687187, 11.171890) scale(-1, 1) rotate(-180.000000) translate(-99.687187, -11.171890) translate(0.687187, 0.171890)">
                            <g id="g49-Clipped">
                                <mask id="mask-6" fill="white">
                                    <use xlink:href="#path-5"></use>
                                </mask>
                                <g id="path53"></g>
                                <g id="g49" mask="url(#mask-6)" fill="#FFFFFF" fill-rule="nonzero">
                                    <g transform="translate(137.812500, 0.000000)">
                                        <path d="M0.6825,0.7275 L7.618125,0.721875 L7.625625,10.3715625 L10.7625,10.36875 C10.75125,8.0146875 10.749375,6.975 10.663125,4.846875 C10.6096875,3.526875 10.7221875,2.50875 11.69625,1.6153125 C12.3825,0.9909375 12.9684375,0.7471875 13.8909375,0.718125 L21.045,0.714375 L21.04875,4.7465625 L19.48125,4.7465625 C18.9140625,4.7465625 18.4321875,4.7503125 18.084375,5.1 C17.784375,5.41125 17.690625,6.174375 17.6925,6.8175 L17.698125,10.365 L23.5003125,10.36125 C23.4346875,8.05875 23.413125,6.885 23.341875,4.71375 C23.2940625,3.4246875 23.713125,2.28375 24.3721875,1.575 C24.7603125,1.1559375 25.7784375,0.710625 27.1828125,0.70875 L42.631875,0.703125 L42.6478125,21.3140625 L35.7121875,21.3159375 L35.7028125,4.7353125 L31.8721875,4.7390625 C31.46625,4.7409375 31.1765625,4.8084375 30.83625,5.0578125 C30.519375,5.2903125 30.429375,6.335625 30.43125,6.6215625 L30.435,10.3565625 L33.789375,10.35375 L33.795,15.1171875 L30.43875,15.12 L30.440625,19.2346875 L23.5059375,19.2403125 L23.5021875,15.1265625 L17.698125,15.1284375 L17.70375,19.21125 L10.7990625,19.216875 L10.7990625,15.135 L0.6928125,15.136875 L0.6825,0.7275 Z" id="path55"></path>
                                        <path d="M53.5396875,4.9565625 L59.2396875,4.95375 C58.3621875,1.7878125 55.348125,0.238125 51.7321875,0.238125 C45.8925,0.241875 43.573125,3.7171875 43.5768705,8.1515625 C43.57875,12.4809375 46.065,15.7078125 51.7096875,15.7078125 C57.234375,15.7040625 59.641875,12.19125 59.6400011,7.84125 C59.638125,7.3575 59.63625,7.0846875 59.578125,6.6046875 L50.59125,6.6121875 L50.59125,5.8959375 C50.589375,4.8046875 51.0365625,3.9534375 51.98625,3.901875 C52.7175,3.860625 53.308125,4.2628125 53.5396875,4.9565625 Z M50.593125,9.825 L53.5425,9.8221875 C53.544375,10.8421875 53.476875,12.13125 52.0471875,12.13125 C50.686875,12.13125 50.596875,10.9134375 50.593125,9.825" id="path57"></path>
                                    </g>
                                </g>
                            </g>
                        </g>
                    </g>
                    <g id="Atos" transform="translate(151.500000, 321.000000)" fill="#FFFFFF" fill-rule="nonzero">
                        <path d="M83.3428487,44.2189685 C79.1914496,43.9087386 75.2603759,42.2713244 72.1347302,39.550454 C71.9440748,39.3845095 71.7583716,39.2158407 71.7220594,39.1756568 C71.6857341,39.1354733 71.617021,39.0749939 71.5693408,39.0412463 L71.4826524,38.9799155 L71.0985845,39.4018771 C69.9391725,40.6756959 68.3502903,41.8331887 66.6379633,42.6513659 C63.864028,43.9767777 60.8024437,44.4690593 57.592235,44.1058423 C53.2253931,43.6117533 49.935835,41.5239447 48.3000828,38.208357 C47.5788041,36.74639 47.1605364,35.0423684 47.0450622,33.0954746 C47.0244604,32.7478865 47.0119164,29.1076982 47.0116987,23.4186586 L47.011372,14.299032 L43.7593762,14.299032 L40.5073838,14.299032 L40.5157856,10.9150311 L40.5241875,7.53099597 L43.7676299,7.52282349 L47.0110715,7.51465101 L47.0194777,3.88497542 L47.0278839,0.255309731 L51.4682126,0.255309731 L55.9085456,0.255309731 L55.9169518,3.8850299 L55.9253581,7.51475349 L60.8524933,7.52292597 L65.7796285,7.53109845 L65.7880347,10.9151335 L65.7964409,14.2991349 L60.8607558,14.2991349 L55.9250662,14.2991349 L55.9250662,23.0256774 C55.9250662,32.5312021 55.9175311,32.1242243 56.1096936,32.9748899 C56.5001423,34.7031923 57.531462,36.0873461 58.9575555,36.7970628 C60.184104,37.4074782 61.6598115,37.5007517 63.3636409,37.0755554 C64.6553527,36.7532012 66.0107252,36.0529516 67.100174,35.1450753 C67.4669547,34.8394418 67.909008,34.422827 67.909008,34.3827797 C67.909008,34.3643895 67.7920354,34.1189301 67.6490776,33.8372023 C66.5306469,31.6332697 65.874157,29.3467225 65.6435307,26.8519362 C65.5761243,26.1228088 65.5663896,24.464998 65.6256294,23.8038765 C65.8734862,21.0376466 66.5604302,18.6947063 67.8213134,16.3151238 C69.8974725,12.3969195 73.4527451,9.21175884 77.5780022,7.57410861 C78.0485712,7.38732292 78.8091588,7.11611812 78.8232577,7.13011425 C78.8285279,7.13522097 78.7657078,7.2498134 78.6836798,7.38453044 C77.4470091,9.41519693 76.3857798,13.5974886 76.1937785,17.1972551 L76.1571919,17.8830662 L75.9334997,18.1969067 C74.7905952,19.8003333 74.0610627,21.6971679 73.7959579,23.7547028 C73.7121877,24.4048252 73.7120875,26.0529302 73.7956269,26.7044489 C74.0781016,28.9037158 74.8679454,30.8643674 76.1558199,32.5632127 C77.7897166,34.7185168 80.1293254,36.2104846 82.6659355,36.7147547 C83.498847,36.8803244 83.700082,36.8975899 84.7788075,36.895955 C85.6501436,36.895955 85.8479551,36.8847167 86.2479164,36.8221264 C87.7012843,36.594851 88.8909979,36.1679177 90.160026,35.4182557 C90.3869936,35.2841514 90.6088565,35.1470505 90.6530523,35.1135758 L90.7334034,35.0526873 L90.5540071,34.9777007 C90.173489,34.818669 88.8682053,34.1507025 88.4433173,33.8976138 C85.882891,32.3724091 83.7917793,30.3812792 82.1624908,27.917141 C78.4869223,22.3581532 78.0283223,15.2109613 80.9636044,9.23249791 C81.1502484,8.8523544 81.4255844,8.32877609 81.5754544,8.06897946 C81.872211,7.55459541 82.6214697,6.41654915 82.7201055,6.3303589 C82.8737561,6.19608464 85.181112,6.14507193 86.3634604,6.2498215 C89.2771695,6.50788158 91.9285701,7.34172481 94.4088108,8.78002407 C98.7569456,11.3015089 101.958082,15.4367042 103.262869,20.2175954 C103.761475,22.0445173 103.951359,23.6004725 103.917233,25.5794111 C103.888574,27.2394691 103.731988,28.4069721 103.328851,29.9655837 C101.931831,35.3667661 98.1442812,39.9302231 93.0176052,42.389185 C90.8583946,43.4248327 88.5640748,44.0317063 86.0863038,44.2226483 C85.5910126,44.2608297 83.8712637,44.2585812 83.3427136,44.2187566 L83.3428487,44.2189685 Z M95.3672448,28.4884284 C95.4095371,28.3364121 95.4950322,27.9612745 95.557273,27.6548239 C96.0222582,25.3654163 95.8141937,22.9123796 94.9734945,20.7720938 C93.7206342,17.5825404 91.2406592,15.1647838 88.1183716,14.088988 C87.9305038,14.0242516 87.7580938,13.9712978 87.7352446,13.9712978 C87.6507208,13.9712978 87.361495,15.2954483 87.2484511,16.1999874 C87.1911364,16.6585906 87.1909404,18.3938055 87.2481201,18.8547589 C87.5495283,21.2832084 88.3905629,23.3179953 89.8400762,25.1255748 C90.1527479,25.5154915 90.9210622,26.3036342 91.2990933,26.6222765 C92.3792822,27.5327067 93.4880392,28.1665512 94.8315472,28.6417389 C95.0494378,28.718837 95.241805,28.7780567 95.2590268,28.7733574 C95.2762312,28.7685879 95.324935,28.6404447 95.3672099,28.4884284 L95.3672448,28.4884284 Z M117.473558,44.2205684 C112.988633,44.0637519 108.854426,43.1764801 104.999774,41.5435241 C104.433531,41.3036151 102.650427,40.4393279 102.535126,40.3488469 C102.485935,40.3102633 102.513436,40.2567651 102.810044,39.8143373 C103.858873,38.2498005 105.143899,36.0814204 105.980883,34.4638273 C106.197742,34.0447262 106.381154,33.7018033 106.388471,33.7018033 C106.395788,33.7018033 106.591427,33.7770286 106.823233,33.8689738 C109.79089,35.0459444 113.058527,35.9154758 115.976796,36.3047453 C117.244931,36.473891 117.68904,36.5018153 119.129594,36.502905 C120.245695,36.502905 120.567134,36.4933704 120.961851,36.4442984 C122.459476,36.2577172 123.633266,35.9322982 124.672979,35.4154287 C126.030943,34.7403788 126.867704,33.8761253 127.157065,32.8496736 C127.246354,32.5329386 127.239825,31.5459894 127.145567,31.1121427 C126.900828,29.9856409 126.206942,29.1652489 124.77492,28.3092712 C124.326569,28.0412671 123.480029,27.620736 122.86013,27.3580786 C121.865345,26.9365256 121.040717,26.6501326 118.238227,25.752813 C111.682531,23.6537666 108.381936,21.7212775 106.482333,18.8697768 C105.384513,17.2218076 104.818605,15.1134987 104.818274,12.6702694 C104.81793,9.9778345 105.623676,7.61197573 107.21606,5.63007473 C107.583847,5.17228834 108.521906,4.23737359 108.994705,3.85735633 C110.885953,2.33724629 113.302411,1.23484419 116.125355,0.604309529 C119.886645,-0.235813068 124.011541,-0.201279068 129.479361,0.716104979 C131.375914,1.03430776 134.157668,1.61765055 134.191114,1.7041712 C134.206402,1.74368405 133.741665,13.5179726 133.72409,13.5367364 C133.718733,13.5425263 126.999103,13.422656 126.90761,13.4151983 C126.900336,13.4151983 126.904997,12.0885614 126.918586,10.4684146 L126.942716,7.52275474 L126.5686,7.45301236 C124.612371,7.08832953 121.838514,7.02635144 119.83937,7.30259637 C116.99636,7.69547598 114.95272,8.7732128 114.185777,10.2841148 C113.686684,11.2673181 113.671265,12.3339537 114.142832,13.2556896 C115.04406,15.0173306 117.859743,16.5927645 123.124242,18.2809172 C127.133432,19.5665528 129.793187,20.7040201 131.71698,21.9556703 C134.008695,23.4467188 135.351828,25.1285713 136.031594,27.358351 C136.566965,29.1145091 136.650087,31.493308 136.246462,33.5072538 C135.272035,38.3692956 131.419936,41.9243486 125.46821,43.4543574 C123.016956,44.0844901 120.494745,44.3262052 117.473558,44.2205684 L117.473558,44.2205684 Z M0,40.7648148 L0,38.0608697 L1.84481059,38.0608697 L3.68962118,38.0608697 L3.84026469,37.6429944 C4.505802,35.7968322 15.2192714,5.72937597 15.2192714,5.70768345 C15.2192714,5.69235897 14.1830578,5.67601401 12.9165724,5.67124457 L10.6138735,5.66273049 L10.6138735,2.97518603 L10.6138735,0.287637464 L19.8605315,0.279396232 L29.107193,0.271155001 L35.8569522,19.1578022 L42.6067113,38.0444192 L44.3470441,38.0529333 L46.0873773,38.0614474 L46.0789276,40.7569135 L46.0704778,43.4523813 L37.767556,43.4523813 L29.4646337,43.4523813 L29.456197,40.756641 L29.4477603,38.0608688 L31.1481501,38.0608688 C32.1128304,38.0608688 32.848543,38.0482685 32.848543,38.0319235 C32.848543,38.0091098 31.1297745,33.1741729 30.8286593,32.3498647 L30.7597916,32.1613425 L22.3712832,32.169515 L13.9827744,32.1776874 L12.9380231,35.1110198 L11.8932752,38.0443863 L13.7048373,38.0529004 L15.516399,38.0614145 L15.516399,40.7650531 L15.516399,43.4687262 L7.75820378,43.4687262 L0,43.4687262 L0,40.7647807 L0,40.7648148 Z M28.3586856,25.4586214 C28.3586856,25.4494285 27.042216,21.7585665 25.4331995,17.256679 C23.824183,12.7547915 22.4770782,8.98295062 22.4396414,8.87479542 L22.3715729,8.67813444 L22.3313145,8.77644807 C22.3091535,8.83052566 20.9685372,12.5840792 19.3521254,17.1176712 C17.7357166,21.6512969 16.4029569,25.3863932 16.3904403,25.4179272 C16.3688281,25.4724476 16.666522,25.475308 22.3631841,25.475308 C25.6607115,25.475308 28.3586856,25.4678144 28.3586856,25.4586214 L28.3586856,25.4586214 Z" id="path2987"></path>
                    </g>
                    <g id="wi-acc-logo" transform="translate(273.750000, 194.250000)">
                        <g id="Group">
                            <path d="M12.9,8.7 C12.9,7.125 11.925,5.7 8.85,5.7 C5.775,5.7 4.575,7.575 4.575,7.575 L6.375,9.225 C8.55,7.65 9.6,8.4 9.6,8.85 C9.6,9.15 8.85,9.525 8.025,10.275 C7.125,11.175 7.2,11.625 7.2,11.625 L7.2,13.05 L9.75,13.05 L9.75,12.6 C9.75,11.55 12.9,11.4 12.9,8.7 Z" id="Path"></path>
                            <polygon id="Path" points="22.575 10.875 24.3 16.8 27.75 16.8 31.2 5.7 27.525 5.7 25.875 11.55 24.075 5.7 21 5.7 19.275 11.55 17.55 5.7 13.95 5.7 17.325 16.8 20.775 16.8"></polygon>
                            <rect id="Rectangle" x="6.9" y="14.25" width="3.075" height="2.55"></rect>
                            <path d="M50.7,15.45 L51.15,16.725 L54.9,16.725 L51.15,5.625 L47.25,5.625 L43.575,16.725 L47.325,16.725 L47.7,15.45 L50.7,15.45 Z M49.2,10.05 L50.025,12.9 L48.3,12.9 L49.2,10.05 Z" id="Shape"></path>
                            <polygon id="Path" points="54.675 9 57.825 9 57.825 16.8 61.35 16.8 61.35 9 64.575 9 64.575 5.7 54.675 5.7"></polygon>
                            <path d="M69.45,21.15 L96.45,21.15 L96.45,1.35 L69.45,1.35 L69.45,21.15 Z M91.875,16.8 L88.8,16.8 L88.8,14.25 L91.875,14.25 L91.875,16.8 Z M88.725,5.7 L92.1,5.7 L92.1,8.7 L91.275,13.125 L89.55,13.125 L88.725,8.7 L88.725,5.7 Z M78.825,5.7 L87.075,5.7 L87.075,8.85 L82.275,8.85 L82.275,10.125 L86.4,10.125 L86.4,12.9 L82.275,12.9 L82.275,16.8 L78.825,16.8 L78.825,5.7 Z M77.175,5.7 L77.175,16.8 L73.65,16.8 L73.65,5.7 L77.175,5.7 Z" id="Shape"></path>
                            <polygon id="Path" points="32.4 5.7 32.4 16.8 35.925 16.8 35.925 12.75 38.775 12.75 38.775 16.8 42.3 16.8 42.3 5.7 38.775 5.7 38.775 9.75 35.925 9.75 35.925 5.7"></polygon>
                            <polygon id="Path" fill="#FFFFFF" fill-rule="nonzero" points="49.2 10.05 48.375 12.975 50.025 12.975"></polygon>
                            <polygon id="Path" fill="#FFFFFF" fill-rule="nonzero" points="82.35 12.9 86.4 12.9 86.4 10.125 82.35 10.125 82.35 8.85 87.15 8.85 87.15 5.7 78.825 5.7 78.825 16.8 82.35 16.8"></polygon>
                            <rect id="Rectangle" fill="#FFFFFF" fill-rule="nonzero" x="73.65" y="5.7" width="3.525" height="11.1"></rect>
                            <rect id="Rectangle" fill="#FFFFFF" fill-rule="nonzero" x="88.875" y="14.25" width="3.075" height="2.55"></rect>
                            <polygon id="Path" fill="#FFFFFF" fill-rule="nonzero" points="91.35 13.2 92.1 8.7 92.1 5.7 88.725 5.7 88.725 8.7 89.625 13.2"></polygon>
                            <path d="M0.075,0.3 L0.075,22.125 L97.425,22.125 L97.425,0.3 L0.075,0.3 Z M9.75,12.675 L9.75,13.125 L7.125,13.125 L7.125,11.7 C7.125,11.7 7.05,11.25 7.95,10.35 C8.85,9.45 9.525,9.225 9.525,8.925 C9.525,8.4 8.4,7.725 6.3,9.3 L4.5,7.65 C4.5,7.65 5.625,5.775 8.775,5.775 C11.925,5.775 12.825,7.2 12.825,8.775 C12.9,11.4 9.75,11.55 9.75,12.675 Z M9.975,14.25 L9.975,16.8 L6.9,16.8 L6.9,14.25 L9.975,14.25 Z M13.95,5.7 L17.55,5.7 L19.275,11.55 L21,5.7 L24.15,5.7 L25.875,11.55 L27.6,5.7 L31.2,5.7 L27.75,16.8 L24.3,16.8 L22.5,10.875 L20.775,16.8 L17.325,16.8 L13.95,5.7 Z M38.775,9.75 L38.775,5.7 L42.3,5.7 L42.3,16.8 L38.775,16.8 L38.775,12.75 L35.925,12.75 L35.925,16.8 L32.4,16.8 L32.4,5.7 L35.925,5.7 L35.925,9.75 L38.775,9.75 Z M43.575,16.8 L47.25,5.7 L51.15,5.7 L54.9,16.8 L51.15,16.8 L50.7,15.525 L47.7,15.525 L47.325,16.8 L43.575,16.8 Z M64.575,9 L61.35,9 L61.35,16.8 L57.825,16.8 L57.825,9 L54.675,9 L54.675,5.7 L64.575,5.7 L64.575,9 Z M96.375,21.15 L69.075,21.15 L69.075,1.35 L96.375,1.35 L96.375,21.15 Z" id="Shape" fill="#FFFFFF" fill-rule="nonzero"></path>
                        </g>
                        <g id="Group" transform="translate(36.750000, 26.250000)" fill="#FFFFFF" fill-rule="nonzero">
                            <path d="M0.705,2.1375 L1.125,2.1375 L1.125,3.0975 C1.18675085,2.95942093 1.26753545,2.83067047 1.365,2.715 C1.46924533,2.58896053 1.59038844,2.47791268 1.725,2.385 C1.86443749,2.29051114 2.01574642,2.21485667 2.175,2.16 C2.34106045,2.10053771 2.51611455,2.07009352 2.6925,2.07 C2.94979421,2.063561 3.20549675,2.11214449 3.4425,2.2125 C3.66655954,2.30725942 3.86836555,2.44775727 4.035,2.625 C4.20768214,2.81396679 4.34034382,3.03591999 4.425,3.2775 C4.52355809,3.55679551 4.57180511,3.85135621 4.5675,4.1475 L4.5675,4.2075 C4.57339222,4.50559332 4.52772005,4.80246242 4.4325,5.085 C4.34933691,5.32787366 4.21938871,5.55209801 4.05,5.745 C3.88797433,5.9259999 3.68830442,6.06935265 3.465,6.165 C3.22760498,6.26405617 2.97218213,6.31258651 2.715,6.3075 C2.52377608,6.30930417 2.33361472,6.27887835 2.1525,6.2175 C1.99262961,6.16412145 1.84112507,6.08836918 1.7025,5.9925 C1.57492973,5.90490715 1.46117229,5.79873354 1.365,5.6775 C1.27637976,5.56528596 1.20322631,5.44168187 1.1475,5.31 L1.1475,7.68 L0.7275,7.68 L0.705,2.1375 Z M2.655,5.955 C3.05474279,5.96988675 3.44009538,5.80473564 3.705,5.505 C3.99077275,5.1438648 4.13241077,4.68955418 4.1025,4.23 L4.1025,4.17 C4.10679918,3.91489675 4.06617995,3.66102659 3.9825,3.42 C3.91408872,3.221011 3.80703928,3.03749767 3.6675,2.88 C3.53839304,2.73743637 3.37969087,2.62480903 3.2025,2.55 C3.02468962,2.47435229 2.83322793,2.43605996 2.64,2.4375 C2.44196093,2.43650931 2.24568596,2.47474469 2.0625,2.55 C1.87643117,2.62454065 1.70787169,2.73691363 1.5675,2.88 C1.41906778,3.03487979 1.30417446,3.21870911 1.23,3.42 C1.14119214,3.65988583 1.09795133,3.91424356 1.1025,4.17 L1.1025,4.23 C1.09607151,4.48525002 1.13675125,4.73949834 1.2225,4.98 C1.29425713,5.18074841 1.40659062,5.36456685 1.5525,5.52 C1.68997107,5.66307535 1.85609117,5.77552588 2.04,5.85 C2.2382873,5.92665268 2.4500402,5.96237004 2.6625,5.955 L2.655,5.955 Z" id="Shape"></path>
                            <path d="M6.6525,6.315 C6.46239039,6.31682878 6.27298907,6.29157527 6.09,6.24 C5.92988759,6.19662531 5.77964367,6.1227766 5.6475,6.0225 C5.52445884,5.92457304 5.42672096,5.79854262 5.3625,5.655 C5.29035954,5.49481004 5.25450492,5.32065904 5.2575,5.145 C5.25034288,4.9362807 5.30514637,4.73011518 5.415,4.5525 C5.52331118,4.39129121 5.67028572,4.25978768 5.8425,4.17 C6.03505299,4.06933721 6.24280927,4.00092965 6.4575,3.9675 C6.70534764,3.92627963 6.95625132,3.90620734 7.2075,3.9075 L8.0625,3.9075 L8.0625,3.54 C8.08951369,3.23874459 8.00104282,2.93847983 7.815,2.7 C7.59785294,2.5060664 7.30993231,2.41099827 7.02,2.4375 C6.75485471,2.43274103 6.49412173,2.50574627 6.27,2.6475 C6.05496285,2.80584096 5.91836802,3.04897975 5.895,3.315 L5.4825,3.315 C5.49737022,3.11594212 5.55904433,2.92321054 5.6625,2.7525 C5.75550047,2.60204497 5.87795225,2.47193994 6.0225,2.37 C6.17014526,2.26629063 6.33529033,2.19006983 6.51,2.145 C6.69381743,2.098406 6.88287754,2.07571879 7.0725,2.0775 C7.27008602,2.07434605 7.46709984,2.09960423 7.6575,2.1525 C7.82537754,2.20113944 7.97950555,2.28847865 8.1075,2.4075 C8.23772405,2.53349279 8.33772496,2.68734035 8.4,2.8575 C8.47546075,3.07172301 8.51104787,3.29795541 8.505,3.525 L8.505,6.2475 L8.085,6.2475 L8.085,5.625 C7.94832143,5.82909025 7.76601055,5.99856234 7.5525,6.12 C7.27638027,6.26718223 6.96477675,6.33469633 6.6525,6.315 Z M6.6525,5.9775 C6.83279139,5.97988506 7.01238126,5.95459072 7.185,5.9025 C7.34139206,5.8554623 7.48853461,5.78189103 7.62,5.685 C7.73945485,5.59661103 7.83909034,5.48420175 7.9125,5.355 C7.9829516,5.22632609 8.01911075,5.0816895 8.0175,4.935 L8.0175,4.2375 L7.2,4.2375 C6.99938116,4.23638406 6.79891866,4.24891297 6.6,4.275 C6.43086087,4.29581346 6.26622064,4.34393906 6.1125,4.4175 C5.82010756,4.547504 5.64240122,4.84870119 5.67,5.1675 C5.65250385,5.39981379 5.74395936,5.62706687 5.9175,5.7825 C6.13782014,5.94509947 6.40959115,6.0223677 6.6825,6 L6.6525,5.9775 Z" id="Shape"></path>
                            <path d="M9.75,2.1375 L10.17,2.1375 L10.17,3 C10.2841373,2.74828798 10.4563509,2.52723775 10.6725,2.355 C10.9313863,2.16686468 11.2450777,2.06933036 11.565,2.0775 L11.565,2.475 C11.3766452,2.48411398 11.1901832,2.51687081 11.01,2.5725 C10.8443492,2.62116905 10.6926668,2.70857928 10.5675,2.8275 C10.4369357,2.95614397 10.33697,3.11250067 10.275,3.285 C10.1989485,3.50685295 10.1633833,3.7405671 10.17,3.975 L10.17,6.225 L9.75,6.225 L9.75,2.1375 Z" id="Path"></path>
                            <path d="M13.7325,6.3075 C13.4544617,6.32552872 13.1818435,6.22465997 12.9825,6.03 C12.8076604,5.80953015 12.7244031,5.53021535 12.75,5.25 L12.75,2.4975 L12.1425,2.4975 L12.1425,2.1375 L12.75,2.1375 L12.75,1.2 L13.17,1.2 L13.17,2.1375 L14.25,2.1375 L14.25,2.4975 L13.14,2.4975 L13.14,5.25 C13.1205402,5.44712854 13.1798565,5.64395054 13.305,5.7975 C13.4243012,5.91536167 13.5874844,5.97791523 13.755,5.97 C13.8497847,5.97904546 13.9452153,5.97904546 14.04,5.97 L14.28,5.91 L14.28,6.27 C14.207209,6.29929607 14.1318968,6.32188973 14.055,6.33750241 C13.946795,6.33768133 13.838815,6.32763667 13.7325,6.3075 L13.7325,6.3075 Z" id="Path"></path>
                            <path d="M18.915,6.315 C18.6571286,6.31184392 18.4023574,6.25834195 18.165,6.1575 C17.9272129,6.05756293 17.712706,5.90945108 17.535,5.7225 C17.3537329,5.53165525 17.2111109,5.30753504 17.115,5.0625 C17.0093163,4.7951338 16.955852,4.5099909 16.9575,4.2225 L16.9575,4.1625 C16.9548885,3.87248943 17.0083698,3.58470901 17.115,3.315 C17.2135185,3.06944533 17.3586954,2.84531253 17.5425,2.655 C17.7218581,2.47187481 17.9360688,2.3265175 18.1725,2.2275 C18.4104306,2.12941392 18.6651463,2.07847079 18.9225,2.0775 C19.1797586,2.07940426 19.4342981,2.13031216 19.6725,2.2275 C19.9098336,2.32484405 20.1243636,2.470418 20.3025,2.655 C20.4846853,2.84512578 20.6274293,3.06943768 20.7225,3.315 C20.8300854,3.58705049 20.8835839,3.87747094 20.88,4.17 L20.88,4.23 C20.8826115,4.52001057 20.8291302,4.80779099 20.7225,5.0775 C20.4289645,5.83460598 19.6969776,6.33056445 18.885,6.3225 L18.915,6.315 Z M18.915,5.955 C19.1260445,5.95742667 19.3353484,5.9165869 19.53,5.835 C19.7172937,5.75585055 19.8859188,5.63832398 20.025,5.49 C20.1699097,5.33380732 20.2821109,5.15020526 20.355,4.95 C20.4415981,4.7097165 20.4823035,4.45530775 20.475,4.2 L20.475,4.14 C20.480919,3.88478429 20.440254,3.63062803 20.355,3.39 C20.2831999,3.18704111 20.1709312,3.00077713 20.025,2.8425 C19.873191,2.70821039 19.6940794,2.60841964 19.5,2.55 C19.3050473,2.46940882 19.0959491,2.42860917 18.885,2.43 C18.6739747,2.42778467 18.4647132,2.46861617 18.27,2.55 C18.0833354,2.63028528 17.9149291,2.74765942 17.775,2.895 C17.6283857,3.05276361 17.516027,3.23917692 17.445,3.4425 C17.3590839,3.68295879 17.3183991,3.93723849 17.325,4.1925 L17.325,4.2525 C17.3178742,4.50779615 17.3585743,4.76217209 17.445,5.0025 C17.5168001,5.20545889 17.6290688,5.39172287 17.775,5.55 C17.9140812,5.69832398 18.0827063,5.81585055 18.27,5.895 C18.4808443,5.96074443 18.7032019,5.9811911 18.9225,5.955 L18.915,5.955 Z" id="Shape"></path>
                            <path d="M22.1025,2.4975 L21.48,2.4975 L21.48,2.1375 L22.1025,2.1375 L22.1025,1.3875 C22.0712878,1.03877742 22.1883519,0.693029724 22.425,0.435 C22.6552417,0.229414952 22.9566143,0.121781846 23.265,0.135 L23.5125,0.135 L23.7225,0.195 L23.7225,0.555 L23.5275,0.5025 L23.28,0.5025 C23.0750864,0.491224396 22.8745032,0.564410153 22.725,0.705 C22.5694315,0.885033804 22.4936415,1.12052415 22.515,1.3575 L22.515,2.1075 L23.6625,2.1075 L23.6625,2.4675 L22.5,2.4675 L22.5,6.2175 L22.08,6.2175 L22.1025,2.4975 Z" id="Path"></path>
                        </g>
                        <path d="M82.455,25.7925 L84.5025,25.0425 L82.455,24.24 L82.455,23.1675 L85.965,24.585 L85.965,25.4625 L82.455,26.8875 L82.455,25.7925 Z M63,32.5575 C62.6548324,32.603572 62.3067713,32.4964674 62.0472192,32.2643124 C61.787667,32.0321574 61.6425586,31.6981492 61.65,31.35 L61.65,31.305 C61.65,30.2925 62.5275,29.9625 63.5925,29.9625 L64.1025,29.9625 L64.1025,29.7675 C64.1025,29.355 63.9225,29.1075 63.495,29.1075 C63.340816,29.0907822 63.1865706,29.1384644 63.068719,29.2392772 C62.9508675,29.34009 62.8798677,29.4850874 62.8725,29.64 L61.8075,29.64 C61.8825,28.725 62.61,28.2825 63.585,28.2825 C64.56,28.2825 65.25,28.7025 65.25,29.7225 L65.25,32.475 L64.125,32.475 L64.125,32.0025 C63.8693382,32.3674251 63.4451574,32.5766876 63,32.5575 M64.1025,31.1025 L64.1025,30.7125 L63.645,30.7125 C63.0825,30.7125 62.79,30.87 62.79,31.2375 L62.79,31.275 C62.79,31.56 62.9625,31.755 63.345,31.755 C63.5327596,31.7760624 63.7207522,31.7174683 63.8632946,31.5934564 C64.005837,31.4694446 64.0898798,31.2913679 64.095,31.1025 M67.845,32.5575 C67.2907159,32.5882618 66.7512947,32.3718229 66.3719991,31.9664687 C65.9927034,31.5611146 65.8125306,31.0085218 65.88,30.4575 L65.88,30.405 C65.821322,29.8517915 66.0045249,29.3002084 66.3825162,28.8920353 C66.7605075,28.4838621 67.296421,28.2589089 67.8525,28.275 C68.2986751,28.2291795 68.7440821,28.3686638 69.0844249,28.6607914 C69.4247677,28.9529189 69.6301574,29.3720351 69.6525,29.82 L68.595,29.82 C68.5275,29.4225 68.3175,29.16 67.92,29.16 C67.5225,29.16 67.095,29.5425 67.095,30.3525 L67.095,30.48 C67.095,31.3125 67.395,31.6875 67.9275,31.6875 C68.3417136,31.6875 68.6775,31.3517136 68.6775,30.9375 L69.75,30.9375 C69.7313343,31.3971537 69.5249947,31.829045 69.1791364,32.1323798 C68.833278,32.4357145 68.3781611,32.5839532 67.92,32.5425 M72.195,32.5425 C71.6407159,32.5732618 71.1012947,32.3568229 70.7219991,31.9514687 C70.3427034,31.5461146 70.1625306,30.9935218 70.23,30.4425 L70.23,30.39 C70.171322,29.8367915 70.3545249,29.2852084 70.7325162,28.8770353 C71.1105075,28.4688621 71.646421,28.2439089 72.2025,28.26 C72.6486751,28.2141795 73.0940821,28.3536638 73.4344249,28.6457914 C73.7747677,28.9379189 73.9801574,29.3570351 74.0025,29.805 L72.87,29.805 C72.8025,29.4075 72.5925,29.145 72.195,29.145 C71.7975,29.145 71.37,29.5275 71.37,30.3375 L71.37,30.465 C71.37,31.2975 71.67,31.6725 72.2025,31.6725 C72.6167136,31.6725 72.9525,31.3367136 72.9525,30.9225 L73.995,30.9225 C73.9763343,31.3821537 73.7699947,31.814045 73.4241364,32.1173798 C73.078278,32.4207145 72.6231611,32.5689532 72.165,32.5275 M76.47,32.5275 C75.9143221,32.5692588 75.3690271,32.3606879 74.983057,31.9587567 C74.5970869,31.5568254 74.4107711,31.0035308 74.475,30.45 L74.475,30.375 C74.4141763,29.8239008 74.5945572,29.273413 74.9697301,28.8651789 C75.344903,28.4569448 75.8782357,28.2308247 76.4325,28.245 C76.9526185,28.2041787 77.4639357,28.3968809 77.8277382,28.7708293 C78.1915407,29.1447777 78.370109,29.6612008 78.315,30.18 L78.315,30.675 L75.645,30.675 C75.69,31.425 76.005,31.695 76.5,31.695 C76.8422775,31.7096277 77.1509614,31.4904621 77.25,31.1625 L78.315,31.1625 C78.1694338,32.0315128 77.3772106,32.6404117 76.5,32.5575 M75.6825,29.94 L77.22,29.94 C77.22,29.3325 76.92,29.0775 76.47,29.0775 C76.02,29.0775 75.78,29.2725 75.72,29.94 M79.0875,28.3575 L80.235,28.3575 L80.235,28.9725 C80.480485,28.5190863 80.9651267,28.2475701 81.48,28.275 C82.23,28.275 82.725,28.725 82.725,29.7225 L82.725,32.475 L81.5775,32.475 L81.5775,29.895 C81.5775,29.415 81.3825,29.205 80.9625,29.205 C80.7584336,29.1863286 80.5566256,29.2593266 80.4117261,29.4042261 C80.2668266,29.5491256 80.1938286,29.7509336 80.2125,29.955 L80.2125,32.475 L79.065,32.475 L79.0875,28.3575 Z M84.8625,27.1125 L84.8625,28.3575 L85.6125,28.3575 L85.6125,29.25 L84.8625,29.25 L84.8625,31.2 C84.8625,31.5075 85.005,31.65 85.2675,31.65 C85.4032274,31.655005 85.538533,31.6320286 85.665,31.5825 L85.665,32.475 C85.4552461,32.5349181 85.238144,32.5652114 85.02,32.5650011 C84.1275,32.5650011 83.7,32.1525 83.7,31.32 L83.7,29.25 L83.22,29.25 L83.22,28.365 L83.7,28.365 L83.7,27.615 L84.8625,27.1125 Z M89.97,32.4675 L88.8225,32.4675 L88.8225,31.86 C88.5985634,32.3076009 88.1296578,32.5789173 87.63,32.55 C87.2471406,32.5983024 86.8636635,32.465239 86.5930103,32.190173 C86.3223572,31.915107 86.1955125,31.5295282 86.25,31.1475 L86.25,28.365 L87.405,28.365 L87.405,30.975 C87.405,31.4475 87.5925,31.665 88.005,31.665 C88.2090664,31.6836714 88.4108744,31.6106734 88.5557739,31.4657739 C88.7006734,31.3208744 88.7736714,31.1190664 88.755,30.915 L88.755,28.365 L89.9025,28.365 L89.97,32.4675 Z M90.75,28.365 L91.8975,28.365 L91.8975,29.115 C92.0834705,28.5994495 92.5881074,28.2691417 93.135,28.305 L93.135,29.4375 C92.385,29.4375 91.8975,29.67 91.8975,30.36 L91.8975,32.475 L90.75,32.475 L90.75,28.365 Z M95.49,32.565 C94.9343221,32.6067588 94.3890271,32.3981879 94.003057,31.9962567 C93.6170869,31.5943254 93.4307711,31.0410308 93.495,30.4875 L93.495,30.4125 C93.4341763,29.8614008 93.6145572,29.310913 93.9897301,28.9026789 C94.364903,28.4944448 94.8982357,28.2683247 95.4525,28.2825 C95.9726185,28.2416787 96.4839357,28.4343809 96.8477382,28.8083293 C97.2115407,29.1822777 97.390109,29.6987008 97.335,30.2175 L97.335,30.7125 L94.665,30.7125 C94.71,31.4625 95.025,31.7325 95.52,31.7325 C95.8622775,31.7471277 96.1709614,31.5279621 96.27,31.2 L97.3275,31.2 C97.167683,32.066433 96.3656694,32.6622145 95.49,32.565 M94.6725,29.9475 L96.21,29.9475 C96.21,29.34 95.91,29.085 95.46,29.085 C95.01,29.085 94.77,29.28 94.71,29.9475" id="Shape" fill="#FFFFFF" fill-rule="nonzero"></path>
                    </g>
                    <g id="etch" transform="translate(72.000000, 168.000000)" fill="#FFFFFF" fill-rule="nonzero">
                        <path d="M0,7.42588403 L7.43491014,7.42588403 L7.43491014,0.825098226 L18.9977013,0.825098226 L18.9977013,7.42588403 L7.43491014,7.42588403 L7.43491014,13.1996071 L18.1729125,13.1996071 L18.1729125,19.8062865 L7.43491014,19.8062865 L7.43491014,25.574116 L18.9977013,25.574116 L18.9977013,32.1749018 L0,32.1749018 L0,7.42588403 Z M46.906665,0.830991785 L46.906665,7.42588403 L37.9914656,7.42588403 L37.9914656,32.1788308 L31.3892182,32.1788308 L31.3892182,7.42588403 L23.0999922,7.42588403 L23.0999922,0.830991785 L46.906665,0.830991785 Z M102.417511,25.5839386 L95.8172321,25.5839386 L95.8172321,19.8003929 L85.9059871,19.8003929 L85.9059871,32.1768663 L79.2978342,32.1768663 L79.2978342,0.830991785 L85.9059871,0.830991785 L85.9059871,13.2074652 L95.8172321,13.2074652 L95.8172321,0.825098226 L102.425385,0.825098226 L102.417511,25.5839386 Z M67.7330746,21.5055959 L74.3412275,21.5055959 L74.3412275,25.574116 C74.3412275,29.3754614 71.0932525,33 65.2547713,33 L60.300133,33 C54.2274039,33 51.2136767,29.3754614 51.2136767,25.574116 L51.2136767,6.60078581 C51.2136767,2.79944041 54.2274039,0 60.300133,0 L65.2547713,0 C71.0932525,0 74.3412275,2.79944041 74.3412275,6.60078581 L74.3412275,11.3549232 L67.7330746,11.3549232 L67.7330746,8.85212525 C67.7330746,6.99761876 67.0303309,6.60078581 65.2547713,6.60078581 L60.300133,6.60078581 C58.5718166,6.60078581 57.8218296,7.221574 57.8218296,9.07411597 L57.8218296,23.9239195 C57.8218296,25.778426 58.5718166,26.3992142 60.300133,26.3992142 L65.2547713,26.3992142 C67.026394,26.3992142 67.7330746,26.0063103 67.7330746,24.1478747 L67.7330746,21.5055959 Z M113.25,25.578045 L113.25,32.1768663 L106.633973,32.1768663 L106.633973,25.578045 L113.25,25.578045 Z" id="Shape"></path>
                    </g>
                </g>
            </g>
        </g>
    </g>
</svg>