<?xml version="1.0" encoding="UTF-8"?>
<svg width="170px" height="19px" viewBox="0 0 170 19" version="1.1" xmlns="http://www.w3.org/2000/svg" xmlns:xlink="http://www.w3.org/1999/xlink">
    <title>racing-post</title>
    <g id="Racing-post" stroke="none" stroke-width="1" fill="none" fill-rule="evenodd">
        <g id="racing-post" fill-rule="nonzero">
            <circle id="Oval" fill="#FFFFFF" cx="129.606838" cy="9.34757835" r="6.49002849"></circle>
            <path d="M9.97720798,18.2592593 L7.07122507,12.3988604 L4.6011396,12.3504274 L4.6011396,18.2108262 L8.60343768e-16,18.2108262 L8.60343768e-16,0.435897436 L8.91168091,0.435897436 C12.8831909,0.435897436 15.1111111,3.05128205 15.1111111,6.39316239 C15.1111111,9.44444444 13.5128205,11.2364672 11.6723647,11.962963 L15.1595442,18.2592593 L9.97720798,18.2592593 Z M10.5099715,6.39316239 C10.5099715,5.18233618 9.49287749,4.40740741 8.28205128,4.40740741 L4.64957265,4.40740741 L4.64957265,8.42735043 L8.28205128,8.42735043 C9.63817664,8.42735043 10.5099715,7.65242165 10.5099715,6.39316239 L10.5099715,6.39316239 Z" id="Shape" fill="#000000"></path>
            <path d="M29.8347578,18.2592593 L28.6723647,14.7720798 L22.1823362,14.7236467 L21.0683761,18.2108262 L15.8376068,18.2108262 L22.5698006,0.387464387 L28.3333333,0.387464387 L35.0655271,18.2108262 L29.8347578,18.2592593 L29.8347578,18.2592593 Z M25.4273504,4.94017094 L23.4415954,10.8005698 L27.4131054,10.8005698 L25.4273504,4.94017094 L25.4273504,4.94017094 Z" id="Shape" fill="#000000"></path>
            <polygon id="Path" fill="#000000" points="52.3561254 18.2592593 52.3561254 0.435897436 56.957265 0.435897436 56.957265 18.2592593"></polygon>
            <polygon id="Path" fill="#000000" points="71.7777778 18.2592593 64.2222222 7.94301994 64.2222222 18.2592593 59.6210826 18.2592593 59.6210826 0.435897436 64.3675214 0.435897436 71.5840456 10.2678063 71.5840456 0.435897436 76.1851852 0.435897436 76.1851852 18.2592593 71.7777778 18.2592593"></polygon>
            <path d="M78.0740741,9.2991453 C77.977208,3.63247863 82.4814815,0.0484330484 87.6153846,0.0484330484 C90.9088319,0.0484330484 93.039886,1.21082621 94.7350427,3.05128205 L91.6837607,5.90883191 C90.3276353,4.45584046 89.5527066,4.21367521 87.8091168,4.16524217 C85.1937322,4.06837607 82.8205128,6.39316239 82.8205128,9.2022792 C82.8205128,12.1082621 84.951567,14.3361823 87.7606838,14.3361823 C89.2136752,14.3361823 90.0854701,13.9487179 90.9088319,13.3190883 L90.9088319,11.962963 L88.2450142,11.962963 L88.2450142,7.89458689 L95.5099715,7.89458689 L95.5099715,14.4814815 C93.4273504,17.2905983 90.7635328,18.4045584 87.7606838,18.4529915 C83.2564103,18.5014245 78.1709402,15.4985755 78.0740741,9.2991453 L78.0740741,9.2991453 Z" id="Path" fill="#000000"></path>
            <path d="M104.082621,18.2592593 L104.082621,0.435897436 L112.994302,0.435897436 C117.014245,0.435897436 119.193732,3.24501425 119.193732,6.49002849 C119.193732,9.68660969 117.014245,12.3988604 112.994302,12.3988604 L108.683761,12.3988604 L108.683761,18.2592593 L104.082621,18.2592593 Z M114.54416,6.44159544 C114.54416,5.23076923 113.623932,4.40740741 112.413105,4.40740741 L108.683761,4.40740741 L108.683761,8.47578348 L112.413105,8.47578348 C113.623932,8.47578348 114.54416,7.65242165 114.54416,6.44159544 L114.54416,6.44159544 Z" id="Shape" fill="#000000"></path>
            <polygon id="Path" fill="#000000" points="159.974359 18.2592593 159.974359 4.40740741 154.985755 4.40740741 154.985755 0.387464387 169.564103 0.387464387 169.564103 4.40740741 164.575499 4.40740741 164.575499 18.2108262"></polygon>
            <path d="M129.606838,0.0968660969 C124.521368,0.0968660969 120.404558,4.21367521 120.404558,9.2991453 C120.404558,14.3846154 124.521368,18.5014245 129.606838,18.5014245 C134.692308,18.5014245 138.809117,14.3846154 138.809117,9.2991453 C138.809117,4.21367521 134.692308,0.0968660969 129.606838,0.0968660969 Z M129.606838,14.1908832 C128.347578,14.1908832 127.233618,13.7549858 126.361823,12.980057 C125.344729,12.0598291 124.666667,10.7521368 124.666667,9.2991453 C124.666667,6.68376068 126.749288,4.5042735 129.316239,4.40740741 L129.558405,4.40740741 C129.849003,4.40740741 130.091168,4.40740741 130.381766,4.45584046 C130.527066,4.5042735 130.720798,4.5042735 130.866097,4.55270655 C131.059829,4.6011396 131.205128,4.64957265 131.39886,4.74643875 C131.447293,4.74643875 131.447293,4.74643875 131.495726,4.79487179 C133.239316,5.52136752 134.498575,7.26495726 134.498575,9.34757835 C134.547009,12.011396 132.319088,14.1908832 129.606838,14.1908832 L129.606838,14.1908832 Z" id="Shape" fill="#ED1C24"></path>
            <path d="M50.7578348,15.4501425 C49.8376068,14.5783476 47.7549858,12.5925926 47.7549858,12.5925926 C46.8831909,13.6581197 45.5270655,14.3846154 43.8319088,14.3846154 C40.9259259,14.3846154 38.8433048,11.7692308 38.8433048,9.2022792 C38.8433048,6.00569801 41.5555556,3.92307692 44.1225071,4.11680912 C45.8660969,4.26210826 46.8831909,4.94017094 47.7065527,5.86039886 C47.7065527,5.86039886 50.7094017,3.002849 50.7578348,2.95441595 C50.0797721,2.27635328 48.1424501,1.19479079e-16 43.9287749,1.19479079e-16 C38.3105413,-0.0484330484 34.0968661,3.77777778 34.0968661,9.10541311 C34.0968661,14.6267806 38.4558405,18.4529915 43.7834758,18.4529915 C47.6581197,18.4529915 49.5954416,16.7094017 50.7578348,15.4501425 L50.7578348,15.4501425 Z" id="Path" fill="#000000"></path>
            <path d="M139.34188,15.4501425 L142.393162,12.5925926 C143.894587,13.9487179 145.638177,14.5299145 147.623932,14.5299145 C149.222222,14.5299145 150.094017,13.9487179 150.094017,13.0769231 C150.094017,10.6552707 139.97151,12.6410256 139.97151,5.81196581 C139.97151,2.80911681 142.538462,0.0484330484 147.091168,0.0484330484 C150.820513,0.0484330484 153.145299,1.84045584 153.435897,1.98575499 L150.336182,4.89173789 C149.173789,4.31054131 147.91453,4.01994302 146.606838,4.01994302 C145.250712,4.01994302 144.717949,4.55270655 144.717949,5.32763533 C144.717949,7.55555556 154.792023,5.76353276 154.792023,12.5441595 C154.792023,16.1282051 151.982906,18.4529915 147.333333,18.4529915 C143.797721,18.4529915 141.279202,17.1937322 139.34188,15.4501425 L139.34188,15.4501425 Z" id="Path" fill="#000000"></path>
        </g>
    </g>
</svg>