<?xml version="1.0" encoding="UTF-8"?>
<svg width="36px" height="40px" viewBox="0 0 36 40" version="1.1" xmlns="http://www.w3.org/2000/svg" xmlns:xlink="http://www.w3.org/1999/xlink">
    <!-- Generator: Sketch 62 (91390) - https://sketch.com -->
    <title>Unilever</title>
    <desc>Created with Sketch.</desc>
    <defs>
        <polygon id="path-1" points="0 0 35.8553332 0 35.8553332 40 0 40"></polygon>
    </defs>
    <g id="UI-Design-(Teal)" stroke="none" stroke-width="1" fill="none" fill-rule="evenodd">
        <g id="Homepage-Teal" transform="translate(-997.000000, -842.000000)">
            <g id="Unilever" transform="translate(997.000000, 842.000000)">
                <g id="Clipped">
                    <mask id="mask-2" fill="white">
                        <use xlink:href="#path-1"></use>
                    </mask>
                    <g id="Path"></g>
                    <path d="M4.618,35.1677311 C4.55933333,34.9791597 4.388,34.5552941 4.34133333,34.242353 C4.23833334,33.5492437 4.59766667,33.0927731 4.92766667,32.9882353 C5.298,32.8840336 5.44266667,33.0715966 5.58599998,33.507563 C5.77133335,34.1714286 5.79200001,35.0413446 5.72966668,36.2867227 C5.64866668,37.9878992 4.80466667,40.042353 2.70666667,39.9996639 C0.895666669,39.9596639 0.0943333311,38.7768067 0.0109999994,36.9721008 C-0.0283333348,36.1213446 0.0320000012,35.2709244 0.381333334,34.0682353 C0.566666668,33.4242017 0.732000002,33.194958 1.307,33.0715966 C1.759,32.9882353 1.71833334,33.464874 1.616,34.0268908 C1.39066667,35.2709244 1.286,35.8715966 1.36933333,37.2830252 C1.45,38.7768067 2.13033334,39.3579832 2.871,39.3579832 C3.982,39.3794958 4.47533333,38.4460504 4.682,37.0961345 C4.845,36.0178151 4.722,35.4991597 4.618,35.1677311 L4.618,35.1677311 Z M28.306,36.6410084 C28.7386667,36.6410084 28.8626666,37.1569748 28.7593333,37.4695798 C28.656,37.7801681 28.2863333,38.1344538 27.7106666,38.237647 C27.5866667,37.9257143 27.5246667,36.6410084 28.306,36.6410084 L28.306,36.6410084 Z M20.264,37.3442017 C20.264,36.9929412 20.0776667,36.7021849 19.8533333,36.7021849 C19.666,36.7021849 19.2356667,36.9089075 19.2356667,37.5731092 C19.2356667,38.0934454 19.419,38.3401681 19.503,38.4460504 C20.098,38.2584874 20.264,37.7593277 20.264,37.3442017 L20.264,37.3442017 Z M13.8646667,33.1129412 C13.8356667,32.7801681 13.577,32.5536135 13.227,32.5536135 C12.8366667,32.5536135 12.469,32.9667227 12.508,33.4857143 C12.533,33.8278992 12.733,34.1092439 13.126,34.1092439 C13.577,34.1095798 13.906,33.5909244 13.8646667,33.1129412 Z M17.2103334,34.3314286 C17.1746667,33.7512605 17.0353333,33.4894118 16.7263333,33.5109244 C16.3166666,33.5357983 16.1273333,34.8356303 16.211,36.2020168 C16.2643333,37.0934454 16.396,37.2309244 16.5186667,37.2221849 C16.7453333,37.2084034 17.289,35.6157983 17.2103334,34.3314286 L17.2103334,34.3314286 Z M30.8573333,36.5152941 C30.6023334,37.5818487 29.8293333,39.1509244 28.676,39.1509244 C28.409,39.1509244 27.9356666,39.0463865 27.9356666,38.7768067 C27.9356666,38.4860504 29.7473334,38.4460504 29.7473334,37.055126 C29.7473334,36.5371429 29.2743333,35.8100841 28.5743333,35.8100841 C27.6486667,35.8100841 26.7456666,36.827563 26.7456666,38.2379832 C26.7456666,39.502521 27.5246667,39.917647 28.3063333,39.917647 C29.6646667,39.917647 30.4876667,38.7966386 30.9193333,37.8638655 C31.126,38.4863865 31.2473333,39.917647 31.7636667,39.917647 C31.9686667,39.917647 32.1136667,39.8137815 32.3606667,39.2544538 C32.9763334,37.8635294 33.5736667,36.2662185 34.397,36.2662185 C34.7046667,36.2662185 34.5203333,36.827563 35.2606667,36.827563 C35.6096667,36.827563 35.8556666,36.5371429 35.8556666,36.2036975 C35.8556666,35.7260504 35.4243334,35.3539496 34.7666666,35.3539496 C32.8323334,35.3539496 32.4223333,38.2793277 32.1133333,38.2793277 C31.5986666,38.2793277 31.7633334,35.9347899 31.3923334,35.9347899 C31.063,35.9344538 30.9013333,36.3300841 30.8573333,36.5152941 L30.8573333,36.5152941 Z M14.4,39.0043697 C14.7083334,39.0043697 15.2386667,38.9035294 15.656,38.2295798 C15.4173334,37.695126 15.247,36.615126 15.2233333,36.2218487 C15.1006667,34.2107563 15.869,32.3189916 16.71,32.2665546 C17.3266667,32.2289075 17.82,32.817479 17.8766667,33.7710925 C18.0283333,36.2769748 17.2006667,37.3230252 16.7863333,38.2255462 C16.8563333,38.5754622 17.445,39.1710925 18.0003334,39.1710925 C18.2053333,39.1710925 18.4533333,39.0672269 18.5156667,38.9831933 C18.4743333,38.8389916 18.4323334,38.652437 18.4323334,38.3818487 C18.4323334,36.9297479 19.3583333,35.7052101 20.161,35.7052101 C20.7986666,35.7052101 21.169,36.5556303 21.169,37.1169748 C21.169,37.7798319 20.613,38.3203361 19.7906666,38.8389916 C19.9353334,38.9831933 20.2013333,39.0880672 20.4286667,39.0880672 C21.6023334,39.0880672 22.2163333,37.6561345 22.671,36.3485714 C22.753,36.0991597 22.898,35.7472269 23.1853333,35.7472269 C23.679,35.7472269 23.8856666,39.0252101 24.7063333,39.0252101 C25.0573333,39.0252101 25.3446667,38.2984874 25.3446667,37.7398319 C25.3446667,37.3243697 25.2006667,37.2826891 25.2006667,36.6810084 C25.2006667,36.0178151 25.5506666,35.4581513 26.025,35.4581513 C26.3126667,35.4581513 26.4166667,35.7472269 26.4166667,36.0991597 C26.4166667,37.4272269 25.469,39.8964706 24.072,39.8964706 C23.021,39.8964706 23.103,38.0705882 22.733,38.0705882 C22.3196666,38.0705882 21.7436666,39.9169748 19.709,39.9169748 C19.3783333,39.9169748 19.0293333,39.7512605 18.742,39.4184874 C18.249,39.7512605 17.8363333,39.8964706 17.363,39.8964706 C16.6026666,39.8964706 16.2726667,39.1078992 15.965,39.1078992 C15.594,39.1078992 15.1836667,39.9169748 13.948,39.9169748 C12.9606667,39.9169748 12.796,38.5905882 12.447,38.5905882 C12.1376667,38.5905882 11.6646667,39.9169748 11.1506666,39.9169748 C10.2853333,39.9169748 10.102,37.6147899 9.33933334,37.6147899 C8.74299999,37.6147899 6.858,39.9529412 6.34633333,39.8994958 C6.14066666,39.8779832 6.05399998,39.7230252 6.07566666,39.5152941 C6.10466666,39.2282353 6.34966665,38.4598319 6.44900001,38.0964706 C6.61533336,37.4655462 6.768,36.7741176 6.85333335,36.5536135 C6.93799998,36.3310925 7.16633335,36.172437 7.34966668,36.1895798 C7.44199998,36.1983193 7.46966664,36.3721008 7.49833333,36.5156303 C7.60233334,37.0285714 7.74733331,37.5515966 7.911,37.5515966 C8.20000002,37.5515966 9.15433333,35.704874 9.70966667,35.704874 C10.3896667,35.704874 10.471,38.6100841 11.3963334,38.6100841 C11.7056667,38.6100841 11.9326667,38.2373109 12.1376667,37.7794958 C12.1586666,37.0107563 12.3643333,35.9136135 12.9813333,35.9136135 C13.4136667,35.9136135 13.6196667,36.8877311 13.31,37.7394958 C13.3093333,38.7552941 13.967,39.0043697 14.4,39.0043697 L14.4,39.0043697 Z" id="Shape" fill="#FFFFFF" fill-rule="nonzero" mask="url(#mask-2)"></path>
                </g>
                <path d="M28.8596313,6.24531745 C28.699366,6.24531745 28.4698156,6.24531745 28.343493,6.01488447 C28.2399154,5.82579482 28.2749078,5.52100792 28.08,5.38479928 C28.2749078,5.4370393 28.4810132,5.4370393 28.6412786,5.4370393 C29.1577668,5.4370393 29.65116,5.111741 30.0297781,5.111741 C30.2792741,5.111741 30.3597568,5.25884634 30.3597568,5.4053107 C30.3601066,5.8677791 29.341827,6.24531745 28.8596313,6.24531745 L28.8596313,6.24531745 Z M29.1115768,7.43145437 C30.3023691,7.43145437 31.3927332,6.56036004 31.3927332,5.7943867 C31.3927332,5.4370393 31.208673,5.1434696 30.7387247,5.09090909 C30.8188574,5.18545392 30.8531499,5.25884634 30.8531499,5.42678359 C30.8531499,6.00430825 29.8926078,6.64464912 28.8484337,6.64464912 C28.4698156,6.64464912 28.3550405,6.88565832 28.3550405,7.01161127 C28.3550405,7.30582195 28.6650734,7.43145437 29.1115768,7.43145437 L29.1115768,7.43145437 Z M29.0202465,7.8724499 C29.1696642,8.8691767 30.8188574,10.2129952 31.2657107,10.1812666 C31.564546,10.1581913 31.6789713,8.87975292 31.6789713,7.8724499 C31.6789713,7.29524574 31.7136138,6.84367399 31.3808358,6.73855301 C30.8528001,7.71508884 29.4677997,7.91443424 29.0202465,7.8724499 L29.0202465,7.8724499 Z" id="Shape" fill="#FFFFFF" fill-rule="nonzero"></path>
                <path d="M4.53491776,14.9108454 C4.91296451,14.9108454 4.83511136,12.5972692 5.44739749,12.5972692 C5.59256472,12.5972692 5.6371008,12.7419314 5.6371008,12.9198727 C5.6371008,13.4424903 5.38076336,14.2102865 5.38076336,14.6323877 C5.38076336,14.8439477 5.43651845,14.9108454 5.53680963,14.9108454 C5.80436609,14.9108454 6.27182497,12.3636364 6.72806484,12.3636364 C6.87289211,12.3636364 6.93952621,12.5082986 6.93952621,12.6529608 C6.93952621,13.1867846 6.26094596,14.7213583 6.26094596,15.1550053 C6.26094596,15.2219031 6.28270403,15.2772551 6.33879907,15.2772551 C6.61723459,15.2772551 7.17376565,14.076491 7.35157,13.476109 C7.45186118,13.1643722 7.58546944,12.9972975 7.70819863,12.9972975 C7.81936882,12.9972975 7.92,13.1198868 7.92,13.3759321 C7.92,13.9763141 7.36278901,15.3886382 6.87289211,16.3343757 C6.49484534,17.0682137 5.90465727,18.1239759 5.90465727,18.7134914 C5.90465727,19.014022 5.95939248,19.3250796 6.39387422,19.7033746 C5.68129692,19.6588893 5.39198237,19.5923311 5.12510584,19.0364344 C3.93351066,21.405023 7.31825292,21.1717298 6.16031478,23.2727273 C5.94851341,22.895451 4.27892028,22.5059498 4.27892028,20.3040962 C4.27892028,18.4024337 5.94851341,17.2903007 5.94851341,16.5011107 C5.94851341,16.3455819 5.89343826,16.2121259 5.748611,16.0898762 C5.38076336,15.7777998 5.36954434,15.5227733 5.08022979,15.5227733 C4.86910836,15.5227733 4.61209097,16.0117722 4.87964744,16.4454192 C4.96905957,16.5900814 5.04691272,16.679052 5.04691272,16.812508 C5.04691272,17.1235657 4.55667585,17.9572409 4.21194617,17.9572409 C3.86653655,17.9572409 3.6,17.1021719 3.6,15.7224479 C3.6,14.4985922 3.87775557,13.2648886 4.22316518,13.2648886 C4.32311639,13.2648886 4.35643346,13.3314468 4.35643346,13.420757 C4.35643346,13.5654192 4.31223735,13.8540644 4.31223735,14.3434029 C4.31223735,14.8660205 4.43462658,14.9108454 4.53491776,14.9108454" id="Path" fill="#FFFFFF" fill-rule="nonzero"></path>
                <path d="M7.09214576,18.638974 C7.5683744,18.638974 7.964367,18.2844193 7.964367,17.4979147 L7.964367,16.3328002 C7.964367,15.8876024 7.99860564,15.3855781 8.29326564,15.0310235 C8.259027,15.1798876 8.259027,15.3395592 8.259027,15.4880747 C8.259027,16.4701596 8.80234954,17.1440574 8.80234954,18.0912795 C8.80234954,18.4447882 8.70032525,18.6393226 8.42918276,18.6393226 C8.16841558,18.6393226 8.19124135,18.3994666 8.13417689,18.3994666 C8.08921705,18.3994666 8.02108559,18.5476334 8.02108559,18.7076537 C8.02108559,18.9475097 8.19089547,19.3240279 8.66643242,19.3240279 C9.0745296,19.3240279 9.40239073,18.9475097 9.40239073,18.5249726 C9.40239073,17.4982634 8.60971384,16.3558097 8.60971384,15.2600721 C8.60971384,14.78036 8.73421808,14.4610169 8.83624237,14.2093075 C8.83624237,16.4816644 10.7501489,18.1369498 10.7501489,19.0841718 C10.7501489,19.301367 10.5917519,19.472892 10.3538104,19.472892 C10.0933891,19.472892 9.96853909,19.2668529 9.96853909,19.1068326 C9.96853909,19.0269969 9.95712621,19.0043361 9.92323339,19.0043361 C9.85579361,19.0043361 9.65174502,19.2326874 9.65174502,19.530067 C9.65174502,19.9062365 9.95712621,20.3636364 10.5236204,20.3636364 C11.1686214,20.3636364 11.52,19.814896 11.52,19.3240279 C11.52,18.1257936 9.19834215,16.3101394 9.19834215,14.3696763 C9.19834215,14.0381312 9.25436904,13.5015928 9.49300214,13.0909091 C7.99791395,14.060792 7.53378988,15.3514126 7.53378988,16.4816644 C7.53378988,17.4637492 7.49989706,17.9539201 7.00153434,17.9539201 C6.74076717,17.9539201 6.67298158,17.7147613 6.58202429,17.7147613 C6.5142387,17.7147613 6.48,17.9201032 6.48,17.9769295 C6.48069169,18.399118 6.78676457,18.638974 7.09214576,18.638974" id="Path" fill="#FFFFFF" fill-rule="nonzero"></path>
                <path d="M23.8282196,5.55327133 C23.9722774,5.44957433 24.6115335,5.61385417 25.4381339,5.17527905 C25.5399439,5.11543956 25.6421002,5.09090909 25.7328288,5.09090909 C26.1303728,5.09090909 26.0282165,5.57743012 26.3914773,5.57743012 C26.6743984,5.57743012 27.0383519,5.32171854 27.2540922,5.32171854 C27.5920737,5.32171854 28.08,6.46610219 28.08,7.00168416 C28.08,7.62237945 27.2083816,8 26.175737,8 C24.6683254,8 23.76,6.58801122 23.76,5.67480865 C23.7603463,5.60196056 23.7946293,5.57743012 23.8282196,5.55327133 L23.8282196,5.55327133 Z M26.3007487,7.09906268 C26.8001026,7.09906268 27.1744449,6.85561634 27.1744449,6.70917688 C27.1744449,6.66123095 27.1065715,6.62443526 26.9587046,6.62443526 C26.811184,6.62443526 26.5161427,6.61254166 25.9599968,6.51479149 C25.4828056,6.42967815 25.119891,6.23492111 24.983798,6.23492111 C24.9384337,6.23492111 24.9155784,6.2590799 24.9155784,6.29550394 C24.9155784,6.61254166 25.4606429,7.09906268 26.3007487,7.09906268 L26.3007487,7.09906268 Z" id="Shape" fill="#FFFFFF" fill-rule="nonzero"></path>
                <path d="M7.42249067,22.9041653 C7.06115238,22.9864154 6.48,23.5180704 6.48,24.3590235 C6.48,25.3619749 7.63059478,26.9090909 9.52594792,26.9090909 C11.1252045,26.9090909 11.52,25.8745529 11.52,25.1774594 C11.52,23.6312816 10.5015613,22.5454545 9.17598512,22.5454545 C8.45263939,22.5454545 7.80591079,23.037079 7.80591079,23.7638827 C7.80591079,24.4406481 8.35394051,25.4542327 9.65743492,25.4542327 C10.2710409,25.4542327 10.6323792,25.0439202 10.6323792,24.5741874 C10.6323792,24.1128985 10.1833829,23.4783527 9.52561338,23.4783527 C9.32855015,23.4783527 9.18635686,23.6000078 9.18635686,23.7954692 C9.18635686,24.040656 9.54736055,24.2870937 9.99702598,24.2870937 C10.1060966,24.2870937 10.1940892,24.266453 10.2382528,24.2458122 C10.2596654,24.2773988 10.2710409,24.3280624 10.2710409,24.3690311 C10.2710409,24.6048357 10.0298141,24.7483825 9.65743492,24.7483825 C9.09869886,24.7483825 8.56171002,24.3593362 8.56171002,23.7435546 C8.56171002,23.3757745 8.90163568,23.1096343 9.39446098,23.1096343 C10.3694052,23.1096343 10.9498885,23.9183753 10.9498885,24.7280545 C10.9498885,25.4545454 10.5233085,25.8751783 9.64639404,25.8751783 C7.89323419,25.8748656 7.03940521,24.3996794 7.42249067,22.9041653" id="Path" fill="#FFFFFF" fill-rule="nonzero"></path>
                <path d="M20.1527501,29.0722076 C20.6887307,29.0722076 20.6607546,29.0256064 20.828611,29.0256064 C20.9957851,29.0256064 21.007385,29.130548 21.007385,29.2006276 C21.007385,29.4571118 20.4594634,29.7715806 19.4874655,29.7715806 C18.917709,29.7715806 18.5710786,29.4567561 18.4707741,29.1074253 C17.9122763,29.4802345 17.0634413,29.8181818 16.2251827,29.8181818 C13.935239,29.8181818 13.3542238,28.7805058 12.638787,28.4436257 C12.0912066,28.1871414 11.2532891,28.6883707 10.08,27.325198 C10.2365978,27.3604157 10.4491477,27.3717991 10.6166629,27.3717991 C11.6439306,27.3717991 12.191511,26.8485145 12.191511,26.0089822 C12.191511,25.903685 12.1802523,25.7884272 12.1689937,25.6838414 C12.4821892,25.8119056 13.197626,26.370408 13.3654824,27.3604157 C13.3873174,27.4770964 13.8451697,27.5816822 14.1358479,27.5816822 C14.5384304,27.5816822 15.0522348,27.4066611 15.1303631,26.7200945 C16.4711674,26.6037695 17.3766368,25.7770437 17.5666694,24.7272727 C18.0463567,24.8905546 18.5939371,25.3448269 18.7280175,25.5785442 C18.9180501,25.5088203 19.1411763,25.4736026 19.3980786,25.4736026 C19.7556264,25.4736026 20.1582089,25.5436822 20.6382373,25.6952249 C20.6607546,25.5436822 20.6829307,25.3572776 20.9067394,25.3572776 C21.2417699,25.3572776 21.1523829,25.741826 21.2642872,25.9620254 C21.3202393,26.0787061 21.6,26.14843 21.6,26.3817915 C21.6,26.6037695 21.4202026,26.6855883 21.3086394,26.6855883 C21.263946,26.6855883 21.2079938,26.6738491 21.1742179,26.6624656 C20.9510916,26.7439287 20.9394918,28.420503 20.0012699,28.420503 C19.3090327,28.420503 18.6720654,27.8264272 18.3923047,27.0815202 C18.3141764,26.8602537 18.1466612,26.7200945 17.9900634,26.7200945 C17.8116307,26.7200945 17.710985,26.7553121 17.4991175,27.0000571 C16.8959261,27.6866237 15.8901522,28.2806995 14.6499935,28.2806995 C14.2699283,28.2806995 13.9683326,28.2451261 13.8898632,28.2451261 C13.8448285,28.2451261 13.8448285,28.2568653 13.8448285,28.2682488 C13.8448285,28.3500676 14.2245525,28.6648922 15.0515525,28.6648922 C17.0180655,28.6648922 17.4987763,27.5112469 17.8112895,27.5112469 C17.8566653,27.5112469 17.9897222,27.5112469 18.0678505,27.6980072 C18.5267263,28.8157234 19.5270414,29.0722076 20.1527501,29.0722076 L20.1527501,29.0722076 Z M19.2865154,26.7439287 C19.2865154,27.0004129 19.4878067,27.2102959 19.7337914,27.2102959 C19.9797761,27.2102959 20.1807262,27.0004129 20.1807262,26.7439287 C20.1807262,26.4870887 19.9797761,26.2772057 19.7337914,26.2772057 C19.4878067,26.2772057 19.2865154,26.4870887 19.2865154,26.7439287 Z" id="Shape" fill="#FFFFFF" fill-rule="nonzero"></path>
                <path d="M27.3679831,21.5415797 C27.2246878,21.5415797 27.0714024,21.6597294 27.0714024,21.9497034 C27.0714024,22.2701149 27.3067939,22.4743403 27.4394747,22.5381608 C27.5112785,22.5816896 27.6239792,22.6245638 27.7354311,22.6245638 C28.0323241,22.6245638 28.2680277,22.5381608 28.2680277,22.2805879 C28.2677156,21.9497034 27.8069227,21.5415797 27.3679831,21.5415797 L27.3679831,21.5415797 Z M26.2650148,22.2056398 C26.050228,22.2056398 24.8626561,23.8669355 24.0974777,23.8669355 C23.9135976,23.8669355 23.76,23.502668 23.76,23.2251308 C23.76,23.0749072 23.8517839,22.9675579 24.1798959,22.8919552 C25.9378394,22.4740131 25.5488503,21.0909091 27.0504856,21.0909091 C27.8784143,21.0909091 28.8,21.6813302 28.8,23.0097776 C28.8,24.4246281 26.8790931,26.1818182 26.5925024,26.1818182 C26.357111,26.1818182 26.1014272,25.828351 26.1014272,25.5927062 C26.1014272,25.5177581 26.132334,25.4212092 26.3368186,25.3354607 C27.3170961,24.9276643 27.8787265,23.9847579 27.8787265,23.5020134 C27.8787265,23.3946641 27.8278394,23.288624 27.6948464,23.288624 C27.5212686,23.288624 26.7770069,25.0670874 25.9478295,25.0670874 C25.374336,25.0670874 24.7911645,24.5218316 24.7911645,24.2639315 C24.7911645,23.8345343 26.4492071,23.0421788 26.4492071,22.4412846 C26.4488949,22.2157856 26.3468087,22.2056398 26.2650148,22.2056398 Z" id="Shape" fill="#FFFFFF" fill-rule="nonzero"></path>
                <path d="M5.18411132,7.20661743 C5.18411132,7.20661743 4.87599047,7.43769662 4.49319333,7.43769662 C4.03636926,7.43769662 3.67467629,7.1012016 3.67467629,6.62747319 C3.67467629,6.30094125 3.84480835,5.96444628 4.23799523,5.79571669 C4.22760549,5.85903045 4.22760549,5.91141697 4.22760549,5.97473073 C4.22728081,6.57508667 4.56754493,7.02728197 5.18411132,7.20661743 L5.18411132,7.20661743 Z M7.45946533,9.22751577 C7.22569605,9.50069703 6.9808877,9.96414094 6.9808877,10.437548 C6.9808877,11.0057649 7.33219092,11.479172 7.8744057,11.479172 C8.39519165,11.479172 8.64,11.0372611 8.64,10.5850658 C8.64,9.87993685 7.99129034,9.38467532 7.45946533,9.22751577 L7.45946533,9.22751577 Z M3.92987438,9.64821487 C3.90974425,9.68067523 3.89773111,9.72213451 3.89773111,9.76423657 C3.89773111,9.85904653 4.00422599,9.96414094 4.09935708,9.96414094 C4.18442312,9.96414094 4.23767055,9.94325062 4.28020357,9.94325062 C4.53507698,9.94325062 4.82241834,10.1219433 5.23703408,10.1219433 C5.48119307,10.1219433 5.76853443,10.0480237 6.12990271,9.8696524 C6.89549701,9.49041258 7.19355279,8.55388299 7.19355279,8.39575927 C7.19355279,8.19553349 7.03121306,8.22188746 6.89549701,8.03773114 C6.75978096,7.85421766 6.81172968,7.69191583 6.72536493,7.60610479 C6.67633834,7.55693218 6.52373896,7.55371827 6.33185339,7.53250658 C6.26789154,7.5257574 6.1828255,7.52190071 6.09775946,7.52190071 C5.74743026,7.52190071 5.33151581,7.56464551 4.86462668,7.85903852 C3.94253688,8.44171798 4.07825292,9.40620844 3.92987438,9.64821487 L3.92987438,9.64821487 Z M6.4282832,8.34305138 C6.50198541,8.44236077 6.70523481,8.56448886 6.70523481,8.63808713 C6.70523481,8.78496218 6.61951941,8.97490352 6.44971204,8.97490352 C6.07730463,8.97490352 5.77989822,8.41697102 5.77989822,8.10072353 C5.77989822,7.90114053 5.89710751,7.88025021 6.0562005,7.88025021 C6.13055207,7.88025021 6.16269537,7.89085608 6.21561811,7.92235228 C6.31107391,7.97506017 6.31107391,8.18524904 6.4282832,8.34305138 L6.4282832,8.34305138 Z M5.44969915,9.62732455 C5.09904529,9.62732455 4.71624815,9.19601963 4.71624815,8.80617393 C4.71624815,8.59598506 4.87566579,8.33244551 4.99255041,8.33244551 C5.03508343,8.33244551 5.05651227,8.36426308 5.06690202,8.43818271 C5.1305392,8.95369177 5.471128,9.24872751 5.79028796,9.39560262 C5.82210655,9.41649294 5.8435354,9.42709882 5.8435354,9.44798914 C5.8435354,9.52190877 5.64126007,9.62732455 5.44969915,9.62732455 L5.44969915,9.62732455 Z M6.35393158,6.97489545 C6.40685437,6.80616586 6.44938733,6.59629841 6.44938733,6.36425506 C6.44938733,5.85935182 6.21496875,5.09090909 5.49223217,5.09090909 C5.07794112,5.09090909 4.77956065,5.41711963 4.77956065,5.80664393 C4.77956065,6.63840043 5.61983122,6.97489545 6.35393158,6.97489545 Z M3.6,11.184779 C3.6,11.9843965 3.84480835,12.3636364 4.28052825,12.3636364 C4.62079237,12.3636364 5.07794112,12.1213086 5.61983122,11.658186 C5.20554017,11.752996 4.88605553,11.8163097 4.59936352,11.8163097 C4.21656639,11.8163097 3.91915996,11.6687919 3.6,11.184779 L3.6,11.184779 Z M3.9724074,10.2479281 C3.96201765,10.3009574 3.96201765,10.3533439 3.96201765,10.4057304 C3.96201765,10.9003491 4.22728081,11.1741732 4.57825936,11.1741732 C4.84319783,11.1741732 5.15229273,11.0163708 5.42794563,10.6686272 C5.31171037,10.6895175 5.17307221,10.7001234 5.04547317,10.7001234 C4.65261097,10.7001234 4.22728081,10.5953503 3.9724074,10.2479281 L3.9724074,10.2479281 Z M6.5773111,10.1007316 C6.33217804,10.1637239 5.82210655,10.4584383 5.82210655,10.9845532 C5.82210655,11.3631503 6.119513,11.6057995 6.49192035,11.6057995 C6.68348127,11.6057995 6.82147009,11.5633761 6.90653613,11.5003837 C6.6091297,11.2162752 6.50263477,10.9003491 6.50263477,10.5850658 C6.50263477,10.3636284 6.53445337,10.2270377 6.5773111,10.1007316 L6.5773111,10.1007316 Z M6.95978357,7.21690188 C6.95978357,7.44830244 7.15101978,7.63824378 7.384789,7.63824378 C7.61888294,7.63824378 7.81044385,7.44862386 7.81044385,7.21690188 C7.81044385,6.98550132 7.61888294,6.79555999 7.384789,6.79555999 C7.15101978,6.79555999 6.95978357,6.98550132 6.95978357,7.21690188 Z M7.51238806,8.16403729 C7.51238806,8.39575927 7.70427368,8.58537919 7.93869226,8.58537919 C8.17213684,8.58537919 8.36369775,8.39575927 8.36369775,8.16403729 C8.36369775,7.9329581 8.17213684,7.74333819 7.93869226,7.74333819 C7.70394897,7.74333819 7.51238806,7.9329581 7.51238806,8.16403729 L7.51238806,8.16403729 Z" id="Shape" fill="#FFFFFF" fill-rule="nonzero"></path>
                <path d="M24.3253166,14.1202695 C24.3253166,13.9026865 24.5202045,13.717375 24.7339205,13.717375 C24.9724105,13.717375 25.1563979,13.9026865 25.1563979,14.1202695 C25.1563979,14.3707893 24.9720802,14.5454545 24.7339205,14.5454545 C24.5202045,14.5454545 24.3253166,14.3707893 24.3253166,14.1202695 Z M20.5273142,10.764701 C20.5273142,11.0042418 20.7225324,11.2005323 20.9597012,11.2005323 C21.1985214,11.2005323 21.3934093,11.0042418 21.3934093,10.764701 C21.3934093,10.5254928 21.1981911,10.3292023 20.9597012,10.3292023 C20.7225324,10.3292023 20.5273142,10.5254928 20.5273142,10.764701 Z M20.16,12.3007569 C20.16,12.6387756 20.4404404,12.921567 20.7763744,12.921567 C21.1113174,12.921567 21.3934093,12.6387756 21.3934093,12.3007569 C21.3934093,11.9634035 21.1113174,11.6796141 20.7763744,11.6796141 C20.4404404,11.6796141 20.16,11.9634035 20.16,12.3007569 Z M21.5232245,11.6034267 C21.5232245,11.9743824 21.8155564,12.2681527 22.181219,12.2681527 C22.5488635,12.2681527 22.8421864,11.9743824 22.8421864,11.6034267 C22.8421864,11.2331365 22.5488635,10.9390335 22.181219,10.9390335 C21.8155564,10.9390335 21.5232245,11.2331365 21.5232245,11.6034267 Z M21.5777271,10.1871413 C21.5777271,10.4163686 21.7617145,10.6020128 21.9866614,10.6020128 C22.2139205,10.6020128 22.397908,10.4163686 22.397908,10.1871413 C22.397908,9.95891208 22.2135903,9.77360056 21.9866614,9.77360056 C21.7617145,9.77360056 21.5777271,9.95891208 21.5777271,10.1871413 Z M23.5348643,9.14181149 C23.5348643,9.37004077 23.7188518,9.55535223 23.9464412,9.55535223 C24.1737004,9.55535223 24.3580181,9.37004077 24.3580181,9.14181149 C24.3580181,8.9125842 24.1737004,8.72727273 23.9464412,8.72727273 C23.7188518,8.72727273 23.5348643,8.9125842 23.5348643,9.14181149 Z M22.7229414,10.4819096 C22.7229414,10.8628462 23.036744,11.1785744 23.4156194,11.1785744 C23.794825,11.1785744 24.1089579,10.8628462 24.1089579,10.4819096 C24.1089579,10.0999751 23.7951553,9.78457953 23.4156194,9.78457953 C23.036744,9.78457953 22.7229414,10.0999751 22.7229414,10.4819096 Z M21.609768,13.0310238 C21.609768,13.2708974 21.8046559,13.4665225 22.0408337,13.4665225 C22.2789933,13.4665225 22.4742116,13.2708974 22.4742116,13.0310238 C22.4742116,12.7911503 22.2789933,12.5951925 22.0408337,12.5951925 C21.8046559,12.5951925 21.609768,12.7911503 21.609768,13.0310238 Z M23.0261738,12.1590285 C23.0261738,12.3989021 23.2207314,12.5951925 23.4595517,12.5951925 C23.697381,12.5951925 23.892269,12.3989021 23.892269,12.1590285 C23.892269,11.9198203 23.697381,11.7235299 23.4595517,11.7235299 C23.2207314,11.7235299 23.0261738,11.9198203 23.0261738,12.1590285 Z M22.6258278,13.6954171 C22.6258278,14.1092905 22.961101,14.4473093 23.3726779,14.4473093 C23.7839245,14.4473093 24.1201888,14.1092905 24.1201888,13.6954171 C24.1201888,13.2815437 23.7839245,12.9435249 23.3726779,12.9435249 C22.961101,12.9435249 22.6258278,13.2815437 22.6258278,13.6954171 Z M24.1842705,12.7688597 C24.1842705,13.0526491 24.41186,13.2815437 24.6913095,13.2815437 C24.9727408,13.2815437 25.2,13.0526491 25.2,12.7688597 C25.2,12.4860684 24.9727408,12.2571737 24.6913095,12.2571737 C24.41186,12.2571737 24.1842705,12.4860684 24.1842705,12.7688597 Z M24.1518993,11.3961574 C24.1518993,11.6473426 24.3580181,11.8542793 24.6041054,11.8542793 C24.8534959,11.8542793 25.0592843,11.6473426 25.0592843,11.3961574 C25.0592843,11.1459702 24.8534959,10.9390335 24.6041054,10.9390335 C24.3580181,10.9390335 24.1518993,11.1459702 24.1518993,11.3961574 Z" id="Shape" fill="#FFFFFF" fill-rule="nonzero"></path>
                <path d="M25.3481233,25.9256274 C25.0778854,26.145891 24.4460617,26.6398052 23.3958767,26.6398052 C22.8347842,26.6398052 22.585163,26.4527827 22.5020617,26.4527827 C22.3980265,26.4527827 22.2838414,26.5625787 22.1693392,26.7059514 C21.9225727,27.0141862 21.6,27.5859985 21.6,28.2122052 C21.6,28.651725 21.9225727,29.0909091 22.5226784,29.0909091 C24.4669956,29.0909091 25.92,27.804919 25.92,26.7610174 C25.92,26.1677159 25.5875947,25.9256274 25.3481233,25.9256274 Z M24.8079648,25.8047511 C24.8920176,25.7288676 24.9116828,25.6069839 24.9116828,25.485436 L24.9116828,25.232603 C24.9116828,24.913288 24.4565287,24.7272727 23.8326344,24.7272727 C23.0736211,24.7272727 22.6682643,25.0892302 22.6682643,25.2436833 L22.6682643,25.7493494 C22.6682643,25.9588684 23.125956,26.1677159 23.6873656,26.1677159 C24.1342731,26.1677159 24.53963,26.0468396 24.8079648,25.8047511 L24.8079648,25.8047511 Z M24.7242291,26.8933098 C24.7765639,26.8933098 24.8384141,26.9258793 24.8384141,27.124318 C24.8384141,27.3657349 24.7350132,27.6843784 24.3626432,27.9368757 C24.1028723,28.1245698 23.7492158,28.2786871 23.229674,28.2884244 C23.3127753,28.0255184 23.3752599,27.7498531 23.3752599,27.4872828 C23.3752599,27.3989759 23.3651101,27.3328297 23.3546432,27.234114 L23.4897621,27.234114 C24.3109428,27.2344498 24.6645991,26.8933098 24.7242291,26.8933098 L24.7242291,26.8933098 Z" id="Shape" fill="#FFFFFF" fill-rule="nonzero"></path>
                <path d="M20.1752575,13.0909091 C20.2995264,14.0328424 21.5895064,13.5561199 21.5895064,14.6978162 C21.5895064,14.8643982 21.5442863,15.1088539 21.5442863,15.3191129 C21.5442863,15.5632301 21.5663785,15.7738277 21.7569242,15.7738277 C21.9488506,15.7738277 21.9944158,15.6411038 21.9944158,15.4633486 C21.9944158,15.2855934 21.9488506,15.0641612 21.9488506,14.9422719 C21.9488506,14.5539191 22.2319074,14.4655493 22.4020868,14.4655493 C22.8318499,14.4655493 23.1597817,14.8979177 23.8049443,14.8979177 C23.6575476,15.6075842 22.1642499,15.4189944 22.1642499,16.1953614 C22.1642499,16.5837143 22.5601844,16.6717454 22.8204586,16.6717454 C23.0579503,16.6717454 23.1373443,16.6385644 23.1373443,16.4394786 C23.1373443,16.3280853 23.1145617,16.2061961 23.1145617,16.1286609 C23.1145617,16.0839682 23.1487356,16.039614 23.2053469,16.039614 C23.4549203,16.039614 24.6734457,16.9490435 24.6734457,17.2266802 C24.6734457,17.4812934 23.3862272,17.7362452 23.0130754,17.7362452 C22.8998526,17.7362452 22.87707,17.65871 22.87707,17.6143558 C22.87707,17.5368207 23.0693416,17.3038768 23.0693416,17.1711529 C23.0693416,17.0712714 22.8998526,17.0045708 22.4469616,17.0045708 C22.2319074,17.0045708 22.0734646,17.0269172 22.0734646,17.1934993 C22.0734646,17.492128 22.5712305,17.858473 22.5712305,18.135094 C22.5712305,18.3572034 22.4355703,18.4902658 22.0734646,18.4902658 C21.7679703,18.4902658 21.3061043,18.2569832 21.3061043,17.8693076 C21.3061043,17.5588285 21.6323101,17.2490266 21.6323101,17.0600982 C21.6323101,17.0045708 21.5891612,16.9158625 21.453501,16.9158625 C21.0344387,16.9158625 20.9215612,18.0020315 19.44,18.1242594 C19.6774916,17.9136618 19.8804641,17.6807178 19.8804641,17.2046724 C19.8804641,16.9717285 19.8245432,16.7828001 19.8245432,16.5281869 C19.8245432,16.1953614 19.9822956,16.0287794 20.2083959,16.0287794 C20.6264226,16.0287794 20.8300855,16.6050449 21.1024414,16.6050449 C21.2498381,16.6050449 21.4079357,16.4726596 21.4079357,16.2728966 C21.4079357,15.4301676 19.7568856,15.5520569 19.7568856,14.3656678 C19.7572309,14.0440156 19.8697632,13.6448281 20.1752575,13.0909091 L20.1752575,13.0909091 Z M25.567146,16.3395971 C25.567146,16.6162181 25.6582765,16.9378703 25.9409882,16.9378703 C26.1784798,16.9378703 26.3817975,16.5837143 26.3817975,16.1953614 C26.3817975,15.7518199 26.3027487,15.4078212 26.3027487,15.230066 C26.3027487,15.1528695 26.3369226,15.1196885 26.3817975,15.1196885 C26.5516317,15.1308617 26.7097293,15.5852379 26.8912999,15.5852379 C27.0949628,15.5852379 27.398386,15.2188929 27.5223097,15.2188929 C27.5564836,15.2188929 27.5675297,15.2635856 27.5675297,15.2744202 C27.5675297,15.4410022 27.3072555,15.8073472 27.3072555,15.9512443 C27.3072555,16.0731336 27.9634642,16.0951414 27.9634642,16.2061961 C27.9634642,16.3727781 27.2754978,16.3727781 26.9479113,16.5170137 C26.6313709,16.6497376 26.4380637,16.8159811 26.4380637,17.0380904 C26.4380637,17.2598612 26.6645092,17.3038768 26.9813948,17.3038768 C27.7366735,17.3038768 28.2682681,16.905028 28.437757,16.905028 C28.4715858,16.905028 28.4940233,16.9266971 28.4940233,16.9602167 C28.4940233,17.0712714 28.1098253,17.4369392 28.1098253,17.6035213 C28.1098253,17.7917725 28.811254,18.0128661 28.7998627,18.1242594 C28.7888166,18.1574403 28.7432514,18.1682749 28.6642025,18.1682749 C28.5392433,18.1682749 28.3473169,18.135094 28.1999202,18.135094 C28.1094801,18.135094 28.0304313,18.1459286 27.9959121,18.1902827 C27.9175537,18.2793296 28.0186948,18.8671069 27.8612875,18.8671069 C27.7138909,18.8671069 27.3293477,17.5588285 26.4608463,17.5588285 C26.3362322,17.5588285 26.2457921,17.65871 26.2457921,17.8249535 C26.2457921,18.2681564 26.6869466,18.7780599 27.1056637,19.0221771 C27.2951738,19.1444049 27.6124046,19.2662942 27.6124046,19.3333333 C27.6124046,19.4657186 26.8906095,19.3441679 26.8906095,19.5656001 C26.8906095,19.7653631 26.9810497,20.0653462 26.9810497,20.2420856 C26.9810497,20.297613 26.9696584,20.3636364 26.9020008,20.3636364 C26.7663406,20.3636364 26.4377185,19.7541899 26.2796209,19.7541899 C26.1439607,19.7541899 25.8498577,20.1198578 25.7252436,20.1198578 C25.6914149,20.1198578 25.6689774,20.0866768 25.6689774,20.0538345 C25.6689774,19.7985441 26.0876945,19.2222787 26.0876945,18.6565092 C26.0876945,18.3903843 26.0535206,17.8137803 25.7252436,17.8137803 C25.4539232,17.8137803 25.1480838,18.2349755 25.0124236,18.6565092 C24.9337199,18.9002878 24.9899861,19.8428983 24.8087607,19.8428983 C24.6392717,19.8428983 24.6844918,19.2111055 24.4577011,19.2111055 C24.2909737,19.2111055 23.928868,19.5100728 23.8042539,19.5100728 C23.7814713,19.5100728 23.7586886,19.4988996 23.7586886,19.4768918 C23.7586886,19.3441679 24.0869656,18.911461 24.0869656,18.8227527 C24.0869656,18.6565092 23.3403168,18.6345014 23.3403168,18.501439 C23.3403168,18.4235653 23.6344198,18.3683765 23.9057401,18.3236838 C24.4808289,18.2238023 25.328964,17.8137803 25.328964,17.2375148 C25.328964,16.5945488 24.6955379,16.3169121 24.2792371,16.0507872 C24.064183,15.9177247 23.8266914,15.8073472 23.8266914,15.7186389 C23.8266914,15.629592 24.0980117,15.629592 24.2112345,15.629592 C24.3807234,15.629592 24.5484864,15.6184188 24.5484864,15.4856949 C24.5484864,15.3854749 24.5257038,15.186389 24.5257038,15.0309802 C24.5257038,14.9199255 24.5367499,14.8312172 24.5826603,14.8312172 C24.7521493,14.8312172 24.9896409,15.3743017 25.1032089,15.3743017 C25.2837439,15.3743017 25.5326269,14.9307601 25.7028062,14.9307601 C25.7587272,14.9307601 25.781855,14.9642797 25.781855,15.0638226 C25.7825454,15.4741832 25.567146,15.9397326 25.567146,16.3395971 L25.567146,16.3395971 Z" id="Shape" fill="#FFFFFF" fill-rule="nonzero"></path>
                <path d="M20.5793983,19.0278715 C21.0742753,19.0957625 21.1927438,19.2760012 21.1927438,19.4231559 C21.1927438,19.6716302 20.9774658,19.7502046 20.7726891,19.7502046 C20.6227165,19.7502046 20.4504284,19.7164314 20.267639,19.7164314 C20.0307019,19.7164314 19.7947493,19.7729498 19.6014585,20.0100515 C19.7409298,20.0324521 19.9453783,20.134461 19.9453783,20.3605347 C19.9453783,21.0149768 18.215278,20.4725377 18.215278,22.1549949 C18.215278,23.046194 19.0967365,24.0173461 20.4287694,24.0173461 C21.1175934,24.0173461 21.5583227,23.7802444 21.5583227,23.5086802 C21.5583227,23.2946684 21.193072,23.4407892 21.193072,23.2602059 C21.193072,23.1812868 21.3220419,23.0341321 21.3220419,22.909378 C21.3220419,22.8549274 21.2790519,22.7525739 21.193072,22.7525739 C20.9987967,22.7525739 20.6332179,23.0789334 19.8915588,23.0789334 C19.3110301,23.0789334 18.7413309,22.7301733 18.7413309,22.2556252 C18.7413309,22.1543057 18.784649,22.0974426 18.8489699,22.0974426 C18.9136189,22.0974426 18.9992707,22.142933 19.0747493,22.142933 C19.1393984,22.142933 19.1498997,22.0974426 19.1498997,21.9737224 C19.1498997,21.8493129 19.1498997,21.4991743 19.3536919,21.4991743 C19.5584685,21.4991743 19.9453783,22.2893985 21.4293528,22.2893985 C21.9219325,22.2893985 22.8791978,22.1884235 23.2342753,21.8493129 C23.2234458,23.0909952 22.2980127,24.7272727 20.3644485,24.7272727 C18.3547493,24.7272727 17.28,23.0341321 17.28,21.4764291 C17.28,19.7502046 18.6228623,18.1818182 20.4612579,18.1818182 C20.9334913,18.1818182 21.3322151,18.3506842 21.3322151,18.5653853 C21.331887,18.8593501 20.6328897,18.6784222 20.5793983,19.0278715 L20.5793983,19.0278715 Z M23.8791249,19.626829 C23.9542753,19.7502046 23.9867639,19.874614 23.9867639,19.9873063 C23.9867639,20.3036717 23.7823154,20.5969472 23.7823154,20.9246851 C23.7823154,21.2968797 24.0514129,21.6011832 24.4580127,21.6011832 C24.898742,21.6011832 25.2,21.2296779 25.2,20.7889031 C25.2,20.1906348 24.6837921,19.6830028 23.8791249,19.626829 L23.8791249,19.626829 Z M20.3211303,20.3488175 C20.428113,20.4611651 20.4609298,20.5742019 20.4609298,20.6872388 C20.4609298,20.8564495 20.3857794,21.0373774 20.3857794,21.2293333 C20.3857794,21.4991743 20.5793983,21.7366206 20.8583409,21.7366206 C21.159927,21.7366206 21.3647037,21.4878017 21.3647037,21.1955601 C21.3647037,20.7665025 20.9439927,20.3488175 20.3211303,20.3488175 L20.3211303,20.3488175 Z M21.7496445,18.4299479 C22.8788696,18.6556769 23.491887,19.5475654 23.491887,20.3829353 C23.491887,20.958803 23.1479671,21.4881463 22.5454512,21.4881463 C21.9967547,21.4881463 21.6009845,21.0935512 21.6009845,20.4615097 C21.6009845,19.9876509 21.9534366,19.4910469 21.9534366,19.0054709 C21.9534366,18.8138597 21.8999453,18.6219037 21.7496445,18.4299479 L21.7496445,18.4299479 Z M22.3088423,19.9311325 C22.3088423,20.0889706 22.4164813,20.21338 22.5671103,20.21338 C22.738742,20.21338 22.8467092,20.0551973 22.8467092,19.874614 C22.8467092,19.637857 22.6422607,19.3104637 22.4486417,19.3104637 C22.3623336,19.3104637 22.3948222,19.4459011 22.3734913,19.5927112 C22.3623336,19.7050588 22.3088423,19.8404962 22.3088423,19.9311325 Z" id="Shape" fill="#FFFFFF" fill-rule="nonzero"></path>
                <path d="M10.3466199,8.85178504 C10.6981129,8.85178504 11.1010823,6.82938291 11.1010823,6.48840039 C11.1010823,6.40046988 11.070449,6.33435418 10.9981293,6.33435418 C10.6772696,6.33435418 10.2329259,8.25808615 10.2329259,8.68699919 C10.2326136,8.76385452 10.2531411,8.85178504 10.3466199,8.85178504 Z M12.8803378,9.4562235 C13.1383519,9.4562235 13.4279467,8.40072159 13.4279467,7.74124261 C13.4279467,7.59827158 13.4074193,7.44489661 13.3448895,7.44489661 C13.1276145,7.44489661 12.7656998,8.53295298 12.7656998,9.12631622 C12.7660157,9.35721776 12.8181238,9.4562235 12.8803378,9.4562235 Z M11.1936137,8.47791246 C11.3073041,8.47791246 11.4522595,8.34534548 11.7219585,8.02752026 C11.7421701,7.88454923 11.7421701,7.75231784 11.7421701,7.58753199 C11.7421701,7.36804127 11.6594287,7.1260645 11.5356325,7.1260645 C11.2248785,7.1260645 11.0701332,8.00536979 11.0701332,8.23660698 C11.070449,8.36783154 11.1320314,8.47791246 11.1936137,8.47791246 L11.1936137,8.47791246 Z M12.6109545,8.02752026 C12.6109545,7.84024835 12.5692681,7.79628307 12.5282131,7.79628307 C12.4246285,7.79628307 12.3112539,7.92851451 12.1457711,8.2251961 C12.1662986,8.62088349 12.2285125,8.79674457 12.3317813,8.79674457 C12.4454718,8.79674457 12.6109545,8.41179677 12.6109545,8.02752026 Z M13.4074193,6.73037716 C14.0901935,6.73037716 14.4,7.35696604 14.4,8.06041031 C14.4,8.36783154 14.3178902,8.81889498 14.1833565,8.81889498 C14.0488228,8.81889498 14.0696661,8.56584303 14.0488228,8.33494149 C14.0282954,8.03825984 13.9761873,7.97247974 13.8830243,7.97247974 C13.7071199,7.97247974 13.5937453,8.41179677 13.5937453,8.81889498 C13.5937453,9.07127575 13.635116,9.35721776 13.8208104,9.35721776 C13.924395,9.35721776 14.017558,9.3021773 14.0797719,9.23639719 C14.0384012,9.74149432 13.6862767,10.1818182 13.1901442,10.1818182 C12.279989,10.1818182 11.9386019,9.04946094 11.8356489,8.38998195 C11.2874083,9.00549565 10.7808542,9.4562235 9.87038328,9.4562235 C9.02275785,9.4562235 8.64,8.79674457 8.64,8.17049123 C8.64,7.98321938 8.70189815,7.49993707 8.91948901,7.49993707 C9.17781895,7.49993707 8.95043809,8.40072159 9.45699219,8.40072159 C9.58142004,8.40072159 9.8081693,8.29064061 9.93291299,7.92851451 C10.0052328,7.70835256 10.0466034,7.47812225 10.0466034,7.27977511 C10.0466034,6.98275788 9.9847053,6.79649286 9.77785189,6.79649286 C9.60163167,6.79649286 9.38435664,6.93879265 9.31203687,7.01598358 C9.56057681,6.22460879 10.1602939,5.81818182 10.8212775,5.81818182 C11.6392171,5.81818182 12.0731356,6.58740613 12.0731356,7.44489661 C12.0731356,7.56538153 12.062714,7.69727732 12.0418707,7.81843353 C12.3936795,7.20291983 12.8803378,6.73037716 13.4074193,6.73037716 L13.4074193,6.73037716 Z" id="Shape" fill="#FFFFFF" fill-rule="nonzero"></path>
                <path d="M11.4529797,10.1818182 C10.9580602,10.1818182 10.9352124,10.7430555 10.9352124,11.8734255 C10.5664833,11.1302632 9.95697316,10.3328193 9.24306592,10.3328193 C8.75974615,10.3328193 8.57590884,10.6348216 8.57590884,11.1621741 C8.57590884,11.270079 8.58715703,11.4319364 8.61035636,11.5283271 C8.66800323,11.3457441 8.85219202,11.270079 9.08207647,11.270079 C9.57769892,11.270079 10.175961,11.6253758 10.5671863,12.110619 C10.1186656,12.0352829 9.68104151,11.9596179 9.31301546,11.9596179 C9.082428,11.9596179 8.87539135,11.9813305 8.70280229,12.0566665 C8.36887224,12.1964824 7.92,12.6600131 7.92,13.3604083 C7.92,13.4683132 7.93159967,13.5864165 7.954799,13.715705 C8.35762405,12.875165 9.42795766,12.4981557 10.1186656,12.4981557 C10.2571587,12.4981557 10.3601497,12.509012 10.4409959,12.5198683 C10.0838666,12.8212126 10.0037234,13.349223 9.98017249,13.7048487 C9.96927583,13.8772335 9.89967777,13.8884187 9.77278437,13.8884187 C9.77278437,14.2433865 10.0726184,14.771726 10.0726184,15.0408304 C10.0726184,15.137879 10.0149715,15.2240714 9.95767617,15.245784 C9.95767617,15.7198419 10.4634923,16.0646114 10.4634923,16.3659557 C10.4634923,16.4412917 10.4409959,16.5061005 10.4058454,16.5386694 C10.4409959,16.7327667 10.9977803,17.0587843 11.0698389,17.2222866 C11.1584182,17.4209897 11.2578942,17.4545455 11.3155411,17.4545455 C11.5113295,17.4545455 11.8213572,17.2387355 11.8213572,17.0446382 C11.8213572,16.9801585 11.7637103,16.9048224 11.7183661,16.8722536 C11.4993783,16.7219104 11.3840846,16.3985245 11.2919902,16.1833726 C11.211144,16.1833726 11.1070984,16.1514617 11.0705419,16.024476 C11.0076225,15.8014286 11.0044589,15.3859288 10.9123645,15.137879 C10.7626233,15.1056391 10.6933767,15.0516867 10.6933767,14.7608697 C10.6933767,14.6207248 10.7858226,14.0710018 10.7858226,13.8769045 C10.7169276,13.8769045 10.6248332,13.8338083 10.6248332,13.7045198 C10.6248332,13.3600793 10.9935622,13.0906459 11.0965533,12.6491568 C11.7528137,13.1011732 11.9134516,13.5643749 11.9134516,13.9742821 C11.9134516,14.1891051 11.8790041,14.3940587 11.8329569,14.5884849 C12.3166282,14.3618188 13.0417835,14.0279056 13.0417835,13.349223 C13.0417835,12.9501721 12.8459951,12.508683 11.545074,12.3362983 C11.9478991,12.1961534 12.4547697,12.1211463 12.8804426,12.1211463 C13.6175492,12.1211463 14.0432221,12.3362983 14.134965,12.8208835 C14.2847063,12.6057317 14.4,12.3576819 14.4,12.1316737 C14.4,11.6033342 13.9275769,11.2592227 13.3293149,11.2592227 C12.6270073,11.2592227 12.005546,11.6033342 11.3376859,12.0240977 C11.6378714,11.4424638 11.8438535,11.0976943 12.2129341,11.0976943 C12.2702294,11.0976943 12.3278763,11.1085506 12.3855232,11.1194069 C12.2473816,10.6456779 11.7296143,10.1818182 11.4529797,10.1818182" id="Path" fill="#FFFFFF" fill-rule="nonzero"></path>
                <path d="M30.0064646,17.4545455 C30.5365657,17.4545455 30.96,18.220955 30.96,19.1177406 C30.96,20.0728713 30.5572525,21.1111978 29.8393535,21.8181818 C29.8286869,20.2262973 28.08,20.7333954 28.08,19.5780186 C28.08,19.0828056 28.3983839,18.7521835 28.779798,18.7521835 C29.1188687,18.7521835 29.3835959,18.8584291 29.574303,19.0712806 C29.3835959,18.8703142 29.2882424,18.5868723 29.2882424,18.3160359 C29.2882424,17.8669227 29.5426262,17.4545455 30.0064646,17.4545455" id="Path" fill="#FFFFFF" fill-rule="nonzero"></path>
                <path d="M19.7447145,7.06983889 C20.0501452,7.36798893 20.3190531,7.4986798 20.6477581,7.4986798 C20.7773781,7.4986798 20.9302725,7.4633678 21.0126278,7.4633678 C21.1182574,7.4633678 21.1880803,7.51069318 21.1880803,7.59405873 C21.1880803,7.72547769 21.0706346,7.94026219 20.9302725,8.05966783 C21.0706346,8.1190066 21.2235289,8.14303337 21.3878814,8.14303337 C22.053885,8.14303337 22.8165665,7.71346436 22.8165665,6.64099798 C22.9580028,6.83102767 23.04,7.2249206 23.04,7.40402903 C23.04,8.7032933 22.1007917,9.20385039 21.2349871,9.20385039 C20.6717485,9.20385039 20.3895922,9.01272858 20.318695,9.01272858 C20.0963358,9.01272858 20.1081519,9.46632436 19.9556156,9.45431097 C19.6856335,9.40662151 19.44,8.79867217 19.44,8.1550467 C19.440358,7.77316715 19.5341715,7.36798893 19.7447145,7.06983889 L19.7447145,7.06983889 Z M21.5146369,6.19941558 C21.4208235,6.04433387 21.0706346,5.96133241 20.9069982,5.96133241 C20.3899502,5.96133241 20.037971,6.33047053 19.9677899,6.66466067 C19.9208832,6.54525503 19.8857927,6.4021867 19.8857927,6.25911837 C19.8857927,5.73453452 20.237772,5.09090909 21.0949831,5.09090909 C21.8433419,5.09090909 22.1365984,5.49608732 22.242586,5.49608732 C22.3596738,5.49608732 22.4771196,5.37668168 22.571291,5.37668168 C22.700195,5.37668168 22.700195,5.57945286 22.700195,5.72288521 C22.700195,6.19941558 22.4885777,7.02214942 21.9607877,7.32029947 C21.8666163,7.11752835 21.6789894,6.89073046 21.3760652,6.74802615 C21.294068,6.71235007 21.2589775,6.64099798 21.2589775,6.5692818 C21.2586194,6.43786278 21.3757072,6.27076774 21.5146369,6.19941558 L21.5146369,6.19941558 Z" id="Shape" fill="#FFFFFF" fill-rule="nonzero"></path>
                <path d="M12.3251803,4.02068384 C12.3251803,4.4051718 13.704238,6.28399603 13.9694025,6.28399603 C14.1904291,6.28399603 14.3555252,5.89950807 14.3555252,5.56937182 C14.3555252,5.48214069 14.3332877,5.39457406 14.2898237,5.3281442 C14.0910345,5.05336616 12.6897394,3.95458949 12.380437,3.95458949 C12.3470808,3.95458949 12.3251803,3.98780442 12.3251803,4.02068384 Z M4.21525665,2.88902775 C4.21525665,3.10911859 3.37697289,3.84487958 3.07946302,3.84487958 C2.96928665,3.84487958 2.93559358,3.71336188 2.93559358,3.59258032 C2.93559358,3.3731605 3.03498816,3.06516752 3.15662016,2.96585824 C3.29947881,2.83400504 3.63068176,2.7689172 3.88439063,2.7689172 C4.03870493,2.7689172 4.21525665,2.80112562 4.21525665,2.88902775 Z M14.2898237,3.52648597 C14.2898237,2.86688447 12.4997105,1.66946953 12.4798315,1.15346387 C12.47781,1.10615776 12.5037536,1.05918716 12.5438484,1.01724912 C12.8504554,0.695164962 14.1237168,0.460311933 14.1237168,0.185869394 C14.1237168,0.0436155595 13.8585523,0.0436155595 13.7261385,0.0436155595 C12.7001843,0.0436155595 11.1994946,0.417031873 11.1994946,0.779376546 C11.1994946,1.15346387 12.545533,2.06536463 12.545533,2.51594694 C12.545533,2.6367285 12.4683759,2.68067956 12.3467439,2.68067956 C11.9720769,2.68067956 11.1553567,2.22976175 10.769234,2.22976175 C10.5926823,2.22976175 10.52597,2.35054331 10.52597,2.52701858 C10.52597,3.05409588 11.1550198,4.05389877 11.1550198,4.34981359 C11.1550198,4.38302852 11.143901,4.42697958 11.0997631,4.42697958 C10.900974,4.42697958 9.9639695,3.32887393 9.63242958,3.32887393 C9.51147144,3.32887393 9.50001583,3.49327104 9.50001583,3.73516966 L9.50001583,4.10858598 C9.50001583,4.36122074 9.48889707,4.51521722 9.36827588,4.51521722 C9.08053699,4.51521722 8.94846015,3.71336188 8.67285078,3.71336188 C8.38578575,3.71336188 8.33052911,5.14126829 8.05525665,5.14126829 C7.73483549,5.14126829 8.01078181,3.57010153 7.70181626,3.57010153 C7.35983155,3.57010153 6.97337194,4.61419099 6.73044484,4.61419099 C6.64250593,4.61419099 6.62060541,4.52595336 6.62060541,4.44912287 C6.62060541,4.13072926 6.807602,3.6143881 6.807602,3.30706614 C6.807602,3.15273415 6.76346407,3.06516752 6.63172412,3.06516752 C6.28906555,3.06516752 5.53905766,3.6143881 5.25232959,3.6143881 C5.20819165,3.6143881 5.15293499,3.59258032 5.15293499,3.54829375 C5.15293499,3.28525836 6.3554409,2.44985259 6.3554409,2.07643627 C6.3554409,1.71342059 4.6997631,1.95565472 4.6997631,1.53761632 C4.6997631,1.18634329 5.88137933,0.823663116 5.88137933,0.460982943 C5.88137933,0.142253834 4.47974731,0 3.93931035,0 C3.28802317,0 2.93525665,0.0761594794 2.93525665,0.263035388 C2.93525665,0.548885078 4.41404581,0.637122712 4.41404581,0.889421966 C4.41404581,1.13132058 2.88,1.77951494 2.88,2.15293126 C2.88,2.48273201 5.0424217,2.17473904 5.0424217,2.51594694 C5.0424217,2.88902775 3.15628323,4.50381008 3.15628323,5.04229452 C3.15628323,5.16341158 3.2445591,5.21843429 3.36551724,5.21843429 C3.93931035,5.21843429 5.42820741,4.13072926 5.83690444,4.13072926 C5.98043696,4.13072926 5.99155567,4.30619803 5.99155567,4.46019451 C5.99155567,4.7460442 5.89249804,5.18521936 5.89249804,5.50428398 C5.89249804,5.75658321 5.95853644,5.93238751 6.17888921,5.93238751 C6.58792314,5.93238751 6.96225323,5.24024207 7.23887341,5.24024207 C7.59163993,5.24024207 7.38206897,7.27272727 7.91172413,7.27272727 C8.36388524,7.27272727 8.55121873,5.07550945 8.83828376,5.07550945 C9.12534879,5.07550945 9.35749408,5.71263218 9.62198473,5.71263218 C9.95251384,5.71263218 9.79819951,4.60311935 10.1516399,4.60311935 C10.5374256,4.60311935 11.6408739,5.92165133 12.1375099,5.92165133 C12.2918242,5.92165133 12.3467439,5.8005343 12.3467439,5.64653778 C12.3467439,5.0641023 11.5306976,3.7462413 11.5306976,3.32887393 C11.5306976,3.21916401 11.5633799,3.18594908 11.684675,3.18594908 C12.1149355,3.18594908 13.3733719,3.77912073 13.9687287,3.77912073 C14.1688655,3.77912073 14.2898237,3.66941081 14.2898237,3.52648597 L14.2898237,3.52648597 Z M13.1419005,1.35107592 C13.1419005,1.54868797 13.8369887,1.9774625 14.1574099,1.9774625 C14.3447434,1.9774625 14.4,1.72449223 14.4,1.46078583 C14.4,1.13132058 14.2571414,1.12024895 13.9697394,1.12024895 C13.6055173,1.12024895 13.1419005,1.21922272 13.1419005,1.35107592 Z M10.5488813,0.230155964 C10.5488813,0.164061614 10.2180153,0.0979672591 9.7658542,0.0979672591 C9.04852859,0.0979672591 9.14792317,0.692145422 8.59636748,0.692145422 C8.02257438,0.692145422 8.16543303,0.0761594794 7.43732561,0.0761594794 C6.99594631,0.0761594794 6.5882601,0.153325474 6.5882601,0.251963749 C6.5882601,0.384152453 7.1064596,0.329129744 7.1064596,0.692145422 C7.1064596,1.07629787 5.99189262,1.18634329 5.99189262,1.41717027 C5.99189262,1.49400076 6.07983154,1.52688019 6.19034483,1.52688019 C6.43360888,1.52688019 6.81905767,1.41717027 7.09534089,1.41717027 C7.24999212,1.41717027 7.39352463,1.44971419 7.39352463,1.59263903 C7.39352463,1.86741708 6.79715715,2.36195045 6.79715715,2.58170579 C6.79715715,2.64780014 6.8520769,2.66994343 6.90733354,2.66994343 C7.12836012,2.66994343 7.50370096,2.1093157 7.85646749,2.1093157 C8.4413793,2.1093157 8.05559361,3.35068171 8.37500395,3.35068171 C8.70586995,3.35068171 8.5626744,2.13078798 9.03707292,2.13078798 C9.42386943,2.13078798 9.7102606,2.97692989 9.97508821,2.97692989 C10.0414636,2.97692989 10.0963833,2.92224268 10.0963833,2.84507668 C10.0963833,2.61492072 9.76551725,2.14185962 9.76551725,1.83453765 C9.76551725,1.64766174 9.89793105,1.55942411 10.0744828,1.55942411 C10.3278547,1.55942411 10.6701764,1.71342059 10.8571729,1.71342059 C10.9232114,1.71342059 10.9895868,1.69161281 10.9895868,1.61478232 C10.9895868,1.35107592 10.0084443,1.06556174 10.0084443,0.725024847 C10.0087813,0.384152453 10.5488813,0.384152453 10.5488813,0.230155964 L10.5488813,0.230155964 Z" id="Shape" fill="#FFFFFF" fill-rule="nonzero"></path>
                <path d="M30.4098891,2.07116252 C30.4098891,3.08892507 29.6689038,3.86700857 28.3300345,4.0843269 C28.4790692,4.09550727 28.616237,4.09550727 28.7537539,4.09550727 C30.3184439,4.09550727 30.8908489,3.38660228 30.8908489,2.79194664 C30.8908489,2.45968018 30.7076095,2.16270176 30.4098891,2.07116252 L30.4098891,2.07116252 Z M28.4790692,3.22623392 C28.4790692,2.41391057 26.5374295,2.2077726 26.5374295,2.02504352 C26.5374295,1.8765543 27.6215088,1.62429733 28.1816979,1.61276757 C27.3244864,0.514646153 26.1028903,0.629244889 26.1028903,0.434636671 C26.1028903,0.320037934 27.0176913,0.0908404612 27.8623377,0.0908404612 C28.5708635,0.0908404612 29.2340156,0.251208813 29.2340156,0.788914466 C29.2340156,1.08694106 28.9938847,1.39614802 28.9938847,1.85314541 C28.9938847,2.105053 29.1188366,2.32237133 29.4514597,2.32237133 C29.8067697,2.32237133 29.8859989,1.94503403 29.8859989,1.54393846 C29.8859989,1.21272016 29.8291074,0.960812571 29.8291074,0.80044422 C29.8291074,0.320037934 30.1582403,0 30.6273332,0 C31.0161498,0 31.107944,0.170849943 31.68,0.170849943 C31.3707616,0.354627183 31.2566297,0.686544258 31.2566297,0.846213835 C31.2566297,1.32731889 31.5662171,1.65888658 31.5662171,2.64310804 C31.5662171,4.45013445 29.87483,5.09090909 27.8050972,5.09090909 C27.2361825,5.09090909 26.6292237,5.04513947 26.0341319,4.95394962 C25.9430358,4.94241987 25.92,4.91970976 25.92,4.86241039 C25.92,4.71357179 26.7325359,4.63321292 26.7325359,3.90159782 C26.7325359,3.61510098 26.6407416,3.34083266 26.6407416,3.23811306 C26.6407416,3.1808137 26.6864642,3.14622444 26.7325359,3.14622444 C26.9039083,3.14622444 27.2477004,3.8097092 27.8857226,3.8097092 C28.0553499,3.8097092 28.4790692,3.75240983 28.4790692,3.22623392 L28.4790692,3.22623392 Z M30.3414797,0.698074005 C30.3414797,0.857743588 30.4671296,0.983522685 30.6273332,0.983522685 C30.7875368,0.983522685 30.9135357,0.857743588 30.9135357,0.698074005 C30.9135357,0.537705654 30.7875368,0.411577164 30.6273332,0.411577164 C30.4671296,0.411577164 30.3414797,0.537705654 30.3414797,0.698074005 Z" id="Shape" fill="#FFFFFF" fill-rule="nonzero"></path>
                <path d="M29.4548936,11.1563818 C29.4548936,10.9171277 28.9002128,10.8944908 28.8481915,10.2213054 C28.8373404,10.1189172 28.8060638,9.9367775 28.6908511,9.9367775 C28.5028724,9.9367775 28.6490426,10.5639927 28.44,10.5639927 C27.9593617,10.5639927 27.8026596,9.53732402 27.6248936,9.53732402 C27.582766,9.53732402 27.5329788,9.57145345 27.5329788,9.70831939 C27.5329788,9.83404099 27.5540426,9.91379241 27.5540426,10.0614544 C27.5540426,10.2101611 27.5221277,10.3128977 27.3970213,10.3128977 C27.1145745,10.3128977 26.8634043,9.5940903 26.622766,9.5940903 C26.5704256,9.5940903 26.5184043,9.62856796 26.5184043,9.68568253 C26.5184043,9.82254847 26.7271277,10.072947 26.7271277,10.1986686 C26.7271277,10.4727487 26.0473404,10.3240419 26.0473404,10.5525001 C26.0473404,10.6552366 26.1411703,10.6890177 26.2669149,10.6890177 C26.4868085,10.6890177 26.8321277,10.5869778 27.0098936,10.5869778 C27.1145745,10.5869778 27.2712766,10.6096146 27.2712766,10.7572766 C27.2712766,10.9171277 26.8946809,11.1222524 26.8946809,11.2706109 C26.8946809,11.339218 26.957234,11.3729992 27.0095745,11.3729992 C27.2920213,11.3729992 27.7918085,10.8373763 28.1473405,10.8373763 C28.2098937,10.8373763 28.3665958,10.8715057 28.3665958,10.9742422 C28.3665958,11.1222524 28.011383,11.3841435 28.011383,11.6011091 C28.011383,11.6582236 28.0432979,11.7264824 28.1058511,11.7264824 C28.2928723,11.7264824 28.5440426,11.1908595 28.8998937,11.1908595 C29.0358511,11.1908595 29.2346809,11.2479741 29.3396809,11.2479741 C29.4236171,11.2479741 29.4548936,11.1908595 29.4548936,11.1563818 L29.4548936,11.1563818 Z M29.7268085,16.6877855 C29.8943617,16.1180331 30.1037235,15.7182314 30.4461702,15.1025088 C30.1037235,14.9092249 29.1931915,14.4979305 29.1931915,13.8250934 C29.1931915,13.0380273 30.0922341,12.4223047 30.2786171,12.4223047 C30.3625532,12.4223047 30.3832979,12.5024043 30.3832979,12.6507628 C30.3832979,13.0610124 30.2055319,13.7223569 30.2055319,14.0761884 C30.2055319,14.395194 30.3938298,14.7037519 30.5610639,14.7037519 C30.7388298,14.7037519 31.2303192,14.0194222 31.2303192,13.3462368 C31.2303192,12.1370803 30.2575532,11.7724527 29.9565957,11.7724527 C29.674149,11.7724527 29.1615958,12.2739462 27.9590426,12.2739462 C25.7125532,12.2739462 25.2,9.84553356 25.2,8.78438724 C25.2,8.7387653 25.2098937,8.72727273 25.2204256,8.72727273 C25.272766,8.72727273 25.4929787,9.02433799 26.2037234,9.02433799 C26.5697873,9.02433799 26.9045745,8.92125318 27.4381915,8.92125318 C28.6902128,8.92125318 29.2448936,9.86851871 30.019149,11.0766305 C30.4873405,11.3956361 31.6069149,11.9093186 31.6069149,13.3577294 C31.6069149,14.6351447 30.3622341,15.3421113 30.0609575,16.7107706 C30.5396809,16.6540043 30.8224468,15.7182314 31.3139362,15.7182314 C31.5651064,15.7182314 31.68,15.935197 31.68,16.2778842 C31.68,16.7790294 31.4182979,17.5323144 30.9162766,17.9996785 C30.9264894,17.9540565 30.9264894,17.8965938 30.9264894,17.8283349 C30.9264894,17.5093294 30.8119149,17.0534578 30.4764894,17.0534578 C29.9559574,17.0534578 29.7887234,17.6691804 29.4960638,18.1818182 C29.1925532,17.0189801 28.7846809,15.9693264 28.0531915,15.3306187 C27.3130852,14.6807667 26.0364894,15.0339017 26.0364894,13.8480786 C26.0364894,13.5283764 26.2251064,13.0725049 26.2251064,12.7075291 C26.2251064,12.5821557 26.2040426,12.4679267 26.1408511,12.3766827 C27.1452128,12.7876288 26.7893617,13.5168839 27.4072341,14.2698207 C27.7918085,14.7493738 28.8584043,15.2052453 29.4753192,17.1781347 C29.4855319,17.1213684 29.4960638,16.9733582 29.4960638,16.8706217 C29.4960638,15.1826085 27.4484043,13.5283764 27.2706383,12.8440468 C28.4601064,12.9924053 28.669149,13.3121074 29.2340426,15.0227574 C29.3498937,15.3765889 29.7268085,16.2548991 29.7268085,16.6877855 L29.7268085,16.6877855 Z" id="Shape" fill="#FFFFFF" fill-rule="nonzero"></path>
                <path d="M23.2184027,4.48553224 C22.4328755,4.48553224 21.9170632,4.10758431 21.9170632,3.91250376 C21.9170632,3.81512853 21.9841496,3.75076185 22.0745109,3.75076185 C22.3209507,3.75076185 22.8593535,4.11781696 23.0383647,4.11781696 C23.0838876,4.11781696 23.1170885,4.09669148 23.1170885,4.03166464 C23.1170885,3.83691417 22.9264399,3.51277018 22.9264399,3.35102828 C22.9264399,3.30745699 22.9603254,3.27543869 23.0274118,3.27543869 C23.3299852,3.27543869 23.7787112,3.39426948 24.0148827,3.39426948 C24.0932643,3.39426948 24.1155123,3.35102828 24.1155123,3.30745699 C24.1155123,3.06979541 23.3861187,2.60503498 23.3861187,2.46441855 C23.3861187,2.33469494 24.2924699,2.13961439 24.2924699,1.93496136 C24.2924699,1.71842526 23.0602704,1.86993451 23.0602704,1.66429123 C23.0602704,1.51311206 23.2960997,1.25366483 23.2960997,1.13483405 C23.2960997,1.08070002 23.2509191,1.05924446 23.1728798,1.05924446 C23.0719079,1.05924446 22.5335051,1.26455766 22.308971,1.26455766 C22.1970463,1.26455766 22.0621889,1.2431021 22.0621889,1.09126275 C22.0621889,0.842708353 22.4996197,0.572698392 23.1841749,0.572698392 C24.2921276,0.572698392 24.9544351,1.30779886 24.9544351,2.54000813 C24.9551194,4.09669148 23.8242341,4.48553224 23.2184027,4.48553224 L23.2184027,4.48553224 Z M21.0333024,2.43207017 C21.0333024,2.31290929 20.595187,2.08614053 20.595187,1.95641692 C20.595187,1.93496136 20.6170927,1.92406854 20.6509783,1.92406854 C20.7748827,1.92406854 20.9881217,1.96730975 21.1568646,1.96730975 C21.3026748,1.96730975 21.3249228,1.36193289 21.4351362,1.36193289 C21.5135178,1.36193289 21.6476906,1.93496136 21.7719375,1.93496136 C21.9174054,1.93496136 22.1864357,1.77255928 22.2987027,1.77255928 C22.3209507,1.77255928 22.3435411,1.78312202 22.3435411,1.80523775 C22.3435411,1.88082734 22.0632157,2.17229286 22.0632157,2.25877527 C22.0632157,2.35615049 22.6916374,2.47531137 22.6916374,2.56179378 C22.6916374,2.67006183 22.0519206,2.65916901 22.0519206,2.75654424 C22.0519206,2.83147366 22.2877498,3.13449217 22.2877498,3.2318674 C22.2877498,3.25365305 22.2761124,3.26454587 22.2538644,3.26454587 C22.1638453,3.26454587 21.8164335,3.11270653 21.7154616,3.11270653 C21.5918994,3.11270653 21.3923516,3.55601139 21.2913797,3.55601139 C21.2578365,3.55601139 21.2355884,3.51277018 21.2355884,3.45863616 L21.2129981,3.0265542 C21.2129981,2.983313 21.1910923,2.93974171 21.1346165,2.93974171 C20.9997591,2.93974171 20.7416818,2.92884889 20.6626157,2.92884889 C20.6064821,2.92884889 20.5842339,2.91828615 20.5842339,2.8965005 C20.5838918,2.81001809 21.0333024,2.50765976 21.0333024,2.43207017 L21.0333024,2.43207017 Z M20.7071118,4.20396928 C20.8871498,4.20396928 20.920693,4.62614867 20.9549208,4.87437299 C20.9771688,5.00442669 20.9997591,5.01498942 21.0558927,5.01498942 C21.19075,5.01498942 21.4033044,4.51788062 21.5474034,4.51788062 C21.7599578,4.51788062 22.3325882,5.09090909 23.2858314,5.09090909 C24.6412508,5.09090909 25.92,4.1716209 25.92,2.55090096 C25.92,0.983324784 24.7750813,0.0643666791 23.1958124,0.0643666791 C22.4448553,0.0643666791 21.8944728,0.421189131 21.6028523,0.421189131 C21.4258947,0.432081956 21.1568646,0 21.0216649,0 C20.9658737,0 20.9097401,0.107277795 20.9097401,0.291465519 C20.9097401,0.410626398 20.9097401,0.788574327 20.7748827,0.788574327 C20.505168,0.788574327 19.4632749,0.043241202 19.4632749,0.312921083 C19.4632749,0.561805567 20.1574139,1.31869168 20.1574139,1.51311206 C20.1574139,1.70753243 19.4742278,1.89172016 19.4742278,2.02111369 C19.4742278,2.25877527 20.2025945,2.30201647 20.2025945,2.60503498 C20.2025945,2.90739333 19.44,3.14538499 19.44,3.37248383 C19.44,3.55601139 20.2025945,3.42661786 20.2025945,3.65338662 C20.2025945,3.88015537 19.6422861,4.63704149 19.6422861,4.85258734 C19.6422861,4.90705145 19.653239,4.90705145 19.697735,4.90705145 C19.910974,4.90705145 20.5500064,4.20396928 20.7071118,4.20396928 L20.7071118,4.20396928 Z" id="Shape" fill="#FFFFFF" fill-rule="nonzero"></path>
                <path d="M16.2098769,23.3992861 C16.2098769,23.5032829 16.1790797,23.6189133 16.0975761,23.7338386 C15.9862087,23.5032829 15.669838,23.3876526 15.5270512,23.3880051 C14.4777706,23.3880051 14.8750227,25.1083594 13.7545042,25.1083594 C13.2860142,25.1083594 13.2449514,25.0389107 13.0723007,25.0389107 C13.0007518,25.0389107 12.96,25.0738113 12.96,25.1429075 C12.96,25.4436169 13.3370317,26.1818182 14.3863124,26.1818182 C15.435593,26.1818182 16.4444329,25.454898 16.4444329,24.5534746 C16.4444329,24.4032962 16.4139468,24.2428943 16.3526636,24.0810822 C16.3934154,24.0116335 16.4957615,23.9654519 16.5872197,23.9654519 C16.7499157,23.9654519 16.841685,24.1741506 16.9944264,24.1741506 C17.1577446,24.1741506 17.28,24.0349006 17.28,23.8505266 C17.28,23.699643 17.2087621,23.5963513 17.0868179,23.5261975 C17.1683214,23.4574538 17.2292936,23.3418235 17.2292936,23.2149121 C17.2292936,23.0178469 17.1067271,22.8341779 16.9026572,22.8341779 C16.8108879,22.8341779 16.7502268,22.8694311 16.678989,22.9483981 C16.6590797,22.7418146 16.5567336,22.5454545 16.3629293,22.5454545 C16.2101879,22.5454545 16.0975761,22.6720134 16.0975761,22.8690785 C16.0975761,23.052395 16.2098769,23.2032785 16.2098769,23.3992861" id="Path" fill="#FFFFFF" fill-rule="nonzero"></path>
                <path d="M10.1110449,21.456175 C10.9340217,21.69192 11.34551,22.2021576 11.4274936,22.8072727 C11.5097913,23.3881252 11.6125064,23.8632365 11.8078848,24.0997058 C12.0651436,24.4325009 12.5692954,24.7272727 13.011881,24.7272727 C13.3822206,24.7272727 13.68,24.5864051 13.68,24.1945832 C13.68,23.7672727 13.1761623,22.8069106 12.4354832,22.8069106 C12.3635512,22.8069106 12.2708878,22.8192229 12.1678587,22.8192229 C12.0751952,22.8192229 11.941383,22.7956846 11.8593994,22.7123953 C11.6951181,22.5458166 11.6432895,21.6564315 11.3348302,21.1230177 C10.9955879,20.5298529 10.6252483,20.3636364 10.1214106,20.3636364 C9.76175088,20.3636364 9.36,20.5885175 9.36,20.9209506 C9.36,21.123742 9.45266342,21.265696 10.1110449,21.456175 L10.1110449,21.456175 Z M12.9810979,24.1120181 C12.6720105,24.1120181 12.2093216,23.7317842 12.2093216,23.518129 C12.2093216,23.3399623 12.3534996,23.2450849 12.4659522,23.2450849 C12.723525,23.2450849 13.1859012,23.6137306 13.1859012,23.9219012 C13.1862139,24.0048284 13.1346993,24.1120181 12.9810979,24.1120181 Z" id="Shape" fill="#FFFFFF" fill-rule="nonzero"></path>
                <path d="M12.4313358,15.6756565 C12.4313358,14.9563746 14.1416794,14.5744278 14.1416794,13.686307 C14.1416794,13.540117 14.0853435,13.2820541 13.9840076,13.0909091 C14.5796565,13.4165763 15.0186641,13.9677054 15.0186641,14.4169133 C15.0186641,15.1924748 14.2090076,15.5521157 14.2090076,16.0356405 C14.2090076,16.5974079 15.075,16.6873181 15.075,17.3839507 C15.075,17.9566995 14.2536641,18.6200447 14.2536641,19.3616325 C14.2536641,19.9347244 14.6590076,20.4062383 15.2769847,20.4851671 C15.0746565,20.5301223 14.895,20.5637528 14.7036641,20.5637528 C13.5669847,20.5637528 12.3973282,19.6313632 12.3973282,18.5184668 C12.3973282,17.968024 12.6336641,17.4855287 12.9929771,17.1368692 C13.3086641,17.4065999 13.6233206,17.5860772 13.8259924,17.5860772 C14.0056489,17.5860772 14.085,17.4965101 14.085,17.3616448 C14.0853435,16.945381 12.4313358,16.5637773 12.4313358,15.6756565 L12.4313358,15.6756565 Z M16.02,21.350982 C15.6342366,21.5273708 15.4803435,21.4971719 15.4803435,21.8907866 C15.4803435,22.0366333 15.4463359,22.2267488 15.4463359,22.3283267 C15.4463359,22.4631921 15.4686641,22.5421209 15.6259924,22.5421209 C16.0313359,22.5421209 16.6726718,21.8568128 16.6726718,21.2720532 C16.6726718,21.1141956 16.5823282,21.047964 16.4809924,21.047964 C16.3909924,21.047964 16.2903435,21.2270981 16.02,21.350982 Z M15.975,20.5414469 C15.975,20.0359592 14.9286641,20.0246346 14.9286641,19.2603977 C14.9286641,19.0689095 15.0519847,18.7435855 15.3,18.3945828 C15.4016794,18.9789993 15.6369847,19.2827037 16.1440077,19.4741919 C17.1446565,19.844471 17.28,20.4062383 17.28,21.0026657 C17.28,22.0143273 16.5713359,23.2727273 14.7490076,23.2727273 C13.2863359,23.2727273 12.24,21.9686858 12.24,20.8674572 C12.24,20.5637528 12.3186641,20.2271042 12.51,20.2271042 C12.6790076,20.2271042 12.735,20.3616264 12.87,20.4961486 C13.3766794,21.0026657 13.9276717,21.1368447 14.7263359,21.1368447 C15.4463359,21.1371879 15.975,20.8451512 15.975,20.5414469 L15.975,20.5414469 Z" id="Shape" fill="#FFFFFF" fill-rule="nonzero"></path>
                <path d="M7.59039214,20.3328234 C7.61425847,20.5646043 7.46837566,20.7736816 7.2646171,20.8007905 C7.06056023,20.8278994 6.87559634,20.6618575 6.85232672,20.4304154 C6.82846039,20.1982956 6.9743432,19.9885406 7.17840006,19.9614317 C7.38245698,19.9343228 7.56682421,20.1007036 7.59039214,20.3328234 Z M5.76461988,20.7692764 C5.80608758,21.148123 6.11724453,21.4354772 6.46837752,21.3910864 C6.59516729,21.3751599 6.71270882,21.335852 6.79116928,21.2802789 C6.86933143,21.6350664 7.13156246,21.8634587 7.48597708,21.8105964 C7.8457616,21.7573952 8.09039126,21.4354772 8.05160849,21.0247776 C8.04146529,20.9143089 8.02207395,20.8468756 7.99313602,20.7692764 C7.99313602,20.7692764 8.04057033,20.7635158 8.07636977,20.7560609 C8.42929278,20.680156 8.66706082,20.3585768 8.63752624,19.9702421 C8.59874351,19.570725 8.28311162,19.2742216 7.95465165,19.3203067 C7.82726522,19.3379275 7.70972369,19.3931618 7.63126323,19.470761 C7.54295788,19.1383383 7.26760037,18.8492899 6.8917061,18.919773 C6.55190962,18.9838177 6.327268,19.3111575 6.36127748,19.7262622 C6.36694574,19.7936955 6.38066887,19.870617 6.4102034,19.9478773 C6.4102034,19.9478773 6.35262595,19.9577043 6.31294822,19.9641426 C6.02774587,20.0122609 5.71837893,20.3382452 5.76461988,20.7692764 L5.76461988,20.7692764 Z" id="Shape" fill="#FFFFFF" fill-rule="nonzero"></path>
            </g>
        </g>
    </g>
</svg>