<svg height="40" viewBox="0 0 36 40" width="36" xmlns="http://www.w3.org/2000/svg" xmlns:xlink="http://www.w3.org/1999/xlink"><mask id="a" fill="#fff"><path d="m0 0h35.8553332v40h-35.8553332z" fill="#fff" fill-rule="evenodd"/></mask><g fill="#fff" fill-rule="nonzero"><path d="m4.618 35.1677311c-.05866667-.1885714-.23-.612437-.27666667-.9253781-.10299999-.6931093.25633334-1.1495799.58633334-1.2541177.37033333-.1042017.515.0833613.65833331.5193277.18533337.6638656.20600003 1.5337816.1436667 2.7791597-.081 1.7011765-.92500001 3.7556303-3.02300001 3.7129412-1.811-.04-2.61233334-1.2228572-2.69566667-3.0275631-.03933333-.8507562.021-1.7011764.37033333-2.9038655.18533334-.6440336.35066667-.8732773.92566667-.9966387.452-.0833613.41133334.3932774.309.9552942-.22533333 1.2440336-.33 1.8447058-.24666667 3.2561344.08066667 1.4937815.76100001 2.074958 1.50166667 2.074958 1.111.0215126 1.60433333-.9119328 1.811-2.2618487.163-1.0783194.04-1.5969748-.064-1.9284034zm23.688 1.4732773c.4326667 0 .5566666.5159664.4533333.8285714-.1033333.3105883-.473.664874-1.0486667.7680672-.1239999-.3119327-.1859999-1.5966386.5953334-1.5966386zm-8.042.7031933c0-.3512605-.1863333-.6420168-.4106667-.6420168-.1873333 0-.6176666.2067226-.6176666.8709243 0 .5203362.1833333.7670589.2673333.8729412.595-.187563.761-.6867227.761-1.1018487zm-6.3993333-4.2312605c-.029-.3327731-.2876667-.5593277-.6376667-.5593277-.3903333 0-.758.4131092-.719.9321008.025.3421849.225.6235296.618.6235296.451.0003359.78-.5183195.7386667-.9963027zm3.3456667 1.2184874c-.0356667-.5801681-.1750001-.8420168-.4840001-.8205042-.4096667.0248739-.599 1.3247059-.5153333 2.6910924.0533333.8914286.185 1.0289076.3076667 1.0201681.2266666-.0137815.7703333-1.6063866.6916667-2.8907563zm13.6469999 2.1838655c-.2549999 1.0665546-1.028 2.6356303-2.1813333 2.6356303-.267 0-.7403334-.1045379-.7403334-.3741177 0-.2907563 1.8116668-.3307563 1.8116668-1.7216807 0-.5179831-.4730001-1.2450419-1.1730001-1.2450419-.9256666 0-1.8286667 1.0174789-1.8286667 2.4278991 0 1.2645378.7790001 1.6796638 1.5606667 1.6796638 1.3583334 0 2.1813334-1.1210084 2.613-2.0537815.2066667.622521.328 2.0537815.8443334 2.0537815.205 0 .35-.1038655.597-.6631932.6156667-1.3909244 1.213-2.9882353 2.0363333-2.9882353.3076667 0 .1233333.5613445.8636667.5613445.349 0 .5949999-.2904201.5949999-.6238655 0-.4776471-.4313332-.8497479-1.089-.8497479-1.9343332 0-2.3443333 2.9253781-2.6533333 2.9253781-.5146667 0-.3499999-2.3445378-.7209999-2.3445378-.3293334-.0003361-.4910001.3952942-.5350001.5805042zm-16.4573333 2.4890756c.3083334 0 .8386667-.1008403 1.256-.7747899-.2386666-.5344538-.409-1.6144538-.4326667-2.0077311-.1226666-2.0110924.6456667-3.9028571 1.4866667-3.9552941.6166667-.0376471 1.11.5509244 1.1666667 1.5045379.1516666 2.5058823-.676 3.5519327-1.0903334 4.4544537.07.349916.6586667.9455463 1.2140001.9455463.2049999 0 .4529999-.1038656.5153333-.1878992-.0413334-.1442017-.0833333-.3307563-.0833333-.6013446 0-1.4521008.9259999-2.6766386 1.7286666-2.6766386.6376666 0 1.008.8504202 1.008 1.4117647 0 .6628571-.556 1.2033613-1.3783334 1.7220168.1446668.1442017.4106667.2490756.6380001.2490756 1.1736667 0 1.7876666-1.4319327 2.2423333-2.7394958.082-.2494117.227-.6013445.5143333-.6013445.4936667 0 .7003333 3.2779832 1.521 3.2779832.351 0 .6383334-.7267227.6383334-1.2853782 0-.4154622-.144-.4571428-.144-1.0588235 0-.6631933.3499999-1.2228571.8243333-1.2228571.2876667 0 .3916667.2890756.3916667.6410084 0 1.3280672-.9476667 3.7973109-2.3446667 3.7973109-1.051 0-.969-1.8258824-1.339-1.8258824-.4133334 0-.9893334 1.8463866-3.024 1.8463866-.3306667 0-.6796667-.1657143-.967-.4984874-.493.3327731-.9056667.4779832-1.379.4779832-.7603334 0-1.0903333-.7885714-1.398-.7885714-.371 0-.7813333.8090756-2.017.8090756-.9873333 0-1.152-1.3263866-1.501-1.3263866-.3093333 0-.7823333 1.3263866-1.2963334 1.3263866-.8653333 0-1.0486666-2.3021849-1.81133326-2.3021849-.59633335 0-2.48133334 2.3381513-2.99300001 2.2847059-.20566667-.0215126-.29233335-.1764706-.27066667-.3842017.029-.2870588.27399999-1.0554622.37333335-1.4188235.16633335-.6309244.31899999-1.322353.40433334-1.5428571.08466663-.222521.313-.3811765.49633333-.3640337.0923333.0087395.11999996.182521.14866665.3260505.10400001.5129411.24899998 1.0359663.41266667 1.0359663.28900002 0 1.24333333-1.8467226 1.79866667-1.8467226.68000003 0 .76133333 2.9052101 1.68666673 2.9052101.3093333 0 .5363333-.3727732.7413333-.8305883.0209999-.7687395.2266666-1.8658823.8436666-1.8658823.4323334 0 .6383334.9741176.3286667 1.8258823-.0006667 1.0157983.657 1.2648739 1.09 1.2648739z" mask="url(#a)"/><path d="m28.8596313 6.24531745c-.1602653 0-.3898157 0-.5161383-.23043298-.1035776-.18908965-.0685852-.49387655-.263493-.63008519.1949078.05224002.4010132.05224002.5612786.05224002.5164882 0 1.0098814-.3252983 1.3884995-.3252983.249496 0 .3299787.14710534.3299787.2935697.0003498.4624684-1.0179298.84000675-1.5001255.84000675zm.2519455 1.18613692c1.1907923 0 2.2811564-.87109433 2.2811564-1.63706767 0-.3573474-.1840602-.6509171-.6540085-.70347761.0801327.09454483.1144252.16793725.1144252.3358745 0 .57752466-.9605421 1.21786553-2.0047162 1.21786553-.3786181 0-.4933932.2410092-.4933932.36696215 0 .29421068.3100329.4198431.7565363.4198431zm-.0913303.44099553c.1494177.9967268 1.7986109 2.3405453 2.2454642 2.3088167.2988353-.0230753.4132606-1.30151368.4132606-2.3088167 0-.57720416.0346425-1.02877591-.2981355-1.13389689-.5280357.97653583-1.9130361 1.17588123-2.3605893 1.13389689z"/><path d="m4.53491776 14.9108454c.37804675 0 .3001936-2.3135762.91247973-2.3135762.14516723 0 .18970331.1446622.18970331.3226035 0 .5226176-.25633744 1.2904138-.25633744 1.712515 0 .21156.05575509.2784577.15604627.2784577.26755646 0 .73501534-2.547209 1.19125521-2.547209.14482727 0 .21146137.1446622.21146137.2893244 0 .5338238-.67858025 2.0683975-.67858025 2.5020445 0 .0668978.02175807.1222498.07785311.1222498.27843552 0 .83496658-1.2007641 1.01277093-1.8011461.10029118-.3117368.23389944-.4788115.35662863-.4788115.11117019 0 .21180137.1225893.21180137.3786346 0 .600382-.55721099 2.0127061-1.04710789 2.9584436-.37804677.733838-.96823484 1.7896002-.96823484 2.3791157 0 .3005306.05473521.6115882.48921695.9898832-.7125773-.0444853-1.00189185-.1110435-1.26876838-.6669402-1.19159518 2.3685886 2.19314708 2.1352954 1.03520894 4.2362929-.21180137-.3772763-1.8813945-.7667775-1.8813945-2.9686311 0-1.9016625 1.66959313-3.0137955 1.66959313-3.8029855 0-.1555288-.05507515-.2889848-.19990241-.4112345-.36784764-.3120764-.37906666-.5671029-.66838121-.5671029-.21112143 0-.46813882.4889989-.20058235.9226459.08941213.1446622.16726528.2336328.16726528.3670888 0 .3110577-.49023687 1.1447329-.83496655 1.1447329-.34540962 0-.61194617-.855069-.61194617-2.234793 0-1.2238557.27775557-2.4575593.62316518-2.4575593.09995121 0 .13326828.0665582.13326828.1558684 0 .1446622-.04419611.4333074-.04419611.9226459 0 .5226176.12238923.5674425.22268041.5674425"/><path d="m7.09214576 18.638974c.47622864 0 .87222124-.3545547.87222124-1.1410593v-1.1651145c0-.4451978.03423864-.9472221.32889864-1.3017767-.03423864.1488641-.03423864.3085357-.03423864.4570512 0 .9820849.54332254 1.6559827.54332254 2.6032048 0 .3535087-.10202429.5480431-.37316678.5480431-.26076718 0-.23794141-.239856-.29500587-.239856-.04495984 0-.1130913.1481668-.1130913.3081871 0 .239856.16980988.6163742.64534683.6163742.40809718 0 .73595831-.3765182.73595831-.7990553 0-1.0267092-.79267689-2.1691629-.79267689-3.2649005 0-.4797121.12450424-.7990552.22652853-1.0507646 0 2.2723569 1.91390653 3.9276423 1.91390653 4.8748643 0 .2171952-.158397.3887202-.3963385.3887202-.2604213 0-.38527131-.2060391-.38527131-.3660594 0-.0798357-.01141288-.1024965-.0453057-.1024965-.06743978 0-.27148837.2283513-.27148837.5257309 0 .3761695.30538119.8335694.87187538.8335694.645001 0 .9963796-.5487404.9963796-1.0396085 0-1.1982343-2.32165785-3.0138885-2.32165785-4.9543516 0-.3315451.05602689-.8680835.29465999-1.2787672-1.49508819.9698829-1.95921226 2.2605035-1.95921226 3.3907553 0 .9820848-.03389282 1.4722557-.53225554 1.4722557-.26076717 0-.32855276-.2391588-.41951005-.2391588-.06778559 0-.10202429.2053419-.10202429.2621682.00069169.4221885.30676457.6620445.61214576.6620445"/><path d="m23.8282196 5.55327133c.1440578-.103697.7833139.06058284 1.6099143-.37799228.10181-.05983949.2039663-.08436996.2946949-.08436996.397544 0 .2953877.48652103.6586485.48652103.2829211 0 .6468746-.25571158.8626149-.25571158.3379815 0 .8259078 1.14438365.8259078 1.67996562 0 .62069529-.8716184.99831584-1.904263.99831584-1.5074116 0-2.415737-1.41198878-2.415737-2.32519135.0003463-.07284809.0346293-.09737853.0682196-.12153732zm2.4725291 1.54579135c.4993539 0 .8736962-.24344634.8736962-.3898858 0-.04794593-.0678734-.08474162-.2157403-.08474162-.1475206 0-.4425619-.0118936-.9987078-.10964377-.4771912-.08511334-.8401058-.27987038-.9761988-.27987038-.0453643 0-.0682196.02415879-.0682196.06058283 0 .31703772.5450645.80355874 1.3851703.80355874z"/><path d="m7.42249067 22.9041653c-.36133829.0822501-.94249067.6139051-.94249067 1.4548582 0 1.0029514 1.15059478 2.5500674 3.04594792 2.5500674 1.59925658 0 1.99405208-1.034538 1.99405208-1.7316315 0-1.5461778-1.0184387-2.6320049-2.34401488-2.6320049-.72334573 0-1.37007433.4916245-1.37007433 1.2184282 0 .6767654.54802972 1.69035 1.85152413 1.69035.61360598 0 .97494428-.4103125.97494428-.8800453 0-.4612889-.4489963-1.0958347-1.10676582-1.0958347-.19706323 0-.33925652.1216551-.33925652.3171165 0 .2451868.36100369.4916245.81066912.4916245.10907062 0 .19706322-.0206407.24122682-.0412815.0214126.0315866.0327881.0822502.0327881.1232189 0 .2358046-.2412268.3793514-.61360598.3793514-.55873606 0-1.0957249-.3890463-1.0957249-1.0048279 0-.3677801.33992566-.6339203.83275096-.6339203.97494422 0 1.55542752.808741 1.55542752 1.6184202 0 .7264909-.42658 1.1471238-1.30349446 1.1471238-1.75315985-.0003127-2.60698883-1.4754989-2.22390337-2.971013"/><path d="m20.1527501 29.0722076c.5359806 0 .5080045-.0466012.6758609-.0466012.1671741 0 .178774.1049416.178774.1750212 0 .2564842-.5479216.570953-1.5199195.570953-.5697565 0-.9163869-.3148245-1.0166914-.6641553-.5584978.3728092-1.4073328.7107565-2.2455914.7107565-2.2899437 0-2.8709589-1.037676-3.5863957-1.3745561-.5475804-.2564843-1.3854979.244745-2.558787-1.1184277.1565978.0352177.3691477.0466011.5366629.0466011 1.0272677 0 1.5748481-.5232846 1.5748481-1.3628169 0-.1052972-.0112587-.220555-.0225173-.3251408.3131955.1280642 1.0286323.6865666 1.1964887 1.6765743.021835.1166807.4796873.2212665.7703655.2212665.4025825 0 .9163869-.1750211.9945152-.8615877 1.3408043-.116325 2.2462737-.9430508 2.4363063-1.9928218.4796873.1632819 1.0272677.6175542 1.1613481.8512715.1900326-.0697239.4131588-.1049416.6700611-.1049416.3575478 0 .7601303.0700796 1.2401587.2216223.0225173-.1515427.0446934-.3379473.2685021-.3379473.3350305 0 .2456435.3845484.3575478.6047478.0559521.1166807.3357128.1864046.3357128.4197661 0 .221978-.1797974.3037968-.2913606.3037968-.0446934 0-.1006456-.0117392-.1344215-.0231227-.2231263.0814631-.2347261 1.7580374-1.172948 1.7580374-.6922372 0-1.3292045-.5940758-1.6089652-1.3389828-.0781283-.2212665-.2456435-.3614257-.4022413-.3614257-.1784327 0-.2790784.0352176-.4909459.2799626-.6031914.6865666-1.6089653 1.2806424-2.849124 1.2806424-.3800652 0-.6816609-.0355734-.7601303-.0355734-.0450347 0-.0450347.0117392-.0450347.0231227 0 .0818188.379724.3966434 1.206724.3966434 1.966513 0 2.4472238-1.1536453 2.759737-1.1536453.0453758 0 .1784327 0 .256561.1867603.4588758 1.1177162 1.4591909 1.3742004 2.0848996 1.3742004zm-.8662347-2.3282789c0 .2564842.2012913.4663672.447276.4663672s.4469348-.209883.4469348-.4663672c0-.25684-.2009501-.466723-.4469348-.466723s-.447276.209883-.447276.466723z"/><path d="m27.3679831 21.5415797c-.1432953 0-.2965807.1181497-.2965807.4081237 0 .3204115.2353915.5246369.3680723.5884574.0718038.0435288.1845045.086403.2959564.086403.296893 0 .5325966-.086403.5325966-.3439759-.0003121-.3308845-.461105-.7390082-.9000446-.7390082zm-1.1029683.6640601c-.2147868 0-1.4023587 1.6612957-2.1675371 1.6612957-.1838801 0-.3374777-.3642675-.3374777-.6418047 0-.1502236.0917839-.2575729.4198959-.3331756 1.7579435-.4179421 1.3689544-1.8010461 2.8705897-1.8010461.8279287 0 1.7495144.5904211 1.7495144 1.9188685 0 1.4148505-1.9209069 3.1720406-2.2074976 3.1720406-.2353914 0-.4910752-.3534672-.4910752-.589112 0-.0749481.0309068-.171497.2353914-.2572455.9802775-.4077964 1.5419079-1.3507028 1.5419079-1.8334473 0-.1073493-.0508871-.2133894-.1838801-.2133894-.1735778 0-.9178395 1.7784634-1.7470169 1.7784634-.5734935 0-1.156665-.5452558-1.156665-.8031559 0-.4293972 1.6580426-1.2217527 1.6580426-1.8226469-.0003122-.225499-.1023984-.2356448-.1841923-.2356448z"/><path d="m5.18411132 7.20661743s-.30812085.23107919-.69091799.23107919c-.45682407 0-.81851704-.33649502-.81851704-.81022343 0-.32653194.17013206-.66302691.56331894-.8317565-.01038974.06331376-.01038974.11570028-.01038974.17901404-.00032468.60035594.33993944 1.05255124.95650583 1.2318867zm2.27535401 2.02089834c-.23376928.27318126-.47857763.73662517-.47857763 1.21003223 0 .5682169.35130322 1.041624.893518 1.041624.52078595 0 .7655943-.4419109.7655943-.8941062 0-.70512895-.64870966-1.20039048-1.18053467-1.35755003zm-3.52959095.4206991c-.02013013.03246036-.03214327.07391964-.03214327.1160217 0 .09480996.10649488.19990437.20162597.19990437.08506604 0 .13831347-.02089032.18084649-.02089032.25487341 0 .54221477.17869268.95683051.17869268.24415899 0 .53150035-.0739196.89286863-.2522909.7655943-.37923982 1.06365008-1.31576941 1.06365008-1.47389313 0-.20022578-.16233973-.17387181-.29805578-.35802813-.13571605-.18351348-.08376733-.34581531-.17013208-.43162635-.04902659-.04917261-.20162597-.05238652-.39351154-.07359821-.06396185-.00674918-.14902789-.01060587-.23409393-.01060587-.3503292 0-.76624365.0427448-1.23313278.33713781-.9220898.58267946-.78637376 1.54716992-.9347523 1.78917635zm2.49840882-1.30516349c.07370221.09930939.27695161.22143748.27695161.29503575 0 .14687505-.0857154.33681639-.25552277.33681639-.37240741 0-.66981382-.5579325-.66981382-.87417999 0-.199583.11720929-.22047332.27630228-.22047332.07435157 0 .10649487.01060587.15941761.04210207.0954558.05270789.0954558.26289676.21266509.4206991zm-.97858405 1.28427317c-.35065386 0-.733451-.43130492-.733451-.82115062 0-.21018887.15941764-.47372842.27630226-.47372842.04253302 0 .06396186.03181757.07435161.1057372.06363718.51550906.40422598.8105448.72338594.95741991.03181859.02089032.05324744.0314962.05324744.05238652 0 .07391963-.20227533.17933541-.39383625.17933541zm.90423243-2.6524291c.05292279-.16872959.09545575-.37859704.09545575-.61064039 0-.50490324-.23441858-1.27334597-.95715516-1.27334597-.41429105 0-.71267152.32621054-.71267152.71573484 0 .8317565.84027057 1.16825152 1.57437093 1.16825152zm-2.75393158 4.20988355c0 .7996175.24480835 1.1788574.68052825 1.1788574.34026412 0 .79741287-.2423278 1.33930297-.7054504-.41429105.09481-.73377569.1581237-1.0204677.1581237-.38279713 0-.68020356-.1475178-.99936352-.6315307zm.3724074-.9368509c-.01038975.0530293-.01038975.1054158-.01038975.1578023 0 .4946187.26526316.7684428.61624171.7684428.26493847 0 .57403337-.1578024.84968627-.505546-.11623526.0208903-.25487342.0314962-.38247246.0314962-.3928622 0-.81819236-.1047731-1.07306577-.4521953zm2.6049037-.1471965c-.24513306.0629923-.75520455.3577067-.75520455.8838216 0 .3785971.29740645.6212463.6698138.6212463.19156092 0 .32954974-.0424234.41461578-.1054158-.29740643-.2841085-.40390136-.6000346-.40390136-.9153179 0-.2214374.0318186-.3580281.07467633-.4843342zm.38247247-2.88382972c0 .23140056.19123621.4213419.42500543.4213419.23409394 0 .42565485-.18961992.42565485-.4213419 0-.23140056-.19156091-.42134189-.42565485-.42134189-.23376922 0-.42500543.18994133-.42500543.42134189zm.55260449.94713541c0 .23172198.19188562.4213419.4263042.4213419.23344458 0 .42500549-.18961992.42500549-.4213419 0-.23107919-.19156091-.4206991-.42500549-.4206991-.23474329 0-.4263042.18961991-.4263042.4206991z"/><path d="m24.3253166 14.1202695c0-.217583.1948879-.4028945.4086039-.4028945.23849 0 .4224774.1853115.4224774.4028945 0 .2505198-.1843177.425185-.4224774.425185-.213716 0-.4086039-.1746652-.4086039-.425185zm-3.7980024-3.3555685c0 .2395408.1952182.4358313.432387.4358313.2388202 0 .4337081-.1962905.4337081-.4358313 0-.2392082-.1952182-.4354987-.4337081-.4354987-.2371688 0-.432387.1962905-.432387.4354987zm-.3673142 1.5360559c0 .3380187.2804404.6208101.6163744.6208101.334943 0 .6170349-.2827914.6170349-.6208101 0-.3373534-.2820919-.6211428-.6170349-.6211428-.335934 0-.6163744.2837894-.6163744.6211428zm1.3632245-.6973302c0 .3709557.2923319.664726.6579945.664726.3676445 0 .6609674-.2937703.6609674-.664726 0-.3702902-.2933229-.6643932-.6609674-.6643932-.3656626 0-.6579945.294103-.6579945.6643932zm.0545026-1.4162854c0 .2292273.1839874.4148715.4089343.4148715.2272591 0 .4112466-.1856442.4112466-.4148715 0-.22822922-.1843177-.41354074-.4112466-.41354074-.2249469 0-.4089343.18531152-.4089343.41354074zm1.9571372-1.04532981c0 .22822928.1839875.41354074.4115769.41354074.2272592 0 .4115769-.18531146.4115769-.41354074 0-.22922729-.1843177-.41453876-.4115769-.41453876-.2275894 0-.4115769.18531147-.4115769.41453876zm-.8119229 1.34009811c0 .3809366.3138026.6966648.692678.6966648.3792056 0 .6933385-.3157282.6933385-.6966648 0-.3819345-.3138026-.69733007-.6933385-.69733007-.3788754 0-.692678.31539557-.692678.69733007zm-1.1131734 2.5491142c0 .2398736.1948879.4354987.4310657.4354987.2381596 0 .4333779-.1956251.4333779-.4354987 0-.2398735-.1952183-.4358313-.4333779-.4358313-.2361778 0-.4310657.1959578-.4310657.4358313zm1.4164058-.8719953c0 .2398736.1945576.436164.4333779.436164.2378293 0 .4327173-.1962904.4327173-.436164 0-.2392082-.194888-.4354986-.4327173-.4354986-.2388203 0-.4333779.1962904-.4333779.4354986zm-.400346 1.5363886c0 .4138734.3352732.7518922.7468501.7518922.4112466 0 .7475109-.3380188.7475109-.7518922s-.3362643-.7518922-.7475109-.7518922c-.4115769 0-.7468501.3380188-.7468501.7518922zm1.5584427-.9265574c0 .2837894.2275895.512684.507039.512684.2814313 0 .5086905-.2288946.5086905-.512684 0-.2827913-.2272592-.511686-.5086905-.511686-.2794495 0-.507039.2288947-.507039.511686zm-.0323712-1.3727023c0 .2511852.2061188.4581219.4522061.4581219.2493905 0 .4551789-.2069367.4551789-.4581219 0-.2501872-.2057884-.4571239-.4551789-.4571239-.2460873 0-.4522061.2069367-.4522061.4571239z"/><path d="m25.3481233 25.9256274c-.2702379.2202636-.9020616.7141778-1.9522466.7141778-.5610925 0-.8107137-.1870225-.893815-.1870225-.1040352 0-.2182203.109796-.3327225.2531687-.2467665.3082348-.5693392.8800471-.5693392 1.5062538 0 .4395198.3225727.8787039.9226784.8787039 1.9443172 0 3.3973216-1.2859901 3.3973216-2.3298917 0-.5933015-.3324053-.83539-.5718767-.83539zm-.5401585-.1208763c.0840528-.0758835.103718-.1977672.103718-.3193151v-.252833c0-.319315-.4551541-.5053303-1.0790484-.5053303-.7590133 0-1.1643701.3619575-1.1643701.5164106v.5056661c0 .209519.4576917.4183665 1.0191013.4183665.4469075 0 .8522644-.1208763 1.1205992-.3629648zm-.0837357 1.0885587c.0523348 0 .114185.0325695.114185.2310082 0 .2414169-.1034009.5600604-.4757709.8125577-.2597709.1876941-.6134274.3418114-1.1329692.3515487.0831013-.262906.1455859-.5385713.1455859-.8011416 0-.0883069-.0101498-.1544531-.0206167-.2531688h.1351189c.8211807.0003358 1.174837-.3408042 1.234467-.3408042z"/><path d="m20.1752575 13.0909091c.1242689.9419333 1.4142489.4652108 1.4142489 1.6069071 0 .166582-.0452201.4110377-.0452201.6212967 0 .2441172.0220922.4547148.2126379.4547148.1919264 0 .2374916-.1327239.2374916-.3104791s-.0455652-.3991874-.0455652-.5210767c0-.3883528.2830568-.4767226.4532362-.4767226.4297631 0 .7576949.4323684 1.4028575.4323684-.1473967.7096665-1.6406944.5210767-1.6406944 1.2974437 0 .3883529.3959345.476384.6562087.476384.2374917 0 .3168857-.033181.3168857-.2322668 0-.1113933-.0227826-.2332825-.0227826-.3108177 0-.0446927.0341739-.0890469.0907852-.0890469.2495734 0 1.4680988.9094295 1.4680988 1.1870662 0 .2546132-1.2872185.509565-1.6603703.509565-.1132228 0-.1360054-.0775352-.1360054-.1218894 0-.0775351.1922716-.310479.1922716-.4432029 0-.0998815-.169489-.1665821-.62238-.1665821-.2150542 0-.373497.0223464-.373497.1889285 0 .2986287.4977659.6649737.4977659.9415947 0 .2221094-.1356602.3551718-.4977659.3551718-.3054943 0-.7673603-.2332826-.7673603-.6209582 0-.3104791.3262058-.620281.3262058-.8092094 0-.0555274-.0431489-.1442357-.1788091-.1442357-.4190623 0-.5319398 1.086169-2.013501 1.2083969.2374916-.2105976.4404641-.4435416.4404641-.919587 0-.2329439-.0559209-.4218723-.0559209-.6764855 0-.3328255.1577524-.4994075.3838527-.4994075.4180267 0 .6216896.5762655.8940455.5762655.1473967 0 .3054943-.1323853.3054943-.3321483 0-.842729-1.6510501-.7208397-1.6510501-1.9072288.0003453-.3216522.1128776-.7208397.4183719-1.2747587zm5.3918885 3.248688c0 .276621.0911305.5982732.3738422.5982732.2374916 0 .4408093-.354156.4408093-.7425089 0-.4435415-.0790488-.7875402-.0790488-.9652954 0-.0771965.0341739-.1103775.0790488-.1103775.1698342.0111732.3279318.4655494.5095024.4655494.2036629 0 .5070861-.366345.6310098-.366345.0341739 0 .04522.0446927.04522.0555273 0 .166582-.2602742.532927-.2602742.6768241 0 .1218893.6562087.1438971.6562087.2549518 0 .166582-.6879664.166582-1.0155529.3108176-.3165404.1327239-.5098476.2989674-.5098476.5210767 0 .2217708.2264455.2657864.5433311.2657864.7552787 0 1.2868733-.3988488 1.4563622-.3988488.0338288 0 .0562663.0216691.0562663.0551887 0 .1110547-.384198.4767225-.384198.6433046 0 .1882512.7014287.4093448.6900374.5207381-.0110461.0331809-.0566113.0440155-.1356602.0440155-.1249592 0-.3168856-.0331809-.4642823-.0331809-.0904401 0-.1694889.0108346-.2040081.0551887-.0783584.0890469.0227827.6768242-.1346246.6768242-.1473966 0-.5319398-1.3082784-1.4004412-1.3082784-.1246141 0-.2150542.0998815-.2150542.266125 0 .4432029.4411545.9531064.8598716 1.1972236.1895101.1222278.5067409.2441171.5067409.3111562 0 .1323853-.7217951.0108346-.7217951.2322668 0 .199763.0904402.4997461.0904402.6764855 0 .0555274-.0113913.1215508-.0790489.1215508-.1356602 0-.4642823-.6094465-.6223799-.6094465-.1356602 0-.4297632.3656679-.5543773.3656679-.0338287 0-.0562662-.033181-.0562662-.0660233 0-.2552904.4187171-.8315558.4187171-1.3973253 0-.2661249-.0341739-.8427289-.3624509-.8427289-.2713204 0-.5771598.4211952-.71282.8427289-.0787037.2437786-.0224375 1.1863891-.2036629 1.1863891-.169489 0-.1242689-.6317928-.3510596-.6317928-.1667274 0-.5288331.2989673-.6534472.2989673-.0227826 0-.0455653-.0111732-.0455653-.033181 0-.1327239.328277-.5654308.328277-.6541391 0-.1662435-.7466488-.1882513-.7466488-.3213137 0-.0778737.294103-.1330625.5654233-.1777552.5750888-.0998815 1.4232239-.5099035 1.4232239-1.086169 0-.642966-.6334261-.9206027-1.0497269-1.1867276-.2150541-.1330625-.4525457-.24344-.4525457-.3321483 0-.0890469.2713203-.0890469.3845431-.0890469.1694889 0 .3372519-.0111732.3372519-.1438971 0-.10022-.0227826-.2993059-.0227826-.4547147 0-.1110547.0110461-.199763.0569565-.199763.169489 0 .4069806.5430845.5205486.5430845.180535 0 .429418-.4435416.5995973-.4435416.055921 0 .0790488.0335196.0790488.1330625.0006904.4103606-.214709.87591-.214709 1.2757745z"/><path d="m20.5793983 19.0278715c.494877.067891.6133455.2481297.6133455.3952844 0 .2484743-.215278.3270487-.4200547.3270487-.1499726 0-.3222607-.0337732-.5050501-.0337732-.2369371 0-.4728897.0565184-.6661805.2936201.1394713.0224006.3439198.1244095.3439198.3504832 0 .6544421-1.7301003.112003-1.7301003 1.7944602 0 .8911991.8814585 1.8623512 2.2134914 1.8623512.688824 0 1.1295533-.2371017 1.1295533-.5086659 0-.2140118-.3652507-.067891-.3652507-.2484743 0-.0789191.1289699-.2260738.1289699-.3508279 0-.0544506-.04299-.1568041-.1289699-.1568041-.1942753 0-.5598541.3263595-1.3015132.3263595-.5805287 0-1.1502279-.3487601-1.1502279-.8233082 0-.1013195.0433181-.1581826.107639-.1581826.064649 0 .1503008.0454904.2257794.0454904.0646491 0 .0751504-.0454904.0751504-.1692106 0-.1244095 0-.4745481.2037922-.4745481.2047766 0 .5916864.7902242 2.0756609.7902242.4925797 0 1.449845-.100975 1.8049225-.4400856-.0108295 1.2416823-.9362626 2.8779598-2.8698268 2.8779598-2.0096992 0-3.0844485-1.6931406-3.0844485-3.2508436 0-1.7262245 1.3428623-3.2946109 3.1812579-3.2946109.4722334 0 .8709572.168866.8709572.3835671-.0003281.2939648-.6993254.1130369-.7528168.4624862zm3.2997266.5989575c.0751504.1233756.107639.247785.107639.3604773 0 .3163654-.2044485.6096409-.2044485.9373788 0 .3721946.2690975.6764981.6756973.6764981.4407293 0 .7419873-.3715053.7419873-.8122801 0-.5982683-.5162079-1.1059003-1.3208751-1.1620741zm-3.5579946.7219885c.1069827.1123476.1397995.2253844.1397995.3384213 0 .1692107-.0751504.3501386-.0751504.5420945 0 .269841.1936189.5072873.4725615.5072873.3015861 0 .5063628-.2488189.5063628-.5410605 0-.4290576-.420711-.8467426-1.0435734-.8467426zm1.4285142-1.9188696c1.1292251.225729 1.7422425 1.1176175 1.7422425 1.9529874 0 .5758677-.3439199 1.105211-.9464358 1.105211-.5486965 0-.9444667-.3945951-.9444667-1.0266366 0-.4738588.3524521-.9704628.3524521-1.4560388 0-.1916112-.0534913-.3835672-.2037921-.575523zm.5591978 1.5011846c0 .1578381.107639.2822475.258268.2822475.1716317 0 .2795989-.1581827.2795989-.338766 0-.236757-.2044485-.5641503-.3980675-.5641503-.0863081 0-.0538195.1354374-.0751504.2822475-.0111577.1123476-.064649.247785-.064649.3384213z"/><path d="m10.3466199 8.85178504c.351493 0 .7544624-2.02240213.7544624-2.36338465 0-.08793051-.0306333-.15404621-.102953-.15404621-.3208597 0-.7652034 1.92373197-.7652034 2.35264501-.0003123.07685533.0202152.16478585.113694.16478585zm2.5337179.60443846c.2580141 0 .5476089-1.05550191.5476089-1.71498089 0-.14297103-.0205274-.296346-.0830572-.296346-.217275 0-.5791897 1.08805637-.5791897 1.68141961.0003159.23090154.052424.32990728.114638.32990728zm-1.6867241-.97831104c.1136904 0 .2586458-.13256698.5283448-.4503922.0202116-.14297103.0202116-.27520242.0202116-.43998827 0-.21949072-.0827414-.46146749-.2065376-.46146749-.310754 0-.4654993.87930529-.4654993 1.11054248.0003158.13122456.0618982.24130548.1234805.24130548zm1.4173408-.4503922c0-.18727191-.0416864-.23123719-.0827414-.23123719-.1035846 0-.2169592.13223144-.382442.42891303.0205275.39568739.0827414.57154847.1860102.57154847.1136905 0 .2791732-.3849478.2791732-.76922431zm.7964648-1.2971431c.6827742 0 .9925807.62658888.9925807 1.33003315 0 .30742123-.0821098.75848467-.2166435.75848467s-.1136904-.25305195-.1345337-.48395349c-.0205274-.29668165-.0726355-.36246175-.1657985-.36246175-.1759044 0-.289279.43931703-.289279.84641524 0 .25238077.0413707.53832278.2270651.53832278.1035846 0 .1967476-.05504046.2589615-.12082057-.0413707.50509713-.3934952.94542101-.8896277.94542101-.9101552 0-1.2515423-1.13235726-1.3544953-1.79183625-.5482406.6155137-1.0547947 1.06624155-1.96526562 1.06624155-.84762543 0-1.23038328-.65947893-1.23038328-1.28573227 0-.18727185.06189815-.67055416.27948901-.67055416.25832994 0 .03094908.90078452.53750318.90078452.12442785 0 .35117711-.11008098.4759208-.47220708.07231981-.22016195.11369041-.45039226.11369041-.6487394 0-.29701723-.0618981-.48328225-.26875151-.48328225-.17622022 0-.39349525.14229979-.46581502.21949072.24853994-.79137479.84825703-1.19780176 1.50924063-1.19780176.8179396 0 1.2518581.76922431 1.2518581 1.62671479 0 .12048492-.0104216.25238071-.0312649.37353692.3518088-.6155137.8384671-1.08805637 1.3655486-1.08805637z"/><path d="m11.4529797 10.1818182c-.4949195 0-.5177673.5612373-.5177673 1.6916073-.3687291-.7431623-.97823924-1.5406062-1.69214648-1.5406062-.48331977 0-.66715708.3020023-.66715708.8293548 0 .1079049.01124819.2697623.03444752.366153.05764687-.182583.24183566-.2582481.47172011-.2582481.49562245 0 1.09388453.3552968 1.48510983.84054-.4485207-.0753361-.88614479-.1510011-1.25417084-.1510011-.23058746 0-.43762411.0217126-.61021317.0970486-.33393005.1398159-.78280229.6033466-.78280229 1.3037418 0 .1079049.01159967.2260082.034799.3552967.40282505-.84054 1.47315866-1.2175493 2.1638666-1.2175493.1384931 0 .2414841.0108563.3223303.0217126-.3571293.3013443-.4372725.8293547-.46082341 1.1849804-.01089666.1723848-.08049472.18357-.20738812.18357 0 .3549678.29983403.8833073.29983403 1.1524117 0 .0970486-.0576469.183241-.11494223.2049536 0 .4740579.50581613.8188274.50581613 1.1201717 0 .075336-.0224964.1401448-.0576469.1727137.0351505.1940973.5919349.5201149.6639935.6836172.0885793.1987031.1880553.2322589.2457022.2322589.1957884 0 .5058161-.21581.5058161-.4099073 0-.0644797-.0576469-.1398158-.1029911-.1723846-.2189878-.1503432-.3342815-.4737291-.4263759-.688881-.0808462 0-.1848918-.0319109-.2214483-.1588966-.0629194-.2230474-.066083-.6385472-.1581774-.886597-.1497412-.0322399-.2189878-.0861923-.2189878-.3770093 0-.1401449.0924459-.6898679.0924459-.8839652-.068895 0-.1609894-.0430962-.1609894-.1723847 0-.3444405.368729-.6138739.4717201-1.055363.6562604.4520164.8168983.9152181.8168983 1.3251253 0 .214823-.0344475.4197766-.0804947.6142028.4836713-.2266661 1.2088266-.5605793 1.2088266-1.2392619 0-.3990509-.1957884-.84054-1.4967095-1.0129247.4028251-.1401449.9096957-.215152 1.3353686-.215152.7371066 0 1.1627795.215152 1.2545224.6997372.1497413-.2151518.265035-.4632016.265035-.6892098 0-.5283395-.4724231-.872451-1.0706851-.872451-.7023076 0-1.3237689.3441115-1.991629.764875.3001855-.5816339.5061676-.9264034.8752482-.9264034.0572953 0 .1149422.0108563.1725891.0217126-.1381416-.473729-.6559089-.9375887-.9325435-.9375887"/><path d="m30.0064646 17.4545455c.5301011 0 .9535354.7664095.9535354 1.6631951 0 .9551307-.4027475 1.9934572-1.1206465 2.7004412-.0106666-1.5918845-1.7593535-1.0847864-1.7593535-2.2401632 0-.495213.3183839-.8258351.699798-.8258351.3390707 0 .6037979.1062456.794505.3190971-.1907071-.2009664-.2860606-.4844083-.2860606-.7552447 0-.4491132.2543838-.8614904.7182222-.8614904"/><path d="m19.7447145 7.06983889c.3054307.29815004.5743386.42884091.9030436.42884091.12962 0 .2825144-.035312.3648697-.035312.1056296 0 .1754525.04732538.1754525.13069093 0 .13141896-.1174457.34620346-.2578078.4656091.1403621.05933877.2932564.08336554.4576089.08336554.6660036 0 1.4286851-.42956901 1.4286851-1.50203539.1414363.19002969.2234335.58392262.2234335.76303105 0 1.29926427-.9392083 1.79982136-1.8050129 1.79982136-.5632386 0-.8453949-.19112181-.9162921-.19112181-.2223592 0-.2105431.45359578-.3630794.44158239-.2699821-.04768946-.5156156-.6556388-.5156156-1.29926427.000358-.38187955.0941715-.78705777.3047145-1.08520781zm1.7699224-.87042331c-.0938134-.15508171-.4440023-.23808317-.6076387-.23808317-.517048 0-.8690272.36913812-.9392083.70332826-.0469067-.11940564-.0819972-.26247397-.0819972-.4055423 0-.52458385.3519793-1.16820928 1.2091904-1.16820928.7483588 0 1.0416153.40517823 1.1476029.40517823.1170878 0 .2345336-.11940564.328705-.11940564.128904 0 .128904.20277118.128904.34620353 0 .47653037-.2116173 1.29926421-.7394073 1.59741426-.0941714-.20277112-.2817983-.42956901-.5847225-.57227332-.0819972-.03567608-.1170877-.10702817-.1170877-.17874435-.0003581-.13141902.1167297-.29851406.2556594-.36986622z"/><path d="m12.3251803 4.02068384c0 .38448796 1.3790577 2.26331219 1.6442222 2.26331219.2210266 0 .3861227-.38448796.3861227-.71462421 0-.08723113-.0222375-.17479776-.0657015-.24122762-.1987892-.27477804-1.6000843-1.37355471-1.9093867-1.37355471-.0333562 0-.0552567.03321493-.0552567.06609435zm-8.10992365-1.13165609c0 .22009084-.83828376.95585183-1.13579363.95585183-.11017637 0-.14386944-.1315177-.14386944-.25229926 0-.21941982.09939458-.5274128.22102658-.62672208.14285865-.1318532.4740616-.19694104.72777047-.19694104.1543143 0 .33086602.03220842.33086602.12011055zm10.07456705.63745822c0-.6596015-1.7901132-1.85701644-1.8099922-2.3730221-.0020215-.04730611.0239221-.09427671.0640169-.13621475.306607-.32208416 1.5798684-.55693719 1.5798684-.83137973 0-.14225383-.2651645-.14225383-.3975783-.14225383-1.0259542 0-2.5266439.37341631-2.5266439.73576099 0 .37408732 1.3460384 1.28598808 1.3460384 1.73657039 0 .12078156-.0771571.16473262-.1987891.16473262-.374667 0-1.1913872-.45091781-1.5775099-.45091781-.1765517 0-.243264.12078156-.243264.29725683 0 .5270773.6290498 1.52688019.6290498 1.82279501 0 .03321493-.0111188.07716599-.0552567.07716599-.1987891 0-1.1357936-1.09810565-1.46733352-1.09810565-.12095814 0-.13241375.16439711-.13241375.40629573v.37341632c0 .25263476-.01111876.40663124-.13173995.40663124-.28773889 0-.41981573-.80185534-.6954251-.80185534-.28706503 0-.34232167 1.42790641-.61759413 1.42790641-.32042116 0-.04447484-1.57116676-.35344039-1.57116676-.34198471 0-.72844432 1.04408946-.97137142 1.04408946-.08793891 0-.10983943-.08823763-.10983943-.16506812 0-.31839361.18699659-.83473477.18699659-1.14205673 0-.15433199-.04413793-.24189862-.17587788-.24189862-.34265857 0-1.09266646.54922058-1.37939453.54922058-.04413794 0-.0993946-.02180778-.0993946-.06609435 0-.26303539 1.20250591-1.09844116 1.20250591-1.47185748 0-.36301568-1.6556778-.12078155-1.6556778-.53881995 0-.35127303 1.18161623-.7139532 1.18161623-1.07663338 0-.31872911-1.40163202-.46098294-1.94206898-.46098294-.65128718 0-1.0040537.07615948-1.0040537.26303539 0 .28584969 1.47878916.37408732 1.47878916.62638658 0 .24189861-1.53404581.89009297-1.53404581 1.26350929 0 .32980075 2.1624217.02180778 2.1624217.36301568 0 .37308081-1.88613847 1.98786314-1.88613847 2.52634758 0 .12111706.08827587.17613977.20923401.17613977.57379311 0 2.06269017-1.08770503 2.4713872-1.08770503.14353252 0 .15465123.17546877.15465123.32946525 0 .28584969-.09905763.72502485-.09905763 1.04408947 0 .25229923.0660384.42810353.28639117.42810353.40903393 0 .78336402-.69214544 1.0599842-.69214544.35276652 0 .14319556 2.0324852.67285072 2.0324852.45216111 0 .6394946-2.19721782.92655963-2.19721782s.51921032.63712273.78370097.63712273c.33052911 0 .17621478-1.10951283.52965517-1.10951283.3857857 0 1.489234 1.31853198 1.98587 1.31853198.1543143 0 .209234-.12111703.209234-.27511355 0-.58243548-.8160463-1.90029648-.8160463-2.31766385 0-.10970992.0326823-.14292485.1539774-.14292485.4302605 0 1.6886969.59317165 2.2840537.59317165.2001368 0 .321095-.10970992.321095-.25263476zm-1.1479232-2.17541005c0 .19761205.6950882.62638658 1.0155094.62638658.1873335 0 .2425901-.25297027.2425901-.51667667 0-.32946525-.1428586-.34053688-.4302606-.34053688-.3642221 0-.8278389.09897377-.8278389.23082697zm-2.5930192-1.12091996c0-.06609435-.330866-.1321887-.7830271-.1321887-.71732561 0-.61793103.59417816-1.16948672.59417816-.5737931 0-.43093445-.61598594-1.15904187-.61598594-.4413793 0-.84906551.07716599-.84906551.17580427 0 .1321887.5181995.07716599.5181995.44018167 0 .38415245-1.11456698.49419787-1.11456698.72502485 0 .07683049.08793892.10970992.19845221.10970992.24326405 0 .62871284-.10970992.90499606-.10970992.15465123 0 .29818374.03254392.29818374.17546876 0 .27477805-.59636748.76931142-.59636748.98906676 0 .06609435.05491975.08823764.11017639.08823764.22102658 0 .59636742-.56062773.94913395-.56062773.58491181 0 .19912612 1.24136601.51853646 1.24136601.330866 0 .18767045-1.21989373.66206897-1.21989373.38679651 0 .67318768.84614191.93801529.84614191.06637539 0 .12129509-.05468721.12129509-.13185321 0-.23015596-.33086605-.70321706-.33086605-1.01053903 0-.18687591.1324138-.27511354.30896555-.27511354.2533719 0 .5956936.15399648.7826901.15399648.0660385 0 .1324139-.02180778.1324139-.09863827 0-.2637064-.9811425-.54922058-.9811425-.88975747.000337-.3408724.540437-.3408724.540437-.49486889z"/><path d="m30.4098891 2.07116252c0 1.01776255-.7409853 1.79584605-2.0798546 2.01316438.1490347.01118037.2862025.01118037.4237194.01118037 1.56469 0 2.137095-.70890499 2.137095-1.30356063 0-.33226646-.1832394-.62924488-.4809598-.72078412zm-1.9308199 1.1550714c0-.81232335-1.9416397-1.01846132-1.9416397-1.2011904 0-.14848922 1.0840793-.40074619 1.6442684-.41227595-.8572115-1.09812142-2.0788076-.98352268-2.0788076-1.1781309 0-.11459874.914801-.34379621 1.7594474-.34379621.7085258 0 1.3716779.16036835 1.3716779.69807401 0 .29802659-.2401309.60723355-.2401309 1.06423094 0 .25190759.1249519.46922592.457575.46922592.35531 0 .4345392-.3773373.4345392-.77843287 0-.3312183-.0568915-.58312589-.0568915-.74349424 0-.48040629.3291329-.80044422.7982258-.80044422.3888166 0 .4806108.17084994 1.0526668.17084994-.3092384.18377724-.4233703.51569432-.4233703.6753639 0 .48110505.3095874.81267274.3095874 1.7968942 0 1.80702641-1.6913871 2.44780105-3.7611199 2.44780105-.5689147 0-1.1758735-.04576962-1.7709653-.13695947-.0910961-.01152975-.1141319-.03423986-.1141319-.09153923 0-.1488386.8125359-.22919747.8125359-.96081257 0-.28649684-.0917943-.56076516-.0917943-.66348476 0-.05729936.0457226-.09188862.0917943-.09188862.1713724 0 .5151645.66348476 1.1531867.66348476.1696273 0 .5933466-.05729937.5933466-.58347528zm1.8624105-2.52815991c0 .15966958.1256499.28544868.2858535.28544868s.2862025-.1257791.2862025-.28544868c0-.16036836-.1259989-.28649685-.2862025-.28649685s-.2858535.12612849-.2858535.28649685z"/><path d="m29.4548936 11.1563818c0-.2392541-.5546808-.261891-.6067021-.9350764-.0108511-.1023882-.0421277-.2845279-.1573404-.2845279-.1879787 0-.0418085.6272152-.2508511.6272152-.4806383 0-.6373404-1.02666868-.8151064-1.02666868-.0421276 0-.0919148.03412943-.0919148.17099537 0 .1257216.0210638.20547302.0210638.35313501 0 .1487067-.0319149.2514433-.1570213.2514433-.2824468 0-.533617-.7188074-.7742553-.7188074-.0523404 0-.1043617.03447766-.1043617.09159223 0 .13686594.2087234.38726447.2087234.51298607 0 .2740801-.6797873.1253733-.6797873.3538315 0 .1027365.0938299.1365176.2195745.1365176.2198936 0 .5652128-.1020399.7429787-.1020399.1046809 0 .261383.0226368.261383.1702988 0 .1598511-.3765957.3649758-.3765957.5133343 0 .0686071.0625531.1023883.1148936.1023883.2824468 0 .782234-.5356229 1.137766-.5356229.0625532 0 .2192553.0341294.2192553.1368659 0 .1480102-.3552128.4099013-.3552128.6268669 0 .0571145.0319149.1253733.0944681.1253733.1870212 0 .4381915-.5356229.7940426-.5356229.1359574 0 .3347872.0571146.4397872.0571146.0839362 0 .1152127-.0571146.1152127-.0915923zm.2719149 5.5314037c.1675532-.5697524.376915-.9695541.7193617-1.5852767-.3424467-.1932839-1.2529787-.6045783-1.2529787-1.2774154 0-.7870661.8990426-1.4027887 1.0854256-1.4027887.0839361 0 .1046808.0800996.1046808.2284581 0 .4102496-.177766 1.0715941-.177766 1.4254256 0 .3190056.1882979.6275635.355532.6275635.1777659 0 .6692553-.6843297.6692553-1.3575151 0-1.2091565-.972766-1.5737841-1.2737235-1.5737841-.2824467 0-.7949999.5014935-1.9975531.5014935-2.2464894 0-2.7590426-2.42841264-2.7590426-3.48955896 0-.04562194.0098937-.05711451.0204256-.05711451.0523404 0 .2725531.29706526.9832978.29706526.3660639 0 .7008511-.10308481 1.2344681-.10308481 1.2520213 0 1.8067021.94726553 2.5809575 2.15537732.4681915.3190056 1.5877659.8326881 1.5877659 2.2810989 0 1.2774153-1.2446808 1.9843819-1.5459574 3.3530412.4787234-.0567663.7614893-.9925392 1.2529787-.9925392.2511702 0 .3660638.2169656.3660638.5596528 0 .5011452-.2617021 1.2544302-.7637234 1.7217943.0102128-.045622.0102128-.1030847.0102128-.1713436 0-.3190055-.1145745-.7748771-.45-.7748771-.520532 0-.687766.6157226-.9804256 1.1283604-.3035106-1.1628381-.7113829-2.2124918-1.4428723-2.8511995-.7401063-.649852-2.0167021-.296717-2.0167021-1.4825401 0-.3197022.188617-.7755737.188617-1.1405495 0-.1253734-.0210638-.2396024-.0842553-.3308464 1.0043617.4109461.6485106 1.1402012 1.266383 1.893138.3845744.4795531 1.4511702.9354246 2.0680851 2.908314.0102127-.0567663.0207446-.2047765.0207446-.307513 0-1.6880132-2.0476595-3.3422453-2.2254255-4.0265749 1.1894681.1483585 1.3985107.4680606 1.9634043 2.1787106.1158511.3538315.4927659 1.2321417.4927659 1.6650281z"/><path d="m23.2184027 4.48553224c-.7855272 0-1.3013395-.37794793-1.3013395-.57302848 0-.09737523.0670864-.16174191.1574477-.16174191.2464398 0 .7848426.36705511.9638538.36705511.0455229 0 .0787238-.02112548.0787238-.08615232 0-.19475047-.1906486-.51889446-.1906486-.68063636 0-.04357129.0338855-.07558959.1009719-.07558959.3025734 0 .7512994.11883079.9874709.11883079.0783816 0 .1006296-.0432412.1006296-.08681249 0-.23766158-.7293936-.70242201-.7293936-.84303844 0-.12972361.9063512-.32480416.9063512-.52945719 0-.2165361-1.2321995-.06502685-1.2321995-.27067013 0-.15117917.2358293-.4106264.2358293-.52945718 0-.05413403-.0451806-.07558959-.1232199-.07558959-.1009719 0-.6393747.2053132-.8639088.2053132-.1119247 0-.2467821-.02145556-.2467821-.17329491 0-.2485544.4374308-.51856436 1.121986-.51856436 1.1079527 0 1.7702602.73510047 1.7702602 1.96730974.0006843 1.55668335-1.130201 1.94552411-1.7360324 1.94552411zm-2.1851003-2.05346207c0-.11916088-.4381154-.34592964-.4381154-.47565325 0-.02145556.0219057-.03234838.0557913-.03234838.1239044 0 .3371434.04324121.5058863.04324121.1458102 0 .1680582-.60537686.2782716-.60537686.0783816 0 .2125544.57302847.3368013.57302847.1454679 0 .4144982-.16240208.5267652-.16240208.022248 0 .0448384.01056274.0448384.03267847 0 .07558959-.2803254.36705511-.2803254.45353752 0 .09737522.6284217.2165361.6284217.30301851 0 .10826805-.6397168.09737523-.6397168.19475046 0 .07492942.2358292.37794793.2358292.47532316 0 .02178565-.0116374.03267847-.0338854.03267847-.0900191 0-.4374309-.15183934-.5384028-.15183934-.1235622 0-.32311.44330486-.4240819.44330486-.0335432 0-.0557913-.04324121-.0557913-.09737523l-.0225903-.43208196c0-.0432412-.0219058-.08681249-.0783816-.08681249-.1348574 0-.3929347-.01089282-.4720008-.01089282-.0561336 0-.0783818-.01056274-.0783818-.03234839-.0003421-.08648241.4490685-.38884074.4490685-.46443033zm-.3261906 1.77189911c.180038 0 .2135812.42217939.247809.67040371.022248.1300537.0448383.14061643.1009719.14061643.1348573 0 .3474117-.4971088.4915107-.4971088.2125544 0 .7851848.57302847 1.738428.57302847 1.3554194 0 2.6341686-.91928819 2.6341686-2.54000813 0-1.56757618-1.1449187-2.48653428-2.7241876-2.48653428-.7509571 0-1.3013396.35682245-1.5929601.35682245-.1769576.01089283-.4459877-.42118913-.5811874-.42118913-.0557912 0-.1119248.1072778-.1119248.29146552 0 .11916088 0 .49710881-.1348574.49710881-.2697147 0-1.3116078-.74533313-1.3116078-.47565325 0 .24888449.694139 1.0057706.694139 1.20019098 0 .19442037-.6831861.3786081-.6831861.50800163 0 .23766158.7283667.28090278.7283667.58392129 0 .30235835-.7625945.54035001-.7625945.76744885 0 .18352756.7625945.05413403.7625945.28090279 0 .22676875-.5603084.98365487-.5603084 1.19920072 0 .05446411.0109529.05446411.0554489.05446411.213239 0 .8522714-.70308217 1.0093768-.70308217z"/><path d="m16.2098769 23.3992861c0 .1039968-.0307972.2196272-.1123008.3345525-.1113674-.2305557-.4277381-.346186-.5705249-.3458335-1.0492806 0-.6520285 1.7203543-1.772547 1.7203543-.46849 0-.5095528-.0694487-.6822035-.0694487-.0715489 0-.1123007.0349006-.1123007.1039968 0 .3007094.3770317 1.0389107 1.4263124 1.0389107 1.0492806 0 2.0581205-.7269202 2.0581205-1.6283436 0-.1501784-.0304861-.3105803-.0917693-.4723924.0407518-.0694487.1430979-.1156303.2345561-.1156303.162696 0 .2544653.2086987.4072067.2086987.1633182 0 .2855736-.13925.2855736-.323624 0-.1508836-.0712379-.2541753-.1931821-.3243291.0815035-.0687437.1424757-.184374.1424757-.3112854 0-.1970652-.1225665-.3807342-.3266364-.3807342-.0917693 0-.1524304.0352532-.2236682.1142202-.0199093-.2065835-.1222554-.4029436-.3160597-.4029436-.1527414 0-.2653532.1265589-.2653532.323624 0 .1833165.1123008.3342.1123008.5302076"/><path d="m10.1110449 21.456175c.8229768.235745 1.2344651.7459826 1.3164487 1.3510977.0822977.5808525.1850128 1.0559638.3803912 1.2924331.2572588.3327951.7614106.6275669 1.2039962.6275669.3703396 0 .668119-.1408676.668119-.5326895 0-.4273105-.5038377-1.3876726-1.2445168-1.3876726-.071932 0-.1645954.0123123-.2676245.0123123-.0926635 0-.2264757-.0235383-.3084593-.1068276-.1642813-.1665787-.2161099-1.0559638-.5245692-1.5893776-.3392423-.5931648-.7095819-.7593813-1.2134196-.7593813-.35965972 0-.7614106.2248811-.7614106.5573142 0 .2027914.09266342.3447454.7510449.5352244zm2.870053 2.6558431c-.3090874 0-.7717763-.3802339-.7717763-.5938891 0-.1781667.144178-.2730441.2566306-.2730441.2575728 0 .719949.3686457.719949.6768163.0003127.0829272-.0512019.1901169-.2048033.1901169z"/><path d="m12.4313358 15.6756565c0-.7192819 1.7103436-1.1012287 1.7103436-1.9893495 0-.14619-.0563359-.4042529-.1576718-.5953979.5956489.3256672 1.0346565.8767963 1.0346565 1.3260042 0 .7755615-.8096565 1.1352024-.8096565 1.6187272 0 .5617674.8659924.6516776.8659924 1.3483102 0 .5727488-.8213359 1.236094-.8213359 1.9776818 0 .5730919.4053435 1.0446058 1.0233206 1.1235346-.2023282.0449552-.3819847.0785857-.5733206.0785857-1.1366794 0-2.3063359-.9323896-2.3063359-2.045286 0-.5504428.2363359-1.0329381.5956489-1.3815976.315687.2697307.6303435.449208.8330153.449208.1796565 0 .2590076-.0895671.2590076-.2244324.0003435-.4162638-1.6536642-.7978675-1.6536642-1.6859883zm3.5886642 5.6753255c-.3857634.1763888-.5396565.1461899-.5396565.5398046 0 .1458467-.0340076.3359622-.0340076.4375401 0 .1348654.0223282.2137942.1796565.2137942.4053435 0 1.0466794-.6853081 1.0466794-1.2700677 0-.1578576-.0903436-.2240892-.1916794-.2240892-.09 0-.1906489.1791341-.4609924.303018zm-.045-.8095351c0-.5054877-1.0463359-.5168123-1.0463359-1.2810492 0-.1914882.1233206-.5168122.3713359-.8658149.1016794.5844165.3369847.8881209.8440077 1.0796091 1.0006488.3702791 1.1359923.9320464 1.1359923 1.5284738 0 1.0116616-.7086641 2.2700616-2.5309924 2.2700616-1.4626717 0-2.5090076-1.3040415-2.5090076-2.4052701 0-.3037044.0786641-.640353.27-.640353.1690076 0 .225.1345222.36.2690444.5066794.5065171 1.0576717.6406961 1.8563359.6406961.72.0003432 1.2486641-.2916935 1.2486641-.5953978z"/><path d="m7.59039214 20.3328234c.02386633.2317809-.12201648.4408582-.32577504.4679671-.20405687.0271089-.38902076-.138933-.41229038-.3703751-.02386633-.2321198.12201648-.4418748.32607334-.4689837.20405692-.0271089.38842415.1392719.41199208.3713917zm-1.82577226.436453c.0414677.3788466.35262465.6662008.70375764.62181.12678977-.0159265.2443313-.0552344.32279176-.1108075.07816215.3547875.34039318.5831798.6948078.5303175.35978452-.0532012.60441418-.3751192.56563141-.7858188-.0101432-.1104687-.02953454-.177902-.05847247-.2555012 0 0 .04743431-.0057606.08323375-.0132155.35292301-.0759049.59069105-.3974841.56115647-.7858188-.03878273-.3995171-.35441462-.6960205-.68287459-.6499354-.12738643.0176208-.24492796.0728551-.32338842.1504543-.08830535-.3324227-.36366286-.6214711-.73955713-.550988-.33979648.0640447-.5644381.3913845-.53042862.8064892.00566826.0674333.01939139.1443548.04892592.2216151 0 0-.05757745.009827-.09725518.0162653-.28520235.0481183-.59456929.3741026-.54832834.8051338z"/></g></svg>