<svg enable-background="new 0 0 107.567 119" height="119" viewBox="0 0 107.567 119" width="107.567" xmlns="http://www.w3.org/2000/svg" xmlns:xlink="http://www.w3.org/1999/xlink"><clipPath id="a"><path d="m0 0h107.566v119h-107.566z"/></clipPath><g fill="#1766a6"><path clip-path="url(#a)" d="m13.854 104.624c-.176-.561-.69-1.822-.83-2.753-.309-2.062.769-3.42 1.759-3.731 1.111-.31 1.545.248 1.975 1.545.556 1.975.618 4.563.431 8.268-.243 5.061-2.775 11.173-9.069 11.046-5.433-.119-7.837-3.638-8.087-9.007-.118-2.531.063-5.061 1.111-8.639.556-1.916 1.052-2.598 2.777-2.965 1.356-.248 1.234 1.17.927 2.842-.676 3.701-.99 5.488-.74 9.687.242 4.444 2.283 6.173 4.505 6.173 3.333.064 4.813-2.713 5.433-6.729.489-3.208.12-4.751-.192-5.737zm71.064 4.383c1.298 0 1.67 1.535 1.36 2.465-.31.924-1.419 1.978-3.146 2.285-.372-.928-.558-4.75 1.786-4.75zm-24.126 2.092c0-1.045-.559-1.91-1.232-1.91-.562 0-1.853.615-1.853 2.591 0 1.548.55 2.282.802 2.597 1.785-.558 2.283-2.043 2.283-3.278zm-19.198-12.588c-.087-.99-.863-1.664-1.913-1.664-1.171 0-2.274 1.229-2.157 2.773.075 1.018.675 1.855 1.854 1.855 1.353.001 2.34-1.542 2.216-2.964zm10.037 3.625c-.107-1.726-.525-2.505-1.452-2.441-1.229.074-1.797 3.941-1.546 8.006.16 2.652.555 3.061.923 3.035.68-.041 2.311-4.779 2.075-8.6zm40.941 6.497c-.765 3.173-3.084 7.841-6.544 7.841-.801 0-2.221-.311-2.221-1.113 0-.865 5.435-.984 5.435-5.122 0-1.541-1.419-3.704-3.519-3.704-2.777 0-5.486 3.027-5.486 7.223 0 3.762 2.337 4.997 4.682 4.997 4.075 0 6.544-3.335 7.839-6.11.62 1.852.984 6.11 2.533 6.11.615 0 1.05-.309 1.791-1.973 1.847-4.138 3.639-8.89 6.109-8.89.923 0 .37 1.67 2.591 1.67 1.047 0 1.785-.864 1.785-1.856 0-1.421-1.294-2.528-3.267-2.528-5.803 0-7.033 8.703-7.96 8.703-1.544 0-1.05-6.975-2.163-6.975-.988-.001-1.473 1.176-1.605 1.727zm-49.372 7.405c.925 0 2.516-.3 3.768-2.305-.716-1.59-1.227-4.803-1.298-5.973-.368-5.983 1.937-11.611 4.46-11.767 1.85-.112 3.33 1.639 3.5 4.476.455 7.455-2.028 10.567-3.271 13.252.21 1.041 1.976 2.813 3.642 2.813.615 0 1.359-.309 1.546-.559-.124-.429-.25-.984-.25-1.789 0-4.32 2.778-7.963 5.186-7.963 1.913 0 3.024 2.53 3.024 4.2 0 1.972-1.668 3.58-4.135 5.123.434.429 1.232.741 1.914.741 3.521 0 5.363-4.26 6.727-8.15.246-.742.681-1.789 1.543-1.789 1.481 0 2.101 9.752 4.563 9.752 1.053 0 1.915-2.162 1.915-3.824 0-1.236-.432-1.36-.432-3.15 0-1.973 1.05-3.638 2.473-3.638.863 0 1.175.86 1.175 1.907 0 3.951-2.843 11.297-7.034 11.297-3.153 0-2.907-5.432-4.017-5.432-1.24 0-2.968 5.493-9.072 5.493-.992 0-2.039-.493-2.901-1.483-1.479.99-2.717 1.422-4.137 1.422-2.281 0-3.271-2.346-4.194-2.346-1.113 0-2.344 2.407-6.051 2.407-2.962 0-3.456-3.946-4.503-3.946-.928 0-2.347 3.946-3.889 3.946-2.596 0-3.146-6.849-5.434-6.849-1.789 0-7.444 6.956-8.979 6.797-.617-.064-.877-.525-.812-1.143.087-.854.822-3.14 1.12-4.221.499-1.877.957-3.934 1.213-4.59.254-.662.939-1.134 1.489-1.083.277.026.36.543.446.97.312 1.526.747 3.082 1.238 3.082.867 0 3.73-5.494 5.396-5.494 2.04 0 2.284 8.643 5.06 8.643.928 0 1.609-1.109 2.224-2.471.063-2.287.68-5.551 2.531-5.551 1.297 0 1.915 2.898.986 5.432-.002 3.022 1.971 3.763 3.27 3.763"/><path d="m86.188 19.254c-.458 0-1.114 0-1.475-.719-.296-.59-.196-1.541-.753-1.966.557.163 1.146.163 1.604.163 1.476 0 2.886-1.015 3.968-1.015.713 0 .943.459.943.916.001 1.443-2.909 2.621-4.287 2.621zm.72 3.701c3.403 0 6.519-2.718 6.519-5.108 0-1.115-.526-2.031-1.869-2.195.229.295.327.524.327 1.048 0 1.802-2.745 3.8-5.729 3.8-1.082 0-1.41.752-1.41 1.145 0 .918.886 1.31 2.162 1.31zm-.261 1.376c.427 3.11 5.14 7.303 6.417 7.204.854-.072 1.181-4.061 1.181-7.204 0-1.801.099-3.21-.852-3.538-1.509 3.047-5.467 3.669-6.746 3.538"/><path d="m12.933 44.93c1.112 0 .883-6.813 2.684-6.813.427 0 .558.426.558.95 0 1.539-.754 3.8-.754 5.043 0 .623.164.82.459.82.787 0 2.162-7.501 3.504-7.501.426 0 .622.426.622.852 0 1.572-1.996 6.091-1.996 7.368 0 .197.064.36.229.36.819 0 2.456-3.536 2.979-5.304.295-.918.688-1.41 1.049-1.41.327 0 .623.361.623 1.115 0 1.768-1.639 5.927-3.08 8.712-1.112 2.161-2.848 5.27-2.848 7.006 0 .885.161 1.801 1.439 2.915-2.096-.131-2.947-.327-3.732-1.964-3.505 6.975 6.451 6.288 3.045 12.475-.623-1.111-5.534-2.258-5.534-8.742 0-5.6 4.911-8.875 4.911-11.199 0-.458-.162-.851-.588-1.211-1.082-.919-1.115-1.67-1.966-1.67-.621 0-1.377 1.44-.59 2.717.263.426.492.688.492 1.081 0 .916-1.442 3.371-2.456 3.371-1.016 0-1.8-2.518-1.8-6.581 0-3.604.817-7.237 1.833-7.237.294 0 .392.196.392.459 0 .426-.13 1.276-.13 2.717 0 1.539.36 1.671.655 1.671"/><path d="m21.282 54.524c1.377 0 2.522-1.017 2.522-3.273v-3.342c0-1.277.099-2.717.951-3.734-.099.427-.099.885-.099 1.311 0 2.817 1.571 4.75 1.571 7.467 0 1.014-.295 1.572-1.079 1.572-.754 0-.688-.688-.853-.688-.13 0-.327.425-.327.884 0 .688.491 1.768 1.866 1.768 1.18 0 2.128-1.08 2.128-2.292 0-2.945-2.292-6.222-2.292-9.365 0-1.376.36-2.292.655-3.014 0 6.518 5.534 11.266 5.534 13.983 0 .623-.458 1.115-1.146 1.115-.753 0-1.114-.591-1.114-1.05 0-.229-.033-.294-.131-.294-.195 0-.785.655-.785 1.508 0 1.079.883 2.391 2.521 2.391 1.865 0 2.881-1.574 2.881-2.982 0-3.437-6.713-8.645-6.713-14.211 0-.951.162-2.49.852-3.668-4.323 2.782-5.665 6.484-5.665 9.726 0 2.817-.098 4.223-1.539 4.223-.754 0-.95-.686-1.213-.686-.196 0-.295.589-.295.752.002 1.211.887 1.899 1.77 1.899"/><path d="m70.897 17.65c.416-.279 2.262.163 4.649-1.017.294-.161.589-.227.851-.227 1.148 0 .853 1.309 1.902 1.309.817 0 1.868-.688 2.491-.688.976 0 2.385 3.079 2.385 4.52 0 1.67-2.517 2.686-5.499 2.686-4.353 0-6.976-3.799-6.976-6.256.001-.196.1-.262.197-.327zm7.14 4.159c1.442 0 2.523-.655 2.523-1.049 0-.129-.196-.228-.623-.228-.426 0-1.278-.032-2.884-.295-1.378-.229-2.426-.753-2.819-.753-.131 0-.197.065-.197.163 0 .853 1.574 2.162 4 2.162"/><path d="m21.971 66.87c-1.08.263-2.817 1.963-2.817 4.652 0 3.207 3.439 8.154 9.104 8.154 4.78 0 5.96-3.308 5.96-5.537 0-4.944-3.044-8.416-7.006-8.416-2.162 0-4.095 1.572-4.095 3.896 0 2.164 1.638 5.405 5.534 5.405 1.834 0 2.914-1.312 2.914-2.814 0-1.475-1.342-3.504-3.308-3.504-.589 0-1.014.389-1.014 1.014 0 .784 1.079 1.572 2.423 1.572.326 0 .589-.066.721-.132.064.101.098.263.098.394 0 .754-.721 1.213-1.834 1.213-1.67 0-3.275-1.244-3.275-3.213 0-1.176 1.016-2.027 2.489-2.027 2.914 0 4.649 2.586 4.649 5.175 0 2.323-1.275 3.668-3.896 3.668-5.24-.001-7.792-4.718-6.647-9.5"/><path d="m59.353 86.058c1.571 0 1.489-.131 1.981-.131.49 0 .524.295.524.492 0 .721-1.606 1.605-4.455 1.605-1.67 0-2.686-.885-2.98-1.867-1.637 1.048-4.125 1.998-6.582 1.998-6.712 0-8.415-2.917-10.512-3.864-1.605-.721-4.061.688-7.5-3.144.459.099 1.082.131 1.573.131 3.011 0 4.616-1.471 4.616-3.831 0-.296-.033-.62-.066-.914.918.36 3.015 1.93 3.507 4.713.064.328 1.406.622 2.258.622 1.18 0 2.686-.492 2.915-2.422 3.93-.327 6.584-2.651 7.141-5.602 1.406.459 3.011 1.736 3.404 2.393.557-.196 1.211-.295 1.964-.295 1.048 0 2.228.197 3.635.623.066-.426.131-.95.787-.95.982 0 .72 1.081 1.048 1.7.164.328.984.524.984 1.18 0 .624-.527.854-.854.854-.131 0-.295-.033-.394-.065-.654.229-.688 4.942-3.438 4.942-2.029 0-3.896-1.67-4.716-3.764-.229-.622-.72-1.016-1.179-1.016-.523 0-.818.099-1.439.787-1.768 1.93-4.716 3.6-8.351 3.6-1.114 0-1.998-.1-2.228-.1-.132 0-.132.033-.132.065 0 .23 1.113 1.115 3.537 1.115 5.764 0 7.173-3.243 8.089-3.243.133 0 .523 0 .752.525 1.345 3.142 4.277 3.863 6.111 3.863zm-2.539-6.545c0 .721.59 1.311 1.311 1.311s1.31-.59 1.31-1.311c0-.722-.589-1.312-1.31-1.312s-1.311.59-1.311 1.312"/><path d="m82.75 63.169c-.459 0-.95.361-.95 1.247 0 .979.754 1.603 1.179 1.798.23.133.591.264.948.264.951 0 1.706-.264 1.706-1.051-.001-1.011-1.477-2.258-2.883-2.258zm-3.533 2.029c-.688 0-4.492 5.076-6.943 5.076-.589 0-1.081-1.113-1.081-1.961 0-.459.294-.787 1.345-1.018 5.631-1.277 4.385-5.503 9.195-5.503 2.652 0 5.604 1.804 5.604 5.863 0 4.323-6.153 9.692-7.071 9.692-.754 0-1.573-1.08-1.573-1.8 0-.229.099-.524.754-.786 3.14-1.246 4.939-4.127 4.939-5.602 0-.328-.163-.652-.589-.652-.556 0-2.94 5.434-5.596 5.434-1.837 0-3.705-1.666-3.705-2.454 0-1.312 5.311-3.733 5.311-5.569-.001-.689-.328-.72-.59-.72"/><path d="m14.406 22.268s-.949.719-2.128.719c-1.407 0-2.521-1.047-2.521-2.521 0-1.016.524-2.063 1.735-2.588-.032.197-.032.36-.032.557-.001 1.868 1.047 3.275 2.946 3.833zm7.008 6.288c-.72.85-1.474 2.292-1.474 3.765 0 1.768 1.082 3.241 2.752 3.241 1.604 0 2.358-1.375 2.358-2.782 0-2.194-1.998-3.735-3.636-4.224zm-10.871 1.309c-.062.101-.099.23-.099.361 0 .295.328.622.621.622.262 0 .426-.065.557-.065.785 0 1.67.556 2.947.556.752 0 1.637-.23 2.75-.785 2.358-1.18 3.276-4.094 3.276-4.586 0-.623-.5-.541-.918-1.114-.418-.571-.258-1.076-.524-1.343-.151-.153-.621-.163-1.212-.229-.197-.021-.459-.033-.721-.033-1.079 0-2.36.133-3.798 1.049-2.84 1.813-2.422 4.814-2.879 5.567zm7.695-4.061c.227.309.853.689.853.918 0 .457-.264 1.048-.787 1.048-1.147 0-2.063-1.736-2.063-2.72 0-.621.361-.686.851-.686.229 0 .328.033.491.131.294.164.294.818.655 1.309zm-3.014 3.996c-1.08 0-2.259-1.342-2.259-2.555 0-.654.491-1.474.851-1.474.131 0 .197.099.229.329.196 1.604 1.245 2.522 2.228 2.979.098.065.164.098.164.163 0 .23-.623.558-1.213.558zm2.785-8.253c.163-.525.294-1.178.294-1.9 0-1.571-.722-3.962-2.948-3.962-1.276 0-2.195 1.015-2.195 2.227 0 2.588 2.588 3.635 4.849 3.635zm-8.482 13.099c0 2.488.754 3.668 2.096 3.668 1.048 0 2.456-.754 4.125-2.195-1.276.295-2.26.492-3.143.492-1.179 0-2.095-.459-3.078-1.965zm1.147-2.915c-.032.165-.032.328-.032.491 0 1.539.817 2.391 1.898 2.391.816 0 1.768-.491 2.617-1.573-.358.065-.785.098-1.178.098-1.21 0-2.52-.326-3.305-1.407zm8.023-.458c-.755.196-2.326 1.113-2.326 2.75 0 1.178.916 1.933 2.063 1.933.59 0 1.015-.132 1.277-.328-.916-.884-1.244-1.867-1.244-2.848 0-.689.098-1.114.23-1.507zm1.178-8.973c0 .72.589 1.311 1.309 1.311.721 0 1.311-.59 1.311-1.311 0-.72-.59-1.311-1.311-1.311-.72 0-1.309.591-1.309 1.311zm1.702 2.947c0 .721.591 1.311 1.313 1.311.719 0 1.309-.59 1.309-1.311 0-.719-.59-1.309-1.309-1.309-.723 0-1.313.59-1.313 1.309"/><path d="m72.668 41.326c0-.654.59-1.211 1.237-1.211.722 0 1.279.557 1.279 1.211 0 .753-.558 1.278-1.279 1.278-.647 0-1.237-.525-1.237-1.278zm-11.498-10.086c0 .72.591 1.31 1.309 1.31.723 0 1.313-.59 1.313-1.31 0-.719-.591-1.309-1.313-1.309-.718 0-1.309.59-1.309 1.309zm-1.112 4.617c0 1.016.849 1.866 1.866 1.866 1.014 0 1.868-.85 1.868-1.866 0-1.014-.854-1.867-1.868-1.867-1.017 0-1.866.853-1.866 1.867zm4.127-2.096c0 1.115.885 1.998 1.992 1.998 1.113 0 2.001-.883 2.001-1.998 0-1.113-.888-1.997-2.001-1.997-1.107 0-1.992.884-1.992 1.997zm.165-4.257c0 .689.557 1.247 1.238 1.247.688 0 1.245-.558 1.245-1.247 0-.686-.558-1.243-1.245-1.243-.681 0-1.238.557-1.238 1.243zm5.925-3.142c0 .686.557 1.243 1.246 1.243.688 0 1.246-.557 1.246-1.243 0-.689-.558-1.246-1.246-1.246-.689 0-1.246.557-1.246 1.246zm-2.458 4.028c0 1.145.95 2.094 2.097 2.094 1.148 0 2.099-.949 2.099-2.094 0-1.148-.95-2.096-2.099-2.096-1.147 0-2.097.948-2.097 2.096zm-3.37 7.662c0 .721.59 1.309 1.305 1.309.721 0 1.312-.588 1.312-1.309s-.591-1.31-1.312-1.31c-.715 0-1.305.589-1.305 1.31zm4.288-2.621c0 .721.589 1.311 1.312 1.311.72 0 1.31-.59 1.31-1.311 0-.719-.59-1.309-1.31-1.309-.723 0-1.312.59-1.312 1.309zm-1.212 4.618c0 1.244 1.015 2.26 2.261 2.26 1.245 0 2.263-1.016 2.263-2.26s-1.018-2.26-2.263-2.26c-1.246 0-2.261 1.016-2.261 2.26zm4.718-2.785c0 .853.689 1.541 1.535 1.541.852 0 1.54-.688 1.54-1.541 0-.85-.688-1.538-1.54-1.538-.846 0-1.535.688-1.535 1.538zm-.098-4.126c0 .755.624 1.377 1.369 1.377.755 0 1.378-.622 1.378-1.377 0-.752-.623-1.374-1.378-1.374-.745 0-1.369.622-1.369 1.374"/><path d="m75.479 76.106c-.852.656-2.844 2.127-6.155 2.127-1.769 0-2.556-.557-2.818-.557-.328 0-.688.327-1.049.754-.778.918-1.795 2.621-1.795 4.486 0 1.309 1.017 2.617 2.909 2.617 6.13 0 10.711-3.83 10.711-6.939 0-1.767-1.048-2.488-1.803-2.488zm-1.703-.36c.265-.226.327-.589.327-.951v-.753c0-.951-1.435-1.505-3.402-1.505-2.393 0-3.671 1.078-3.671 1.538v1.506c0 .624 1.443 1.246 3.213 1.246 1.409 0 2.687-.36 3.533-1.081zm-.264 3.242c.165 0 .36.097.36.688 0 .719-.326 1.668-1.5 2.42-.819.559-1.934 1.018-3.572 1.047.262-.783.459-1.604.459-2.386 0-.263-.032-.46-.065-.754h.426c2.589.001 3.704-1.015 3.892-1.015"/><path d="m61.006 38.97c.36 2.782 4.097 1.374 4.097 4.746 0 .492-.131 1.214-.131 1.835 0 .721.064 1.343.616 1.343.556 0 .688-.392.688-.917s-.132-1.179-.132-1.539c0-1.147.82-1.408 1.313-1.408 1.245 0 2.195 1.277 4.064 1.277-.427 2.096-4.753 1.539-4.753 3.832 0 1.147 1.147 1.407 1.901 1.407.688 0 .918-.098.918-.686 0-.329-.066-.689-.066-.918 0-.132.099-.263.263-.263.723 0 4.253 2.686 4.253 3.506 0 .752-3.729 1.505-4.81 1.505-.328 0-.394-.229-.394-.36 0-.229.557-.917.557-1.309 0-.295-.491-.492-1.803-.492-.623 0-1.082.066-1.082.558 0 .882 1.442 1.964 1.442 2.781 0 .656-.393 1.049-1.442 1.049-.885 0-2.223-.689-2.223-1.834 0-.917.945-1.832.945-2.39 0-.164-.125-.426-.518-.426-1.214 0-1.541 3.208-5.833 3.569.688-.622 1.276-1.31 1.276-2.716 0-.688-.162-1.246-.162-1.998 0-.983.457-1.475 1.112-1.475 1.211 0 1.801 1.702 2.59 1.702.427 0 .885-.391.885-.981 0-2.489-4.783-2.129-4.783-5.633.001-.95.327-2.129 1.212-3.765zm15.62 9.595c0 .817.264 1.767 1.083 1.767.688 0 1.277-1.046 1.277-2.193 0-1.31-.229-2.326-.229-2.851 0-.228.099-.326.229-.326.492.033.95 1.375 1.476 1.375.59 0 1.469-1.082 1.828-1.082.099 0 .131.132.131.164 0 .492-.754 1.574-.754 1.999 0 .36 1.901.425 1.901.753 0 .492-1.993.492-2.942.918-.917.392-1.477.883-1.477 1.539 0 .655.656.785 1.574.785 2.188 0 3.728-1.178 4.219-1.178.098 0 .163.064.163.163 0 .328-1.113 1.408-1.113 1.9 0 .556 2.032 1.209 1.999 1.538-.032.098-.164.13-.393.13-.362 0-.918-.098-1.345-.098-.262 0-.491.032-.591.163-.227.263.066 1.999-.39 1.999-.427 0-1.541-3.864-4.057-3.864-.361 0-.623.295-.623.786 0 1.309 1.278 2.815 2.491 3.536.549.361 1.468.721 1.468.919 0 .391-2.091.032-2.091.686 0 .59.262 1.476.262 1.998 0 .164-.033.359-.229.359-.393 0-1.345-1.8-1.803-1.8-.393 0-1.245 1.08-1.606 1.08-.098 0-.163-.098-.163-.195 0-.754 1.213-2.456 1.213-4.127 0-.786-.099-2.489-1.05-2.489-.786 0-1.672 1.244-2.065 2.489-.228.72-.065 3.504-.59 3.504-.491 0-.36-1.866-1.017-1.866-.483 0-1.532.883-1.893.883-.066 0-.132-.033-.132-.098 0-.392.951-1.67.951-1.932 0-.491-2.163-.556-2.163-.949 0-.23.852-.393 1.638-.525 1.666-.295 4.123-1.506 4.123-3.208 0-1.899-1.835-2.719-3.041-3.505-.623-.393-1.311-.719-1.311-.981 0-.263.786-.263 1.114-.263.491 0 .977-.033.977-.425 0-.296-.066-.884-.066-1.343 0-.328.032-.59.165-.59.491 0 1.179 1.604 1.508 1.604.523 0 1.244-1.31 1.737-1.31.162 0 .229.099.229.393.002 1.212-.622 2.587-.622 3.768"/><path d="m61.957 57.634c1.508.197 1.869.72 1.869 1.147 0 .721-.656.949-1.28.949-.457 0-.982-.098-1.539-.098-.722 0-1.441.164-2.03.852.425.065 1.048.361 1.048 1.017 0 1.899-5.272.325-5.272 5.207 0 2.586 2.686 5.404 6.745 5.404 2.099 0 3.442-.688 3.442-1.476 0-.621-1.113-.197-1.113-.721 0-.229.393-.656.393-1.018 0-.158-.131-.455-.393-.455-.592 0-1.706.947-3.966.947-1.769 0-3.505-1.012-3.505-2.389 0-.294.132-.459.328-.459.197 0 .458.132.688.132.197 0 .229-.132.229-.491 0-.361 0-1.377.621-1.377.624 0 1.803 2.293 6.325 2.293 1.501 0 4.418-.293 5.5-1.277-.033 3.603-2.853 8.351-8.745 8.351-6.124 0-9.399-4.913-9.399-9.433 0-5.009 4.092-9.56 9.694-9.56 1.439 0 2.654.49 2.654 1.113-.001.853-2.131.328-2.294 1.342zm10.055 1.738c.229.358.328.719.328 1.046 0 .918-.623 1.769-.623 2.72 0 1.08.82 1.963 2.059 1.963 1.343 0 2.261-1.078 2.261-2.357 0-1.736-1.573-3.209-4.025-3.372zm-10.842 2.095c.326.326.426.654.426.982 0 .491-.229 1.016-.229 1.573 0 .783.59 1.472 1.44 1.472.919 0 1.543-.722 1.543-1.57 0-1.245-1.282-2.457-3.18-2.457zm4.353-5.568c3.441.655 5.309 3.243 5.309 5.667 0 1.671-1.048 3.207-2.884 3.207-1.672 0-2.878-1.145-2.878-2.979 0-1.375 1.074-2.816 1.074-4.225 0-.556-.163-1.113-.621-1.67zm1.704 4.356c0 .458.328.819.787.819.523 0 .852-.459.852-.983 0-.687-.623-1.637-1.213-1.637-.263 0-.164.393-.229.819-.034.326-.197.719-.197.982"/><path d="m31.076 26.558c1.113 0 2.389-6.026 2.389-7.042 0-.262-.097-.459-.326-.459-1.016 0-2.423 5.732-2.423 7.01-.001.229.064.491.36.491zm8.023 1.801c.817 0 1.734-3.145 1.734-5.11 0-.426-.065-.883-.263-.883-.688 0-1.834 3.242-1.834 5.01.001.688.166.983.363.983zm-5.341-2.915c.36 0 .819-.395 1.673-1.342.064-.426.064-.82.064-1.311 0-.654-.262-1.375-.654-1.375-.984 0-1.474 2.62-1.474 3.309.001.391.196.719.391.719zm4.488-1.342c0-.558-.132-.689-.262-.689-.328 0-.687.394-1.211 1.278.065 1.179.262 1.703.589 1.703.36 0 .884-1.147.884-2.292zm2.522-3.865c2.162 0 3.143 1.867 3.143 3.963 0 .916-.26 2.26-.686 2.26s-.36-.754-.426-1.442c-.065-.884-.23-1.08-.525-1.08-.557 0-.916 1.309-.916 2.522 0 .752.131 1.604.719 1.604.328 0 .623-.164.82-.36-.131 1.505-1.246 2.817-2.817 2.817-2.882 0-3.963-3.374-4.289-5.339-1.736 1.834-3.34 3.177-6.223 3.177-2.684 0-3.896-1.965-3.896-3.831 0-.558.196-1.998.885-1.998.818 0 .098 2.684 1.702 2.684.394 0 1.112-.328 1.507-1.407.229-.656.36-1.342.36-1.933 0-.885-.196-1.44-.851-1.44-.558 0-1.246.424-1.475.654.787-2.358 2.686-3.569 4.779-3.569 2.59 0 3.964 2.292 3.964 4.847 0 .359-.033.752-.099 1.113 1.114-1.834 2.655-3.242 4.324-3.242"/><path d="m34.644 29.045c-1.408 0-1.473 1.706-1.473 5.142-1.049-2.259-2.783-4.683-4.814-4.683-1.375 0-1.898.918-1.898 2.521 0 .328.032.82.098 1.113.164-.555.688-.785 1.342-.785 1.41 0 3.112 1.08 4.225 2.555-1.276-.229-2.521-.459-3.568-.459-.656 0-1.245.066-1.736.295-.95.425-2.227 1.834-2.227 3.963 0 .328.033.687.099 1.08 1.146-2.555 4.191-3.701 6.156-3.701.394 0 .687.033.917.066-1.016.916-1.244 2.521-1.311 3.602-.031.524-.229.558-.59.558 0 1.079.853 2.685.853 3.503 0 .295-.164.557-.327.623 0 1.441 1.439 2.489 1.439 3.405 0 .229-.064.426-.164.525.1.59 1.684 1.581 1.889 2.078.252.604.535.706.699.706.557 0 1.439-.656 1.439-1.246 0-.196-.164-.425-.293-.524-.623-.457-.951-1.44-1.213-2.094-.23 0-.526-.097-.63-.483-.179-.678-.188-1.941-.45-2.695-.426-.098-.623-.262-.623-1.146 0-.426.263-2.097.263-2.687-.196 0-.458-.131-.458-.524 0-1.047 1.049-1.866 1.342-3.208 1.867 1.374 2.324 2.782 2.324 4.028 0 .653-.098 1.276-.229 1.867 1.376-.689 3.439-1.704 3.439-3.767 0-1.213-.557-2.555-4.258-3.079 1.146-.426 2.588-.654 3.799-.654 2.097 0 3.308.654 3.569 2.127.426-.654.754-1.408.754-2.095 0-1.606-1.344-2.652-3.046-2.652-1.998 0-3.766 1.046-5.666 2.325.854-1.768 1.44-2.816 2.49-2.816.163 0 .327.033.491.066-.393-1.44-1.866-2.85-2.653-2.85"/><path d="m89.82 52.657c1.64 0 2.95 2.128 2.95 4.618 0 2.652-1.246 5.535-3.467 7.498-.033-4.42-5.443-3.012-5.443-6.22 0-1.375.985-2.293 2.165-2.293 1.049 0 1.868.295 2.458.886-.59-.558-.885-1.345-.885-2.097 0-1.247.787-2.392 2.222-2.392"/><path d="m60.58 21.547c.853.819 1.604 1.178 2.522 1.178.362 0 .789-.097 1.019-.097.295 0 .49.13.49.359 0 .361-.328.951-.72 1.279.392.163.819.229 1.278.229 1.86 0 3.99-1.18 3.99-4.126.395.522.624 1.604.624 2.096 0 3.569-2.623 4.944-5.041 4.944-1.573 0-2.361-.525-2.559-.525-.621 0-.588 1.246-1.014 1.213-.754-.131-1.44-1.801-1.44-3.569.001-1.049.263-2.162.851-2.981zm4.943-2.391c-.262-.426-1.24-.654-1.697-.654-1.444 0-2.427 1.014-2.623 1.932-.131-.328-.229-.721-.229-1.114 0-1.441.983-3.209 3.377-3.209 2.09 0 2.909 1.113 3.205 1.113.327 0 .655-.328.918-.328.36 0 .36.557.36.951 0 1.309-.591 3.569-2.065 4.388-.263-.557-.787-1.18-1.633-1.572-.229-.098-.327-.294-.327-.491-.001-.361.326-.82.714-1.016"/><path d="m37.82 12.017c0 1.146 4.093 6.746 4.88 6.746.656 0 1.146-1.146 1.146-2.13 0-.26-.066-.521-.195-.719-.59-.819-4.749-4.094-5.667-4.094-.099 0-.164.099-.164.197zm-24.07-3.373c0 .656-2.488 2.849-3.371 2.849-.327 0-.427-.392-.427-.752 0-.654.295-1.572.656-1.868.424-.393 1.407-.587 2.16-.587.458 0 .982.096.982.358zm29.901 1.9c0-1.966-5.313-5.535-5.372-7.073-.006-.141.071-.281.19-.406.91-.96 4.689-1.66 4.689-2.478 0-.424-.787-.424-1.18-.424-3.045 0-7.499 1.113-7.499 2.193 0 1.115 3.995 3.833 3.995 5.176 0 .36-.229.491-.59.491-1.112 0-3.536-1.344-4.682-1.344-.524 0-.722.36-.722.886 0 1.571 1.867 4.551 1.867 5.433 0 .099-.033.23-.164.23-.59 0-3.371-3.273-4.355-3.273-.359 0-.393.49-.393 1.211v1.113c0 .753-.033 1.212-.391 1.212-.854 0-1.246-2.39-2.064-2.39-.852 0-1.016 4.256-1.833 4.256-.951 0-.132-4.683-1.049-4.683-1.015 0-2.162 3.112-2.883 3.112-.261 0-.326-.263-.326-.492 0-.949.555-2.488.555-3.404 0-.46-.131-.721-.522-.721-1.017 0-3.243 1.637-4.094 1.637-.131 0-.295-.065-.295-.197 0-.784 3.569-3.274 3.569-4.387 0-1.082-4.914-.36-4.914-1.606 0-1.047 3.507-2.128 3.507-3.209 0-.95-4.16-1.374-5.764-1.374-1.933 0-2.98.227-2.98.784 0 .852 4.389 1.115 4.389 1.867 0 .721-4.553 2.653-4.553 3.766 0 .983 6.418.065 6.418 1.082 0 1.112-5.598 5.925-5.598 7.53 0 .361.262.525.621.525 1.703 0 6.122-3.242 7.335-3.242.426 0 .459.523.459.982 0 .852-.294 2.161-.294 3.112 0 .752.196 1.276.85 1.276 1.214 0 2.325-2.063 3.146-2.063 1.047 0 .425 6.058 1.997 6.058 1.342 0 1.898-6.549 2.75-6.549s1.541 1.899 2.326 1.899c.981 0 .523-3.307 1.572-3.307 1.145 0 4.42 3.93 5.894 3.93.458 0 .621-.361.621-.82 0-1.736-2.422-5.664-2.422-6.908 0-.327.097-.426.457-.426 1.277 0 5.012 1.768 6.779 1.768.594 0 .953-.327.953-.753zm-3.407-6.484c0 .589 2.063 1.867 3.014 1.867.556 0 .72-.754.72-1.54 0-.982-.424-1.015-1.277-1.015-1.081 0-2.457.295-2.457.688zm-7.696-3.341c0-.197-.982-.394-2.324-.394-2.129 0-1.834 1.771-3.471 1.771-1.703 0-1.279-1.836-3.44-1.836-1.31 0-2.52.23-2.52.524 0 .394 1.538.23 1.538 1.312 0 1.145-3.308 1.473-3.308 2.161 0 .229.261.327.589.327.722 0 1.866-.327 2.686-.327.459 0 .885.097.885.523 0 .819-1.77 2.293-1.77 2.948 0 .197.163.263.327.263.656 0 1.77-1.671 2.817-1.671 1.736 0 .591 3.7 1.539 3.7.982 0 .557-3.636 1.965-3.636 1.148 0 1.998 2.522 2.784 2.522.197 0 .36-.163.36-.393 0-.686-.982-2.096-.982-3.012 0-.557.393-.82.917-.82.752 0 1.768.459 2.323.459.196 0 .393-.065.393-.294 0-.786-2.912-1.637-2.912-2.652.001-1.016 1.604-1.016 1.604-1.475"/><path d="m90.606 6.026c0 2.913-2.123 5.14-5.959 5.762.427.032.82.032 1.214.032 4.483 0 6.123-2.029 6.123-3.731 0-.951-.525-1.801-1.378-2.063zm-5.532 3.306c0-2.325-5.563-2.915-5.563-3.438 0-.425 3.106-1.147 4.711-1.18-2.456-3.143-5.956-2.815-5.956-3.372 0-.328 2.621-.984 5.041-.984 2.03 0 3.93.459 3.93 1.998 0 .853-.688 1.738-.688 3.046 0 .721.358 1.343 1.311 1.343 1.018 0 1.245-1.08 1.245-2.228 0-.948-.163-1.669-.163-2.128 0-1.375.943-2.291 2.287-2.291 1.114 0 1.377.489 3.016.489-.886.526-1.213 1.476-1.213 1.933 0 1.377.887 2.326.887 5.143 0 5.172-4.846 7.006-10.776 7.006-1.63 0-3.369-.131-5.074-.392-.261-.033-.327-.098-.327-.262 0-.426 2.328-.656 2.328-2.75 0-.82-.263-1.605-.263-1.899 0-.164.131-.263.263-.263.491 0 1.476 1.899 3.304 1.899.486 0 1.7-.164 1.7-1.67zm5.336-7.236c0 .457.36.817.819.817s.82-.36.82-.817c0-.459-.361-.82-.82-.82s-.819.361-.819.82"/><path d="m87.5 32.353c0-.687-1.738-.752-1.901-2.685-.034-.294-.132-.817-.493-.817-.589 0-.131 1.801-.786 1.801-1.506 0-1.997-2.948-2.554-2.948-.132 0-.288.098-.288.491 0 .361.066.59.066 1.014 0 .427-.1.722-.492.722-.885 0-1.672-2.064-2.426-2.064-.164 0-.327.099-.327.263 0 .393.654 1.112.654 1.473 0 .787-2.13.36-2.13 1.016 0 .295.294.392.688.392.689 0 1.771-.293 2.328-.293.328 0 .819.065.819.489 0 .459-1.18 1.048-1.18 1.474 0 .197.196.294.36.294.885 0 2.451-1.538 3.565-1.538.196 0 .687.098.687.393 0 .425-1.113 1.177-1.113 1.8 0 .164.1.36.296.36.586 0 1.373-1.538 2.488-1.538.426 0 1.049.164 1.378.164.263 0 .361-.164.361-.263zm.852 15.883c.525-1.636 1.181-2.784 2.254-4.552-1.073-.555-3.926-1.736-3.926-3.668 0-2.26 2.817-4.028 3.401-4.028.263 0 .328.23.328.656 0 1.178-.557 3.077-.557 4.093 0 .916.59 1.802 1.114 1.802.557 0 2.097-1.965 2.097-3.898 0-3.472-3.048-4.519-3.991-4.519-.885 0-2.491 1.44-6.259 1.44-7.039 0-8.645-6.973-8.645-10.02 0-.131.031-.164.064-.164.164 0 .854.853 3.081.853 1.147 0 2.196-.296 3.868-.296 3.923 0 5.661 2.72 8.087 6.189 1.467.916 4.975 2.391 4.975 6.55 0 3.668-3.9 5.698-4.844 9.628 1.5-.163 2.386-2.85 3.926-2.85.787 0 1.147.623 1.147 1.607 0 1.439-.82 3.602-2.393 4.944.032-.131.032-.296.032-.492 0-.916-.359-2.225-1.41-2.225-1.631 0-2.155 1.768-3.072 3.24-.951-3.339-2.229-6.353-4.521-8.187-2.319-1.866-6.319-.852-6.319-4.257 0-.918.591-2.227.591-3.275 0-.36-.066-.688-.264-.95 3.147 1.18 2.032 3.274 3.968 5.436 1.205 1.377 4.547 2.686 6.48 8.351.032-.163.065-.588.065-.883 0-4.847-6.416-9.597-6.973-11.562 3.727.426 4.382 1.344 6.152 6.256.363 1.016 1.544 3.538 1.544 4.781"/><path d="m70.439 13.589c-2.295 0-3.802-1.145-3.802-1.736 0-.295.196-.49.46-.49.72 0 2.293 1.112 2.816 1.112.133 0 .23-.064.23-.261 0-.59-.557-1.572-.557-2.062 0-.132.099-.229.295-.229.884 0 2.195.36 2.885.36.229 0 .294-.131.294-.263 0-.72-2.131-2.128-2.131-2.554 0-.393 2.648-.984 2.648-1.604 0-.656-3.6-.197-3.6-.82 0-.458.689-1.244.689-1.604 0-.164-.132-.229-.36-.229-.295 0-1.868.622-2.524.622-.327 0-.721-.065-.721-.525 0-.753 1.278-1.571 3.278-1.571 3.237 0 5.172 2.227 5.172 5.96.002 4.716-3.302 5.894-5.072 5.894zm-6.384-6.221c0-.361-1.28-1.048-1.28-1.441 0-.065.064-.098.163-.098.362 0 .985.131 1.478.131.426 0 .491-1.834.813-1.834.229 0 .621 1.736.984 1.736.425 0 1.211-.492 1.539-.492.065 0 .131.032.131.099 0 .229-.819 1.112-.819 1.374 0 .295 1.836.656 1.836.918 0 .328-1.869.295-1.869.59 0 .227.689 1.145.689 1.44 0 .066-.034.099-.099.099-.263 0-1.278-.46-1.573-.46-.361 0-.944 1.343-1.239 1.343-.098 0-.163-.131-.163-.295l-.066-1.309c0-.131-.064-.263-.229-.263-.394 0-1.148-.033-1.379-.033-.164 0-.229-.032-.229-.098-.001-.262 1.312-1.178 1.312-1.407zm-.953 5.368c.526 0 .624 1.279.724 2.031.065.394.131.426.295.426.394 0 1.015-1.506 1.436-1.506.621 0 2.294 1.736 5.079 1.736 3.96 0 7.696-2.785 7.696-7.695 0-4.749-3.345-7.533-7.959-7.533-2.194 0-3.802 1.081-4.654 1.081-.517.033-1.303-1.276-1.698-1.276-.163 0-.327.325-.327.883 0 .361 0 1.506-.394 1.506-.788 0-3.832-2.258-3.832-1.441 0 .754 2.028 3.047 2.028 3.636s-1.996 1.147-1.996 1.539c0 .72 2.128.851 2.128 1.769 0 .916-2.228 1.637-2.228 2.325 0 .556 2.228.164 2.228.851s-1.637 2.98-1.637 3.633c0 .165.032.165.162.165.623 0 2.49-2.13 2.949-2.13"/><path d="m48.268 70.243c0 .295-.099.623-.361.949-.358-.654-1.375-.982-1.834-.981-3.373 0-2.096 4.88-5.698 4.88-1.506 0-1.638-.197-2.193-.197-.23 0-.361.099-.361.295 0 .853 1.212 2.947 4.585 2.947s6.616-2.062 6.616-4.619c0-.426-.098-.881-.295-1.34.131-.197.46-.328.754-.328.523 0 .818.592 1.309.592.525 0 .918-.395.918-.918 0-.428-.229-.721-.621-.92.262-.195.458-.523.458-.883 0-.559-.394-1.08-1.05-1.08-.295 0-.49.1-.719.324-.064-.586-.393-1.143-1.016-1.143-.491 0-.853.359-.853.918 0 .52.361.948.361 1.504"/><path d="m30.322 64.154c2.62.651 3.93 2.06 4.191 3.731.262 1.604.589 2.916 1.211 3.569.819.919 2.424 1.733 3.833 1.733 1.179 0 2.127-.389 2.127-1.471 0-1.18-1.604-3.832-3.962-3.832-.229 0-.524.034-.852.034-.295 0-.721-.065-.982-.295-.523-.46-.688-2.916-1.67-4.389-1.08-1.638-2.259-2.097-3.863-2.097-1.145 0-2.424.621-2.424 1.539 0 .56.295.952 2.391 1.478zm9.137 7.334c-.984 0-2.457-1.05-2.457-1.64 0-.492.459-.754.817-.754.82 0 2.292 1.018 2.292 1.869.001.229-.163.525-.652.525"/><path d="m36.445 45.977c0-2.096 4.979-3.209 4.979-5.797 0-.426-.164-1.178-.459-1.735 1.734.949 3.012 2.555 3.012 3.864 0 2.26-2.357 3.308-2.357 4.717 0 1.637 2.521 1.899 2.521 3.929 0 1.669-2.391 3.602-2.391 5.763 0 1.67 1.18 3.044 2.979 3.274-.589.131-1.112.229-1.669.229-3.309 0-6.714-2.717-6.714-5.96 0-1.604.688-3.01 1.734-4.026.919.786 1.835 1.309 2.425 1.309.523 0 .754-.261.754-.654.001-1.213-4.814-2.325-4.814-4.913zm10.447 16.538c-1.123.514-1.571.426-1.571 1.573 0 .425-.099.979-.099 1.275 0 .393.065.623.523.623 1.18 0 3.047-1.997 3.047-3.701 0-.46-.263-.653-.558-.653-.262 0-.555.522-1.342.883zm-.131-2.359c0-1.473-3.046-1.506-3.046-3.733 0-.558.359-1.506 1.081-2.523.296 1.703.981 2.588 2.457 3.146 2.913 1.079 3.307 2.716 3.307 4.454 0 2.948-2.063 6.615-7.368 6.615-4.258 0-7.304-3.8-7.304-7.009 0-.885.229-1.866.786-1.866.492 0 .655.392 1.048.784 1.475 1.476 3.079 1.867 5.404 1.867 2.096.001 3.635-.85 3.635-1.735"/><path d="m23.57 60.866c.08.684-.409 1.301-1.092 1.381-.684.08-1.304-.41-1.382-1.093-.08-.685.409-1.304 1.093-1.384s1.302.411 1.381 1.096zm-6.12 1.288c.139 1.118 1.182 1.966 2.359 1.835.425-.047.819-.163 1.082-.327.262 1.047 1.141 1.721 2.329 1.565 1.206-.157 2.026-1.107 1.896-2.319-.034-.326-.099-.525-.196-.754 0 0 .159-.017.279-.039 1.183-.224 1.98-1.173 1.881-2.319-.13-1.179-1.188-2.054-2.289-1.918-.427.052-.821.215-1.084.444-.296-.981-1.219-1.834-2.479-1.626-1.139.189-1.892 1.155-1.778 2.38.019.199.065.426.164.654 0 0-.193.029-.326.048-.956.142-1.993 1.104-1.838 2.376"/></g></svg>