<?xml version="1.0" encoding="UTF-8"?>
<svg width="150px" height="27px" viewBox="0 0 150 27" version="1.1" xmlns="http://www.w3.org/2000/svg" xmlns:xlink="http://www.w3.org/1999/xlink">
    <title>zopa-logo</title>
    <g id="zopa-logo" stroke="none" stroke-width="1" fill="none" fill-rule="evenodd">
        <g id="Group" fill="#00D9C5" fill-rule="nonzero">
            <path d="M53.232,0 C61.5533334,0 67.5973333,5.67491626 67.5973333,13.5059763 C67.5973333,21.3748871 61.5533334,27.1633558 53.232,27.1633558 C44.9106666,27.1633558 38.8666667,21.4127378 38.8666667,13.5059763 C38.8666667,5.63706547 44.9106666,0 53.232,0 Z M53.344,19.8608551 C56.3293333,19.8608551 58.7173333,17.1748002 58.7173333,13.5424753 C58.7173333,9.91150216 56.3293333,7.30114882 53.344,7.30114882 C50.3213334,7.30114882 47.7466667,9.91150216 47.7466667,13.5424753 C47.7466667,17.1748002 50.3586666,19.8608551 53.344,19.8608551 Z M23.732,1.51268016 C23.732,9.63032479 12.2013333,17.1058576 12.2013333,20.1244589 L23.284,20.1244589 L23.284,26.7848478 L0,26.7848478 L0,25.5357714 C0,17.4181268 11.5293333,9.94259388 11.5293333,6.92399264 L0.446666667,6.92399264 L0.446666667,0.264955595 L23.732,0.264955595 L23.732,1.51268016 Z M96.224,0.264955595 C103.016,0.264955595 106.933333,3.70667471 106.933333,9.76009895 C106.933333,16.1906794 103.016,19.8987059 96.224,19.8987059 L92.6053333,19.8987059 L92.6053333,26.7848478 L84.3946667,26.7848478 L84.3946667,0.264955595 L96.224,0.264955595 Z M95.776,13.2410207 C97.6426667,13.2410207 98.724,12.0676459 98.724,10.0250546 C98.724,8.0581648 97.6426667,6.92264083 95.776,6.92264083 L92.6053333,6.92264083 L92.6053333,13.2410207 L95.776,13.2410207 Z M139.364,0.883954007 L150,27.4038462 L140.782667,27.4038462 L139.476,23.6579688 L129.662667,23.6579688 L128.32,27.4038462 L119.438667,27.4038462 L130.484,0.883954007 L139.364,0.883954007 Z M131.901333,16.7584413 L137.349333,16.7584413 L134.662667,9.00308298 L131.901333,16.7584413 Z" id="Shape"></path>
        </g>
    </g>
</svg>