<svg height="24" viewBox="0 0 150 24" width="150" xmlns="http://www.w3.org/2000/svg"><g fill="#fff"><path d="m145.100563 15.3321938c-1.719039-1.7363027-5.44327-3.2269156-7.275783-3.9253046-2.503496-.9555395-3.614281-1.2936314-5.015448-1.75707525-1.585125-.52289641-4.756782-1.49849219-4.756782-1.49849219 6.570265-1.99273676 11.199476-2.59370949 11.199476-2.59370949s2.156727.67690016 5.57366 2.53354059c1.850133.95625577 2.760751 1.59948999 3.412703 2.21478864.238932.219903.859872.8760306 1.014226 1.7162463.009867.0608852.039469.2213356.039469.3789209 0 0 0 .1117422-.009867.2084422-.002819.1117423-.023259.1862371-.023259.1862371s-.035945.1984141-.083872.338092c-.050747.140394-.262191.5708882-.60473.8509601-.229769.1891023-.624464.6597091-2.057349 1.171861-.48773.1719112-1.275711.330929-1.275711.330929z" transform="matrix(1 0 0 -1 0 21.045242)"/><path d="m149.292084.01442356s-.009867.18552078-.05427.343106c-.035241.14039411-.09656.27434155-.18889.41545195-.112065.16761338-.262895.3638786-.486321.58163273-.16986.1611667-.354521.30442599-.575832.45628084-.896522.59667496-2.05312.932618-3.077213 1.07516099-1.585829.21417264-3.405655.17692523-3.578335.1826556-.584994.00859556-4.366315-.02292149-5.338957-.0408289-4.316978-.09096965-9.601665-.1024304-10.986622-.1024304-14.290081-.06661557-20.511463.24640599-27.43484 1.65679372-5.8901208 1.18905212-9.1576331 2.31865164-9.1576331 2.31865164 5.1951754.1826556 35.5070611 1.46124476 41.0370221 1.61023443 3.621329.103863 6.191076.12606818 8.24772.00501413 1.055105-.05945265 2.036204-.15113858 3.268217-.36387863 1.105852-.19196745 2.109505-.51788235 2.6945-.73850167 1.232013-.46344381 2.269497-1.13389729 2.781896-1.8208256 0 0 .15224-.15758521.35734-.43837343.231179-.32591489.499008-.72775721.589928-.87746316.749217-1.15323731 1.105852-1.87884562 1.229194-2.13169827.133915-.26502969.251618-.54080383.366503-.81084759.11277-.26789488.158583-.43049417.195233-.54366902.078234-.28365339.098674-.54295271.101493-.60025643z" transform="matrix(1 0 0 -1 0 8.612714)"/><path d="m52.2952899 12.9742514c.220201.1005633.4536419.453243.4536419.9149844v3.8221134c-.5407467.0616128-1.2968165.0885241-2.144869.0885241-.8605956 0-1.6222401-.0269113-2.1769235-.0885241v-3.8221134c0-.4617414.228563-.7981327.4515513-.9149844h-2.9957088c.2222914.1005633.4592166.453243.4592166.9149844v8.4317367c0 .4681151-.2369252.8130047-.4592166.9263154h2.9957088c-.2229883-.1133107-.4515513-.4582003-.4515513-.9263154v-3.4538535c.5546834-.0594882 1.3023911-.0885241 2.1769235-.0885241.8480525 0 1.6041223.0375342 2.144869.0885241v3.4538535c0 .4681151-.2334409.8130047-.4536419.9263154h2.9901341c-.2236851-.1133107-.4452797-.4582003-.4452797-.9263154v-8.4317367c0-.4617414.2215946-.7981327.4452797-.9149844zm-9.7160196 2.3242869c0 1.9567352-4.5343284 2.3979389-4.5343284 5.5210667 0 1.934073 1.8096897 2.5671968 3.4012689 2.5671968.7093816 0 1.7372185-.0998551 2.3859752-.4036696l.1128878-1.9206173c-.3985917.8484143-1.3978581 1.4631251-2.326047 1.4631251-.7330742 0-1.5023839-.3689681-1.5023839-1.2216316 0-2.0296789 4.6116774-2.5254135 4.6116774-5.4828242 0-2.1479471-1.8452285-3.0367283-3.7092715-3.0367283-.9741803 0-2.300264.1897955-3.1218366.7613066-.0501724.3434733-.0731681.7032349-.0731681 1.0537901 0 .4192498.0369324.8406242.0975574 1.2535002.51357-1.1876383 1.5741583-2.1167865 2.900242-2.1167865 1.0076285 0 1.7574268.4468693 1.7574268 1.562272zm-9.1676077-2.3242869c.2487713.1168517.5093889.453243.5093889.9149844v8.4317367c0 .4681151-.2606176.799549-.5093889.9263154h3.111384c-.2647987-.1267664-.517751-.4582003-.517751-.9263154v-8.4317367c0-.4617414.2529523-.7981327.517751-.9149844zm-6.9600233 0c.332392.1550941.4954522.5552227.4954522.9149844v8.1796202h-2.2333675c-.5156605 0-1.1288784-.0637373-1.5727646-.3314339l.694748 1.5098658h7.4087873c.6006748 0 1.2145896.0134557 1.7971465.1395139-.2815227-.7733459-1.1219099-1.3462734-1.6062127-1.3462734-.5881317.0141638-1.562312.0531144-2.4006088.0531144v-8.204407c0-.3597617.1749065-.7598903.5024206-.9149844zm-6.7502749 0c.2508619.1168517.5128732.453243.5128732.9149844v8.4317367c0 .4681151-.2620113.799549-.5128732.9263154h3.1106872c-.2675859-.1267664-.5107826-.4582003-.5107826-.9263154v-8.4317367c0-.4617414.2431967-.7981327.5107826-.9149844zm-2.0737915-.0601963c-.388139 0-.8153011-.0141639-1.1853223.0970223-.6884765.2067921-1.6375705 1.7818117-2.0159539 2.4000635-.5874349 1.0049248-1.0975207 2.3887324-2.4145455 2.4036044v-3.9255095c0-.3434733.1533045-.7598903.4794249-.9149844h-3.0354286c.31845515.1699661.47106279.5552227.47106279.9149844v8.4317367c0 .3569288-.15260764.747851-.47106279.9263154h3.6549181c1.5901855 0 3.5796595-.6203764 3.5796595-2.5615313 0-1.6295503-1.3253869-2.4645089-2.8047751-2.4645089 2.1044524-.0120393 3.3399471-5.0288731 5.6632068-5.0437451-.6229736-.1869628-1.2724272-.2634475-1.9211839-.2634475zm-5.096677 9.4487007c-.181178 0-.3400571-.0297441-.5191447-.0559472v-3.5522922c.1658476-.0113311.3156678-.0290359.4794249-.0290359 1.1379374 0 1.9790215.6380812 1.9790215 1.8951225 0 1.2839525-.8271474 1.7421528-1.9393017 1.7421528zm-8.79967697-4.5628825c-.28849115 0-.54841192 0-.90031539-.0269113v-3.7966186c.43900828-.0871076.91285848-.1154353 1.34977625-.1154353 1.01459689 0 2.04591792.4589086 2.04591792 2.0346363 0 1.5544819-1.21946743 1.9043289-2.49537878 1.9043289zm-.25225555 4.5628825c-.18396537 0-.31009314 0-.64805984-.0417833v-3.595492h.39998532c1.21180221 0 2.38388463.3802992 2.38388463 1.8073066 0 1.4163845-.936551 1.8299687-2.13581011 1.8299687zm-3.20127622-9.3885044c.3254236.1699661.47106286.5715111.47106286.9149844v8.4317367c0 .3569288-.14563926.747851-.47106286.9263154h3.95455868c1.76369832 0 3.48349585-.7336871 3.48349585-2.7683234 0-1.0785768-.9254016-1.9298238-1.92327438-2.1217439 1.43688105.0141638 2.8263771-.8788666 2.8263771-2.4907121 0-2.3044575-2.37761309-2.8922571-4.0507224-2.8922571z" transform="matrix(1 0 0 -1 0 36.171258)"/><path d="m116.646933 15.29854c0 1.9567352-4.535025 2.3979389-4.535025 5.5210667 0 1.934073 1.804811 2.5671968 3.397087 2.5671968.712866 0 1.733735-.0998551 2.387369-.4029614l.112191-1.9213255c-.403469.8484143-1.398555 1.4631252-2.326744 1.4631252-.735164 0-1.498202-.3689682-1.498202-1.2216317 0-2.0296789 4.611677-2.5254134 4.611677-5.4828242 0-2.147947-1.833382-3.0367283-3.709968-3.0367283-.974877 0-2.303052.1897955-3.126715.7620149-.053656.342765-.078743.7025267-.078743 1.0530818 0 .419958.039023.8406242.101042 1.2535003.512873-1.1876384 1.577642-2.1160784 2.903029-2.1160784 1.01181 0 1.763002.4468693 1.763002 1.5615638zm-5.604673 6.8701729-2.394337-4.2675664v-4.011909c0-.3271848.131703-.7598903.451552-.9149844h-2.978288c.303821.1699662.443886.5998389.443886.9149844v4.0253646l-2.081457 3.389408c-.186056.316562-1.05362 1.793851-2.111421 1.793851.287098.1104779 1.162327.2804441 1.749065.2804441.979058 0 1.464755-.0913568 2.064733-1.0452918l1.925365-3.1025901c.161666.3045227 1.686349 2.9991941 1.686349 2.9991941.183965.3286012.31079.5594719.31079.6749072 0 .147304-.062716.2436182-.210445.342765h2.146262c-.422284-.2046675-.7714-.674199-1.002054-1.0785767zm-9.134159-9.1944598c.104526.1005633.183965.1756317.183965.3576371 0 .0616127-.029964.1628842-.091286.3555125 0 0-.825056 2.2959592-.925401 2.5629477-.628548.0779011-1.2780019.0779011-1.9149124.0779011-.5971906 0-1.2118022-.014872-1.8131739-.0779011-.0864079-.2294543-.9693023-2.5133742-.9693023-2.5133742-.1289152-.30948-.1630603-.4142925-.1630603-.4815707 0-.1529696.1233405-.2266216.2320473-.2811524h-2.0347686c.3010343.1550941.5595614.4730724.6856891.7910508l3.3559745 8.7709607c.0090589.036826.0188146.077193.0188146.1267665 0 .2414935-.1581824.4709478-.3762928.5842585h2.6242938l3.400572-9.4734874c.140762-.3802993.440402-.6579106.688477-.7995491zm-2.6375339 8.318426-1.5323479-4.0005779c.4613071-.0509899.9358541-.0616128 1.3957676-.0616128.5247194 0 1.0557102 0 1.5678862.0616128zm-3.6737328.9518103-3.0709673-9.2702363c-.2529524 0-.5017238.0885241-.6424852.1890874-.3031247.2974407-.781156 1.5396099-.9546688 1.9971021l-1.3867087 3.5650397-1.9999265-5.7512292h-.9518815l-3.4382013 9.2928985c-.1484266.3958795-.3992885.7754705-.7741876.980138h2.9873468c-.125431-.0991468-.2125357-.2117494-.2125357-.4277481 0-.1041043.0508691-.2464509.0871047-.357637l2.2389422-6.148525 2.3831878 6.9339101 2.6256876-6.6846264 1.9887772 6.0507944c.0494755.1643006.0787427.2252051.0787427.3286012 0 .1267664-.0543533.206084-.1790875.3052308h1.9776278c-.3651434-.195461-.6292452-.6203764-.7567667-1.0028002zm-12.6106869-9.3304326c-.3867453 0-.8048484-.0141638-1.1846255.0970223-.6884765.2067922-1.6368737 1.7818117-2.0145601 2.4000635-.5846476 1.0049248-1.3469889 2.4036044-2.6556517 2.4036044v-3.9255095c0-.342765.1477298-.7598903.4682755-.9149844h-3.0326413c.3254236.1699662.4766375.5552227.4766375.9149844v8.4317367c0 .3569289-.1512139.747851-.4766375.9263154h3.6632802c1.5853076 0 3.5712974-.6203764 3.5712974-2.5615312 0-1.6295504-1.4494241-2.464509-2.5448543-2.464509 2.1804078-.1274746 3.4960389-5.0437451 5.6597225-5.0437451-.6271546-.1869627-1.2759113-.2634475-1.9302427-.2634475zm-5.3503262 9.4487007c-.1686349 0-.3296047-.0297441-.5045111-.0559471v-3.5522923c.1623634-.011331.31079-.0290358.4682755-.0290358 1.1407247 0 1.9804151.6380811 1.9804151 1.8951224 0 1.2839525-.8306315 1.7421528-1.9441795 1.7421528zm-7.8359493-9.3885044c.2508619.1168518.5107827.4532431.5107827.9149844v8.4317367c0 .4681151-.2599208.7995491-.5107827.9263154h3.1085967c-.2641018-.1267663-.5100858-.4582003-.5100858-.9263154v-8.4317367c0-.4617413.245984-.7981326.5100858-.9149844zm-6.0520427 8.318426-1.5330447-4.0005779c.4564292-.0509899.9302794-.0616128 1.3929802-.0616128.5295973 0 1.0536199 0 1.5685835.0616128zm2.6403212-8.318426c.0975575.1005633.1839654.1756317.1839654.3576371 0 .0616127-.0222988.1628842-.0961637.3555125 0 0-.8306315 2.2959592-.9281889 2.5629477-.6236705.0779011-1.273124.0779011-1.9093376.0779011-.604159 0-1.2166801-.014872-1.8152644-.0779011-.0850143-.2294543-.9748771-2.5133742-.9748771-2.5133742-.1198562-.30948-.1609697-.4142925-.1609697-.4815707 0-.1529696.1289151-.2266216.2383188-.2811524h-2.0340717c.2996406.1550941.5602582.4730724.6877796.7910508l3.344825 8.7709607c.0146336.036826.0209052.077193.0209052.1267665 0 .2414935-.1588792.4709478-.371415.5842585h2.6235971l3.400572-9.4734874c.1386709-.3802993.4355241-.6579106.6849923-.7995491z" transform="matrix(1 0 0 -1 0 36.171262)"/></g></svg>