<svg height="36" viewBox="0 0 224 36" width="224" xmlns="http://www.w3.org/2000/svg" xmlns:xlink="http://www.w3.org/1999/xlink"><linearGradient id="a" x1="10.144043%" x2="78.487142%" y1="9.436035%" y2="74.348958%"><stop offset="0" stop-color="#48baf2"/><stop offset="1" stop-color="#908df7"/></linearGradient><g fill="none" fill-rule="evenodd"><path d="m46.3383736 15.5472527c0-1.0928626.2008222-2.173099.6024726-3.2407417.4016506-1.0676427.987026-2.0217815 1.756144-2.86244506.769118-.84066354 1.709137-1.5215908 2.8200852-2.0428022s2.3757012-.7818132 3.7942966-.7818132c1.674968 0 3.1234518.36147992 4.3454948 1.08445056 1.2220432.72297064 2.1321524 1.6644997 2.7303554 2.8246154l-2.7175368 1.8410439c-.239281-.5043981-.5298324-.9289268-.8716626-1.2735989-.3418302-.344672-.7092922-.6178836-1.102397-.8196428-.3931048-.2017593-.8032948-.34887318-1.2305826-.44134618-.4272878-.09247298-.8460236-.13870878-1.2562198-.13870878-.8887586 0-1.6621378.1765367-2.320161.52961536-.6580232.3530787-1.2049434.8112335-1.6407768 1.374478-.4358336.5632446-.7648402 1.2021393-.98703 1.9167033-.2221896.7145641-.3332828 1.4249141-.3332828 2.1310715 0 .7902237.1281844 1.5510128.3845572 2.2823901.2563726.7313773.6195618 1.3744752 1.0895784 1.9293132.4700164.554838 1.034028 1.0003828 1.692051 1.3366484.6580232.3362654 1.3801288.5043956 2.1663382.5043956.4101964 0 .8374776-.0504392 1.281857-.1513188.4443792-.1008796.8673878-.2606032 1.2690384-.4791758.4016504-.2185726.7733852-.5001906 1.1152154-.8448626.3418302-.3446721.6152904-.7607943.8203884-1.2483791l2.8969968 1.6392857c-.2905558.6725308-.7050188 1.2651898-1.2434014 1.7779944-.5383824.5128048-1.145122.94574-1.8202368 1.2988188-.6751146.3530786-1.3972202.622087-2.1663382.807033s-1.5211332.2774176-2.256068.2774176c-1.298955 0-2.4867972-.2690084-3.5635624-.807033-1.0767652-.5380248-2.0039656-1.2399682-2.7816294-2.1058518-.7776638-.8658834-1.3844034-1.849445-1.8202368-2.9507142-.4358336-1.1012692-.653747-2.2235382-.653747-3.3668407zm30.4470598 9.0791209h-3.4353766v-7.4146154c0-1.0424228-.1965494-1.8116184-.5896542-2.3076098-.3931048-.4959915-.9485704-.7439836-1.666414-.7439836-.3076472 0-.632381.0672521-.9742112.2017583-.3418302.1345061-.666564.3236526-.9742112.567445-.3076472.2437925-.589653.533817-.8460256.8700824-.2563726.3362655-.4443764.7061519-.564017 1.1096704v7.7172527h-3.4353766v-18.41043954h3.4353766v7.64159344c.4956538-.8574768 1.1664854-1.5173878 2.0125152-1.9797528.8460298-.4623649 1.781776-.6935439 2.8072668-.6935439.871667 0 1.580954.1471139 2.1278824.4413461.5469284.2942323.9742098.6851349 1.281857 1.1727198s.5212878 1.0424145.6409284 1.6645055.17946 1.2609857.17946 1.9167033zm6.2712384.2521978c-.6494774 0-1.256217-.1050814-1.8202368-.3152472-.56402-.210166-1.0511206-.5043938-1.461317-.8826924-.4101962-.3782986-.7306572-.8196402-.9613926-1.3240384s-.3461014-1.0592278-.3461014-1.6645054c0-.6220912.1410028-1.197937.4230128-1.727555.28201-.5296181.6751088-.9793663 1.1793084-1.3492583.5041996-.3698919 1.1066662-.6599165 1.8074182-.8700824s1.4698584-.3152472 2.3073424-.3152472c.598203 0 1.1835784.050439 1.756144.1513186.5725656.1008797 1.0810304.2437903 1.5254098.4287363v-.7565934c0-.8742901-.252096-1.5468108-.7562956-2.0175824s-1.251942-.7061539-2.2432496-.7061539c-.7178434 0-1.418585.1260977-2.1022454.3782967-.6836604.2521991-1.3844018.6220855-2.1022454 1.1096704l-1.0511226-2.1436814c1.7262426-1.1264891 3.5891894-1.6897252 5.5888962-1.6897252 1.9313408 0 3.4310984.4665612 4.4993178 1.3996978 1.0682194.9331365 1.602321 2.2823813 1.602321 4.0477747v4.1108241c0 .3530788.0640922.605274.1922786.7565934.1281864.1513196.3375542.2353846.62811.2521978v2.875055c-.5811114.117693-1.0853034.1765384-1.5125912.1765384-.6494774 0-1.1493966-.1429106-1.4997726-.4287362s-.5682896-.6641186-.653747-1.13489l-.0769114-.7313738c-.598203.7734106-1.3245812 1.3618662-2.1791568 1.7653848-.8545756.4035184-1.7689578.6052746-2.7431738.6052746zm.9742112-2.4715384c.5811114 0 1.1323044-.1008782 1.6535954-.3026374.5212912-.2017592.9272084-.4707676 1.2177642-.807033.3760132-.2858256.564017-.605273.564017-.9583516v-1.5131868c-.4101964-.1513195-.854569-.2732138-1.3331312-.3656868-.4785624-.092473-.9400262-.1387088-1.3844056-.1387088-.8887584 0-1.6151368.1975529-2.1791566.5926648-.56402.3951119-.8460256.8952992-.8460256 1.500577 0 .5716512.2221862 1.046619.6665656 1.4249176.4443792.3782986.9912994.567445 1.6407768.567445zm22.166264 2.2193406h-3.435376v-7.4146154c0-1.059236-.188004-1.8326349-.564017-2.3202197-.376014-.4875849-.897297-.7313737-1.563866-.7313737-.34183 0-.6922008.0672521-1.0511226.2017583-.3589216.1345061-.696474.3236526-1.0126668.567445-.316193.2437925-.6024716.533817-.8588442.8700824-.2563726.3362655-.4443764.7061519-.564017 1.1096704v7.7172527h-3.4353766v-13.2151648h3.1020938v2.4463187c.4956538-.8406636 1.2134864-1.4963713 2.1535196-1.9671429.940033-.4707716 1.9996908-.7061538 3.1790048-.7061538.837484 0 1.521135.1513171 2.050971.453956.529837.3026389.940027.6977448 1.230583 1.1853297.290556.4875848.491378 1.0424145.602473 1.6645055s.166641 1.2525792.166641 1.8914835zm7.860741.0756594c-.90585 0-1.72623-.1765368-2.461165-.5296154-.734935-.3530788-1.371584-.836453-1.909967-1.4501374s-.952845-1.3240344-1.243401-2.1310714-.435832-1.664501-.435832-2.5724176c0-.9583564.153822-1.8494464.461469-2.6732967s.734929-1.5468101 1.281857-2.1689011 1.204942-1.1096686 1.97406-1.4627472c.769118-.3530787 1.615135-.5296154 2.538076-.5296154 1.042582 0 1.956965.231179 2.743174.6935439.78621.462365 1.435677 1.0802434 1.948423 1.8536539v-2.3202198h2.999545v12.5846704c0 .9751696-.188004 1.8494466-.564017 2.622857-.376014.7734106-.893024 1.4291182-1.551047 1.967143-.658023.5380246-1.444221.9499436-2.358617 1.2357692s-1.909961.4287362-2.986727.4287362c-1.469869 0-2.704713-.2395856-3.704566-.7187638s-1.858689-1.1559022-2.576532-2.0301922l1.871511-1.7906044c.512745.622091 1.15794 1.1096686 1.935604 1.4627472.777663.3530788 1.602316.5296154 2.473983.5296154.529837 0 1.038302-.0714554 1.52541-.2143682s.918662-.3656852 1.294676-.668324c.376013-.302639.670837-.6893384.884481-1.16011s.320464-1.0256012.320464-1.6645054v-1.6645056c-.444379.7565972-1.06821 1.3408496-1.871511 1.7527748-.803301.411925-1.666409.6178846-2.589351.6178846zm1.153671-2.6985166c.376014 0 .73493-.0588454 1.07676-.1765384.34183-.1176928.658019-.2774166.948574-.4791758.290556-.2017592.546925-.4371416.769114-.7061538.22219-.2690124.393103-.5548336.512743-.8574726v-3.1524725c-.307647-.7734105-.790475-1.3954922-1.448498-1.8662637-.658023-.4707716-1.345946-.7061539-2.06379-.7061539-.529837 0-1.008392.1134879-1.435679.340467-.427288.2269792-.79475.5296135-1.102397.9079121-.307648.3782986-.542652.8112339-.705022 1.2988187-.162369.4875849-.243553.9919754-.243553 1.5131868 0 .5380247.094002 1.0424153.282009 1.5131868.188007.4707717.448648.8826905.781933 1.2357693.333284.3530786.72211.6304934 1.166489.8322528.44438.2017592.931481.3026372 1.461317.3026372zm15.680069 2.875055c-1.076766 0-2.050967-.18074-2.922634-.5422252-.871667-.3614854-1.615137-.8532662-2.230431-1.4753572-.615295-.622091-1.089577-1.3450508-1.422861-2.168901-.333285-.8238504-.499925-1.6897208-.499925-2.5976375 0-.9415431.162367-1.8284299.487106-2.6606868s.794748-1.5636232 1.410043-2.1941208c.615294-.6304977 1.363036-1.130685 2.243249-1.500577.880213-.3698919 1.867233-.5548351 2.96109-.5548351 1.093856 0 2.072331.1849432 2.935452.5548351.863121.369892 1.598045.865876 2.204794 1.4879671.606749.622091 1.068212 1.3450508 1.384405 2.1689011.316193.8238502.474287 1.6813142.474287 2.5724175 0 .2185726-.004272.4287353-.012818.6304946-.008546.2017592-.02991.3698894-.064093.5043956h-10.383041c.051275.5212114.179459.9835694.384557 1.3870878.205098.4035186.470013.7481854.794751 1.034011.324739.2858256.692201.504395 1.102397.6557144.410197.1513194.837478.226978 1.281857.226978.683661 0 1.328856-.163927 1.935604-.4917858.606749-.3278588 1.021212-.760794 1.243401-1.2988186l2.948271.807033c-.495654 1.0087962-1.286124 1.8368374-2.371435 2.4841482-1.085311.647311-2.379973.9709616-3.884026.9709616zm3.48665-7.9694505c-.085457-.991983-.457192-1.7863981-1.115215-2.3832693-.658023-.5968711-1.457039-.8953021-2.397073-.8953021-.46147 0-.893025.0798618-1.294675.2395879-.401651.159726-.756294.3824985-1.063941.6683241-.307648.2858256-.559744.6304925-.756296 1.034011s-.311918.8490635-.346101 1.3366484zm5.45085 7.7172527v-17.90604392h7.716779c.837484 0 1.610863.17233344 2.320161.51700548.709298.34467206 1.32031.79862356 1.833055 1.36186814.512746.56324458.91439 1.20213928 1.204946 1.9167033.290556.714564.435831 1.4333206.435831 2.1562912 0 .7565972-.13673 1.4921668-.410194 2.2067308s-.658017 1.3492554-1.153671 1.9040934c-.495654.5548379-1.093848 1.0003829-1.7946 1.3366483s-1.469858.5043956-2.307342.5043956h-4.30704v6.0023077zm3.537925-9.0539011h4.101943c.649477 0 1.192124-.2606018 1.627958-.7818132.435833-.5212114.653747-1.2273581.653747-2.1184615 0-.4539583-.068365-.861674-.205097-1.2231593-.136732-.3614854-.316191-.668323-.53838-.920522-.22219-.2521991-.482831-.4413455-.781933-.56744508-.299101-.12609952-.602471-.18914834-.910118-.18914834h-3.94812zm11.680675-9.35653844h3.435377v14.17351654c0 .4875848.119638.8658778.358919 1.13489.239282.2690124.581107.4035166 1.025486.4035166.205098 0 .431557-.033626.679384-.1008792.247827-.067253.482832-.1513182.705021-.2521978l.461469 2.5724176c-.461471.2185726-.999845.3867028-1.61514.5043956-.615294.117693-1.17076.1765384-1.666414.1765384-1.076765 0-1.909964-.281618-2.499621-.8448626s-.884481-1.3660662-.884481-2.408489zm13.988017 18.66263734c-1.076765 0-2.050967-.18074-2.922634-.5422252-.871667-.3614854-1.615136-.8532662-2.230431-1.4753572-.615294-.622091-1.089577-1.3450508-1.422861-2.168901-.333284-.8238504-.499924-1.6897208-.499924-2.5976375 0-.9415431.162367-1.8284299.487105-2.6606868.324739-.8322569.794749-1.5636232 1.410043-2.1941208.615294-.6304977 1.363037-1.130685 2.24325-1.500577.880212-.3698919 1.867232-.5548351 2.961089-.5548351s2.072331.1849432 2.935452.5548351c.863122.369892 1.598046.865876 2.204794 1.4879671.606749.622091 1.068213 1.3450508 1.384406 2.1689011.316193.8238502.474287 1.6813142.474287 2.5724175 0 .2185726-.004273.4287353-.012819.6304946-.008545.2017592-.029909.3698894-.064092.5043956h-10.383042c.051275.5212114.179459.9835694.384558 1.3870878.205098.4035186.470012.7481854.794751 1.034011s.692201.504395 1.102397.6557144.837477.226978 1.281857.226978c.68366 0 1.328855-.163927 1.935604-.4917858.606748-.3278588 1.021211-.760794 1.243401-1.2988186l2.948271.807033c-.495654 1.0087962-1.286125 1.8368374-2.371436 2.4841482-1.08531.647311-2.379973.9709616-3.884026.9709616zm3.486651-7.9694505c-.085458-.991983-.457193-1.7863981-1.115216-2.3832693-.658023-.5968711-1.457039-.8953021-2.397072-.8953021-.461471 0-.893025.0798618-1.294676.2395879-.40165.159726-.756294.3824985-1.063941.6683241s-.559743.6304925-.756295 1.034011c-.196553.4035185-.311919.8490635-.346102 1.3366484zm8.911863 7.9694505c-.649477 0-1.256216-.1050814-1.820236-.3152472-.56402-.210166-1.051121-.5043938-1.461317-.8826924-.410197-.3782986-.730658-.8196402-.961393-1.3240384s-.346101-1.0592278-.346101-1.6645054c0-.6220912.141003-1.197937.423012-1.727555.28201-.5296181.675109-.9793663 1.179309-1.3492583.504199-.3698919 1.106666-.6599165 1.807418-.8700824s1.469859-.3152472 2.307343-.3152472c.598202 0 1.183578.050439 1.756144.1513186.572565.1008797 1.08103.2437903 1.525409.4287363v-.7565934c0-.8742901-.252096-1.5468108-.756295-2.0175824-.5042-.4707716-1.251942-.7061539-2.24325-.7061539-.717843 0-1.418585.1260977-2.102245.3782967-.683661.2521991-1.384402.6220855-2.102246 1.1096704l-1.051122-2.1436814c1.726242-1.1264891 3.589189-1.6897252 5.588896-1.6897252 1.931341 0 3.431098.4665612 4.499318 1.3996978 1.068219.9331365 1.602321 2.2823813 1.602321 4.0477747v4.1108241c0 .3530788.064092.605274.192278.7565934.128187.1513196.337555.2353846.62811.2521978v2.875055c-.581111.117693-1.085303.1765384-1.512591.1765384-.649477 0-1.149397-.1429106-1.499773-.4287362s-.568289-.6641186-.653747-1.13489l-.076911-.7313738c-.598203.7734106-1.324581 1.3618662-2.179157 1.7653848-.854575.4035184-1.768957.6052746-2.743174.6052746zm.974212-2.4715384c.581111 0 1.132304-.1008782 1.653595-.3026374s.927209-.4707676 1.217764-.807033c.376013-.2858256.564017-.605273.564017-.9583516v-1.5131868c-.410196-.1513195-.854569-.2732138-1.333131-.3656868s-.940026-.1387088-1.384405-.1387088c-.888759 0-1.615137.1975529-2.179157.5926648s-.846026.8952992-.846026 1.500577c0 .5716512.222187 1.046619.666566 1.4249176s.991299.567445 1.640777.567445zm14.757131 2.4715384c-1.12804 0-2.230426-.1765366-3.307191-.5296154-1.076765-.3530786-1.999693-.8574692-2.768811-1.5131868l1.281857-2.1184616c.820393.5716514 1.619409 1.0045866 2.397072 1.2988188.777664.2942322 1.551043.4413462 2.320161.4413462.683661 0 1.222035-.1260978 1.61514-.3782968s.589654-.613679.589654-1.0844506-.230732-.8154384-.692202-1.0340109c-.461471-.2185725-1.213486-.4707678-2.256069-.7565934-.871667-.2353858-1.615136-.4623616-2.230431-.6809341-.615294-.2185725-1.11094-.4665645-1.486954-.7439835-.376013-.277419-.649473-.5968663-.820388-.9583517-.170915-.3614853-.256371-.7944205-.256371-1.2988186 0-.6725309.132457-1.2777995.397375-1.8158242.264919-.5380247.636653-.9961794 1.115216-1.374478.478562-.3782986 1.038301-.6683232 1.679232-.8700824.640932-.2017593 1.337401-.3026374 2.089427-.3026374 1.008399 0 1.952691.1429106 2.832904.4287363.880213.2858256 1.687775.7481836 2.422709 1.3870879l-1.384406 2.0428022c-.68366-.5043982-1.345946-.8742846-1.986877-1.1096704-.640932-.2353858-1.277581-.3530769-1.909967-.3530769-.581111 0-1.068212.1176911-1.461317.3530769s-.589654.6136787-.589654 1.1348901c0 .2353858.047001.4287356.141004.580055s.243552.2858236.44865.4035165.474285.2311807.80757.340467c.333284.1092863.747747.2227741 1.243401.340467.922942.2353858 1.713412.4707681 2.371435.7061539s1.196399.5043941 1.615141.807033c.418742.3026388.726384.651509.922936 1.0466208.196552.3951119.294828.8700797.294828 1.4249177 0 1.2946218-.487102 2.3160126-1.461318 3.0642032s-2.298788 1.1222802-3.973756 1.1222802zm13.500912 0c-1.076766 0-2.050968-.18074-2.922634-.5422252-.871668-.3614854-1.615138-.8532662-2.230432-1.4753572s-1.089576-1.3450508-1.42286-2.168901c-.333286-.8238504-.499924-1.6897208-.499924-2.5976375 0-.9415431.162366-1.8284299.487104-2.6606868.32474-.8322569.794748-1.5636232 1.410044-2.1941208.615294-.6304977 1.363036-1.130685 2.243248-1.500577.880214-.3698919 1.867234-.5548351 2.96109-.5548351 1.093858 0 2.072332.1849432 2.935452.5548351.863122.369892 1.598046.865876 2.204794 1.4879671.60675.622091 1.068214 1.3450508 1.384406 2.1689011.316194.8238502.474288 1.6813142.474288 2.5724175 0 .2185726-.004274.4287353-.01282.6304946-.008546.2017592-.02991.3698894-.064092.5043956h-10.383042c.051276.5212114.17946.9835694.384558 1.3870878.205098.4035186.470012.7481854.794752 1.034011.324738.2858256.6922.504395 1.102396.6557144s.837478.226978 1.281858.226978c.68366 0 1.328854-.163927 1.935602-.4917858.60675-.3278588 1.021212-.760794 1.243402-1.2988186l2.948272.807033c-.495654 1.0087962-1.286126 1.8368374-2.371436 2.4841482-1.085312.647311-2.379974.9709616-3.884026.9709616zm3.48665-7.9694505c-.085458-.991983-.457192-1.7863981-1.115216-2.3832693-.658022-.5968711-1.457038-.8953021-2.397072-.8953021-.46147 0-.893024.0798618-1.294676.2395879-.40165.159726-.756294.3824985-1.06394.6683241-.307648.2858256-.559744.6304925-.756296 1.034011s-.311918.8490635-.346102 1.3366484zm5.912318.9835714v-11.3489011h3.435378v11.3489011zm0 6.7336813v-3.8081868h3.435378v3.8081868z" fill="#1d1f24" fill-rule="nonzero"/><rect fill="url(#a)" fill-rule="nonzero" height="35.9011" rx="9.261" width="36.49522"/><g stroke="#fff" stroke-linecap="round" stroke-linejoin="round" transform="translate(6.333882 6.23077)"><path d="m7.8419482 23.4395604h-6.27355856c-.86619768 0-1.56838964-.6831698-1.56838964-1.5259026v-3.8147567" stroke-width="2.4"/><g stroke-width="2.5638"><path d="m23.827458 18.0989011v3.8147567c0 .8427328-.702192 1.5259026-1.5683896 1.5259026h-6.2735586"/><path d="m15.9855098 0h6.2735586c.8661976 0 1.5683896.6831699 1.5683896 1.52590266v3.81475668"/><path d="m0 5.34065934v-3.81475668c0-.84273276.70219196-1.52590266 1.56838964-1.52590266h6.27355856"/></g></g></g></svg>