<svg height="28" viewBox="0 0 76 28" width="76" xmlns="http://www.w3.org/2000/svg"><g fill="#fff"><path d="m5.89500002.98100003h8.80784988l5.40765 18.29699987h.0747l3.7035-18.29699987h6.6559499l-5.5952999 26.38889987h-8.77185l-5.5196999-18.26099992h-.0760501l-3.6661499 18.26099992h-6.65504996"/><path d="m33.1483498.98100003h7.06995l-2.0799 10.09439997h8.3555999l2.07855-10.09439997h7.06905l-5.481 26.38889987h-7.0703999l2.34585-11.30445h-8.35695l-2.3418 11.30445h-7.0713"/><path d="m74.2409996 6.95429997c-1.3612502-.64259998-3.2139004-1.21094996-5.8230001-1.21094996-2.7958499 0-5.0633999.41760001-5.0633999 2.53349997 0 3.74309992 10.2438 2.34360002 10.2438 10.35944992 0 7.29675-6.76665 9.1863-12.8915999 9.1863-2.7225001 0-5.86035-.6426001-8.1666-1.3612501l1.6659-5.3666999c1.3986.9063 4.1944499 1.51155 6.5007 1.51155 2.1928499 0 5.6344497-.4158 5.6344497-3.13785 0-4.2354-10.2469497-2.6473499-10.2469497-10.09529995 0-6.80399992 5.97375-8.84654991 11.7571501-8.84654991 3.2530497 0 6.3152998.33929999 8.0905498 1.17224999"/></g></svg>