<svg height="366" viewBox="0 0 460 366" width="460" xmlns="http://www.w3.org/2000/svg" xmlns:xlink="http://www.w3.org/1999/xlink"><mask id="a" fill="#fff"><path d="m0 0h33v32.99775h-33z" fill="#fff" fill-rule="evenodd"/></mask><mask id="b" fill="#fff"><path d="m0 0h33v32.99775h-33z" fill="#fff" fill-rule="evenodd"/></mask><mask id="c" fill="#fff"><path d="m197.4525 21.421875h-197.3896875v-21.18375h197.3896875z" fill="#fff" fill-rule="evenodd"/></mask><g fill="none" fill-rule="evenodd"><g fill="#fff" fill-rule="nonzero"><g transform="translate(277.779909 64.5)"><path d="m170.895534 23.4639274c3.845902 0 6.815965-3.1287342 6.854466-6.8429381-.269506-1.621419-.838768-4.6209893-5.043607-4.6209893-4.609098 0-6.13395 6.4292838-9.88371 10.5790173-.301076 2.3566089-2.535554 4.4657728-5.322683 4.8202865.682014.7132045 2.202797 1.1006962 4.017835 1.1006962 3.319321 0 7.337156-.999014 9.442271-3.0766289-2.80913.0384743-4.613168-1.7656429-4.790602-4.2609794 1.369529 1.6584644 2.916492 2.3015357 4.72603 2.3015357"/><path d="m140.877625 13.3840793c0-2.0793842-.125413-3.46564032-1.481321-3.46564032-.620041 0-.919694.12576922-1.458913.30464092.479355 7.0207165-1.105082 13.2057665-3.03644 13.2057665-2.53189 0-1.269401-15.05038146-6.630158-15.05038146-4.948177 0-5.661637 12.01515136-6.221814 12.01515136-.381813 0-.440339-3.1554096-.419492-5.5632471.207683-1.1514869.321948-2.1883841.321948-2.9750845 0-1.1179485-.45706-3.0506578-2.989061-2.0849739.088068 8.5927757-1.62758 13.7828515-3.560275 13.7828515-2.830206 0-2.8622-7.7893061-2.8622-9.9343138 0-2.0961534.151833-4.8966144-2.955618-3.90309358-.462634 7.49450308-2.423199 13.14986908-3.657818 13.14986908-1.840838 0-1.470173-12.94718502-5.44994-12.94718502-3.5812332 0-4.6862038 12.26523642-5.4317692 12.26523642-1.3335007 0 .419492-13.80521046-4.7517527-13.80521046-2.7102549 0-3.7888052 4.60728926-4.8506339 9.76528006-.2062344.9991105-.4180427 1.032649-.45706-.0972615-.0267548-.9600942-.0323287-1.9271196-.0211809-2.887102 1.3001688-5.18593946-.2883937-7.10176778-2.6838345-5.7211014.7734348 9.5696391-3.6091026 14.2468001-6.9673794 14.2468001-1.2136618 0-2.1723732-.5183927-2.8844951-1.3372899 4.0271453-2.4777093 5.8178175-5.3214348 5.8178175-8.1009902 0-3.0072814-1.7251231-4.74289642-4.5887718-4.74289642-3.9950396 0-6.2316241 4.12668322-6.2316241 7.63704152 0 1.8878796.3539428 3.493589.9308419 4.8141098-1.3725181.6554532-2.6671129 1.222812-3.8710761 1.7734016-.1092485-3.6081787-.5113499-7.3952292-.8207015-10.894408-2.1292312-.5897178-2.7493837.4359999-2.9123646 2.335059-.3818124 4.3348453-1.9815227 7.0263063-3.3972942 7.0263063-1.0618286 0-1.7139753-1.2996151-1.7906723-2.6802815-.3970848-6.9493914 5.2255346-8.8821007 8.1700049-7.8716989.6103424-1.5343843-.0601982-2.6370169-2.7159402-2.6370169-3.2174801 0-5.6226195 1.9606581-7.38676 4.4760422-1.1747559 1.6769227-2.5361261 2.8660845-4.34352 4.3026483.0490503-.4093927.0713459-.824487.0713459-1.2338797 0-4.8966144-2.6462664-7.04732372-5.1712447-7.04732372-2.0902138 0-3.4069928 1.25489722-4.1692799 3.18760652-.1852765-1.9382991-.5713251-2.77251225-1.6930174-2.77251225-.4793557 0-1.1482241.13549535-1.8616838.48485425.3260734 1.0816152.4514862 3.4782731.4514862 5.0503323 0 5.8887937-1.6819811 8.5314003-3.2984132 8.5314003-1.8505359 0-2.1445036-6.9871781-2.3020221-9.7052462-.2883938-.109559-.5936207-.1690338-.9043101-.1690338-1.6764073 0-1.8937895 2.2540077-2.3075961 4.3278022-.4570601 2.2988374-1.7739505 5.1859394-3.7289415 5.1859394-1.1803298 0-1.9216589-1.1403075-2.0136283-3.1931963-.1908505-4.1643581 3.2663074-9.1001006 8.6716561-7.5657163.7064366-1.6587002-.404108-2.92064047-2.6462664-2.92064047-3.9518976 0-7.2182051 2.96401687-8.6436752 6.47437507-1.4478772 3.2210332-3.9797671 7.9486137-9.1287162 7.9486137-3.63552288 0-6.42247464-3.1833583-6.42247464-9.8589641 0-5.75318647 3.61880113-11.21861304 7.47872934-11.21861304 2.6992185 0 3.3262827 2.66496561 3.0866048 5.16492201 1.3990498 1.12353823 3.6899241.07490255 3.6899241-2.73472559 0-1.93829908-1.5677161-5.22506764-6.6343944-5.22506764-6.27064145 0-11.8124393 6.27314435-11.8124393 14.50962986 0 7.9806988 4.03829311 12.6970999 9.75433118 12.6970999 3.60910252 0 7.01052142-2.0626149 9.35713482-5.8734777.5936207 3.3357346 2.8580748 4.73876 4.5553284 4.73876 2.7492722 0 4.5455183-1.7859227 5.5250761-4.1978966.6103425 2.4175636 1.8993634 4.2090761 4.0453163 4.2090761 1.5077409 0 2.6879592-.7700429 3.5756591-1.9983329-.3539429 8.4055193-.7942813 13.7660822 4.158132 12.7138691-.7664117-2.3910682-1.0116635-6.7426827-1.0116635-10.6512542 0-10.6931773 1.7585666-14.2133735 3.9630454-14.2133735 1.5997103 0 2.1166342 2.040256 2.1166342 4.218914 0 1.1682562-.1142651 2.5111359-.4082327 3.7171788-2.7103664 1.7145976-4.8715917 3.0687686-4.8715917 4.7876144 0 1.3596489 1.0074273 1.4840766 1.8784055 1.4840766 2.079066 0 4.5830864-2.0458458 5.9654145-5.9055629 1.2081993-.7365045 2.4218611-1.5777607 3.581233-2.7236579-.0379025.3927353-.0601982.7853588-.0601982 1.1892736 0 3.8317684 1.6707219 6.1528531 4.3434086 6.1528531 2.0957878 0 3.6635039-1.4910079 4.7740484-3.7227685.071346 1.2870941.114265 2.4721195.1309867 3.5578711-4.2458652 1.9718375-8.9433282 3.9687171-8.9433282 9.5263744 0 2.8759225 2.0679182 5.0376995 4.7629006 5.0376995 5.9166986 0 7.2670325-6.2605115 7.3213223-13.5369028 1.9272329-.8356665 3.3582769-1.4799403 5.0137262-2.3044273 1.4144338 1.780333 3.3415552 2.6705554 5.1056957 2.6705554 3.3359812 0 5.845687-1.7747432 7.8592039-5.3717425.3539429 2.7347256 1.0618287 5.3717425 2.5152797 5.3717425 2.6448173 0 3.1840367-13.8765356 5.1488377-13.8765356 1.5077409 0 .2731213 15.0112533 4.2515506 15.0112533 3.4069928 0 4.0438671-13.2100147 5.7048904-13.2100147 1.176094 0 1.262489 12.075297 4.974709 12.075297 1.824004 0 3.805527-2.201017 4.794895-6.8083063.468207 3.0687686 2.009392 6.8083063 5.024874 6.8083063 1.758566 0 3.271881-1.7859227 4.441063-4.154632.321837 2.4399226 1.007427 4.154632 2.341039 4.154632 3.466968 0 3.352703-13.8444505 6.096402-13.8444505 2.139041 0 1.48132 13.8444505 6.575868 13.8444505 2.421861 0 3.570085-2.0696581 4.257013-4.6730247.935078 3.8261787 2.453967 4.6730247 3.695498 4.6730247.788708 0 1.387902-.2794871 2.172485-1.2129741-3.942199-1.7132561-3.609103-7.952862-3.609103-11.9816129m-83.4344238 23.7787643c-1.2248096 0-1.8728316-1.1682562-1.8728316-2.4846405 0-3.5537347 2.6016752-5.4360245 5.8024335-7.0570499-.1421345 7.7613574-1.9438431 9.5416904-3.9296019 9.5416904m15.9162815-25.1650205c1.1914776 0 1.8714938 1.0969311 1.7516549 2.6746918-.1352229 1.8502047-1.4798714 3.9743069-3.8209109 5.6385968-1.2193471-3.4824096-.3093516-8.3132886 2.069256-8.3132886m37.7534983-5.25156298c1.13284-.03801025 1.927121-1.01453825 1.932695-2.17720468.011148-1.16266643-.778897-2.08083752-1.915974-2.03746112-1.137076.0391282-2.062344 1.01587979-2.067918 2.17854622-.011148 1.16266643.91412 2.07379444 2.051197 2.03611958m28.240182.58971783c1.033959-.03801025 1.878405-.96568391 1.878405-2.07379445 0-1.10822233-.827724-1.97597395-1.861684-1.94388883-1.035408.03801025-1.878405.97127365-1.883979 2.07938419-.011148 1.10822234.833299 1.97597395 1.867258 1.93829909m38.391598 9.21469045c-.088068-4.3894012-2.166799-8.08981069-5.378817-11.04398956-2.438583-2.23164877-5.334225-3.92958893-8.370554-5.20684508-.239678-.10285126-.490503-.20257227-.735755-.30039276-3.738752 4.49269959-16.682693 7.84375018-16.682693 17.2611246 0 3.6780506 2.318744 7.1226734 5.720163 8.5047932 1.975948.7475721 3.946323.7853588 5.922272.1187261 1.758567-.5785384 3.20087-1.6698797 4.403384-2.996102 3.800064-4.2202555 5.345373-10.7532111 10.010731-10.7532111 4.266823 0 4.843722 3.0449563 5.116843 4.6939303 0-.0111794 0-.1201794-.011148-.2780337"/></g><path d="m17.6996967 17.47383 15.3003033-16.90854-.56397-.56529-16.8678033 15.2953533c.8649666.5542167 1.5953666 1.3004201 2.13147 2.1784767" mask="url(#a)" transform="translate(244.779909 114)"/><path d="m11.9802466 24.0410133c-1.6534099 0-2.99379663-1.3428066-2.99379663-2.9994433 0-1.6537033 1.34038673-2.9964733 2.99379663-2.9964733 1.6537034 0 2.9931734 1.34277 2.9931734 2.9964733 0 1.6566367-1.33947 2.9994433-2.9931734 2.9994433zm1.5522101-7.9557866-1.1869734-16.05182337h-.79882l-1.1896866 16.07569337c-.2611034.0859466-.51384672.1927933-.75493002.3166166l-8.34727668-6.6847733-.56485.56573 6.67802667 8.35549c-.13130333.2560067-.24409.5227934-.33238334.8014967l-7.03556333 1.17392v.7996267l7.03197 1.1727099c.0913.2901067.20830334.5681134.34672.8337267l-4.09453 5.7387733.56426333.5651067 5.73243-4.09871c.25395337.1331.52070337.2458867.79823327.3360133l1.1675767 7.0151767h.79882l1.1628101-6.99138c.29601-.0912267.5791866-.20944.8504466-.34848l8.34724 6.6852134.56397-.5651801-6.6771466-8.35626c.1304233-.2560066.24255-.5227566.3309533-.7996633l16.00764-1.1870466v-.7996267l-16.0118933-1.18701c-.5138101-1.6006467-1.7819267-2.8619067-3.3870467-3.36534z" mask="url(#b)" transform="translate(244.779909 114)"/><g transform="translate(313.029909 267)"><path d="m91.3038863 30.9384789c-.0544515-.1408149-.2045618-.2221101-.3517291-.188721l-.0456217.0130653c-.4356135.0929088-.7711545.0667782-1.0066215-.0900054-.3340687-.2221101-.4959525-.7243983-.4959525-1.5344469v-7.3209233c0-2.859849-1.7277397-4.3100973-5.1390682-4.3100973-3.0537135 0-5.4466478 1.4255694-5.4466478 3.2460012 0 .9363465.5783663 1.6128387 1.4319345 1.7144577.5577622.0667783 1.0905068-.1829142 1.476084-.5850351.7505513-.7810146.6548925-1.7115543-.2560702-2.7088722.5386305-.5560011 1.492272-.8840853 2.5798357-.8840853 1.7718893 0 2.5283273 1.0365138 2.5283273 3.4666596v1.8509175c-.4150103.1262979-.8035313.2453373-1.515819.4108311-1.4348775.3324394-3.403971.7752079-4.8888848 1.5838048-1.2259005.6634269-1.8484162 1.7101026-1.8484162 3.1109932 0 1.5257367 1.0154512 3.3069727 3.8763765 3.3069727 1.6026472 0 3.0375247-.7490773 4.5106657-2.3575609.1280348 1.6709067.769683 2.2980412 2.3267085 2.2980412.7490798 0 1.3480493-.1727524 2.060337-.5124502.1927883-.0929088.2840318-.3135672.2045618-.5095467zm-4.7255295-2.2370697c-.3473138.4776093-1.4834423 1.8988236-2.899188 1.8988236-1.9116983 0-2.3134635-1.3239504-2.3134635-2.4345009 0-1.8262387 1.4186887-2.6711281 5.2126515-3.595861zm36.6622212 3.3810094c-4.052977 0-7.109634-3.1327687-7.109634-7.2875342 0-4.0676635 3.189108-7.3775395 7.109634-7.3775395 3.969092 0 7.0802 3.1864815 7.0802 7.2570484 0 4.5757585-3.674758 7.4080253-7.0802 7.4080253zm-.153054-13.8840591c-1.751286 0-3.763058.7432704-3.763058 6.5355535 0 4.4189749 1.321559 6.5660392 4.039732 6.5660392 2.60044 0 3.761587-2.0236698 3.761587-6.5660392 0-4.3971994-1.32156-6.5355535-4.038261-6.5355535zm-62.5062019-.5197086c0 3.3708475-.8417947 5.22612-5.1478985 5.22612h-2.2825588v-10.182224h2.3752739c4.4547424 0 5.0551834 2.5056343 5.0551834 4.956104zm-7.4304573 11.45972v-5.2972535h2.0676951c3.0846184 0 5.430459-.6431031 6.9742399-1.9133405 1.614421-1.3283056 1.9529048-3.0108259 1.9529048-4.1881546 0-4.8428714-4.7373028-5.8590614-8.712281-5.8590614l.0161883-.0014517h-8.0603317c-.1824869 0-.3311255.1480734-.3311255.3266325v.0217755-.0058068c0 .1654938.1015452.3135672.2604854.3701835.7181745.261306 2.6681361-.1045224 2.6681361 1.9583434v14.5852302c0 1.0611927-.4768209 1.8102699-2.6563628 2.0135079-.1736569.0159687-.3031638.1553319-.3031638.3237291v.0508095c0 .1800108.1471669.3251808.3296539.3251808h8.6122076c.182487 0 .3311256-.14517.3311256-.3251808v-.0450027c0-.1683972-.1353936-.3106638-.3090505-.3251808-2.3679156-.1872693-2.8432648-.9102159-2.8432648-2.017863v-5.2841882zm17.5128624-11.7282845c-3.7483412 0-6.7991113 3.3476202-6.7991113 7.4631898 0 4.1663791 2.8594531 7.1902703 6.7991113 7.1902703 3.3097838 0 4.9212616-1.9510849 5.8439978-3.4173019.0912435-.14517.0515085-.3367944-.0897712-.4369617l-.0441503-.0304857c-.142752-.1001674-.3414277-.0711334-.4518022.0653265-1.2170707 1.5054129-2.2825592 2.3764329-4.1221455 2.3764329-2.3267089 0-4.8123581-1.5809013-4.8123581-6.0202v-.0319374c-.0044149-.1959795 0-.464544.0073584-.7156882h9.5202272c.02649 0 .047094-.0203238.0485655-.0464543l.0058867-.0754885c.135393-1.8189801-.3870495-3.455046-1.470198-4.6033407-1.0581297-1.1236158-2.5916089-1.7173611-4.4356103-1.7173611zm-3.615891 5.5077499c.3134655-3.0369565 1.5143475-4.7020564 3.4010273-4.7020564.9433399 0 1.6438543.2584026 2.1383352.7897248.6799111.7273017.9683583 2.0439937.8550398 3.9123316zm43.0757548.1625903h-.002943c-2.603383-.7214949-3.617363-1.4502482-3.617363-2.6014464 0-1.3108851 1.055187-2.2632003 2.509196-2.2632003 1.710079 0 2.442971.8071452 4.248708 3.784582l.023547.0391959c.00883.0159687.025019.0246788.025019.0246788h.2649c.182487 0 .331125-.1466216.331125-.3266324v-4.2796117c0-.0261306-.022074-.0479061-.022074-.0479061h-.354673c-.098602 0-.192788.043551-.254599.1190394l-.576894.6910092c-.727004-.3948624-1.911698-.8100486-3.100807-.8100486-2.990431 0-5.078729 1.8218835-5.078729 4.4320401 0 2.4504697 1.646797 3.3679441 4.490062 4.1257315 2.762323.7461738 3.742454 1.5228333 3.742454 2.9643715 0 1.6041285-1.574685 2.3241717-2.693154 2.3241717-2.08094 0-2.959527-.7621425-4.953638-4.2955804l-.023547-.0420993c-.00883-.0159687-.025018-.0261306-.025018-.0261306h-.267844c-.182487 0-.331126.1480734-.331126.3266325v4.7949653c0 .0275823.022076.0493578.050037.0493578h.338484c.086828 0 .172185-.0348408.233996-.0958122l.910962-.8986024c1.066961.653265 2.66225.9944146 3.698305.9944146 1.555554 0 2.834435-.4863196 3.698305-1.4052457.771154-.8202105 1.194995-1.9815705 1.194995-3.2706802 0-2.2327146-1.20824-3.3998814-4.457686-4.307194zm-15.7542178 7.0480037c0 .7389153-.1898452.9813492-1.3833689 1.0553859-.1736573.0116136-.3090503.1538802-.3090503.3251808 0 .1800108.148638.3251808.331125.3251808h5.8910918c.1795432 0 .325239-.1437183.325239-.319374 0-.174204-.1368653-.3179223-.3134655-.3251808-1.3627658-.0653265-1.7159663-.2830815-1.7159663-1.0611927v-8.5214791c.9698295-1.5910633 1.6659292-2.4243391 2.843264-2.6754832-.0573943.2017863-.0941863.4413168-.0941863.6372963 0 1.0350621.7328983 1.7580087 1.7821913 1.7580087 1.030169 0 1.751286-.7229466 1.751286-1.7580087 0-.9784458-.619573-2.1223854-2.367915-2.1223854-1.4319345 0-2.8005862.8100486-3.9764505 2.7480681v-2.192067c0-.2235618-.1869015-.4035726-.4135388-.3977658l-3.7115497.0987156c-.1810147.0058068-.3208238.1480734-.3208238.3251808v.0464544c0 .1611387.1177336.2990502.275202.3208257 1.237674.1727523 1.4083876.7534323 1.406916 1.3558878zm40.7461028-12.5325263c.085357 0 .16777.0333891.228109.0929088.066225.0609714.101545.1422666.103017.232272l.011772 2.4301458s1.209713-2.8511388 5.133183-2.8511388h.03532c2.445914 0 3.848414 1.538802 3.848414 4.2215437v8.3937295c0 .7389153.191317.9813492 1.38337 1.0553859.173656.0101619.30905.1524285.30905.3251808 0 .1785591-.148639.3251808-.329654.3251808h-5.293593c-.182488 0-.331126-.1466217-.331126-.3266325 0-.174204.133921-.3164706.301692-.3309876.962472-.0812952 1.115525-.3208257 1.115525-1.0481274v-7.5749708c0-2.5027308-.721118-3.4753698-2.571006-3.4753698-1.250919 0-2.273729 1.0757097-2.912433 1.9786671 0 0-.326711.4035726-.679911 1.1642635l.038264 7.9059583c0 .7273017.15011.9668322 1.08462 1.0481274.167769.014517.30022.1582353.30022.3251808 0 .1872693-.148639.333891-.329654.333891h-5.261217c-.181016 0-.329654-.1466217-.329654-.3266325 0-.1713006.136866-.3135672.30905-.3251808 1.192053-.0740367 1.381898-.3150189 1.381898-1.0539342v-10.3622348c0-.6039072-.170714-1.1874906-1.414274-1.3616946-.157469-.0217755-.276674-.1611387-.276674-.3222774v-.0479061c0-.1785591.14128-.3208257.322295-.3266325z"/><path d="m31.7071742 2.83937315c9.3289104 5.2435405 11.501094 16.99940735 5.0095616 28.89463735-5.7041894 10.4551436-18.1603968 14.9205729-27.4422139 9.5986406-9.28328873-5.3248357-11.0949134-20.1771787-7.10521844-28.7233368 5.79248962-12.4120352 19.23030034-15.56512766 29.53787074-9.76994115zm-13.2670971 30.51473465c-.6063276 0-1.2023536.3295359-1.5908742.8826336-.3237672.4587372-.4576892 1.0089315-.3723324 1.5402537.0559235.3411495.1839587.6358446.3752757.8550513.213392.246789.5401026.4369617.9462832.551646.2339954.0638748.4738775.0987156.7137596.0987156h.0014716c.5239142 0 .9948483-.1567836 1.361294-.4471236.4253123-.3440529.6563643-.8303724.6519493-1.3747599-.0058867-.6314895-.3149371-1.248462-.8300213-1.6433244-.2840321-.217755-.6019127-.3672801-.9242082-.4297032-.1089035-.0217755-.2222221-.0333891-.3325973-.0333891zm13.0242717-21.521453c-3.5084592-3.90942815-8.379684-4.15476545-11.4643024-4.07927705-3.4098573.0856503-5.8587147 1.1962008-7.8616564 2.22690787-1.7483429.89860228-3.32450047 2.44466278-3.96467655 3.21261218-.40765237.4892229-1.10080852 1.4996061-.72847623 2.4054669.30610721.7519806 1.45548078.7026228 1.88815143.3817971.43119908-.3208257.88888815-.8085969 1.48197085-1.2934647 2.632816-2.1485161 4.9668832-3.5015005 10.4047006-3.5015005s8.3840989 3.3447169 8.3840989 6.3308639c0 2.9861469-1.4304624 5.0141718-4.1339185 6.3381222-1.3377472.6547168-2.7682096 1.1613601-4.5695326 1.22959.1309786-2.8946899.1986754-5.6340478.1986754-5.6340478.0382633-2.0831895.3958789-3.7787752-1.0183951-4.0589533-1.4113307-.2801781-4.01177-.0043551-4.0603351 1.5852565-.0632818-.2366272.2678438 13.0261043.3281822 13.2874103l.0235467.304857c.0279618.3367944.1486386.6329412.3620307.8695683.213392.2337237.5592342.3788937.8697564.4137345.0485651.0043551.0971301.0087102.1456953.0087102.2958054 0 .7122878-.0522612 1.1317135-.1683972.5298008-.1495251 1.0625451-.4035726 1.3701239-.7998867.155997-.2003346.2840322-.3948624.3502572-.7534323.0456218-.2438856.1353936-1.7841393.1589403-2.231263 2.8594531-.0261306 5.7659996-.5545494 7.9779183-1.8843066 2.7888129-1.6738102 4.4665158-4.1997682 4.830018-6.9289642.3164088-2.3938534-.2516554-5.3117704-2.0779968-7.235273z"/></g><path d="m0 .00015v30.000015h30.00021v-7.5008025h-7.500315v-7.5002625h7.500315v-14.99895zm30.00021 22.500075h7.49979v-7.500285h-7.49979zm155.075925-2.36496v2.36757h-1.4472c-2.75655 0-3.67488-2.277675-3.67488-4.438665v-17.018835h2.517773v16.5741c0 1.006125 0 2.51583 1.839847 2.51583zm-12.00336-3.084825c0 2.085075-1.16643 3.57078-3.646305 3.57078-1.704945 0-2.59995-.53355-3.05124-1.337895v-2.232885c1.228898-1.1609475 5.025975-.83295 6.697545-2.082375zm3.97857 3.363075c-.83901 0-1.49493-.655995-1.49493-1.487325v-6.458025c0-3.273-2.422252-5.14821-6.06855-5.14821-2.483647 0-4.636095 1.427985-5.802525 3.4510125l2.271465 1.3092975s1.047412-2.291685 3.738922-2.291685c2.210625 0 3.377048 1.2510375 3.377048 2.1444 0 1.011525-1.07595 1.3379025-4.244595 1.845-1.55415.2967225-3.914475.71373-4.812728 1.9038v4.939425c1.436221 1.5186225 2.869215 2.4708 5.411025 2.4708 1.704945 0 3.228405-.80436 4.21551-1.9636875.507285.92304 1.34415 1.518075 2.660813 1.518075h.835245v-2.2328775zm-22.090958.1377375c-2.138452-.2524725-3.765855-2.506395-3.765855-5.316525 0-3.0091725 1.82343-5.3639775 4.15359-5.3639775 2.65974 0 3.794925 2.95092 3.794925 2.95092l2.2704-1.2823275s-1.76364-4.202505-6.065325-4.202505c-3.793312 0-6.8424 3.487695-6.8424 7.89789 0 4.226235 2.84445 7.6179 6.454673 7.8542025v-2.537685zm-13.026037 1.9487475h2.815905v-14.8719h-2.815905zm-.563295-19.4709c0-1.09515.884782-1.9831125 2.009213-1.9831125 1.092105 0 1.98066.88797 1.98066 1.983105 0 1.12533-.888555 2.0138475-1.980675 2.0138475-1.124415 0-2.009198-.888525-2.009198-2.013855zm-5.94033-1.983705v8.35158c-1.016175-1.2807-2.45295-2.05377-4.274745-2.05377-3.721695 0-6.29205 3.2007-6.50745 7.335765h2.688277c.18795-2.73189 1.73727-4.8061725 4.117515-4.8061725 2.508953 0 3.97641 2.054325 3.97641 5.35644 0 3.5724-1.255275 5.359665-3.97641 5.359665-.061387 0-.31611-.0215775-.31611-.0215775v2.535525s.241253-.003225.292425-.0054c1.694701-.08253 3.065235-.91116 4.000095-2.1535725l.299415 1.5561225h2.213303v-21.454605zm-16.777673 16.005045c0 2.085075-1.166962 3.57078-3.646297 3.57078-1.705485 0-2.600505-.53355-3.05124-1.337895v-2.232885c1.226745-1.1609475 5.02545-.83295 6.697537-2.082375zm3.97803 3.363075c-.838462 0-1.494375-.655995-1.494375-1.487325v-6.458025c0-3.273-2.422252-5.14821-6.06855-5.14821-2.484187 0-4.636102 1.427985-5.803072 3.4510125l2.272012 1.3092975s1.046873-2.291685 3.738923-2.291685c2.210077 0 3.37704 1.2510375 3.37704 2.1444 0 1.011525-1.07595 1.3379025-4.2462 1.845-1.5531.2967225-3.912877.71373-4.811662 1.9038v4.939425c1.434615 1.5186225 2.869762 2.4708 5.411565 2.4708 1.704405 0 3.227872-.80436 4.214977-1.9636875.5073.92304 1.415227 1.5466725 2.731905 1.5466725h.736155v-2.261475h-.058703zm-16.558012-12.785415v2.43627h-.687675c-2.925225 0-4.65549 1.83852-4.65549 4.7867475v7.6488825h-2.448105v-14.8719h2.14869l.299415 2.166525c.803475-1.202475 2.119605-2.166525 3.90855-2.166525zm-28.44147 13.9109775s.3010275.209325 2.871375.209325c1.4346 0 2.749665.2956275 3.6199125.7428525v3.125175c-.75015.595035-1.946205 1.10214-3.5601375 1.10214-3.798705 0-4.3636125-2.0251875-4.3636125-3.215805 0-1.4878725 1.4324625-1.9636875 1.4324625-1.9636875zm9.02934-13.8089025h-4.1848425c-.67422-.2595-1.452915-.384105-2.28654-.418095v2.171385c1.73565.1440375 3.0943275 1.26021 3.0943275 3.03831 0 1.87575-1.554705 3.035085-3.46698 3.035085-1.81695 0-3.31188-1.0854225-3.41904-2.8414125h-2.36193c.05439 1.859025.833085 3.22767 2.0722125 4.03203-1.1664225.98238-1.5525375 2.7087-.210015 3.8987775 0 0-2.181525 1.04226-2.181525 3.392205 0 2.76858 2.629035 4.970175 6.2484 4.970175 2.990925 0 5.2317-.7450125 6.6081525-2.352105v-5.088315c-1.227825-1.5472125-3.16971-2.023575-6.0701625-2.023575h-.777075c-2.181 0-2.718975-1.12911-1.8535875-2.02356.5966775.1494375 1.2558225.2087775 1.944585.2087775 3.316725 0 5.82945-1.727385 5.82945-5.208075 0-.98238-.210555-1.8466125-.569205-2.56035h1.583775v-2.23125zm-17.975355-6.6843c1.0921125 0 1.980675.8879775 1.980675 1.983105 0 1.125345-.8885625 2.013855-1.980675 2.013855-1.1249625 0-2.0092125-.88851-2.0092125-2.013855 0-1.0951275.88425-1.983105 2.0092125-1.983105m-1.523565 21.454125h2.78304v-14.8719h-2.78304m-15.34032-6.582705v8.312745c1.016715-1.280175 2.45133-2.0537775 4.275285-2.0537775 3.71955 0 6.289875 3.2007 6.50583 7.335765h-2.687205c-.18795-2.73189-1.736715-4.805625-4.11912-4.805625-2.5089525 0-3.9747975 2.05431-3.9747975 5.358045 0 3.57024 1.255815 5.3575125 3.97479 5.3575125.0635475 0 .1179375-.01995.181485-.022125v2.535525c-1.76688-.037755-3.1923375-.87771-4.156275-2.158425l-.300495 1.594965h-2.2122225v-21.454605z" transform="translate(.279909 243)"/><g transform="translate(205.779909)"><path d="m11.0776304.01637288v1.87264831h-8.82459779v5.34136016h7.73902171v1.8703093h-7.73902171v7.69993225h-2.25303261v-16.78425002z"/><path d="m18.1756957 10.9356229c-.4140979.0888813-.8381739.1549576-1.2825.2122627-.4531305.0535042-.906261.1143178-1.3582175.1871187-.4554782.0736779-.8663478.1839025-1.2264456.3426609-.3624457.1561271-.6568044.3751145-.8860108.6724577-.2295.2862331-.3433696.6823983-.3433696 1.1844025 0 .3274577.066326.6095975.2001521.8318009.1344131.2292203.305511.4154618.5188696.5552161.2139457.1429703.46575.2447161.7589348.3046525.2931848.0637373.5828478.0915128.8819022.0915128.6632609 0 1.2270326-.0847882 1.6980652-.2686908.471913-.1786398.8546087-.4063983 1.1539565-.6826906.3028696-.2698602.5220978-.5654492.6653152-.892322.1373479-.3233645.2066087-.6221695.2066087-.9043094v-2.050411c-.2509239.1938432-.5796196.3335975-.9872608.416339zm2.8009565 6.119072c-.5232718 0-.9300326-.1464788-1.2361304-.4353432-.3031631-.2920805-.4554783-.7671865-.4554783-1.4209322-.5543804.6537457-1.1941631 1.1288517-1.9281522 1.4209322-.7292935.2888644-1.519337.4353432-2.3739456.4353432-.5464566 0-1.0665-.0573051-1.5571957-.1786398-.486587-.1134407-.918-.3072839-1.2842609-.5867924-.3724238-.2757076-.6623804-.6242161-.8728043-1.0563432-.2133587-.4318347-.3190109-.9531356-.3190109-1.5647797 0-.6885381.1185653-1.2539873.3507065-1.6916695.2388914-.4385593.5458696-.8005169.9373696-1.0724237.3821087-.2762924.8217392-.4759831 1.3221196-.6230466.4901086-.1397543 1.0001739-.2567034 1.5196304-.35143223.547337-.10847032 1.0703152-.19355085 1.5677609-.24793215.4965652-.0567204.9329673-.13069072 1.3092065-.23506785.3791739-.1014534.6758804-.24676267.9012718-.44469914.2201086-.20027543.3286956-.48270758.3286956-.85928386 0-.43855935-.0865761-.79086867-.2494566-1.06072883-.1652282-.26050425-.3753586-.46662713-.6391956-.60930509-.2585544-.13975424-.5441087-.23769916-.8669348-.27950848-.3284021-.04707203-.6471196-.07630932-.959087-.07630932-.8472717 0-1.5522065.16197458-2.1215543.4894322-.5646522.32073306-.8698696.93266952-.9177065 1.83814827h-2.0135543c.0293478-.7560762.1875325-1.39754233.4678043-1.91474996.2864348-.5175.6594457-.93880932 1.1342935-1.25691102.4751413-.32365677 1.0166087-.55609322 1.6276304-.69555508.6124892-.1423856 1.2590218-.21547881 1.936663-.21547881.5517392 0 1.094674.04151695 1.6387827.12104237.5441086.0786483 1.0353912.23799152 1.4753152.47890678.4361087.2479322.7932717.58737711 1.05975 1.02184322.2685326.44528389.398837 1.01628813.398837 1.7206144v6.25005508c0 .475983.0319891.8215678.0868695 1.0338306.0542935.2265889.2383044.3297965.5570217.3297965.1725652 0 .3759457-.0377161.6089674-.113733v1.5463602c-.3413152.2055381-.8223261.3043601-1.4342282.3043601z"/><path d="m25.4398696.01637288v6.41846186h.0384456c.1593587-.37774576.3791739-.6920466.6626739-.95284322.2802718-.25582627.601924-.46925847.9567391-.63444915.3562826-.16519068.72225-.28623305 1.1134566-.36488135.384163-.07952542.7595217-.12104237 1.1196195-.12104237.8058914 0 1.4753153.11197881 2.0100327.33359746.5353043.21840254.9717065.52013135 1.3024565.91658897.3313369.39061017.5617174.85782204.6949565 1.39666526.1373478.54381358.2036739 1.13996188.2036739 1.79692371v7.99522885h-2.0167826v-8.23322035c0-.7554915-.2157065-1.35222458-.6591521-1.78990679-.4428588-.43797457-1.0456631-.66076271-1.8154566-.66076271-.6160108 0-1.1445652.09882203-1.5965218.28974152-.4463804.18682628-.816163.44762289-1.118739.79583899-.2958261.34997036-.5220979.74935166-.6752936 1.20954664-.1432173.46925842-.2201086.9706779-.2201086 1.5206313v6.8681314h-2.0164892v-16.78425002z"/><path d="m37.52387 4.66833509v2.57996993h.047897c.4877848-.99555104 1.0901695-1.72575893 1.796282-2.20120213.7102263-.47250474 1.6046943-.69200788 2.6948638-.6635048v2.1412575c-.8033756 0-1.4900942.10372772-2.0560421.33087086-.569474.21685852-1.0258172.54273399-1.3722619.96293408-.3485016.42813397-.5976833.94148332-.756654 1.54827585-.1566201.6059109-.2359586 1.30408962-.2359586 2.08601442v5.4323352h-2.0196051v-12.21695091z"/><path d="m50.7495951 8.26354372c-.1848292-.4281339-.4246078-.79191557-.7310894-1.10515566-.305894-.30912623-.6690879-.55448784-1.0869372-.73637865-.4143232-.18482928-.877131-.27445239-1.3813712-.27445239-.5165817 0-.9893802.08962311-1.4066418.27445239-.4178494.18189081-.7731095.43371704-1.0745958.75312789-.2982539.31235855-.5306863.67907862-.7064063 1.10045413-.1713124.42078779-.277097.86772794-.3050124 1.3461096h7.0108773c-.0287969-.47838166-.1398708-.92826023-.3188232-1.35815731zm.4904293 7.83981748c-.9112171.6961217-2.0663266 1.0372773-3.451224 1.0372773-.9799771 0-1.8300743-.1563263-2.545296-.4748556-.7178664-.3100078-1.3211327-.7501894-1.8121497-1.3214265-.4877847-.5644786-.8512725-1.2406188-1.0975157-2.0287143-.2456554-.7907403-.3817063-1.6458328-.4178493-2.5770315 0-.92826028.1469231-1.7768882.4310724-2.5491161.2835616-.7722279.6817232-1.44160962 1.1959542-2.00667593.5071785-.56389092 1.1201418-1.00436642 1.8189081-1.32377727.7017048-.3158847 1.4730512-.47544321 2.3084561-.47544321 1.088994 0 1.9887513.22655545 2.7060299.67702173.720511.44899704 1.2961557 1.02023412 1.7289912 1.71635583.4304848.68877558.7334402 1.44425427.9026956 2.2646729.1595586.819831.2262616 1.60116815.2012847 2.33784065h-9.1518409c-.0167492.5395017.044077 1.0466803.1874739 1.5253558.1448662.4783817.3705401.9050464.6828986 1.2752926.3155909.3699525.7208048.6699694 1.205945.8833018.4945432.2277309 1.0651926.3314586 1.7319297.3314586.8448079 0 1.5468066-.1939386 2.0904221-.5888679.5444971-.3934601.9015202-.9961387 1.0745956-1.7995144h1.9834621c-.2650493 1.3710866-.8583248 2.4018992-1.7742436 3.0968455z"/><g transform="translate(54)"><path d="m2.0378662 4.64492797v1.93258474h.0425044c.83308626-1.47326695 2.15365405-2.21589406 3.97049735-2.21589406.79556515 0 1.46566903.11197881 2.00269018.33359746.53702107.21840254.96968662.52013135 1.3012209.91658898.32420602.39061017.55988557.85782203.69384777 1.39666525.1333758.54381358.2037279 1.13996188.2037279 1.79692371v7.99522885h-2.01500172v-8.23322035c0-.7554915-.22278165-1.35222458-.65779223-1.78990678-.44204579-.43797458-1.05117783-.66076272-1.81772272-.66076272-.61177025 0-1.14234243.09882204-1.59083715.28974152-.44878785.18682628-.82165405.44762289-1.12446127.79583899-.29108187.34997036-.51826056.74935167-.66717253 1.20954664-.14627377.46925842-.21897095.9706779-.21897095 1.5206313v6.8681314h-2.01588116v-12.15569493z"/><path d="m14.319.01637288v6.41846186h.0442632c.1527227-.37774576.3725731-.6920466.6554472-.95284322.2828741-.25582627.6079595-.46925847.957375-.63444915.3576232-.16519068.7299031-.28623305 1.1112702-.36488135.385471-.07952542.7606822-.12104237 1.1206505-.12104237.8046524 0 1.476515.11197881 2.0117774.33359746.530279.21840254.9658759.52013135 1.2947719.91658897.3332932.39061017.562817.85782204.6997104 1.39666526.1298583.54381358.1963997 1.13996188.1963997 1.79692371v7.99522885h-2.0100185v-8.23322035c0-.7554915-.2201435-1.35222458-.6592579-1.78990679-.4464428-.43797457-1.047074-.66076271-1.8142051-.66076271-.6138222 0-1.1452738.09882203-1.5911303.28974152-.449081.18682628-.817257.44762289-1.1197711.79583899-.2960652.34997036-.5220713.74935166-.6712765 1.20954664-.1494982.46925842-.2260061.9706779-.2260061 1.5206313v6.8681314h-2.0114842v-16.78425002z"/><path d="m32.6257922 8.2221102c-.1808635-.42598733-.4262165-.78794495-.7310757-1.09961443-.3057385-.30757628-.6686382-.55170763-1.0851813-.73268645-.4144912-.18390254-.8691418-.27307627-1.3783151-.27307627-.514743 0-.9863953.08917373-1.4035247.27307627-.4144912.18097882-.7729938.43154237-1.0690589.7493517-.2954789.31079237-.534383.67567375-.7067457 1.09493643-.1773459.41867797-.2767183.86337712-.304566 1.3393602h6.9971039c-.0322447-.47598308-.1398249-.92360595-.3186365-1.35134745zm.4942236 7.8005084c-.9172156.6926314-2.0627825 1.0320763-3.4501849 1.0320763-.9764286 0-1.8203608-.1555424-2.5361936-.4724746-.7225748-.3084534-1.3205677-.7464279-1.807463-1.3148008-.4836708-.5616483-.8527262-1.2343983-1.0983724-2.0185424-.2418354-.7867754-.381367-1.6375805-.4124392-2.5641102 0-.92360585.1427562-1.7679788.4285616-2.53633468.2799427-.76835595.674794-1.43438137 1.1912958-1.99661442.5059489-.56106356 1.1124427-.99933051 1.8133257-1.31713983.7029348-.31430085 1.470066-.47305932 2.3002209-.47305932 1.0895784 0 1.9853953.22541949 2.7041593.67362711.7099701.44674576 1.2894957 1.01511864 1.7250924 1.70775.4329587.68532204.7257993 1.43701274.8955238 2.25331776.1644481.8157204.2380247 1.59313988.2028486 2.32611868h-9.129066c-.0158292.5367966.0471946 1.0414322.1873125 1.5177076.1433424.4759831.3722799.9005085.6841743 1.2688983.3148257.3680975.7161259.6666102 1.2033143.878873.4889472.2265889 1.0596786.3297965 1.7212817.3297965.8468635 0 1.5459877-.1929661 2.0876989-.5859153.5434701-.3914872.9002139-.991144 1.0719903-1.7904915h1.9821708c-.2734938 1.3642119-.8591752 2.389856-1.7652518 3.0813178z"/><path d="m36.426272 16.8003305h2.0141224v-12.15277118h-2.0141224zm0-14.34556779h2.0141224v-2.43838983h-2.0141224z"/><path d="m45.8235554 4.65369915v1.75862288h-2.4160087v7.55374577c0 .2330211.0158292.4221865.054816.5654491.0407456.1385848.1134427.2502712.2219022.3297966.1108047.0795254.2644068.1265976.4584613.1529111.1975722.0187119.4517193.0347923.7671312.0347923h.913698v1.751606h-1.5301584c-.5206057 0-.9623583-.0353772-1.3340519-.1075932-.3728663-.0704619-.6686382-.1964746-.898162-.3873941-.2286444-.187411-.3974895-.4534704-.5021382-.7975932-.1152016-.3417839-.1688451-.7993475-.1688451-1.3639195v-7.73180087h-2.074801v-1.75862288h2.074801v-3.64004237h2.0173469v3.64004237z"/><path d="m48.6297253 4.0473178c.2544402-.80958051.6299446-1.51390678 1.1329622-2.11327119.5059489-.60375 1.1356003-1.06979237 1.8962826-1.40923729.7603891-.33622881 1.6418424-.50843644 2.6320483-.50843644.7539402 0 1.472118.12104237 2.1571717.35289407.6815361.24033051 1.2830467.57363559 1.8013073 1.01219491.5156223.4388517.9330448.98061865 1.2411285 1.62208475.3057385.64088136.4584612 1.36508898.4584612 2.16092796 0 .83472458-.133669 1.54314408-.3980757 2.13987712-.2676312.59614831-.6234956 1.12651269-1.0620237 1.59021609-.4438046.46282627-.9392007.88150424-1.4996726 1.25603392-.5575405.3780381-1.1206505.7467203-1.6866919 1.1186186-.56311.3675128-1.1092183.7610466-1.6450668 1.1861568-.5414182.4221864-1.0116048.9177585-1.4155432 1.4794068h7.8020493v2.865839h-12.1105299c0-.955767.1389454-1.7863983.4130255-2.4878009.2702693-.7116355.6489983-1.3402372 1.1171329-1.8986695.4739974-.5522923 1.0247958-1.0692076 1.6608961-1.5355423.6393249-.470428 1.3108944-.94904243 2.0211576-1.43496615.3623134-.2476398.7451461-.5084364 1.1511364-.7651398.4071629-.25962713.7803222-.54293648 1.12153-.86074575.3359313-.31079243.6161672-.66690257.8451047-1.05312715.2327483-.39353389.3415009-.84115678.3415009-1.34228389 0-.79993221-.2330414-1.42180932-.6976584-1.86621611-.4613927-.45054661-1.0532298-.66982627-1.7816673-.66982627-.4904129 0-.900507.11051695-1.237904.33622882-.3373971.22834322-.6120634.53036441-.8108082.89495339-.2110563.36517373-.3532262.77449576-.4408732 1.22562711-.0853019.44352966-.1260475.88764408-.1260475 1.3262034h-3.2080564c-.0345897-.93939407.0800256-1.81592797.3277236-2.622"/><path d="m65.6728177 16.8006229v-10.68388985h-4.1496021v-2.51323729c.5827501.01549576 1.1423425-.02806779 1.6831744-.12688983.5440563-.10145339 1.0344692-.28272458 1.4647896-.54001271.4323723-.25758051.7982033-.59702542 1.0969067-1.01891949.2998758-.41897034.4936373-.94261017.5856813-1.57091949h2.6578442v16.45386866z"/><path d="m71.7521198 4.0473178c.2515087-.80958051.6232024-1.51390678 1.1317895-2.11327119.5006726-.60375 1.1341348-1.06979237 1.9009728-1.40923729.7565782-.33622881 1.6353937-.50843644 2.6276512-.50843644.751302 0 1.4738767.12104237 2.1583447.35289407.6806565.24033051 1.2783563.57363559 1.8007208 1.01219491.5182605.4388517.9298199.98061865 1.2352657 1.62208475.3110153.64088136.4666688 1.36508898.4666688 2.16092796 0 .83472458-.138945 1.54314408-.4033523 2.13987712-.2673375.59614831-.6237885 1.12651269-1.0661273 1.59021609-.4355969.46282627-.9389077.88150424-1.4926372 1.25603392-.560472.3780381-1.119771.7467203-1.6825883 1.1186186-.570438.3675128-1.1209432.7610466-1.6556197 1.1861568-.5311583.4221864-1.006035.9177585-1.4170087 1.4794068h7.8105502v2.865839h-12.1125819c0-.955767.1342553-1.7863983.4109736-2.4878009.273787-.7116355.6457738-1.3402372 1.1180123-1.8986695.4742906-.5522923 1.0239165-1.0692076 1.6667589-1.5355423.6334621-.470428 1.3047384-.94904243 2.0150019-1.43496615.3585022-.2476398.741042-.5084364 1.1511359-.7651398.4074563-.25962713.7806158-.54293648 1.1235825-.86074575.3365175-.31079243.6132353-.66690257.8462768-1.05312715.2262998-.39353389.34326-.84115678.34326-1.34228389 0-.79993221-.234507-1.42180932-.699417-1.86621611-.4613933-.45054661-1.0593863-.66982627-1.7790293-.66982627-.4901197 0-.9043177.11051695-1.2414217.33622882-.3435532.22834322-.6076665.53036441-.8169637.89495339-.2069527.36517373-.3476569.77449576-.4367697 1.22562711-.0891127.44352966-.1278063.88764408-.1278063 1.3262034h-3.2045387c-.0381074-.93939407.0741629-1.81592797.3288962-2.622"/></g></g><g transform="translate(45.279909 51)"><path d="m.75 21.3496875 5.7871875-20.5996875 11.4853125.0084375 5.88 20.6090625-11.67-.0075.0028125-4.2553125 2.5275.001875-2.4346875-11.0990625-3.3609375 15.350625z"/><path d="m24.901875 6.9553125c.039375.35625.054375.5559375.080625.9121875.0309375.4303125.0440625.6721875.06 1.100625l-.0084375 12.3975 7.0584375.0075.0028125-5.8846875c0-.8240625.136875-2.3821875.7846875-2.9409375 1.1540595-.9909375 3.076872-.826875 4.3359345-.8203125l-.0665625 5.1159375c-.001875 1.3678125-.0825 2.48625.9084375 3.4828125.75375.759375 2.1121875 1.0528125 2.540625 1.0546875l15.781875.009375.005625-8.645625c.001875-.8775.1528125-1.9790625 1.0809375-1.9771875.81 0 1.1175.61875 1.1146875 1.39125l-.0028125 4.258125c-.0009375.924375-.031875 2.821875 1.0940625 3.9534375 1.0846875 1.085625 2.28 1.4390625 3.8915625 1.415625 1.7803125-.024375 2.960625-.5475 4.175625-1.8496875l.313125 1.460625 6.7125.00375c-.045-.3346875-.06375-.525-.091875-.8625-.0328125-.37875-.046875-.5925-.061875-.9721875l.0084375-12.5775-6.9065625-.0046875-.0046875 9.110625c-.0009375.703125-.1359375 1.5675-1.051875 1.5675-.8540625 0-1.175625-.849375-1.1746875-1.5675l.0028125-4.9734375c0-1.0528125-.2278125-2.285625-1.1578125-3.2653125-1.066875-1.1221875-2.5846875-1.2721875-3.7584375-1.2703125-1.5928125-.00375-2.7525.463125-4.243125 2.0503125l.0028125-7.8515625-6.8390625-.0028125-.009375 16.57125-3.924375-.00375c-.4171875.024375-.703125-.08625-1.003125-.376875-.294375-.2840625-.410625-.55875-.406875-.9740625l.0028125-4.2665625 3.39.0028125.00375-4.7634375-3.358125-.0046875.001875-4.1428125-6.90375-.0065625-.0028125 4.1465625-1.2421875.0009375c-1.1146875.061875-2.5284375-.125625-3.620622.931875-.2053125.19875-.3121875.3271875-.4734375.5653125-.0384375-.31125-.0590625-.48375-.1040625-.793125-.0375-.2765625-.0646875-.433125-.106875-.7078125z"/><path d="m76.453122 6.9909375.1359375 2.011875-.0075 12.3975 6.8465625.005625.0046875-5.445c.114375-1.2121875.1565625-2.6296875.661875-3.1378125.3665625-.3684375.9253125-.549375 1.6228125-.549375l2.533125.0009375.001875-5.15625c-.5953125-.2803125-.9834375-.369375-1.6415625-.3712729-1.44375-.0046646-2.2603125.7106479-3.2578125 1.7578354-.0225-.31125-.04125-.4875-.080625-.79875-.0375-.2775-.0609375-.4340625-.110625-.710625z"/><path d="m93.575622.81 10.291875.0075c3.044062 0 6.336562.3225 8.719687 2.8659375 2.079376 2.2153125 2.601563 4.329375 2.599693 7.3434375-.000942 1.5084375-.15938 2.85375-.53438 3.8278125-.182813.4725-.28875.6759375-.523125 1.08l-5.061563-.00375-.004687 4.8178125c-.707812.256875-1.125937.3703125-1.8675.5015625-.894375.159375-1.149375.170625-2.323125.170625l-11.31375-.009375zm8.093438 4.7165625-.01125 11.263125h1.100625c.84-.1575 1.384687-.3234375 1.978124-.9421875 1.1025-1.1634375 1.1775-2.89125 1.161563-4.82625-.015-1.899375.049688-3.4040625-1.184063-4.72125-.575624-.6140625-1.509374-.7753125-2.445937-.7753125z"/><path d="m121.468122.819375 8.75625.0028125-.01125 15.121875 7.609688.0075-.004688 5.4909375-16.364063-.0103125z"/><path d="m139.190622 5.270625 6.940312.0028125.001875-4.4409375-6.940312-.00375z"/><g mask="url(#c)" transform="matrix(1 0 0 -1 .687187 22.17189)"><g transform="translate(137.8125)"><path d="m.6825.7275 6.935625-.005625.0075 9.6496875 3.136875-.0028125c-.01125-2.3540625-.013125-3.39375-.099375-5.521875-.0534375-1.32.0590625-2.338125 1.033125-3.2315625.68625-.624375 1.2721875-.868125 2.1946875-.8971875l7.1540625-.00375.00375 4.0321875h-1.5675c-.5671875 0-1.0490625.00375-1.396875.3534375-.3.31125-.39375 1.074375-.391875 1.7175l.005625 3.5475 5.8021875-.00375c-.065625-2.3025-.0871875-3.47625-.1584375-5.6475-.0478125-1.2890625.37125-2.43 1.0303125-3.13875.388125-.4190625 1.40625-.864375 2.810625-.86625l15.4490625-.005625.0159375 20.6109375-6.935625.001875-.009375-16.580625-3.830625.00375c-.4059375.001875-.695625.069375-1.0359375.31875-.316875.2325-.406875 1.2778125-.405 1.56375l.00375 3.735 3.354375-.0028125.005625 4.7634375-3.35625.0028125.001875 4.1146875-6.9346875.005625-.00375-4.11375-5.8040625.001875.005625 4.0828125-6.9046875.005625v-4.081875l-10.10625.001875z"/><path d="m53.5396875 4.9565625 5.7-.0028125c-.8775-3.1659375-3.8915625-4.715625-7.5075-4.715625-5.8396875.00375-8.1590625 3.4790625-8.155317 7.9134375.0018795 4.329375 2.4881295 7.55625 8.132817 7.55625 5.5246875-.00375 7.9321875-3.5165625 7.9303136-7.8665625-.0018761-.48375-.0037511-.7565625-.0618761-1.2365625l-8.986875.0075v-.71625c-.001875-1.09125.4453125-1.9425 1.395-1.9940625.73125-.04125 1.321875.3609375 1.5534375 1.0546875zm-2.9465625 4.8684375 2.949375-.0028125c.001875 1.02-.065625 2.3090625-1.4953125 2.3090625-1.3603125 0-1.4503125-1.2178125-1.4540625-2.30625"/></g></g></g><path d="m83.3428487 44.2189685c-4.1513991-.3102299-8.0824728-1.9476441-11.2081185-4.6685145-.1906554-.1659445-.3763586-.3346133-.4126708-.3747972-.0363253-.0401835-.1050384-.1006629-.1527186-.1344105l-.0866884-.0613308-.3840679.4219616c-1.159412 1.2738188-2.7482942 2.4313116-4.4606212 3.2494888-2.7739353 1.3254118-5.8355196 1.8176934-9.0457283 1.4544764-4.3668419-.494089-7.6564-2.5818976-9.2921522-5.8974853-.7212787-1.461967-1.1395464-3.1659886-1.2550206-5.1128824-.0206018-.3475881-.0331458-3.9877764-.0333635-9.676816l-.0003267-9.1196266h-3.2519958-3.2519924l.0084018-3.3840009.0084019-3.38403513 3.2434424-.00817248 3.2434416-.00817248.0084062-3.62967559.0084062-3.62966569h4.4403287 4.440333l.0084062 3.62972017.0084063 3.62972359 4.9271352.00817248 4.9271352.00817248.0084062 3.38403505.0084062 3.3840014h-4.9356851-4.9356896v8.7265425c0 9.5055247-.0075351 9.0985469.1846274 9.9492125.3904487 1.7283024 1.4217684 3.1124562 2.8478619 3.8221729 1.2265485.6104154 2.702256.7036889 4.4060854.2784926 1.2917118-.3223542 2.6470843-1.0226038 3.7365331-1.9304801.3667807-.3056335.808834-.7222483.808834-.7622956 0-.0183902-.1169726-.2638496-.2599304-.5455774-1.1184307-2.2039326-1.7749206-4.4904798-2.0055469-6.9852661-.0674064-.7291274-.0771411-2.3869382-.0179013-3.0480597.2478568-2.7662299.9348008-5.1091702 2.195684-7.4887527 2.0761591-3.9182043 5.6314317-7.10336496 9.7566888-8.74101519.470569-.18678569 1.2311566-.45799049 1.2452555-.44399436.0052702.00510672-.0575499.11969915-.1395779.25441619-1.2366707 2.03066649-2.2979 6.21295816-2.4899013 9.81272466l-.0365866.6858111-.2236922.3138405c-1.1429045 1.6034266-1.872437 3.5002612-2.1375418 5.5577961-.0837702.6501224-.0838704 2.2982274-.000331 2.9497461.2824747 2.1992669 1.0723185 4.1599185 2.360193 5.8587638 1.6338967 2.1553041 3.9735055 3.6472719 6.5101156 4.151542.8329115.1655697 1.0341465.1828352 2.112872.1812003.8713361 0 1.0691476-.0112383 1.4691089-.0738286 1.4533679-.2272754 2.6430815-.6542087 3.9121096-1.4038707.2269676-.1341043.4488305-.2712052.4930263-.3046799l.0803511-.0608885-.1793963-.0749866c-.3805181-.1590317-1.6858018-.8269982-2.1106898-1.0800869-2.5604263-1.5252047-4.651538-3.5163346-6.2808265-5.9804728-3.6755685-5.5589878-4.1341685-12.7061797-1.1988864-18.68464309.186644-.38014351.46198-.90372182.61185-1.16351845.2967566-.51438405 1.0460153-1.65243031 1.1446511-1.73862056.1536506-.13427426 2.4610065-.18528697 3.6433549-.0805374 2.9137091.25806008 5.5651097 1.09190331 8.0453504 2.53020257 4.3481348 2.52148483 7.5492712 6.65668013 8.8540582 11.43757133.498606 1.8269219.68849 3.3828771.654364 5.3618157-.028659 1.660058-.185245 2.827561-.588382 4.3861726-1.39702 5.4011824-5.1845698 9.9646394-10.3112458 12.4236013-2.1592106 1.0356477-4.4535304 1.6425213-6.9313014 1.8334633-.4952912.0381814-2.2150401.0359329-2.7435902-.0038917zm12.0243961-15.7305401c.0422923-.1520163.1277874-.5271539.1900282-.8336045.4649852-2.2894076.2569207-4.7424443-.5837785-6.8827301-1.2528603-3.1895534-3.7328353-5.60731-6.8551229-6.6831058-.1878678-.0647364-.3602778-.1176902-.383127-.1176902-.0845238 0-.3737496 1.3241505-.4867935 2.2286896-.0573147.4586032-.0575107 2.1938181-.000331 2.6547715.3014082 2.4284495 1.1424428 4.4632364 2.5919561 6.2708159.3126717.3899167 1.080986 1.1780594 1.4590171 1.4967017 1.0801889.9104302 2.1889459 1.5442747 3.5324539 2.0194624.2178906.0770981.4102578.1363178.4274796.1316185.0172044-.0047695.0659082-.1329127.1081831-.284929zm22.1063132 15.73214c-4.484925-.1568165-8.619132-1.0440883-12.473784-2.6770443-.566243-.239909-2.349347-1.1041962-2.464648-1.1946772-.049191-.0385836-.02169-.0920818.274918-.5345096 1.048829-1.5645368 2.333855-3.7329169 3.170839-5.35051.216859-.4191011.400271-.762024.407588-.762024s.202956.0752253.434762.1671705c2.967657 1.1769706 6.235294 2.046502 9.153563 2.4357715 1.268135.1691457 1.712244.19707 3.152798.1981597 1.116101 0 1.43754-.0095346 1.832257-.0586066 1.497625-.1865812 2.671415-.5120002 3.711128-1.0288697 1.357964-.6750499 2.194725-1.5393034 2.484086-2.5657551.089289-.316735.08276-1.3036842-.011498-1.7375309-.244739-1.1265018-.938625-1.9468938-2.370647-2.8028715-.448351-.2680041-1.294891-.6885352-1.91479-.9511926-.994785-.421553-1.819413-.707946-4.621903-1.6052656-6.555696-2.0990464-9.856291-4.0315355-11.755894-6.8830362-1.09782-1.6479692-1.663728-3.7562781-1.664059-6.1995074-.000344-2.6924349.805402-5.05829367 2.397786-7.04019467.367787-.45778639 1.305846-1.39270114 1.778645-1.7727184 1.891248-1.52011004 4.307706-2.62251214 7.13065-3.2530468 3.76129-.8401226 7.886186-.8055886 13.354006.11179545 1.896553.31820278 4.678307.90154557 4.711753.98806622.015288.03951285-.449449 11.8138014-.467024 11.8325652-.005357.0057899-6.724987-.1140804-6.81648-.1215381-.007274 0-.002613-1.3266369.010976-2.9467837l.02413-2.94565986-.374116-.06974238c-1.956229-.36468283-4.730086-.42666092-6.72923-.15041599-2.84301.39287961-4.88665 1.47061643-5.653593 2.98151843-.499093.9832033-.514512 2.0498389-.042945 2.9715748.901228 1.761641 3.716911 3.3370749 8.98141 5.0252276 4.00919 1.2856356 6.668945 2.4231029 8.592738 3.6747531 2.291715 1.4910485 3.634848 3.172901 4.314614 5.4026807.535371 1.7561581.618493 4.134957.214868 6.1489028-.974427 4.8620418-4.826526 8.4170948-10.778252 9.9471036-2.451254.6301327-4.973465.8718478-7.994652.766211zm-117.473558-3.4557536v-2.7039451h1.84481059 1.84481059l.15064351-.4178753c.66553731-1.8461622 11.37900671-31.91361843 11.37900671-31.93531095 0-.01532448-1.0362136-.03166944-2.302699-.03643888l-2.3026989-.00851408v-2.68754446-2.68754857l9.246658-.00824123 9.2466615-.00824123 6.7497592 18.8866472 6.7497591 18.886617 1.7403328.0085141 1.7403332.0085141-.0084497 2.6954661-.0084498 2.6954678h-8.3029218-8.3029223l-.0084367-2.6957403-.0084367-2.6957722h1.7003898c.9646803 0 1.7003929-.0126003 1.7003929-.0289453 0-.0228137-1.7187685-4.8577506-2.0198837-5.6820588l-.0688677-.1885222-8.3885084.0081725-8.3885088.0081724-1.0447513 2.9333324-1.0447479 2.9333665 1.8115621.0085141 1.8115617.0085141v2.7036386 2.7036731h-7.75819522-7.75820378v-2.7039455zm28.3586856-15.3061934c0-.0091929-1.3164696-3.7000549-2.9254861-8.2019424s-2.9561213-8.27372838-2.9935581-8.38188358l-.0680685-.19666098-.0402584.09831363c-.022161.05407759-1.3627773 3.80763113-2.9791891 8.34122313-1.6164088 4.5336257-2.9491685 8.268722-2.9616851 8.300256-.0216122.0545204.2760817.0573808 5.9727438.0573808 3.2975274 0 5.9955015-.0074936 5.9955015-.0166866z" transform="translate(151.779909 321)"/></g><g transform="translate(274.029909 194.25)"><path d="m12.9 8.7c0-1.575-.975-3-4.05-3s-4.275 1.875-4.275 1.875l1.8 1.65c2.175-1.575 3.225-.825 3.225-.375 0 .3-.75.675-1.575 1.425-.9.9-.825 1.35-.825 1.35v1.425h2.55v-.45c0-1.05 3.15-1.2 3.15-3.9z"/><path d="m22.575 10.875 1.725 5.925h3.45l3.45-11.1h-3.675l-1.65 5.85-1.8-5.85h-3.075l-1.725 5.85-1.725-5.85h-3.6l3.375 11.1h3.45z"/><path d="m6.9 14.25h3.075v2.55h-3.075z"/><path d="m50.7 15.45.45 1.275h3.75l-3.75-11.1h-3.9l-3.675 11.1h3.75l.375-1.275zm-1.5-5.4.825 2.85h-1.725z"/><path d="m54.675 9h3.15v7.8h3.525v-7.8h3.225v-3.3h-9.9z"/><path d="m69.45 21.15h27v-19.8h-27zm22.425-4.35h-3.075v-2.55h3.075zm-3.15-11.1h3.375v3l-.825 4.425h-1.725l-.825-4.425zm-9.9 0h8.25v3.15h-4.8v1.275h4.125v2.775h-4.125v3.9h-3.45zm-1.65 0v11.1h-3.525v-11.1z"/><path d="m32.4 5.7v11.1h3.525v-4.05h2.85v4.05h3.525v-11.1h-3.525v4.05h-2.85v-4.05z"/><g fill="#fff" fill-rule="nonzero"><path d="m49.2 10.05-.825 2.925h1.65z"/><path d="m82.35 12.9h4.05v-2.775h-4.05v-1.275h4.8v-3.15h-8.325v11.1h3.525z"/><path d="m73.65 5.7h3.525v11.1h-3.525z"/><path d="m88.875 14.25h3.075v2.55h-3.075z"/><path d="m91.35 13.2.75-4.5v-3h-3.375v3l.9 4.5z"/><path d="m.075.3v21.825h97.35v-21.825zm9.675 12.375v.45h-2.625v-1.425s-.075-.45.825-1.35 1.575-1.125 1.575-1.425c0-.525-1.125-1.2-3.225.375l-1.8-1.65s1.125-1.875 4.275-1.875 4.05 1.425 4.05 3c.075 2.625-3.075 2.775-3.075 3.9zm.225 1.575v2.55h-3.075v-2.55zm3.975-8.55h3.6l1.725 5.85 1.725-5.85h3.15l1.725 5.85 1.725-5.85h3.6l-3.45 11.1h-3.45l-1.8-5.925-1.725 5.925h-3.45zm24.825 4.05v-4.05h3.525v11.1h-3.525v-4.05h-2.85v4.05h-3.525v-11.1h3.525v4.05zm4.8 7.05 3.675-11.1h3.9l3.75 11.1h-3.75l-.45-1.275h-3l-.375 1.275zm21-7.8h-3.225v7.8h-3.525v-7.8h-3.15v-3.3h9.9zm31.8 12.15h-27.3v-19.8h27.3z"/><g transform="translate(36.75 26.25)"><path d="m.705 2.1375h.42v.96c.06175085-.13807907.14253545-.26682953.24-.3825.10424533-.12603947.22538844-.23708732.36-.33.13943749-.09448886.29074642-.17014333.45-.225.16606045-.05946229.34111455-.08990648.5175-.09.25729421-.006439.51299675.04214449.75.1425.22405954.09475942.42586555.23525727.5925.4125.17268214.18896679.30534382.41091999.39.6525.09855809.27929551.14680511.57385621.1425.87v.06c.00589222.29809332-.03977995.59496242-.135.8775-.08316309.24287366-.21311129.46709801-.3825.66-.16202567.1809999-.36169558.32435265-.585.42-.23739502.09905617-.49281787.14758651-.75.1425-.19122392.00180417-.38138528-.02862165-.5625-.09-.15987039-.05337855-.31137493-.12913082-.45-.225-.12757027-.08759285-.24132771-.19376646-.3375-.315-.08862024-.11221404-.16177369-.23581813-.2175-.3675v2.37h-.42zm1.95 3.8175c.39974279.01488675.78509538-.15026436 1.05-.45.28577275-.3611352.42741077-.81544582.3975-1.275v-.06c.00429918-.25510325-.03632005-.50897341-.12-.75-.06841128-.198989-.17546072-.38250233-.315-.54-.12910696-.14256363-.28780913-.25519097-.465-.33-.17781038-.07564771-.36927207-.11394004-.5625-.1125-.19803907-.00099069-.39431404.03724469-.5775.1125-.18606883.07454065-.35462831.18691363-.495.33-.14843222.15487979-.26332554.33870911-.3375.54-.08880786.23988583-.13204867.49424356-.1275.75v.06c-.00642849.25525002.03425125.50949834.12.75.07175713.20074841.18409062.38456685.33.54.13747107.14307535.30359117.25552588.4875.33.1982873.07665268.4100402.11237004.6225.105z"/><path d="m6.6525 6.315c-.19010961.00182878-.37951093-.02342473-.5625-.075-.16011241-.04337469-.31035633-.1172234-.4425-.2175-.12304116-.09792696-.22077904-.22395738-.285-.3675-.07214046-.16018996-.10799508-.33434096-.105-.51-.00715712-.2087193.04764637-.41488482.1575-.5925.10831118-.16120879.25528572-.29271232.4275-.3825.19255299-.10066279.40030927-.16907035.615-.2025.24784764-.04122037.49875132-.06129266.75-.06h.855v-.3675c.02701369-.30125541-.06145718-.60152017-.2475-.84-.21714706-.1939336-.50506769-.28900173-.795-.2625-.26514529-.00475897-.52587827.06824627-.75.21-.21503715.15834096-.35163198.40147975-.375.6675h-.4125c.01487022-.19905788.07654433-.39178946.18-.5625.09300047-.15045503.21545225-.28056006.36-.3825.14764526-.10370937.31279033-.17993017.4875-.225.18381743-.046594.37287754-.06928121.5625-.0675.19758602-.00315395.39459984.02210423.585.075.16787754.04863944.32200555.13597865.45.255.13022405.12599279.23022496.27984035.2925.45.07546075.21422301.11104787.44045541.105.6675v2.7225h-.42v-.6225c-.13667857.20409025-.31898945.37356234-.5325.495-.27611973.14718223-.58772325.21469633-.9.195zm0-.3375c.18029139.00238506.35988126-.02290928.5325-.075.15639206-.0470377.30353461-.12060897.435-.2175.11945485-.08838897.21909034-.20079825.2925-.33.0704516-.12867391.10661075-.2733105.105-.42v-.6975h-.8175c-.20061884-.00111594-.40108134.01141297-.6.0375-.16913913.02081346-.33377936.06893906-.4875.1425-.29239244.130004-.47009878.43120119-.4425.75-.01749615.23231379.07395936.45956687.2475.615.22032014.16259947.49209115.2398677.765.2175z"/><path d="m9.75 2.1375h.42v.8625c.1141373-.25171202.2863509-.47276225.5025-.645.2588863-.18813532.5725777-.28566964.8925-.2775v.3975c-.1883548.00911398-.3748168.04187081-.555.0975-.1656508.04866905-.3173332.13607928-.4425.255-.1305643.12864397-.23053.28500067-.2925.4575-.0760515.22185295-.1116167.4555671-.105.69v2.25h-.42z"/><path d="m13.7325 6.3075c-.2780383.01802872-.5506565-.08284003-.75-.2775-.1748396-.22046985-.2580969-.49978465-.2325-.78v-2.7525h-.6075v-.36h.6075v-.9375h.42v.9375h1.08v.36h-1.11v2.7525c-.0194598.19712854.0398565.39395054.165.5475.1193012.11786167.2824844.18041523.45.1725.0947847.00904546.1902153.00904546.285 0l.24-.06v.36c-.072791.02929607-.1481032.05188973-.225.06750241-.108205.00017892-.216185-.00986574-.3225-.03000241z"/><path d="m18.915 6.315c-.2578714-.00315608-.5126426-.05665805-.75-.1575-.2377871-.09993707-.452294-.24804892-.63-.435-.1812671-.19084475-.3238891-.41496496-.42-.66-.1056837-.2673662-.159148-.5525091-.1575-.84v-.06c-.0026115-.29001057.0508698-.57779099.1575-.8475.0985185-.24555467.2436954-.46968747.4275-.66.1793581-.18312519.3935688-.3284825.63-.4275.2379306-.09808608.4926463-.14902921.75-.15.2572586.00190426.5117981.05281216.75.15.2373336.09734405.4518636.242918.63.4275.1821853.19012578.3249293.41443768.42.66.1075854.27205049.1610839.56247094.1575.855v.06c.0026115.29001057-.0508698.57779099-.1575.8475-.2935355.75710598-1.0255224 1.25306445-1.8375 1.245zm0-.36c.2110445.00242667.4203484-.0384131.615-.12.1872937-.07914945.3559188-.19667602.495-.345.1449097-.15619268.2571109-.33979474.33-.54.0865981-.2402835.1273035-.49469225.12-.75v-.06c.005919-.25521571-.034746-.50937197-.12-.75-.0718001-.20295889-.1840688-.38922287-.33-.5475-.151809-.13428961-.3309206-.23408036-.525-.2925-.1949527-.08059118-.4040509-.12139083-.615-.12-.2110253-.00221533-.4202868.03861617-.615.12-.1866646.08028528-.3550709.19765942-.495.345-.1466143.15776361-.258973.34417692-.33.5475-.0859161.24045879-.1266009.49473849-.12.75v.06c-.0071258.25529615.0335743.50967209.12.75.0718001.20295889.1840688.38922287.33.5475.1390812.14832398.3077063.26585055.495.345.2108443.06574443.4332019.0861911.6525.06z"/><path d="m22.1025 2.4975h-.6225v-.36h.6225v-.75c-.0312122-.34872258.0858519-.69447028.3225-.9525.2302417-.20558505.5316143-.31321815.84-.3h.2475l.21.06v.36l-.195-.0525h-.2475c-.2049136-.0112756-.4054968.06191015-.555.2025-.1555685.1800338-.2313585.41552415-.21.6525v.75h1.1475v.36h-1.1625v3.75h-.42z"/></g><path d="m82.455 25.7925 2.0475-.75-2.0475-.8025v-1.0725l3.51 1.4175v.8775l-3.51 1.425zm-19.455 6.765c-.3451676.046072-.6932287-.0610326-.9527808-.2931876-.2595522-.232155-.4046606-.5661632-.3972192-.9143124v-.045c0-1.0125.8775-1.3425 1.9425-1.3425h.51v-.195c0-.4125-.18-.66-.6075-.66-.154184-.0167178-.3084294.0309644-.426281.1317772-.1178515.1008128-.1888513.2458102-.196219.4007228h-1.065c.075-.915.8025-1.3575 1.7775-1.3575s1.665.42 1.665 1.44v2.7525h-1.125v-.4725c-.2556618.3649251-.6798426.5741876-1.125.555m1.1025-1.455v-.39h-.4575c-.5625 0-.855.1575-.855.525v.0375c0 .285.1725.48.555.48.1877596.0210624.3757522-.0375317.5182946-.1615436.1425424-.1240118.2265852-.3020885.2317054-.4909564m3.75 1.455c-.5542841.0307618-1.0937053-.1856771-1.4730009-.5910313-.3792957-.4053541-.5594685-.9579469-.4919991-1.5089687v-.0525c-.058678-.5532085.1245249-1.1047916.5025162-1.5129647.3779913-.4081732.9139048-.6331264 1.4699838-.6170353.4461751-.0458205.8915821.0936638 1.2319249.3857914.3403428.2921275.5457325.7112437.5680751 1.1592086h-1.0575c-.0675-.3975-.2775-.66-.675-.66s-.825.3825-.825 1.1925v.1275c0 .8325.3 1.2075.8325 1.2075.4142136 0 .75-.3357864.75-.75h1.0725c-.0186657.4596537-.2250053.891545-.5708636 1.1948798-.3458584.3033347-.8009753.4515734-1.2591364.4101202m4.275 0c-.5542841.0307618-1.0937053-.1856771-1.4730009-.5910313-.3792957-.4053541-.5594685-.9579469-.4919991-1.5089687v-.0525c-.058678-.5532085.1245249-1.1047916.5025162-1.5129647.3779913-.4081732.9139048-.6331264 1.4699838-.6170353.4461751-.0458205.8915821.0936638 1.2319249.3857914.3403428.2921275.5457325.7112437.5680751 1.1592086h-1.1325c-.0675-.3975-.2775-.66-.675-.66s-.825.3825-.825 1.1925v.1275c0 .8325.3 1.2075.8325 1.2075.4142136 0 .75-.3357864.75-.75h1.0425c-.0186657.4596537-.2250053.891545-.5708636 1.1948798-.3458584.3033347-.8009753.4515734-1.2591364.4101202m4.305 0c-.5556779.0417588-1.1009729-.1668121-1.486943-.5687433-.3859701-.4019313-.5722859-.9552259-.508057-1.5087567v-.075c-.0608237-.5510992.1195572-1.101587.4947301-1.5098211s.9085056-.6343542 1.4627699-.6201789c.5201185-.0408213 1.0314357.1518809 1.3952382.5258293s.5423708.8903715.4872618 1.4091707v.495h-2.67c.045.75.36 1.02.855 1.02.3422775.0146277.6509614-.2045379.75-.5325h1.065c-.1455662.8690128-.9377894 1.4779117-1.815 1.395m-.8175-2.6175h1.5375c0-.6075-.3-.8625-.75-.8625s-.69.195-.75.8625m3.3675-1.5825h1.1475v.615c.245485-.4534137.7301267-.7249299 1.245-.6975.75 0 1.245.45 1.245 1.4475v2.7525h-1.1475v-2.58c0-.48-.195-.69-.615-.69-.2040664-.0186714-.4058744.0543266-.5507739.1992261s-.2178975.3467075-.1992261.5507739v2.52h-1.1475zm5.775-1.245v1.245h.75v.8925h-.75v1.95c0 .3075.1425.45.405.45.1357274.005005.271033-.0179714.3975-.0675v.8925c-.2097539.0599181-.426856.0902114-.645.0900011-.8925 0-1.32-.4125011-1.32-1.2450011v-2.07h-.48v-.885h.48v-.75zm5.1075 5.355h-1.1475v-.6075c-.2239366.4476009-.6928422.7189173-1.1925.69-.3828594.0483024-.7663365-.084761-1.0369897-.359827-.2706531-.275066-.3974978-.6606448-.3430103-1.042673v-2.7825h1.155v2.61c0 .4725.1875.69.6.69.2040664.0186714.4058744-.0543266.5507739-.1992261s.2178975-.3467075.1992261-.5507739v-2.55h1.1475zm.78-4.1025h1.1475v.75c.1859705-.5155505.6906074-.8458583 1.2375-.81v1.1325c-.75 0-1.2375.2325-1.2375.9225v2.115h-1.1475zm4.74 4.2c-.5556779.0417588-1.1009729-.1668121-1.486943-.5687433-.3859701-.4019313-.5722859-.9552259-.508057-1.5087567v-.075c-.0608237-.5510992.1195572-1.101587.4947301-1.5098211s.9085056-.6343542 1.4627699-.6201789c.5201185-.0408213 1.0314357.1518809 1.3952382.5258293s.5423708.8903715.4872618 1.4091707v.495h-2.67c.045.75.36 1.02.855 1.02.3422775.0146277.6509614-.2045379.75-.5325h1.0575c-.159817.866433-.9618306 1.4622145-1.8375 1.365m-.8175-2.6175h1.5375c0-.6075-.3-.8625-.75-.8625s-.69.195-.75.8625"/></g></g><path d="m0 7.42588403h7.43491014v-6.6007858h11.56279116v6.6007858h-11.56279116v5.77372307h10.73800236v6.6066794h-10.73800236v5.7678295h11.56279116v6.6007858h-18.9977013zm46.906665-6.59489224v6.59489224h-8.9151994v24.75294677h-6.6022474v-24.75294677h-8.289226v-6.59489224zm55.510846 24.75294681h-6.6002789v-5.7835457h-9.911245v12.3764734h-6.6081529v-31.34587451h6.6081529v12.37647341h9.911245v-12.38236697h6.6081529zm-34.6844364-4.0783427h6.6081529v4.0685201c0 3.8013454-3.247975 7.425884-9.0864562 7.425884h-4.9546383c-6.0727291 0-9.0864563-3.6245386-9.0864563-7.425884v-18.97333019c0-3.8013454 3.0137272-6.60078581 9.0864563-6.60078581h4.9546383c5.8384812 0 9.0864562 2.79944041 9.0864562 6.60078581v4.75413739h-6.6081529v-2.50279795c0-1.85450649-.7027437-2.25133944-2.4783033-2.25133944h-4.9546383c-1.7283164 0-2.4783034.62078819-2.4783034 2.47333016v14.84980353c0 1.8545065.749987 2.4752947 2.4783034 2.4752947h4.9546383c1.7716227 0 2.4783033-.3929039 2.4783033-2.2513395zm45.5169254 4.0724491v6.5988213h-6.616027v-6.5988213z" fill="#fff" fill-rule="nonzero" transform="translate(72.279909 168)"/></g></svg>