<?xml version="1.0" encoding="UTF-8"?>
<svg width="131px" height="21px" viewBox="0 0 131 21" version="1.1" xmlns="http://www.w3.org/2000/svg"
     xmlns:xlink="http://www.w3.org/1999/xlink">
    <title>Logo/Dark/Wordmark-Dark</title>
    <defs>
        <linearGradient x1="58.120356%" y1="26.4586581%" x2="30.9771414%" y2="100%" id="linearGradient-1">
            <stop stop-color="#0083FF" offset="0%"></stop>
            <stop stop-color="#3A9EFD" offset="100%"></stop>
        </linearGradient>
    </defs>
    <g id="Page-1" stroke="none" stroke-width="1" fill="none" fill-rule="evenodd">
        <g id="Logo/Dark/Wordmark-Flattened" transform="translate(0.371712, 0.007560)">
            <path d="M5.9981625,20.3742 C7.7814,20.3742 9.18187188,19.99998 10.1995781,19.25154 C11.2172844,18.5031 11.7261375,17.47284 11.7261375,16.16076 C11.7261375,15.07044 11.4154219,14.2065 10.7939906,13.56894 C10.1725594,12.93138 9.186375,12.45552 7.8354375,12.14136 L7.8354375,12.14136 L5.59288125,11.61468 C5.05250625,11.46684 4.67424375,11.30976 4.45809375,11.14344 C4.24194375,10.97712 4.13386875,10.74612 4.13386875,10.45044 C4.13386875,10.04388 4.31399375,9.72972 4.67424375,9.50796 C5.03449375,9.2862 5.5298375,9.17532 6.160275,9.17532 C7.529225,9.17532 8.9161875,9.67428 10.3211625,10.6722 L10.3211625,10.6722 L11.4019125,7.9002 C10.6814125,7.36428 9.87085,6.94848 8.970225,6.6528 C8.0696,6.35712 7.14195625,6.20928 6.18729375,6.20928 C5.07051875,6.20928 4.07532813,6.39408 3.20172188,6.76368 C2.32811563,7.13328 1.65264688,7.64148 1.17531563,8.28828 C0.697984375,8.93508 0.45931875,9.68352 0.45931875,10.5336 C0.45931875,11.60544 0.761028125,12.4509 1.36444688,13.06998 C1.96786563,13.68906 2.90901875,14.14644 4.18790625,14.44212 L4.18790625,14.44212 L6.34940625,14.94108 C7.01586875,15.08892 7.47068438,15.25524 7.71385313,15.44004 C7.95702188,15.62484 8.07860625,15.88356 8.07860625,16.2162 C8.07860625,16.5858 7.90298438,16.87686 7.55174063,17.08938 C7.20049688,17.3019 6.70965625,17.40816 6.07921875,17.40816 C5.19660625,17.40816 4.323,17.26956 3.4584,16.99236 C2.5938,16.71516 1.80125,16.32708 1.08075,15.82812 L1.08075,15.82812 L0,18.711 C0.7385125,19.24692 1.61662188,19.6581 2.63432813,19.94454 C3.65203438,20.23098 4.7733125,20.3742 5.9981625,20.3742 Z M18.2916938,3.90852 L18.2916938,0 L13.9146563,0 L13.9146563,3.90852 L18.2916938,3.90852 Z M18.1295813,20.15244 L18.1295813,6.54192 L14.04975,6.54192 L14.04975,20.15244 L18.1295813,20.15244 Z M28.1265187,20.3742 C28.6488812,20.3742 29.1712437,20.33724 29.6936062,20.26332 L29.6936062,20.26332 L29.9097563,17.21412 C29.4594437,17.26956 29.0271438,17.29728 28.6128563,17.29728 C27.1358312,17.29728 26.3973188,16.48416 26.3973188,14.85792 L26.3973188,14.85792 L26.3973188,9.67428 L29.720625,9.67428 L29.720625,6.54192 L26.3973188,6.54192 L26.3973188,2.55024 L22.3174875,2.55024 L22.3174875,6.54192 L19.8047437,6.54192 L19.8047437,9.67428 L22.3174875,9.67428 L22.3174875,14.88564 C22.3174875,16.73364 22.7813094,18.1104 23.7089531,19.01592 C24.6365969,19.92144 26.1091188,20.3742 28.1265187,20.3742 Z M38.2855687,20.3742 C39.2222187,20.3742 40.1543656,20.22636 41.0820094,19.93068 C42.0096531,19.635 42.7977,19.22844 43.44615,18.711 L43.44615,18.711 L42.3654,15.91128 C41.8070125,16.33632 41.1900844,16.66434 40.5146156,16.89534 C39.8391469,17.12634 39.159175,17.24184 38.4747,17.24184 C37.429975,17.24184 36.6239156,16.99698 36.0565219,16.50726 C35.4891281,16.01754 35.1423875,15.22752 35.0163,14.1372 L35.0163,14.1372 L43.6623,14.1372 L43.6623,13.11156 C43.6623,10.98636 43.1174219,9.30468 42.0276656,8.06652 C40.9379094,6.82836 39.4653875,6.20928 37.6101,6.20928 C36.349225,6.20928 35.2234438,6.50958 34.2327563,7.11018 C33.2420687,7.71078 32.4675312,8.547 31.9091437,9.61884 C31.3507562,10.69068 31.0715625,11.9196 31.0715625,13.3056 C31.0715625,15.48624 31.7155094,17.2095 33.0034031,18.47538 C34.2912969,19.74126 36.0520187,20.3742 38.2855687,20.3742 Z M40.2309188,12.0582 L35.0163,12.0582 C35.124375,11.09724 35.4080719,10.36266 35.8673906,9.85446 C36.3267094,9.34626 36.9436375,9.09216 37.718175,9.09216 C38.4927125,9.09216 39.0916281,9.34164 39.5149219,9.8406 C39.9382156,10.33956 40.1768813,11.07876 40.2309188,12.0582 L40.2309188,12.0582 Z"
                  id="site" fill="#0B102E" fill-rule="nonzero"></path>
            <path d="M79.7663094,20.3742 C81.5495469,20.3742 82.9500188,19.99998 83.967725,19.25154 C84.9854313,18.5031 85.4942844,17.47284 85.4942844,16.16076 C85.4942844,15.07044 85.1835688,14.2065 84.5621375,13.56894 C83.9407063,12.93138 82.9545219,12.45552 81.6035844,12.14136 L81.6035844,12.14136 L79.3610281,11.61468 C78.8206531,11.46684 78.4423906,11.30976 78.2262406,11.14344 C78.0100906,10.97712 77.9020156,10.74612 77.9020156,10.45044 C77.9020156,10.04388 78.0821406,9.72972 78.4423906,9.50796 C78.8026406,9.2862 79.2979844,9.17532 79.9284219,9.17532 C81.2973719,9.17532 82.6843344,9.67428 84.0893094,10.6722 L84.0893094,10.6722 L85.1700594,7.9002 C84.4495594,7.36428 83.6389969,6.94848 82.7383719,6.6528 C81.8377469,6.35712 80.9101031,6.20928 79.9554406,6.20928 C78.8386656,6.20928 77.843475,6.39408 76.9698688,6.76368 C76.0962625,7.13328 75.4207938,7.64148 74.9434625,8.28828 C74.4661313,8.93508 74.2274656,9.68352 74.2274656,10.5336 C74.2274656,11.60544 74.529175,12.4509 75.1325938,13.06998 C75.7360125,13.68906 76.6771656,14.14644 77.9560531,14.44212 L77.9560531,14.44212 L80.1175531,14.94108 C80.7840156,15.08892 81.2388313,15.25524 81.482,15.44004 C81.7251688,15.62484 81.8467531,15.88356 81.8467531,16.2162 C81.8467531,16.5858 81.6711313,16.87686 81.3198875,17.08938 C80.9686438,17.3019 80.4778031,17.40816 79.8473656,17.40816 C78.9647531,17.40816 78.0911469,17.26956 77.2265469,16.99236 C76.3619469,16.71516 75.5693969,16.32708 74.8488969,15.82812 L74.8488969,15.82812 L73.7681469,18.711 C74.5066594,19.24692 75.3847688,19.6581 76.402475,19.94454 C77.4201813,20.23098 78.5414594,20.3742 79.7663094,20.3742 Z M92.9244406,20.3742 C94.7076781,20.3742 96.10815,19.99998 97.1258563,19.25154 C98.1435625,18.5031 98.6524156,17.47284 98.6524156,16.16076 C98.6524156,15.07044 98.3417,14.2065 97.7202688,13.56894 C97.0988375,12.93138 96.1126531,12.45552 94.7617156,12.14136 L94.7617156,12.14136 L92.5191594,11.61468 C91.9787844,11.46684 91.6005219,11.30976 91.3843719,11.14344 C91.1682219,10.97712 91.0601469,10.74612 91.0601469,10.45044 C91.0601469,10.04388 91.2402719,9.72972 91.6005219,9.50796 C91.9607719,9.2862 92.4561156,9.17532 93.0865531,9.17532 C94.4555031,9.17532 95.8424656,9.67428 97.2474406,10.6722 L97.2474406,10.6722 L98.3281906,7.9002 C97.6076906,7.36428 96.7971281,6.94848 95.8965031,6.6528 C94.9958781,6.35712 94.0682344,6.20928 93.1135719,6.20928 C91.9967969,6.20928 91.0016063,6.39408 90.128,6.76368 C89.2543938,7.13328 88.578925,7.64148 88.1015938,8.28828 C87.6242625,8.93508 87.3855969,9.68352 87.3855969,10.5336 C87.3855969,11.60544 87.6873063,12.4509 88.290725,13.06998 C88.8941438,13.68906 89.8352969,14.14644 91.1141844,14.44212 L91.1141844,14.44212 L93.2756844,14.94108 C93.9421469,15.08892 94.3969625,15.25524 94.6401313,15.44004 C94.8833,15.62484 95.0048844,15.88356 95.0048844,16.2162 C95.0048844,16.5858 94.8292625,16.87686 94.4780188,17.08938 C94.126775,17.3019 93.6359344,17.40816 93.0054969,17.40816 C92.1228844,17.40816 91.2492781,17.26956 90.3846781,16.99236 C89.5200781,16.71516 88.7275281,16.32708 88.0070281,15.82812 L88.0070281,15.82812 L86.9262781,18.711 C87.6647906,19.24692 88.5429,19.6581 89.5606063,19.94454 C90.5783125,20.23098 91.6995906,20.3742 92.9244406,20.3742 Z M105.217972,3.90852 L105.217972,0 L100.840934,0 L100.840934,3.90852 L105.217972,3.90852 Z M105.055859,20.15244 L105.055859,6.54192 L100.976028,6.54192 L100.976028,20.15244 L105.055859,20.15244 Z M113.296578,20.3742 C115.079816,20.3742 116.480288,19.99998 117.497994,19.25154 C118.5157,18.5031 119.024553,17.47284 119.024553,16.16076 C119.024553,15.07044 118.713838,14.2065 118.092406,13.56894 C117.470975,12.93138 116.484791,12.45552 115.133853,12.14136 L115.133853,12.14136 L112.891297,11.61468 C112.350922,11.46684 111.972659,11.30976 111.756509,11.14344 C111.540359,10.97712 111.432284,10.74612 111.432284,10.45044 C111.432284,10.04388 111.612409,9.72972 111.972659,9.50796 C112.332909,9.2862 112.828253,9.17532 113.458691,9.17532 C114.827641,9.17532 116.214603,9.67428 117.619578,10.6722 L117.619578,10.6722 L118.700328,7.9002 C117.979828,7.36428 117.169266,6.94848 116.268641,6.6528 C115.368016,6.35712 114.440372,6.20928 113.485709,6.20928 C112.368934,6.20928 111.373744,6.39408 110.500138,6.76368 C109.626531,7.13328 108.951063,7.64148 108.473731,8.28828 C107.9964,8.93508 107.757734,9.68352 107.757734,10.5336 C107.757734,11.60544 108.059444,12.4509 108.662863,13.06998 C109.266281,13.68906 110.207434,14.14644 111.486322,14.44212 L111.486322,14.44212 L113.647822,14.94108 C114.314284,15.08892 114.7691,15.25524 115.012269,15.44004 C115.255438,15.62484 115.377022,15.88356 115.377022,16.2162 C115.377022,16.5858 115.2014,16.87686 114.850156,17.08938 C114.498913,17.3019 114.008072,17.40816 113.377634,17.40816 C112.495022,17.40816 111.621416,17.26956 110.756816,16.99236 C109.892216,16.71516 109.099666,16.32708 108.379166,15.82812 L108.379166,15.82812 L107.298416,18.711 C108.036928,19.24692 108.915038,19.6581 109.932744,19.94454 C110.95045,20.23098 112.071728,20.3742 113.296578,20.3742 Z M128.210928,20.3742 C128.733291,20.3742 129.255653,20.33724 129.778016,20.26332 L129.778016,20.26332 L129.994166,17.21412 C129.543853,17.26956 129.111553,17.29728 128.697266,17.29728 C127.220241,17.29728 126.481728,16.48416 126.481728,14.85792 L126.481728,14.85792 L126.481728,9.67428 L129.805034,9.67428 L129.805034,6.54192 L126.481728,6.54192 L126.481728,2.55024 L122.401897,2.55024 L122.401897,6.54192 L119.889153,6.54192 L119.889153,9.67428 L122.401897,9.67428 L122.401897,14.88564 C122.401897,16.73364 122.865719,18.1104 123.793363,19.01592 C124.721006,19.92144 126.193528,20.3742 128.210928,20.3742 Z"
                  id="ssist" fill="#0B102E" fill-rule="nonzero"></path>
            <g id="mark" transform="translate(47.115787, 0.202440)">
                <path d="M18.5139759,8.12183598e-16 L22.8393486,8.12183598e-16 C23.7285667,1.79491171e-16 24.4494204,0.720853732 24.4494204,1.61007187 C24.4494204,1.84055986 24.399934,2.06836134 24.3043067,2.27807573 L16.58909,19.1978423 C16.3274257,19.771682 15.7548142,20.1399103 15.1241318,20.1399103 L10.7987592,20.1399103 C9.90954107,20.1399103 9.18868734,19.4190566 9.18868734,18.5298384 C9.18868734,18.2993504 9.23817377,18.071549 9.3338011,17.8618346 L17.0490178,0.942068016 C17.310682,0.368228293 17.8832936,9.28038063e-16 18.5139759,8.12183598e-16 Z"
                      id="Rectangle-Copy" fill="url(#linearGradient-1)" fill-rule="nonzero"
                      transform="translate(16.819054, 10.069955) scale(-1, 1) translate(-16.819054, -10.069955) "></path>
                <path d="M10.2189509,8.12183598e-16 L14.5443235,8.12183598e-16 C15.4335416,9.69275535e-16 16.1543954,0.720853732 16.1543954,1.61007188 C16.1543954,1.84055986 16.1049089,2.06836134 16.0092816,2.27807573 L8.2940649,19.1978423 C8.03240066,19.771682 7.45978911,20.1399103 6.82910678,20.1399103 L2.50373415,20.1399103 C1.61451601,20.1399103 0.893662276,19.4190566 0.893662276,18.5298384 C0.893662276,18.2993504 0.94314871,18.071549 1.03877603,17.8618346 L8.75399275,0.942068016 C9.01565698,0.368228293 9.58826853,1.15008267e-15 10.2189509,8.12183598e-16 Z"
                      id="Rectangle" fill="#F7A400"></path>
                <path d="M13.145192,13.0208065 L16.1193472,19.3964216 C16.2446539,19.6650381 16.1284783,19.9843758 15.8598619,20.1096825 C15.7888154,20.1428249 15.7113707,20.16 15.6329741,20.16 L9.6846637,20.16 C9.38825765,20.16 9.14797308,19.9197154 9.14797308,19.6233094 C9.14797308,19.5449128 9.16514821,19.4674681 9.19829062,19.3964216 L12.1724458,13.0208065 C12.2977525,12.75219 12.6170902,12.6360145 12.8857067,12.7613212 C13.0000044,12.8146398 13.0918733,12.9065087 13.145192,13.0208065 Z"
                      id="Triangle" fill="#0B102E" fill-rule="nonzero"></path>
            </g>
        </g>
    </g>
</svg>