<svg clip-rule="evenodd" fill-rule="evenodd" stroke-miterlimit="2" viewBox="0 0 293 83" xmlns="http://www.w3.org/2000/svg"><path d="m80.197 41.25c0 21.558-17.473 39.034-39.034 39.034-21.556 0-39.03-17.476-39.03-39.034s17.474-39.034 39.03-39.034c21.561 0 39.034 17.476 39.034 39.034z" fill="#ff003c" fill-rule="nonzero"/><path d="m19.45 50.244h3.082l3.548-12.898 3.522 12.898h3.082l5.801-18.492h-2.952l-4.377 14.685-3.626-13.286h-2.849l-3.651 13.286-4.429-14.685h-2.953z" fill="#fff" fill-rule="nonzero"/><path d="m19.45 50.244h3.082l3.548-12.898 3.522 12.898h3.082l5.801-18.492h-2.952l-4.377 14.685-3.626-13.286h-2.849l-3.651 13.286-4.429-14.685h-2.953z" fill="none" stroke="#fff" stroke-width=".63"/><path d="m41.334 50.244h2.668v-8.003h8.624v-2.538h-8.624v-5.387h9.323v-2.564h-11.991z" fill="#fff" fill-rule="nonzero"/><path d="m41.334 50.244h2.668v-8.003h8.624v-2.538h-8.624v-5.387h9.323v-2.564h-11.991z" fill="none" stroke="#fff" stroke-width=".63"/><path d="m53.272 50.244h2.797l1.347-3.988h7.252l1.346 3.988h2.797l-6.319-18.492h-2.875zm4.973-6.501 2.823-8.391 2.797 8.391z" fill="#fff" fill-rule="nonzero"/><path d="m53.272 50.244h2.797l1.347-3.988h7.252l1.346 3.988h2.797l-6.319-18.492h-2.875zm4.973-6.501 2.823-8.391 2.797 8.391z" fill="none" stroke="#fff" stroke-width=".63"/><path d="m92.716 36.791h3.082l3.548-12.898 3.522 12.898h3.082l5.802-18.492h-2.953l-4.377 14.685-3.626-13.286h-2.848l-3.652 13.286-4.429-14.685h-2.952zm25.225.285c3.678 0 6.656-2.978 6.656-6.811 0-3.911-2.952-6.812-6.656-6.812-3.703 0-6.656 2.901-6.656 6.812 0 3.833 2.953 6.811 6.656 6.811zm0-2.331c-2.408 0-4.092-1.916-4.092-4.506 0-2.616 1.658-4.429 4.092-4.429 2.409 0 4.092 1.813 4.092 4.429 0 2.59-1.709 4.506-4.092 4.506zm9.091 2.046h2.46v-6.941c0-1.217.337-2.201 1.14-2.875.932-.828 2.279-.906 3.522-.725v-2.797c-2.201-.052-3.988 1.01-4.662 2.072v-1.683h-2.46zm9.505-19.01h2.486v19.01h-2.486zm10.955 19.269c1.917 0 3.211-1.062 3.729-1.787h.104v1.528h2.46v-19.01h-2.46v7.407c-.596-.751-2.02-1.735-3.781-1.735-3.341 0-5.957 2.927-5.957 6.786s2.512 6.811 5.905 6.811zm.207-2.357c-1.916 0-3.522-1.709-3.522-4.48 0-2.694 1.58-4.377 3.522-4.377 2.124 0 3.678 1.657 3.678 4.403 0 2.667-1.425 4.454-3.678 4.454zm16.213 2.098h2.667v-8.003h8.625v-2.538h-8.625v-5.387h9.324v-2.564h-11.991zm25.925-6.656c0-3.652-2.435-6.682-6.216-6.682-3.755 0-6.397 3.03-6.423 6.837-.026 3.782 2.564 6.76 6.449 6.786 2.538 0 4.662-1.476 5.62-3.134l-2.124-.958c-.751 1.062-1.916 1.787-3.419 1.787-2.201 0-3.729-1.632-3.936-3.548h9.997c.026-.311.052-.751.052-1.088zm-10.075-1.088c.311-1.864 1.839-3.263 3.807-3.263 2.098 0 3.522 1.45 3.652 3.263zm18.179 8.003c1.917 0 3.212-1.062 3.73-1.787h.104v1.528h2.46v-19.01h-2.46v7.407c-.596-.751-2.021-1.735-3.782-1.735-3.341 0-5.956 2.927-5.956 6.786s2.512 6.811 5.904 6.811zm.208-2.357c-1.917 0-3.523-1.709-3.523-4.48 0-2.694 1.58-4.377 3.523-4.377 2.123 0 3.677 1.657 3.677 4.403 0 2.667-1.424 4.454-3.677 4.454zm21.263-4.558c0-3.652-2.435-6.682-6.216-6.682-3.755 0-6.397 3.03-6.423 6.837-.026 3.782 2.564 6.76 6.449 6.786 2.538 0 4.662-1.476 5.62-3.134l-2.124-.958c-.751 1.062-1.916 1.787-3.419 1.787-2.201 0-3.729-1.632-3.936-3.548h9.997c.026-.311.052-.751.052-1.088zm-10.075-1.088c.311-1.864 1.839-3.263 3.807-3.263 2.098 0 3.522 1.45 3.652 3.263zm12.509 7.744h2.46v-6.941c0-1.217.337-2.201 1.14-2.875.932-.828 2.279-.906 3.522-.725v-2.797c-2.201-.052-3.988 1.01-4.662 2.072v-1.683h-2.46zm12.846.285c1.839 0 3.289-.881 4.118-1.865h.155v1.58h2.435v-8.391c0-2.797-1.917-4.947-5.258-4.947-3.237 0-5.102 2.15-5.439 3.756l2.564.259c.285-.829 1.244-1.684 2.798-1.684 1.657 0 2.9.984 2.9 2.512l-4.092.674c-2.486.44-4.584 1.631-4.584 4.169 0 2.435 2.02 3.937 4.403 3.937zm.596-2.227c-1.373 0-2.383-.622-2.383-1.761 0-1.373 1.295-1.891 2.849-2.176 1.113-.207 2.616-.518 3.237-.622v1.218c0 .388-.026.828-.181 1.243-.415 1.062-1.994 2.098-3.522 2.098zm13.855 2.201c1.373 0 2.15-.311 2.461-.466v-2.202a5.297 5.297 0 0 1 -1.865.363c-1.398 0-1.916-.906-1.916-2.305v-6.371h3.807v-2.227h-3.807v-3.393h-2.487v3.393h-2.279v2.227h2.279v7.07c0 2.357 1.554 3.911 3.807 3.911zm6.32-15.099c.984 0 1.787-.777 1.787-1.813a1.79 1.79 0 0 0 -1.787-1.787c-1.036 0-1.839.803-1.839 1.787 0 1.036.803 1.813 1.839 1.813zm-1.243 14.84h2.46v-12.949h-2.46zm11.627.285c3.677 0 6.656-2.978 6.656-6.811 0-3.911-2.953-6.812-6.656-6.812-3.704 0-6.656 2.901-6.656 6.812 0 3.833 2.952 6.811 6.656 6.811zm0-2.331c-2.409 0-4.092-1.916-4.092-4.506 0-2.616 1.657-4.429 4.092-4.429 2.408 0 4.092 1.813 4.092 4.429 0 2.59-1.71 4.506-4.092 4.506zm8.831 2.046h2.461v-7.433c0-1.916 1.243-3.47 3.185-3.47 1.917 0 3.082 1.243 3.082 3.237v7.666h2.461v-8.547c0-2.693-2.202-4.765-4.947-4.765a5 5 0 0 0 -3.781 1.684v-1.321h-2.461zm-180.512 27.623c3.678 0 6.656-2.979 6.656-6.812 0-3.91-2.952-6.811-6.656-6.811-3.703 0-6.656 2.901-6.656 6.811 0 3.833 2.953 6.812 6.656 6.812zm0-2.331c-2.408 0-4.092-1.917-4.092-4.507 0-2.615 1.658-4.428 4.092-4.428 2.409 0 4.092 1.813 4.092 4.428 0 2.59-1.709 4.507-4.092 4.507zm10.101 2.046h2.46v-10.722h4.455v-2.228h-4.455v-1.554c0-1.398.829-2.434 2.279-2.434.933 0 1.761.233 1.995.285v-2.15a7.527 7.527 0 0 0 -2.538-.44c-2.927 0-4.196 2.175-4.196 4.351v1.942h-2.668v2.228h2.668zm13.493 0h2.797l1.347-3.989h7.252l1.346 3.989h2.797l-6.319-18.492h-2.875zm4.973-6.501 2.823-8.391 2.797 8.391zm17.61 6.76c1.916 0 3.211-1.062 3.729-1.787h.104v1.528h2.46v-19.01h-2.46v7.407c-.596-.751-2.021-1.735-3.782-1.735-3.341 0-5.956 2.926-5.956 6.785s2.512 6.812 5.905 6.812zm.207-2.357c-1.917 0-3.523-1.709-3.523-4.481 0-2.693 1.58-4.376 3.523-4.376 2.123 0 3.677 1.657 3.677 4.402 0 2.668-1.424 4.455-3.677 4.455zm12.431 2.098h2.953l4.221-12.95h-2.693l-2.979 10.153-3.004-10.153h-2.719zm20.719-6.656c0-3.652-2.434-6.682-6.216-6.682-3.755 0-6.397 3.03-6.422 6.837-.026 3.781 2.564 6.76 6.448 6.786 2.538 0 4.662-1.477 5.62-3.134l-2.123-.958c-.751 1.061-1.917 1.787-3.419 1.787-2.201 0-3.729-1.632-3.937-3.549h9.997c.026-.31.052-.751.052-1.087zm-10.074-1.088c.31-1.865 1.838-3.263 3.807-3.263 2.097 0 3.522 1.45 3.651 3.263zm12.379 7.744h2.461v-6.941c0-1.217.336-2.202 1.139-2.875.932-.829 2.279-.906 3.522-.725v-2.797c-2.201-.052-3.988 1.01-4.661 2.072v-1.684h-2.461zm15.306.259c1.373 0 2.15-.311 2.461-.466v-2.202a5.297 5.297 0 0 1 -1.865.363c-1.398 0-1.916-.907-1.916-2.305v-6.371h3.807v-2.228h-3.807v-3.392h-2.487v3.392h-2.279v2.228h2.279v7.07c0 2.357 1.554 3.911 3.807 3.911zm6.318-15.099c.984 0 1.787-.777 1.787-1.813a1.79 1.79 0 0 0 -1.787-1.787c-1.036 0-1.839.803-1.839 1.787 0 1.036.803 1.813 1.839 1.813zm-1.243 14.84h2.461v-12.95h-2.461zm10.593.285c2.59.026 5.102-1.632 5.102-4.041 0-2.382-1.994-3.237-4.014-3.807l-1.399-.388c-1.217-.337-2.357-.622-2.357-1.632 0-.854.907-1.528 2.124-1.554 1.735 0 2.538.933 3.004 1.813l2.305-.44c-.414-1.658-2.408-3.6-5.231-3.574-2.668.026-4.688 1.631-4.688 3.755 0 2.357 1.942 3.16 3.574 3.6l1.502.389c1.373.362 2.719.699 2.719 1.916 0 1.01-1.087 1.709-2.615 1.735-1.736 0-2.979-.984-3.445-2.149l-2.564.492c.57 1.865 2.694 3.859 5.983 3.885zm19.422-6.941c0-3.652-2.434-6.682-6.215-6.682-3.756 0-6.397 3.03-6.423 6.837-.026 3.781 2.564 6.76 6.449 6.786 2.538 0 4.661-1.477 5.62-3.134l-2.124-.958c-.751 1.061-1.917 1.787-3.419 1.787-2.201 0-3.729-1.632-3.936-3.549h9.997c.026-.31.051-.751.051-1.087zm-10.074-1.088c.311-1.865 1.839-3.263 3.807-3.263 2.098 0 3.522 1.45 3.652 3.263zm12.381 7.744h2.46v-6.941c0-1.217.337-2.202 1.14-2.875.932-.829 2.279-.906 3.522-.725v-2.797c-2.201-.052-3.988 1.01-4.662 2.072v-1.684h-2.46zm13.908.285c2.589.026 5.102-1.632 5.102-4.041 0-2.382-1.995-3.237-4.015-3.807l-1.398-.388c-1.218-.337-2.357-.622-2.357-1.632 0-.854.906-1.528 2.124-1.554 1.735 0 2.538.933 3.004 1.813l2.305-.44c-.414-1.658-2.409-3.6-5.232-3.574-2.667.026-4.687 1.631-4.687 3.755 0 2.357 1.942 3.16 3.574 3.6l1.502.389c1.372.362 2.719.699 2.719 1.916 0 1.01-1.088 1.709-2.616 1.735-1.735 0-2.978-.984-3.444-2.149l-2.564.492c.57 1.865 2.693 3.859 5.983 3.885z" fill-rule="nonzero"/></svg>