<?xml version="1.0" encoding="UTF-8"?>
<svg width="28px" height="28px" viewBox="0 0 28 28" version="1.1" xmlns="http://www.w3.org/2000/svg" xmlns:xlink="http://www.w3.org/1999/xlink">
    <!-- Generator: Sketch 62 (91390) - https://sketch.com -->
    <title>behance</title>
    <desc>Created with Sketch.</desc>
    <g id="Symbols" stroke="none" stroke-width="1" fill="none" fill-rule="evenodd">
        <g id="legalFooter/midnight" transform="translate(-1267.000000, -33.000000)" fill="#FFFFFF" fill-rule="nonzero">
            <g id="behance" transform="translate(1267.000000, 33.000000)">
                <path d="M11.2093023,10.0002387 L10.7906977,10.0002387 L8,10.0002387 L8,12.6666667 L11,12.6666667 C11.5348837,12.6666667 12,12.5212251 12,11.2364917 C12,9.95175824 11.2093023,10.0002387 11.2093023,10.0002387 Z" id="Path"></path>
                <path d="M10.9359435,14.6666667 L8,14.6666667 L8,18 L10.5742693,18 C10.6168192,18 10.6806441,18 10.7657439,18 C11.191243,18 11.9996912,17.8095238 11.9996912,16.3809524 C12.0209661,14.6904762 10.9359435,14.6666667 10.9359435,14.6666667 Z" id="Path"></path>
                <path d="M20.961142,0 L7.01665345,0 C3.15305313,0 0,3.15555556 0,7.02222222 L0,21 C0,24.8444444 3.15305313,28 7.01665345,28 L20.9833466,28 C24.8469469,28 28,24.8444444 28,20.9777778 L28,7.02222222 C27.9777954,3.15555556 24.8247423,0 20.961142,0 Z M16.4314036,8.88888889 L21.0943695,8.88888889 L21.0943695,10 L16.4314036,10 L16.4314036,8.88888889 Z M14.2553529,16.2 C14.2553529,19.6666667 10.8358446,19.7777778 10.8358446,19.7777778 L7.68279144,19.7777778 L7.59397304,19.7777778 L5.32910389,19.7777778 L5.32910389,8.22222222 L7.57176844,8.22222222 L7.66058684,8.22222222 L10.81364,8.22222222 C12.5233941,8.22222222 13.8778747,9.2 13.8778747,11.2444444 C13.8778747,13.2888889 12.2347343,13.4 12.2347343,13.4 C14.4107851,13.3777778 14.2553529,16.2 14.2553529,16.2 Z M22.6264869,16 L17.0087232,16 C17.0087232,18.2222222 18.9183188,18.0444444 18.9183188,18.0444444 C20.7168914,18.0444444 20.6502776,16.8888889 20.6502776,16.8888889 L22.5598731,16.8888889 C22.5598731,20 18.851705,19.8666667 18.851705,19.8666667 C14.4107851,19.8666667 14.6994449,15.4888889 14.6994449,15.4888889 C14.6994449,15.4888889 14.6994449,11.088814 18.851705,11.088814 C23.2260111,11.0666667 22.6264869,16 22.6264869,16 Z" id="Shape"></path>
                <path d="M19.1249924,12.6666667 C17.562499,12.6666667 17.3333333,14.6666667 17.3333333,14.6666667 L20.6666667,14.6666667 C20.6666667,14.6666667 20.6874859,12.6666667 19.1249924,12.6666667 Z" id="Path"></path>
            </g>
        </g>
    </g>
</svg>