<?xml version="1.0" encoding="UTF-8"?>
<svg width="28px" height="28px" viewBox="0 0 28 28" version="1.1" xmlns="http://www.w3.org/2000/svg" xmlns:xlink="http://www.w3.org/1999/xlink">
    <!-- Generator: Sketch 62 (91390) - https://sketch.com -->
    <title>brands-and-logotypes</title>
    <desc>Created with Sketch.</desc>
    <g id="Symbols" stroke="none" stroke-width="1" fill="none" fill-rule="evenodd">
        <g id="legalFooter/midnight" transform="translate(-1320.000000, -33.000000)" fill="#FFFFFF" fill-rule="nonzero">
            <g id="brands-and-logotypes" transform="translate(1320.000000, 33.000000)">
                <path d="M18.3448276,15.6914014 C19.7266561,19.0593311 20.752709,22.5266647 21.4195466,26.0689655 C22.3707899,25.5102325 23.2599067,24.8388418 24.0679797,24.0605917 C26.1669489,22.0383429 27.5214763,19.4902886 28,16.7247882 C25.9380057,15.9030489 23.6797435,15.4482759 21.3131364,15.4482759 C20.3014865,15.4482759 19.3100438,15.5323551 18.3448276,15.6914014 L18.3448276,15.6914014 Z" id="Path"></path>
                <path d="M24.137931,3.8231226 C24.1337787,3.81954789 24.1298449,3.81557602 24.125911,3.81200136 C21.4205425,1.35381156 17.8239474,0 13.9983172,0 C12.5023767,0 11.0414034,0.207927359 9.65517241,0.607100176 C11.8771194,3.13678362 13.8317859,5.83646301 15.5069333,8.68965517 C18.6627232,7.47207869 21.5695902,5.82236291 24.137931,3.8231226 Z" id="Path"></path>
                <path d="M24.8120544,5.79310345 C22.0030348,7.91096562 18.8640784,9.62721606 15.4482759,10.9098537 C15.9518396,11.7996798 16.4273769,12.7037064 16.8762549,13.6211333 C18.1296956,13.4117272 19.4086563,13.304924 20.7063013,13.304924 C23.2197905,13.304924 25.664467,13.7017356 27.9842779,14.4827586 C27.9943036,14.2859528 28,14.088547 28,13.8903412 C28,10.9158539 26.8784885,8.09317099 24.8120544,5.79310345 L24.8120544,5.79310345 Z" id="Path"></path>
                <path d="M4.82758621,24.99271 C7.30043634,26.9425176 10.3304482,28 13.5221125,28 C15.5507419,28 17.5138482,27.572152 19.3103448,26.7602379 C18.6370088,22.836781 17.5588953,19.0511719 16.1204048,15.4482759 C11.1214672,16.8202504 7.00299594,20.3579071 4.82758621,24.99271 L4.82758621,24.99271 Z" id="Path"></path>
                <path d="M13.3157867,15.0494264 C14.0139144,14.7427412 14.7255035,14.4829406 15.4482759,14.2691642 C15.0668012,13.3620128 14.6621315,12.4677654 14.2363378,11.5862069 C10.5696659,13.0000555 6.7141205,13.7164428 2.75357638,13.7164428 C1.83343949,13.7164428 0.919308492,13.6770856 0.0118045786,13.6000917 C0.00455615826,13.7891353 0,13.9788242 0,14.1691582 C0,17.9339012 1.41178775,21.4732543 3.9752481,24.1353502 C3.97607649,24.1362105 3.97711197,24.1370708 3.97794036,24.137931 C4.86452733,22.3016914 6.02406962,20.6327736 7.4368929,19.1653733 C9.13530443,17.4018262 11.1130913,16.0170115 13.3157867,15.0494264 Z" id="Path"></path>
                <path d="M13.5172414,10.6033127 C11.8835176,7.52724453 9.97207978,4.62502347 7.81779967,1.93103448 C6.36599761,2.61467636 5.02847427,3.55972957 3.86341943,4.74419631 C1.78035342,6.86196981 0.447871796,9.5390867 0,12.4423756 C0.865493339,12.5143491 1.74064993,12.5517241 2.62420941,12.5517241 C6.44792535,12.5517241 10.1168189,11.8635972 13.5172414,10.6033127 Z" id="Path"></path>
            </g>
        </g>
    </g>
</svg>