<svg fill="none" height="145" viewBox="0 0 1198 145" width="1198" xmlns="http://www.w3.org/2000/svg" xmlns:xlink="http://www.w3.org/1999/xlink"><clipPath id="a"><path d="m0 0h1197.93v145h-1197.93z"/></clipPath><g clip-path="url(#a)" fill="#1e22aa"><path d="m83.1506 3.37079h21.7714v76.50051c-.507 30.1377-24.0113 54.6197-53.5278 54.6197-13.3503-.006-26.2027-5.069-35.9714-14.169-7.34689-6.812-12.6826-15.511-15.42548555-25.1478l20.91368555-6.1512c1.8543 6.6665 5.8351 12.545 11.337 16.742 5.5019 4.196 12.2239 6.481 19.1434 6.506 8.5054-.095 16.6258-3.559 22.5798-9.634 5.9539-6.0746 9.2552-14.2629 9.1794-22.7685zm122.9554 105.69121-57.554-105.69121h-21.858v129.05921h21.858v-83.4625l45.396 83.4625h24.318l45.396-83.4625v83.4625h21.858v-129.05921h-21.858z"/><path d="m467.389 48.2236c.183-3.3503-.32-6.7026-1.478-9.8517s-2.946-6.0288-5.255-8.4627c-4.644-4.6432-11.298-6.9647-19.964-6.9647-12.18 0-20.337 4.0376-24.471 12.113-2.048 4.1043-3.078 8.6412-3.004 13.2274-.013 3.1062.457 6.1956 1.393 9.1572.991 3.4188 2.824 6.5347 5.33 9.0625 4.619 4.6432 11.402 6.9648 20.351 6.9648 8.948 0 15.732-2.3216 20.351-6.9648 2.302-2.4294 4.085-5.3015 5.243-8.4418 1.157-3.1402 1.665-6.483 1.49-9.8253m-11.533 0c.2 3.9892-.943 7.9303-3.246 11.1938-1.507 1.7526-3.408 3.123-5.547 3.9991-2.139.876-4.455 1.2326-6.758 1.0405-2.305.1991-4.624-.1542-6.764-1.0307-2.141-.8765-4.041-2.2508-5.544-4.0089-2.303-3.2635-3.446-7.2046-3.246-11.1938-.204-4.0043.938-7.9618 3.246-11.241 1.555-1.772 3.506-3.152 5.695-4.0277s4.554-1.2224 6.902-1.012c2.259-.1731 4.527.1936 6.616 1.0699 2.09.8763 3.94 2.237 5.4 3.9698 2.307 3.2792 3.45 7.2367 3.246 11.241"/><path d="m490.373 71.4274v-30.7674c1.659-2.1381 3.715-3.9355 6.056-5.2932 3.32-2.2872 7.214-3.5969 11.241-3.7804 1.412-.1844 2.847-.0054 4.169.5202 1.323.5256 2.489 1.3802 3.389 2.483 1.124 2.4045 1.604 5.0598 1.393 7.7057v29.1209h11.289v-30.0876c.275-4.175-.37-8.3593-1.889-12.2579-2.359-4.5224-7.608-6.7836-15.749-6.7836-7.271.0459-14.305 2.5961-19.916 7.221v-29.51371523l-11.291 3.24554523v68.18187z"/><path d="m550.707 72.0542v-30.7674c1.707-2.1126 3.794-3.8871 6.154-5.2318 3.318-2.2949 7.211-3.6204 11.241-3.8279 1.396-.1728 2.813.0122 4.118.5375 1.305.5254 2.455 1.3738 3.342 2.4657 1.129 2.3852 1.609 5.0257 1.393 7.6556v29.1683h11.291v-30.0876c.282-4.1752-.363-8.361-1.888-12.2579-2.359-4.5224-7.592-6.7837-15.699-6.7837-7.644-.0326-15.011 2.8576-20.593 8.0791v-6.6861h-10.659v47.7278z"/><path d="m618.253 73.4695c14.957 0 22.435-4.9905 22.435-14.9714.066-2.101-.401-4.1846-1.357-6.0566-1.178-1.9492-2.849-3.5538-4.845-4.6524-5.29-2.5111-10.79-4.5544-16.436-6.1067-1.792-.4406-3.485-1.2126-4.993-2.276-.394-.3232-.712-.7301-.93-1.1912-.217-.4612-.33-.965-.329-1.4749 0-3.1982 2.956-4.7973 8.868-4.7973 4.808.011 9.573.914 14.052 2.6633l2.373-9.3495c-5.549-1.563-11.29-2.3459-17.055-2.3262-4.968-.2771-9.913.8475-14.272 3.2455-1.78 1.1161-3.226 2.6899-4.189 4.5566-.963 1.8668-1.407 3.958-1.285 6.0549-.099 1.7798.254 3.5555 1.025 5.1626.771 1.6072 1.935 2.9936 3.385 4.0309 3.979 2.5202 8.305 4.4469 12.84 5.7194l6.349 2.0337c1.287.3759 2.509.9481 3.621 1.6966.53.3435.96.8193 1.249 1.3802.289.561.426 1.1877.398 1.818 0 3.8761-3.715 5.8142-11.144 5.8142-6.008-.0009-11.933-1.4122-17.297-4.1204l-2.909 9.6921c6.525 2.4763 13.473 3.6453 20.449 3.4406"/><path d="m703.262 48.2236c.183-3.3503-.32-6.7027-1.477-9.8519-1.158-3.1492-2.947-6.0288-5.257-8.4625-4.643-4.6432-11.297-6.9647-19.963-6.9647-12.178 0-20.334 4.0376-24.469 12.113-2.047 4.1043-3.078 8.6412-3.003 13.2274-.013 3.1062.457 6.1955 1.393 9.1572.993 3.4188 2.826 6.5345 5.332 9.0625 4.619 4.6432 11.398 6.9648 20.337 6.9648s15.723-2.3216 20.351-6.9648c2.302-2.4292 4.086-5.3013 5.244-8.4416s1.664-6.4832 1.49-9.8255m-11.531 0c.199 3.9891-.943 7.93-3.246 11.1938-1.507 1.7528-3.408 3.1234-5.548 3.9994-2.139.876-4.456 1.2325-6.76 1.0402-2.304.1989-4.623-.1545-6.763-1.031-2.141-.8764-4.042-2.2507-5.545-4.0086-2.302-3.2636-3.445-7.2046-3.245-11.1938-.205-4.0043.938-7.9618 3.245-11.241 1.556-1.7717 3.507-3.1514 5.696-4.0271 2.189-.8756 4.554-1.2226 6.902-1.0126 2.259-.1731 4.527.1936 6.617 1.0699s3.941 2.237 5.401 3.9698c2.307 3.2795 3.449 7.2367 3.246 11.241"/><path d="m724.546 72.0542v-30.7674c1.707-2.1126 3.794-3.8871 6.154-5.2318 3.319-2.2949 7.211-3.6204 11.241-3.8279 1.396-.1728 2.813.0122 4.118.5375 1.305.5254 2.456 1.3738 3.343 2.4657 1.129 2.3851 1.609 5.0257 1.393 7.6556v29.1683h11.291v-30.0876c.281-4.1752-.364-8.3611-1.889-12.2579-2.359-4.5224-7.592-6.7837-15.698-6.7837-7.644-.0326-15.011 2.8576-20.594 8.0791v-6.6861h-10.659v47.7278z"/><path d="m810.391 71.4274v-48.65l23.259 48.65h7.522l23.257-48.65v48.65h11.291v-68.1763h-12.598l-25.68 53.6869-25.747-53.6869h-12.593v68.1763z"/><path d="m933.761 72.0653v-29.0735c0-2.81-.031-4.7156-.094-5.7166-.077-2.5264-.745-4.9995-1.951-7.2211-2.971-4.749-9.545-7.1235-19.721-7.1235-3.473-.005-6.941.2745-10.369.8358-2.898.5631-5.761 1.2914-8.575 2.1813l-2.471.7271 2.761 9.1935c5.437-2.4753 11.324-3.8112 17.297-3.9253 3.341-.3367 6.699.4473 9.545 2.2287.735.7091 1.303 1.5725 1.663 2.5278.36.9554.504 1.9789.421 2.9966v1.8415c-3.876.0965-6.896.2098-9.06.3398-9.013.5572-15.474 1.9622-19.381 4.2151-2.31 1.2619-4.218 3.1497-5.503 5.4465-1.286 2.2969-1.898 4.9097-1.766 7.5385 0 9.5947 6.036 14.392 18.108 14.392 8.657 0 14.859-2.1359 18.607-6.4076v4.9923zm-11.288-16.9605c.042.8655-.052 1.7322-.279 2.5686-.561 1.3668-1.503 2.5436-2.713 3.3905-3.546 2.4138-7.782 3.6051-12.066 3.3932-6.235 0-9.352-2.0356-9.352-6.1067 0-4.1027 3.537-6.6388 10.611-7.6082 2.875-.3882 7.479-.6789 13.81-.872z"/><path d="m950.828 56.6984c-.046 2.5531.182 5.1037.679 7.6083.236 1.4071.774 2.7465 1.577 3.9257.803 1.1793 1.853 2.1704 3.076 2.9053 2.967 1.3169 6.209 1.8989 9.449 1.6966 4.134-.0212 8.25-.5422 12.258-1.5518l-2.084-8.7198c-2.28.843-4.692 1.2695-7.123 1.2592-3.295 0-5.265-.8562-5.912-2.5686-.558-2.5442-.77-5.1522-.629-7.7531v-20.7855h13.809v-9.0124h-13.809v-15.2778l-11.291 3.1982v12.0796h-8.72v9.0124h8.72z"/><path d="m991.858 56.6984c-.046 2.5531.182 5.1038.68 7.6083.236 1.4071.774 2.7465 1.577 3.9257.803 1.1793 1.852 2.1704 3.075 2.9053 2.97 1.3168 6.21 1.8988 9.45 1.6966 4.13-.0212 8.25-.5422 12.26-1.5518l-2.09-8.7198c-2.27.8426-4.69 1.2691-7.12 1.2592-3.29 0-5.26-.8562-5.91-2.5686-.56-2.5441-.77-5.1521-.63-7.7531v-20.7855h13.81v-9.0124h-13.81v-15.2778l-11.289 3.1982v12.0796h-8.72v9.0124h8.72z"/><path d="m1042.66 71.4274v-30.7674c1.66-2.1381 3.71-3.9355 6.06-5.2932 3.31-2.2872 7.21-3.5969 11.24-3.7804 1.41-.1844 2.84-.0054 4.17.5202 1.32.5256 2.48 1.3802 3.38 2.483 1.13 2.4045 1.61 5.0598 1.4 7.7057v29.1209h11.3v-30.0876c.28-4.1749-.37-8.3592-1.89-12.2579-2.36-4.5224-7.61-6.7836-15.74-6.7836-7.28.0459-14.31 2.5961-19.92 7.221v-29.51371523l-11.29 3.24554523v68.18187z"/><path d="m1138.74 45.7526c.17-4.6779-.97-9.3108-3.3-13.3723-3.9-6.2998-10.91-9.4498-21.03-9.4498-8.91 0-15.5 2.4711-19.78 7.4133-4.15 5.2265-6.26 11.7929-5.91 18.4621 0 11.0804 4.23 18.4621 12.7 22.145 4.98 1.8667 10.28 2.7192 15.6 2.5073 7.14.0833 14.24-1.1442 20.93-3.6216l-3.34-8.77c-1.89.8454-3.83 1.5585-5.81 2.134-3.27.8785-6.65 1.3022-10.03 1.2592-7.89 0-13.23-1.809-16.05-5.4269-1.61-2.1752-2.49-4.8112-2.5-7.5219h38.23c.18-2.8435.28-4.7658.28-5.7668m-10.52-2.5686h-28.04c.15-1.8759.62-3.7121 1.39-5.4269 1.97-3.9411 6.19-5.9117 12.65-5.9117 5.98 0 10.03 1.6957 12.16 5.0871 1.04 1.9332 1.67 4.0623 1.84 6.2515"/><path d="m1185.96 24.5158-16.37 36.1971-14.93-36.1971h-12.5l21.22 47.7278-9.82 18.3869h12.35l32.03-66.1119z"/><path d="m376.215 72.7925c-7.54.0391-14.791-2.9027-20.173-8.1849-3.452-3.3734-5.966-7.5887-7.293-12.2301l10.832-3.1035c.792 2.7724 2.294 5.2902 4.357 7.3046 3.279 3.2063 7.691 4.9877 12.277 4.9562 4.513.1849 8.921-1.3904 12.294-4.3934 1.696-1.771 3.024-3.8603 3.908-6.1474.883-2.2871 1.305-4.7265 1.241-7.1775v-40.55704h11.26v40.75484c.052 3.944-.688 7.8584-2.174 11.5121s-3.689 6.9726-6.479 9.7609c-5.453 5.0169-12.651 7.7051-20.058 7.4913"/><path d="m1106.42 132.477v-37.8487l-4.87 1.3734v36.4753z"/><path d="m1114.34 106.942h4.87v25.535h-4.87z"/><path d="m1114.53 96.5868c-.34.2621-.61.5997-.8.9864s-.29.8119-.29 1.2423c0 .3817.07.7604.22 1.1126.15.3519.36.6709.64.9349.31.329.69.589 1.11.763s.87.259 1.33.248c.79.012 1.57-.264 2.18-.777.34-.265.62-.607.81-.999.19-.3916.28-.8224.28-1.2574 0-.3799-.07-.7568-.21-1.1085-.15-.3517-.36-.671-.63-.9392-.31-.3185-.68-.5703-1.09-.7399s-.85-.2534-1.3-.2463c-.82-.021-1.62.255-2.25.7773"/><path d="m1142.75 110.856v-3.914h-8.06v-3.137c-.1-1.396.15-2.794.72-4.0701.47-.6106 1.08-1.0874 1.79-1.3812.7-.2937 1.48-.394 2.23-.2904 1.26.0255 2.51.2128 3.71.5572l.94-3.7582c-1.71-.4527-3.47-.6877-5.24-.6992-1.37-.1339-2.75.0624-4.02.5724-1.28.51-2.41 1.3187-3.31 2.3583-1.29 2.0509-1.88 4.4592-1.69 6.8702v3.009h-5.52v3.914h5.52v21.621h4.88v-21.621z"/><path d="m1171.1 118.47c.08-2.411-.49-4.8-1.63-6.923-1.18-1.837-2.85-3.31-4.82-4.257-1.96-.948-4.15-1.331-6.33-1.109-1.88-.139-3.77.138-5.53.812-1.76.675-3.35 1.729-4.65 3.089-2.23 2.776-3.35 6.273-3.17 9.825-.12 1.809.13 3.624.76 5.327.62 1.702 1.6 3.254 2.87 4.552 3.12 2.524 7.09 3.757 11.09 3.446 3.76.055 7.48-.724 10.89-2.281l-1.76-3.845c-2.53 1.428-5.37 2.187-8.27 2.204-1.99.074-3.98-.225-5.85-.88-1.44-.556-2.65-1.567-3.45-2.878-.86-1.423-1.31-3.057-1.3-4.72h21.03c.08-1.036.13-1.822.13-2.359m-4.72-1.324h-16.39c.12-1.123.4-2.222.84-3.265.73-1.309 1.84-2.37 3.18-3.048s2.85-.941 4.34-.757c1.34-.14 2.7.094 3.92.675 1.22.58 2.26 1.486 3 2.618.61 1.177.98 2.463 1.09 3.783"/><path d="m472.495 106.942h4.873v25.535h-4.873z"/><path d="m472.705 96.5868c-.342.2621-.618.5997-.807.9864s-.286.8119-.283 1.2423c-.005.3817.068.7604.215 1.1127.147.3518.365.6708.641.9348.313.329.692.589 1.112.763.419.174.871.259 1.325.248.796.012 1.57-.264 2.179-.777.345-.265.623-.607.812-.999.19-.3916.284-.8223.277-1.2574.005-.3799-.067-.7568-.21-1.1086-.144-.3517-.356-.671-.626-.939-.309-.3185-.68-.5703-1.09-.7399s-.851-.2534-1.294-.2464c-.821-.0212-1.621.2548-2.254.7773"/><path d="m507.316 106.942h4.873v25.535h-4.873z"/><path d="m507.525 96.5868c-.341.2621-.617.5997-.806.9864s-.286.8119-.283 1.2423c-.005.3817.068.7604.215 1.1126.147.3519.365.6709.64.9349.314.329.693.589 1.113.763.419.174.871.259 1.325.248.795.012 1.568-.264 2.176-.777.345-.265.623-.607.812-.999.19-.3916.284-.8224.277-1.2574.005-.3799-.067-.7569-.21-1.1086-.144-.3517-.357-.671-.626-.9391-.309-.3185-.68-.5704-1.09-.74-.41-.1697-.851-.2534-1.294-.2462-.821-.021-1.621.255-2.254.7773"/><path d="m659.594 106.942h4.872v25.535h-4.872z"/><path d="m659.797 96.5868c-.342.2621-.618.5997-.807.9864s-.285.8119-.282 1.2423c-.006.3817.067.7604.214 1.1126.148.3519.366.6709.641.9349.314.329.692.588 1.112.763.42.174.871.258 1.325.248.797.012 1.57-.264 2.179-.777.345-.265.623-.607.811-.999.189-.392.283-.8226.276-1.2574.004-.3799-.067-.7569-.211-1.1086-.143-.3517-.356-.671-.625-.9391-.31-.3186-.681-.5705-1.092-.7401s-.852-.2534-1.296-.2461c-.82-.021-1.621.255-2.254.7773"/><path d="m1008.52 106.942h4.87v25.535h-4.87z"/><path d="m1008.74 96.5868c-.34.2621-.62.5997-.81.9864s-.28.8119-.28 1.2423c-.01.3817.07.7604.21 1.1127.15.3518.37.6708.64.9348.32.329.7.589 1.12.763s.87.259 1.32.248c.8.012 1.57-.264 2.18-.777.34-.265.62-.607.81-.999s.28-.8226.28-1.2574c0-.3799-.07-.7568-.21-1.1086-.15-.3517-.36-.671-.63-.939-.31-.3184-.68-.5701-1.09-.7397s-.85-.2535-1.29-.2466c-.83-.0212-1.63.2548-2.26.7773"/><path d="m370.384 96.0016h5.004v36.4754h-5.004z"/><path d="m387.336 132.477v-17.189c1.079-1.185 2.339-2.191 3.733-2.98 1.966-1.282 4.242-2.007 6.586-2.101.808-.1 1.627-.004 2.39.28.762.284 1.445.748 1.99 1.353.687 1.324.984 2.817.855 4.304v16.333h4.875v-16.046c.021-1.361-.057-2.721-.234-4.07-.068-1.012-.386-1.991-.924-2.85s-1.28-1.572-2.16-2.076c-1.818-.888-3.827-1.315-5.85-1.245-4.264.097-8.35 1.726-11.511 4.588v-3.836h-4.614v25.535z"/><path d="m422.946 133.235c7.603 0 11.405-2.644 11.405-7.931.064-.941-.106-1.884-.495-2.743-.388-.86-.984-1.61-1.734-2.183-1.879-1.229-3.933-2.168-6.092-2.786l-3.602-1.217c-.802-.248-1.568-.596-2.282-1.036-.365-.207-.666-.509-.872-.874-.206-.366-.308-.78-.295-1.199 0-2.091 1.728-3.137 5.184-3.137 2.505.01 4.979.55 7.26 1.582l1.323-4.045c-2.799-.973-5.744-1.464-8.708-1.451-2.525-.148-5.039.432-7.244 1.671-.897.579-1.624 1.386-2.107 2.338-.484.952-.705 2.015-.642 3.081-.046.927.144 1.851.553 2.685.408.835 1.021 1.552 1.781 2.084 2.085 1.289 4.334 2.292 6.686 2.981 1.694.557 2.844.937 3.449 1.14.744.254 1.431.651 2.023 1.167.291.269.518.599.666.967.148.367.213.763.189 1.159 0 2.559-2.161 3.838-6.483 3.836-3.065.048-6.086-.741-8.736-2.282l-1.608 4.226c3.265 1.428 6.809 2.101 10.37 1.97"/><path d="m466.163 118.918c.158-3.072-.668-6.116-2.36-8.686-1.092-1.382-2.508-2.473-4.122-3.179-1.614-.705-3.376-1.003-5.132-.866-2.461-.063-4.893.527-7.051 1.71-.994.581-1.916 1.277-2.747 2.073v-3.034h-4.589v38.058l4.876-1.376v-11.742c2.27.985 4.734 1.446 7.207 1.348 2.017.141 4.039-.18 5.913-.94 1.874-.759 3.549-1.937 4.899-3.442 2.188-2.833 3.291-6.354 3.112-9.929m-4.979-.103c.096 2.558-.621 5.081-2.047 7.207-.902 1.14-2.073 2.038-3.408 2.613s-2.792.809-4.24.68c-2.249.076-4.478-.452-6.455-1.53v-10.082c-.05-1.054.127-2.107.519-3.087.704-1.397 1.828-2.538 3.215-3.265 1.48-.828 3.15-1.258 4.847-1.245 1.08-.075 2.162.106 3.158.53s1.878 1.078 2.573 1.908c1.308 1.821 1.957 4.034 1.838 6.274"/><path d="m489.328 132.477v-16.411c1.725-1.698 3.769-3.038 6.015-3.942 1.956-.818 4.05-1.258 6.17-1.296l.207-4.095c-2.183.013-4.349.389-6.408 1.114-2.251.893-4.347 2.136-6.21 3.683v-4.588h-4.641v25.535z"/><path d="m528.768 132.477v-17.189c1.078-1.185 2.338-2.191 3.733-2.98 1.965-1.281 4.239-2.007 6.583-2.101.808-.1 1.628-.004 2.391.28s1.446.748 1.991 1.353c.687 1.324.984 2.817.855 4.304v16.333h4.881v-16.046c.022-1.361-.055-2.721-.231-4.07-.068-1.012-.386-1.991-.924-2.85-.538-.86-1.28-1.573-2.16-2.076-1.819-.888-3.828-1.315-5.85-1.245-4.264.097-8.35 1.726-11.512 4.588v-3.836h-4.613v25.535z"/><path d="m581.048 127.836v-20.014c-3.573-.998-7.257-1.547-10.966-1.632-2.148-.183-4.309.142-6.309.948-1.999.807-3.781 2.071-5.202 3.693-2.187 2.943-3.295 6.549-3.137 10.213-.157 2.975.673 5.919 2.36 8.374 1.095 1.325 2.495 2.363 4.08 3.027 1.584.664 3.307.933 5.018.785 3.448.065 6.782-1.229 9.283-3.603v1.246c.157 2.351-.215 4.707-1.089 6.895-1.072 2.056-3.543 3.085-7.413 3.087-2.81.033-5.602-.439-8.244-1.393l-1.426 4.02c3.209.881 6.523 1.316 9.851 1.295 2.316.075 4.627-.276 6.817-1.036 1.258-.398 2.403-1.09 3.341-2.019.937-.929 1.64-2.067 2.049-3.322.802-3.456 1.133-7.005.987-10.55m-4.876-6.129c.02.712-.032 1.424-.156 2.126-.267.976-.765 1.874-1.451 2.618-.88.954-1.958 1.704-3.158 2.196s-2.494.716-3.79.654c-4.805 0-7.207-2.799-7.207-8.399-.14-2.764.674-5.491 2.306-7.725.88-1.048 1.995-1.873 3.253-2.41 1.259-.536 2.626-.768 3.991-.677 2.107.023 4.2.337 6.221.933z"/><path d="m613.35 133.235c7.605 0 11.408-2.644 11.408-7.931.064-.942-.105-1.884-.494-2.744-.389-.859-.985-1.609-1.735-2.182-1.879-1.229-3.933-2.168-6.092-2.786l-3.605-1.217c-.802-.248-1.568-.596-2.282-1.036-.365-.207-.666-.509-.872-.875-.206-.365-.308-.779-.295-1.198 0-2.091 1.728-3.137 5.184-3.137 2.505.01 4.979.549 7.26 1.582l1.324-4.045c-2.8-.973-5.745-1.464-8.709-1.451-2.525-.147-5.039.433-7.244 1.671-.896.579-1.623 1.386-2.106 2.338-.482.952-.703 2.015-.64 3.081-.046.927.144 1.851.552 2.686.408.834 1.021 1.551 1.782 2.083 2.085 1.289 4.334 2.292 6.686 2.981 1.694.557 2.844.937 3.449 1.14.744.254 1.431.65 2.023 1.167.291.269.518.599.666.967.148.367.213.763.189 1.159 0 2.559-2.16 3.838-6.48 3.836-3.065.048-6.086-.741-8.736-2.282l-1.608 4.226c3.265 1.427 6.809 2.1 10.369 1.97"/><path d="m644.203 129.315c-1.391.112-2.79-.096-4.089-.609-1.299-.512-2.464-1.315-3.405-2.346-1.444-1.844-2.179-4.144-2.072-6.483-.075-1.334.116-2.669.561-3.928s1.136-2.417 2.032-3.407c.893-.845 1.949-1.497 3.104-1.916 1.155-.42 2.384-.597 3.61-.522 2.612.008 5.183.649 7.494 1.867l1.393-4.021c-2.874-1.196-5.961-1.796-9.073-1.763-3.515-.215-6.987.853-9.773 3.006-1.493 1.379-2.657 3.076-3.406 4.965s-1.065 3.923-.924 5.95c-.108 1.739.134 3.483.714 5.126.579 1.644 1.483 3.154 2.657 4.441 1.425 1.27 3.092 2.24 4.9 2.85 1.809.611 3.722.849 5.626.702 3.412.085 6.794-.661 9.853-2.176l-1.671-3.942c-2.267 1.41-4.876 2.172-7.545 2.204"/><path d="m696.693 118.47c.078-2.411-.486-4.8-1.633-6.923-1.18-1.837-2.846-3.31-4.813-4.257-1.967-.948-4.158-1.331-6.33-1.109-1.881-.139-3.769.138-5.53.812-1.761.675-3.352 1.729-4.658 3.089-2.224 2.776-3.351 6.273-3.165 9.825-.126 1.809.132 3.624.756 5.327.624 1.702 1.601 3.253 2.866 4.552 3.123 2.524 7.093 3.757 11.096 3.446 3.754.055 7.473-.724 10.89-2.281l-1.761-3.845c-2.523 1.428-5.369 2.187-8.268 2.204-1.988.074-3.972-.225-5.851-.88-1.434-.555-2.646-1.567-3.449-2.878-.86-1.423-1.308-3.057-1.295-4.72h21.025c.086-1.036.129-1.822.131-2.359m-4.716-1.324h-16.387c.12-1.122.401-2.222.836-3.265.735-1.314 1.846-2.379 3.19-3.058s2.86-.941 4.354-.753c1.345-.14 2.703.093 3.924.674s2.259 1.487 2.999 2.619c.607 1.178.977 2.463 1.089 3.783"/><path d="m708.507 132.477v-17.188c1.079-1.186 2.339-2.192 3.734-2.981 1.965-1.282 4.241-2.008 6.585-2.101.808-.1 1.628-.004 2.39.28s1.445.748 1.99 1.353c.687 1.324.983 2.817.855 4.304v16.333h4.873v-16.046c.022-1.361-.056-2.721-.232-4.07-.068-1.012-.386-1.991-.925-2.851-.538-.859-1.281-1.572-2.161-2.075-1.819-.888-3.828-1.316-5.851-1.245-4.263.097-8.348 1.726-11.508 4.588v-3.836h-4.614v25.535z"/><path d="m749.535 129.315c-1.391.112-2.789-.097-4.088-.609-1.298-.513-2.462-1.315-3.403-2.346-1.444-1.844-2.179-4.144-2.073-6.483-.075-1.334.115-2.669.56-3.928s1.135-2.417 2.031-3.407c.893-.845 1.949-1.497 3.104-1.917 1.155-.419 2.384-.597 3.61-.521 2.612.009 5.183.649 7.494 1.866l1.393-4.02c-2.874-1.196-5.961-1.796-9.073-1.763-3.514-.215-6.987.853-9.773 3.006-1.493 1.379-2.657 3.076-3.406 4.965s-1.065 3.923-.924 5.95c-.108 1.739.134 3.482.713 5.126.578 1.643 1.482 3.153 2.656 4.441 1.425 1.271 3.092 2.24 4.901 2.851 1.809.61 3.723.848 5.627.701 3.411.085 6.792-.662 9.85-2.176l-1.671-3.942c-2.266 1.41-4.875 2.172-7.544 2.204"/><path d="m788.708 118.47c.078-2.412-.485-4.801-1.633-6.923-1.18-1.837-2.846-3.311-4.813-4.258s-4.159-1.33-6.33-1.108c-1.881-.139-3.769.138-5.53.812-1.761.675-3.352 1.729-4.658 3.089-2.226 2.775-3.353 6.273-3.165 9.826-.126 1.808.131 3.623.755 5.326.624 1.702 1.601 3.254 2.867 4.552 3.122 2.524 7.093 3.757 11.096 3.446 3.753.055 7.471-.725 10.887-2.281l-1.758-3.845c-2.524 1.429-5.371 2.187-8.271 2.204-1.988.074-3.973-.225-5.851-.88-1.434-.556-2.646-1.567-3.448-2.878-.861-1.423-1.309-3.057-1.296-4.72h21.025c.086-1.036.128-1.822.128-2.359m-4.719-1.323h-16.384c.119-1.124.401-2.223.836-3.266.735-1.314 1.845-2.379 3.19-3.058 1.344-.679 2.86-.941 4.354-.753 1.345-.139 2.702.094 3.923.675 1.22.581 2.257 1.487 2.997 2.618.608 1.178.979 2.463 1.09 3.784"/><path d="m798.049 138.141 3.048-10.414h-4.58l-1.577 10.414z"/><path d="m842.924 118.47c.078-2.411-.485-4.8-1.632-6.923-1.181-1.837-2.847-3.31-4.814-4.257-1.967-.948-4.158-1.331-6.33-1.109-1.88-.139-3.768.138-5.529.812-1.762.675-3.352 1.729-4.659 3.089-2.225 2.775-3.352 6.273-3.165 9.825-.125 1.809.132 3.624.756 5.327.624 1.702 1.601 3.253 2.866 4.552 3.123 2.524 7.093 3.757 11.096 3.446 3.753.055 7.472-.725 10.888-2.281l-1.758-3.845c-2.523 1.428-5.37 2.187-8.269 2.204-1.988.074-3.972-.225-5.85-.88-1.434-.555-2.646-1.567-3.449-2.878-.86-1.423-1.309-3.057-1.296-4.72h21.026c.085-1.036.129-1.822.13-2.359m-4.719-1.324h-16.389c.12-1.122.401-2.222.836-3.265.735-1.314 1.845-2.379 3.189-3.058 1.345-.679 2.861-.941 4.355-.753 1.344-.139 2.702.094 3.922.675 1.221.581 2.258 1.487 2.998 2.618.609 1.177.979 2.463 1.089 3.783"/><path d="m854.382 132.477v-17.188c1.079-1.186 2.339-2.192 3.734-2.981 1.965-1.282 4.241-2.008 6.585-2.101.808-.101 1.629-.005 2.392.28.762.284 1.445.748 1.991 1.353.687 1.324.983 2.817.855 4.304v16.333h4.872v-16.046c.022-1.361-.055-2.721-.231-4.07-.068-1.012-.386-1.991-.925-2.851-.538-.859-1.281-1.572-2.162-2.075-1.818-.888-3.827-1.316-5.85-1.245-4.264.096-8.35 1.725-11.511 4.588v-3.836h-4.614v25.535z"/><path d="m887.635 132.477v-17.189c1.068-1.185 2.319-2.192 3.705-2.98 1.966-1.282 4.242-2.008 6.586-2.101.812-.102 1.636-.007 2.403.277.768.285 1.455.749 2.005 1.356.683 1.326.979 2.817.855 4.304v16.333h4.872v-16.046c.022-1.361-.055-2.721-.231-4.07-.064-1.013-.379-1.994-.918-2.854-.538-.86-1.283-1.572-2.166-2.072-1.831-.887-3.85-1.314-5.884-1.245-4.117.09-8.08 1.591-11.224 4.251v-15.8155l-4.875 1.3735v36.476z"/><path d="m938.505 132.477v-15.815c0-1.505-.016-2.533-.05-3.084-.046-1.287-.383-2.546-.986-3.683-1.45-2.47-4.76-3.706-9.929-3.708-2.721-.031-5.432.354-8.037 1.142-.397.138-1.495.535-3.293 1.193l1.451 3.992c2.897-1.527 6.112-2.352 9.386-2.41 1.888-.203 3.786.286 5.341 1.376.427.476.75 1.035.951 1.642.2.607.273 1.249.213 1.885v1.167c-2.022.088-3.526.156-4.51.207-3.631.027-7.219.785-10.55 2.228-1.29.638-2.367 1.634-3.103 2.87s-1.099 2.658-1.045 4.095c0 5.098 3.146 7.648 9.438 7.65 1.851.19 3.721-.03 5.477-.644s3.356-1.607 4.686-2.908v2.786zm-4.872-8.505c.021.482-.04.965-.181 1.426-.321.771-.863 1.429-1.557 1.892-2.079 1.423-4.563 2.132-7.079 2.023-3.665 0-5.497-1.322-5.497-3.965s2.108-4.268 6.324-4.875c1.9-.275 4.562-.482 7.984-.621z"/><path d="m951.251 132.477v-17.189c1.078-1.185 2.338-2.191 3.733-2.98 1.965-1.281 4.239-2.007 6.583-2.101.808-.1 1.628-.004 2.391.28s1.446.748 1.991 1.353c.687 1.324.984 2.817.855 4.304v16.333h4.862v-16.046c.021-1.361-.057-2.721-.234-4.071-.068-1.011-.386-1.99-.924-2.849-.538-.86-1.28-1.573-2.16-2.076-1.819-.888-3.828-1.315-5.851-1.245-4.263.097-8.349 1.726-11.511 4.588v-3.836h-4.613v25.535z"/><path d="m992.429 129.315c-1.392.112-2.79-.097-4.088-.609-1.299-.513-2.463-1.315-3.403-2.346-1.445-1.844-2.18-4.144-2.073-6.483-.075-1.334.115-2.669.56-3.928.444-1.259 1.135-2.417 2.031-3.407.892-.845 1.949-1.497 3.104-1.916 1.155-.42 2.383-.597 3.61-.522 2.611.009 5.181.649 7.491 1.866l1.389-4.02c-2.87-1.196-5.957-1.796-9.07-1.763-3.514-.215-6.987.853-9.773 3.006-1.493 1.379-2.657 3.075-3.407 4.965-.75 1.889-1.066 3.922-.925 5.95-.108 1.739.135 3.482.714 5.126.579 1.643 1.483 3.154 2.657 4.441 1.425 1.27 3.092 2.24 4.901 2.85 1.81.611 3.724.849 5.627.702 3.412.085 6.793-.662 9.846-2.176l-1.667-3.942c-2.266 1.41-4.875 2.172-7.544 2.204"/><path d="m1026.08 132.477v-17.189c1.08-1.185 2.34-2.191 3.74-2.98 1.96-1.282 4.23-2.008 6.58-2.101.81-.1 1.63-.004 2.39.28s1.45.748 1.99 1.353c.69 1.324.98 2.817.86 4.304v16.333h4.87v-16.046c.02-1.361-.06-2.721-.23-4.071-.07-1.011-.39-1.99-.93-2.849-.53-.86-1.28-1.573-2.16-2.076-1.82-.888-3.82-1.315-5.85-1.245-4.26.097-8.35 1.726-11.51 4.588v-3.836h-4.62v25.535z"/><path d="m1081.52 127.836v-20.014c-3.57-.998-7.25-1.547-10.96-1.632-2.15-.183-4.31.142-6.31.948-2 .807-3.78 2.071-5.2 3.693-2.19 2.943-3.3 6.55-3.14 10.213-.16 2.975.67 5.919 2.36 8.374 1.1 1.325 2.5 2.363 4.08 3.027 1.59.664 3.31.933 5.02.785 3.45.064 6.78-1.23 9.28-3.603v1.246c.16 2.351-.21 4.707-1.09 6.895-1.07 2.056-3.54 3.085-7.41 3.087-2.81.033-5.6-.439-8.24-1.393l-1.43 4.02c3.21.881 6.52 1.317 9.85 1.295 2.32.075 4.63-.276 6.82-1.036 1.26-.398 2.4-1.09 3.34-2.019.94-.928 1.64-2.067 2.05-3.322.8-3.456 1.13-7.005.98-10.55m-4.87-6.129c.02.712-.03 1.424-.16 2.126-.26.976-.76 1.874-1.45 2.618-.88.954-1.96 1.704-3.16 2.196s-2.49.716-3.79.654c-4.8 0-7.2-2.799-7.2-8.399-.14-2.764.67-5.491 2.3-7.725.88-1.048 2-1.873 3.26-2.41 1.25-.536 2.62-.768 3.99-.677 2.1.023 4.2.337 6.22.933z"/></g></svg>