<svg fill="none" height="53" viewBox="0 0 430 53" width="430" xmlns="http://www.w3.org/2000/svg" xmlns:xlink="http://www.w3.org/1999/xlink"><clipPath id="a"><path d="m0 0h430v52.048h-430z"/></clipPath><g clip-path="url(#a)" fill="#fff"><path d="m29.847 1.20999h7.815v27.46001c-.182 10.818-8.619 19.606-19.214 19.606-4.7921-.0025-9.40547-1.8197-12.91197-5.086-2.63718-2.4454-4.552444-5.5679-5.53700656-9.027l7.50700656-2.208c.6656 2.393 2.09452 4.5031 4.06947 6.0094 1.9749 1.5063 4.3877 2.3264 6.8715 2.3356 3.053-.0341 5.9679-1.2777 8.1051-3.4582s3.3221-5.1197 3.2949-8.1728zm44.135 37.93801-20.659-37.93801h-7.846v46.32601h7.846v-29.959l16.295 29.959h8.729l16.295-29.959v29.959h7.846v-46.32601h-7.846z"/><path d="m167.77 17.31c.066-1.2026-.115-2.4059-.53-3.5363-.416-1.1304-1.058-2.164-1.887-3.0377-1.667-1.66666-4.055-2.49999-7.166-2.49999-4.372 0-7.3 1.44932-8.784 4.34799-.735 1.4733-1.105 3.1018-1.078 4.748-.005 1.115.164 2.2239.5 3.287.356 1.2272 1.014 2.3456 1.913 3.253 1.658 1.6667 4.093 2.5 7.305 2.5s5.647-.8333 7.305-2.5c.826-.872 1.467-1.903 1.882-3.0302.416-1.1272.598-2.3271.535-3.5268m-4.14 0c.072 1.4319-.338 2.8466-1.165 4.018-.541.6291-1.223 1.121-1.991 1.4355-.768.3144-1.599.4424-2.426.3735-.827.0715-1.659-.0554-2.428-.37-.768-.3146-1.45-.8079-1.99-1.439-.827-1.1714-1.237-2.5861-1.165-4.018-.073-1.4374.337-2.8579 1.165-4.035.558-.6361 1.259-1.1314 2.045-1.4457.785-.3144 1.634-.4388 2.477-.3633.811-.0621 1.625.0695 2.375.3841.75.3145 1.414.8029 1.938 1.4249.828 1.1771 1.238 2.5976 1.165 4.035"/><path d="m176.02 25.639v-11.044c.596-.7675 1.334-1.4127 2.174-1.9 1.192-.821 2.59-1.2911 4.035-1.357.507-.0662 1.022-.0019 1.497.1867.474.1887.893.4955 1.216.8913.404.8631.576 1.8162.5 2.766v10.453h4.052v-10.8c.099-1.4986-.133-3.0006-.678-4.4-.846-1.62334-2.731-2.435-5.653-2.435-2.61.0165-5.135.93187-7.149 2.592v-10.5939989l-4.053 1.1649889v24.47401z"/><path d="m197.677 25.864v-11.044c.613-.7583 1.362-1.3953 2.209-1.878 1.191-.8237 2.589-1.2995 4.035-1.374.501-.062 1.01.0044 1.478.1929.469.1886.882.4932 1.2.8851.405.8562.578 1.804.5 2.748v10.47h4.053v-10.8c.101-1.4987-.13-3.0012-.678-4.4-.847-1.62333-2.725-2.435-5.635-2.435-2.744-.01172-5.388 1.02574-7.392 2.9v-2.4h-3.826v17.132z"/><path d="m221.923 26.372c5.369 0 8.053-1.7913 8.053-5.374.024-.7542-.144-1.502-.487-2.174-.423-.6997-1.023-1.2757-1.739-1.67-1.899-.9014-3.873-1.6348-5.9-2.192-.643-.1582-1.251-.4353-1.792-.817-.142-.116-.256-.2621-.334-.4276s-.118-.3463-.118-.5294c0-1.148 1.061-1.722 3.183-1.722 1.726.004 3.436.3281 5.044.956l.852-3.35599c-1.992-.56106-4.052-.84209-6.122-.835-1.783-.09946-3.558.30422-5.123 1.16499-.639.40062-1.158.9655-1.504 1.6356-.345.6701-.505 1.4207-.461 2.1734-.035.6389.091 1.2763.368 1.8531.277.5769.695 1.0746 1.215 1.4469 1.428.9046 2.981 1.5962 4.609 2.053l2.279.73c.462.1349.901.3403 1.3.609.19.1233.344.2941.448.4954.104.2014.153.4263.143.6526 0 1.3913-1.333 2.087-4 2.087-2.157-.0003-4.284-.5069-6.209-1.479l-1.044 3.479c2.342.8889 4.836 1.3085 7.34 1.235"/><path d="m252.437 17.31c.066-1.2026-.115-2.4059-.53-3.5363-.416-1.1305-1.058-2.1641-1.887-3.0377-1.667-1.66666-4.055-2.49999-7.166-2.49999-4.371 0-7.299 1.44932-8.783 4.34799-.735 1.4733-1.105 3.1018-1.078 4.748-.005 1.115.164 2.2239.5 3.287.356 1.2272 1.014 2.3456 1.914 3.253 1.658 1.6667 4.091 2.5 7.3 2.5s5.644-.8333 7.305-2.5c.826-.872 1.467-1.9029 1.882-3.0301.416-1.1272.598-2.3272.535-3.5269m-4.139 0c.072 1.4319-.339 2.8465-1.165 4.018-.541.6292-1.224 1.1212-1.991 1.4356-.768.3145-1.6.4424-2.427.3734-.827.0714-1.659-.0555-2.428-.3701-.768-.3146-1.45-.8079-1.99-1.4389-.827-1.1714-1.237-2.5861-1.165-4.018-.073-1.4374.337-2.8579 1.165-4.035.558-.6359 1.259-1.1312 2.045-1.4455.785-.3143 1.634-.4389 2.477-.3635.811-.0621 1.625.0695 2.375.384.75.3146 1.415.803 1.939 1.425.828 1.1772 1.238 2.5977 1.165 4.035"/><path d="m260.077 25.864v-11.044c.613-.7583 1.362-1.3953 2.209-1.878 1.191-.8237 2.589-1.2995 4.035-1.374.501-.062 1.01.0044 1.478.1929.469.1886.882.4932 1.2.8851.405.8561.578 1.804.5 2.748v10.47h4.053v-10.8c.101-1.4987-.13-3.0012-.678-4.4-.847-1.62333-2.725-2.435-5.635-2.435-2.744-.01172-5.388 1.02574-7.392 2.9v-2.4h-3.826v17.132z"/><path d="m290.891 25.639v-17.46301l8.349 17.46301h2.7l8.348-17.46301v17.46301h4.053v-24.47201h-4.522l-9.218 19.27101-9.242-19.27101h-4.52v24.47201z"/><path d="m335.175 25.868v-10.436c0-1.0087-.011-1.6927-.034-2.052-.027-.9068-.267-1.7946-.7-2.592-1.066-1.70466-3.426-2.557-7.079-2.557-1.247-.00181-2.491.09853-3.722.3-1.04.20214-2.068.46356-3.078.78299l-.887.261.991 3.30001c1.952-.8885 4.065-1.368 6.209-1.409 1.199-.1209 2.405.1606 3.426.8.264.2545.468.5644.597.9074.13.3429.181.7103.151 1.0756v.661c-1.391.0347-2.475.0753-3.252.122-3.235.2-5.554.7043-6.957 1.513-.829.453-1.514 1.1306-1.975 1.955-.462.8245-.681 1.7624-.634 2.706 0 3.444 2.167 5.166 6.5 5.166 3.108 0 5.334-.7667 6.679-2.3v1.792zm-4.052-6.088c.015.3107-.019.6218-.1.922-.201.4906-.539.913-.974 1.217-1.272.8664-2.793 1.2941-4.331 1.218-2.238 0-3.357-.7307-3.357-2.192 0-1.4727 1.27-2.383 3.809-2.731 1.032-.1393 2.685-.2437 4.957-.313z"/><path d="m341.301 20.352c-.016.9164.066 1.832.244 2.731.085.5051.278.9859.566 1.4092.289.4233.665.779 1.104 1.0428 1.065.4727 2.229.6816 3.392.609 1.484-.0076 2.961-.1946 4.4-.557l-.748-3.13c-.818.3026-1.684.4557-2.557.452-1.183 0-1.89-.3073-2.122-.922-.2-.9132-.276-1.8494-.226-2.783v-7.461h4.957v-3.235h-4.957v-5.484l-4.053 1.148v4.336h-3.13v3.235h3.13z"/><path d="m356.029 20.352c-.016.9164.065 1.832.244 2.731.085.5051.278.9859.566 1.4092.289.4233.665.779 1.104 1.0428 1.065.4727 2.229.6816 3.392.609 1.484-.0076 2.961-.1946 4.4-.557l-.748-3.13c-.818.3025-1.684.4556-2.556.452-1.183 0-1.89-.3073-2.122-.922-.2-.9132-.277-1.8493-.227-2.783v-7.461h4.958v-3.235h-4.958v-5.484l-4.052 1.148v4.336h-3.13v3.235h3.13z"/><path d="m374.264 25.639v-11.044c.596-.7675 1.334-1.4127 2.174-1.9 1.192-.821 2.59-1.2911 4.035-1.357.507-.0662 1.022-.0019 1.497.1867.474.1887.893.4955 1.216.8913.404.8631.576 1.8162.5 2.766v10.453h4.058v-10.8c.099-1.4986-.133-3.0005-.678-4.4-.847-1.62334-2.732-2.435-5.653-2.435-2.61.0165-5.135.93187-7.149 2.592v-10.5939989l-4.053 1.1649889v24.47401z"/><path d="m408.752 16.423c.062-1.6791-.348-3.3421-1.183-4.8-1.4-2.26133-3.916-3.392-7.548-3.392-3.2 0-5.567.887-7.1 2.661-1.492 1.8761-2.247 4.2331-2.122 6.627 0 3.9773 1.519 6.627 4.557 7.949 1.788.6701 3.692.976 5.6.9 2.563.0299 5.11-.4107 7.514-1.3l-1.2-3.148c-.677.3035-1.374.5594-2.087.766-1.173.3154-2.385.4675-3.6.452-2.829 0-4.749-.6493-5.758-1.948-.581-.7808-.896-1.727-.9-2.7h13.723c.067-1.0207.1-1.7107.1-2.07m-3.774-.922h-10.066c.053-.6734.222-1.3325.5-1.948.707-1.4147 2.22-2.122 4.539-2.122 2.145 0 3.6.6087 4.365 1.826.374.6939.599 1.4582.661 2.244"/><path d="m425.704 8.8-5.879 12.993-5.357-12.993h-4.488l7.619 17.132-3.525 6.6h4.433l11.494-23.73101z"/><path d="m135.043 26.129c-2.707.014-5.309-1.042-7.241-2.938-1.239-1.2109-2.142-2.724-2.618-4.39l3.888-1.114c.284.9951.824 1.8989 1.564 2.622 1.177 1.1509 2.761 1.7903 4.407 1.779 1.62.0664 3.202-.4991 4.413-1.577.609-.6357 1.085-1.3857 1.403-2.2066.317-.821.468-1.6966.445-2.5764v-14.55802h4.042v14.62902c.019 1.4157-.247 2.8208-.78 4.1323-.534 1.3115-1.324 2.5028-2.326 3.5037-1.957 1.8008-4.541 2.7657-7.2 2.689"/><path d="m397.153 47.553v-13.586l-1.749.493v13.093z"/><path d="m399.993 38.387h1.749v9.166h-1.749z"/><path d="m400.064 34.67c-.123.0941-.222.2153-.289.3541-.068.1388-.103.2914-.102.4459-.002.137.024.2729.077.3994.053.1264.131.2406.23.3356.113.118.249.2112.399.2737.151.0626.313.0929.476.0893.286.0043.563-.0948.782-.279.124-.0951.224-.2179.292-.3586.068-.1406.102-.2952.099-.4514.002-.1364-.024-.2717-.076-.3979-.051-.1262-.127-.2409-.224-.3371-.111-.1143-.245-.2047-.392-.2656s-.306-.091-.465-.0884c-.295-.0076-.582.0915-.809.279"/><path d="m410.193 39.792v-1.405h-2.894v-1.126c-.035-.501.055-1.0028.26-1.461.166-.2192.387-.3903.64-.4958.254-.1054.531-.1414.803-.1042.45.0091.898.0764 1.331.2l.335-1.349c-.613-.1625-1.245-.2469-1.879-.251-.491-.048-.986.0224-1.444.2055-.459.183-.866.4733-1.189.8465-.46.7361-.672 1.6004-.605 2.466v1.08h-1.982v1.405h1.982v7.761h1.75v-7.761z"/><path d="m420.368 42.525c.028-.8656-.174-1.723-.586-2.485-.424-.6593-1.022-1.1882-1.728-1.5282s-1.492-.4777-2.272-.3978c-.675-.0501-1.353.0494-1.985.2914s-1.203.6206-1.672 1.1086c-.798.9964-1.202 2.2518-1.135 3.527-.045.6493.047 1.3008.271 1.9119s.575 1.1679 1.029 1.6341c1.121.9059 2.546 1.3485 3.983 1.237 1.348.0196 2.683-.2601 3.909-.819l-.634-1.38c-.905.5125-1.927.7848-2.968.791-.713.0265-1.426-.0806-2.1-.316-.515-.1993-.95-.5622-1.238-1.033-.309-.5107-.47-1.0972-.465-1.694h7.547c.031-.372.047-.6543.047-.847m-1.694-.475h-5.883c.043-.4031.144-.7979.3-1.172.264-.47.661-.8509 1.142-1.0942s1.023-.3379 1.558-.2718c.483-.0501.97.0337 1.408.2422s.811.5337 1.076.9398c.219.4226.351.884.391 1.358"/><path d="m169.603 38.387h1.749v9.166h-1.749z"/><path d="m169.678 34.67c-.122.0941-.221.2153-.289.3541s-.103.2914-.102.4459c-.002.137.025.273.077.3994.053.1264.131.2407.23.3356.113.118.249.2113.399.2738.151.0625.313.0929.476.0892.286.0043.564-.0948.782-.279.124-.0951.224-.2179.292-.3586.068-.1406.102-.2952.099-.4514.002-.1364-.024-.2717-.075-.3979-.052-.1263-.128-.2409-.225-.3371-.111-.1143-.244-.2047-.391-.2656s-.305-.0909-.465-.0884c-.294-.0076-.582.0914-.809.279"/><path d="m182.102 38.387h1.749v9.166h-1.749z"/><path d="m182.177 34.67c-.123.0941-.222.2153-.289.3541-.068.1388-.103.2914-.102.4459-.002.137.024.2729.077.3994.053.1264.131.2406.23.3356.113.118.249.2112.399.2737.151.0626.313.0929.476.0893.285.0041.563-.095.781-.279.124-.0951.224-.2179.292-.3586.068-.1406.102-.2952.099-.4514.002-.1364-.024-.2717-.075-.3979-.052-.1263-.128-.2409-.225-.3371-.111-.1144-.244-.2048-.391-.2657-.148-.0608-.306-.0909-.465-.0883-.294-.0076-.582.0915-.809.279"/><path d="m236.762 38.387h1.749v9.166h-1.749z"/><path d="m236.835 34.67c-.122.0941-.221.2153-.289.3541s-.103.2914-.102.4459c-.002.137.025.2729.077.3994.053.1264.131.2406.23.3356.113.118.249.2112.399.2737.151.0625.313.0929.476.0893.286.0041.564-.095.782-.279.124-.0952.224-.2181.291-.3587.068-.1407.102-.2952.099-.4513.002-.1364-.024-.2717-.075-.3979-.052-.1263-.128-.2409-.225-.3371-.111-.1144-.244-.2048-.392-.2657-.147-.0609-.305-.0909-.465-.0883-.294-.0076-.582.0915-.809.279"/><path d="m362.009 38.387h1.749v9.166h-1.749z"/><path d="m362.088 34.67c-.122.0941-.221.2153-.289.3541s-.103.2914-.102.4459c-.002.137.024.273.077.3994s.131.2407.23.3356c.113.118.249.2113.399.2738.151.0625.313.0929.476.0892.286.0042.564-.0949.782-.279.124-.0952.224-.2181.291-.3587.068-.1407.102-.2952.099-.4513.002-.1364-.024-.2717-.075-.3979-.052-.1263-.128-.2409-.225-.3371-.111-.1143-.244-.2046-.391-.2655s-.306-.091-.465-.0885c-.295-.0076-.582.0915-.81.279"/><path d="m132.95 34.46h1.796v13.093h-1.796z"/><path d="m139.035 47.553v-6.17c.387-.4255.839-.7866 1.34-1.07.706-.4599 1.522-.7205 2.364-.754.29-.0359.584-.0014.858.1006.273.102.518.2685.714.4854.247.4754.353 1.0113.307 1.545v5.863h1.75v-5.76c.008-.4884-.02-.9767-.084-1.461-.025-.3631-.138-.7145-.332-1.0229-.193-.3084-.459-.5644-.775-.7451-.653-.3187-1.374-.4722-2.1-.447-1.53.0348-2.997.6195-4.132 1.647v-1.377h-1.656v9.166z"/><path d="m151.817 47.825c2.729 0 4.094-.949 4.094-2.847.023-.3379-.038-.6761-.177-.9847-.14-.3085-.354-.5776-.623-.7833-.675-.4411-1.412-.7782-2.187-1l-1.293-.437c-.287-.089-.563-.214-.819-.372-.131-.0742-.239-.1826-.313-.3138-.074-.1311-.11-.2798-.106-.4302 0-.7507.62-1.126 1.861-1.126.899.0037 1.787.1972 2.606.568l.475-1.452c-1.005-.3495-2.062-.5257-3.126-.521-.906-.053-1.809.1552-2.6.6-.322.2077-.583.4972-.757.839-.173.3417-.252.7234-.23 1.106-.016.3329.052.6646.198.964.147.2994.367.5567.64.748.748.4627 1.556.8226 2.4 1.07.608.2 1.021.3363 1.238.409.267.0914.513.2337.726.419.104.0966.186.2151.239.347.053.132.076.274.068.416 0 .9187-.776 1.3777-2.327 1.377-1.1.0173-2.185-.2659-3.136-.819l-.577 1.517c1.172.5123 2.444.7539 3.722.707"/><path d="m167.33 42.686c.057-1.103-.24-2.1954-.847-3.118-.392-.4959-.9-.8878-1.48-1.141-.579-.2532-1.212-.36-1.842-.311-.883-.0225-1.756.1893-2.531.614-.357.2084-.688.4581-.986.744v-1.089h-1.647v13.661l1.75-.494v-4.215c.815.3538 1.699.5193 2.587.484.724.0507 1.45-.0647 2.123-.3373.672-.2726 1.274-.6953 1.758-1.2357.785-1.0168 1.182-2.2808 1.117-3.564m-1.787-.037c.035.9183-.223 1.824-.735 2.587-.323.4093-.744.7317-1.223.938-.479.2064-1.002.2902-1.522.244-.807.0273-1.608-.1623-2.317-.549v-3.619c-.018-.3784.045-.7563.186-1.108.253-.5015.657-.9113 1.154-1.172.531-.2975 1.131-.4516 1.74-.447.388-.027.776.0382 1.134.1902.357.1521.674.3868.923.6848.47.6538.703 1.4481.66 2.252"/><path d="m175.645 47.553v-5.891c.62-.6094 1.353-1.0903 2.159-1.415.703-.2935 1.454-.4513 2.215-.465l.074-1.47c-.783.0046-1.561.1398-2.3.4-.808.3204-1.56.7666-2.229 1.322v-1.647h-1.666v9.166z"/><path d="m189.802 47.553v-6.17c.387-.4255.839-.7867 1.34-1.07.705-.4598 1.522-.7204 2.363-.754.29-.036.584-.0016.858.1005.274.102.519.2685.715.4855.247.4755.353 1.0113.307 1.545v5.863h1.752v-5.76c.008-.4884-.02-.9767-.083-1.461-.024-.3631-.138-.7145-.331-1.023-.194-.3084-.46-.5644-.776-.745-.653-.3187-1.374-.4722-2.1-.447-1.53.0349-2.997.6195-4.132 1.647v-1.377h-1.656v9.166z"/><path d="m208.568 45.887v-7.184c-1.282-.3584-2.605-.5552-3.936-.586-.771-.0655-1.547.0511-2.264.3405-.718.2894-1.358.7434-1.868 1.3255-.785 1.0564-1.183 2.3509-1.126 3.666-.056 1.0679.242 2.1246.847 3.006.393.4753.896.8481 1.465 1.0863.569.2383 1.187.335 1.801.2817 1.238.0234 2.434-.4411 3.332-1.293v.447c.057.8438-.077 1.6896-.391 2.475-.384.738-1.271 1.1073-2.661 1.108-1.008.012-2.01-.1573-2.959-.5l-.512 1.443c1.152.3162 2.342.4727 3.536.465.832.027 1.661-.0991 2.447-.372.452-.1428.863-.3912 1.199-.7246.337-.3334.589-.7421.736-1.1924.288-1.2407.407-2.5145.354-3.787m-1.75-2.2c.007.2556-.011.5112-.056.763-.096.3505-.274.6728-.521.94-.316.3423-.702.6113-1.133.7881-.431.1767-.896.2569-1.361.2349-1.724 0-2.587-1.005-2.587-3.015-.05-.992.242-1.971.828-2.773.316-.376.716-.6723 1.168-.8648.451-.1926.942-.2759 1.432-.2432.756.0082 1.508.1209 2.233.335z"/><path d="m220.163 47.825c2.73 0 4.095-.949 4.095-2.847.023-.3379-.038-.6762-.177-.9847-.14-.3086-.354-.5777-.623-.7833-.675-.4412-1.412-.7783-2.187-1l-1.294-.437c-.288-.089-.563-.214-.819-.372-.131-.0742-.239-.1826-.313-.3138-.074-.1311-.11-.2798-.106-.4302 0-.7507.62-1.126 1.861-1.126.899.0037 1.787.1973 2.606.568l.475-1.452c-1.005-.3495-2.062-.5257-3.126-.521-.906-.0528-1.809.1554-2.6.6-.322.2078-.583.4974-.756.8391-.173.3418-.253.7234-.23 1.1059-.017.3329.052.6646.198.964.147.2994.367.5568.64.748.748.4627 1.556.8226 2.4 1.07.608.2 1.021.3363 1.238.409.267.0913.513.2336.726.419.104.0965.186.215.239.347.053.1319.076.274.068.416 0 .9187-.775 1.3777-2.326 1.377-1.1.0173-2.185-.2659-3.136-.819l-.577 1.517c1.172.5122 2.444.7539 3.722.707"/><path d="m231.238 46.418c-.5.04-1.002-.0348-1.468-.2187s-.884-.472-1.222-.8423c-.518-.6617-.782-1.4873-.744-2.327-.027-.4787.042-.9579.201-1.4099.16-.452.408-.8677.73-1.2231.32-.3032.7-.5373 1.114-.6878.415-.1505.856-.2142 1.296-.1872.938.003 1.86.2329 2.69.67l.5-1.443c-1.032-.4295-2.14-.6448-3.257-.633-1.261-.0772-2.508.3062-3.508 1.079-.536.4951-.954 1.1042-1.223 1.7823s-.382 1.408-.331 2.1357c-.039.6243.048 1.25.256 1.84.208.5899.532 1.132.954 1.594.511.456 1.11.8041 1.759 1.0232s1.336.3047 2.019.2518c1.225.0307 2.439-.2373 3.537-.781l-.6-1.415c-.814.506-1.75.7796-2.708.791"/><path d="m250.079 42.525c.028-.8656-.174-1.7231-.586-2.485-.424-.6593-1.022-1.1882-1.728-1.5282s-1.492-.4777-2.272-.3978c-.675-.0501-1.353.0494-1.985.2914s-1.203.6206-1.672 1.1086c-.798.9966-1.203 2.2518-1.136 3.527-.045.6493.047 1.3008.271 1.9118.224.6111.575 1.168 1.029 1.6342 1.121.9059 2.546 1.3485 3.983 1.237 1.348.0196 2.683-.2602 3.909-.819l-.632-1.38c-.906.5125-1.927.7848-2.968.791-.713.0266-1.426-.0806-2.1-.316-.515-.1992-.95-.5622-1.238-1.033-.309-.5108-.47-1.0972-.465-1.694h7.547c.031-.372.046-.6543.047-.847m-1.693-.475h-5.882c.043-.4031.144-.7978.3-1.172.264-.4718.663-.854 1.145-1.0977.483-.2438 1.027-.3379 1.563-.2703.483-.0503.97.0334 1.409.2419.438.2085.81.5338 1.076.9401.218.4227.351.8841.391 1.358"/><path d="m254.32 47.553v-6.17c.387-.4254.839-.7866 1.34-1.07.706-.46 1.522-.7205 2.364-.754.29-.0359.584-.0014.858.1006.273.102.518.2685.714.4854.247.4755.353 1.0113.307 1.545v5.863h1.749v-5.76c.008-.4884-.02-.9767-.083-1.461-.025-.3632-.139-.7146-.332-1.0231-.193-.3084-.46-.5643-.776-.7449-.653-.3187-1.374-.4722-2.1-.447-1.53.035-2.997.6196-4.131 1.647v-1.377h-1.656v9.166z"/><path d="m269.047 46.418c-.499.0399-1.001-.0349-1.467-.2188-.467-.1839-.884-.472-1.222-.8422-.518-.6617-.782-1.4873-.744-2.327-.027-.4786.041-.9578.201-1.4098s.407-.8678.729-1.2232c.32-.3032.7-.5374 1.114-.6879.415-.1505.856-.2142 1.296-.1871.938.0031 1.861.233 2.69.67l.5-1.443c-1.032-.4294-2.14-.6448-3.257-.633-1.261-.0771-2.508.3063-3.508 1.079-.536.4951-.954 1.1042-1.222 1.7823-.269.6781-.383 1.408-.332 2.1357-.039.6242.048 1.2499.256 1.8398.207.5899.532 1.1321.953 1.5942.512.4561 1.11.8042 1.759 1.0233.65.2191 1.337.3047 2.02.2517 1.225.0306 2.438-.2375 3.536-.781l-.6-1.415c-.813.506-1.75.7796-2.708.791"/><path d="m283.108 42.525c.028-.8656-.174-1.7232-.586-2.485-.424-.6593-1.022-1.1884-1.728-1.5284s-1.492-.4776-2.272-.3976c-.675-.0501-1.353.0494-1.985.2914s-1.203.6206-1.672 1.1086c-.799.9963-1.203 2.2517-1.136 3.527-.045.6493.047 1.3008.271 1.9119s.575 1.1679 1.029 1.6341c1.121.906 2.546 1.3486 3.983 1.237 1.347.0194 2.682-.2603 3.908-.819l-.631-1.38c-.906.5127-1.928.785-2.969.791-.714.0266-1.426-.0806-2.1-.316-.515-.1993-.95-.5622-1.238-1.033-.309-.5107-.47-1.0972-.465-1.694h7.547c.031-.372.046-.6543.046-.847m-1.694-.475h-5.881c.043-.4031.144-.7979.3-1.172.264-.4719.662-.8542 1.145-1.0979.482-.2438 1.027-.3378 1.563-.2701.483-.0501.97.0337 1.408.2422s.81.5337 1.076.9398c.218.4226.351.884.391 1.358"/><path d="m286.461 49.586 1.094-3.738h-1.644l-.566 3.738z"/><path d="m302.569 42.525c.028-.8656-.174-1.7231-.586-2.485-.424-.6593-1.022-1.1882-1.728-1.5282s-1.492-.4777-2.272-.3978c-.675-.0501-1.353.0494-1.985.2914s-1.203.6206-1.672 1.1086c-.799.9963-1.203 2.2517-1.136 3.527-.045.6493.047 1.3008.271 1.9118.224.6111.575 1.168 1.029 1.6342 1.121.9058 2.546 1.3484 3.983 1.237 1.347.0194 2.682-.2603 3.908-.819l-.631-1.38c-.906.5125-1.927.7848-2.968.791-.713.0266-1.426-.0806-2.1-.316-.515-.1992-.95-.5622-1.238-1.033-.309-.5108-.47-1.0972-.465-1.694h7.547c.031-.372.046-.6543.047-.847m-1.694-.475h-5.883c.043-.4031.144-.7978.3-1.172.264-.4718.663-.854 1.145-1.0977.483-.2438 1.027-.3379 1.563-.2703.483-.0501.97.0337 1.408.2422s.811.5337 1.076.9398c.219.4225.351.884.391 1.358"/><path d="m306.682 47.553v-6.17c.387-.4254.839-.7866 1.34-1.07.706-.46 1.522-.7205 2.364-.754.29-.0361.584-.0017.858.1003.274.1021.519.2687.715.4857.247.4755.353 1.0113.307 1.545v5.863h1.749v-5.76c.008-.4884-.02-.9767-.083-1.461-.025-.3632-.139-.7147-.332-1.0231-.193-.3085-.46-.5644-.776-.7449-.653-.3188-1.374-.4723-2.1-.447-1.53.0346-2.997.6193-4.132 1.647v-1.377h-1.656v9.166z"/><path d="m318.618 47.553v-6.17c.383-.4256.832-.7869 1.33-1.07.706-.46 1.523-.7205 2.364-.754.292-.0366.587-.0024.863.0996.275.102.522.2688.719.4864.245.476.352 1.0114.307 1.545v5.863h1.749v-5.76c.008-.4884-.02-.9767-.083-1.461-.023-.3635-.136-.7156-.329-1.0243-.194-.3087-.461-.5643-.778-.7437-.657-.3184-1.382-.4719-2.112-.447-1.478.0324-2.9.5711-4.029 1.526v-5.677l-1.75.493v13.093z"/><path d="m336.878 47.553v-5.677c0-.54-.006-.909-.018-1.107-.016-.4618-.137-.9138-.354-1.322-.52-.8867-1.708-1.3303-3.564-1.331-.977-.0112-1.95.1271-2.885.41-.142.0493-.536.192-1.182.428l.521 1.433c1.04-.548 2.194-.8443 3.369-.865.678-.073 1.359.1026 1.917.494.153.1708.27.3714.342.5893s.098.4483.076.6767v.419c-.726.0313-1.265.056-1.619.074-1.303.0098-2.591.2818-3.787.8-.463.2288-.849.5866-1.113 1.0301-.265.4436-.395.954-.376 1.4699 0 1.83 1.13 2.7453 3.388 2.746.665.068 1.336-.0109 1.966-.2313.631-.2203 1.205-.5766 1.682-1.0437v1zm-1.749-3.053c.008.1731-.014.3463-.065.512-.115.2766-.309.5129-.559.679-.746.5106-1.638.7654-2.541.726-1.315 0-1.973-.4743-1.973-1.423s.757-1.532 2.27-1.75c.682-.0987 1.638-.173 2.866-.223z"/><path d="m341.453 47.553v-6.17c.387-.4255.84-.7867 1.34-1.07.705-.4598 1.522-.7204 2.363-.754.29-.036.585-.0016.858.1005.274.102.519.2685.715.4855.247.4755.353 1.0113.307 1.545v5.863h1.745v-5.76c.008-.4884-.02-.9767-.084-1.461-.024-.3631-.138-.7145-.331-1.023-.194-.3084-.46-.5644-.776-.745-.653-.3187-1.374-.4722-2.1-.447-1.53.0349-2.997.6196-4.132 1.647v-1.377h-1.656v9.166z"/><path d="m356.234 46.418c-.499.0399-1.001-.0349-1.467-.2188s-.884-.472-1.222-.8422c-.518-.6617-.782-1.4873-.744-2.327-.027-.4786.041-.9578.201-1.4098s.407-.8678.729-1.2232c.32-.3031.7-.5372 1.114-.6877.415-.1505.856-.2143 1.296-.1873.937.0031 1.86.233 2.689.67l.5-1.443c-1.031-.4295-2.14-.6449-3.257-.633-1.261-.0773-2.508.3061-3.508 1.079-.536.495-.954 1.104-1.223 1.7821-.269.6782-.383 1.4081-.332 2.1359-.039.6243.048 1.25.256 1.8399.208.59.532 1.1321.954 1.5941.512.4561 1.11.8042 1.759 1.0233.65.2191 1.337.3047 2.02.2517 1.225.0306 2.438-.2375 3.536-.781l-.6-1.415c-.813.506-1.75.7796-2.708.791"/><path d="m368.314 47.553v-6.17c.387-.4256.839-.7868 1.34-1.07.705-.4599 1.522-.7205 2.363-.754.29-.036.584-.0016.858.1005.274.102.519.2685.715.4855.247.4755.353 1.0113.307 1.545v5.863h1.75v-5.76c.008-.4884-.02-.9767-.084-1.461-.025-.3631-.138-.7145-.332-1.023-.193-.3084-.459-.5644-.775-.745-.653-.3187-1.374-.4722-2.1-.447-1.53.035-2.997.6196-4.132 1.647v-1.377h-1.659v9.166z"/><path d="m388.215 45.887v-7.184c-1.282-.3584-2.605-.5552-3.936-.586-.771-.0655-1.547.0511-2.264.3405-.718.2894-1.358.7434-1.868 1.3255-.785 1.0565-1.183 2.3509-1.126 3.666-.056 1.0679.242 2.1245.847 3.006.393.4753.896.8481 1.465 1.0863.569.2383 1.187.335 1.802.2817 1.237.0232 2.434-.4412 3.331-1.293v.447c.056.8438-.077 1.6896-.391 2.475-.385.738-1.272 1.1073-2.661 1.108-1.008.012-2.011-.1574-2.959-.5l-.512 1.443c1.152.3162 2.342.4727 3.536.465.832.027 1.661-.0991 2.447-.372.452-.1428.863-.3911 1.199-.7245.337-.3334.589-.7422.736-1.1925.288-1.2407.407-2.5145.354-3.787m-1.75-2.2c.008.2556-.011.5112-.056.763-.096.3505-.275.6728-.521.94-.316.3423-.703.6113-1.133.7881-.431.1767-.896.2569-1.361.2349-1.724 0-2.586-1.005-2.587-3.015-.05-.992.242-1.971.828-2.773.316-.376.716-.6723 1.168-.8648.451-.1926.942-.2759 1.432-.2432.756.0082 1.508.1209 2.233.335z"/></g></svg>