<?xml version="1.0" encoding="UTF-8"?>
<svg width="103px" height="29px" viewBox="0 0 103 29" version="1.1" xmlns="http://www.w3.org/2000/svg" xmlns:xlink="http://www.w3.org/1999/xlink">
    <title>hertz</title>
    <g id="Client-logos-white" stroke="none" stroke-width="1" fill="none" fill-rule="evenodd">
        <g id="Artboard-Copy-9" transform="translate(-97.000000, -59.000000)" fill="#000000" fill-rule="nonzero">
            <g id="hertz" transform="translate(97.000000, 59.000000)">
                <path d="M11.9897635,0.195254244 C11.0510046,4.57220339 10.1287151,8.81898304 9.18995612,13.1633898 L19.4668963,13.1633898 C19.7962854,11.7152542 20.142144,10.2183051 20.4550636,8.72135597 C21.0150252,6.10169491 21.5585172,3.4820339 22.1349481,0.862372884 C22.1843564,0.618305088 22.4808066,0.227796612 22.6784401,0.227796612 C24.5065498,0.162711864 26.3511287,0.178983048 28.3109939,0.178983048 C27.9816048,1.69220339 27.6851545,3.10779661 27.372235,4.52338982 C25.7417588,12.0569491 24.1112827,19.6067796 22.4808066,27.1403389 C22.2172955,28.3444068 22.2337649,28.3444068 20.9656168,28.3444068 L17.2599893,28.3444068 C16.9635391,28.3444068 16.6670888,28.3118645 16.2224136,28.2955932 C16.9141308,25.0250848 17.5893785,21.8684746 18.2810956,18.6305084 L8.00415534,18.6305084 C7.44419386,21.2176271 6.88423237,23.7722034 6.34074035,26.3430509 C5.9125345,28.3444068 5.9125345,28.3444068 3.82091366,28.3444068 C2.66805179,28.3444068 1.5151899,28.3444068 0.362328012,28.3281356 C0.279980736,28.3281356 0.21410292,28.2955932 -2.13162821e-15,28.2305084 C0.082347276,27.7261018 0.148225104,27.2054237 0.247041828,26.6847457 C2.05868194,18.1586441 3.87032202,9.63254238 5.64902322,1.10644068 C5.79724831,0.423050844 6.01135123,0.1138983 6.8018851,0.14644068 C8.51470844,0.244067796 10.1945929,0.195254244 11.9897635,0.195254244 Z" id="Path"></path>
                <path d="M44.1710795,21.7545763 C44.9616133,23.0725423 45.7356778,24.3742373 46.57562,25.7735593 C45.7356778,26.2454237 44.9780828,26.7498305 44.1710795,27.1240678 C41.1242303,28.5884746 37.896217,29.0440679 34.569387,28.5071186 C30.5673094,27.8725424 28.2945245,25.5457627 27.7510324,21.4779661 C27.1746014,17.1335593 28.2121771,13.1145763 30.9131678,9.61627121 C33.9435476,5.67864407 39.1149566,4.13288136 43.8746293,5.61355932 C47.3826233,6.70372882 49.4248357,9.32338985 49.4577746,13.0820339 C49.4742442,14.6928814 49.144855,16.3037288 48.9801605,17.9145762 C48.9142826,18.4840678 48.6178325,18.6467796 48.0414016,18.6467796 C43.5123013,18.6305084 38.9832011,18.6305084 34.4705702,18.6305084 L33.5153418,18.6305084 C32.6589301,21.3315254 34.1247116,23.4630509 36.8915802,23.6420339 C39.2302428,23.7884746 41.4042109,23.2515254 43.4464235,22.1613559 C43.6605264,22.0311864 43.8746293,21.9172882 44.1710795,21.7545763 L44.1710795,21.7545763 Z M43.9240376,13.6677966 C44.2369573,12.2033898 43.7264042,11.0155932 42.4747256,10.3159322 C41.3548026,9.68135591 40.1360629,9.60000002 38.8843843,9.84406777 C37.0398053,10.2020339 35.0964096,12.0244068 34.8328982,13.6677966 L43.9240376,13.6677966 Z" id="Shape"></path>
                <path d="M88.1774641,22.9911865 L98.8332018,22.9911865 C98.454405,24.7159322 98.0920764,26.3755932 97.6968096,28.0189831 C97.6638707,28.1654238 97.3344818,28.3444068 97.1368481,28.3444068 C91.2407827,28.360678 85.3447182,28.3444068 79.448653,28.3444068 C79.3992446,28.3444068 79.3498363,28.3118645 79.1851418,28.2305084 C79.3168974,27.5633898 79.4980614,26.8637288 79.5804086,26.1477966 C79.8109811,24.1627118 80.6838623,22.6332203 82.2484606,21.2664407 C85.822332,18.1423729 89.2150403,14.8230509 92.6900954,11.5850847 C92.9041984,11.3898305 93.1841791,11.259661 93.431221,11.0969491 C93.365343,10.999322 93.3159341,10.9016949 93.2500571,10.820339 L82.9072382,10.820339 C83.3025059,8.94915253 83.6648336,7.22440679 84.0436313,5.45084746 L102.621177,5.45084746 C102.275318,7.14305084 101.945929,8.78644068 101.567132,10.4135593 C101.501254,10.6738983 101.204804,10.8691525 100.990701,11.080678 C96.9721532,14.8230509 92.9536063,18.5491525 88.9515286,22.2915254 C88.7374256,22.4542373 88.5562618,22.6332203 88.1774641,22.9911865 L88.1774641,22.9911865 Z" id="Path"></path>
                <path d="M74.0466716,10.820339 C73.552588,13.1633898 73.0585043,15.4576271 72.5644207,17.7681355 C72.3667872,18.6630509 72.1526843,19.5579661 72.0044592,20.4691525 C71.6915395,22.3077966 72.4985429,23.3328814 74.4089996,23.4467797 C75.4465753,23.5118644 76.4841511,23.4630509 77.6205436,23.4630509 C77.274685,25.0576271 76.9782347,26.5708475 76.6159067,28.0515254 C76.5829679,28.2142373 76.2700482,28.3932203 76.0724147,28.4257627 C73.5196492,28.9952542 71.0492308,28.8 68.7764459,27.4494916 C66.3554359,26.0176272 65.7295967,23.7071186 66.0754553,21.1850848 C66.4871916,18.1261018 67.1459698,15.1159322 67.7553396,12.0894916 C68.5129346,8.34711865 69.3693463,4.63728814 70.1434108,0.894915252 C70.2586969,0.325423728 70.4727998,0.14644068 71.0492308,0.162711864 C72.7785236,0.195254244 74.491347,0.178983048 76.3194565,0.178983048 C75.9571285,1.93627118 75.6277394,3.61220339 75.2654113,5.38576271 L81.4743961,5.38576271 C81.0955986,7.15932203 80.7662095,8.80271185 80.3709426,10.4298305 C80.3215342,10.6088136 79.8933283,10.7877966 79.6298171,10.8040678 C77.8017074,10.8366102 75.9900674,10.820339 74.0466716,10.820339 L74.0466716,10.820339 Z" id="Path"></path>
                <path d="M66.6683556,5.48338984 C66.3060276,7.17559321 65.9766385,8.81898304 65.5813716,10.4461017 C65.5484327,10.5925424 65.1202268,10.6901695 64.873185,10.7389831 C63.5885675,10.9342373 62.271011,10.9830508 61.0193324,11.2922034 C60.064104,11.52 59.3229785,12.2359322 59.0594672,13.2284746 C58.4336279,15.4738982 57.824258,17.719322 57.2972356,19.981017 C56.6878656,22.5681356 56.1773125,25.1715254 55.6008816,27.7586441 C55.5514732,28.0027118 55.2385535,28.3444068 55.0244506,28.360678 C53.2128106,28.4094916 51.41764,28.3932203 49.4577746,28.3932203 C49.6883471,27.3030509 49.90245,26.3105084 50.1165529,25.3342373 C51.0553118,21.1850848 51.8623152,17.019661 52.9657687,12.9030509 C54.6950616,6.39457627 60.6405349,4.40949152 65.7625356,5.28813559 C66.0260468,5.28813559 66.3060276,5.38576271 66.6683556,5.48338984 L66.6683556,5.48338984 Z" id="Path"></path>
            </g>
        </g>
    </g>
</svg>