<svg height="35" viewBox="0 0 230 35" width="230" xmlns="http://www.w3.org/2000/svg"><g fill="none"><g fill="#00a3e0"><path d="m20.0058155 1.66972916c1.6004461.86815946 2.9341778 2.13700486 3.8010794 3.73978817.9336202 1.66953134 1.4004103 3.60621301 1.3337317 5.54289467.0666786 1.8699337-.4667901 3.8066153-1.4004103 5.4093591-.9335802 1.5359957-2.2673119 2.8048411-3.9344765 3.6062525-1.8005218.8681595-3.8010794 1.335633-5.8016769 1.2688454h-6.86865431c-.13335719 0-.20003579.0667876-.26675432.2003628v.0667876 12.4214223c0 .1337334-.0666786.3339379-.1333572.4008046-.13335719.1333378-.26675432.1333378-.40011151.1333378h-5.73499832c-.13335719 0-.33343292-.0664711-.40011152-.1333378-.13335719-.1337334-.20007572-.2670712-.20007572-.4008046v-32.99033639c0-.13357517.06671853-.33389836.20007572-.40068594.1333572-.13357517.26675433-.20036275.40011152-.13357517h13.73730856c2.0005975-.06678758 3.9344765.40068594 5.6683197 1.26888496zm-3.0675749 12.82214784c.9336202-.8681595 1.4004103-2.1370049 1.4004103-3.4058898.0666786-1.26884542-.4667901-2.53773039-1.3337317-3.47267743-1.0002588-.93494704-2.2673119-1.40242056-3.6010436-1.33563298h-6.20178841c-.1333572 0-.20003579.06678759-.26671439.20036275v.06678759 9.01557207c0 .1335752.0666786.2003232.20003579.2671108h.0666786 6.20178841c1.2670531 0 2.5341062-.4674736 3.534365-1.335633z"/><path d="m28.8753867 34.3927174c-.1335169-.1337334-.2001955-.2670712-.1335169-.4008047v-32.99021764c0-.13357517.0667185-.33393792.1335169-.4007255.1333572-.1335356.2667144-.20032319.4000716-.20032319h5.7347588c.1333571 0 .3333929.06678759.4000715.20032319.1337565.13357517.2004351.26715033.2004351.4007255v32.99021764c0 .1337335-.0666786.333938-.2004351.4008047-.1333572.1337334-.2667144.1337334-.4000715.1337334h-5.7347588c-.1333572.0664711-.2667144 0-.4000716-.1337334z"/><path d="m45.2128412 33.5246371c-1.8670008-.9349471-3.4010078-2.4044322-4.4678654-4.1405928-1.0668576-1.8699337-1.6006856-4.0069781-1.534007-6.2107706v-11.2861916c-.0666786-2.20379245.4671494-4.34083687 1.534007-6.21073096 1.0668576-1.8031065 2.6008646-3.20552706 4.4678654-4.14047411 2.0674358-1.00173462 4.3345082-1.53599573 6.6686584-1.46920814 2.2674716-.06678759 4.534544.40068593 6.6019798 1.40242056 1.8003221.86815946 3.4010078 2.20379244 4.4678654 3.94015092 1.0668575 1.8031065 1.6002863 3.87336334 1.6002863 5.94358063 0 .2671503-.2000358.4674735-.6001074.5342611l-5.7347587.3339379h-.1333572c-.333393 0-.4667502-.2003627-.4667502-.5342611.0666786-1.5359957-.5338281-3.07199146-1.6006856-4.14051367-1.1335362-1.06852221-2.6008647-1.60274375-4.1344724-1.53599574-1.5336078-.06674801-3.0676148.46747353-4.201151 1.53599574-1.0672569 1.13530979-1.6673642 2.60451797-1.6006856 4.14051367v11.7536256c-.0666786 1.5359957.5334287 3.0052039 1.6006856 4.0737261 1.1335362 1.0683244 2.6675432 1.6697292 4.201151 1.5359957 1.5336077.0668668 3.0676148-.4676713 4.1344724-1.5359957 1.0668575-1.0685222 1.6673642-2.5377304 1.6006856-4.0737261 0-.3338983.2000358-.5342611.6001074-.5342611l5.7347587.2671503c.1333572 0 .2667144.0667876.4000716.1335752.1333572.066748.2000358.2003232.2000358.3338984.0670779 2.0702568-.5334288 4.1404741-1.6002863 5.9435014-1.0668576 1.7365564-2.6008647 3.1387791-4.4678654 4.0068594-2.0674358 1.0018138-4.3345082 1.4694851-6.6019798 1.4026184-2.2674716.0668667-4.6012226-.4676713-6.6686584-1.4690894z"/><path d="m68.3531098 34.3927174c-.1337565-.1337334-.2004351-.2670712-.2004351-.4008047v-32.99021764c0-.13357517.0666786-.33393792.2004351-.4007255.1333572-.1335356.2667144-.20032319.4000716-.20032319h5.7347587c.1333572 0 .333393.06678759.4000716.20032319.1333572.13357517.2000358.26715033.2000358.4007255v13.69030724c0 .0667876.0666786.1335752.0666786.1335752.0666786 0 .1333572 0 .2000358-.0667876l11.2702803-14.02424517c.2000358-.20032319.4667502-.33389836.7334645-.33389836h6.4019441c.2667143 0 .4000715.06678759.4667501.20032319.0666786.20036275 0 .4007255-.0666786.5342611l-10.8698093 13.89070964c-.0666786.1335356-.1333572.2671107-.0666786.3338983l11.5365953 18.4987364c.0666786.1333377.0666786.2002045.0666786.3339379 0 .2002045-.1333572.3339379-.4667502.3339379h-6.401944c-.2667144 0-.5334288-.1337334-.666786-.4008046l-8.6694156-14.0242848c0-.0667876-.0666786-.1335752-.1333572-.1335752s-.1333572.0667876-.2000358.1335752l-3.0676148 3.8733634c-.0666786.0667875-.0666786.2003627-.0666786.2671107v9.6836062c0 .1333378-.0666786.3335423-.2000358.400409-.1333572.1337334-.2667144.2006001-.4000716.1337334h-5.7347587c-.2000358.1333378-.333393.0668667-.4667502-.0668667z"/><path d="m101.429687 17.8976085c1.800323.8681595 3.667723 1.6695314 5.534723 2.2705801l.533429.2003627v-6.5446688c-.666786-.2671108-1.266893-.5342612-1.733643-.6677968-.866822-.3339379-1.600686-.868199-2.267472-1.4692081-.533429-.5342611-.800143-1.268885-.733465-2.07025684-.066678-1.06852221.466751-2.07025684 1.266894-2.67130553 1.000578-.6677967 2.200793-1.00169506 3.401008-1.00169506v-5.94362017c-1.93368 0-3.934437.40068594-5.734759 1.13527023-1.667364.66783627-3.1342936 1.86993365-4.2011512 3.3391418-1.0005782 1.53595616-1.534007 3.27231465-1.534007 5.14220873-.0666786 1.80310654.4667502 3.60621304 1.534007 5.00867314 1.2002148 1.4024206 2.4671082 2.4709032 3.9344362 3.2723146z"/><path d="m109.031447 6.01028906c1.200614.13357517 2.400829.60104869 3.334329 1.33567255 1.066858.86815945 1.667364 2.13700485 1.667364 3.47263779v.4007255c0 .3338984.266715.6010092.600108.6010092h5.601401c.333393 0 .600507-.2671108.600507-.6010092v-.6678362c.066679-1.9366817-.533828-3.87336337-1.600686-5.47614668-1.133536-1.60274375-2.734221-2.87162871-4.534544-3.67300059-1.800721-.80137187-3.667722-1.26884539-5.6018-1.33563298v5.94358061z"/><path d="m119.434506 20.101401c-.9335-1.2020974-2.200394-2.203832-3.534365-2.9384163-1.800322-.868199-3.601043-1.6027833-5.401366-2.2706196l-1.467328-.5342611v6.5446689c.9339.3338983 1.734043.6678362 2.267472.934947.800143.3338983 1.533607.8013719 2.133715 1.4024206.533828.5342611.800542 1.2688454.800542 2.0034692 0 1.0685222-.46675 2.0702568-1.267292 2.7380536-.866822.7345051-2.133716 1.068443-3.867758 1.068443h-.066679v5.8767535c3.601044-.0664711 6.535301-.9349471 8.669416-2.6711077 2.200393-1.7361607 3.467686-4.4076244 3.334329-7.2792532.066678-1.7363584-.46715-3.4726774-1.600686-4.8750979z"/><path d="m107.564518 28.9832396c-1.200614-.1333378-2.400829-.5341424-3.401008-1.2688058-1.133935-.7345843-1.800721-1.9366817-1.800721-3.2723147v-.7345843c0-.1335751-.066679-.3339379-.200036-.4006859-.133357-.1335752-.266715-.2003627-.400072-.2003627h-5.5351221c-.1333572 0-.333393.0667875-.4000716.2003627-.1333572.1335356-.2000358.2671108-.2000358.4006859v1.0684827c-.0666786 1.9366817.5334288 3.8064175 1.6006857 5.4092404 1.1335361 1.6028228 2.6671439 2.8717078 4.5345438 3.5395836 1.867001.7347426 3.80108 1.2020183 5.801837 1.2020183z"/></g><path d="m131.03778 34.1256462-8.602737-33.05720312-.066679-.20032319c0-.26715033.200036-.46747352.533429-.46747352h6.068551c.333393-.06678758.600108.20032319.666786.46747352l4.601622 19.90103821c.066679.1335752.066679.2003628.133357.2003628.066679 0 .133357-.0667876.133357-.2003628l4.467866-19.83425062c.066678-.33393792.333393-.53426111.666786-.53426111h5.935194c.333393 0 .600107.20032319.666786.46747352l4.801258 19.90103821c.066679.0667876.066679.1335752.133357.1335752.066679 0 .133357-.0667876.133357-.1335752l4.468265-19.83425062c.066679-.33393792.333393-.53426111.600107-.53426111h5.734759c.46715 0 .667185.20032319.533828.66779671l-8.002629 33.05720312c-.066679.2670712-.333393.4672757-.666786.4672757h-5.801438c-.333792 0-.600506-.2002045-.600506-.4672757l-5.001295-21.1032148c-.066678-.1335356-.066678-.2003231-.133357-.2003231-.066678 0-.133357.0667875-.133357.2003231l-4.601223 21.1032148c0 .3339379-.266714.5341424-.600506.5341424 0 0 0 0-.066679 0h-5.401366c-.266714 0-.533428-.2670712-.600107-.5341424z" fill="#e52017"/><path d="m166.714823 34.3927174c-.133357-.1337334-.200036-.2670712-.133357-.4008047v-32.99021764c0-.13357517.066678-.33393792.133357-.4007255.133357-.1335356.266714-.20032319.400072-.20032319h5.66808c.133357 0 .333393.06678759.400071.20032319.133358.13357517.200435.26715033.200435.4007255v32.99021764c0 .1337335-.067077.333938-.200435.4008047-.133357.1337334-.266714.2002045-.400071.1337334h-5.66808c-.133358.0664711-.333393 0-.400072-.1337334z" fill="#e52017"/><path d="m229.799964 6.14390379c-.133357.13357517-.266714.20032319-.400071.20032319h-16.00486c-.133358 0-.200036.06678758-.266715.20036275v.06678759 7.54636388c0 .1335752.066679.2003628.200036.2671504h.066679 10.469737c.133358 0 .333393.0667876.400072.2003232.133357.1335751.200435.2671503.200435.4006859v4.7415624c0 .1335356-.067078.3338983-.200435.4006859-.133357.1335356-.266714.2003232-.400072.1335752h-10.469737c-.133358 0-.200036.066748-.266715.2003232v.0667875 7.8802623c0 .1337334.066679.2002045.200036.2670712h.066679 16.00486c.133357 0 .333393.0668667.400071.1337334.133357.1333378.200036.2670713.200036.400409v4.7416019c0 .1337335-.066679.333938-.200036.4008047-.133357.1337334-.266714.2002045-.400071.1337334h-22.539762c-.333393 0-.600507-.2674668-.600507-.5345381 0 0 0 0 0-.066471v-32.92374664c0-.13357517.066679-.33393792.133756-.4007255.133358-.1335356.266715-.20032319.400072-.20032319h22.539762c.133357 0 .333393.06678759.400072.20032319.133357.13357517.200035.26715033.200035.4007255v4.7415228c0 .1335356-.066678.33389835-.133357.40068593z" fill="#e52017"/><path d="m190.654836 6.01028906c1.200614.13357517 2.33415.60104869 3.26765 1.33567255 1.067257.86815945 1.667364 2.13700485 1.667364 3.47263779v.400686c0 .1335751.066679.3339379.133358.4007255.133357.1335356.266714.2003232.400071.2003232h5.601801c.133357 0 .333393-.0667876.400072-.2003232.133357-.1335752.200035-.2671504.200035-.4007255v-.6677967c.066679-1.9366817-.533428-3.87336337-1.667364-5.47614668-1.133536-1.60274375-2.734222-2.87162871-4.534544-3.67300059-1.733643-.80137187-3.601043-1.20209738-5.535122-1.26888496v5.87683259z" fill="#e52017"/><path d="m183.053076 17.8976085c1.800322.8681595 3.667722 1.6695314 5.534723 2.2705801l.666786.2671107v-6.5446293c-.733465-.2671503-1.333572-.5342611-1.800322-.7346238-.866822-.3338984-1.600287-.8681595-2.267472-1.4692082-.533429-.5342215-.800143-1.2688454-.733464-2.07021724-.066679-1.06852221.46675-2.07025684 1.267292-2.67130553 1.000179-.6677967 2.267073-1.00173462 3.467287-1.00173462v-5.94358061c-2.000358 0-4.001115.40068594-5.801437 1.13527023-1.667364.66783627-3.134293 1.86993365-4.201151 3.33910223-1.000578 1.53599573-1.534007 3.3391418-1.467328 5.1422483-.066679 1.80310654.46675 3.53942544 1.534007 5.00863354 1.000179 1.4024206 2.333751 2.4709428 3.801079 3.2723542z" fill="#e52017"/><path d="m200.990817 20.101401c-.9335-1.2020974-2.200394-2.203832-3.534365-2.9384163-1.800322-.868199-3.601044-1.6027833-5.401366-2.2706196l-1.40025-.5342611v6.5446689c.9335.3338983 1.666965.6677967 2.200393.8681594.800144.3338984 1.534007.8013719 2.134115 1.4024206.533429.5342611.800143 1.2688454.800143 2.0034692 0 1.0685222-.46675 2.0702569-1.266893 2.7380536-.867221.734426-2.134115 1.0683639-3.80108 1.0683639v5.8771491c3.601044-.0668667 6.468224-.934947 8.602338-2.6715033 2.200793-1.7361607 3.467686-4.4075849 3.334329-7.2792136 0-1.6695313-.533429-3.4058503-1.667364-4.8082708z" fill="#e52017"/><path d="m189.187906 28.9832396c-1.266893-.1333378-2.467108-.5341424-3.467686-1.2688058-1.133536-.7345843-1.800322-1.9366817-1.800322-3.2723147v-.7345843c0-.3339379-.266715-.6010486-.600108-.6010486h-5.535122c-.133357 0-.333393.0667875-.400071.2003627-.133358.1335356-.200036.2671108-.133358.4006859v1.0684827c-.066678 1.9366817.533429 3.8064175 1.600287 5.4092404 1.133935 1.6028228 2.667543 2.8717078 4.534943 3.5395836 1.867001.7347426 3.867758 1.2020183 5.868116 1.2020183v-5.9436202z" fill="#e52017"/></g></svg>